M48
; DRILL file {KiCad 9.0.5} date 2025-12-05T22:50:26+0100
; FORMAT={-:-/ absolute / metric / decimal}
; #@! TF.CreationDate,2025-12-05T22:50:26+01:00
; #@! TF.GenerationSoftware,Kicad,Pcbnew,9.0.5
; #@! TF.FileFunction,Plated,1,6,PTH
FMAT,2
METRIC
; #@! TA.AperFunction,Plated,PTH,ViaDrill
T1C0.300
; #@! TA.AperFunction,Plated,PTH,ComponentDrill
T2C0.300
; #@! TA.AperFunction,Plated,PTH,ComponentDrill
T3C0.600
; #@! TA.AperFunction,Plated,PTH,ComponentDrill
T4C0.700
; #@! TA.AperFunction,Plated,PTH,ComponentDrill
T5C0.750
; #@! TA.AperFunction,Plated,PTH,ComponentDrill
T6C0.900
; #@! TA.AperFunction,Plated,PTH,ComponentDrill
T7C1.000
; #@! TA.AperFunction,Plated,PTH,ComponentDrill
T8C1.020
; #@! TA.AperFunction,Plated,PTH,ComponentDrill
T9C1.700
; #@! TA.AperFunction,Plated,PTH,ComponentDrill
T10C2.300
; #@! TA.AperFunction,Plated,PTH,ComponentDrill
T11C3.700
%
G90
G05
T1
X79.863Y-125.424
X79.894Y-65.425
X80.117Y-124.146
X80.117Y-126.702
X80.148Y-64.147
X80.148Y-66.702
X80.841Y-123.063
X80.841Y-127.785
X80.872Y-63.064
X80.872Y-67.786
X81.924Y-122.339
X81.924Y-128.509
X81.955Y-62.34
X81.955Y-68.509
X83.202Y-122.085
X83.202Y-128.763
X83.232Y-62.086
X83.233Y-68.764
X84.479Y-122.339
X84.479Y-128.509
X84.51Y-62.34
X84.51Y-68.509
X85.225Y-69.255
X85.562Y-123.063
X85.563Y-127.785
X85.593Y-63.064
X85.593Y-67.786
X86.286Y-124.146
X86.286Y-126.702
X86.317Y-64.147
X86.317Y-66.702
X86.54Y-125.424
X86.571Y-65.425
X87.325Y-61.309
X87.975Y-70.955
X88.525Y-72.155
X89.26Y-64.009
X90.433Y-83.775
X90.445Y-82.975
X90.525Y-81.455
X90.575Y-62.755
X90.575Y-74.005
X91.56Y-63.009
X92.56Y-63.009
X92.882Y-72.655
X92.966Y-106.137
X92.975Y-74.555
X93.16Y-99.409
X93.16Y-100.909
X93.16Y-102.409
X93.16Y-103.909
X93.16Y-105.409
X93.16Y-106.909
X93.175Y-89.055
X93.36Y-82.309
X93.36Y-83.809
X93.36Y-85.309
X93.36Y-86.809
X93.36Y-88.309
X93.36Y-89.809
X93.425Y-117.805
X94.025Y-95.755
X94.068Y-93.511
X94.075Y-96.855
X94.089Y-94.575
X94.575Y-95.153
X94.592Y-96.284
X94.667Y-94.093
X94.721Y-92.901
X94.86Y-64.009
X94.925Y-122.355
X95.425Y-117.805
X95.525Y-123.105
X96.175Y-78.305
X96.211Y-62.584
X96.225Y-69.255
X96.425Y-122.505
X96.46Y-92.509
X96.46Y-109.609
X96.825Y-74.708
X96.825Y-76.214
X96.825Y-75.461
X96.83Y-73.955
X96.952Y-78.277
X96.975Y-112.955
X96.975Y-113.708
X96.975Y-114.461
X96.975Y-115.214
X97.623Y-64.003
X99.325Y-83.005
X99.574Y-90.587
X99.575Y-106.305
X99.675Y-84.555
X99.675Y-86.055
X99.919Y-63.032
X99.989Y-80.567
X100.675Y-80.255
X100.919Y-63.032
X101.351Y-80.592
X101.875Y-123.155
X102.025Y-80.255
X102.025Y-101.655
X102.025Y-103.155
X102.025Y-104.655
X103.223Y-64.003
X103.299Y-87.562
X103.376Y-80.971
X103.525Y-89.155
X103.575Y-71.555
X103.925Y-80.455
X104.075Y-117.055
X104.425Y-106.355
X104.508Y-80.932
X104.547Y-62.62
X104.625Y-70.455
X104.625Y-73.305
X105.125Y-80.205
X105.225Y-89.305
X105.225Y-98.105
X105.325Y-90.955
X105.425Y-96.305
X105.525Y-100.155
X105.975Y-63.985
X106.125Y-111.455
X106.325Y-107.905
X106.329Y-81.045
X106.625Y-116.755
X106.825Y-111.069
X106.9Y-80.555
X107.425Y-106.105
X107.55Y-80.935
X107.925Y-98.555
X108.075Y-106.505
X108.2Y-80.555
X108.267Y-63.007
X108.311Y-92.255
X108.575Y-93.168
X108.864Y-80.909
X109.267Y-63.007
X109.5Y-80.505
X109.825Y-106.605
X110.075Y-97.905
X110.122Y-116.26
X110.125Y-94.005
X110.15Y-80.885
X110.175Y-96.305
X110.534Y-95.64
X110.625Y-122.855
X110.8Y-80.505
X110.825Y-94.905
X110.825Y-106.955
X110.843Y-97.936
X110.875Y-116.26
X110.928Y-75.272
X110.963Y-105.235
X111.014Y-74.524
X111.235Y-73.804
X111.275Y-103.155
X111.28Y-95.538
X111.437Y-106.494
X111.525Y-108.555
X111.57Y-81.255
X111.575Y-111.455
X111.575Y-63.985
X111.595Y-98.141
X111.625Y-116.855
X111.768Y-73.261
X111.768Y-74.367
X112.075Y-117.555
X112.225Y-101.605
X112.275Y-100.155
X112.347Y-98.448
X112.375Y-72.657
X112.375Y-108.555
X112.425Y-104.805
X112.425Y-122.005
X112.621Y-77.795
X112.725Y-76.055
X112.775Y-107.455
X112.825Y-118.005
X112.929Y-62.603
X113.125Y-78.355
X113.275Y-84.455
X113.4Y-87.034
X113.635Y-76.054
X113.975Y-123.155
X114.125Y-96.775
X114.323Y-64.003
X114.375Y-78.355
X114.578Y-116.308
X114.689Y-75.765
X115.128Y-78.355
X116.235Y-74.654
X116.235Y-75.454
X116.622Y-62.998
X117.035Y-74.654
X117.035Y-75.454
X117.253Y-81.854
X117.27Y-81.08
X117.296Y-122.305
X117.505Y-96.275
X117.622Y-62.998
X117.725Y-80.405
X117.835Y-74.654
X117.835Y-75.454
X117.899Y-123.955
X117.925Y-123.005
X118.067Y-82.623
X118.082Y-81.854
X118.098Y-81.08
X118.125Y-94.405
X118.325Y-84.253
X118.325Y-85.006
X118.635Y-74.654
X118.635Y-75.454
X118.675Y-108.755
X118.905Y-82.649
X118.92Y-81.879
X118.937Y-81.105
X119.139Y-106.866
X119.225Y-109.205
X119.425Y-93.055
X119.758Y-81.879
X119.775Y-75.405
X119.775Y-81.105
X119.917Y-106.866
X119.923Y-64.003
X120.025Y-93.705
X120.275Y-106.155
X120.36Y-108.905
X120.425Y-84.252
X120.425Y-85.005
X121.175Y-108.905
X121.227Y-62.561
X121.425Y-75.555
X121.559Y-106.866
X122.255Y-117.585
X122.337Y-106.866
X122.375Y-101.305
X122.535Y-73.054
X122.665Y-63.998
X122.935Y-74.754
X123.2Y-108.929
X123.2Y-109.788
X123.325Y-85.505
X123.332Y-73.054
X123.422Y-106.97
X123.667Y-114.116
X123.735Y-74.754
X124.085Y-73.054
X124.274Y-114.723
X124.657Y-92.834
X124.935Y-72.655
X124.96Y-63.009
X124.975Y-101.255
X125.029Y-90.334
X125.28Y-93.257
X125.335Y-74.804
X125.634Y-90.783
X125.735Y-73.054
X125.848Y-93.787
X125.96Y-63.009
X126.135Y-74.804
X126.225Y-88.055
X126.298Y-91.137
X126.299Y-68.982
X126.375Y-97.555
X126.411Y-94.287
X126.425Y-126.605
X126.535Y-76.171
X126.535Y-73.054
X126.875Y-103.155
X126.925Y-91.555
X126.935Y-74.804
X127.075Y-69.005
X127.124Y-80.619
X127.125Y-108.955
X127.271Y-79.6
X127.335Y-73.054
X127.423Y-81.353
X127.506Y-112.354
X127.735Y-74.854
X127.738Y-94.21
X127.775Y-70.255
X127.906Y-75.714
X128.035Y-108.801
X128.035Y-109.654
X128.135Y-73.054
X128.246Y-63.907
X128.36Y-69.609
X128.365Y-112.354
X128.535Y-74.854
X128.935Y-73.054
X129.176Y-96.274
X129.335Y-74.854
X129.475Y-69.455
X129.5Y-62.561
X129.712Y-84.272
X129.735Y-73.054
X129.975Y-94.205
X130.135Y-74.854
X130.535Y-73.054
X130.625Y-123.705
X130.675Y-75.845
X131.035Y-81.254
X131.182Y-110.054
X131.216Y-75.165
X131.325Y-94.275
X131.325Y-105.655
X131.481Y-72.108
X131.775Y-100.955
X132.035Y-110.054
X132.175Y-93.355
X132.45Y-101.479
X132.589Y-72.108
X132.644Y-75.013
X132.675Y-104.255
X133.099Y-68.369
X133.1Y-62.995
X133.175Y-90.702
X133.175Y-91.455
X133.194Y-81.446
X133.427Y-75.604
X133.668Y-79.455
X133.725Y-88.655
X133.977Y-80.663
X134.099Y-68.369
X134.1Y-62.995
X134.175Y-84.305
X134.725Y-80.105
X135.221Y-105.751
X135.335Y-108.554
X135.335Y-109.332
X135.829Y-106.359
X135.975Y-76.555
X136.114Y-96.165
X136.127Y-96.918
X136.171Y-97.964
X136.425Y-70.455
X136.435Y-71.5
X136.435Y-72.608
X136.475Y-108.005
X136.69Y-97.418
X136.725Y-81.855
X136.775Y-105.655
X136.825Y-86.705
X136.915Y-107.155
X137.335Y-77.965
X137.375Y-87.905
X137.664Y-62.561
X139.023Y-63.907
X139.425Y-99.705
X139.535Y-74.704
X140.075Y-109.805
X140.575Y-75.655
X141.225Y-84.005
X141.275Y-99.755
X141.311Y-63.007
X141.375Y-67.955
X141.435Y-73.154
X142.275Y-88.791
X142.311Y-63.007
X142.35Y-93.748
X142.35Y-94.332
X142.35Y-94.916
X142.875Y-109.855
X143.075Y-83.805
X143.085Y-81.804
X143.59Y-89.105
X144.075Y-93.605
X144.075Y-94.655
X144.075Y-95.555
X144.531Y-100.305
X144.623Y-63.907
X144.875Y-97.655
X144.885Y-80.054
X145.125Y-106.055
X145.284Y-100.305
X145.284Y-107.646
X145.825Y-76.555
X145.925Y-92.655
X145.928Y-62.542
X146.275Y-90.955
X146.375Y-110.405
X146.475Y-89.055
X147.166Y-105.739
X147.166Y-106.8
X147.253Y-63.882
X147.725Y-106.255
X147.782Y-64.761
X148.225Y-88.555
X148.313Y-105.767
X148.445Y-100.105
X148.51Y-98.005
X148.625Y-95.555
X148.76Y-92.332
X149.014Y-119.859
X149.166Y-124.431
X149.557Y-62.973
X150.025Y-68.055
X150.557Y-62.973
X152.125Y-95.805
X152.341Y-127.327
X152.853Y-63.972
X153.425Y-102.755
X153.913Y-64.327
X154.066Y-81.002
X154.068Y-103.933
X154.738Y-100.833
X155.338Y-100.377
X155.725Y-60.995
X155.775Y-92.955
X156.225Y-70.605
X156.325Y-60.995
X156.375Y-68.605
X156.722Y-64.355
X156.975Y-60.995
X157.325Y-81.105
X157.472Y-106.448
X157.624Y-105.534
X157.625Y-60.995
X157.825Y-100.305
X157.975Y-63.405
X158.507Y-107.728
X158.725Y-80.984
X158.925Y-108.355
X159.075Y-94.005
X159.148Y-92.859
X159.175Y-127.405
X159.275Y-85.442
X159.925Y-107.405
X159.975Y-69.805
X159.975Y-78.355
X160.124Y-72.199
X160.125Y-72.952
X160.125Y-73.705
X160.125Y-74.458
X160.125Y-75.211
X160.175Y-90.505
X160.235Y-108.354
X160.425Y-70.505
X160.52Y-127.428
X160.525Y-65.055
X160.625Y-71.446
X161.159Y-107.764
X161.605Y-113.495
X161.709Y-107.214
X161.825Y-111.805
X162.225Y-63.805
X162.225Y-76.855
X162.275Y-82.655
X162.425Y-106.372
X162.525Y-89.955
X163.339Y-107.213
X163.4Y-61.005
X163.825Y-128.655
X164.05Y-61.005
X164.06Y-94.203
X164.117Y-107.213
X164.7Y-61.005
X165.069Y-82.747
X165.36Y-61.005
X165.397Y-94.586
X165.477Y-107.214
X165.549Y-98.498
X165.585Y-112.554
X165.925Y-105.905
X166.0Y-61.005
X166.027Y-107.764
X166.375Y-80.734
X166.475Y-104.15
X166.65Y-61.005
X166.825Y-98.555
X167.008Y-107.169
X167.075Y-89.905
X167.125Y-100.805
X167.3Y-61.005
X167.95Y-61.005
X168.425Y-122.755
X168.525Y-79.555
X168.6Y-61.005
X169.105Y-127.479
X169.247Y-80.783
X169.275Y-61.005
X169.65Y-113.24
X169.814Y-90.066
X170.025Y-122.705
X170.025Y-80.783
X170.412Y-105.493
X170.625Y-111.655
X171.325Y-89.055
X171.61Y-78.019
X172.125Y-66.805
X172.175Y-105.455
X172.275Y-65.355
X172.275Y-68.305
X172.275Y-87.205
X172.7Y-64.93
X172.855Y-87.725
X173.285Y-112.454
X173.61Y-86.655
X174.374Y-100.159
X174.475Y-128.605
X174.505Y-73.955
X174.525Y-87.455
X174.896Y-104.441
X174.896Y-105.203
X174.896Y-105.965
X174.896Y-106.727
X175.054Y-86.255
X175.658Y-105.965
X175.658Y-106.727
X176.075Y-78.905
X176.225Y-75.655
X176.275Y-77.505
X176.275Y-94.405
X176.42Y-105.965
X176.42Y-106.727
X176.425Y-67.405
X176.725Y-76.655
X176.725Y-78.305
X176.725Y-79.755
X176.875Y-98.895
X176.975Y-65.405
X177.275Y-63.055
X177.3Y-89.309
X177.875Y-63.055
X177.925Y-68.455
X178.025Y-65.555
X178.225Y-71.755
X178.3Y-72.691
X178.525Y-63.055
X178.596Y-104.619
X179.087Y-125.066
X179.186Y-117.805
X179.775Y-126.205
X179.964Y-117.805
X180.311Y-88.236
X180.311Y-89.536
X180.575Y-79.905
X180.711Y-88.886
X180.711Y-90.186
X180.975Y-106.405
X180.993Y-119.663
X181.347Y-81.184
X181.484Y-119.092
X181.551Y-97.101
X181.625Y-63.055
X181.805Y-66.341
X181.812Y-68.585
X181.825Y-67.605
X181.976Y-82.205
X181.979Y-114.151
X181.999Y-118.543
X182.211Y-103.603
X182.225Y-63.055
X182.425Y-65.505
X182.535Y-107.455
X182.584Y-118.068
X182.825Y-63.055
X183.101Y-117.521
X183.125Y-82.055
X183.38Y-103.578
X183.425Y-63.048
X183.445Y-74.345
X183.583Y-116.938
X183.76Y-70.82
X184.075Y-77.455
X184.075Y-97.105
X184.225Y-65.655
X184.701Y-84.401
X184.701Y-112.773
X184.721Y-125.228
X184.751Y-75.919
X184.751Y-76.778
X184.875Y-83.605
X185.035Y-129.565
X185.158Y-126.184
X185.319Y-96.755
X185.375Y-101.905
X185.412Y-94.764
X185.499Y-125.228
X185.513Y-106.804
X185.513Y-109.979
X185.775Y-74.705
X185.925Y-119.555
X186.133Y-96.413
X186.175Y-78.105
X186.175Y-114.705
X186.375Y-81.205
X186.492Y-126.738
X186.785Y-129.035
X186.809Y-118.64
X186.875Y-77.755
X186.875Y-95.455
X186.975Y-82.655
X187.233Y-89.252
X187.425Y-107.725
X187.725Y-88.159
X187.975Y-90.155
X187.977Y-108.555
X188.275Y-73.105
X188.525Y-63.155
X189.175Y-107.855
X189.225Y-122.455
X189.35Y-116.33
X189.725Y-70.205
X189.9Y-115.78
X190.275Y-127.105
X190.339Y-90.573
X190.593Y-104.06
X190.695Y-114.906
X190.797Y-110.36
X190.847Y-91.233
X190.875Y-121.688
X191.025Y-94.155
X191.189Y-112.271
X191.225Y-127.105
X191.355Y-91.894
X191.425Y-80.955
X191.472Y-115.614
X191.721Y-112.803
X192.023Y-116.164
X192.265Y-64.085
X192.375Y-122.355
X192.727Y-119.656
X192.954Y-77.457
X193.125Y-75.234
X193.175Y-68.405
X193.175Y-70.055
X193.955Y-107.337
X194.424Y-74.754
X194.661Y-73.364
X194.675Y-72.255
X194.683Y-117.827
X194.692Y-92.548
X194.692Y-94.448
X194.722Y-82.479
X194.789Y-113.103
X195.125Y-67.205
X195.125Y-66.354
X195.186Y-72.824
X195.321Y-112.571
X195.971Y-70.852
X196.187Y-112.81
X196.254Y-90.471
X196.308Y-125.803
X196.335Y-96.212
X196.537Y-114.424
X196.719Y-112.278
X196.875Y-111.255
X196.918Y-104.65
X196.975Y-96.802
X197.125Y-119.605
X197.425Y-125.155
X197.858Y-108.988
X198.096Y-105.203
X198.375Y-80.2
X198.775Y-77.805
X198.874Y-105.203
X199.175Y-103.535
X199.652Y-116.828
X199.675Y-60.955
X199.775Y-99.955
X199.788Y-114.525
X200.054Y-87.925
X200.144Y-120.291
X200.545Y-99.955
X200.67Y-106.669
X200.833Y-121.125
X200.833Y-121.903
X201.025Y-95.255
X201.475Y-119.355
X201.775Y-67.405
X202.025Y-65.105
X202.125Y-126.105
X203.175Y-70.955
X203.725Y-122.755
X203.773Y-96.802
X203.975Y-121.705
X204.325Y-92.355
X204.325Y-93.108
X204.372Y-91.505
X204.412Y-99.708
X204.725Y-86.855
X205.075Y-94.055
X205.075Y-95.055
X205.125Y-91.505
X205.171Y-99.704
X205.783Y-103.035
X205.848Y-107.788
X205.924Y-99.706
X205.975Y-119.105
X206.125Y-127.105
X206.245Y-102.055
X206.275Y-122.305
X206.325Y-107.205
X206.575Y-101.255
X206.677Y-99.702
X206.775Y-67.405
X206.775Y-108.705
X206.775Y-109.458
X207.325Y-102.955
X209.894Y-65.424
X209.913Y-125.424
X210.148Y-64.146
X210.148Y-66.701
X210.167Y-124.146
X210.167Y-126.702
X210.872Y-63.063
X210.872Y-67.784
X210.891Y-123.063
X210.891Y-127.785
X211.955Y-62.339
X211.955Y-68.508
X211.974Y-122.339
X211.974Y-128.509
X213.233Y-62.085
X213.233Y-68.762
X213.252Y-122.085
X213.252Y-128.763
X214.51Y-62.339
X214.51Y-68.508
X214.529Y-122.339
X214.529Y-128.509
X215.593Y-63.063
X215.593Y-67.784
X215.612Y-123.063
X215.613Y-127.785
X216.317Y-64.146
X216.317Y-66.701
X216.336Y-124.146
X216.336Y-126.702
X216.571Y-65.423
X216.59Y-125.424
T2
X185.66Y-68.729
X185.66Y-70.129
X186.36Y-68.029
X186.36Y-69.429
X186.36Y-70.829
X187.06Y-68.729
X187.06Y-70.129
X187.76Y-68.029
X187.76Y-69.429
X187.76Y-70.829
X188.46Y-68.729
X188.46Y-70.129
T4
X129.035Y-114.164
X129.035Y-117.364
X129.535Y-115.664
X129.535Y-118.864
X131.035Y-114.114
X131.035Y-117.314
X132.035Y-115.664
X132.035Y-118.864
X133.035Y-114.164
X133.035Y-117.364
X134.035Y-115.664
X134.035Y-118.864
X135.035Y-114.164
X135.035Y-117.364
X136.535Y-115.664
X136.535Y-118.864
X137.035Y-114.164
X137.035Y-117.364
T5
X91.372Y-115.169
X93.372Y-115.169
X201.005Y-63.92
X203.005Y-63.92
X205.005Y-63.92
X205.037Y-125.532
X207.005Y-63.92
X207.037Y-125.532
T6
X163.43Y-114.504
X163.43Y-119.564
X164.7Y-117.044
X165.97Y-114.504
X165.97Y-120.834
X167.24Y-117.044
X168.51Y-114.504
X169.78Y-117.044
X171.05Y-114.504
X172.32Y-117.044
X172.32Y-120.834
X173.59Y-114.504
X174.86Y-117.044
X174.86Y-119.564
T7
X146.635Y-114.732
X146.635Y-117.352
X149.135Y-114.732
X149.135Y-117.352
X151.135Y-114.732
X151.135Y-117.352
X153.635Y-114.732
X153.635Y-117.352
T8
X162.515Y-127.454
X165.055Y-127.454
X173.235Y-127.454
X175.775Y-127.454
X202.663Y-73.385
X202.663Y-76.385
X202.663Y-79.385
X202.663Y-82.385
X205.663Y-73.385
X205.663Y-76.385
X205.663Y-79.385
X205.663Y-82.385
T9
X161.27Y-120.344
X177.02Y-120.344
T10
X126.465Y-115.184
X126.465Y-120.864
X139.605Y-115.184
X139.605Y-120.864
X143.565Y-114.382
X143.565Y-120.062
X156.705Y-114.382
X156.705Y-120.062
T11
X166.235Y-64.479
X166.235Y-76.479
T3
G00X180.895Y-124.534
M15
G01X180.895Y-123.434
M16
G05
G00X180.895Y-128.554
M15
G01X180.895Y-127.754
M16
G05
G00X189.535Y-124.534
M15
G01X189.535Y-123.434
M16
G05
G00X189.535Y-128.554
M15
G01X189.535Y-127.754
M16
G05
G00X191.915Y-124.579
M15
G01X191.915Y-123.479
M16
G05
G00X191.915Y-128.599
M15
G01X191.915Y-127.799
M16
G05
G00X200.555Y-124.579
M15
G01X200.555Y-123.479
M16
G05
G00X200.555Y-128.599
M15
G01X200.555Y-127.799
M16
G05
T6
G00X90.635Y-119.892
M15
G01X90.635Y-121.692
M16
G05
G00X90.635Y-126.352
M15
G01X90.635Y-127.152
M16
G05
G00X105.135Y-119.892
M15
G01X105.135Y-121.692
M16
G05
G00X105.135Y-126.352
M15
G01X105.135Y-127.152
M16
G05
G00X108.035Y-119.892
M15
G01X108.035Y-121.692
M16
G05
G00X108.035Y-126.352
M15
G01X108.035Y-127.152
M16
G05
G00X122.535Y-119.892
M15
G01X122.535Y-121.692
M16
G05
G00X122.535Y-126.352
M15
G01X122.535Y-127.152
M16
G05
M30
