%TF.GenerationSoftware,KiCad,Pcbnew,9.0.5*%
%TF.CreationDate,2025-12-05T22:50:01+01:00*%
%TF.ProjectId,high-speed,68696768-2d73-4706-9565-642e6b696361,rev?*%
%TF.SameCoordinates,Original*%
%TF.FileFunction,Paste,Bot*%
%TF.FilePolarity,Positive*%
%FSLAX46Y46*%
G04 Gerber Fmt 4.6, Leading zero omitted, Abs format (unit mm)*
G04 Created by KiCad (PCBNEW 9.0.5) date 2025-12-05 22:50:01*
%MOMM*%
%LPD*%
G01*
G04 APERTURE LIST*
G04 Aperture macros list*
%AMRoundRect*
0 Rectangle with rounded corners*
0 $1 Rounding radius*
0 $2 $3 $4 $5 $6 $7 $8 $9 X,Y pos of 4 corners*
0 Add a 4 corners polygon primitive as box body*
4,1,4,$2,$3,$4,$5,$6,$7,$8,$9,$2,$3,0*
0 Add four circle primitives for the rounded corners*
1,1,$1+$1,$2,$3*
1,1,$1+$1,$4,$5*
1,1,$1+$1,$6,$7*
1,1,$1+$1,$8,$9*
0 Add four rect primitives between the rounded corners*
20,1,$1+$1,$2,$3,$4,$5,0*
20,1,$1+$1,$4,$5,$6,$7,0*
20,1,$1+$1,$6,$7,$8,$9,0*
20,1,$1+$1,$8,$9,$2,$3,0*%
G04 Aperture macros list end*
%ADD10RoundRect,0.250000X0.450000X-0.262500X0.450000X0.262500X-0.450000X0.262500X-0.450000X-0.262500X0*%
%ADD11RoundRect,0.250000X-0.262500X-0.450000X0.262500X-0.450000X0.262500X0.450000X-0.262500X0.450000X0*%
%ADD12RoundRect,0.225000X0.250000X-0.225000X0.250000X0.225000X-0.250000X0.225000X-0.250000X-0.225000X0*%
%ADD13RoundRect,0.250000X0.475000X-0.250000X0.475000X0.250000X-0.475000X0.250000X-0.475000X-0.250000X0*%
%ADD14RoundRect,0.400000X0.400000X-0.400000X0.400000X0.400000X-0.400000X0.400000X-0.400000X-0.400000X0*%
%ADD15RoundRect,0.035000X-0.700000X-0.105000X0.700000X-0.105000X0.700000X0.105000X-0.700000X0.105000X0*%
%ADD16RoundRect,0.087500X-0.725000X-0.087500X0.725000X-0.087500X0.725000X0.087500X-0.725000X0.087500X0*%
%ADD17RoundRect,0.250000X0.262500X0.450000X-0.262500X0.450000X-0.262500X-0.450000X0.262500X-0.450000X0*%
%ADD18RoundRect,0.225000X-0.250000X0.225000X-0.250000X-0.225000X0.250000X-0.225000X0.250000X0.225000X0*%
%ADD19RoundRect,0.250000X-0.250000X-0.475000X0.250000X-0.475000X0.250000X0.475000X-0.250000X0.475000X0*%
%ADD20R,0.475000X0.250000*%
%ADD21R,0.250000X0.475000*%
%ADD22RoundRect,0.250000X0.250000X0.475000X-0.250000X0.475000X-0.250000X-0.475000X0.250000X-0.475000X0*%
%ADD23RoundRect,0.250000X-0.450000X0.262500X-0.450000X-0.262500X0.450000X-0.262500X0.450000X0.262500X0*%
%ADD24R,0.254000X0.675000*%
%ADD25R,0.675000X0.254000*%
%ADD26RoundRect,0.087500X0.725000X0.087500X-0.725000X0.087500X-0.725000X-0.087500X0.725000X-0.087500X0*%
%ADD27RoundRect,0.150000X-0.150000X-0.700000X0.150000X-0.700000X0.150000X0.700000X-0.150000X0.700000X0*%
%ADD28RoundRect,0.250000X-0.250000X-1.150000X0.250000X-1.150000X0.250000X1.150000X-0.250000X1.150000X0*%
%ADD29RoundRect,0.162500X0.447500X0.162500X-0.447500X0.162500X-0.447500X-0.162500X0.447500X-0.162500X0*%
%ADD30RoundRect,0.225000X-0.225000X-0.250000X0.225000X-0.250000X0.225000X0.250000X-0.225000X0.250000X0*%
%ADD31RoundRect,0.150000X-0.150000X0.512500X-0.150000X-0.512500X0.150000X-0.512500X0.150000X0.512500X0*%
%ADD32RoundRect,0.250000X0.945000X-0.420000X0.945000X0.420000X-0.945000X0.420000X-0.945000X-0.420000X0*%
%ADD33RoundRect,0.150000X-0.512500X-0.150000X0.512500X-0.150000X0.512500X0.150000X-0.512500X0.150000X0*%
%ADD34RoundRect,0.250000X-0.475000X0.250000X-0.475000X-0.250000X0.475000X-0.250000X0.475000X0.250000X0*%
%ADD35RoundRect,0.250000X-0.545000X-0.445000X0.545000X-0.445000X0.545000X0.445000X-0.545000X0.445000X0*%
%ADD36RoundRect,0.250000X-0.750000X2.000000X-0.750000X-2.000000X0.750000X-2.000000X0.750000X2.000000X0*%
%ADD37RoundRect,0.051250X-0.733750X-0.153750X0.733750X-0.153750X0.733750X0.153750X-0.733750X0.153750X0*%
%ADD38RoundRect,0.205000X-0.205000X-0.245000X0.205000X-0.245000X0.205000X0.245000X-0.205000X0.245000X0*%
%ADD39RoundRect,0.100000X-0.625000X-0.100000X0.625000X-0.100000X0.625000X0.100000X-0.625000X0.100000X0*%
%ADD40RoundRect,0.250000X0.420000X0.945000X-0.420000X0.945000X-0.420000X-0.945000X0.420000X-0.945000X0*%
%ADD41RoundRect,0.100000X0.100000X-0.637500X0.100000X0.637500X-0.100000X0.637500X-0.100000X-0.637500X0*%
%ADD42RoundRect,0.100000X-0.637500X-0.100000X0.637500X-0.100000X0.637500X0.100000X-0.637500X0.100000X0*%
%ADD43RoundRect,0.250000X-0.945000X0.420000X-0.945000X-0.420000X0.945000X-0.420000X0.945000X0.420000X0*%
%ADD44RoundRect,0.150000X0.150000X-0.512500X0.150000X0.512500X-0.150000X0.512500X-0.150000X-0.512500X0*%
%ADD45RoundRect,0.051250X0.733750X0.153750X-0.733750X0.153750X-0.733750X-0.153750X0.733750X-0.153750X0*%
%ADD46RoundRect,0.250000X0.375000X0.625000X-0.375000X0.625000X-0.375000X-0.625000X0.375000X-0.625000X0*%
%ADD47RoundRect,0.150000X0.825000X0.150000X-0.825000X0.150000X-0.825000X-0.150000X0.825000X-0.150000X0*%
%ADD48RoundRect,0.247500X0.247500X-0.247500X0.247500X0.247500X-0.247500X0.247500X-0.247500X-0.247500X0*%
%ADD49RoundRect,0.062500X0.062500X-0.350000X0.062500X0.350000X-0.062500X0.350000X-0.062500X-0.350000X0*%
%ADD50RoundRect,0.062500X0.350000X-0.062500X0.350000X0.062500X-0.350000X0.062500X-0.350000X-0.062500X0*%
%ADD51RoundRect,0.150000X0.150000X0.700000X-0.150000X0.700000X-0.150000X-0.700000X0.150000X-0.700000X0*%
%ADD52RoundRect,0.250000X0.250000X1.150000X-0.250000X1.150000X-0.250000X-1.150000X0.250000X-1.150000X0*%
%ADD53RoundRect,0.250000X0.625000X-0.375000X0.625000X0.375000X-0.625000X0.375000X-0.625000X-0.375000X0*%
%ADD54RoundRect,0.225000X0.225000X0.250000X-0.225000X0.250000X-0.225000X-0.250000X0.225000X-0.250000X0*%
%ADD55R,0.340000X1.600000*%
%ADD56R,1.200000X0.400000*%
%ADD57RoundRect,0.250000X-0.450000X-0.350000X0.450000X-0.350000X0.450000X0.350000X-0.450000X0.350000X0*%
G04 APERTURE END LIST*
D10*
%TO.C,R126*%
X178299844Y-88486354D03*
X178299844Y-86661354D03*
%TD*%
D11*
%TO.C,R29*%
X198712344Y-126104954D03*
X200537344Y-126104954D03*
%TD*%
D12*
%TO.C,R90*%
X121148080Y-98869276D03*
X121148080Y-97319276D03*
%TD*%
D13*
%TO.C,C18*%
X176547244Y-102597354D03*
X176547244Y-100697354D03*
%TD*%
D14*
%TO.C,SW2*%
X159388380Y-105522330D03*
X159388380Y-98920634D03*
%TD*%
D15*
%TO.C,U14*%
X130274844Y-100704954D03*
X130274844Y-100204954D03*
X130274844Y-99704954D03*
X130274844Y-99204954D03*
X130274844Y-98704954D03*
X134574844Y-98704954D03*
X134574844Y-99204954D03*
X134574844Y-99704954D03*
X134574844Y-100204954D03*
X134574844Y-100704954D03*
%TD*%
D16*
%TO.C,U8*%
X182842144Y-122408554D03*
X182842144Y-121908554D03*
X182842144Y-121408554D03*
X182842144Y-120908554D03*
X182842144Y-120408554D03*
X187067144Y-120408554D03*
X187067144Y-120908554D03*
X187067144Y-121408554D03*
X187067144Y-121908554D03*
X187067144Y-122408554D03*
%TD*%
D17*
%TO.C,R134*%
X197344847Y-89309125D03*
X195519847Y-89309125D03*
%TD*%
D18*
%TO.C,R59*%
X144660244Y-61334354D03*
X144660244Y-62884354D03*
%TD*%
D19*
%TO.C,C64*%
X172668173Y-95101634D03*
X174568173Y-95101634D03*
%TD*%
D17*
%TO.C,R23*%
X180736344Y-98929554D03*
X178911344Y-98929554D03*
%TD*%
D14*
%TO.C,SW3*%
X163938380Y-105522330D03*
X163938380Y-98920634D03*
%TD*%
D17*
%TO.C,R32*%
X184337344Y-128154954D03*
X182512344Y-128154954D03*
%TD*%
%TO.C,R104*%
X197344847Y-77909125D03*
X195519847Y-77909125D03*
%TD*%
%TO.C,R33*%
X195437344Y-128154954D03*
X193612344Y-128154954D03*
%TD*%
D10*
%TO.C,R39*%
X194874844Y-102767454D03*
X194874844Y-100942454D03*
%TD*%
D20*
%TO.C,U25*%
X150150744Y-89365754D03*
X150150744Y-89865754D03*
X150150744Y-90365754D03*
X150150744Y-90865754D03*
D21*
X149488244Y-91028254D03*
X148988244Y-91028254D03*
X148488244Y-91028254D03*
D20*
X147825744Y-90865754D03*
X147825744Y-90365754D03*
X147825744Y-89865754D03*
X147825744Y-89365754D03*
D21*
X148488244Y-89203254D03*
X148988244Y-89203254D03*
X149488244Y-89203254D03*
%TD*%
D19*
%TO.C,C31*%
X132924844Y-96904954D03*
X134824844Y-96904954D03*
%TD*%
D17*
%TO.C,R108*%
X197437344Y-81704954D03*
X195612344Y-81704954D03*
%TD*%
D11*
%TO.C,R16*%
X135362344Y-74204954D03*
X137187344Y-74204954D03*
%TD*%
D18*
%TO.C,R80*%
X99174844Y-87029954D03*
X99174844Y-88579954D03*
%TD*%
D22*
%TO.C,C7*%
X115574844Y-121754954D03*
X113674844Y-121754954D03*
%TD*%
D12*
%TO.C,R49*%
X92826184Y-65457975D03*
X92826184Y-63907975D03*
%TD*%
D22*
%TO.C,C1*%
X153474844Y-91904954D03*
X151574844Y-91904954D03*
%TD*%
D23*
%TO.C,R120*%
X168624844Y-81692454D03*
X168624844Y-83517454D03*
%TD*%
D11*
%TO.C,R96*%
X192162344Y-66704954D03*
X193987344Y-66704954D03*
%TD*%
%TO.C,R19*%
X123962344Y-71754954D03*
X125787344Y-71754954D03*
%TD*%
D24*
%TO.C,U24*%
X151009744Y-93892854D03*
D25*
X151147244Y-94805354D03*
X151147244Y-95305354D03*
X151147244Y-95805354D03*
X151147244Y-96305354D03*
D24*
X151009744Y-97217854D03*
X150509744Y-97217854D03*
X150009744Y-97217854D03*
X149509744Y-97217854D03*
X149009744Y-97217854D03*
X148509744Y-97217854D03*
X148009744Y-97217854D03*
X147509744Y-97217854D03*
X147009744Y-97217854D03*
X146509744Y-97217854D03*
D25*
X146372244Y-96305354D03*
X146372244Y-95805354D03*
X146372244Y-95305354D03*
X146372244Y-94805354D03*
D24*
X146509744Y-93892854D03*
X147009744Y-93892854D03*
X147509744Y-93892854D03*
X148009744Y-93892854D03*
X148509744Y-93892854D03*
X149009744Y-93892854D03*
X149509744Y-93892854D03*
X150009744Y-93892854D03*
X150509744Y-93892854D03*
%TD*%
D23*
%TO.C,R15*%
X106574844Y-72367454D03*
X106574844Y-74192454D03*
%TD*%
D17*
%TO.C,R9*%
X171837344Y-125254954D03*
X170012344Y-125254954D03*
%TD*%
D23*
%TO.C,R125*%
X185924844Y-84742454D03*
X185924844Y-86567454D03*
%TD*%
D12*
%TO.C,R44*%
X107957854Y-65483844D03*
X107957854Y-63933844D03*
%TD*%
D19*
%TO.C,C58*%
X172650844Y-81428954D03*
X174550844Y-81428954D03*
%TD*%
D26*
%TO.C,U10*%
X198395544Y-120256154D03*
X198395544Y-120756154D03*
X198395544Y-121256154D03*
X198395544Y-121756154D03*
X198395544Y-122256154D03*
X194170544Y-122256154D03*
X194170544Y-121756154D03*
X194170544Y-121256154D03*
X194170544Y-120756154D03*
X194170544Y-120256154D03*
%TD*%
D17*
%TO.C,R113*%
X197344847Y-85509125D03*
X195519847Y-85509125D03*
%TD*%
D11*
%TO.C,R12*%
X161662344Y-72204954D03*
X163487344Y-72204954D03*
%TD*%
%TO.C,R95*%
X194212344Y-68604954D03*
X196037344Y-68604954D03*
%TD*%
D13*
%TO.C,C5*%
X147374844Y-70104954D03*
X147374844Y-68204954D03*
%TD*%
D27*
%TO.C,J9*%
X124887444Y-78152354D03*
X126137444Y-78152354D03*
X127387444Y-78152354D03*
X128637444Y-78152354D03*
X129887444Y-78152354D03*
X131137444Y-78152354D03*
X132387444Y-78152354D03*
X133637444Y-78152354D03*
X134887444Y-78152354D03*
X136137444Y-78152354D03*
D28*
X123037444Y-81502354D03*
X137987444Y-81502354D03*
%TD*%
D17*
%TO.C,R31*%
X198837344Y-128154954D03*
X197012344Y-128154954D03*
%TD*%
%TO.C,R41*%
X130917344Y-103364954D03*
X129092344Y-103364954D03*
%TD*%
%TO.C,R116*%
X197344847Y-87409125D03*
X195519847Y-87409125D03*
%TD*%
D12*
%TO.C,R89*%
X119648080Y-98869276D03*
X119648080Y-97319276D03*
%TD*%
D11*
%TO.C,R22*%
X202512344Y-119604954D03*
X204337344Y-119604954D03*
%TD*%
D17*
%TO.C,R107*%
X200862344Y-82954954D03*
X199037344Y-82954954D03*
%TD*%
D29*
%TO.C,U2*%
X115484844Y-123554954D03*
X115484844Y-125454954D03*
X112864844Y-124504954D03*
%TD*%
D30*
%TO.C,R68*%
X130485244Y-68409354D03*
X132035244Y-68409354D03*
%TD*%
D18*
%TO.C,R62*%
X139060244Y-61334354D03*
X139060244Y-62884354D03*
%TD*%
D23*
%TO.C,R122*%
X166692044Y-81735654D03*
X166692044Y-83560654D03*
%TD*%
D19*
%TO.C,C19*%
X154134244Y-94941754D03*
X156034244Y-94941754D03*
%TD*%
D31*
%TO.C,U3*%
X138324844Y-101167454D03*
X139274844Y-101167454D03*
X140224844Y-101167454D03*
X140224844Y-103442454D03*
X139274844Y-103442454D03*
X138324844Y-103442454D03*
%TD*%
D13*
%TO.C,C73*%
X176327834Y-95340741D03*
X176327834Y-93440741D03*
%TD*%
D12*
%TO.C,R42*%
X116359789Y-65487565D03*
X116359789Y-63937565D03*
%TD*%
D23*
%TO.C,R131*%
X176327834Y-90049241D03*
X176327834Y-91874241D03*
%TD*%
D10*
%TO.C,R36*%
X192974844Y-102767454D03*
X192974844Y-100942454D03*
%TD*%
D18*
%TO.C,R69*%
X94860244Y-61334354D03*
X94860244Y-62884354D03*
%TD*%
D32*
%TO.C,CT1*%
X118763844Y-73281666D03*
X118763844Y-70201666D03*
%TD*%
D23*
%TO.C,R6*%
X136624844Y-101029954D03*
X136624844Y-102854954D03*
%TD*%
D10*
%TO.C,R135*%
X151974844Y-104579954D03*
X151974844Y-102754954D03*
%TD*%
D17*
%TO.C,R3*%
X202637344Y-91554954D03*
X200812344Y-91554954D03*
%TD*%
%TO.C,R136*%
X155137344Y-89104954D03*
X153312344Y-89104954D03*
%TD*%
D33*
%TO.C,U6*%
X178737144Y-102597354D03*
X178737144Y-101647354D03*
X178737144Y-100697354D03*
X181012144Y-100697354D03*
X181012144Y-101647354D03*
X181012144Y-102597354D03*
%TD*%
D30*
%TO.C,R75*%
X90599844Y-75854954D03*
X92149844Y-75854954D03*
%TD*%
D32*
%TO.C,CT2*%
X115409444Y-73291554D03*
X115409444Y-70211554D03*
%TD*%
D13*
%TO.C,C27*%
X189145644Y-105061154D03*
X189145644Y-103161154D03*
%TD*%
D10*
%TO.C,R38*%
X196774844Y-102767454D03*
X196774844Y-100942454D03*
%TD*%
D17*
%TO.C,R102*%
X197344847Y-75959125D03*
X195519847Y-75959125D03*
%TD*%
%TO.C,R106*%
X197344847Y-79809125D03*
X195519847Y-79809125D03*
%TD*%
D23*
%TO.C,R7*%
X108874844Y-72404954D03*
X108874844Y-74229954D03*
%TD*%
D13*
%TO.C,C36*%
X187724844Y-76654954D03*
X187724844Y-74754954D03*
%TD*%
D17*
%TO.C,R34*%
X200700744Y-115515754D03*
X198875744Y-115515754D03*
%TD*%
D11*
%TO.C,R10*%
X163312344Y-96904954D03*
X165137344Y-96904954D03*
%TD*%
D18*
%TO.C,R56*%
X114360244Y-61334354D03*
X114360244Y-62884354D03*
%TD*%
D17*
%TO.C,R103*%
X200837344Y-79154954D03*
X199012344Y-79154954D03*
%TD*%
%TO.C,R26*%
X182537344Y-126154954D03*
X180712344Y-126154954D03*
%TD*%
D10*
%TO.C,R128*%
X183593763Y-95254442D03*
X183593763Y-93429442D03*
%TD*%
D34*
%TO.C,C63*%
X170908444Y-94840154D03*
X170908444Y-96740154D03*
%TD*%
D23*
%TO.C,R138*%
X123824844Y-95192454D03*
X123824844Y-97017454D03*
%TD*%
D18*
%TO.C,R70*%
X128260244Y-61334354D03*
X128260244Y-62884354D03*
%TD*%
D35*
%TO.C,C62*%
X173084844Y-97204954D03*
X175964844Y-97204954D03*
%TD*%
D11*
%TO.C,R20*%
X131062344Y-84854954D03*
X132887344Y-84854954D03*
%TD*%
D12*
%TO.C,R73*%
X151360244Y-64484354D03*
X151360244Y-62934354D03*
%TD*%
D33*
%TO.C,U1*%
X140549844Y-70854954D03*
X140549844Y-69904954D03*
X140549844Y-68954954D03*
X142824844Y-68954954D03*
X142824844Y-70854954D03*
%TD*%
D12*
%TO.C,R53*%
X132274844Y-64479954D03*
X132274844Y-62929954D03*
%TD*%
D36*
%TO.C,Y1*%
X200949544Y-103391054D03*
X200949544Y-111891054D03*
%TD*%
D12*
%TO.C,R51*%
X124160244Y-64184354D03*
X124160244Y-62634354D03*
%TD*%
D37*
%TO.C,U17*%
X116057344Y-95554954D03*
X116057344Y-94904954D03*
X116057344Y-94254954D03*
X116057344Y-93604954D03*
X116057344Y-92954954D03*
X116057344Y-92304954D03*
X116057344Y-91654954D03*
X116057344Y-91004954D03*
X116057344Y-90354954D03*
X116057344Y-89704954D03*
X121797344Y-89704954D03*
X121797344Y-90354954D03*
X121797344Y-91004954D03*
X121797344Y-91654954D03*
X121797344Y-92304954D03*
X121797344Y-92954954D03*
X121797344Y-93604954D03*
X121797344Y-94254954D03*
X121797344Y-94904954D03*
X121797344Y-95554954D03*
%TD*%
D18*
%TO.C,R55*%
X152960244Y-61334354D03*
X152960244Y-62884354D03*
%TD*%
D11*
%TO.C,R14*%
X133312344Y-70754954D03*
X135137344Y-70754954D03*
%TD*%
D17*
%TO.C,R4*%
X202637344Y-93454954D03*
X200812344Y-93454954D03*
%TD*%
D19*
%TO.C,C57*%
X159874844Y-96954954D03*
X161774844Y-96954954D03*
%TD*%
D23*
%TO.C,R109*%
X199624844Y-84692454D03*
X199624844Y-86517454D03*
%TD*%
D38*
%TO.C,U28*%
X183444410Y-88671335D03*
X183444410Y-89751335D03*
X184424410Y-88671335D03*
X184424410Y-89751335D03*
D39*
X181784410Y-90186335D03*
X181784410Y-89536335D03*
X181784410Y-88886335D03*
X181784410Y-88236335D03*
X186084410Y-88236335D03*
X186084410Y-88886335D03*
X186084410Y-89536335D03*
X186084410Y-90186335D03*
%TD*%
D12*
%TO.C,R50*%
X126760244Y-64184354D03*
X126760244Y-62634354D03*
%TD*%
D18*
%TO.C,R87*%
X121107429Y-86379649D03*
X121107429Y-87929649D03*
%TD*%
D17*
%TO.C,R2*%
X202637344Y-89654954D03*
X200812344Y-89654954D03*
%TD*%
D40*
%TO.C,CT4*%
X173108844Y-107895754D03*
X170028844Y-107895754D03*
%TD*%
D19*
%TO.C,C65*%
X172650844Y-83410154D03*
X174550844Y-83410154D03*
%TD*%
D23*
%TO.C,R101*%
X197074844Y-72392454D03*
X197074844Y-74217454D03*
%TD*%
D34*
%TO.C,C44*%
X149974844Y-98854954D03*
X149974844Y-100754954D03*
%TD*%
D23*
%TO.C,R40*%
X139874844Y-105642454D03*
X139874844Y-107467454D03*
%TD*%
D12*
%TO.C,R47*%
X101156404Y-65483844D03*
X101156404Y-63933844D03*
%TD*%
D13*
%TO.C,C28*%
X186935844Y-105061154D03*
X186935844Y-103161154D03*
%TD*%
D22*
%TO.C,C25*%
X187424844Y-63504954D03*
X185524844Y-63504954D03*
%TD*%
D23*
%TO.C,R119*%
X170517444Y-81749854D03*
X170517444Y-83574854D03*
%TD*%
D18*
%TO.C,R61*%
X105960244Y-61334354D03*
X105960244Y-62884354D03*
%TD*%
D34*
%TO.C,C61*%
X166935251Y-94973047D03*
X166935251Y-96873047D03*
%TD*%
D41*
%TO.C,U18*%
X113399844Y-88679954D03*
X112749844Y-88679954D03*
X112099844Y-88679954D03*
X111449844Y-88679954D03*
X110799844Y-88679954D03*
X110149844Y-88679954D03*
X109499844Y-88679954D03*
X108849844Y-88679954D03*
X108199844Y-88679954D03*
X107549844Y-88679954D03*
X106899844Y-88679954D03*
X106249844Y-88679954D03*
X106249844Y-82954954D03*
X106899844Y-82954954D03*
X107549844Y-82954954D03*
X108199844Y-82954954D03*
X108849844Y-82954954D03*
X109499844Y-82954954D03*
X110149844Y-82954954D03*
X110799844Y-82954954D03*
X111449844Y-82954954D03*
X112099844Y-82954954D03*
X112749844Y-82954954D03*
X113399844Y-82954954D03*
%TD*%
D12*
%TO.C,R60*%
X143160244Y-64484354D03*
X143160244Y-62934354D03*
%TD*%
%TO.C,R91*%
X116648080Y-98869276D03*
X116648080Y-97319276D03*
%TD*%
%TO.C,R78*%
X99004262Y-99382591D03*
X99004262Y-97832591D03*
%TD*%
D42*
%TO.C,U16*%
X107024844Y-97463826D03*
X107024844Y-96813826D03*
X107024844Y-96163826D03*
X107024844Y-95513826D03*
X107024844Y-94863826D03*
X107024844Y-94213826D03*
X107024844Y-93563826D03*
X107024844Y-92913826D03*
X107024844Y-92263826D03*
X107024844Y-91613826D03*
X107024844Y-90963826D03*
X107024844Y-90313826D03*
X112749844Y-90313826D03*
X112749844Y-90963826D03*
X112749844Y-91613826D03*
X112749844Y-92263826D03*
X112749844Y-92913826D03*
X112749844Y-93563826D03*
X112749844Y-94213826D03*
X112749844Y-94863826D03*
X112749844Y-95513826D03*
X112749844Y-96163826D03*
X112749844Y-96813826D03*
X112749844Y-97463826D03*
%TD*%
D22*
%TO.C,C8*%
X115624844Y-127254954D03*
X113724844Y-127254954D03*
%TD*%
D10*
%TO.C,R100*%
X189674844Y-76617454D03*
X189674844Y-74792454D03*
%TD*%
%TO.C,R127*%
X176327834Y-88470641D03*
X176327834Y-86645641D03*
%TD*%
D18*
%TO.C,R57*%
X147260244Y-61334354D03*
X147260244Y-62884354D03*
%TD*%
%TO.C,R65*%
X103260244Y-61334354D03*
X103260244Y-62884354D03*
%TD*%
D32*
%TO.C,C10*%
X131524844Y-111594954D03*
X131524844Y-108514954D03*
%TD*%
D43*
%TO.C,C66*%
X178960244Y-81819354D03*
X178960244Y-84899354D03*
%TD*%
D34*
%TO.C,C20*%
X175201044Y-108342754D03*
X175201044Y-110242754D03*
%TD*%
%TO.C,C16*%
X120565644Y-76719754D03*
X120565644Y-78619754D03*
%TD*%
D44*
%TO.C,U21*%
X191574844Y-72842454D03*
X189674844Y-72842454D03*
X190624844Y-70567454D03*
%TD*%
D17*
%TO.C,R1*%
X203187344Y-87754954D03*
X201362344Y-87754954D03*
%TD*%
D18*
%TO.C,R82*%
X102174844Y-87029954D03*
X102174844Y-88579954D03*
%TD*%
D32*
%TO.C,C71*%
X178985644Y-96659554D03*
X178985644Y-93579554D03*
%TD*%
D11*
%TO.C,R117*%
X195462344Y-91604954D03*
X197287344Y-91604954D03*
%TD*%
D45*
%TO.C,U15*%
X104092344Y-90304954D03*
X104092344Y-90954954D03*
X104092344Y-91604954D03*
X104092344Y-92254954D03*
X104092344Y-92904954D03*
X104092344Y-93554954D03*
X104092344Y-94204954D03*
X104092344Y-94854954D03*
X104092344Y-95504954D03*
X104092344Y-96154954D03*
X98352344Y-96154954D03*
X98352344Y-95504954D03*
X98352344Y-94854954D03*
X98352344Y-94204954D03*
X98352344Y-93554954D03*
X98352344Y-92904954D03*
X98352344Y-92254954D03*
X98352344Y-91604954D03*
X98352344Y-90954954D03*
X98352344Y-90304954D03*
%TD*%
D11*
%TO.C,R18*%
X161662344Y-68304954D03*
X163487344Y-68304954D03*
%TD*%
D12*
%TO.C,R63*%
X140516551Y-64474519D03*
X140516551Y-62924519D03*
%TD*%
D46*
%TO.C,D8*%
X193674844Y-64604954D03*
X190874844Y-64604954D03*
%TD*%
D13*
%TO.C,C6*%
X145364844Y-70104954D03*
X145364844Y-68204954D03*
%TD*%
D14*
%TO.C,SW4*%
X168538380Y-105322330D03*
X168538380Y-98720634D03*
%TD*%
D13*
%TO.C,C2*%
X151943044Y-100766754D03*
X151943044Y-98866754D03*
%TD*%
D18*
%TO.C,R54*%
X119860244Y-61334354D03*
X119860244Y-62884354D03*
%TD*%
D11*
%TO.C,R11*%
X160712344Y-66354954D03*
X162537344Y-66354954D03*
%TD*%
D23*
%TO.C,R124*%
X183583044Y-83234254D03*
X183583044Y-85059254D03*
%TD*%
%TO.C,R118*%
X156965583Y-88276469D03*
X156965583Y-90101469D03*
%TD*%
D34*
%TO.C,C15*%
X118482844Y-76719754D03*
X118482844Y-78619754D03*
%TD*%
D19*
%TO.C,C59*%
X172650844Y-79447754D03*
X174550844Y-79447754D03*
%TD*%
D23*
%TO.C,R94*%
X204874844Y-69092454D03*
X204874844Y-70917454D03*
%TD*%
D17*
%TO.C,R35*%
X204332944Y-117623954D03*
X202507944Y-117623954D03*
%TD*%
D12*
%TO.C,R76*%
X102004262Y-99382591D03*
X102004262Y-97832591D03*
%TD*%
D10*
%TO.C,R37*%
X191074844Y-102767454D03*
X191074844Y-100942454D03*
%TD*%
D36*
%TO.C,Y2*%
X160823893Y-84943383D03*
X160823893Y-93443383D03*
%TD*%
D17*
%TO.C,R110*%
X197437344Y-83604954D03*
X195612344Y-83604954D03*
%TD*%
D12*
%TO.C,R48*%
X91326184Y-65457975D03*
X91326184Y-63907975D03*
%TD*%
D22*
%TO.C,C23*%
X206710244Y-104609354D03*
X204810244Y-104609354D03*
%TD*%
D47*
%TO.C,U22*%
X193349844Y-78209954D03*
X193349844Y-79479954D03*
X193349844Y-80749954D03*
X193349844Y-82019954D03*
X193349844Y-83289954D03*
X193349844Y-84559954D03*
X193349844Y-85829954D03*
X193349844Y-87099954D03*
X188399844Y-87099954D03*
X188399844Y-85829954D03*
X188399844Y-84559954D03*
X188399844Y-83289954D03*
X188399844Y-82019954D03*
X188399844Y-80749954D03*
X188399844Y-79479954D03*
X188399844Y-78209954D03*
%TD*%
D17*
%TO.C,R105*%
X200849844Y-81054954D03*
X199024844Y-81054954D03*
%TD*%
D34*
%TO.C,C17*%
X177311044Y-108332754D03*
X177311044Y-110232754D03*
%TD*%
D22*
%TO.C,C21*%
X204370444Y-115566554D03*
X202470444Y-115566554D03*
%TD*%
D48*
%TO.C,U11*%
X192725144Y-108566954D03*
X193955144Y-108566954D03*
X195185144Y-108566954D03*
X192725144Y-107336954D03*
X193955144Y-107336954D03*
X195185144Y-107336954D03*
X192725144Y-106106954D03*
X193955144Y-106106954D03*
X195185144Y-106106954D03*
D49*
X195955144Y-110274454D03*
X195455144Y-110274454D03*
X194955144Y-110274454D03*
X194455144Y-110274454D03*
X193955144Y-110274454D03*
X193455144Y-110274454D03*
X192955144Y-110274454D03*
X192455144Y-110274454D03*
X191955144Y-110274454D03*
D50*
X191017644Y-109336954D03*
X191017644Y-108836954D03*
X191017644Y-108336954D03*
X191017644Y-107836954D03*
X191017644Y-107336954D03*
X191017644Y-106836954D03*
X191017644Y-106336954D03*
X191017644Y-105836954D03*
X191017644Y-105336954D03*
D49*
X191955144Y-104399454D03*
X192455144Y-104399454D03*
X192955144Y-104399454D03*
X193455144Y-104399454D03*
X193955144Y-104399454D03*
X194455144Y-104399454D03*
X194955144Y-104399454D03*
X195455144Y-104399454D03*
X195955144Y-104399454D03*
D50*
X196892644Y-105336954D03*
X196892644Y-105836954D03*
X196892644Y-106336954D03*
X196892644Y-106836954D03*
X196892644Y-107336954D03*
X196892644Y-107836954D03*
X196892644Y-108336954D03*
X196892644Y-108836954D03*
X196892644Y-109336954D03*
%TD*%
D12*
%TO.C,R52*%
X134974844Y-64479954D03*
X134974844Y-62929954D03*
%TD*%
D23*
%TO.C,R85*%
X114924844Y-86292454D03*
X114924844Y-88117454D03*
%TD*%
D11*
%TO.C,R28*%
X187762344Y-126004954D03*
X189587344Y-126004954D03*
%TD*%
%TO.C,R111*%
X195462344Y-93504954D03*
X197287344Y-93504954D03*
%TD*%
%TO.C,R130*%
X172662344Y-75504954D03*
X174487344Y-75504954D03*
%TD*%
D23*
%TO.C,R132*%
X178299844Y-90014154D03*
X178299844Y-91839154D03*
%TD*%
D10*
%TO.C,R129*%
X186110427Y-93689781D03*
X186110427Y-91864781D03*
%TD*%
D34*
%TO.C,C69*%
X176302434Y-83179141D03*
X176302434Y-85079141D03*
%TD*%
D18*
%TO.C,R67*%
X97660244Y-61334354D03*
X97660244Y-62884354D03*
%TD*%
D31*
%TO.C,U13*%
X141597944Y-105767654D03*
X142547944Y-105767654D03*
X143497944Y-105767654D03*
X143497944Y-108042654D03*
X142547944Y-108042654D03*
X141597944Y-108042654D03*
%TD*%
D51*
%TO.C,J6*%
X121949844Y-104654954D03*
X120699844Y-104654954D03*
X119449844Y-104654954D03*
X118199844Y-104654954D03*
X116949844Y-104654954D03*
X115699844Y-104654954D03*
D52*
X123799844Y-101304954D03*
X113849844Y-101304954D03*
%TD*%
D11*
%TO.C,R114*%
X195462344Y-95409125D03*
X197287344Y-95409125D03*
%TD*%
D12*
%TO.C,R74*%
X148760244Y-64484354D03*
X148760244Y-62934354D03*
%TD*%
D34*
%TO.C,C13*%
X169224844Y-119154954D03*
X169224844Y-121054954D03*
%TD*%
D23*
%TO.C,R93*%
X206774844Y-69092454D03*
X206774844Y-70917454D03*
%TD*%
D12*
%TO.C,R92*%
X118148080Y-98869276D03*
X118148080Y-97319276D03*
%TD*%
D19*
%TO.C,C68*%
X172624844Y-77454954D03*
X174524844Y-77454954D03*
%TD*%
D11*
%TO.C,R8*%
X166612344Y-125254954D03*
X168437344Y-125254954D03*
%TD*%
D18*
%TO.C,R81*%
X97674844Y-87029954D03*
X97674844Y-88579954D03*
%TD*%
D12*
%TO.C,R43*%
X117859789Y-65487565D03*
X117859789Y-63937565D03*
%TD*%
D30*
%TO.C,R64*%
X90599844Y-77354954D03*
X92149844Y-77354954D03*
%TD*%
D53*
%TO.C,D1*%
X108874844Y-70717454D03*
X108874844Y-67917454D03*
%TD*%
D18*
%TO.C,R72*%
X122660244Y-61334354D03*
X122660244Y-62884354D03*
%TD*%
D53*
%TO.C,D2*%
X106564844Y-70717454D03*
X106564844Y-67917454D03*
%TD*%
D32*
%TO.C,CT3*%
X172584844Y-102806354D03*
X172584844Y-99726354D03*
%TD*%
D19*
%TO.C,C56*%
X161017644Y-81403554D03*
X162917644Y-81403554D03*
%TD*%
D18*
%TO.C,R58*%
X111560244Y-61334354D03*
X111560244Y-62884354D03*
%TD*%
%TO.C,R83*%
X100674844Y-87029954D03*
X100674844Y-88579954D03*
%TD*%
D12*
%TO.C,R79*%
X100504262Y-99382591D03*
X100504262Y-97832591D03*
%TD*%
%TO.C,R77*%
X103504262Y-99382591D03*
X103504262Y-97832591D03*
%TD*%
D22*
%TO.C,C24*%
X192224844Y-68654954D03*
X190324844Y-68654954D03*
%TD*%
D12*
%TO.C,R46*%
X99656404Y-65483844D03*
X99656404Y-63933844D03*
%TD*%
D34*
%TO.C,C14*%
X116425444Y-76719754D03*
X116425444Y-78619754D03*
%TD*%
D17*
%TO.C,R27*%
X193737344Y-126054954D03*
X191912344Y-126054954D03*
%TD*%
D13*
%TO.C,C72*%
X181627244Y-95282154D03*
X181627244Y-93382154D03*
%TD*%
D18*
%TO.C,R88*%
X119607429Y-86379649D03*
X119607429Y-87929649D03*
%TD*%
D34*
%TO.C,C67*%
X181601844Y-83196754D03*
X181601844Y-85096754D03*
%TD*%
D11*
%TO.C,R13*%
X137762344Y-76104954D03*
X139587344Y-76104954D03*
%TD*%
D54*
%TO.C,R66*%
X136735244Y-68409354D03*
X135185244Y-68409354D03*
%TD*%
D10*
%TO.C,R137*%
X94824844Y-90967454D03*
X94824844Y-89142454D03*
%TD*%
D18*
%TO.C,R84*%
X118107429Y-86379649D03*
X118107429Y-87929649D03*
%TD*%
D55*
%TO.C,U27*%
X165311844Y-85402154D03*
X165961844Y-85402154D03*
X166611844Y-85402154D03*
X167261844Y-85402154D03*
X167911844Y-85402154D03*
X168561844Y-85402154D03*
X169211844Y-85402154D03*
X169861844Y-85402154D03*
X170511844Y-85402154D03*
X171161844Y-85402154D03*
X171811844Y-85402154D03*
X172461844Y-85402154D03*
X173111844Y-85402154D03*
X173761844Y-85402154D03*
X173761844Y-93102154D03*
X173111844Y-93102154D03*
X172461844Y-93102154D03*
X171811844Y-93102154D03*
X171161844Y-93102154D03*
X170511844Y-93102154D03*
X169861844Y-93102154D03*
X169211844Y-93102154D03*
X168561844Y-93102154D03*
X167911844Y-93102154D03*
X167261844Y-93102154D03*
X166611844Y-93102154D03*
X165961844Y-93102154D03*
X165311844Y-93102154D03*
%TD*%
D11*
%TO.C,R21*%
X124862344Y-84104954D03*
X126687344Y-84104954D03*
%TD*%
D18*
%TO.C,R71*%
X89260244Y-61334354D03*
X89260244Y-62884354D03*
%TD*%
D22*
%TO.C,C22*%
X206725544Y-111882854D03*
X204825544Y-111882854D03*
%TD*%
D10*
%TO.C,R5*%
X96374844Y-108367454D03*
X96374844Y-106542454D03*
%TD*%
D56*
%TO.C,U19*%
X113524844Y-108634954D03*
X113524844Y-109269954D03*
X113524844Y-109904954D03*
X113524844Y-110539954D03*
X113524844Y-111174954D03*
X113524844Y-111809954D03*
X113524844Y-112444954D03*
X113524844Y-113079954D03*
X113524844Y-113714954D03*
X113524844Y-114349954D03*
X113524844Y-114984954D03*
X113524844Y-115619954D03*
X113524844Y-116254954D03*
X113524844Y-116889954D03*
X108324844Y-116889954D03*
X108324844Y-116254954D03*
X108324844Y-115619954D03*
X108324844Y-114984954D03*
X108324844Y-114349954D03*
X108324844Y-113714954D03*
X108324844Y-113079954D03*
X108324844Y-112444954D03*
X108324844Y-111809954D03*
X108324844Y-111174954D03*
X108324844Y-110539954D03*
X108324844Y-109904954D03*
X108324844Y-109269954D03*
X108324844Y-108634954D03*
%TD*%
D18*
%TO.C,R86*%
X116607429Y-86379649D03*
X116607429Y-87929649D03*
%TD*%
D57*
%TO.C,U7*%
X153984244Y-96885754D03*
X156184244Y-96885754D03*
X156184244Y-98585754D03*
X153984244Y-98585754D03*
%TD*%
D17*
%TO.C,R30*%
X187737344Y-128154954D03*
X185912344Y-128154954D03*
%TD*%
D11*
%TO.C,R17*%
X161662344Y-70254954D03*
X163487344Y-70254954D03*
%TD*%
D12*
%TO.C,R45*%
X109457854Y-65483844D03*
X109457854Y-63933844D03*
%TD*%
M02*
