%TF.GenerationSoftware,KiCad,Pcbnew,9.0.2*%
%TF.CreationDate,2025-08-24T19:37:34+02:00*%
%TF.ProjectId,CM5IO,434d3549-4f2e-46b6-9963-61645f706362,rev?*%
%TF.SameCoordinates,Original*%
%TF.FileFunction,Soldermask,Bot*%
%TF.FilePolarity,Negative*%
%FSLAX46Y46*%
G04 Gerber Fmt 4.6, Leading zero omitted, Abs format (unit mm)*
G04 Created by KiCad (PCBNEW 9.0.2) date 2025-08-24 19:37:34*
%MOMM*%
%LPD*%
G01*
G04 APERTURE LIST*
G04 Aperture macros list*
%AMRoundRect*
0 Rectangle with rounded corners*
0 $1 Rounding radius*
0 $2 $3 $4 $5 $6 $7 $8 $9 X,Y pos of 4 corners*
0 Add a 4 corners polygon primitive as box body*
4,1,4,$2,$3,$4,$5,$6,$7,$8,$9,$2,$3,0*
0 Add four circle primitives for the rounded corners*
1,1,$1+$1,$2,$3*
1,1,$1+$1,$4,$5*
1,1,$1+$1,$6,$7*
1,1,$1+$1,$8,$9*
0 Add four rect primitives between the rounded corners*
20,1,$1+$1,$2,$3,$4,$5,0*
20,1,$1+$1,$4,$5,$6,$7,0*
20,1,$1+$1,$6,$7,$8,$9,0*
20,1,$1+$1,$8,$9,$2,$3,0*%
G04 Aperture macros list end*
%ADD10C,2.000000*%
%ADD11RoundRect,0.250000X0.250000X0.475000X-0.250000X0.475000X-0.250000X-0.475000X0.250000X-0.475000X0*%
%ADD12O,1.200000X1.750000*%
%ADD13RoundRect,0.250000X0.350000X0.625000X-0.350000X0.625000X-0.350000X-0.625000X0.350000X-0.625000X0*%
%ADD14RoundRect,0.250000X-0.350000X-0.625000X0.350000X-0.625000X0.350000X0.625000X-0.350000X0.625000X0*%
%ADD15RoundRect,0.250000X0.450000X-0.262500X0.450000X0.262500X-0.450000X0.262500X-0.450000X-0.262500X0*%
%ADD16RoundRect,0.250000X-0.250000X-0.475000X0.250000X-0.475000X0.250000X0.475000X-0.250000X0.475000X0*%
%ADD17C,1.712000*%
%ADD18RoundRect,0.102000X-0.754000X-0.754000X0.754000X-0.754000X0.754000X0.754000X-0.754000X0.754000X0*%
%ADD19C,3.800000*%
%ADD20C,2.600000*%
%ADD21RoundRect,0.100000X0.100000X-0.637500X0.100000X0.637500X-0.100000X0.637500X-0.100000X-0.637500X0*%
%ADD22RoundRect,0.250000X-0.450000X0.262500X-0.450000X-0.262500X0.450000X-0.262500X0.450000X0.262500X0*%
%ADD23O,1.750000X1.200000*%
%ADD24RoundRect,0.250000X-0.625000X0.350000X-0.625000X-0.350000X0.625000X-0.350000X0.625000X0.350000X0*%
%ADD25C,6.000000*%
%ADD26RoundRect,1.500000X-1.500000X1.500000X-1.500000X-1.500000X1.500000X-1.500000X1.500000X1.500000X0*%
%ADD27RoundRect,0.075000X0.075000X-0.650000X0.075000X0.650000X-0.075000X0.650000X-0.075000X-0.650000X0*%
%ADD28RoundRect,0.250000X-0.262500X-0.450000X0.262500X-0.450000X0.262500X0.450000X-0.262500X0.450000X0*%
%ADD29RoundRect,0.250000X0.625000X-0.350000X0.625000X0.350000X-0.625000X0.350000X-0.625000X-0.350000X0*%
%ADD30C,1.700000*%
%ADD31R,1.700000X1.700000*%
%ADD32RoundRect,0.075000X-0.075000X0.650000X-0.075000X-0.650000X0.075000X-0.650000X0.075000X0.650000X0*%
%ADD33R,0.400000X1.200000*%
%ADD34RoundRect,0.250000X0.625000X-0.312500X0.625000X0.312500X-0.625000X0.312500X-0.625000X-0.312500X0*%
%ADD35RoundRect,0.250000X0.475000X-0.250000X0.475000X0.250000X-0.475000X0.250000X-0.475000X-0.250000X0*%
%ADD36RoundRect,0.250001X0.899999X1.449999X-0.899999X1.449999X-0.899999X-1.449999X0.899999X-1.449999X0*%
%ADD37RoundRect,0.250001X-0.899999X-1.449999X0.899999X-1.449999X0.899999X1.449999X-0.899999X1.449999X0*%
%ADD38RoundRect,0.250001X-1.449999X0.899999X-1.449999X-0.899999X1.449999X-0.899999X1.449999X0.899999X0*%
%ADD39RoundRect,0.075000X-0.650000X-0.075000X0.650000X-0.075000X0.650000X0.075000X-0.650000X0.075000X0*%
G04 APERTURE END LIST*
D10*
%TO.C,TP13*%
X130050000Y-110550000D03*
%TD*%
D11*
%TO.C,C114*%
X125950000Y-112640000D03*
X124050000Y-112640000D03*
%TD*%
%TO.C,C74*%
X125950000Y-108640000D03*
X124050000Y-108640000D03*
%TD*%
%TO.C,C115*%
X125950000Y-114650000D03*
X124050000Y-114650000D03*
%TD*%
%TO.C,C76*%
X125950000Y-110620000D03*
X124050000Y-110620000D03*
%TD*%
D12*
%TO.C,SERVO2*%
X190008500Y-92491500D03*
X192008500Y-92491500D03*
D13*
X194008500Y-92491500D03*
%TD*%
D12*
%TO.C,M6*%
X146076000Y-153596500D03*
X144076000Y-153596500D03*
X142076000Y-153596500D03*
X140076000Y-153596500D03*
X138076000Y-153596500D03*
D14*
X136076000Y-153596500D03*
%TD*%
D15*
%TO.C,R82*%
X205708500Y-143916500D03*
X205708500Y-145741500D03*
%TD*%
D16*
%TO.C,C37*%
X202000000Y-106200000D03*
X200100000Y-106200000D03*
%TD*%
D12*
%TO.C,DC6*%
X209958500Y-153541500D03*
D14*
X207958500Y-153541500D03*
%TD*%
D17*
%TO.C,U49*%
X126268500Y-149039000D03*
X123728500Y-149039000D03*
X128808500Y-149039000D03*
X128808500Y-146499000D03*
X128808500Y-143959000D03*
X128808500Y-141419000D03*
X128808500Y-138879000D03*
X128808500Y-136339000D03*
X128808500Y-133799000D03*
X128808500Y-131259000D03*
X116108500Y-149039000D03*
X116108500Y-146499000D03*
X116108500Y-143959000D03*
X116108500Y-141419000D03*
X116108500Y-138879000D03*
X116108500Y-136339000D03*
X116108500Y-133799000D03*
D18*
X116108500Y-131259000D03*
%TD*%
D19*
%TO.C,REF\u002A\u002A*%
X163008500Y-93041500D03*
D20*
X163008500Y-93041500D03*
%TD*%
D21*
%TO.C,U67*%
X177208500Y-116216500D03*
X176558500Y-116216500D03*
X175908500Y-116216500D03*
X175258500Y-116216500D03*
X174608500Y-116216500D03*
X173958500Y-116216500D03*
X173308500Y-116216500D03*
X172658500Y-116216500D03*
X172008500Y-116216500D03*
X171358500Y-116216500D03*
X170708500Y-116216500D03*
X170058500Y-116216500D03*
X169408500Y-116216500D03*
X168758500Y-116216500D03*
X168758500Y-121941500D03*
X169408500Y-121941500D03*
X170058500Y-121941500D03*
X170708500Y-121941500D03*
X171358500Y-121941500D03*
X172008500Y-121941500D03*
X172658500Y-121941500D03*
X173308500Y-121941500D03*
X173958500Y-121941500D03*
X174608500Y-121941500D03*
X175258500Y-121941500D03*
X175908500Y-121941500D03*
X176558500Y-121941500D03*
X177208500Y-121941500D03*
%TD*%
D12*
%TO.C,DC5*%
X203058500Y-153541500D03*
D14*
X201058500Y-153541500D03*
%TD*%
D16*
%TO.C,C149*%
X119300000Y-105200000D03*
X117400000Y-105200000D03*
%TD*%
D15*
%TO.C,R81*%
X183058500Y-118016500D03*
X183058500Y-119841500D03*
%TD*%
D12*
%TO.C,DC4*%
X196158500Y-153541500D03*
D14*
X194158500Y-153541500D03*
%TD*%
D22*
%TO.C,R80*%
X183108500Y-127879000D03*
X183108500Y-129704000D03*
%TD*%
D17*
%TO.C,U50*%
X144871000Y-149039000D03*
X142331000Y-149039000D03*
X147411000Y-149039000D03*
X147411000Y-146499000D03*
X147411000Y-143959000D03*
X147411000Y-141419000D03*
X147411000Y-138879000D03*
X147411000Y-136339000D03*
X147411000Y-133799000D03*
X147411000Y-131259000D03*
X134711000Y-149039000D03*
X134711000Y-146499000D03*
X134711000Y-143959000D03*
X134711000Y-141419000D03*
X134711000Y-138879000D03*
X134711000Y-136339000D03*
X134711000Y-133799000D03*
D18*
X134711000Y-131259000D03*
%TD*%
D11*
%TO.C,C147*%
X113950000Y-107200000D03*
X115850000Y-107200000D03*
%TD*%
D22*
%TO.C,R67*%
X185108500Y-129691500D03*
X185108500Y-127866500D03*
%TD*%
D23*
%TO.C,J31*%
X98158500Y-118441500D03*
D24*
X98158500Y-116441500D03*
%TD*%
D10*
%TO.C,TP5*%
X113450000Y-99500000D03*
%TD*%
D12*
%TO.C,M7*%
X164598500Y-153586500D03*
X162598500Y-153586500D03*
X160598500Y-153586500D03*
X158598500Y-153586500D03*
X156598500Y-153586500D03*
D14*
X154598500Y-153586500D03*
%TD*%
D11*
%TO.C,C150*%
X113950000Y-105200000D03*
X115850000Y-105200000D03*
%TD*%
D25*
%TO.C,J1*%
X99908500Y-99741500D03*
D26*
X99908500Y-92541500D03*
%TD*%
D12*
%TO.C,DC1*%
X175458500Y-153541500D03*
D14*
X173458500Y-153541500D03*
%TD*%
D16*
%TO.C,C158*%
X149450000Y-118040000D03*
X147550000Y-118040000D03*
%TD*%
D12*
%TO.C,M5*%
X127458500Y-153556500D03*
X125458500Y-153556500D03*
X123458500Y-153556500D03*
X121458500Y-153556500D03*
X119458500Y-153556500D03*
D14*
X117458500Y-153556500D03*
%TD*%
D17*
%TO.C,U51*%
X163438500Y-149029000D03*
X160898500Y-149029000D03*
X165978500Y-149029000D03*
X165978500Y-146489000D03*
X165978500Y-143949000D03*
X165978500Y-141409000D03*
X165978500Y-138869000D03*
X165978500Y-136329000D03*
X165978500Y-133789000D03*
X165978500Y-131249000D03*
X153278500Y-149029000D03*
X153278500Y-146489000D03*
X153278500Y-143949000D03*
X153278500Y-141409000D03*
X153278500Y-138869000D03*
X153278500Y-136329000D03*
X153278500Y-133789000D03*
D18*
X153278500Y-131249000D03*
%TD*%
D19*
%TO.C,REF\u002A\u002A*%
X163008500Y-124541500D03*
D20*
X163008500Y-124541500D03*
%TD*%
D16*
%TO.C,C33*%
X174250000Y-106100000D03*
X172350000Y-106100000D03*
%TD*%
D27*
%TO.C,U23*%
X174608500Y-99491500D03*
X174108500Y-99491500D03*
X173608500Y-99491500D03*
X173108500Y-99491500D03*
X172608500Y-99491500D03*
X172608500Y-103891500D03*
X173108500Y-103891500D03*
X173608500Y-103891500D03*
X174108500Y-103891500D03*
X174608500Y-103891500D03*
%TD*%
D11*
%TO.C,C26*%
X161958500Y-135991500D03*
X163858500Y-135991500D03*
%TD*%
D16*
%TO.C,C148*%
X119300000Y-107200000D03*
X117400000Y-107200000D03*
%TD*%
D12*
%TO.C,SERVO4*%
X171608500Y-92491500D03*
X173608500Y-92491500D03*
D13*
X175608500Y-92491500D03*
%TD*%
D22*
%TO.C,R77*%
X192708500Y-116504000D03*
X192708500Y-114679000D03*
%TD*%
%TO.C,R68*%
X196858500Y-116504000D03*
X196858500Y-114679000D03*
%TD*%
D12*
%TO.C,DC2*%
X182358500Y-153541500D03*
D14*
X180358500Y-153541500D03*
%TD*%
D16*
%TO.C,C36*%
X192850000Y-106250000D03*
X190950000Y-106250000D03*
%TD*%
%TO.C,C32*%
X183758500Y-106300000D03*
X181858500Y-106300000D03*
%TD*%
D28*
%TO.C,R79*%
X170733500Y-144391500D03*
X168908500Y-144391500D03*
%TD*%
D22*
%TO.C,R78*%
X190658500Y-116504000D03*
X190658500Y-114679000D03*
%TD*%
D19*
%TO.C,REF\u002A\u002A*%
X111008500Y-93041500D03*
D20*
X111008500Y-93041500D03*
%TD*%
D19*
%TO.C,REF\u002A\u002A*%
X111008500Y-124041500D03*
D20*
X111008500Y-124041500D03*
%TD*%
D12*
%TO.C,SERVO1*%
X199208500Y-92491500D03*
X201208500Y-92491500D03*
D13*
X203208500Y-92491500D03*
%TD*%
D23*
%TO.C,J25*%
X210208500Y-95941500D03*
X210208500Y-97941500D03*
D29*
X210208500Y-99941500D03*
%TD*%
D12*
%TO.C,DC3*%
X189258500Y-153541500D03*
D14*
X187258500Y-153541500D03*
%TD*%
D11*
%TO.C,C156*%
X144150000Y-118050000D03*
X146050000Y-118050000D03*
%TD*%
D30*
%TO.C,J26*%
X105073500Y-120831500D03*
X102533500Y-120831500D03*
X105073500Y-118291500D03*
X102533500Y-118291500D03*
X105073500Y-115751500D03*
D31*
X102533500Y-115751500D03*
%TD*%
D32*
%TO.C,U22*%
X99308500Y-133691500D03*
X99808500Y-133691500D03*
X100308500Y-133691500D03*
X100808500Y-133691500D03*
X101308500Y-133691500D03*
X101308500Y-129291500D03*
X100808500Y-129291500D03*
X100308500Y-129291500D03*
X99808500Y-129291500D03*
X99308500Y-129291500D03*
%TD*%
D33*
%TO.C,U53*%
X168853500Y-130691500D03*
X169488500Y-130691500D03*
X170123500Y-130691500D03*
X170758500Y-130691500D03*
X171393500Y-130691500D03*
X172028500Y-130691500D03*
X172663500Y-130691500D03*
X173298500Y-130691500D03*
X173933500Y-130691500D03*
X174568500Y-130691500D03*
X175203500Y-130691500D03*
X175838500Y-130691500D03*
X176473500Y-130691500D03*
X177108500Y-130691500D03*
X177108500Y-125491500D03*
X176473500Y-125491500D03*
X175838500Y-125491500D03*
X175203500Y-125491500D03*
X174568500Y-125491500D03*
X173933500Y-125491500D03*
X173298500Y-125491500D03*
X172663500Y-125491500D03*
X172028500Y-125491500D03*
X171393500Y-125491500D03*
X170758500Y-125491500D03*
X170123500Y-125491500D03*
X169488500Y-125491500D03*
X168853500Y-125491500D03*
%TD*%
D27*
%TO.C,U24*%
X193008500Y-99441500D03*
X192508500Y-99441500D03*
X192008500Y-99441500D03*
X191508500Y-99441500D03*
X191008500Y-99441500D03*
X191008500Y-103841500D03*
X191508500Y-103841500D03*
X192008500Y-103841500D03*
X192508500Y-103841500D03*
X193008500Y-103841500D03*
%TD*%
D16*
%TO.C,C28*%
X138858500Y-135991500D03*
X136958500Y-135991500D03*
%TD*%
D32*
%TO.C,U28*%
X136608500Y-133641500D03*
X137108500Y-133641500D03*
X137608500Y-133641500D03*
X138108500Y-133641500D03*
X138608500Y-133641500D03*
X138608500Y-129241500D03*
X138108500Y-129241500D03*
X137608500Y-129241500D03*
X137108500Y-129241500D03*
X136608500Y-129241500D03*
%TD*%
D34*
%TO.C,R36*%
X159708500Y-141179000D03*
X159708500Y-144104000D03*
%TD*%
D32*
%TO.C,U18*%
X162308500Y-133591500D03*
X162808500Y-133591500D03*
X163308500Y-133591500D03*
X163808500Y-133591500D03*
X164308500Y-133591500D03*
X164308500Y-129191500D03*
X163808500Y-129191500D03*
X163308500Y-129191500D03*
X162808500Y-129191500D03*
X162308500Y-129191500D03*
%TD*%
D27*
%TO.C,U17*%
X202158500Y-99441500D03*
X201658500Y-99441500D03*
X201158500Y-99441500D03*
X200658500Y-99441500D03*
X200158500Y-99441500D03*
X200158500Y-103841500D03*
X200658500Y-103841500D03*
X201158500Y-103841500D03*
X201658500Y-103841500D03*
X202158500Y-103841500D03*
%TD*%
D35*
%TO.C,C24*%
X122758500Y-129091500D03*
X122758500Y-130991500D03*
%TD*%
D11*
%TO.C,C22*%
X99058500Y-135941500D03*
X100958500Y-135941500D03*
%TD*%
D27*
%TO.C,U30*%
X183808500Y-99441500D03*
X183308500Y-99441500D03*
X182808500Y-99441500D03*
X182308500Y-99441500D03*
X181808500Y-99441500D03*
X181808500Y-103841500D03*
X182308500Y-103841500D03*
X182808500Y-103841500D03*
X183308500Y-103841500D03*
X183808500Y-103841500D03*
%TD*%
D36*
%TO.C,L6*%
X120008500Y-93491500D03*
X125708500Y-93491500D03*
%TD*%
D32*
%TO.C,U15*%
X125058500Y-133691500D03*
X125558500Y-133691500D03*
X126058500Y-133691500D03*
X126558500Y-133691500D03*
X127058500Y-133691500D03*
X127058500Y-129291500D03*
X126558500Y-129291500D03*
X126058500Y-129291500D03*
X125558500Y-129291500D03*
X125058500Y-129291500D03*
%TD*%
D34*
%TO.C,R40*%
X103708500Y-134141500D03*
X103708500Y-137066500D03*
%TD*%
D37*
%TO.C,L7*%
X143658500Y-121791500D03*
X137958500Y-121791500D03*
%TD*%
D34*
%TO.C,R46*%
X141078500Y-141151500D03*
X141078500Y-144076500D03*
%TD*%
D38*
%TO.C,L3*%
X135908500Y-108491500D03*
X135908500Y-102791500D03*
%TD*%
D34*
%TO.C,R33*%
X122468500Y-134141500D03*
X122468500Y-137066500D03*
%TD*%
D17*
%TO.C,U48*%
X107518500Y-149039000D03*
X104978500Y-149039000D03*
X110058500Y-149039000D03*
X110058500Y-146499000D03*
X110058500Y-143959000D03*
X110058500Y-141419000D03*
X110058500Y-138879000D03*
X110058500Y-136339000D03*
X110058500Y-133799000D03*
X110058500Y-131259000D03*
X97358500Y-149039000D03*
X97358500Y-146499000D03*
X97358500Y-143959000D03*
X97358500Y-141419000D03*
X97358500Y-138879000D03*
X97358500Y-136339000D03*
X97358500Y-133799000D03*
D18*
X97358500Y-131259000D03*
%TD*%
D12*
%TO.C,M4*%
X108708500Y-153566500D03*
X106708500Y-153566500D03*
X104708500Y-153566500D03*
X102708500Y-153566500D03*
X100708500Y-153566500D03*
D14*
X98708500Y-153566500D03*
%TD*%
D23*
%TO.C,J32*%
X98158500Y-125341500D03*
D24*
X98158500Y-123341500D03*
%TD*%
D22*
%TO.C,R76*%
X194758500Y-116504000D03*
X194758500Y-114679000D03*
%TD*%
D10*
%TO.C,TP6*%
X149300000Y-112300000D03*
%TD*%
D30*
%TO.C,J16*%
X201398500Y-109541500D03*
X198858500Y-109541500D03*
X196318500Y-109541500D03*
X193778500Y-109541500D03*
X191238500Y-109541500D03*
X188698500Y-109541500D03*
X186158500Y-109541500D03*
X183618500Y-109541500D03*
X181078500Y-109541500D03*
X178538500Y-109541500D03*
X175998500Y-109541500D03*
D31*
X173458500Y-109541500D03*
%TD*%
D11*
%TO.C,C157*%
X144150000Y-116050000D03*
X146050000Y-116050000D03*
%TD*%
D12*
%TO.C,SERVO3*%
X180808500Y-92491500D03*
X182808500Y-92491500D03*
D13*
X184808500Y-92491500D03*
%TD*%
D16*
%TO.C,C159*%
X149450000Y-116040000D03*
X147550000Y-116040000D03*
%TD*%
D39*
%TO.C,U21*%
X101900000Y-110000000D03*
X101900000Y-109500000D03*
X101900000Y-109000000D03*
X101900000Y-108500000D03*
X101900000Y-108000000D03*
X97500000Y-108000000D03*
X97500000Y-108500000D03*
X97500000Y-109000000D03*
X97500000Y-109500000D03*
X97500000Y-110000000D03*
%TD*%
M02*
