%TF.GenerationSoftware,KiCad,Pcbnew,9.0.2*%
%TF.CreationDate,2025-08-24T19:37:34+02:00*%
%TF.ProjectId,CM5IO,434d3549-4f2e-46b6-9963-61645f706362,rev?*%
%TF.SameCoordinates,Original*%
%TF.FileFunction,Paste,Top*%
%TF.FilePolarity,Positive*%
%FSLAX46Y46*%
G04 Gerber Fmt 4.6, Leading zero omitted, Abs format (unit mm)*
G04 Created by KiCad (PCBNEW 9.0.2) date 2025-08-24 19:37:34*
%MOMM*%
%LPD*%
G01*
G04 APERTURE LIST*
G04 Aperture macros list*
%AMRoundRect*
0 Rectangle with rounded corners*
0 $1 Rounding radius*
0 $2 $3 $4 $5 $6 $7 $8 $9 X,Y pos of 4 corners*
0 Add a 4 corners polygon primitive as box body*
4,1,4,$2,$3,$4,$5,$6,$7,$8,$9,$2,$3,0*
0 Add four circle primitives for the rounded corners*
1,1,$1+$1,$2,$3*
1,1,$1+$1,$4,$5*
1,1,$1+$1,$6,$7*
1,1,$1+$1,$8,$9*
0 Add four rect primitives between the rounded corners*
20,1,$1+$1,$2,$3,$4,$5,0*
20,1,$1+$1,$4,$5,$6,$7,0*
20,1,$1+$1,$6,$7,$8,$9,0*
20,1,$1+$1,$8,$9,$2,$3,0*%
%AMFreePoly0*
4,1,7,1.050000,-0.625000,0.250000,-0.625000,0.250000,-0.975000,-1.050000,-0.975000,-1.050000,0.975000,1.050000,0.975000,1.050000,-0.625000,1.050000,-0.625000,$1*%
%AMFreePoly1*
4,1,7,1.050000,-0.975000,-0.250000,-0.975000,-0.250000,-0.625000,-1.050000,-0.625000,-1.050000,0.975000,1.050000,0.975000,1.050000,-0.975000,1.050000,-0.975000,$1*%
G04 Aperture macros list end*
%ADD10C,0.010000*%
%ADD11RoundRect,0.250000X0.625000X-0.375000X0.625000X0.375000X-0.625000X0.375000X-0.625000X-0.375000X0*%
%ADD12RoundRect,0.250000X-0.450000X0.262500X-0.450000X-0.262500X0.450000X-0.262500X0.450000X0.262500X0*%
%ADD13RoundRect,0.250000X-0.475000X0.250000X-0.475000X-0.250000X0.475000X-0.250000X0.475000X0.250000X0*%
%ADD14RoundRect,0.250000X0.475000X-0.250000X0.475000X0.250000X-0.475000X0.250000X-0.475000X-0.250000X0*%
%ADD15RoundRect,0.250000X0.450000X-0.262500X0.450000X0.262500X-0.450000X0.262500X-0.450000X-0.262500X0*%
%ADD16RoundRect,0.250000X0.945000X-0.420000X0.945000X0.420000X-0.945000X0.420000X-0.945000X-0.420000X0*%
%ADD17RoundRect,0.250000X-0.312500X-0.625000X0.312500X-0.625000X0.312500X0.625000X-0.312500X0.625000X0*%
%ADD18RoundRect,0.250000X0.262500X0.450000X-0.262500X0.450000X-0.262500X-0.450000X0.262500X-0.450000X0*%
%ADD19FreePoly0,90.000000*%
%ADD20FreePoly1,90.000000*%
%ADD21RoundRect,0.075000X0.475000X-0.075000X0.475000X0.075000X-0.475000X0.075000X-0.475000X-0.075000X0*%
%ADD22RoundRect,0.075000X-0.650000X-0.075000X0.650000X-0.075000X0.650000X0.075000X-0.650000X0.075000X0*%
%ADD23RoundRect,0.250000X0.375000X0.625000X-0.375000X0.625000X-0.375000X-0.625000X0.375000X-0.625000X0*%
%ADD24RoundRect,0.250000X0.176777X-0.707107X0.707107X-0.176777X-0.176777X0.707107X-0.707107X0.176777X0*%
%ADD25RoundRect,0.150000X0.150000X-0.512500X0.150000X0.512500X-0.150000X0.512500X-0.150000X-0.512500X0*%
%ADD26RoundRect,0.250000X-0.375000X-0.625000X0.375000X-0.625000X0.375000X0.625000X-0.375000X0.625000X0*%
%ADD27RoundRect,0.250000X-0.625000X0.312500X-0.625000X-0.312500X0.625000X-0.312500X0.625000X0.312500X0*%
%ADD28RoundRect,0.150000X-0.737500X-0.150000X0.737500X-0.150000X0.737500X0.150000X-0.737500X0.150000X0*%
%ADD29RoundRect,0.250000X-0.315000X-0.460000X0.315000X-0.460000X0.315000X0.460000X-0.315000X0.460000X0*%
%ADD30RoundRect,0.250000X-0.250000X-0.475000X0.250000X-0.475000X0.250000X0.475000X-0.250000X0.475000X0*%
%ADD31RoundRect,0.250000X0.719823X0.114476X0.237732X0.689009X-0.719823X-0.114476X-0.237732X-0.689009X0*%
%ADD32RoundRect,0.250001X-0.899999X-1.449999X0.899999X-1.449999X0.899999X1.449999X-0.899999X1.449999X0*%
%ADD33RoundRect,0.250000X-0.262500X-0.450000X0.262500X-0.450000X0.262500X0.450000X-0.262500X0.450000X0*%
%ADD34RoundRect,0.250000X0.604002X0.407961X-0.075729X0.724924X-0.604002X-0.407961X0.075729X-0.724924X0*%
%ADD35RoundRect,0.250000X1.000000X-1.500000X1.000000X1.500000X-1.000000X1.500000X-1.000000X-1.500000X0*%
%ADD36RoundRect,0.250000X0.250000X0.475000X-0.250000X0.475000X-0.250000X-0.475000X0.250000X-0.475000X0*%
%ADD37RoundRect,0.250000X-0.625000X0.375000X-0.625000X-0.375000X0.625000X-0.375000X0.625000X0.375000X0*%
%ADD38RoundRect,0.150000X-0.150000X0.587500X-0.150000X-0.587500X0.150000X-0.587500X0.150000X0.587500X0*%
%ADD39RoundRect,0.250000X-0.707107X-0.176777X-0.176777X-0.707107X0.707107X0.176777X0.176777X0.707107X0*%
%ADD40RoundRect,0.190000X-0.610000X-0.190000X0.610000X-0.190000X0.610000X0.190000X-0.610000X0.190000X0*%
%ADD41RoundRect,0.250000X-0.012260X-0.728766X0.637260X-0.353766X0.012260X0.728766X-0.637260X0.353766X0*%
%ADD42R,1.750000X0.450000*%
%ADD43RoundRect,0.150000X0.737500X0.150000X-0.737500X0.150000X-0.737500X-0.150000X0.737500X-0.150000X0*%
%ADD44RoundRect,0.250000X0.315000X0.460000X-0.315000X0.460000X-0.315000X-0.460000X0.315000X-0.460000X0*%
%ADD45RoundRect,0.250000X0.707107X0.176777X0.176777X0.707107X-0.707107X-0.176777X-0.176777X-0.707107X0*%
%ADD46RoundRect,0.051250X0.688750X0.153750X-0.688750X0.153750X-0.688750X-0.153750X0.688750X-0.153750X0*%
%ADD47RoundRect,0.051250X-0.688750X-0.153750X0.688750X-0.153750X0.688750X0.153750X-0.688750X0.153750X0*%
G04 APERTURE END LIST*
D10*
%TO.C,U39*%
X141573500Y-116631500D02*
X140043500Y-116631500D01*
X140043500Y-115121500D01*
X141573500Y-115121500D01*
X141573500Y-116631500D01*
G36*
X141573500Y-116631500D02*
G01*
X140043500Y-116631500D01*
X140043500Y-115121500D01*
X141573500Y-115121500D01*
X141573500Y-116631500D01*
G37*
X141573500Y-114741500D02*
X140043500Y-114741500D01*
X140043500Y-113231500D01*
X141573500Y-113231500D01*
X141573500Y-114741500D01*
G36*
X141573500Y-114741500D02*
G01*
X140043500Y-114741500D01*
X140043500Y-113231500D01*
X141573500Y-113231500D01*
X141573500Y-114741500D01*
G37*
X141573500Y-112851500D02*
X140043500Y-112851500D01*
X140043500Y-111341500D01*
X141573500Y-111341500D01*
X141573500Y-112851500D01*
G36*
X141573500Y-112851500D02*
G01*
X140043500Y-112851500D01*
X140043500Y-111341500D01*
X141573500Y-111341500D01*
X141573500Y-112851500D01*
G37*
X141573500Y-110961500D02*
X140043500Y-110961500D01*
X140043500Y-109451500D01*
X141573500Y-109451500D01*
X141573500Y-110961500D01*
G36*
X141573500Y-110961500D02*
G01*
X140043500Y-110961500D01*
X140043500Y-109451500D01*
X141573500Y-109451500D01*
X141573500Y-110961500D01*
G37*
%TO.C,U36*%
X123623500Y-105831500D02*
X122093500Y-105831500D01*
X122093500Y-104321500D01*
X123623500Y-104321500D01*
X123623500Y-105831500D01*
G36*
X123623500Y-105831500D02*
G01*
X122093500Y-105831500D01*
X122093500Y-104321500D01*
X123623500Y-104321500D01*
X123623500Y-105831500D01*
G37*
X123623500Y-103941500D02*
X122093500Y-103941500D01*
X122093500Y-102431500D01*
X123623500Y-102431500D01*
X123623500Y-103941500D01*
G36*
X123623500Y-103941500D02*
G01*
X122093500Y-103941500D01*
X122093500Y-102431500D01*
X123623500Y-102431500D01*
X123623500Y-103941500D01*
G37*
X123623500Y-102051500D02*
X122093500Y-102051500D01*
X122093500Y-100541500D01*
X123623500Y-100541500D01*
X123623500Y-102051500D01*
G36*
X123623500Y-102051500D02*
G01*
X122093500Y-102051500D01*
X122093500Y-100541500D01*
X123623500Y-100541500D01*
X123623500Y-102051500D01*
G37*
X123623500Y-100161500D02*
X122093500Y-100161500D01*
X122093500Y-98651500D01*
X123623500Y-98651500D01*
X123623500Y-100161500D01*
G36*
X123623500Y-100161500D02*
G01*
X122093500Y-100161500D01*
X122093500Y-98651500D01*
X123623500Y-98651500D01*
X123623500Y-100161500D01*
G37*
%TD*%
D11*
%TO.C,D15*%
X131750000Y-139350000D03*
X131750000Y-136550000D03*
%TD*%
D12*
%TO.C,R57*%
X131746750Y-133025000D03*
X131746750Y-134850000D03*
%TD*%
%TO.C,R88*%
X113008500Y-154061500D03*
X113008500Y-152236500D03*
%TD*%
D11*
%TO.C,D36*%
X183058500Y-134304000D03*
X183058500Y-137104000D03*
%TD*%
D13*
%TO.C,C43*%
X154692250Y-98796500D03*
X154692250Y-96896500D03*
%TD*%
D14*
%TO.C,C63*%
X196608500Y-97591500D03*
X196608500Y-99491500D03*
%TD*%
D15*
%TO.C,R56*%
X165701000Y-117284000D03*
X165701000Y-119109000D03*
%TD*%
D16*
%TO.C,CT5*%
X53450000Y-180160000D03*
X53450000Y-183240000D03*
%TD*%
D11*
%TO.C,D28*%
X190658500Y-139091500D03*
X190658500Y-141891500D03*
%TD*%
D17*
%TO.C,R34*%
X63591000Y-98856500D03*
X60666000Y-98856500D03*
%TD*%
D13*
%TO.C,C153*%
X135408500Y-116791500D03*
X135408500Y-114891500D03*
%TD*%
D18*
%TO.C,R165*%
X127846000Y-104291500D03*
X129671000Y-104291500D03*
%TD*%
D11*
%TO.C,D8*%
X113058500Y-146841500D03*
X113058500Y-149641500D03*
%TD*%
D19*
%TO.C,J14*%
X209383500Y-105541500D03*
D20*
X209383500Y-139541500D03*
D21*
X208258500Y-107791500D03*
X208258500Y-108291500D03*
X208258500Y-108791500D03*
X208258500Y-109291500D03*
X208258500Y-109791500D03*
X208258500Y-110291500D03*
X208258500Y-110791500D03*
X208258500Y-111291500D03*
X208258500Y-111791500D03*
X208258500Y-112291500D03*
X208258500Y-112791500D03*
X208258500Y-113291500D03*
X208258500Y-113791500D03*
X208258500Y-114291500D03*
X208258500Y-114791500D03*
X208258500Y-115291500D03*
X208258500Y-115791500D03*
X208258500Y-116291500D03*
X208258500Y-116791500D03*
X208258500Y-117291500D03*
X208258500Y-117791500D03*
X208258500Y-118291500D03*
X208258500Y-118791500D03*
X208258500Y-119291500D03*
X208258500Y-119791500D03*
X208258500Y-120291500D03*
X208258500Y-120791500D03*
X208258500Y-121291500D03*
X208258500Y-121791500D03*
X208258500Y-122291500D03*
X208258500Y-122791500D03*
X208258500Y-123291500D03*
X208258500Y-123791500D03*
X208258500Y-124291500D03*
X208258500Y-124791500D03*
X208258500Y-125291500D03*
X208258500Y-125791500D03*
X208258500Y-126291500D03*
X208258500Y-126791500D03*
X208258500Y-127291500D03*
X208258500Y-127791500D03*
X208258500Y-128291500D03*
X208258500Y-128791500D03*
X208258500Y-129291500D03*
X208258500Y-129791500D03*
X208258500Y-130291500D03*
X208258500Y-130791500D03*
X208258500Y-131291500D03*
X208258500Y-131791500D03*
X208258500Y-132291500D03*
X208258500Y-132791500D03*
X208258500Y-133291500D03*
X208258500Y-133791500D03*
X208258500Y-134291500D03*
X208258500Y-134791500D03*
X208258500Y-135291500D03*
X208258500Y-135791500D03*
X208258500Y-136291500D03*
X208258500Y-136791500D03*
X208258500Y-137291500D03*
%TD*%
D13*
%TO.C,C52*%
X165759750Y-102161500D03*
X165759750Y-100261500D03*
%TD*%
D22*
%TO.C,U26*%
X50408500Y-118066500D03*
X50408500Y-118566500D03*
X50408500Y-119066500D03*
X50408500Y-119566500D03*
X50408500Y-120066500D03*
X46008500Y-120066500D03*
X46008500Y-119566500D03*
X46008500Y-119066500D03*
X46008500Y-118566500D03*
X46008500Y-118066500D03*
%TD*%
D12*
%TO.C,R160*%
X119708500Y-110704000D03*
X119708500Y-108879000D03*
%TD*%
D23*
%TO.C,D23*%
X192858500Y-115191500D03*
X195658500Y-115191500D03*
%TD*%
D11*
%TO.C,D10*%
X150358500Y-146841500D03*
X150358500Y-149641500D03*
%TD*%
D24*
%TO.C,D37*%
X182048451Y-139464051D03*
X180068549Y-141443949D03*
%TD*%
D25*
%TO.C,U40*%
X180408500Y-146354000D03*
X181358500Y-146354000D03*
X182308500Y-146354000D03*
X182308500Y-148629000D03*
X181358500Y-148629000D03*
X180408500Y-148629000D03*
%TD*%
D11*
%TO.C,D26*%
X190658500Y-129891500D03*
X190658500Y-132691500D03*
%TD*%
D26*
%TO.C,D7*%
X198708500Y-112741500D03*
X195908500Y-112741500D03*
%TD*%
D12*
%TO.C,R53*%
X228158500Y-141654000D03*
X228158500Y-139829000D03*
%TD*%
D27*
%TO.C,R39*%
X108608500Y-115054000D03*
X108608500Y-112129000D03*
%TD*%
D13*
%TO.C,C41*%
X154618500Y-111551500D03*
X154618500Y-109651500D03*
%TD*%
D28*
%TO.C,U33*%
X158354750Y-100591500D03*
X158354750Y-101861500D03*
X158354750Y-103131500D03*
X158354750Y-104401500D03*
X153229750Y-104401500D03*
X153229750Y-103131500D03*
X153229750Y-101861500D03*
X153229750Y-100591500D03*
D29*
X156472250Y-103346500D03*
X156472250Y-101646500D03*
X155112250Y-103346500D03*
X155112250Y-101646500D03*
%TD*%
D15*
%TO.C,R92*%
X150358500Y-142391500D03*
X150358500Y-144216500D03*
%TD*%
%TO.C,R60*%
X165808500Y-104434000D03*
X165808500Y-106259000D03*
%TD*%
D22*
%TO.C,U16*%
X42998500Y-99766500D03*
X42998500Y-100266500D03*
X42998500Y-100766500D03*
X42998500Y-101266500D03*
X42998500Y-101766500D03*
X38598500Y-101766500D03*
X38598500Y-101266500D03*
X38598500Y-100766500D03*
X38598500Y-100266500D03*
X38598500Y-99766500D03*
%TD*%
D26*
%TO.C,D32*%
X177708500Y-142404000D03*
X174908500Y-142404000D03*
%TD*%
D18*
%TO.C,R90*%
X143396000Y-146391500D03*
X145221000Y-146391500D03*
%TD*%
D30*
%TO.C,C34*%
X53618500Y-122846500D03*
X51718500Y-122846500D03*
%TD*%
D11*
%TO.C,D11*%
X168958500Y-146841500D03*
X168958500Y-149641500D03*
%TD*%
D26*
%TO.C,D43*%
X194908500Y-143991500D03*
X192108500Y-143991500D03*
%TD*%
D27*
%TO.C,R42*%
X192008500Y-99854000D03*
X192008500Y-96929000D03*
%TD*%
D12*
%TO.C,R61*%
X143638500Y-102054000D03*
X143638500Y-100229000D03*
%TD*%
D13*
%TO.C,C154*%
X146158500Y-116791500D03*
X146158500Y-114891500D03*
%TD*%
D12*
%TO.C,R95*%
X168908500Y-154061500D03*
X168908500Y-152236500D03*
%TD*%
D31*
%TO.C,D18*%
X202358598Y-132669037D03*
X204158402Y-134813963D03*
%TD*%
D17*
%TO.C,R43*%
X69201000Y-108786500D03*
X66276000Y-108786500D03*
%TD*%
D15*
%TO.C,R51*%
X156942250Y-96934000D03*
X156942250Y-98759000D03*
%TD*%
D32*
%TO.C,L1*%
X174868500Y-116151500D03*
X169168500Y-116151500D03*
%TD*%
D11*
%TO.C,D39*%
X183058500Y-120504000D03*
X183058500Y-123304000D03*
%TD*%
D30*
%TO.C,C151*%
X129708500Y-106391500D03*
X127808500Y-106391500D03*
%TD*%
D22*
%TO.C,U25*%
X50408500Y-113491500D03*
X50408500Y-113991500D03*
X50408500Y-114491500D03*
X50408500Y-114991500D03*
X50408500Y-115491500D03*
X46008500Y-115491500D03*
X46008500Y-114991500D03*
X46008500Y-114491500D03*
X46008500Y-113991500D03*
X46008500Y-113491500D03*
%TD*%
%TO.C,U20*%
X71208500Y-122741500D03*
X71208500Y-123241500D03*
X71208500Y-123741500D03*
X71208500Y-124241500D03*
X71208500Y-124741500D03*
X66808500Y-124741500D03*
X66808500Y-124241500D03*
X66808500Y-123741500D03*
X66808500Y-123241500D03*
X66808500Y-122741500D03*
%TD*%
D30*
%TO.C,C141*%
X49258500Y-71021500D03*
X47358500Y-71021500D03*
%TD*%
%TO.C,C31*%
X49168500Y-125856500D03*
X47268500Y-125856500D03*
%TD*%
D14*
%TO.C,C61*%
X189608500Y-97591500D03*
X189608500Y-99491500D03*
%TD*%
D33*
%TO.C,R163*%
X194071000Y-112941500D03*
X192246000Y-112941500D03*
%TD*%
D17*
%TO.C,R45*%
X74811000Y-95546500D03*
X71886000Y-95546500D03*
%TD*%
D25*
%TO.C,U35*%
X173508500Y-146304000D03*
X174458500Y-146304000D03*
X175408500Y-146304000D03*
X175408500Y-148579000D03*
X174458500Y-148579000D03*
X173508500Y-148579000D03*
%TD*%
D12*
%TO.C,R161*%
X117627250Y-107154000D03*
X117627250Y-105329000D03*
%TD*%
D27*
%TO.C,R48*%
X182808500Y-99854000D03*
X182808500Y-96929000D03*
%TD*%
D15*
%TO.C,R62*%
X206708500Y-92829000D03*
X206708500Y-94654000D03*
%TD*%
D33*
%TO.C,R58*%
X211921000Y-90941500D03*
X210096000Y-90941500D03*
%TD*%
D34*
%TO.C,D17*%
X197989670Y-130149834D03*
X200527330Y-131333166D03*
%TD*%
D33*
%TO.C,R52*%
X163013500Y-113096500D03*
X161188500Y-113096500D03*
%TD*%
D17*
%TO.C,R37*%
X63591000Y-108786500D03*
X60666000Y-108786500D03*
%TD*%
D14*
%TO.C,C70*%
X134688500Y-95641500D03*
X134688500Y-97541500D03*
%TD*%
D11*
%TO.C,D27*%
X190658500Y-134491500D03*
X190658500Y-137291500D03*
%TD*%
D15*
%TO.C,R177*%
X148089750Y-108116500D03*
X148089750Y-109941500D03*
%TD*%
D35*
%TO.C,C96*%
X103708500Y-136899000D03*
X103708500Y-143399000D03*
%TD*%
D22*
%TO.C,U27*%
X57818500Y-95191500D03*
X57818500Y-95691500D03*
X57818500Y-96191500D03*
X57818500Y-96691500D03*
X57818500Y-97191500D03*
X53418500Y-97191500D03*
X53418500Y-96691500D03*
X53418500Y-96191500D03*
X53418500Y-95691500D03*
X53418500Y-95191500D03*
%TD*%
D30*
%TO.C,C56*%
X180858500Y-97441500D03*
X178958500Y-97441500D03*
%TD*%
%TO.C,C59*%
X224121000Y-150596500D03*
X222221000Y-150596500D03*
%TD*%
D25*
%TO.C,U44*%
X208008500Y-146354000D03*
X208958500Y-146354000D03*
X209908500Y-146354000D03*
X209908500Y-148629000D03*
X208958500Y-148629000D03*
X208008500Y-148629000D03*
%TD*%
D26*
%TO.C,D42*%
X199508500Y-143991500D03*
X196708500Y-143991500D03*
%TD*%
D11*
%TO.C,D9*%
X131758500Y-146841500D03*
X131758500Y-149641500D03*
%TD*%
D30*
%TO.C,C25*%
X40268500Y-131876500D03*
X38368500Y-131876500D03*
%TD*%
D15*
%TO.C,R59*%
X163642250Y-104434000D03*
X163642250Y-106259000D03*
%TD*%
D12*
%TO.C,R162*%
X115577250Y-107166500D03*
X115577250Y-105341500D03*
%TD*%
D33*
%TO.C,R171*%
X158421000Y-106541500D03*
X156596000Y-106541500D03*
%TD*%
D17*
%TO.C,R47*%
X74811000Y-102166500D03*
X71886000Y-102166500D03*
%TD*%
D14*
%TO.C,C55*%
X161442250Y-104396500D03*
X161442250Y-106296500D03*
%TD*%
D25*
%TO.C,U42*%
X194208500Y-146354000D03*
X195158500Y-146354000D03*
X196108500Y-146354000D03*
X196108500Y-148629000D03*
X195158500Y-148629000D03*
X194208500Y-148629000D03*
%TD*%
D18*
%TO.C,R85*%
X106046000Y-146391500D03*
X107871000Y-146391500D03*
%TD*%
D15*
%TO.C,R178*%
X146039750Y-108129000D03*
X146039750Y-109954000D03*
%TD*%
D30*
%TO.C,C47*%
X163051000Y-115296500D03*
X161151000Y-115296500D03*
%TD*%
%TO.C,C40*%
X225358500Y-141601500D03*
X223458500Y-141601500D03*
%TD*%
D15*
%TO.C,R86*%
X113058500Y-142329000D03*
X113058500Y-144154000D03*
%TD*%
D33*
%TO.C,R50*%
X201921000Y-103741500D03*
X200096000Y-103741500D03*
%TD*%
D22*
%TO.C,U19*%
X42998500Y-113491500D03*
X42998500Y-113991500D03*
X42998500Y-114491500D03*
X42998500Y-114991500D03*
X42998500Y-115491500D03*
X38598500Y-115491500D03*
X38598500Y-114991500D03*
X38598500Y-114491500D03*
X38598500Y-113991500D03*
X38598500Y-113491500D03*
%TD*%
D18*
%TO.C,R63*%
X137526000Y-97691500D03*
X139351000Y-97691500D03*
%TD*%
D11*
%TO.C,D35*%
X183058500Y-129691500D03*
X183058500Y-132491500D03*
%TD*%
D18*
%TO.C,R84*%
X124796000Y-146441500D03*
X126621000Y-146441500D03*
%TD*%
%TO.C,R91*%
X161996000Y-146391500D03*
X163821000Y-146391500D03*
%TD*%
D26*
%TO.C,D21*%
X195808500Y-128391500D03*
X193008500Y-128391500D03*
%TD*%
D14*
%TO.C,C146*%
X117608500Y-108841500D03*
X117608500Y-110741500D03*
%TD*%
D36*
%TO.C,C152*%
X133958500Y-108891500D03*
X135858500Y-108891500D03*
%TD*%
D30*
%TO.C,C101*%
X89603500Y-103631500D03*
X87703500Y-103631500D03*
%TD*%
D37*
%TO.C,D29*%
X190708500Y-128041501D03*
X190708500Y-125241499D03*
%TD*%
D33*
%TO.C,R164*%
X202421000Y-112941500D03*
X200596000Y-112941500D03*
%TD*%
D15*
%TO.C,R175*%
X143958500Y-104579000D03*
X143958500Y-106404000D03*
%TD*%
D14*
%TO.C,C53*%
X161401000Y-117246500D03*
X161401000Y-119146500D03*
%TD*%
D38*
%TO.C,Q1*%
X205808500Y-98679000D03*
X204858500Y-96804000D03*
X206758500Y-96804000D03*
%TD*%
D30*
%TO.C,C29*%
X44718500Y-131876500D03*
X42818500Y-131876500D03*
%TD*%
D11*
%TO.C,D14*%
X226871000Y-145886500D03*
X226871000Y-148686500D03*
%TD*%
D39*
%TO.C,D33*%
X172548450Y-141393949D03*
X170568550Y-139414051D03*
%TD*%
D40*
%TO.C,DSW1*%
X82208500Y-109801500D03*
X82208500Y-111071500D03*
X82208500Y-112341500D03*
X82208500Y-113611500D03*
X82208500Y-114881500D03*
X82208500Y-116151500D03*
X82208500Y-117421500D03*
X82208500Y-118691500D03*
X87288500Y-118691500D03*
X87288500Y-117421500D03*
X87288500Y-116151500D03*
X87288500Y-114881500D03*
X87288500Y-113611500D03*
X87288500Y-112341500D03*
X87288500Y-111071500D03*
X87288500Y-109801500D03*
%TD*%
D35*
%TO.C,C97*%
X122458500Y-136949000D03*
X122458500Y-143449000D03*
%TD*%
D30*
%TO.C,C35*%
X53618500Y-125856500D03*
X51718500Y-125856500D03*
%TD*%
D17*
%TO.C,R38*%
X78721000Y-117291500D03*
X75796000Y-117291500D03*
%TD*%
D37*
%TO.C,D30*%
X190708499Y-123441500D03*
X190708501Y-120641500D03*
%TD*%
D30*
%TO.C,C49*%
X163092250Y-102446500D03*
X161192250Y-102446500D03*
%TD*%
D15*
%TO.C,R93*%
X168958500Y-142379000D03*
X168958500Y-144204000D03*
%TD*%
D30*
%TO.C,C57*%
X224121000Y-147586500D03*
X222221000Y-147586500D03*
%TD*%
D41*
%TO.C,D41*%
X204120936Y-141891500D03*
X201696064Y-143291500D03*
%TD*%
D35*
%TO.C,C98*%
X141058500Y-136899000D03*
X141058500Y-143399000D03*
%TD*%
D17*
%TO.C,R44*%
X69201000Y-112096500D03*
X66276000Y-112096500D03*
%TD*%
D35*
%TO.C,C99*%
X159658500Y-136899000D03*
X159658500Y-143399000D03*
%TD*%
D33*
%TO.C,R174*%
X180771000Y-112941500D03*
X178946000Y-112941500D03*
%TD*%
D30*
%TO.C,C38*%
X225358500Y-138591500D03*
X223458500Y-138591500D03*
%TD*%
D15*
%TO.C,R55*%
X163601000Y-117284000D03*
X163601000Y-119109000D03*
%TD*%
D30*
%TO.C,C23*%
X40268500Y-125856500D03*
X38368500Y-125856500D03*
%TD*%
D11*
%TO.C,D38*%
X183058500Y-115941500D03*
X183058500Y-118741500D03*
%TD*%
D13*
%TO.C,C50*%
X165701000Y-115146500D03*
X165701000Y-113246500D03*
%TD*%
D25*
%TO.C,U43*%
X201108500Y-146354000D03*
X202058500Y-146354000D03*
X203008500Y-146354000D03*
X203008500Y-148629000D03*
X202058500Y-148629000D03*
X201108500Y-148629000D03*
%TD*%
D30*
%TO.C,C46*%
X154758500Y-106541500D03*
X152858500Y-106541500D03*
%TD*%
D14*
%TO.C,C51*%
X194408500Y-97591500D03*
X194408500Y-99491500D03*
%TD*%
%TO.C,C64*%
X146038500Y-100191500D03*
X146038500Y-102091500D03*
%TD*%
D27*
%TO.C,R35*%
X201208500Y-99854000D03*
X201208500Y-96929000D03*
%TD*%
D15*
%TO.C,R87*%
X131758500Y-142379000D03*
X131758500Y-144204000D03*
%TD*%
D42*
%TO.C,U52*%
X119558500Y-113366500D03*
X119558500Y-114016500D03*
X119558500Y-114666500D03*
X119558500Y-115316500D03*
X119558500Y-115966500D03*
X119558500Y-116616500D03*
X119558500Y-117266500D03*
X119558500Y-117916500D03*
X119558500Y-118566500D03*
X119558500Y-119216500D03*
X119558500Y-119866500D03*
X119558500Y-120516500D03*
X112358500Y-120516500D03*
X112358500Y-119866500D03*
X112358500Y-119216500D03*
X112358500Y-118566500D03*
X112358500Y-117916500D03*
X112358500Y-117266500D03*
X112358500Y-116616500D03*
X112358500Y-115966500D03*
X112358500Y-115316500D03*
X112358500Y-114666500D03*
X112358500Y-114016500D03*
X112358500Y-113366500D03*
%TD*%
D12*
%TO.C,R94*%
X150308500Y-154061500D03*
X150308500Y-152236500D03*
%TD*%
D15*
%TO.C,R49*%
X156868500Y-109689000D03*
X156868500Y-111514000D03*
%TD*%
D14*
%TO.C,C45*%
X187408500Y-97591500D03*
X187408500Y-99491500D03*
%TD*%
D43*
%TO.C,U34*%
X142296000Y-98396500D03*
X142296000Y-97126500D03*
X142296000Y-95856500D03*
X142296000Y-94586500D03*
X147421000Y-94586500D03*
X147421000Y-95856500D03*
X147421000Y-97126500D03*
X147421000Y-98396500D03*
D44*
X144178500Y-95641500D03*
X144178500Y-97341500D03*
X145538500Y-95641500D03*
X145538500Y-97341500D03*
%TD*%
D25*
%TO.C,U41*%
X187308500Y-146366500D03*
X188258500Y-146366500D03*
X189208500Y-146366500D03*
X189208500Y-148641500D03*
X188258500Y-148641500D03*
X187308500Y-148641500D03*
%TD*%
D13*
%TO.C,C155*%
X146058500Y-106441500D03*
X146058500Y-104541500D03*
%TD*%
D33*
%TO.C,R176*%
X189021000Y-112941500D03*
X187196000Y-112941500D03*
%TD*%
D28*
%TO.C,U31*%
X158313500Y-113441500D03*
X158313500Y-114711500D03*
X158313500Y-115981500D03*
X158313500Y-117251500D03*
X153188500Y-117251500D03*
X153188500Y-115981500D03*
X153188500Y-114711500D03*
X153188500Y-113441500D03*
D29*
X156431000Y-116196500D03*
X156431000Y-114496500D03*
X155071000Y-116196500D03*
X155071000Y-114496500D03*
%TD*%
D33*
%TO.C,R64*%
X208371000Y-90941500D03*
X206546000Y-90941500D03*
%TD*%
%TO.C,R173*%
X135821000Y-110991500D03*
X133996000Y-110991500D03*
%TD*%
D11*
%TO.C,D40*%
X183058500Y-125091500D03*
X183058500Y-127891500D03*
%TD*%
D37*
%TO.C,D34*%
X169608500Y-137054000D03*
X169608500Y-134254000D03*
%TD*%
D30*
%TO.C,C44*%
X154708500Y-119541500D03*
X152808500Y-119541500D03*
%TD*%
D18*
%TO.C,R172*%
X137746000Y-106691500D03*
X139571000Y-106691500D03*
%TD*%
D12*
%TO.C,R66*%
X134738500Y-93504000D03*
X134738500Y-91679000D03*
%TD*%
D37*
%TO.C,D13*%
X204608500Y-103791500D03*
X204608500Y-100991500D03*
%TD*%
D12*
%TO.C,R65*%
X136938500Y-93504000D03*
X136938500Y-91679000D03*
%TD*%
D33*
%TO.C,R169*%
X158221000Y-119541500D03*
X156396000Y-119541500D03*
%TD*%
%TO.C,R166*%
X125921000Y-108491500D03*
X124096000Y-108491500D03*
%TD*%
D11*
%TO.C,D19*%
X204908500Y-136891500D03*
X204908500Y-139691500D03*
%TD*%
D45*
%TO.C,D24*%
X198168551Y-116101551D03*
X200148449Y-118081449D03*
%TD*%
D14*
%TO.C,C144*%
X128258500Y-98491500D03*
X128258500Y-100391500D03*
%TD*%
D33*
%TO.C,R54*%
X163054750Y-100246500D03*
X161229750Y-100246500D03*
%TD*%
D12*
%TO.C,R89*%
X131708500Y-154061500D03*
X131708500Y-152236500D03*
%TD*%
D33*
%TO.C,R14*%
X49201000Y-74001500D03*
X47376000Y-74001500D03*
%TD*%
D11*
%TO.C,D25*%
X201158500Y-120341500D03*
X201158500Y-123141500D03*
%TD*%
D17*
%TO.C,R41*%
X177121000Y-97491500D03*
X174196000Y-97491500D03*
%TD*%
D46*
%TO.C,U39*%
X137943500Y-117266500D03*
X137943500Y-116616500D03*
X137943500Y-115966500D03*
X137943500Y-115316500D03*
X137943500Y-114666500D03*
X137943500Y-114016500D03*
X137943500Y-113366500D03*
X137943500Y-112716500D03*
X137943500Y-112066500D03*
X137943500Y-111416500D03*
X137943500Y-110766500D03*
X137943500Y-110116500D03*
X137943500Y-109466500D03*
X137943500Y-108816500D03*
X143673500Y-108816500D03*
X143673500Y-109466500D03*
X143673500Y-110116500D03*
X143673500Y-110766500D03*
X143673500Y-111416500D03*
X143673500Y-112066500D03*
X143673500Y-112716500D03*
X143673500Y-113366500D03*
X143673500Y-114016500D03*
X143673500Y-114666500D03*
X143673500Y-115316500D03*
X143673500Y-115966500D03*
X143673500Y-116616500D03*
X143673500Y-117266500D03*
%TD*%
D13*
%TO.C,C72*%
X139138500Y-93541500D03*
X139138500Y-91641500D03*
%TD*%
D30*
%TO.C,C30*%
X49168500Y-122846500D03*
X47268500Y-122846500D03*
%TD*%
D14*
%TO.C,C48*%
X185208500Y-97591500D03*
X185208500Y-99491500D03*
%TD*%
D36*
%TO.C,C68*%
X137488500Y-95541500D03*
X139388500Y-95541500D03*
%TD*%
D23*
%TO.C,D22*%
X192958500Y-130691500D03*
X195758500Y-130691500D03*
%TD*%
D14*
%TO.C,C62*%
X198808500Y-97591500D03*
X198808500Y-99491500D03*
%TD*%
D30*
%TO.C,C27*%
X44718500Y-125856500D03*
X42818500Y-125856500D03*
%TD*%
D36*
%TO.C,C66*%
X145888500Y-92141500D03*
X147788500Y-92141500D03*
%TD*%
D26*
%TO.C,D12*%
X185358500Y-112741500D03*
X182558500Y-112741500D03*
%TD*%
D22*
%TO.C,U29*%
X57818500Y-104341500D03*
X57818500Y-104841500D03*
X57818500Y-105341500D03*
X57818500Y-105841500D03*
X57818500Y-106341500D03*
X53418500Y-106341500D03*
X53418500Y-105841500D03*
X53418500Y-105341500D03*
X53418500Y-104841500D03*
X53418500Y-104341500D03*
%TD*%
D32*
%TO.C,L4*%
X175029750Y-103251500D03*
X169329750Y-103251500D03*
%TD*%
D18*
%TO.C,R170*%
X142176000Y-92091500D03*
X144001000Y-92091500D03*
%TD*%
D37*
%TO.C,D31*%
X190708500Y-118841500D03*
X190708500Y-116041500D03*
%TD*%
D30*
%TO.C,C100*%
X89603500Y-100621500D03*
X87703500Y-100621500D03*
%TD*%
D24*
%TO.C,D20*%
X200248449Y-125451551D03*
X198268551Y-127431449D03*
%TD*%
D14*
%TO.C,C145*%
X117508500Y-98491500D03*
X117508500Y-100391500D03*
%TD*%
D47*
%TO.C,U36*%
X125723500Y-98016500D03*
X125723500Y-98666500D03*
X125723500Y-99316500D03*
X125723500Y-99966500D03*
X125723500Y-100616500D03*
X125723500Y-101266500D03*
X125723500Y-101916500D03*
X125723500Y-102566500D03*
X125723500Y-103216500D03*
X125723500Y-103866500D03*
X125723500Y-104516500D03*
X125723500Y-105166500D03*
X125723500Y-105816500D03*
X125723500Y-106466500D03*
X119993500Y-106466500D03*
X119993500Y-105816500D03*
X119993500Y-105166500D03*
X119993500Y-104516500D03*
X119993500Y-103866500D03*
X119993500Y-103216500D03*
X119993500Y-102566500D03*
X119993500Y-101916500D03*
X119993500Y-101266500D03*
X119993500Y-100616500D03*
X119993500Y-99966500D03*
X119993500Y-99316500D03*
X119993500Y-98666500D03*
X119993500Y-98016500D03*
%TD*%
M02*
