M48
; DRILL file {KiCad 9.0.2} date 2025-08-24T19:37:40+0200
; FORMAT={-:-/ absolute / inch / decimal}
; #@! TF.CreationDate,2025-08-24T19:37:40+02:00
; #@! TF.GenerationSoftware,Kicad,Pcbnew,9.0.2
; #@! TF.FileFunction,Plated,1,6,PTH
FMAT,2
INCH
; #@! TA.AperFunction,Plated,PTH,ViaDrill
T1C0.0079
; #@! TA.AperFunction,Plated,PTH,ComponentDrill
T2C0.0079
; #@! TA.AperFunction,Plated,PTH,ViaDrill
T3C0.0118
; #@! TA.AperFunction,Plated,PTH,ComponentDrill
T4C0.0295
; #@! TA.AperFunction,Plated,PTH,ComponentDrill
T5C0.0394
; #@! TA.AperFunction,Plated,PTH,ComponentDrill
T6C0.0866
; #@! TA.AperFunction,Plated,PTH,ComponentDrill
T7C0.1772
%
G90
G05
T1
X4.3488Y-4.5213
X4.3684Y-4.5312
X4.4679Y-4.6768
X4.4875Y-4.6867
X4.5318Y-4.8442
X4.5318Y-4.8835
X4.5318Y-4.9229
X4.5436Y-4.8245
X4.5436Y-4.8638
X4.5436Y-4.9032
X4.5436Y-4.9426
X4.5555Y-4.8442
X4.5555Y-4.8835
X4.5555Y-4.9229
X4.5673Y-4.8245
X4.5673Y-4.8638
X4.5673Y-4.9032
X4.5673Y-4.9426
X4.5791Y-4.8442
X4.5791Y-4.8835
X4.5791Y-4.9229
X4.5909Y-4.8245
X4.5909Y-4.8638
X4.5909Y-4.9032
X4.5909Y-4.9426
X4.6027Y-4.8442
X4.6027Y-4.8835
X4.6027Y-4.9229
X4.6145Y-4.8245
X4.6145Y-4.8638
X4.6145Y-4.9032
X4.6145Y-4.9426
X4.6263Y-4.8442
X4.6263Y-4.8835
X4.6263Y-4.9229
X5.3789Y-4.3981
X5.3842Y-4.3678
X5.3921Y-4.3914
X5.457Y-4.2024
X5.585Y-5.1434
X5.6027Y-5.1591
X5.6066Y-5.1355
X5.6125Y-5.1158
X5.6204Y-5.1729
X5.6244Y-5.1512
X5.6303Y-5.1316
X5.6322Y-5.1099
X5.6381Y-5.0902
X5.6381Y-5.1886
X5.6421Y-5.165
X5.648Y-5.1453
X5.6499Y-5.1256
X5.6558Y-5.106
X5.6558Y-5.2024
X5.6598Y-5.1808
X5.6657Y-5.1611
X5.6677Y-5.1394
X5.6736Y-5.1197
X5.6834Y-5.1749
X5.6854Y-5.1552
X5.6913Y-5.1355
X5.7031Y-4.3589
X5.709Y-5.1493
X6.2031Y-5.1827
X6.2188Y-5.165
X6.2228Y-5.1886
X6.2287Y-5.2083
X6.2326Y-5.1473
X6.2385Y-5.1709
X6.2444Y-5.1906
X6.2484Y-5.1296
X6.2484Y-5.2142
X6.2523Y-5.1532
X6.2562Y-5.2359
X6.2582Y-5.1729
X6.2621Y-5.1119
X6.2641Y-5.1965
X6.2681Y-5.1355
X6.272Y-5.2182
X6.274Y-5.1552
X6.2779Y-5.1788
X6.2858Y-5.2005
X6.2877Y-5.1375
X6.2936Y-5.1611
X6.3015Y-5.1827
X6.3153Y-5.165
X6.8842Y-3.978
X6.8862Y-5.667
X6.9137Y-3.7826
X7.207Y-4.606
X7.207Y-5.1532
X7.2169Y-3.978
X7.2245Y-3.7888
X7.2877Y-5.1552
X7.5102Y-4.9918
X7.5791Y-3.9642
X7.583Y-4.6256
X7.5887Y-3.7868
X7.6558Y-4.5489
X7.8035Y-4.6217
X7.9393Y-3.976
X7.9509Y-3.7868
X8.0909Y-5.6237
X8.2228Y-3.5134
X8.2505Y-4.9601
T2
X5.6775Y-3.7221
X5.6775Y-3.7733
X5.6775Y-3.8245
X5.6775Y-3.8756
X5.7287Y-3.7221
X5.7287Y-3.7733
X5.7287Y-3.8245
X5.7287Y-3.8756
X6.1063Y-4.4644
X6.1063Y-4.5156
X6.1063Y-4.5668
X6.1063Y-4.618
X6.108Y-3.9585
X6.108Y-4.0097
X6.108Y-4.0609
X6.108Y-4.1121
X6.1575Y-4.4644
X6.1575Y-4.5156
X6.1575Y-4.5668
X6.1575Y-4.618
X6.1591Y-3.9585
X6.1591Y-4.0097
X6.1591Y-4.0609
X6.1591Y-4.1121
T3
X3.9751Y-5.8221
X3.998Y-5.7989
X3.9988Y-5.8209
X3.9988Y-5.843
X4.0204Y-5.7764
X4.0216Y-5.8197
X4.0224Y-5.7969
X4.0425Y-5.7544
X4.044Y-5.776
X4.044Y-5.7973
X4.0618Y-5.7319
X4.0641Y-5.7536
X4.0661Y-5.7753
X4.085Y-5.7304
X4.0854Y-5.7528
X4.5492Y-3.7134
X4.5606Y-3.6922
X4.5621Y-3.7316
X4.5724Y-3.7099
X4.5744Y-3.6725
X4.5751Y-3.7516
X4.5791Y-4.0075
X4.5842Y-3.6922
X4.5846Y-3.73
X4.5866Y-3.7701
X4.5909Y-4.0253
X4.5929Y-3.9879
X4.596Y-3.7099
X4.5972Y-3.7493
X4.598Y-3.6735
X4.6027Y-4.0075
X4.6078Y-3.6922
X4.6078Y-3.73
X4.6082Y-3.7682
X4.6145Y-4.0253
X4.6165Y-3.9888
X4.6196Y-3.7099
X4.6207Y-3.6735
X4.6208Y-3.7497
X4.6263Y-4.0075
X4.631Y-3.7304
X4.6314Y-3.6922
X4.6381Y-4.0253
X4.6392Y-3.9888
X4.6432Y-3.6725
X4.6432Y-3.7099
X4.6499Y-4.0075
X4.6551Y-3.6922
X4.6618Y-3.9879
X4.6618Y-4.0253
X4.6736Y-4.0075
X4.6783Y-4.1138
X4.7114Y-5.8221
X4.7342Y-5.7989
X4.735Y-5.8209
X4.735Y-5.843
X4.7484Y-4.9682
X4.7566Y-5.7764
X4.7578Y-5.8197
X4.7586Y-5.7969
X4.77Y-4.4898
X4.77Y-4.6945
X4.7787Y-5.7544
X4.7803Y-5.776
X4.7803Y-5.7973
X4.7976Y-3.9071
X4.7976Y-3.9465
X4.7976Y-3.9859
X4.7976Y-4.0253
X4.7976Y-4.0646
X4.7976Y-4.104
X4.7976Y-4.1434
X4.798Y-5.7319
X4.8003Y-5.7536
X4.8023Y-5.7753
X4.8163Y-4.9908
X4.8212Y-5.7304
X4.8216Y-5.7528
X4.8369Y-3.9071
X4.8369Y-3.9465
X4.8369Y-3.9859
X4.8369Y-4.0253
X4.8369Y-4.0646
X4.8369Y-4.104
X4.8369Y-4.1434
X4.839Y-4.663
X4.8744Y-5.0015
X4.8763Y-3.9071
X4.8763Y-3.9465
X4.8763Y-3.9859
X4.8763Y-4.0253
X4.8763Y-4.0646
X4.8763Y-4.104
X4.8763Y-4.1434
X4.896Y-4.8934
X4.9242Y-5.0015
X5.0031Y-4.0075
X5.0149Y-3.9879
X5.0149Y-4.0253
X5.0192Y-3.6926
X5.0267Y-4.0075
X5.031Y-3.6729
X5.031Y-3.7103
X5.0375Y-3.9888
X5.0385Y-4.0253
X5.0429Y-3.6926
X5.0432Y-3.7308
X5.0503Y-4.0075
X5.0535Y-3.7501
X5.0536Y-3.6739
X5.0547Y-3.7103
X5.0602Y-3.9888
X5.0621Y-4.0253
X5.0661Y-3.7686
X5.0665Y-3.6926
X5.0665Y-3.7304
X5.0719Y-4.4006
X5.074Y-4.0075
X5.0763Y-3.6739
X5.0771Y-3.7497
X5.0783Y-3.7103
X5.0838Y-3.9879
X5.0858Y-4.0253
X5.0877Y-3.7705
X5.0897Y-3.7304
X5.0901Y-3.6926
X5.0976Y-4.0075
X5.0992Y-3.752
X5.0999Y-3.6729
X5.1019Y-3.7103
X5.1121Y-3.7319
X5.1137Y-3.6926
X5.1251Y-3.7138
X5.187Y-5.5413
X5.2555Y-4.7619
X5.2669Y-4.7831
X5.2684Y-4.7438
X5.2787Y-4.7654
X5.2806Y-4.8028
X5.2814Y-4.7237
X5.283Y-4.4682
X5.2905Y-4.7831
X5.2909Y-4.7453
X5.2929Y-4.7052
X5.2948Y-4.4505
X5.2968Y-4.4879
X5.3023Y-4.7654
X5.3035Y-4.726
X5.3043Y-4.8018
X5.3066Y-4.4682
X5.3141Y-4.7453
X5.3141Y-4.7831
X5.3145Y-4.7071
X5.3184Y-4.4505
X5.3204Y-4.4869
X5.3259Y-4.7654
X5.327Y-4.8018
X5.3271Y-4.7256
X5.3303Y-4.4682
X5.3373Y-4.7449
X5.3377Y-4.7831
X5.3421Y-4.4505
X5.3431Y-4.4869
X5.3495Y-4.7654
X5.3495Y-4.8028
X5.3539Y-4.4682
X5.3614Y-4.7831
X5.3657Y-4.4505
X5.3657Y-4.4879
X5.3775Y-4.4682
X5.4275Y-4.0961
X5.4334Y-4.0725
X5.4373Y-4.0469
X5.4452Y-4.1119
X5.4464Y-5.8282
X5.4511Y-4.0882
X5.4551Y-4.0666
X5.461Y-4.043
X5.4629Y-4.1296
X5.4669Y-4.0194
X5.4688Y-4.106
X5.4692Y-5.8049
X5.47Y-5.827
X5.47Y-5.849
X5.4728Y-4.0823
X5.4787Y-4.0587
X5.4846Y-4.039
X5.4905Y-4.0154
X5.4905Y-4.1001
X5.4917Y-5.7825
X5.4929Y-5.8258
X5.4936Y-5.803
X5.4944Y-3.9918
X5.4964Y-4.0764
X5.5023Y-4.0548
X5.5043Y-4.3323
X5.5043Y-4.3717
X5.5043Y-4.4111
X5.5043Y-4.4505
X5.5043Y-4.4898
X5.5043Y-4.5292
X5.5043Y-4.5686
X5.5082Y-4.0312
X5.5121Y-4.0115
X5.5137Y-5.7604
X5.5153Y-5.7821
X5.5153Y-5.8034
X5.5181Y-3.9879
X5.52Y-4.0725
X5.5259Y-3.9662
X5.5259Y-4.0489
X5.5299Y-4.0272
X5.533Y-5.738
X5.5354Y-5.7597
X5.5358Y-4.0036
X5.5373Y-5.7813
X5.5436Y-3.9859
X5.5436Y-4.3323
X5.5436Y-4.3717
X5.5436Y-4.4111
X5.5436Y-4.4505
X5.5436Y-4.4898
X5.5436Y-4.5292
X5.5436Y-4.5686
X5.5476Y-4.0449
X5.5495Y-3.9623
X5.5535Y-4.0213
X5.5555Y-3.9386
X5.5562Y-5.7364
X5.5566Y-5.7589
X5.5614Y-4.0016
X5.5673Y-3.978
X5.5732Y-3.9583
X5.5791Y-3.9347
X5.5791Y-4.0194
X5.583Y-4.3323
X5.583Y-4.3717
X5.583Y-4.4111
X5.583Y-4.4505
X5.583Y-4.4898
X5.583Y-4.5292
X5.583Y-4.5686
X5.585Y-3.9111
X5.585Y-3.9957
X5.5909Y-3.9741
X5.5968Y-3.9505
X5.6047Y-3.9288
X5.6086Y-3.9918
X5.6145Y-3.9682
X5.6204Y-3.9445
X5.6381Y-3.9603
X5.707Y-4.4682
X5.7188Y-4.4505
X5.7188Y-4.4879
X5.7255Y-4.7835
X5.7306Y-4.4682
X5.7373Y-4.7658
X5.7373Y-4.8032
X5.7414Y-4.4869
X5.7425Y-4.4505
X5.7492Y-4.7835
X5.7495Y-4.7453
X5.7543Y-4.4682
X5.7598Y-4.726
X5.7599Y-4.8022
X5.761Y-4.7658
X5.7641Y-4.4869
X5.7661Y-4.4505
X5.7724Y-4.7075
X5.7728Y-4.7457
X5.7728Y-4.7835
X5.7779Y-4.4682
X5.7826Y-4.8022
X5.7834Y-4.7264
X5.7846Y-4.7658
X5.7877Y-4.4879
X5.7897Y-4.4505
X5.794Y-4.7056
X5.796Y-4.7457
X5.7964Y-4.7835
X5.8015Y-4.4682
X5.8055Y-4.7241
X5.8062Y-4.8032
X5.8082Y-4.7658
X5.8184Y-4.7442
X5.82Y-4.7835
X5.8314Y-4.7623
X5.9118Y-5.0272
X6.1791Y-5.8327
X6.2019Y-5.8095
X6.2027Y-5.8316
X6.2027Y-5.8536
X6.2244Y-5.7871
X6.2255Y-5.8304
X6.2263Y-5.8075
X6.2464Y-5.765
X6.248Y-5.7867
X6.248Y-5.8079
X6.2657Y-5.7426
X6.2681Y-5.7642
X6.27Y-5.7859
X6.2889Y-5.741
X6.2893Y-5.7634
X6.568Y-4.6965
X6.5958Y-4.6758
X6.6161Y-4.2539
X6.6181Y-4.2165
X6.6201Y-4.1772
X6.6224Y-4.6808
X6.6398Y-4.2343
X6.6417Y-4.1949
X6.6437Y-4.1634
X6.6437Y-4.2657
X6.6654Y-4.1791
X6.6654Y-4.2165
X6.6654Y-4.248
X6.6716Y-4.6729
X6.6716Y-4.7044
X6.6935Y-4.8793
X6.709Y-4.6847
X6.7147Y-4.6551
X6.7379Y-4.5217
X6.7425Y-4.6414
X6.7582Y-5.8343
X6.7582Y-5.8619
X6.766Y-4.5164
X6.7684Y-5.3245
X6.772Y-4.6276
X6.7779Y-5.8127
X6.7849Y-4.6943
X6.7873Y-4.4975
X6.7976Y-5.0253
X6.7995Y-5.4859
X6.7995Y-5.791
X6.8015Y-5.4386
X6.8096Y-4.5153
X6.8133Y-4.6965
X6.8212Y-5.2123
X6.8271Y-5.0272
X6.8303Y-4.4921
X6.8586Y-5.0272
X6.8704Y-4.8953
X6.8881Y-4.35
X6.8921Y-5.0272
X6.9058Y-5.8008
X6.9108Y-4.8825
X6.916Y-4.8544
X6.9422Y-4.405
X6.9469Y-3.9783
X6.961Y-4.3835
X6.9665Y-3.9587
X6.9705Y-3.9961
X6.9862Y-3.939
X6.9902Y-3.9783
X6.9925Y-5.8068
X6.9964Y-4.3825
X7.0079Y-3.9193
X7.0118Y-3.9587
X7.0181Y-5.8068
X7.0335Y-3.9409
X7.0476Y-5.8068
X7.0744Y-5.7903
X7.1775Y-5.8028
X7.3448Y-5.6729
X7.3744Y-5.6729
X7.4039Y-5.6729
X7.4334Y-5.6729
X7.4492Y-5.8068
X7.7228Y-5.8028
X7.9393Y-5.0026
X7.9669Y-5.0233
X7.9919Y-5.0026
X7.9944Y-5.8008
X8.0669Y-5.1109
X8.0928Y-5.0695
X8.121Y-5.1089
X8.1417Y-5.0892
X8.2543Y-5.1827
X8.2661Y-4.9804
X8.2679Y-5.6834
X8.272Y-5.6473
X8.2745Y-5.2029
X8.2833Y-5.5621
X8.285Y-5.5312
X8.2876Y-5.7093
X8.2884Y-5.5902
X8.2964Y-5.6821
X8.3025Y-5.6399
X8.3171Y-5.0331
X8.3171Y-5.2929
X8.3171Y-5.3221
X8.3171Y-5.3513
T4
X3.8645Y-4.5843
X3.8645Y-4.6631
X3.8645Y-4.856
X3.8645Y-4.9347
X3.8862Y-6.0459
X3.9649Y-6.0459
X4.0436Y-6.0459
X4.1224Y-6.0459
X4.2011Y-6.0459
X4.2799Y-6.0459
X4.6244Y-6.0455
X4.7031Y-6.0455
X4.7818Y-6.0455
X4.8606Y-6.0455
X4.9393Y-6.0455
X5.0181Y-6.0455
X5.3573Y-6.0471
X5.4361Y-6.0471
X5.5148Y-6.0471
X5.5935Y-6.0471
X5.6723Y-6.0471
X5.751Y-6.0471
X6.0866Y-6.0467
X6.1653Y-6.0467
X6.244Y-6.0467
X6.3228Y-6.0467
X6.4015Y-6.0467
X6.4803Y-6.0467
X6.7562Y-3.6414
X6.8291Y-6.0449
X6.835Y-3.6414
X6.9078Y-6.0449
X6.9137Y-3.6414
X7.1007Y-6.0449
X7.1184Y-3.6414
X7.1795Y-6.0449
X7.1972Y-3.6414
X7.2759Y-3.6414
X7.3724Y-6.0449
X7.4511Y-6.0449
X7.4806Y-3.6414
X7.5594Y-3.6414
X7.6381Y-3.6414
X7.644Y-6.0449
X7.7228Y-6.0449
X7.8429Y-3.6414
X7.9157Y-6.0449
X7.9216Y-3.6414
X7.9944Y-6.0449
X8.0003Y-3.6414
X8.1873Y-6.0449
X8.2661Y-6.0449
X8.2759Y-3.7772
X8.2759Y-3.856
X8.2759Y-3.9347
T5
X3.833Y-5.1677
X3.833Y-5.2677
X3.833Y-5.3677
X3.833Y-5.4677
X3.833Y-5.5677
X3.833Y-5.6677
X3.833Y-5.7677
X3.833Y-5.8677
X4.0368Y-4.5571
X4.0368Y-4.6571
X4.0368Y-4.7571
X4.133Y-5.8677
X4.1368Y-4.5571
X4.1368Y-4.6571
X4.1368Y-4.7571
X4.233Y-5.8677
X4.333Y-5.1677
X4.333Y-5.2677
X4.333Y-5.3677
X4.333Y-5.4677
X4.333Y-5.5677
X4.333Y-5.6677
X4.333Y-5.7677
X4.333Y-5.8677
X4.5712Y-5.1677
X4.5712Y-5.2677
X4.5712Y-5.3677
X4.5712Y-5.4677
X4.5712Y-5.5677
X4.5712Y-5.6677
X4.5712Y-5.7677
X4.5712Y-5.8677
X4.8712Y-5.8677
X4.9712Y-5.8677
X5.0712Y-5.1677
X5.0712Y-5.2677
X5.0712Y-5.3677
X5.0712Y-5.4677
X5.0712Y-5.5677
X5.0712Y-5.6677
X5.0712Y-5.7677
X5.0712Y-5.8677
X5.3036Y-5.1677
X5.3036Y-5.2677
X5.3036Y-5.3677
X5.3036Y-5.4677
X5.3036Y-5.5677
X5.3036Y-5.6677
X5.3036Y-5.7677
X5.3036Y-5.8677
X5.6036Y-5.8677
X5.7036Y-5.8677
X5.8036Y-5.1677
X5.8036Y-5.2677
X5.8036Y-5.3677
X5.8036Y-5.4677
X5.8036Y-5.5677
X5.8036Y-5.6677
X5.8036Y-5.7677
X5.8036Y-5.8677
X6.0346Y-5.1673
X6.0346Y-5.2673
X6.0346Y-5.3673
X6.0346Y-5.4673
X6.0346Y-5.5673
X6.0346Y-5.6673
X6.0346Y-5.7673
X6.0346Y-5.8673
X6.3346Y-5.8673
X6.4346Y-5.8673
X6.5346Y-5.1673
X6.5346Y-5.2673
X6.5346Y-5.3673
X6.5346Y-5.4673
X6.5346Y-5.5673
X6.5346Y-5.6673
X6.5346Y-5.7673
X6.5346Y-5.8673
X6.8291Y-4.3127
X6.9291Y-4.3127
X7.0291Y-4.3127
X7.1291Y-4.3127
X7.2291Y-4.3127
X7.3291Y-4.3127
X7.4291Y-4.3127
X7.5291Y-4.3127
X7.6291Y-4.3127
X7.7291Y-4.3127
X7.8291Y-4.3127
X7.9291Y-4.3127
T6
X4.3704Y-3.6631
X4.3704Y-4.8835
X6.4177Y-3.6631
X6.4177Y-4.9032
T7
X3.9334Y-3.6434
X3.9334Y-3.9268
M30
