%TF.GenerationSoftware,KiCad,Pcbnew,9.0.2*%
%TF.CreationDate,2025-08-24T19:37:40+02:00*%
%TF.ProjectId,CM5IO,434d3549-4f2e-46b6-9963-61645f706362,rev?*%
%TF.SameCoordinates,Original*%
%TF.FileFunction,Drillmap*%
%TF.FilePolarity,Positive*%
%FSLAX45Y45*%
G04 Gerber Fmt 4.5, Leading zero omitted, Abs format (unit mm)*
G04 Created by KiCad (PCBNEW 9.0.2) date 2025-08-24 19:37:40*
%MOMM*%
%LPD*%
G01*
G04 APERTURE LIST*
%ADD10C,0.050000*%
%ADD11C,0.200000*%
G04 APERTURE END LIST*
D10*
X9415850Y-9294150D02*
G75*
G02*
X9915850Y-8794150I500000J0D01*
G01*
X9915850Y-8794150D02*
X20915850Y-8794150D01*
X20920850Y-15814900D02*
X9920850Y-15814900D01*
X20915850Y-8794150D02*
G75*
G02*
X21415850Y-9294150I0J-500000D01*
G01*
X21415850Y-9294150D02*
X21420850Y-15314900D01*
X9920850Y-15814900D02*
G75*
G02*
X9420850Y-15314900I0J500000D01*
G01*
X9420850Y-15314900D02*
X9415850Y-9294150D01*
X21420850Y-15314900D02*
G75*
G02*
X20920850Y-15814900I-500000J0D01*
G01*
D11*
X9674127Y-16128884D02*
X9674127Y-15928884D01*
X9674127Y-15928884D02*
X9721746Y-15928884D01*
X9721746Y-15928884D02*
X9750317Y-15938408D01*
X9750317Y-15938408D02*
X9769365Y-15957455D01*
X9769365Y-15957455D02*
X9778889Y-15976503D01*
X9778889Y-15976503D02*
X9788413Y-16014598D01*
X9788413Y-16014598D02*
X9788413Y-16043169D01*
X9788413Y-16043169D02*
X9778889Y-16081265D01*
X9778889Y-16081265D02*
X9769365Y-16100312D01*
X9769365Y-16100312D02*
X9750317Y-16119360D01*
X9750317Y-16119360D02*
X9721746Y-16128884D01*
X9721746Y-16128884D02*
X9674127Y-16128884D01*
X9874127Y-16128884D02*
X9874127Y-15995550D01*
X9874127Y-16033646D02*
X9883651Y-16014598D01*
X9883651Y-16014598D02*
X9893174Y-16005074D01*
X9893174Y-16005074D02*
X9912222Y-15995550D01*
X9912222Y-15995550D02*
X9931270Y-15995550D01*
X9997936Y-16128884D02*
X9997936Y-15995550D01*
X9997936Y-15928884D02*
X9988413Y-15938408D01*
X9988413Y-15938408D02*
X9997936Y-15947931D01*
X9997936Y-15947931D02*
X10007460Y-15938408D01*
X10007460Y-15938408D02*
X9997936Y-15928884D01*
X9997936Y-15928884D02*
X9997936Y-15947931D01*
X10121746Y-16128884D02*
X10102698Y-16119360D01*
X10102698Y-16119360D02*
X10093174Y-16100312D01*
X10093174Y-16100312D02*
X10093174Y-15928884D01*
X10226508Y-16128884D02*
X10207460Y-16119360D01*
X10207460Y-16119360D02*
X10197936Y-16100312D01*
X10197936Y-16100312D02*
X10197936Y-15928884D01*
X10455079Y-16128884D02*
X10455079Y-15928884D01*
X10455079Y-15928884D02*
X10521746Y-16071741D01*
X10521746Y-16071741D02*
X10588413Y-15928884D01*
X10588413Y-15928884D02*
X10588413Y-16128884D01*
X10769365Y-16128884D02*
X10769365Y-16024122D01*
X10769365Y-16024122D02*
X10759841Y-16005074D01*
X10759841Y-16005074D02*
X10740794Y-15995550D01*
X10740794Y-15995550D02*
X10702698Y-15995550D01*
X10702698Y-15995550D02*
X10683651Y-16005074D01*
X10769365Y-16119360D02*
X10750317Y-16128884D01*
X10750317Y-16128884D02*
X10702698Y-16128884D01*
X10702698Y-16128884D02*
X10683651Y-16119360D01*
X10683651Y-16119360D02*
X10674127Y-16100312D01*
X10674127Y-16100312D02*
X10674127Y-16081265D01*
X10674127Y-16081265D02*
X10683651Y-16062217D01*
X10683651Y-16062217D02*
X10702698Y-16052693D01*
X10702698Y-16052693D02*
X10750317Y-16052693D01*
X10750317Y-16052693D02*
X10769365Y-16043169D01*
X10864603Y-15995550D02*
X10864603Y-16195550D01*
X10864603Y-16005074D02*
X10883651Y-15995550D01*
X10883651Y-15995550D02*
X10921746Y-15995550D01*
X10921746Y-15995550D02*
X10940794Y-16005074D01*
X10940794Y-16005074D02*
X10950317Y-16014598D01*
X10950317Y-16014598D02*
X10959841Y-16033646D01*
X10959841Y-16033646D02*
X10959841Y-16090788D01*
X10959841Y-16090788D02*
X10950317Y-16109836D01*
X10950317Y-16109836D02*
X10940794Y-16119360D01*
X10940794Y-16119360D02*
X10921746Y-16128884D01*
X10921746Y-16128884D02*
X10883651Y-16128884D01*
X10883651Y-16128884D02*
X10864603Y-16119360D01*
X11045555Y-16109836D02*
X11055079Y-16119360D01*
X11055079Y-16119360D02*
X11045555Y-16128884D01*
X11045555Y-16128884D02*
X11036032Y-16119360D01*
X11036032Y-16119360D02*
X11045555Y-16109836D01*
X11045555Y-16109836D02*
X11045555Y-16128884D01*
X11045555Y-16005074D02*
X11055079Y-16014598D01*
X11055079Y-16014598D02*
X11045555Y-16024122D01*
X11045555Y-16024122D02*
X11036032Y-16014598D01*
X11036032Y-16014598D02*
X11045555Y-16005074D01*
X11045555Y-16005074D02*
X11045555Y-16024122D01*
M02*
