%TF.GenerationSoftware,KiCad,Pcbnew,9.0.2*%
%TF.CreationDate,2025-08-24T19:37:34+02:00*%
%TF.ProjectId,CM5IO,434d3549-4f2e-46b6-9963-61645f706362,rev?*%
%TF.SameCoordinates,Original*%
%TF.FileFunction,Paste,Bot*%
%TF.FilePolarity,Positive*%
%FSLAX46Y46*%
G04 Gerber Fmt 4.6, Leading zero omitted, Abs format (unit mm)*
G04 Created by KiCad (PCBNEW 9.0.2) date 2025-08-24 19:37:34*
%MOMM*%
%LPD*%
G01*
G04 APERTURE LIST*
G04 Aperture macros list*
%AMRoundRect*
0 Rectangle with rounded corners*
0 $1 Rounding radius*
0 $2 $3 $4 $5 $6 $7 $8 $9 X,Y pos of 4 corners*
0 Add a 4 corners polygon primitive as box body*
4,1,4,$2,$3,$4,$5,$6,$7,$8,$9,$2,$3,0*
0 Add four circle primitives for the rounded corners*
1,1,$1+$1,$2,$3*
1,1,$1+$1,$4,$5*
1,1,$1+$1,$6,$7*
1,1,$1+$1,$8,$9*
0 Add four rect primitives between the rounded corners*
20,1,$1+$1,$2,$3,$4,$5,0*
20,1,$1+$1,$4,$5,$6,$7,0*
20,1,$1+$1,$6,$7,$8,$9,0*
20,1,$1+$1,$8,$9,$2,$3,0*%
G04 Aperture macros list end*
%ADD10RoundRect,0.250000X0.250000X0.475000X-0.250000X0.475000X-0.250000X-0.475000X0.250000X-0.475000X0*%
%ADD11RoundRect,0.250000X0.450000X-0.262500X0.450000X0.262500X-0.450000X0.262500X-0.450000X-0.262500X0*%
%ADD12RoundRect,0.250000X-0.250000X-0.475000X0.250000X-0.475000X0.250000X0.475000X-0.250000X0.475000X0*%
%ADD13RoundRect,0.100000X0.100000X-0.637500X0.100000X0.637500X-0.100000X0.637500X-0.100000X-0.637500X0*%
%ADD14RoundRect,0.250000X-0.450000X0.262500X-0.450000X-0.262500X0.450000X-0.262500X0.450000X0.262500X0*%
%ADD15RoundRect,0.075000X0.075000X-0.650000X0.075000X0.650000X-0.075000X0.650000X-0.075000X-0.650000X0*%
%ADD16RoundRect,0.250000X-0.262500X-0.450000X0.262500X-0.450000X0.262500X0.450000X-0.262500X0.450000X0*%
%ADD17RoundRect,0.075000X-0.075000X0.650000X-0.075000X-0.650000X0.075000X-0.650000X0.075000X0.650000X0*%
%ADD18R,0.400000X1.200000*%
%ADD19RoundRect,0.250000X0.625000X-0.312500X0.625000X0.312500X-0.625000X0.312500X-0.625000X-0.312500X0*%
%ADD20RoundRect,0.250000X0.475000X-0.250000X0.475000X0.250000X-0.475000X0.250000X-0.475000X-0.250000X0*%
%ADD21RoundRect,0.250001X0.899999X1.449999X-0.899999X1.449999X-0.899999X-1.449999X0.899999X-1.449999X0*%
%ADD22RoundRect,0.250001X-0.899999X-1.449999X0.899999X-1.449999X0.899999X1.449999X-0.899999X1.449999X0*%
%ADD23RoundRect,0.250001X-1.449999X0.899999X-1.449999X-0.899999X1.449999X-0.899999X1.449999X0.899999X0*%
%ADD24RoundRect,0.075000X-0.650000X-0.075000X0.650000X-0.075000X0.650000X0.075000X-0.650000X0.075000X0*%
G04 APERTURE END LIST*
D10*
%TO.C,C114*%
X125950000Y-112640000D03*
X124050000Y-112640000D03*
%TD*%
%TO.C,C74*%
X125950000Y-108640000D03*
X124050000Y-108640000D03*
%TD*%
%TO.C,C115*%
X125950000Y-114650000D03*
X124050000Y-114650000D03*
%TD*%
%TO.C,C76*%
X125950000Y-110620000D03*
X124050000Y-110620000D03*
%TD*%
D11*
%TO.C,R82*%
X205708500Y-143916500D03*
X205708500Y-145741500D03*
%TD*%
D12*
%TO.C,C37*%
X202000000Y-106200000D03*
X200100000Y-106200000D03*
%TD*%
D13*
%TO.C,U67*%
X177208500Y-116216500D03*
X176558500Y-116216500D03*
X175908500Y-116216500D03*
X175258500Y-116216500D03*
X174608500Y-116216500D03*
X173958500Y-116216500D03*
X173308500Y-116216500D03*
X172658500Y-116216500D03*
X172008500Y-116216500D03*
X171358500Y-116216500D03*
X170708500Y-116216500D03*
X170058500Y-116216500D03*
X169408500Y-116216500D03*
X168758500Y-116216500D03*
X168758500Y-121941500D03*
X169408500Y-121941500D03*
X170058500Y-121941500D03*
X170708500Y-121941500D03*
X171358500Y-121941500D03*
X172008500Y-121941500D03*
X172658500Y-121941500D03*
X173308500Y-121941500D03*
X173958500Y-121941500D03*
X174608500Y-121941500D03*
X175258500Y-121941500D03*
X175908500Y-121941500D03*
X176558500Y-121941500D03*
X177208500Y-121941500D03*
%TD*%
D12*
%TO.C,C149*%
X119300000Y-105200000D03*
X117400000Y-105200000D03*
%TD*%
D11*
%TO.C,R81*%
X183058500Y-118016500D03*
X183058500Y-119841500D03*
%TD*%
D14*
%TO.C,R80*%
X183108500Y-127879000D03*
X183108500Y-129704000D03*
%TD*%
D10*
%TO.C,C147*%
X113950000Y-107200000D03*
X115850000Y-107200000D03*
%TD*%
D14*
%TO.C,R67*%
X185108500Y-129691500D03*
X185108500Y-127866500D03*
%TD*%
D10*
%TO.C,C150*%
X113950000Y-105200000D03*
X115850000Y-105200000D03*
%TD*%
D12*
%TO.C,C158*%
X149450000Y-118040000D03*
X147550000Y-118040000D03*
%TD*%
%TO.C,C33*%
X174250000Y-106100000D03*
X172350000Y-106100000D03*
%TD*%
D15*
%TO.C,U23*%
X174608500Y-99491500D03*
X174108500Y-99491500D03*
X173608500Y-99491500D03*
X173108500Y-99491500D03*
X172608500Y-99491500D03*
X172608500Y-103891500D03*
X173108500Y-103891500D03*
X173608500Y-103891500D03*
X174108500Y-103891500D03*
X174608500Y-103891500D03*
%TD*%
D10*
%TO.C,C26*%
X161958500Y-135991500D03*
X163858500Y-135991500D03*
%TD*%
D12*
%TO.C,C148*%
X119300000Y-107200000D03*
X117400000Y-107200000D03*
%TD*%
D14*
%TO.C,R77*%
X192708500Y-116504000D03*
X192708500Y-114679000D03*
%TD*%
%TO.C,R68*%
X196858500Y-116504000D03*
X196858500Y-114679000D03*
%TD*%
D12*
%TO.C,C36*%
X192850000Y-106250000D03*
X190950000Y-106250000D03*
%TD*%
%TO.C,C32*%
X183758500Y-106300000D03*
X181858500Y-106300000D03*
%TD*%
D16*
%TO.C,R79*%
X170733500Y-144391500D03*
X168908500Y-144391500D03*
%TD*%
D14*
%TO.C,R78*%
X190658500Y-116504000D03*
X190658500Y-114679000D03*
%TD*%
D10*
%TO.C,C156*%
X144150000Y-118050000D03*
X146050000Y-118050000D03*
%TD*%
D17*
%TO.C,U22*%
X99308500Y-133691500D03*
X99808500Y-133691500D03*
X100308500Y-133691500D03*
X100808500Y-133691500D03*
X101308500Y-133691500D03*
X101308500Y-129291500D03*
X100808500Y-129291500D03*
X100308500Y-129291500D03*
X99808500Y-129291500D03*
X99308500Y-129291500D03*
%TD*%
D18*
%TO.C,U53*%
X168853500Y-130691500D03*
X169488500Y-130691500D03*
X170123500Y-130691500D03*
X170758500Y-130691500D03*
X171393500Y-130691500D03*
X172028500Y-130691500D03*
X172663500Y-130691500D03*
X173298500Y-130691500D03*
X173933500Y-130691500D03*
X174568500Y-130691500D03*
X175203500Y-130691500D03*
X175838500Y-130691500D03*
X176473500Y-130691500D03*
X177108500Y-130691500D03*
X177108500Y-125491500D03*
X176473500Y-125491500D03*
X175838500Y-125491500D03*
X175203500Y-125491500D03*
X174568500Y-125491500D03*
X173933500Y-125491500D03*
X173298500Y-125491500D03*
X172663500Y-125491500D03*
X172028500Y-125491500D03*
X171393500Y-125491500D03*
X170758500Y-125491500D03*
X170123500Y-125491500D03*
X169488500Y-125491500D03*
X168853500Y-125491500D03*
%TD*%
D15*
%TO.C,U24*%
X193008500Y-99441500D03*
X192508500Y-99441500D03*
X192008500Y-99441500D03*
X191508500Y-99441500D03*
X191008500Y-99441500D03*
X191008500Y-103841500D03*
X191508500Y-103841500D03*
X192008500Y-103841500D03*
X192508500Y-103841500D03*
X193008500Y-103841500D03*
%TD*%
D12*
%TO.C,C28*%
X138858500Y-135991500D03*
X136958500Y-135991500D03*
%TD*%
D17*
%TO.C,U28*%
X136608500Y-133641500D03*
X137108500Y-133641500D03*
X137608500Y-133641500D03*
X138108500Y-133641500D03*
X138608500Y-133641500D03*
X138608500Y-129241500D03*
X138108500Y-129241500D03*
X137608500Y-129241500D03*
X137108500Y-129241500D03*
X136608500Y-129241500D03*
%TD*%
D19*
%TO.C,R36*%
X159708500Y-141179000D03*
X159708500Y-144104000D03*
%TD*%
D17*
%TO.C,U18*%
X162308500Y-133591500D03*
X162808500Y-133591500D03*
X163308500Y-133591500D03*
X163808500Y-133591500D03*
X164308500Y-133591500D03*
X164308500Y-129191500D03*
X163808500Y-129191500D03*
X163308500Y-129191500D03*
X162808500Y-129191500D03*
X162308500Y-129191500D03*
%TD*%
D15*
%TO.C,U17*%
X202158500Y-99441500D03*
X201658500Y-99441500D03*
X201158500Y-99441500D03*
X200658500Y-99441500D03*
X200158500Y-99441500D03*
X200158500Y-103841500D03*
X200658500Y-103841500D03*
X201158500Y-103841500D03*
X201658500Y-103841500D03*
X202158500Y-103841500D03*
%TD*%
D20*
%TO.C,C24*%
X122758500Y-129091500D03*
X122758500Y-130991500D03*
%TD*%
D10*
%TO.C,C22*%
X99058500Y-135941500D03*
X100958500Y-135941500D03*
%TD*%
D15*
%TO.C,U30*%
X183808500Y-99441500D03*
X183308500Y-99441500D03*
X182808500Y-99441500D03*
X182308500Y-99441500D03*
X181808500Y-99441500D03*
X181808500Y-103841500D03*
X182308500Y-103841500D03*
X182808500Y-103841500D03*
X183308500Y-103841500D03*
X183808500Y-103841500D03*
%TD*%
D21*
%TO.C,L6*%
X120008500Y-93491500D03*
X125708500Y-93491500D03*
%TD*%
D17*
%TO.C,U15*%
X125058500Y-133691500D03*
X125558500Y-133691500D03*
X126058500Y-133691500D03*
X126558500Y-133691500D03*
X127058500Y-133691500D03*
X127058500Y-129291500D03*
X126558500Y-129291500D03*
X126058500Y-129291500D03*
X125558500Y-129291500D03*
X125058500Y-129291500D03*
%TD*%
D19*
%TO.C,R40*%
X103708500Y-134141500D03*
X103708500Y-137066500D03*
%TD*%
D22*
%TO.C,L7*%
X143658500Y-121791500D03*
X137958500Y-121791500D03*
%TD*%
D19*
%TO.C,R46*%
X141078500Y-141151500D03*
X141078500Y-144076500D03*
%TD*%
D23*
%TO.C,L3*%
X135908500Y-108491500D03*
X135908500Y-102791500D03*
%TD*%
D19*
%TO.C,R33*%
X122468500Y-134141500D03*
X122468500Y-137066500D03*
%TD*%
D14*
%TO.C,R76*%
X194758500Y-116504000D03*
X194758500Y-114679000D03*
%TD*%
D10*
%TO.C,C157*%
X144150000Y-116050000D03*
X146050000Y-116050000D03*
%TD*%
D12*
%TO.C,C159*%
X149450000Y-116040000D03*
X147550000Y-116040000D03*
%TD*%
D24*
%TO.C,U21*%
X101900000Y-110000000D03*
X101900000Y-109500000D03*
X101900000Y-109000000D03*
X101900000Y-108500000D03*
X101900000Y-108000000D03*
X97500000Y-108000000D03*
X97500000Y-108500000D03*
X97500000Y-109000000D03*
X97500000Y-109500000D03*
X97500000Y-110000000D03*
%TD*%
M02*
