%TF.GenerationSoftware,KiCad,Pcbnew,9.0.2*%
%TF.CreationDate,2025-08-24T19:37:40+02:00*%
%TF.ProjectId,CM5IO,434d3549-4f2e-46b6-9963-61645f706362,rev?*%
%TF.SameCoordinates,Original*%
%TF.FileFunction,Drillmap*%
%TF.FilePolarity,Positive*%
%FSLAX45Y45*%
G04 Gerber Fmt 4.5, Leading zero omitted, Abs format (unit mm)*
G04 Created by KiCad (PCBNEW 9.0.2) date 2025-08-24 19:37:40*
%MOMM*%
%LPD*%
G01*
G04 APERTURE LIST*
%ADD10C,0.050000*%
%ADD11C,0.200000*%
%ADD12C,0.100000*%
%ADD13C,0.220000*%
%ADD14C,0.450000*%
G04 APERTURE END LIST*
D10*
X9415850Y-9294150D02*
G75*
G02*
X9915850Y-8794150I500000J0D01*
G01*
X9915850Y-8794150D02*
X20915850Y-8794150D01*
X20920850Y-15814900D02*
X9920850Y-15814900D01*
X20915850Y-8794150D02*
G75*
G02*
X21415850Y-9294150I0J-500000D01*
G01*
X21415850Y-9294150D02*
X21420850Y-15314900D01*
X9920850Y-15814900D02*
G75*
G02*
X9420850Y-15314900I0J500000D01*
G01*
X9420850Y-15314900D02*
X9415850Y-9294150D01*
X21420850Y-15314900D02*
G75*
G02*
X20920850Y-15814900I-500000J0D01*
G01*
D11*
D12*
X11035850Y-11474150D02*
X11055850Y-11494150D01*
X11055850Y-11474150D02*
X11035850Y-11494150D01*
X11085850Y-11499150D02*
X11105850Y-11519150D01*
X11105850Y-11499150D02*
X11085850Y-11519150D01*
X11338350Y-11869150D02*
X11358350Y-11889150D01*
X11358350Y-11869150D02*
X11338350Y-11889150D01*
X11388350Y-11894150D02*
X11408350Y-11914150D01*
X11408350Y-11894150D02*
X11388350Y-11914150D01*
X11500850Y-12294150D02*
X11520850Y-12314150D01*
X11520850Y-12294150D02*
X11500850Y-12314150D01*
X11500850Y-12394150D02*
X11520850Y-12414150D01*
X11520850Y-12394150D02*
X11500850Y-12414150D01*
X11500850Y-12494150D02*
X11520850Y-12514150D01*
X11520850Y-12494150D02*
X11500850Y-12514150D01*
X11530850Y-12244150D02*
X11550850Y-12264150D01*
X11550850Y-12244150D02*
X11530850Y-12264150D01*
X11530850Y-12344150D02*
X11550850Y-12364150D01*
X11550850Y-12344150D02*
X11530850Y-12364150D01*
X11530850Y-12444150D02*
X11550850Y-12464150D01*
X11550850Y-12444150D02*
X11530850Y-12464150D01*
X11530850Y-12544150D02*
X11550850Y-12564150D01*
X11550850Y-12544150D02*
X11530850Y-12564150D01*
X11560850Y-12294150D02*
X11580850Y-12314150D01*
X11580850Y-12294150D02*
X11560850Y-12314150D01*
X11560850Y-12394150D02*
X11580850Y-12414150D01*
X11580850Y-12394150D02*
X11560850Y-12414150D01*
X11560850Y-12494150D02*
X11580850Y-12514150D01*
X11580850Y-12494150D02*
X11560850Y-12514150D01*
X11590850Y-12244150D02*
X11610850Y-12264150D01*
X11610850Y-12244150D02*
X11590850Y-12264150D01*
X11590850Y-12344150D02*
X11610850Y-12364150D01*
X11610850Y-12344150D02*
X11590850Y-12364150D01*
X11590850Y-12444150D02*
X11610850Y-12464150D01*
X11610850Y-12444150D02*
X11590850Y-12464150D01*
X11590850Y-12544150D02*
X11610850Y-12564150D01*
X11610850Y-12544150D02*
X11590850Y-12564150D01*
X11620850Y-12294150D02*
X11640850Y-12314150D01*
X11640850Y-12294150D02*
X11620850Y-12314150D01*
X11620850Y-12394150D02*
X11640850Y-12414150D01*
X11640850Y-12394150D02*
X11620850Y-12414150D01*
X11620850Y-12494150D02*
X11640850Y-12514150D01*
X11640850Y-12494150D02*
X11620850Y-12514150D01*
X11650850Y-12244150D02*
X11670850Y-12264150D01*
X11670850Y-12244150D02*
X11650850Y-12264150D01*
X11650850Y-12344150D02*
X11670850Y-12364150D01*
X11670850Y-12344150D02*
X11650850Y-12364150D01*
X11650850Y-12444150D02*
X11670850Y-12464150D01*
X11670850Y-12444150D02*
X11650850Y-12464150D01*
X11650850Y-12544150D02*
X11670850Y-12564150D01*
X11670850Y-12544150D02*
X11650850Y-12564150D01*
X11680850Y-12294150D02*
X11700850Y-12314150D01*
X11700850Y-12294150D02*
X11680850Y-12314150D01*
X11680850Y-12394150D02*
X11700850Y-12414150D01*
X11700850Y-12394150D02*
X11680850Y-12414150D01*
X11680850Y-12494150D02*
X11700850Y-12514150D01*
X11700850Y-12494150D02*
X11680850Y-12514150D01*
X11710850Y-12244150D02*
X11730850Y-12264150D01*
X11730850Y-12244150D02*
X11710850Y-12264150D01*
X11710850Y-12344150D02*
X11730850Y-12364150D01*
X11730850Y-12344150D02*
X11710850Y-12364150D01*
X11710850Y-12444150D02*
X11730850Y-12464150D01*
X11730850Y-12444150D02*
X11710850Y-12464150D01*
X11710850Y-12544150D02*
X11730850Y-12564150D01*
X11730850Y-12544150D02*
X11710850Y-12564150D01*
X11740850Y-12294150D02*
X11760850Y-12314150D01*
X11760850Y-12294150D02*
X11740850Y-12314150D01*
X11740850Y-12394150D02*
X11760850Y-12414150D01*
X11760850Y-12394150D02*
X11740850Y-12414150D01*
X11740850Y-12494150D02*
X11760850Y-12514150D01*
X11760850Y-12494150D02*
X11740850Y-12514150D01*
X13652356Y-11161150D02*
X13672356Y-11181150D01*
X13672356Y-11161150D02*
X13652356Y-11181150D01*
X13665850Y-11084150D02*
X13685850Y-11104150D01*
X13685850Y-11084150D02*
X13665850Y-11104150D01*
X13685850Y-11144150D02*
X13705850Y-11164150D01*
X13705850Y-11144150D02*
X13685850Y-11164150D01*
X13850850Y-10664150D02*
X13870850Y-10684150D01*
X13870850Y-10664150D02*
X13850850Y-10684150D01*
X14175850Y-13054150D02*
X14195850Y-13074150D01*
X14195850Y-13054150D02*
X14175850Y-13074150D01*
X14220850Y-13094150D02*
X14240850Y-13114150D01*
X14240850Y-13094150D02*
X14220850Y-13114150D01*
X14230850Y-13034150D02*
X14250850Y-13054150D01*
X14250850Y-13034150D02*
X14230850Y-13054150D01*
X14245850Y-12984150D02*
X14265850Y-13004150D01*
X14265850Y-12984150D02*
X14245850Y-13004150D01*
X14265850Y-13129150D02*
X14285850Y-13149150D01*
X14285850Y-13129150D02*
X14265850Y-13149150D01*
X14275850Y-13074150D02*
X14295850Y-13094150D01*
X14295850Y-13074150D02*
X14275850Y-13094150D01*
X14290850Y-13024150D02*
X14310850Y-13044150D01*
X14310850Y-13024150D02*
X14290850Y-13044150D01*
X14295850Y-12969150D02*
X14315850Y-12989150D01*
X14315850Y-12969150D02*
X14295850Y-12989150D01*
X14310850Y-12919150D02*
X14330850Y-12939150D01*
X14330850Y-12919150D02*
X14310850Y-12939150D01*
X14310850Y-13169150D02*
X14330850Y-13189150D01*
X14330850Y-13169150D02*
X14310850Y-13189150D01*
X14320850Y-13109150D02*
X14340850Y-13129150D01*
X14340850Y-13109150D02*
X14320850Y-13129150D01*
X14335850Y-13059150D02*
X14355850Y-13079150D01*
X14355850Y-13059150D02*
X14335850Y-13079150D01*
X14340850Y-13009150D02*
X14360850Y-13029150D01*
X14360850Y-13009150D02*
X14340850Y-13029150D01*
X14355850Y-12959150D02*
X14375850Y-12979150D01*
X14375850Y-12959150D02*
X14355850Y-12979150D01*
X14355850Y-13204150D02*
X14375850Y-13224150D01*
X14375850Y-13204150D02*
X14355850Y-13224150D01*
X14365850Y-13149150D02*
X14385850Y-13169150D01*
X14385850Y-13149150D02*
X14365850Y-13169150D01*
X14380850Y-13099150D02*
X14400850Y-13119150D01*
X14400850Y-13099150D02*
X14380850Y-13119150D01*
X14385850Y-13044150D02*
X14405850Y-13064150D01*
X14405850Y-13044150D02*
X14385850Y-13064150D01*
X14400850Y-12994150D02*
X14420850Y-13014150D01*
X14420850Y-12994150D02*
X14400850Y-13014150D01*
X14425850Y-13134150D02*
X14445850Y-13154150D01*
X14445850Y-13134150D02*
X14425850Y-13154150D01*
X14430850Y-13084150D02*
X14450850Y-13104150D01*
X14450850Y-13084150D02*
X14430850Y-13104150D01*
X14445850Y-13034150D02*
X14465850Y-13054150D01*
X14465850Y-13034150D02*
X14445850Y-13054150D01*
X14475850Y-11061650D02*
X14495850Y-11081650D01*
X14495850Y-11061650D02*
X14475850Y-11081650D01*
X14490850Y-13069150D02*
X14510850Y-13089150D01*
X14510850Y-13069150D02*
X14490850Y-13089150D01*
X15745850Y-13154150D02*
X15765850Y-13174150D01*
X15765850Y-13154150D02*
X15745850Y-13174150D01*
X15785850Y-13109150D02*
X15805850Y-13129150D01*
X15805850Y-13109150D02*
X15785850Y-13129150D01*
X15795850Y-13169150D02*
X15815850Y-13189150D01*
X15815850Y-13169150D02*
X15795850Y-13189150D01*
X15810850Y-13219150D02*
X15830850Y-13239150D01*
X15830850Y-13219150D02*
X15810850Y-13239150D01*
X15820850Y-13064150D02*
X15840850Y-13084150D01*
X15840850Y-13064150D02*
X15820850Y-13084150D01*
X15835850Y-13124150D02*
X15855850Y-13144150D01*
X15855850Y-13124150D02*
X15835850Y-13144150D01*
X15850850Y-13174150D02*
X15870850Y-13194150D01*
X15870850Y-13174150D02*
X15850850Y-13194150D01*
X15860850Y-13019150D02*
X15880850Y-13039150D01*
X15880850Y-13019150D02*
X15860850Y-13039150D01*
X15860850Y-13234150D02*
X15880850Y-13254150D01*
X15880850Y-13234150D02*
X15860850Y-13254150D01*
X15870850Y-13079150D02*
X15890850Y-13099150D01*
X15890850Y-13079150D02*
X15870850Y-13099150D01*
X15880850Y-13289150D02*
X15900850Y-13309150D01*
X15900850Y-13289150D02*
X15880850Y-13309150D01*
X15885850Y-13129150D02*
X15905850Y-13149150D01*
X15905850Y-13129150D02*
X15885850Y-13149150D01*
X15895850Y-12974150D02*
X15915850Y-12994150D01*
X15915850Y-12974150D02*
X15895850Y-12994150D01*
X15900850Y-13189150D02*
X15920850Y-13209150D01*
X15920850Y-13189150D02*
X15900850Y-13209150D01*
X15910850Y-13034150D02*
X15930850Y-13054150D01*
X15930850Y-13034150D02*
X15910850Y-13054150D01*
X15920850Y-13244150D02*
X15940850Y-13264150D01*
X15940850Y-13244150D02*
X15920850Y-13264150D01*
X15925850Y-13084150D02*
X15945850Y-13104150D01*
X15945850Y-13084150D02*
X15925850Y-13104150D01*
X15935850Y-13144150D02*
X15955850Y-13164150D01*
X15955850Y-13144150D02*
X15935850Y-13164150D01*
X15955850Y-13199150D02*
X15975850Y-13219150D01*
X15975850Y-13199150D02*
X15955850Y-13219150D01*
X15960850Y-13039150D02*
X15980850Y-13059150D01*
X15980850Y-13039150D02*
X15960850Y-13059150D01*
X15975850Y-13099150D02*
X15995850Y-13119150D01*
X15995850Y-13099150D02*
X15975850Y-13119150D01*
X15995850Y-13154150D02*
X16015850Y-13174150D01*
X16015850Y-13154150D02*
X15995850Y-13174150D01*
X16030850Y-13109150D02*
X16050850Y-13129150D01*
X16050850Y-13109150D02*
X16030850Y-13129150D01*
X17475850Y-10094150D02*
X17495850Y-10114150D01*
X17495850Y-10094150D02*
X17475850Y-10114150D01*
X17480850Y-14384150D02*
X17500850Y-14404150D01*
X17500850Y-14384150D02*
X17480850Y-14404150D01*
X17550850Y-9597900D02*
X17570850Y-9617900D01*
X17570850Y-9597900D02*
X17550850Y-9617900D01*
X18295850Y-11689150D02*
X18315850Y-11709150D01*
X18315850Y-11689150D02*
X18295850Y-11709150D01*
X18295850Y-13079150D02*
X18315850Y-13099150D01*
X18315850Y-13079150D02*
X18295850Y-13099150D01*
X18320850Y-10094150D02*
X18340850Y-10114150D01*
X18340850Y-10094150D02*
X18320850Y-10114150D01*
X18340225Y-9613525D02*
X18360225Y-9633525D01*
X18360225Y-9613525D02*
X18340225Y-9633525D01*
X18500850Y-13084150D02*
X18520850Y-13104150D01*
X18520850Y-13084150D02*
X18500850Y-13104150D01*
X19065850Y-12669150D02*
X19085850Y-12689150D01*
X19085850Y-12669150D02*
X19065850Y-12689150D01*
X19240850Y-10059150D02*
X19260850Y-10079150D01*
X19260850Y-10059150D02*
X19240850Y-10079150D01*
X19250850Y-11739150D02*
X19270850Y-11759150D01*
X19270850Y-11739150D02*
X19250850Y-11759150D01*
X19265225Y-9608525D02*
X19285225Y-9628525D01*
X19285225Y-9608525D02*
X19265225Y-9628525D01*
X19435850Y-11544150D02*
X19455850Y-11564150D01*
X19455850Y-11544150D02*
X19435850Y-11564150D01*
X19810850Y-11729150D02*
X19830850Y-11749150D01*
X19830850Y-11729150D02*
X19810850Y-11749150D01*
X20155850Y-10089150D02*
X20175850Y-10109150D01*
X20175850Y-10089150D02*
X20155850Y-10109150D01*
X20185225Y-9608525D02*
X20205225Y-9628525D01*
X20205225Y-9608525D02*
X20185225Y-9628525D01*
X20540850Y-14274150D02*
X20560850Y-14294150D01*
X20560850Y-14274150D02*
X20540850Y-14294150D01*
X20875850Y-8914150D02*
X20895850Y-8934150D01*
X20895850Y-8914150D02*
X20875850Y-8934150D01*
X20946272Y-12588728D02*
X20966272Y-12608728D01*
X20966272Y-12588728D02*
X20946272Y-12608728D01*
X14430850Y-9454150D02*
G75*
G02*
X14410850Y-9454150I-10000J0D01*
G01*
X14410850Y-9454150D02*
G75*
G02*
X14430850Y-9454150I10000J0D01*
G01*
X14430850Y-9584150D02*
G75*
G02*
X14410850Y-9584150I-10000J0D01*
G01*
X14410850Y-9584150D02*
G75*
G02*
X14430850Y-9584150I10000J0D01*
G01*
X14430850Y-9714150D02*
G75*
G02*
X14410850Y-9714150I-10000J0D01*
G01*
X14410850Y-9714150D02*
G75*
G02*
X14430850Y-9714150I10000J0D01*
G01*
X14430850Y-9844150D02*
G75*
G02*
X14410850Y-9844150I-10000J0D01*
G01*
X14410850Y-9844150D02*
G75*
G02*
X14430850Y-9844150I10000J0D01*
G01*
X14560850Y-9454150D02*
G75*
G02*
X14540850Y-9454150I-10000J0D01*
G01*
X14540850Y-9454150D02*
G75*
G02*
X14560850Y-9454150I10000J0D01*
G01*
X14560850Y-9584150D02*
G75*
G02*
X14540850Y-9584150I-10000J0D01*
G01*
X14540850Y-9584150D02*
G75*
G02*
X14560850Y-9584150I10000J0D01*
G01*
X14560850Y-9714150D02*
G75*
G02*
X14540850Y-9714150I-10000J0D01*
G01*
X14540850Y-9714150D02*
G75*
G02*
X14560850Y-9714150I10000J0D01*
G01*
X14560850Y-9844150D02*
G75*
G02*
X14540850Y-9844150I-10000J0D01*
G01*
X14540850Y-9844150D02*
G75*
G02*
X14560850Y-9844150I10000J0D01*
G01*
X15520100Y-11339650D02*
G75*
G02*
X15500100Y-11339650I-10000J0D01*
G01*
X15500100Y-11339650D02*
G75*
G02*
X15520100Y-11339650I10000J0D01*
G01*
X15520100Y-11469650D02*
G75*
G02*
X15500100Y-11469650I-10000J0D01*
G01*
X15500100Y-11469650D02*
G75*
G02*
X15520100Y-11469650I10000J0D01*
G01*
X15520100Y-11599650D02*
G75*
G02*
X15500100Y-11599650I-10000J0D01*
G01*
X15500100Y-11599650D02*
G75*
G02*
X15520100Y-11599650I10000J0D01*
G01*
X15520100Y-11729650D02*
G75*
G02*
X15500100Y-11729650I-10000J0D01*
G01*
X15500100Y-11729650D02*
G75*
G02*
X15520100Y-11729650I10000J0D01*
G01*
X15524225Y-10054650D02*
G75*
G02*
X15504225Y-10054650I-10000J0D01*
G01*
X15504225Y-10054650D02*
G75*
G02*
X15524225Y-10054650I10000J0D01*
G01*
X15524225Y-10184650D02*
G75*
G02*
X15504225Y-10184650I-10000J0D01*
G01*
X15504225Y-10184650D02*
G75*
G02*
X15524225Y-10184650I10000J0D01*
G01*
X15524225Y-10314650D02*
G75*
G02*
X15504225Y-10314650I-10000J0D01*
G01*
X15504225Y-10314650D02*
G75*
G02*
X15524225Y-10314650I10000J0D01*
G01*
X15524225Y-10444650D02*
G75*
G02*
X15504225Y-10444650I-10000J0D01*
G01*
X15504225Y-10444650D02*
G75*
G02*
X15524225Y-10444650I10000J0D01*
G01*
X15650100Y-11339650D02*
G75*
G02*
X15630100Y-11339650I-10000J0D01*
G01*
X15630100Y-11339650D02*
G75*
G02*
X15650100Y-11339650I10000J0D01*
G01*
X15650100Y-11469650D02*
G75*
G02*
X15630100Y-11469650I-10000J0D01*
G01*
X15630100Y-11469650D02*
G75*
G02*
X15650100Y-11469650I10000J0D01*
G01*
X15650100Y-11599650D02*
G75*
G02*
X15630100Y-11599650I-10000J0D01*
G01*
X15630100Y-11599650D02*
G75*
G02*
X15650100Y-11599650I10000J0D01*
G01*
X15650100Y-11729650D02*
G75*
G02*
X15630100Y-11729650I-10000J0D01*
G01*
X15630100Y-11729650D02*
G75*
G02*
X15650100Y-11729650I10000J0D01*
G01*
X15654225Y-10054650D02*
G75*
G02*
X15634225Y-10054650I-10000J0D01*
G01*
X15634225Y-10054650D02*
G75*
G02*
X15654225Y-10054650I10000J0D01*
G01*
X15654225Y-10184650D02*
G75*
G02*
X15634225Y-10184650I-10000J0D01*
G01*
X15634225Y-10184650D02*
G75*
G02*
X15654225Y-10184650I10000J0D01*
G01*
X15654225Y-10314650D02*
G75*
G02*
X15634225Y-10314650I-10000J0D01*
G01*
X15634225Y-10314650D02*
G75*
G02*
X15654225Y-10314650I10000J0D01*
G01*
X15654225Y-10444650D02*
G75*
G02*
X15634225Y-10444650I-10000J0D01*
G01*
X15634225Y-10444650D02*
G75*
G02*
X15654225Y-10444650I10000J0D01*
G01*
X10096850Y-14773150D02*
X10096850Y-14803150D01*
X10081850Y-14788150D02*
X10111850Y-14788150D01*
X10154850Y-14714150D02*
X10154850Y-14744150D01*
X10139850Y-14729150D02*
X10169850Y-14729150D01*
X10156850Y-14770150D02*
X10156850Y-14800150D01*
X10141850Y-14785150D02*
X10171850Y-14785150D01*
X10156850Y-14826150D02*
X10156850Y-14856150D01*
X10141850Y-14841150D02*
X10171850Y-14841150D01*
X10211850Y-14657150D02*
X10211850Y-14687150D01*
X10196850Y-14672150D02*
X10226850Y-14672150D01*
X10214850Y-14767150D02*
X10214850Y-14797150D01*
X10199850Y-14782150D02*
X10229850Y-14782150D01*
X10216850Y-14709150D02*
X10216850Y-14739150D01*
X10201850Y-14724150D02*
X10231850Y-14724150D01*
X10267850Y-14601150D02*
X10267850Y-14631150D01*
X10252850Y-14616150D02*
X10282850Y-14616150D01*
X10271850Y-14656150D02*
X10271850Y-14686150D01*
X10256850Y-14671150D02*
X10286850Y-14671150D01*
X10271850Y-14710150D02*
X10271850Y-14740150D01*
X10256850Y-14725150D02*
X10286850Y-14725150D01*
X10316850Y-14544150D02*
X10316850Y-14574150D01*
X10301850Y-14559150D02*
X10331850Y-14559150D01*
X10322850Y-14599150D02*
X10322850Y-14629150D01*
X10307850Y-14614150D02*
X10337850Y-14614150D01*
X10327850Y-14654150D02*
X10327850Y-14684150D01*
X10312850Y-14669150D02*
X10342850Y-14669150D01*
X10375850Y-14540150D02*
X10375850Y-14570150D01*
X10360850Y-14555150D02*
X10390850Y-14555150D01*
X10376850Y-14597150D02*
X10376850Y-14627150D01*
X10361850Y-14612150D02*
X10391850Y-14612150D01*
X11554850Y-9417150D02*
X11554850Y-9447150D01*
X11539850Y-9432150D02*
X11569850Y-9432150D01*
X11583850Y-9363150D02*
X11583850Y-9393150D01*
X11568850Y-9378150D02*
X11598850Y-9378150D01*
X11587850Y-9463150D02*
X11587850Y-9493150D01*
X11572850Y-9478150D02*
X11602850Y-9478150D01*
X11613850Y-9408150D02*
X11613850Y-9438150D01*
X11598850Y-9423150D02*
X11628850Y-9423150D01*
X11618850Y-9313150D02*
X11618850Y-9343150D01*
X11603850Y-9328150D02*
X11633850Y-9328150D01*
X11620850Y-9514150D02*
X11620850Y-9544150D01*
X11605850Y-9529150D02*
X11635850Y-9529150D01*
X11630850Y-10164150D02*
X11630850Y-10194150D01*
X11615850Y-10179150D02*
X11645850Y-10179150D01*
X11643850Y-9363150D02*
X11643850Y-9393150D01*
X11628850Y-9378150D02*
X11658850Y-9378150D01*
X11644850Y-9459150D02*
X11644850Y-9489150D01*
X11629850Y-9474150D02*
X11659850Y-9474150D01*
X11649850Y-9561150D02*
X11649850Y-9591150D01*
X11634850Y-9576150D02*
X11664850Y-9576150D01*
X11660850Y-10209150D02*
X11660850Y-10239150D01*
X11645850Y-10224150D02*
X11675850Y-10224150D01*
X11665850Y-10114150D02*
X11665850Y-10144150D01*
X11650850Y-10129150D02*
X11680850Y-10129150D01*
X11673850Y-9408150D02*
X11673850Y-9438150D01*
X11658850Y-9423150D02*
X11688850Y-9423150D01*
X11676850Y-9508150D02*
X11676850Y-9538150D01*
X11661850Y-9523150D02*
X11691850Y-9523150D01*
X11678850Y-9315650D02*
X11678850Y-9345650D01*
X11663850Y-9330650D02*
X11693850Y-9330650D01*
X11690850Y-10164150D02*
X11690850Y-10194150D01*
X11675850Y-10179150D02*
X11705850Y-10179150D01*
X11703850Y-9363150D02*
X11703850Y-9393150D01*
X11688850Y-9378150D02*
X11718850Y-9378150D01*
X11703850Y-9459150D02*
X11703850Y-9489150D01*
X11688850Y-9474150D02*
X11718850Y-9474150D01*
X11704850Y-9556150D02*
X11704850Y-9586150D01*
X11689850Y-9571150D02*
X11719850Y-9571150D01*
X11720850Y-10209150D02*
X11720850Y-10239150D01*
X11705850Y-10224150D02*
X11735850Y-10224150D01*
X11725850Y-10116650D02*
X11725850Y-10146650D01*
X11710850Y-10131650D02*
X11740850Y-10131650D01*
X11733850Y-9408150D02*
X11733850Y-9438150D01*
X11718850Y-9423150D02*
X11748850Y-9423150D01*
X11736535Y-9315650D02*
X11736535Y-9345650D01*
X11721535Y-9330650D02*
X11751535Y-9330650D01*
X11736850Y-9509150D02*
X11736850Y-9539150D01*
X11721850Y-9524150D02*
X11751850Y-9524150D01*
X11750850Y-10164150D02*
X11750850Y-10194150D01*
X11735850Y-10179150D02*
X11765850Y-10179150D01*
X11762850Y-9460150D02*
X11762850Y-9490150D01*
X11747850Y-9475150D02*
X11777850Y-9475150D01*
X11763850Y-9363150D02*
X11763850Y-9393150D01*
X11748850Y-9378150D02*
X11778850Y-9378150D01*
X11780850Y-10209150D02*
X11780850Y-10239150D01*
X11765850Y-10224150D02*
X11795850Y-10224150D01*
X11783535Y-10116650D02*
X11783535Y-10146650D01*
X11768535Y-10131650D02*
X11798535Y-10131650D01*
X11793850Y-9313150D02*
X11793850Y-9343150D01*
X11778850Y-9328150D02*
X11808850Y-9328150D01*
X11793850Y-9408150D02*
X11793850Y-9438150D01*
X11778850Y-9423150D02*
X11808850Y-9423150D01*
X11810850Y-10164150D02*
X11810850Y-10194150D01*
X11795850Y-10179150D02*
X11825850Y-10179150D01*
X11823850Y-9363150D02*
X11823850Y-9393150D01*
X11808850Y-9378150D02*
X11838850Y-9378150D01*
X11840850Y-10114150D02*
X11840850Y-10144150D01*
X11825850Y-10129150D02*
X11855850Y-10129150D01*
X11840850Y-10209150D02*
X11840850Y-10239150D01*
X11825850Y-10224150D02*
X11855850Y-10224150D01*
X11870850Y-10164150D02*
X11870850Y-10194150D01*
X11855850Y-10179150D02*
X11885850Y-10179150D01*
X11882850Y-10434150D02*
X11882850Y-10464150D01*
X11867850Y-10449150D02*
X11897850Y-10449150D01*
X11966850Y-14773150D02*
X11966850Y-14803150D01*
X11951850Y-14788150D02*
X11981850Y-14788150D01*
X12024850Y-14714150D02*
X12024850Y-14744150D01*
X12009850Y-14729150D02*
X12039850Y-14729150D01*
X12026850Y-14770150D02*
X12026850Y-14800150D01*
X12011850Y-14785150D02*
X12041850Y-14785150D01*
X12026850Y-14826150D02*
X12026850Y-14856150D01*
X12011850Y-14841150D02*
X12041850Y-14841150D01*
X12060850Y-12604150D02*
X12060850Y-12634150D01*
X12045850Y-12619150D02*
X12075850Y-12619150D01*
X12081850Y-14657150D02*
X12081850Y-14687150D01*
X12066850Y-14672150D02*
X12096850Y-14672150D01*
X12084850Y-14767150D02*
X12084850Y-14797150D01*
X12069850Y-14782150D02*
X12099850Y-14782150D01*
X12086850Y-14709150D02*
X12086850Y-14739150D01*
X12071850Y-14724150D02*
X12101850Y-14724150D01*
X12115850Y-11389150D02*
X12115850Y-11419150D01*
X12100850Y-11404150D02*
X12130850Y-11404150D01*
X12115850Y-11909150D02*
X12115850Y-11939150D01*
X12100850Y-11924150D02*
X12130850Y-11924150D01*
X12137850Y-14601150D02*
X12137850Y-14631150D01*
X12122850Y-14616150D02*
X12152850Y-14616150D01*
X12141850Y-14656150D02*
X12141850Y-14686150D01*
X12126850Y-14671150D02*
X12156850Y-14671150D01*
X12141850Y-14710150D02*
X12141850Y-14740150D01*
X12126850Y-14725150D02*
X12156850Y-14725150D01*
X12185850Y-9909150D02*
X12185850Y-9939150D01*
X12170850Y-9924150D02*
X12200850Y-9924150D01*
X12185850Y-10009150D02*
X12185850Y-10039150D01*
X12170850Y-10024150D02*
X12200850Y-10024150D01*
X12185850Y-10109150D02*
X12185850Y-10139150D01*
X12170850Y-10124150D02*
X12200850Y-10124150D01*
X12185850Y-10209150D02*
X12185850Y-10239150D01*
X12170850Y-10224150D02*
X12200850Y-10224150D01*
X12185850Y-10309150D02*
X12185850Y-10339150D01*
X12170850Y-10324150D02*
X12200850Y-10324150D01*
X12185850Y-10409150D02*
X12185850Y-10439150D01*
X12170850Y-10424150D02*
X12200850Y-10424150D01*
X12185850Y-10509150D02*
X12185850Y-10539150D01*
X12170850Y-10524150D02*
X12200850Y-10524150D01*
X12186850Y-14544150D02*
X12186850Y-14574150D01*
X12171850Y-14559150D02*
X12201850Y-14559150D01*
X12192850Y-14599150D02*
X12192850Y-14629150D01*
X12177850Y-14614150D02*
X12207850Y-14614150D01*
X12197850Y-14654150D02*
X12197850Y-14684150D01*
X12182850Y-14669150D02*
X12212850Y-14669150D01*
X12233350Y-12661650D02*
X12233350Y-12691650D01*
X12218350Y-12676650D02*
X12248350Y-12676650D01*
X12245850Y-14540150D02*
X12245850Y-14570150D01*
X12230850Y-14555150D02*
X12260850Y-14555150D01*
X12246850Y-14597150D02*
X12246850Y-14627150D01*
X12231850Y-14612150D02*
X12261850Y-14612150D01*
X12285850Y-9909150D02*
X12285850Y-9939150D01*
X12270850Y-9924150D02*
X12300850Y-9924150D01*
X12285850Y-10009150D02*
X12285850Y-10039150D01*
X12270850Y-10024150D02*
X12300850Y-10024150D01*
X12285850Y-10109150D02*
X12285850Y-10139150D01*
X12270850Y-10124150D02*
X12300850Y-10124150D01*
X12285850Y-10209150D02*
X12285850Y-10239150D01*
X12270850Y-10224150D02*
X12300850Y-10224150D01*
X12285850Y-10309150D02*
X12285850Y-10339150D01*
X12270850Y-10324150D02*
X12300850Y-10324150D01*
X12285850Y-10409150D02*
X12285850Y-10439150D01*
X12270850Y-10424150D02*
X12300850Y-10424150D01*
X12285850Y-10509150D02*
X12285850Y-10539150D01*
X12270850Y-10524150D02*
X12300850Y-10524150D01*
X12291025Y-11828975D02*
X12291025Y-11858975D01*
X12276025Y-11843975D02*
X12306025Y-11843975D01*
X12380850Y-12688850D02*
X12380850Y-12718850D01*
X12365850Y-12703850D02*
X12395850Y-12703850D01*
X12385850Y-9909150D02*
X12385850Y-9939150D01*
X12370850Y-9924150D02*
X12400850Y-9924150D01*
X12385850Y-10009150D02*
X12385850Y-10039150D01*
X12370850Y-10024150D02*
X12400850Y-10024150D01*
X12385850Y-10109150D02*
X12385850Y-10139150D01*
X12370850Y-10124150D02*
X12400850Y-10124150D01*
X12385850Y-10209150D02*
X12385850Y-10239150D01*
X12370850Y-10224150D02*
X12400850Y-10224150D01*
X12385850Y-10309150D02*
X12385850Y-10339150D01*
X12370850Y-10324150D02*
X12400850Y-10324150D01*
X12385850Y-10409150D02*
X12385850Y-10439150D01*
X12370850Y-10424150D02*
X12400850Y-10424150D01*
X12385850Y-10509150D02*
X12385850Y-10539150D01*
X12370850Y-10524150D02*
X12400850Y-10524150D01*
X12435850Y-12414150D02*
X12435850Y-12444150D01*
X12420850Y-12429150D02*
X12450850Y-12429150D01*
X12507524Y-12688850D02*
X12507524Y-12718850D01*
X12492524Y-12703850D02*
X12522524Y-12703850D01*
X12707850Y-10164150D02*
X12707850Y-10194150D01*
X12692850Y-10179150D02*
X12722850Y-10179150D01*
X12737850Y-10114150D02*
X12737850Y-10144150D01*
X12722850Y-10129150D02*
X12752850Y-10129150D01*
X12737850Y-10209150D02*
X12737850Y-10239150D01*
X12722850Y-10224150D02*
X12752850Y-10224150D01*
X12748850Y-9364150D02*
X12748850Y-9394150D01*
X12733850Y-9379150D02*
X12763850Y-9379150D01*
X12767850Y-10164150D02*
X12767850Y-10194150D01*
X12752850Y-10179150D02*
X12782850Y-10179150D01*
X12778850Y-9314150D02*
X12778850Y-9344150D01*
X12763850Y-9329150D02*
X12793850Y-9329150D01*
X12778850Y-9409150D02*
X12778850Y-9439150D01*
X12763850Y-9424150D02*
X12793850Y-9424150D01*
X12795164Y-10116650D02*
X12795164Y-10146650D01*
X12780164Y-10131650D02*
X12810164Y-10131650D01*
X12797850Y-10209150D02*
X12797850Y-10239150D01*
X12782850Y-10224150D02*
X12812850Y-10224150D01*
X12808850Y-9364150D02*
X12808850Y-9394150D01*
X12793850Y-9379150D02*
X12823850Y-9379150D01*
X12809850Y-9461150D02*
X12809850Y-9491150D01*
X12794850Y-9476150D02*
X12824850Y-9476150D01*
X12827850Y-10164150D02*
X12827850Y-10194150D01*
X12812850Y-10179150D02*
X12842850Y-10179150D01*
X12835850Y-9510150D02*
X12835850Y-9540150D01*
X12820850Y-9525150D02*
X12850850Y-9525150D01*
X12836164Y-9316650D02*
X12836164Y-9346650D01*
X12821164Y-9331650D02*
X12851164Y-9331650D01*
X12838850Y-9409150D02*
X12838850Y-9439150D01*
X12823850Y-9424150D02*
X12853850Y-9424150D01*
X12852850Y-10116650D02*
X12852850Y-10146650D01*
X12837850Y-10131650D02*
X12867850Y-10131650D01*
X12857850Y-10209150D02*
X12857850Y-10239150D01*
X12842850Y-10224150D02*
X12872850Y-10224150D01*
X12867850Y-9557150D02*
X12867850Y-9587150D01*
X12852850Y-9572150D02*
X12882850Y-9572150D01*
X12868850Y-9364150D02*
X12868850Y-9394150D01*
X12853850Y-9379150D02*
X12883850Y-9379150D01*
X12868850Y-9460150D02*
X12868850Y-9490150D01*
X12853850Y-9475150D02*
X12883850Y-9475150D01*
X12882500Y-11162500D02*
X12882500Y-11192500D01*
X12867500Y-11177500D02*
X12897500Y-11177500D01*
X12887850Y-10164150D02*
X12887850Y-10194150D01*
X12872850Y-10179150D02*
X12902850Y-10179150D01*
X12893850Y-9316650D02*
X12893850Y-9346650D01*
X12878850Y-9331650D02*
X12908850Y-9331650D01*
X12895850Y-9509150D02*
X12895850Y-9539150D01*
X12880850Y-9524150D02*
X12910850Y-9524150D01*
X12898850Y-9409150D02*
X12898850Y-9439150D01*
X12883850Y-9424150D02*
X12913850Y-9424150D01*
X12912850Y-10114150D02*
X12912850Y-10144150D01*
X12897850Y-10129150D02*
X12927850Y-10129150D01*
X12917850Y-10209150D02*
X12917850Y-10239150D01*
X12902850Y-10224150D02*
X12932850Y-10224150D01*
X12922850Y-9562150D02*
X12922850Y-9592150D01*
X12907850Y-9577150D02*
X12937850Y-9577150D01*
X12927850Y-9460150D02*
X12927850Y-9490150D01*
X12912850Y-9475150D02*
X12942850Y-9475150D01*
X12928850Y-9364150D02*
X12928850Y-9394150D01*
X12913850Y-9379150D02*
X12943850Y-9379150D01*
X12947850Y-10164150D02*
X12947850Y-10194150D01*
X12932850Y-10179150D02*
X12962850Y-10179150D01*
X12951850Y-9515150D02*
X12951850Y-9545150D01*
X12936850Y-9530150D02*
X12966850Y-9530150D01*
X12953850Y-9314150D02*
X12953850Y-9344150D01*
X12938850Y-9329150D02*
X12968850Y-9329150D01*
X12958850Y-9409150D02*
X12958850Y-9439150D01*
X12943850Y-9424150D02*
X12973850Y-9424150D01*
X12984850Y-9464150D02*
X12984850Y-9494150D01*
X12969850Y-9479150D02*
X12999850Y-9479150D01*
X12988850Y-9364150D02*
X12988850Y-9394150D01*
X12973850Y-9379150D02*
X13003850Y-9379150D01*
X13017850Y-9418150D02*
X13017850Y-9448150D01*
X13002850Y-9433150D02*
X13032850Y-9433150D01*
X13175000Y-14060000D02*
X13175000Y-14090000D01*
X13160000Y-14075000D02*
X13190000Y-14075000D01*
X13348850Y-12080150D02*
X13348850Y-12110150D01*
X13333850Y-12095150D02*
X13363850Y-12095150D01*
X13377850Y-12134150D02*
X13377850Y-12164150D01*
X13362850Y-12149150D02*
X13392850Y-12149150D01*
X13381850Y-12034150D02*
X13381850Y-12064150D01*
X13366850Y-12049150D02*
X13396850Y-12049150D01*
X13407850Y-12089150D02*
X13407850Y-12119150D01*
X13392850Y-12104150D02*
X13422850Y-12104150D01*
X13412850Y-12184150D02*
X13412850Y-12214150D01*
X13397850Y-12199150D02*
X13427850Y-12199150D01*
X13414850Y-11983150D02*
X13414850Y-12013150D01*
X13399850Y-11998150D02*
X13429850Y-11998150D01*
X13418850Y-11334150D02*
X13418850Y-11364150D01*
X13403850Y-11349150D02*
X13433850Y-11349150D01*
X13437850Y-12134150D02*
X13437850Y-12164150D01*
X13422850Y-12149150D02*
X13452850Y-12149150D01*
X13438850Y-12038150D02*
X13438850Y-12068150D01*
X13423850Y-12053150D02*
X13453850Y-12053150D01*
X13443850Y-11936150D02*
X13443850Y-11966150D01*
X13428850Y-11951150D02*
X13458850Y-11951150D01*
X13448850Y-11289150D02*
X13448850Y-11319150D01*
X13433850Y-11304150D02*
X13463850Y-11304150D01*
X13453850Y-11384150D02*
X13453850Y-11414150D01*
X13438850Y-11399150D02*
X13468850Y-11399150D01*
X13467850Y-12089150D02*
X13467850Y-12119150D01*
X13452850Y-12104150D02*
X13482850Y-12104150D01*
X13470850Y-11989150D02*
X13470850Y-12019150D01*
X13455850Y-12004150D02*
X13485850Y-12004150D01*
X13472850Y-12181650D02*
X13472850Y-12211650D01*
X13457850Y-12196650D02*
X13487850Y-12196650D01*
X13478850Y-11334150D02*
X13478850Y-11364150D01*
X13463850Y-11349150D02*
X13493850Y-11349150D01*
X13497850Y-12038150D02*
X13497850Y-12068150D01*
X13482850Y-12053150D02*
X13512850Y-12053150D01*
X13497850Y-12134150D02*
X13497850Y-12164150D01*
X13482850Y-12149150D02*
X13512850Y-12149150D01*
X13498850Y-11941150D02*
X13498850Y-11971150D01*
X13483850Y-11956150D02*
X13513850Y-11956150D01*
X13508850Y-11289150D02*
X13508850Y-11319150D01*
X13493850Y-11304150D02*
X13523850Y-11304150D01*
X13513850Y-11381650D02*
X13513850Y-11411650D01*
X13498850Y-11396650D02*
X13528850Y-11396650D01*
X13527850Y-12089150D02*
X13527850Y-12119150D01*
X13512850Y-12104150D02*
X13542850Y-12104150D01*
X13530535Y-12181650D02*
X13530535Y-12211650D01*
X13515535Y-12196650D02*
X13545535Y-12196650D01*
X13530850Y-11988150D02*
X13530850Y-12018150D01*
X13515850Y-12003150D02*
X13545850Y-12003150D01*
X13538850Y-11334150D02*
X13538850Y-11364150D01*
X13523850Y-11349150D02*
X13553850Y-11349150D01*
X13556850Y-12037150D02*
X13556850Y-12067150D01*
X13541850Y-12052150D02*
X13571850Y-12052150D01*
X13557850Y-12134150D02*
X13557850Y-12164150D01*
X13542850Y-12149150D02*
X13572850Y-12149150D01*
X13568850Y-11289150D02*
X13568850Y-11319150D01*
X13553850Y-11304150D02*
X13583850Y-11304150D01*
X13571535Y-11381650D02*
X13571535Y-11411650D01*
X13556535Y-11396650D02*
X13586535Y-11396650D01*
X13587850Y-12089150D02*
X13587850Y-12119150D01*
X13572850Y-12104150D02*
X13602850Y-12104150D01*
X13587850Y-12184150D02*
X13587850Y-12214150D01*
X13572850Y-12199150D02*
X13602850Y-12199150D01*
X13598850Y-11334150D02*
X13598850Y-11364150D01*
X13583850Y-11349150D02*
X13613850Y-11349150D01*
X13617850Y-12134150D02*
X13617850Y-12164150D01*
X13602850Y-12149150D02*
X13632850Y-12149150D01*
X13628850Y-11289150D02*
X13628850Y-11319150D01*
X13613850Y-11304150D02*
X13643850Y-11304150D01*
X13628850Y-11384150D02*
X13628850Y-11414150D01*
X13613850Y-11399150D02*
X13643850Y-11399150D01*
X13658850Y-11334150D02*
X13658850Y-11364150D01*
X13643850Y-11349150D02*
X13673850Y-11349150D01*
X13785850Y-10389150D02*
X13785850Y-10419150D01*
X13770850Y-10404150D02*
X13800850Y-10404150D01*
X13800850Y-10329150D02*
X13800850Y-10359150D01*
X13785850Y-10344150D02*
X13815850Y-10344150D01*
X13810850Y-10264150D02*
X13810850Y-10294150D01*
X13795850Y-10279150D02*
X13825850Y-10279150D01*
X13830850Y-10429150D02*
X13830850Y-10459150D01*
X13815850Y-10444150D02*
X13845850Y-10444150D01*
X13833850Y-14788525D02*
X13833850Y-14818525D01*
X13818850Y-14803525D02*
X13848850Y-14803525D01*
X13845850Y-10369150D02*
X13845850Y-10399150D01*
X13830850Y-10384150D02*
X13860850Y-10384150D01*
X13855850Y-10314150D02*
X13855850Y-10344150D01*
X13840850Y-10329150D02*
X13870850Y-10329150D01*
X13870850Y-10254150D02*
X13870850Y-10284150D01*
X13855850Y-10269150D02*
X13885850Y-10269150D01*
X13875850Y-10474150D02*
X13875850Y-10504150D01*
X13860850Y-10489150D02*
X13890850Y-10489150D01*
X13885850Y-10194150D02*
X13885850Y-10224150D01*
X13870850Y-10209150D02*
X13900850Y-10209150D01*
X13890850Y-10414150D02*
X13890850Y-10444150D01*
X13875850Y-10429150D02*
X13905850Y-10429150D01*
X13891850Y-14729525D02*
X13891850Y-14759525D01*
X13876850Y-14744525D02*
X13906850Y-14744525D01*
X13893850Y-14785525D02*
X13893850Y-14815525D01*
X13878850Y-14800525D02*
X13908850Y-14800525D01*
X13893850Y-14841525D02*
X13893850Y-14871525D01*
X13878850Y-14856525D02*
X13908850Y-14856525D01*
X13900850Y-10354150D02*
X13900850Y-10384150D01*
X13885850Y-10369150D02*
X13915850Y-10369150D01*
X13915850Y-10294150D02*
X13915850Y-10324150D01*
X13900850Y-10309150D02*
X13930850Y-10309150D01*
X13930850Y-10244150D02*
X13930850Y-10274150D01*
X13915850Y-10259150D02*
X13945850Y-10259150D01*
X13945850Y-10184150D02*
X13945850Y-10214150D01*
X13930850Y-10199150D02*
X13960850Y-10199150D01*
X13945850Y-10399150D02*
X13945850Y-10429150D01*
X13930850Y-10414150D02*
X13960850Y-10414150D01*
X13948850Y-14672525D02*
X13948850Y-14702525D01*
X13933850Y-14687525D02*
X13963850Y-14687525D01*
X13951850Y-14782525D02*
X13951850Y-14812525D01*
X13936850Y-14797525D02*
X13966850Y-14797525D01*
X13953850Y-14724525D02*
X13953850Y-14754525D01*
X13938850Y-14739525D02*
X13968850Y-14739525D01*
X13955850Y-10124150D02*
X13955850Y-10154150D01*
X13940850Y-10139150D02*
X13970850Y-10139150D01*
X13960850Y-10339150D02*
X13960850Y-10369150D01*
X13945850Y-10354150D02*
X13975850Y-10354150D01*
X13975850Y-10284150D02*
X13975850Y-10314150D01*
X13960850Y-10299150D02*
X13990850Y-10299150D01*
X13980850Y-10989150D02*
X13980850Y-11019150D01*
X13965850Y-11004150D02*
X13995850Y-11004150D01*
X13980850Y-11089150D02*
X13980850Y-11119150D01*
X13965850Y-11104150D02*
X13995850Y-11104150D01*
X13980850Y-11189150D02*
X13980850Y-11219150D01*
X13965850Y-11204150D02*
X13995850Y-11204150D01*
X13980850Y-11289150D02*
X13980850Y-11319150D01*
X13965850Y-11304150D02*
X13995850Y-11304150D01*
X13980850Y-11389150D02*
X13980850Y-11419150D01*
X13965850Y-11404150D02*
X13995850Y-11404150D01*
X13980850Y-11489150D02*
X13980850Y-11519150D01*
X13965850Y-11504150D02*
X13995850Y-11504150D01*
X13980850Y-11589150D02*
X13980850Y-11619150D01*
X13965850Y-11604150D02*
X13995850Y-11604150D01*
X13990850Y-10224150D02*
X13990850Y-10254150D01*
X13975850Y-10239150D02*
X14005850Y-10239150D01*
X14000850Y-10174150D02*
X14000850Y-10204150D01*
X13985850Y-10189150D02*
X14015850Y-10189150D01*
X14004850Y-14616525D02*
X14004850Y-14646525D01*
X13989850Y-14631525D02*
X14019850Y-14631525D01*
X14008850Y-14671525D02*
X14008850Y-14701525D01*
X13993850Y-14686525D02*
X14023850Y-14686525D01*
X14008850Y-14725525D02*
X14008850Y-14755525D01*
X13993850Y-14740525D02*
X14023850Y-14740525D01*
X14015850Y-10114150D02*
X14015850Y-10144150D01*
X14000850Y-10129150D02*
X14030850Y-10129150D01*
X14020850Y-10329150D02*
X14020850Y-10359150D01*
X14005850Y-10344150D02*
X14035850Y-10344150D01*
X14035850Y-10059150D02*
X14035850Y-10089150D01*
X14020850Y-10074150D02*
X14050850Y-10074150D01*
X14035850Y-10269150D02*
X14035850Y-10299150D01*
X14020850Y-10284150D02*
X14050850Y-10284150D01*
X14045850Y-10214150D02*
X14045850Y-10244150D01*
X14030850Y-10229150D02*
X14060850Y-10229150D01*
X14053850Y-14559525D02*
X14053850Y-14589525D01*
X14038850Y-14574525D02*
X14068850Y-14574525D01*
X14059850Y-14614525D02*
X14059850Y-14644525D01*
X14044850Y-14629525D02*
X14074850Y-14629525D01*
X14060850Y-10154150D02*
X14060850Y-10184150D01*
X14045850Y-10169150D02*
X14075850Y-10169150D01*
X14064850Y-14669525D02*
X14064850Y-14699525D01*
X14049850Y-14684525D02*
X14079850Y-14684525D01*
X14080850Y-10109150D02*
X14080850Y-10139150D01*
X14065850Y-10124150D02*
X14095850Y-10124150D01*
X14080850Y-10989150D02*
X14080850Y-11019150D01*
X14065850Y-11004150D02*
X14095850Y-11004150D01*
X14080850Y-11089150D02*
X14080850Y-11119150D01*
X14065850Y-11104150D02*
X14095850Y-11104150D01*
X14080850Y-11189150D02*
X14080850Y-11219150D01*
X14065850Y-11204150D02*
X14095850Y-11204150D01*
X14080850Y-11289150D02*
X14080850Y-11319150D01*
X14065850Y-11304150D02*
X14095850Y-11304150D01*
X14080850Y-11389150D02*
X14080850Y-11419150D01*
X14065850Y-11404150D02*
X14095850Y-11404150D01*
X14080850Y-11489150D02*
X14080850Y-11519150D01*
X14065850Y-11504150D02*
X14095850Y-11504150D01*
X14080850Y-11589150D02*
X14080850Y-11619150D01*
X14065850Y-11604150D02*
X14095850Y-11604150D01*
X14090850Y-10259150D02*
X14090850Y-10289150D01*
X14075850Y-10274150D02*
X14105850Y-10274150D01*
X14095850Y-10049150D02*
X14095850Y-10079150D01*
X14080850Y-10064150D02*
X14110850Y-10064150D01*
X14105850Y-10199150D02*
X14105850Y-10229150D01*
X14090850Y-10214150D02*
X14120850Y-10214150D01*
X14110850Y-9989150D02*
X14110850Y-10019150D01*
X14095850Y-10004150D02*
X14125850Y-10004150D01*
X14112850Y-14555525D02*
X14112850Y-14585525D01*
X14097850Y-14570525D02*
X14127850Y-14570525D01*
X14113850Y-14612525D02*
X14113850Y-14642525D01*
X14098850Y-14627525D02*
X14128850Y-14627525D01*
X14125850Y-10149150D02*
X14125850Y-10179150D01*
X14110850Y-10164150D02*
X14140850Y-10164150D01*
X14140850Y-10089150D02*
X14140850Y-10119150D01*
X14125850Y-10104150D02*
X14155850Y-10104150D01*
X14155850Y-10039150D02*
X14155850Y-10069150D01*
X14140850Y-10054150D02*
X14170850Y-10054150D01*
X14170850Y-9979150D02*
X14170850Y-10009150D01*
X14155850Y-9994150D02*
X14185850Y-9994150D01*
X14170850Y-10194150D02*
X14170850Y-10224150D01*
X14155850Y-10209150D02*
X14185850Y-10209150D01*
X14180850Y-10989150D02*
X14180850Y-11019150D01*
X14165850Y-11004150D02*
X14195850Y-11004150D01*
X14180850Y-11089150D02*
X14180850Y-11119150D01*
X14165850Y-11104150D02*
X14195850Y-11104150D01*
X14180850Y-11189150D02*
X14180850Y-11219150D01*
X14165850Y-11204150D02*
X14195850Y-11204150D01*
X14180850Y-11289150D02*
X14180850Y-11319150D01*
X14165850Y-11304150D02*
X14195850Y-11304150D01*
X14180850Y-11389150D02*
X14180850Y-11419150D01*
X14165850Y-11404150D02*
X14195850Y-11404150D01*
X14180850Y-11489150D02*
X14180850Y-11519150D01*
X14165850Y-11504150D02*
X14195850Y-11504150D01*
X14180850Y-11589150D02*
X14180850Y-11619150D01*
X14165850Y-11604150D02*
X14195850Y-11604150D01*
X14185850Y-9919150D02*
X14185850Y-9949150D01*
X14170850Y-9934150D02*
X14200850Y-9934150D01*
X14185850Y-10134150D02*
X14185850Y-10164150D01*
X14170850Y-10149150D02*
X14200850Y-10149150D01*
X14200850Y-10079150D02*
X14200850Y-10109150D01*
X14185850Y-10094150D02*
X14215850Y-10094150D01*
X14215850Y-10019150D02*
X14215850Y-10049150D01*
X14200850Y-10034150D02*
X14230850Y-10034150D01*
X14235850Y-9964150D02*
X14235850Y-9994150D01*
X14220850Y-9979150D02*
X14250850Y-9979150D01*
X14245850Y-10124150D02*
X14245850Y-10154150D01*
X14230850Y-10139150D02*
X14260850Y-10139150D01*
X14260850Y-10064150D02*
X14260850Y-10094150D01*
X14245850Y-10079150D02*
X14275850Y-10079150D01*
X14275850Y-10004150D02*
X14275850Y-10034150D01*
X14260850Y-10019150D02*
X14290850Y-10019150D01*
X14320850Y-10044150D02*
X14320850Y-10074150D01*
X14305850Y-10059150D02*
X14335850Y-10059150D01*
X14495850Y-11334150D02*
X14495850Y-11364150D01*
X14480850Y-11349150D02*
X14510850Y-11349150D01*
X14525850Y-11289150D02*
X14525850Y-11319150D01*
X14510850Y-11304150D02*
X14540850Y-11304150D01*
X14525850Y-11384150D02*
X14525850Y-11414150D01*
X14510850Y-11399150D02*
X14540850Y-11399150D01*
X14542850Y-12135150D02*
X14542850Y-12165150D01*
X14527850Y-12150150D02*
X14557850Y-12150150D01*
X14555850Y-11334150D02*
X14555850Y-11364150D01*
X14540850Y-11349150D02*
X14570850Y-11349150D01*
X14572850Y-12090150D02*
X14572850Y-12120150D01*
X14557850Y-12105150D02*
X14587850Y-12105150D01*
X14572850Y-12185150D02*
X14572850Y-12215150D01*
X14557850Y-12200150D02*
X14587850Y-12200150D01*
X14583164Y-11381650D02*
X14583164Y-11411650D01*
X14568164Y-11396650D02*
X14598164Y-11396650D01*
X14585850Y-11289150D02*
X14585850Y-11319150D01*
X14570850Y-11304150D02*
X14600850Y-11304150D01*
X14602850Y-12135150D02*
X14602850Y-12165150D01*
X14587850Y-12150150D02*
X14617850Y-12150150D01*
X14603850Y-12038150D02*
X14603850Y-12068150D01*
X14588850Y-12053150D02*
X14618850Y-12053150D01*
X14615850Y-11334150D02*
X14615850Y-11364150D01*
X14600850Y-11349150D02*
X14630850Y-11349150D01*
X14629850Y-11989150D02*
X14629850Y-12019150D01*
X14614850Y-12004150D02*
X14644850Y-12004150D01*
X14630164Y-12182650D02*
X14630164Y-12212650D01*
X14615164Y-12197650D02*
X14645164Y-12197650D01*
X14632850Y-12090150D02*
X14632850Y-12120150D01*
X14617850Y-12105150D02*
X14647850Y-12105150D01*
X14640850Y-11381650D02*
X14640850Y-11411650D01*
X14625850Y-11396650D02*
X14655850Y-11396650D01*
X14645850Y-11289150D02*
X14645850Y-11319150D01*
X14630850Y-11304150D02*
X14660850Y-11304150D01*
X14661850Y-11942150D02*
X14661850Y-11972150D01*
X14646850Y-11957150D02*
X14676850Y-11957150D01*
X14662850Y-12039150D02*
X14662850Y-12069150D01*
X14647850Y-12054150D02*
X14677850Y-12054150D01*
X14662850Y-12135150D02*
X14662850Y-12165150D01*
X14647850Y-12150150D02*
X14677850Y-12150150D01*
X14675850Y-11334150D02*
X14675850Y-11364150D01*
X14660850Y-11349150D02*
X14690850Y-11349150D01*
X14687850Y-12182650D02*
X14687850Y-12212650D01*
X14672850Y-12197650D02*
X14702850Y-12197650D01*
X14689850Y-11990150D02*
X14689850Y-12020150D01*
X14674850Y-12005150D02*
X14704850Y-12005150D01*
X14692850Y-12090150D02*
X14692850Y-12120150D01*
X14677850Y-12105150D02*
X14707850Y-12105150D01*
X14700850Y-11384150D02*
X14700850Y-11414150D01*
X14685850Y-11399150D02*
X14715850Y-11399150D01*
X14705850Y-11289150D02*
X14705850Y-11319150D01*
X14690850Y-11304150D02*
X14720850Y-11304150D01*
X14716850Y-11937150D02*
X14716850Y-11967150D01*
X14701850Y-11952150D02*
X14731850Y-11952150D01*
X14721850Y-12039150D02*
X14721850Y-12069150D01*
X14706850Y-12054150D02*
X14736850Y-12054150D01*
X14722850Y-12135150D02*
X14722850Y-12165150D01*
X14707850Y-12150150D02*
X14737850Y-12150150D01*
X14735850Y-11334150D02*
X14735850Y-11364150D01*
X14720850Y-11349150D02*
X14750850Y-11349150D01*
X14745850Y-11984150D02*
X14745850Y-12014150D01*
X14730850Y-11999150D02*
X14760850Y-11999150D01*
X14747850Y-12185150D02*
X14747850Y-12215150D01*
X14732850Y-12200150D02*
X14762850Y-12200150D01*
X14752850Y-12090150D02*
X14752850Y-12120150D01*
X14737850Y-12105150D02*
X14767850Y-12105150D01*
X14778850Y-12035150D02*
X14778850Y-12065150D01*
X14763850Y-12050150D02*
X14793850Y-12050150D01*
X14782850Y-12135150D02*
X14782850Y-12165150D01*
X14767850Y-12150150D02*
X14797850Y-12150150D01*
X14811850Y-12081150D02*
X14811850Y-12111150D01*
X14796850Y-12096150D02*
X14826850Y-12096150D01*
X15015850Y-12754150D02*
X15015850Y-12784150D01*
X15000850Y-12769150D02*
X15030850Y-12769150D01*
X15694850Y-14800150D02*
X15694850Y-14830150D01*
X15679850Y-14815150D02*
X15709850Y-14815150D01*
X15752850Y-14741150D02*
X15752850Y-14771150D01*
X15737850Y-14756150D02*
X15767850Y-14756150D01*
X15754850Y-14797150D02*
X15754850Y-14827150D01*
X15739850Y-14812150D02*
X15769850Y-14812150D01*
X15754850Y-14853150D02*
X15754850Y-14883150D01*
X15739850Y-14868150D02*
X15769850Y-14868150D01*
X15809850Y-14684150D02*
X15809850Y-14714150D01*
X15794850Y-14699150D02*
X15824850Y-14699150D01*
X15812850Y-14794150D02*
X15812850Y-14824150D01*
X15797850Y-14809150D02*
X15827850Y-14809150D01*
X15814850Y-14736150D02*
X15814850Y-14766150D01*
X15799850Y-14751150D02*
X15829850Y-14751150D01*
X15865850Y-14628150D02*
X15865850Y-14658150D01*
X15850850Y-14643150D02*
X15880850Y-14643150D01*
X15869850Y-14683150D02*
X15869850Y-14713150D01*
X15854850Y-14698150D02*
X15884850Y-14698150D01*
X15869850Y-14737150D02*
X15869850Y-14767150D01*
X15854850Y-14752150D02*
X15884850Y-14752150D01*
X15914850Y-14571150D02*
X15914850Y-14601150D01*
X15899850Y-14586150D02*
X15929850Y-14586150D01*
X15920850Y-14626150D02*
X15920850Y-14656150D01*
X15905850Y-14641150D02*
X15935850Y-14641150D01*
X15925850Y-14681150D02*
X15925850Y-14711150D01*
X15910850Y-14696150D02*
X15940850Y-14696150D01*
X15973850Y-14567150D02*
X15973850Y-14597150D01*
X15958850Y-14582150D02*
X15988850Y-14582150D01*
X15974850Y-14624150D02*
X15974850Y-14654150D01*
X15959850Y-14639150D02*
X15989850Y-14639150D01*
X16682600Y-11914150D02*
X16682600Y-11944150D01*
X16667600Y-11929150D02*
X16697600Y-11929150D01*
X16753350Y-11861650D02*
X16753350Y-11891650D01*
X16738350Y-11876650D02*
X16768350Y-11876650D01*
X16805000Y-10790000D02*
X16805000Y-10820000D01*
X16790000Y-10805000D02*
X16820000Y-10805000D01*
X16810000Y-10695000D02*
X16810000Y-10725000D01*
X16795000Y-10710000D02*
X16825000Y-10710000D01*
X16815000Y-10595000D02*
X16815000Y-10625000D01*
X16800000Y-10610000D02*
X16830000Y-10610000D01*
X16820850Y-11874150D02*
X16820850Y-11904150D01*
X16805850Y-11889150D02*
X16835850Y-11889150D01*
X16865000Y-10740000D02*
X16865000Y-10770000D01*
X16850000Y-10755000D02*
X16880000Y-10755000D01*
X16870000Y-10640000D02*
X16870000Y-10670000D01*
X16855000Y-10655000D02*
X16885000Y-10655000D01*
X16875000Y-10560000D02*
X16875000Y-10590000D01*
X16860000Y-10575000D02*
X16890000Y-10575000D01*
X16875000Y-10820000D02*
X16875000Y-10850000D01*
X16860000Y-10835000D02*
X16890000Y-10835000D01*
X16930000Y-10600000D02*
X16930000Y-10630000D01*
X16915000Y-10615000D02*
X16945000Y-10615000D01*
X16930000Y-10695000D02*
X16930000Y-10725000D01*
X16915000Y-10710000D02*
X16945000Y-10710000D01*
X16930000Y-10775000D02*
X16930000Y-10805000D01*
X16915000Y-10790000D02*
X16945000Y-10790000D01*
X16945850Y-11854150D02*
X16945850Y-11884150D01*
X16930850Y-11869150D02*
X16960850Y-11869150D01*
X16945850Y-11934150D02*
X16945850Y-11964150D01*
X16930850Y-11949150D02*
X16960850Y-11949150D01*
X17001577Y-12378423D02*
X17001577Y-12408423D01*
X16986577Y-12393423D02*
X17016577Y-12393423D01*
X17040850Y-11884150D02*
X17040850Y-11914150D01*
X17025850Y-11899150D02*
X17055850Y-11899150D01*
X17055359Y-11808987D02*
X17055359Y-11838987D01*
X17040359Y-11823987D02*
X17070359Y-11823987D01*
X17114350Y-11470000D02*
X17114350Y-11500000D01*
X17099350Y-11485000D02*
X17129350Y-11485000D01*
X17125850Y-11774150D02*
X17125850Y-11804150D01*
X17110850Y-11789150D02*
X17140850Y-11789150D01*
X17165850Y-14804150D02*
X17165850Y-14834150D01*
X17150850Y-14819150D02*
X17180850Y-14819150D01*
X17165850Y-14874150D02*
X17165850Y-14904150D01*
X17150850Y-14889150D02*
X17180850Y-14889150D01*
X17185624Y-11456724D02*
X17185624Y-11486724D01*
X17170624Y-11471724D02*
X17200624Y-11471724D01*
X17191850Y-13509150D02*
X17191850Y-13539150D01*
X17176850Y-13524150D02*
X17206850Y-13524150D01*
X17200850Y-11739150D02*
X17200850Y-11769150D01*
X17185850Y-11754150D02*
X17215850Y-11754150D01*
X17215850Y-14749150D02*
X17215850Y-14779150D01*
X17200850Y-14764150D02*
X17230850Y-14764150D01*
X17233563Y-11908589D02*
X17233563Y-11938589D01*
X17218563Y-11923589D02*
X17248563Y-11923589D01*
X17239782Y-11408524D02*
X17239782Y-11438524D01*
X17224782Y-11423524D02*
X17254782Y-11423524D01*
X17265850Y-12749150D02*
X17265850Y-12779150D01*
X17250850Y-12764150D02*
X17280850Y-12764150D01*
X17270850Y-13919150D02*
X17270850Y-13949150D01*
X17255850Y-13934150D02*
X17285850Y-13934150D01*
X17270850Y-14694150D02*
X17270850Y-14724150D01*
X17255850Y-14709150D02*
X17285850Y-14709150D01*
X17275850Y-13799150D02*
X17275850Y-13829150D01*
X17260850Y-13814150D02*
X17290850Y-13814150D01*
X17296386Y-11453827D02*
X17296386Y-11483827D01*
X17281386Y-11468827D02*
X17311386Y-11468827D01*
X17305850Y-11914150D02*
X17305850Y-11944150D01*
X17290850Y-11929150D02*
X17320850Y-11929150D01*
X17325850Y-13224150D02*
X17325850Y-13254150D01*
X17310850Y-13239150D02*
X17340850Y-13239150D01*
X17340850Y-12754150D02*
X17340850Y-12784150D01*
X17325850Y-12769150D02*
X17355850Y-12769150D01*
X17348886Y-11395000D02*
X17348886Y-11425000D01*
X17333886Y-11410000D02*
X17363886Y-11410000D01*
X17420850Y-12754150D02*
X17420850Y-12784150D01*
X17405850Y-12769150D02*
X17435850Y-12769150D01*
X17450850Y-12419150D02*
X17450850Y-12449150D01*
X17435850Y-12434150D02*
X17465850Y-12434150D01*
X17495850Y-11034050D02*
X17495850Y-11064050D01*
X17480850Y-11049050D02*
X17510850Y-11049050D01*
X17505850Y-12754150D02*
X17505850Y-12784150D01*
X17490850Y-12769150D02*
X17520850Y-12769150D01*
X17540850Y-14719150D02*
X17540850Y-14749150D01*
X17525850Y-14734150D02*
X17555850Y-14734150D01*
X17553352Y-12386450D02*
X17553352Y-12416450D01*
X17538352Y-12401450D02*
X17568352Y-12401450D01*
X17566589Y-12315168D02*
X17566589Y-12345168D01*
X17551589Y-12330168D02*
X17581589Y-12330168D01*
X17633134Y-11173735D02*
X17633134Y-11203735D01*
X17618134Y-11188735D02*
X17648134Y-11188735D01*
X17645000Y-10090000D02*
X17645000Y-10120000D01*
X17630000Y-10105000D02*
X17660000Y-10105000D01*
X17680850Y-11119150D02*
X17680850Y-11149150D01*
X17665850Y-11134150D02*
X17695850Y-11134150D01*
X17695000Y-10040000D02*
X17695000Y-10070000D01*
X17680000Y-10055000D02*
X17710000Y-10055000D01*
X17705000Y-10135000D02*
X17705000Y-10165000D01*
X17690000Y-10150000D02*
X17720000Y-10150000D01*
X17745000Y-9990000D02*
X17745000Y-10020000D01*
X17730000Y-10005000D02*
X17760000Y-10005000D01*
X17755000Y-10090000D02*
X17755000Y-10120000D01*
X17740000Y-10105000D02*
X17770000Y-10105000D01*
X17760850Y-14734150D02*
X17760850Y-14764150D01*
X17745850Y-14749150D02*
X17775850Y-14749150D01*
X17770850Y-11116650D02*
X17770850Y-11146650D01*
X17755850Y-11131650D02*
X17785850Y-11131650D01*
X17800000Y-9940000D02*
X17800000Y-9970000D01*
X17785000Y-9955000D02*
X17815000Y-9955000D01*
X17810000Y-10040000D02*
X17810000Y-10070000D01*
X17795000Y-10055000D02*
X17825000Y-10055000D01*
X17825850Y-14734150D02*
X17825850Y-14764150D01*
X17810850Y-14749150D02*
X17840850Y-14749150D01*
X17865000Y-9995000D02*
X17865000Y-10025000D01*
X17850000Y-10010000D02*
X17880000Y-10010000D01*
X17900850Y-14734150D02*
X17900850Y-14764150D01*
X17885850Y-14749150D02*
X17915850Y-14749150D01*
X17968975Y-14692275D02*
X17968975Y-14722275D01*
X17953975Y-14707275D02*
X17983975Y-14707275D01*
X18230850Y-14724150D02*
X18230850Y-14754150D01*
X18215850Y-14739150D02*
X18245850Y-14739150D01*
X18655850Y-14394150D02*
X18655850Y-14424150D01*
X18640850Y-14409150D02*
X18670850Y-14409150D01*
X18730850Y-14394150D02*
X18730850Y-14424150D01*
X18715850Y-14409150D02*
X18745850Y-14409150D01*
X18805850Y-14394150D02*
X18805850Y-14424150D01*
X18790850Y-14409150D02*
X18820850Y-14409150D01*
X18880850Y-14394150D02*
X18880850Y-14424150D01*
X18865850Y-14409150D02*
X18895850Y-14409150D01*
X18920850Y-14734150D02*
X18920850Y-14764150D01*
X18905850Y-14749150D02*
X18935850Y-14749150D01*
X19615850Y-14724150D02*
X19615850Y-14754150D01*
X19600850Y-14739150D02*
X19630850Y-14739150D01*
X20165850Y-12691650D02*
X20165850Y-12721650D01*
X20150850Y-12706650D02*
X20180850Y-12706650D01*
X20235850Y-12744150D02*
X20235850Y-12774150D01*
X20220850Y-12759150D02*
X20250850Y-12759150D01*
X20299498Y-12691650D02*
X20299498Y-12721650D01*
X20284498Y-12706650D02*
X20314498Y-12706650D01*
X20305850Y-14719150D02*
X20305850Y-14749150D01*
X20290850Y-14734150D02*
X20320850Y-14734150D01*
X20489978Y-12966650D02*
X20489978Y-12996650D01*
X20474978Y-12981650D02*
X20504978Y-12981650D01*
X20555604Y-12861650D02*
X20555604Y-12891650D01*
X20540604Y-12876650D02*
X20570604Y-12876650D01*
X20627350Y-12961650D02*
X20627350Y-12991650D01*
X20612350Y-12976650D02*
X20642350Y-12976650D01*
X20679850Y-12911650D02*
X20679850Y-12941650D01*
X20664850Y-12926650D02*
X20694850Y-12926650D01*
X20965850Y-13149150D02*
X20965850Y-13179150D01*
X20950850Y-13164150D02*
X20980850Y-13164150D01*
X20995903Y-12635249D02*
X20995903Y-12665249D01*
X20980903Y-12650249D02*
X21010903Y-12650249D01*
X21000426Y-14420892D02*
X21000426Y-14450892D01*
X20985426Y-14435892D02*
X21015426Y-14435892D01*
X21010850Y-14329150D02*
X21010850Y-14359150D01*
X20995850Y-14344150D02*
X21025850Y-14344150D01*
X21017115Y-13200415D02*
X21017115Y-13230415D01*
X21002115Y-13215415D02*
X21032115Y-13215415D01*
X21039473Y-14112773D02*
X21039473Y-14142773D01*
X21024473Y-14127773D02*
X21054473Y-14127773D01*
X21043850Y-14034150D02*
X21043850Y-14064150D01*
X21028850Y-14049150D02*
X21058850Y-14049150D01*
X21050453Y-14486551D02*
X21050453Y-14516551D01*
X21035453Y-14501551D02*
X21065453Y-14501551D01*
X21052456Y-14184102D02*
X21052456Y-14214102D01*
X21037456Y-14199102D02*
X21067456Y-14199102D01*
X21072851Y-14417597D02*
X21072851Y-14447597D01*
X21057851Y-14432597D02*
X21087851Y-14432597D01*
X21088267Y-14310426D02*
X21088267Y-14340426D01*
X21073267Y-14325426D02*
X21103267Y-14325426D01*
X21125350Y-12769032D02*
X21125350Y-12799032D01*
X21110350Y-12784032D02*
X21140350Y-12784032D01*
X21125350Y-13428912D02*
X21125350Y-13458912D01*
X21110350Y-13443912D02*
X21140350Y-13443912D01*
X21125350Y-13503158D02*
X21125350Y-13533158D01*
X21110350Y-13518158D02*
X21140350Y-13518158D01*
X21125350Y-13577404D02*
X21125350Y-13607404D01*
X21110350Y-13592404D02*
X21140350Y-13592404D01*
X9842367Y-11670667D02*
X9842367Y-11617633D01*
X9789333Y-11617633D01*
X9789333Y-11670667D01*
X9842367Y-11670667D01*
X9842367Y-11870667D02*
X9842367Y-11817633D01*
X9789333Y-11817633D01*
X9789333Y-11870667D01*
X9842367Y-11870667D01*
X9842367Y-12360667D02*
X9842367Y-12307633D01*
X9789333Y-12307633D01*
X9789333Y-12360667D01*
X9842367Y-12360667D01*
X9842367Y-12560667D02*
X9842367Y-12507633D01*
X9789333Y-12507633D01*
X9789333Y-12560667D01*
X9842367Y-12560667D01*
X9897367Y-15383167D02*
X9897367Y-15330133D01*
X9844333Y-15330133D01*
X9844333Y-15383167D01*
X9897367Y-15383167D01*
X10097367Y-15383167D02*
X10097367Y-15330133D01*
X10044333Y-15330133D01*
X10044333Y-15383167D01*
X10097367Y-15383167D01*
X10297367Y-15383167D02*
X10297367Y-15330133D01*
X10244333Y-15330133D01*
X10244333Y-15383167D01*
X10297367Y-15383167D01*
X10497367Y-15383167D02*
X10497367Y-15330133D01*
X10444333Y-15330133D01*
X10444333Y-15383167D01*
X10497367Y-15383167D01*
X10697367Y-15383167D02*
X10697367Y-15330133D01*
X10644333Y-15330133D01*
X10644333Y-15383167D01*
X10697367Y-15383167D01*
X10897367Y-15383167D02*
X10897367Y-15330133D01*
X10844333Y-15330133D01*
X10844333Y-15383167D01*
X10897367Y-15383167D01*
X11772367Y-15382167D02*
X11772367Y-15329133D01*
X11719333Y-15329133D01*
X11719333Y-15382167D01*
X11772367Y-15382167D01*
X11972367Y-15382167D02*
X11972367Y-15329133D01*
X11919333Y-15329133D01*
X11919333Y-15382167D01*
X11972367Y-15382167D01*
X12172367Y-15382167D02*
X12172367Y-15329133D01*
X12119333Y-15329133D01*
X12119333Y-15382167D01*
X12172367Y-15382167D01*
X12372367Y-15382167D02*
X12372367Y-15329133D01*
X12319333Y-15329133D01*
X12319333Y-15382167D01*
X12372367Y-15382167D01*
X12572367Y-15382167D02*
X12572367Y-15329133D01*
X12519333Y-15329133D01*
X12519333Y-15382167D01*
X12572367Y-15382167D01*
X12772367Y-15382167D02*
X12772367Y-15329133D01*
X12719333Y-15329133D01*
X12719333Y-15382167D01*
X12772367Y-15382167D01*
X13634117Y-15386167D02*
X13634117Y-15333133D01*
X13581083Y-15333133D01*
X13581083Y-15386167D01*
X13634117Y-15386167D01*
X13834117Y-15386167D02*
X13834117Y-15333133D01*
X13781083Y-15333133D01*
X13781083Y-15386167D01*
X13834117Y-15386167D01*
X14034117Y-15386167D02*
X14034117Y-15333133D01*
X13981083Y-15333133D01*
X13981083Y-15386167D01*
X14034117Y-15386167D01*
X14234117Y-15386167D02*
X14234117Y-15333133D01*
X14181083Y-15333133D01*
X14181083Y-15386167D01*
X14234117Y-15386167D01*
X14434117Y-15386167D02*
X14434117Y-15333133D01*
X14381083Y-15333133D01*
X14381083Y-15386167D01*
X14434117Y-15386167D01*
X14634117Y-15386167D02*
X14634117Y-15333133D01*
X14581083Y-15333133D01*
X14581083Y-15386167D01*
X14634117Y-15386167D01*
X15486367Y-15385167D02*
X15486367Y-15332133D01*
X15433333Y-15332133D01*
X15433333Y-15385167D01*
X15486367Y-15385167D01*
X15686367Y-15385167D02*
X15686367Y-15332133D01*
X15633333Y-15332133D01*
X15633333Y-15385167D01*
X15686367Y-15385167D01*
X15886367Y-15385167D02*
X15886367Y-15332133D01*
X15833333Y-15332133D01*
X15833333Y-15385167D01*
X15886367Y-15385167D01*
X16086367Y-15385167D02*
X16086367Y-15332133D01*
X16033333Y-15332133D01*
X16033333Y-15385167D01*
X16086367Y-15385167D01*
X16286367Y-15385167D02*
X16286367Y-15332133D01*
X16233333Y-15332133D01*
X16233333Y-15385167D01*
X16286367Y-15385167D01*
X16486367Y-15385167D02*
X16486367Y-15332133D01*
X16433333Y-15332133D01*
X16433333Y-15385167D01*
X16486367Y-15385167D01*
X17187367Y-9275667D02*
X17187367Y-9222633D01*
X17134333Y-9222633D01*
X17134333Y-9275667D01*
X17187367Y-9275667D01*
X17372367Y-15380667D02*
X17372367Y-15327633D01*
X17319333Y-15327633D01*
X17319333Y-15380667D01*
X17372367Y-15380667D01*
X17387367Y-9275667D02*
X17387367Y-9222633D01*
X17334333Y-9222633D01*
X17334333Y-9275667D01*
X17387367Y-9275667D01*
X17572367Y-15380667D02*
X17572367Y-15327633D01*
X17519333Y-15327633D01*
X17519333Y-15380667D01*
X17572367Y-15380667D01*
X17587367Y-9275667D02*
X17587367Y-9222633D01*
X17534333Y-9222633D01*
X17534333Y-9275667D01*
X17587367Y-9275667D01*
X18062367Y-15380667D02*
X18062367Y-15327633D01*
X18009333Y-15327633D01*
X18009333Y-15380667D01*
X18062367Y-15380667D01*
X18107367Y-9275667D02*
X18107367Y-9222633D01*
X18054333Y-9222633D01*
X18054333Y-9275667D01*
X18107367Y-9275667D01*
X18262367Y-15380667D02*
X18262367Y-15327633D01*
X18209333Y-15327633D01*
X18209333Y-15380667D01*
X18262367Y-15380667D01*
X18307367Y-9275667D02*
X18307367Y-9222633D01*
X18254333Y-9222633D01*
X18254333Y-9275667D01*
X18307367Y-9275667D01*
X18507367Y-9275667D02*
X18507367Y-9222633D01*
X18454333Y-9222633D01*
X18454333Y-9275667D01*
X18507367Y-9275667D01*
X18752367Y-15380667D02*
X18752367Y-15327633D01*
X18699333Y-15327633D01*
X18699333Y-15380667D01*
X18752367Y-15380667D01*
X18952367Y-15380667D02*
X18952367Y-15327633D01*
X18899333Y-15327633D01*
X18899333Y-15380667D01*
X18952367Y-15380667D01*
X19027367Y-9275667D02*
X19027367Y-9222633D01*
X18974333Y-9222633D01*
X18974333Y-9275667D01*
X19027367Y-9275667D01*
X19227367Y-9275667D02*
X19227367Y-9222633D01*
X19174333Y-9222633D01*
X19174333Y-9275667D01*
X19227367Y-9275667D01*
X19427367Y-9275667D02*
X19427367Y-9222633D01*
X19374333Y-9222633D01*
X19374333Y-9275667D01*
X19427367Y-9275667D01*
X19442367Y-15380667D02*
X19442367Y-15327633D01*
X19389333Y-15327633D01*
X19389333Y-15380667D01*
X19442367Y-15380667D01*
X19642367Y-15380667D02*
X19642367Y-15327633D01*
X19589333Y-15327633D01*
X19589333Y-15380667D01*
X19642367Y-15380667D01*
X19947367Y-9275667D02*
X19947367Y-9222633D01*
X19894333Y-9222633D01*
X19894333Y-9275667D01*
X19947367Y-9275667D01*
X20132367Y-15380667D02*
X20132367Y-15327633D01*
X20079333Y-15327633D01*
X20079333Y-15380667D01*
X20132367Y-15380667D01*
X20147367Y-9275667D02*
X20147367Y-9222633D01*
X20094333Y-9222633D01*
X20094333Y-9275667D01*
X20147367Y-9275667D01*
X20332367Y-15380667D02*
X20332367Y-15327633D01*
X20279333Y-15327633D01*
X20279333Y-15380667D01*
X20332367Y-15380667D01*
X20347367Y-9275667D02*
X20347367Y-9222633D01*
X20294333Y-9222633D01*
X20294333Y-9275667D01*
X20347367Y-9275667D01*
X20822367Y-15380667D02*
X20822367Y-15327633D01*
X20769333Y-15327633D01*
X20769333Y-15380667D01*
X20822367Y-15380667D01*
X21022367Y-15380667D02*
X21022367Y-15327633D01*
X20969333Y-15327633D01*
X20969333Y-15380667D01*
X21022367Y-15380667D01*
X21047367Y-9620667D02*
X21047367Y-9567633D01*
X20994333Y-9567633D01*
X20994333Y-9620667D01*
X21047367Y-9620667D01*
X21047367Y-9820667D02*
X21047367Y-9767633D01*
X20994333Y-9767633D01*
X20994333Y-9820667D01*
X21047367Y-9820667D01*
X21047367Y-10020667D02*
X21047367Y-9967633D01*
X20994333Y-9967633D01*
X20994333Y-10020667D01*
X21047367Y-10020667D01*
X9735850Y-13175900D02*
X9785850Y-13125900D01*
X9735850Y-13075900D01*
X9685850Y-13125900D01*
X9735850Y-13175900D01*
X9735850Y-13429900D02*
X9785850Y-13379900D01*
X9735850Y-13329900D01*
X9685850Y-13379900D01*
X9735850Y-13429900D01*
X9735850Y-13683900D02*
X9785850Y-13633900D01*
X9735850Y-13583900D01*
X9685850Y-13633900D01*
X9735850Y-13683900D01*
X9735850Y-13937900D02*
X9785850Y-13887900D01*
X9735850Y-13837900D01*
X9685850Y-13887900D01*
X9735850Y-13937900D01*
X9735850Y-14191900D02*
X9785850Y-14141900D01*
X9735850Y-14091900D01*
X9685850Y-14141900D01*
X9735850Y-14191900D01*
X9735850Y-14445900D02*
X9785850Y-14395900D01*
X9735850Y-14345900D01*
X9685850Y-14395900D01*
X9735850Y-14445900D01*
X9735850Y-14699900D02*
X9785850Y-14649900D01*
X9735850Y-14599900D01*
X9685850Y-14649900D01*
X9735850Y-14699900D01*
X9735850Y-14953900D02*
X9785850Y-14903900D01*
X9735850Y-14853900D01*
X9685850Y-14903900D01*
X9735850Y-14953900D01*
X10253350Y-11625150D02*
X10303350Y-11575150D01*
X10253350Y-11525150D01*
X10203350Y-11575150D01*
X10253350Y-11625150D01*
X10253350Y-11879150D02*
X10303350Y-11829150D01*
X10253350Y-11779150D01*
X10203350Y-11829150D01*
X10253350Y-11879150D01*
X10253350Y-12133150D02*
X10303350Y-12083150D01*
X10253350Y-12033150D01*
X10203350Y-12083150D01*
X10253350Y-12133150D01*
X10497850Y-14953900D02*
X10547850Y-14903900D01*
X10497850Y-14853900D01*
X10447850Y-14903900D01*
X10497850Y-14953900D01*
X10507350Y-11625150D02*
X10557350Y-11575150D01*
X10507350Y-11525150D01*
X10457350Y-11575150D01*
X10507350Y-11625150D01*
X10507350Y-11879150D02*
X10557350Y-11829150D01*
X10507350Y-11779150D01*
X10457350Y-11829150D01*
X10507350Y-11879150D01*
X10507350Y-12133150D02*
X10557350Y-12083150D01*
X10507350Y-12033150D01*
X10457350Y-12083150D01*
X10507350Y-12133150D01*
X10751850Y-14953900D02*
X10801850Y-14903900D01*
X10751850Y-14853900D01*
X10701850Y-14903900D01*
X10751850Y-14953900D01*
X11005850Y-13175900D02*
X11055850Y-13125900D01*
X11005850Y-13075900D01*
X10955850Y-13125900D01*
X11005850Y-13175900D01*
X11005850Y-13429900D02*
X11055850Y-13379900D01*
X11005850Y-13329900D01*
X10955850Y-13379900D01*
X11005850Y-13429900D01*
X11005850Y-13683900D02*
X11055850Y-13633900D01*
X11005850Y-13583900D01*
X10955850Y-13633900D01*
X11005850Y-13683900D01*
X11005850Y-13937900D02*
X11055850Y-13887900D01*
X11005850Y-13837900D01*
X10955850Y-13887900D01*
X11005850Y-13937900D01*
X11005850Y-14191900D02*
X11055850Y-14141900D01*
X11005850Y-14091900D01*
X10955850Y-14141900D01*
X11005850Y-14191900D01*
X11005850Y-14445900D02*
X11055850Y-14395900D01*
X11005850Y-14345900D01*
X10955850Y-14395900D01*
X11005850Y-14445900D01*
X11005850Y-14699900D02*
X11055850Y-14649900D01*
X11005850Y-14599900D01*
X10955850Y-14649900D01*
X11005850Y-14699900D01*
X11005850Y-14953900D02*
X11055850Y-14903900D01*
X11005850Y-14853900D01*
X10955850Y-14903900D01*
X11005850Y-14953900D01*
X11610850Y-13175900D02*
X11660850Y-13125900D01*
X11610850Y-13075900D01*
X11560850Y-13125900D01*
X11610850Y-13175900D01*
X11610850Y-13429900D02*
X11660850Y-13379900D01*
X11610850Y-13329900D01*
X11560850Y-13379900D01*
X11610850Y-13429900D01*
X11610850Y-13683900D02*
X11660850Y-13633900D01*
X11610850Y-13583900D01*
X11560850Y-13633900D01*
X11610850Y-13683900D01*
X11610850Y-13937900D02*
X11660850Y-13887900D01*
X11610850Y-13837900D01*
X11560850Y-13887900D01*
X11610850Y-13937900D01*
X11610850Y-14191900D02*
X11660850Y-14141900D01*
X11610850Y-14091900D01*
X11560850Y-14141900D01*
X11610850Y-14191900D01*
X11610850Y-14445900D02*
X11660850Y-14395900D01*
X11610850Y-14345900D01*
X11560850Y-14395900D01*
X11610850Y-14445900D01*
X11610850Y-14699900D02*
X11660850Y-14649900D01*
X11610850Y-14599900D01*
X11560850Y-14649900D01*
X11610850Y-14699900D01*
X11610850Y-14953900D02*
X11660850Y-14903900D01*
X11610850Y-14853900D01*
X11560850Y-14903900D01*
X11610850Y-14953900D01*
X12372850Y-14953900D02*
X12422850Y-14903900D01*
X12372850Y-14853900D01*
X12322850Y-14903900D01*
X12372850Y-14953900D01*
X12626850Y-14953900D02*
X12676850Y-14903900D01*
X12626850Y-14853900D01*
X12576850Y-14903900D01*
X12626850Y-14953900D01*
X12880850Y-13175900D02*
X12930850Y-13125900D01*
X12880850Y-13075900D01*
X12830850Y-13125900D01*
X12880850Y-13175900D01*
X12880850Y-13429900D02*
X12930850Y-13379900D01*
X12880850Y-13329900D01*
X12830850Y-13379900D01*
X12880850Y-13429900D01*
X12880850Y-13683900D02*
X12930850Y-13633900D01*
X12880850Y-13583900D01*
X12830850Y-13633900D01*
X12880850Y-13683900D01*
X12880850Y-13937900D02*
X12930850Y-13887900D01*
X12880850Y-13837900D01*
X12830850Y-13887900D01*
X12880850Y-13937900D01*
X12880850Y-14191900D02*
X12930850Y-14141900D01*
X12880850Y-14091900D01*
X12830850Y-14141900D01*
X12880850Y-14191900D01*
X12880850Y-14445900D02*
X12930850Y-14395900D01*
X12880850Y-14345900D01*
X12830850Y-14395900D01*
X12880850Y-14445900D01*
X12880850Y-14699900D02*
X12930850Y-14649900D01*
X12880850Y-14599900D01*
X12830850Y-14649900D01*
X12880850Y-14699900D01*
X12880850Y-14953900D02*
X12930850Y-14903900D01*
X12880850Y-14853900D01*
X12830850Y-14903900D01*
X12880850Y-14953900D01*
X13471100Y-13175900D02*
X13521100Y-13125900D01*
X13471100Y-13075900D01*
X13421100Y-13125900D01*
X13471100Y-13175900D01*
X13471100Y-13429900D02*
X13521100Y-13379900D01*
X13471100Y-13329900D01*
X13421100Y-13379900D01*
X13471100Y-13429900D01*
X13471100Y-13683900D02*
X13521100Y-13633900D01*
X13471100Y-13583900D01*
X13421100Y-13633900D01*
X13471100Y-13683900D01*
X13471100Y-13937900D02*
X13521100Y-13887900D01*
X13471100Y-13837900D01*
X13421100Y-13887900D01*
X13471100Y-13937900D01*
X13471100Y-14191900D02*
X13521100Y-14141900D01*
X13471100Y-14091900D01*
X13421100Y-14141900D01*
X13471100Y-14191900D01*
X13471100Y-14445900D02*
X13521100Y-14395900D01*
X13471100Y-14345900D01*
X13421100Y-14395900D01*
X13471100Y-14445900D01*
X13471100Y-14699900D02*
X13521100Y-14649900D01*
X13471100Y-14599900D01*
X13421100Y-14649900D01*
X13471100Y-14699900D01*
X13471100Y-14953900D02*
X13521100Y-14903900D01*
X13471100Y-14853900D01*
X13421100Y-14903900D01*
X13471100Y-14953900D01*
X14233100Y-14953900D02*
X14283100Y-14903900D01*
X14233100Y-14853900D01*
X14183100Y-14903900D01*
X14233100Y-14953900D01*
X14487100Y-14953900D02*
X14537100Y-14903900D01*
X14487100Y-14853900D01*
X14437100Y-14903900D01*
X14487100Y-14953900D01*
X14741100Y-13175900D02*
X14791100Y-13125900D01*
X14741100Y-13075900D01*
X14691100Y-13125900D01*
X14741100Y-13175900D01*
X14741100Y-13429900D02*
X14791100Y-13379900D01*
X14741100Y-13329900D01*
X14691100Y-13379900D01*
X14741100Y-13429900D01*
X14741100Y-13683900D02*
X14791100Y-13633900D01*
X14741100Y-13583900D01*
X14691100Y-13633900D01*
X14741100Y-13683900D01*
X14741100Y-13937900D02*
X14791100Y-13887900D01*
X14741100Y-13837900D01*
X14691100Y-13887900D01*
X14741100Y-13937900D01*
X14741100Y-14191900D02*
X14791100Y-14141900D01*
X14741100Y-14091900D01*
X14691100Y-14141900D01*
X14741100Y-14191900D01*
X14741100Y-14445900D02*
X14791100Y-14395900D01*
X14741100Y-14345900D01*
X14691100Y-14395900D01*
X14741100Y-14445900D01*
X14741100Y-14699900D02*
X14791100Y-14649900D01*
X14741100Y-14599900D01*
X14691100Y-14649900D01*
X14741100Y-14699900D01*
X14741100Y-14953900D02*
X14791100Y-14903900D01*
X14741100Y-14853900D01*
X14691100Y-14903900D01*
X14741100Y-14953900D01*
X15327850Y-13174900D02*
X15377850Y-13124900D01*
X15327850Y-13074900D01*
X15277850Y-13124900D01*
X15327850Y-13174900D01*
X15327850Y-13428900D02*
X15377850Y-13378900D01*
X15327850Y-13328900D01*
X15277850Y-13378900D01*
X15327850Y-13428900D01*
X15327850Y-13682900D02*
X15377850Y-13632900D01*
X15327850Y-13582900D01*
X15277850Y-13632900D01*
X15327850Y-13682900D01*
X15327850Y-13936900D02*
X15377850Y-13886900D01*
X15327850Y-13836900D01*
X15277850Y-13886900D01*
X15327850Y-13936900D01*
X15327850Y-14190900D02*
X15377850Y-14140900D01*
X15327850Y-14090900D01*
X15277850Y-14140900D01*
X15327850Y-14190900D01*
X15327850Y-14444900D02*
X15377850Y-14394900D01*
X15327850Y-14344900D01*
X15277850Y-14394900D01*
X15327850Y-14444900D01*
X15327850Y-14698900D02*
X15377850Y-14648900D01*
X15327850Y-14598900D01*
X15277850Y-14648900D01*
X15327850Y-14698900D01*
X15327850Y-14952900D02*
X15377850Y-14902900D01*
X15327850Y-14852900D01*
X15277850Y-14902900D01*
X15327850Y-14952900D01*
X16089850Y-14952900D02*
X16139850Y-14902900D01*
X16089850Y-14852900D01*
X16039850Y-14902900D01*
X16089850Y-14952900D01*
X16343850Y-14952900D02*
X16393850Y-14902900D01*
X16343850Y-14852900D01*
X16293850Y-14902900D01*
X16343850Y-14952900D01*
X16597850Y-13174900D02*
X16647850Y-13124900D01*
X16597850Y-13074900D01*
X16547850Y-13124900D01*
X16597850Y-13174900D01*
X16597850Y-13428900D02*
X16647850Y-13378900D01*
X16597850Y-13328900D01*
X16547850Y-13378900D01*
X16597850Y-13428900D01*
X16597850Y-13682900D02*
X16647850Y-13632900D01*
X16597850Y-13582900D01*
X16547850Y-13632900D01*
X16597850Y-13682900D01*
X16597850Y-13936900D02*
X16647850Y-13886900D01*
X16597850Y-13836900D01*
X16547850Y-13886900D01*
X16597850Y-13936900D01*
X16597850Y-14190900D02*
X16647850Y-14140900D01*
X16597850Y-14090900D01*
X16547850Y-14140900D01*
X16597850Y-14190900D01*
X16597850Y-14444900D02*
X16647850Y-14394900D01*
X16597850Y-14344900D01*
X16547850Y-14394900D01*
X16597850Y-14444900D01*
X16597850Y-14698900D02*
X16647850Y-14648900D01*
X16597850Y-14598900D01*
X16547850Y-14648900D01*
X16597850Y-14698900D01*
X16597850Y-14952900D02*
X16647850Y-14902900D01*
X16597850Y-14852900D01*
X16547850Y-14902900D01*
X16597850Y-14952900D01*
X17345850Y-11004150D02*
X17395850Y-10954150D01*
X17345850Y-10904150D01*
X17295850Y-10954150D01*
X17345850Y-11004150D01*
X17599850Y-11004150D02*
X17649850Y-10954150D01*
X17599850Y-10904150D01*
X17549850Y-10954150D01*
X17599850Y-11004150D01*
X17853850Y-11004150D02*
X17903850Y-10954150D01*
X17853850Y-10904150D01*
X17803850Y-10954150D01*
X17853850Y-11004150D01*
X18107850Y-11004150D02*
X18157850Y-10954150D01*
X18107850Y-10904150D01*
X18057850Y-10954150D01*
X18107850Y-11004150D01*
X18361850Y-11004150D02*
X18411850Y-10954150D01*
X18361850Y-10904150D01*
X18311850Y-10954150D01*
X18361850Y-11004150D01*
X18615850Y-11004150D02*
X18665850Y-10954150D01*
X18615850Y-10904150D01*
X18565850Y-10954150D01*
X18615850Y-11004150D01*
X18869850Y-11004150D02*
X18919850Y-10954150D01*
X18869850Y-10904150D01*
X18819850Y-10954150D01*
X18869850Y-11004150D01*
X19123850Y-11004150D02*
X19173850Y-10954150D01*
X19123850Y-10904150D01*
X19073850Y-10954150D01*
X19123850Y-11004150D01*
X19377850Y-11004150D02*
X19427850Y-10954150D01*
X19377850Y-10904150D01*
X19327850Y-10954150D01*
X19377850Y-11004150D01*
X19631850Y-11004150D02*
X19681850Y-10954150D01*
X19631850Y-10904150D01*
X19581850Y-10954150D01*
X19631850Y-11004150D01*
X19885850Y-11004150D02*
X19935850Y-10954150D01*
X19885850Y-10904150D01*
X19835850Y-10954150D01*
X19885850Y-11004150D01*
X20139850Y-11004150D02*
X20189850Y-10954150D01*
X20139850Y-10904150D01*
X20089850Y-10954150D01*
X20139850Y-11004150D01*
D13*
X10990850Y-9194150D02*
X11210850Y-9414150D01*
X11210850Y-9194150D02*
X10990850Y-9414150D01*
X11210850Y-9304150D02*
G75*
G02*
X10990850Y-9304150I-110000J0D01*
G01*
X10990850Y-9304150D02*
G75*
G02*
X11210850Y-9304150I110000J0D01*
G01*
X10990850Y-12294150D02*
X11210850Y-12514150D01*
X11210850Y-12294150D02*
X10990850Y-12514150D01*
X11210850Y-12404150D02*
G75*
G02*
X10990850Y-12404150I-110000J0D01*
G01*
X10990850Y-12404150D02*
G75*
G02*
X11210850Y-12404150I110000J0D01*
G01*
X16190850Y-9194150D02*
X16410850Y-9414150D01*
X16410850Y-9194150D02*
X16190850Y-9414150D01*
X16410850Y-9304150D02*
G75*
G02*
X16190850Y-9304150I-110000J0D01*
G01*
X16190850Y-9304150D02*
G75*
G02*
X16410850Y-9304150I110000J0D01*
G01*
X16190850Y-12344150D02*
X16410850Y-12564150D01*
X16410850Y-12344150D02*
X16190850Y-12564150D01*
X16410850Y-12454150D02*
G75*
G02*
X16190850Y-12454150I-110000J0D01*
G01*
X16190850Y-12454150D02*
G75*
G02*
X16410850Y-12454150I110000J0D01*
G01*
D14*
X9765850Y-9029150D02*
X10215850Y-9479150D01*
X10215850Y-9029150D02*
X9765850Y-9479150D01*
X9990850Y-9029150D02*
X9990850Y-9479150D01*
X9765850Y-9254150D02*
X10215850Y-9254150D01*
X9765850Y-9749150D02*
X10215850Y-10199150D01*
X10215850Y-9749150D02*
X9765850Y-10199150D01*
X9990850Y-9749150D02*
X9990850Y-10199150D01*
X9765850Y-9974150D02*
X10215850Y-9974150D01*
D11*
X9674127Y-16128884D02*
X9674127Y-15928884D01*
X9674127Y-15928884D02*
X9721746Y-15928884D01*
X9721746Y-15928884D02*
X9750317Y-15938408D01*
X9750317Y-15938408D02*
X9769365Y-15957455D01*
X9769365Y-15957455D02*
X9778889Y-15976503D01*
X9778889Y-15976503D02*
X9788413Y-16014598D01*
X9788413Y-16014598D02*
X9788413Y-16043169D01*
X9788413Y-16043169D02*
X9778889Y-16081265D01*
X9778889Y-16081265D02*
X9769365Y-16100312D01*
X9769365Y-16100312D02*
X9750317Y-16119360D01*
X9750317Y-16119360D02*
X9721746Y-16128884D01*
X9721746Y-16128884D02*
X9674127Y-16128884D01*
X9874127Y-16128884D02*
X9874127Y-15995550D01*
X9874127Y-16033646D02*
X9883651Y-16014598D01*
X9883651Y-16014598D02*
X9893174Y-16005074D01*
X9893174Y-16005074D02*
X9912222Y-15995550D01*
X9912222Y-15995550D02*
X9931270Y-15995550D01*
X9997936Y-16128884D02*
X9997936Y-15995550D01*
X9997936Y-15928884D02*
X9988413Y-15938408D01*
X9988413Y-15938408D02*
X9997936Y-15947931D01*
X9997936Y-15947931D02*
X10007460Y-15938408D01*
X10007460Y-15938408D02*
X9997936Y-15928884D01*
X9997936Y-15928884D02*
X9997936Y-15947931D01*
X10121746Y-16128884D02*
X10102698Y-16119360D01*
X10102698Y-16119360D02*
X10093174Y-16100312D01*
X10093174Y-16100312D02*
X10093174Y-15928884D01*
X10226508Y-16128884D02*
X10207460Y-16119360D01*
X10207460Y-16119360D02*
X10197936Y-16100312D01*
X10197936Y-16100312D02*
X10197936Y-15928884D01*
X10455079Y-16128884D02*
X10455079Y-15928884D01*
X10455079Y-15928884D02*
X10521746Y-16071741D01*
X10521746Y-16071741D02*
X10588413Y-15928884D01*
X10588413Y-15928884D02*
X10588413Y-16128884D01*
X10769365Y-16128884D02*
X10769365Y-16024122D01*
X10769365Y-16024122D02*
X10759841Y-16005074D01*
X10759841Y-16005074D02*
X10740794Y-15995550D01*
X10740794Y-15995550D02*
X10702698Y-15995550D01*
X10702698Y-15995550D02*
X10683651Y-16005074D01*
X10769365Y-16119360D02*
X10750317Y-16128884D01*
X10750317Y-16128884D02*
X10702698Y-16128884D01*
X10702698Y-16128884D02*
X10683651Y-16119360D01*
X10683651Y-16119360D02*
X10674127Y-16100312D01*
X10674127Y-16100312D02*
X10674127Y-16081265D01*
X10674127Y-16081265D02*
X10683651Y-16062217D01*
X10683651Y-16062217D02*
X10702698Y-16052693D01*
X10702698Y-16052693D02*
X10750317Y-16052693D01*
X10750317Y-16052693D02*
X10769365Y-16043169D01*
X10864603Y-15995550D02*
X10864603Y-16195550D01*
X10864603Y-16005074D02*
X10883651Y-15995550D01*
X10883651Y-15995550D02*
X10921746Y-15995550D01*
X10921746Y-15995550D02*
X10940794Y-16005074D01*
X10940794Y-16005074D02*
X10950317Y-16014598D01*
X10950317Y-16014598D02*
X10959841Y-16033646D01*
X10959841Y-16033646D02*
X10959841Y-16090788D01*
X10959841Y-16090788D02*
X10950317Y-16109836D01*
X10950317Y-16109836D02*
X10940794Y-16119360D01*
X10940794Y-16119360D02*
X10921746Y-16128884D01*
X10921746Y-16128884D02*
X10883651Y-16128884D01*
X10883651Y-16128884D02*
X10864603Y-16119360D01*
X11045555Y-16109836D02*
X11055079Y-16119360D01*
X11055079Y-16119360D02*
X11045555Y-16128884D01*
X11045555Y-16128884D02*
X11036032Y-16119360D01*
X11036032Y-16119360D02*
X11045555Y-16109836D01*
X11045555Y-16109836D02*
X11045555Y-16128884D01*
X11045555Y-16005074D02*
X11055079Y-16014598D01*
X11055079Y-16014598D02*
X11045555Y-16024122D01*
X11045555Y-16024122D02*
X11036032Y-16014598D01*
X11036032Y-16014598D02*
X11045555Y-16005074D01*
X11045555Y-16005074D02*
X11045555Y-16024122D01*
D12*
X9393350Y-16447400D02*
X9413350Y-16467400D01*
X9413350Y-16447400D02*
X9393350Y-16467400D01*
D11*
X9712222Y-16348884D02*
X9731270Y-16348884D01*
X9731270Y-16348884D02*
X9750317Y-16358408D01*
X9750317Y-16358408D02*
X9759841Y-16367931D01*
X9759841Y-16367931D02*
X9769365Y-16386979D01*
X9769365Y-16386979D02*
X9778889Y-16425074D01*
X9778889Y-16425074D02*
X9778889Y-16472693D01*
X9778889Y-16472693D02*
X9769365Y-16510788D01*
X9769365Y-16510788D02*
X9759841Y-16529836D01*
X9759841Y-16529836D02*
X9750317Y-16539360D01*
X9750317Y-16539360D02*
X9731270Y-16548884D01*
X9731270Y-16548884D02*
X9712222Y-16548884D01*
X9712222Y-16548884D02*
X9693174Y-16539360D01*
X9693174Y-16539360D02*
X9683651Y-16529836D01*
X9683651Y-16529836D02*
X9674127Y-16510788D01*
X9674127Y-16510788D02*
X9664603Y-16472693D01*
X9664603Y-16472693D02*
X9664603Y-16425074D01*
X9664603Y-16425074D02*
X9674127Y-16386979D01*
X9674127Y-16386979D02*
X9683651Y-16367931D01*
X9683651Y-16367931D02*
X9693174Y-16358408D01*
X9693174Y-16358408D02*
X9712222Y-16348884D01*
X9864603Y-16529836D02*
X9874127Y-16539360D01*
X9874127Y-16539360D02*
X9864603Y-16548884D01*
X9864603Y-16548884D02*
X9855079Y-16539360D01*
X9855079Y-16539360D02*
X9864603Y-16529836D01*
X9864603Y-16529836D02*
X9864603Y-16548884D01*
X9950317Y-16367931D02*
X9959841Y-16358408D01*
X9959841Y-16358408D02*
X9978889Y-16348884D01*
X9978889Y-16348884D02*
X10026508Y-16348884D01*
X10026508Y-16348884D02*
X10045555Y-16358408D01*
X10045555Y-16358408D02*
X10055079Y-16367931D01*
X10055079Y-16367931D02*
X10064603Y-16386979D01*
X10064603Y-16386979D02*
X10064603Y-16406027D01*
X10064603Y-16406027D02*
X10055079Y-16434598D01*
X10055079Y-16434598D02*
X9940794Y-16548884D01*
X9940794Y-16548884D02*
X10064603Y-16548884D01*
X10188413Y-16348884D02*
X10207460Y-16348884D01*
X10207460Y-16348884D02*
X10226508Y-16358408D01*
X10226508Y-16358408D02*
X10236032Y-16367931D01*
X10236032Y-16367931D02*
X10245555Y-16386979D01*
X10245555Y-16386979D02*
X10255079Y-16425074D01*
X10255079Y-16425074D02*
X10255079Y-16472693D01*
X10255079Y-16472693D02*
X10245555Y-16510788D01*
X10245555Y-16510788D02*
X10236032Y-16529836D01*
X10236032Y-16529836D02*
X10226508Y-16539360D01*
X10226508Y-16539360D02*
X10207460Y-16548884D01*
X10207460Y-16548884D02*
X10188413Y-16548884D01*
X10188413Y-16548884D02*
X10169365Y-16539360D01*
X10169365Y-16539360D02*
X10159841Y-16529836D01*
X10159841Y-16529836D02*
X10150317Y-16510788D01*
X10150317Y-16510788D02*
X10140794Y-16472693D01*
X10140794Y-16472693D02*
X10140794Y-16425074D01*
X10140794Y-16425074D02*
X10150317Y-16386979D01*
X10150317Y-16386979D02*
X10159841Y-16367931D01*
X10159841Y-16367931D02*
X10169365Y-16358408D01*
X10169365Y-16358408D02*
X10188413Y-16348884D01*
X10378889Y-16348884D02*
X10397936Y-16348884D01*
X10397936Y-16348884D02*
X10416984Y-16358408D01*
X10416984Y-16358408D02*
X10426508Y-16367931D01*
X10426508Y-16367931D02*
X10436032Y-16386979D01*
X10436032Y-16386979D02*
X10445555Y-16425074D01*
X10445555Y-16425074D02*
X10445555Y-16472693D01*
X10445555Y-16472693D02*
X10436032Y-16510788D01*
X10436032Y-16510788D02*
X10426508Y-16529836D01*
X10426508Y-16529836D02*
X10416984Y-16539360D01*
X10416984Y-16539360D02*
X10397936Y-16548884D01*
X10397936Y-16548884D02*
X10378889Y-16548884D01*
X10378889Y-16548884D02*
X10359841Y-16539360D01*
X10359841Y-16539360D02*
X10350317Y-16529836D01*
X10350317Y-16529836D02*
X10340794Y-16510788D01*
X10340794Y-16510788D02*
X10331270Y-16472693D01*
X10331270Y-16472693D02*
X10331270Y-16425074D01*
X10331270Y-16425074D02*
X10340794Y-16386979D01*
X10340794Y-16386979D02*
X10350317Y-16367931D01*
X10350317Y-16367931D02*
X10359841Y-16358408D01*
X10359841Y-16358408D02*
X10378889Y-16348884D01*
X10531270Y-16548884D02*
X10531270Y-16415550D01*
X10531270Y-16434598D02*
X10540794Y-16425074D01*
X10540794Y-16425074D02*
X10559841Y-16415550D01*
X10559841Y-16415550D02*
X10588413Y-16415550D01*
X10588413Y-16415550D02*
X10607460Y-16425074D01*
X10607460Y-16425074D02*
X10616984Y-16444122D01*
X10616984Y-16444122D02*
X10616984Y-16548884D01*
X10616984Y-16444122D02*
X10626508Y-16425074D01*
X10626508Y-16425074D02*
X10645555Y-16415550D01*
X10645555Y-16415550D02*
X10674127Y-16415550D01*
X10674127Y-16415550D02*
X10693175Y-16425074D01*
X10693175Y-16425074D02*
X10702698Y-16444122D01*
X10702698Y-16444122D02*
X10702698Y-16548884D01*
X10797936Y-16548884D02*
X10797936Y-16415550D01*
X10797936Y-16434598D02*
X10807460Y-16425074D01*
X10807460Y-16425074D02*
X10826508Y-16415550D01*
X10826508Y-16415550D02*
X10855079Y-16415550D01*
X10855079Y-16415550D02*
X10874127Y-16425074D01*
X10874127Y-16425074D02*
X10883651Y-16444122D01*
X10883651Y-16444122D02*
X10883651Y-16548884D01*
X10883651Y-16444122D02*
X10893175Y-16425074D01*
X10893175Y-16425074D02*
X10912222Y-16415550D01*
X10912222Y-16415550D02*
X10940794Y-16415550D01*
X10940794Y-16415550D02*
X10959841Y-16425074D01*
X10959841Y-16425074D02*
X10969365Y-16444122D01*
X10969365Y-16444122D02*
X10969365Y-16548884D01*
X11359841Y-16339360D02*
X11188413Y-16596503D01*
X11616984Y-16348884D02*
X11636032Y-16348884D01*
X11636032Y-16348884D02*
X11655079Y-16358408D01*
X11655079Y-16358408D02*
X11664603Y-16367931D01*
X11664603Y-16367931D02*
X11674127Y-16386979D01*
X11674127Y-16386979D02*
X11683651Y-16425074D01*
X11683651Y-16425074D02*
X11683651Y-16472693D01*
X11683651Y-16472693D02*
X11674127Y-16510788D01*
X11674127Y-16510788D02*
X11664603Y-16529836D01*
X11664603Y-16529836D02*
X11655079Y-16539360D01*
X11655079Y-16539360D02*
X11636032Y-16548884D01*
X11636032Y-16548884D02*
X11616984Y-16548884D01*
X11616984Y-16548884D02*
X11597936Y-16539360D01*
X11597936Y-16539360D02*
X11588413Y-16529836D01*
X11588413Y-16529836D02*
X11578889Y-16510788D01*
X11578889Y-16510788D02*
X11569365Y-16472693D01*
X11569365Y-16472693D02*
X11569365Y-16425074D01*
X11569365Y-16425074D02*
X11578889Y-16386979D01*
X11578889Y-16386979D02*
X11588413Y-16367931D01*
X11588413Y-16367931D02*
X11597936Y-16358408D01*
X11597936Y-16358408D02*
X11616984Y-16348884D01*
X11769365Y-16529836D02*
X11778889Y-16539360D01*
X11778889Y-16539360D02*
X11769365Y-16548884D01*
X11769365Y-16548884D02*
X11759841Y-16539360D01*
X11759841Y-16539360D02*
X11769365Y-16529836D01*
X11769365Y-16529836D02*
X11769365Y-16548884D01*
X11902698Y-16348884D02*
X11921746Y-16348884D01*
X11921746Y-16348884D02*
X11940794Y-16358408D01*
X11940794Y-16358408D02*
X11950317Y-16367931D01*
X11950317Y-16367931D02*
X11959841Y-16386979D01*
X11959841Y-16386979D02*
X11969365Y-16425074D01*
X11969365Y-16425074D02*
X11969365Y-16472693D01*
X11969365Y-16472693D02*
X11959841Y-16510788D01*
X11959841Y-16510788D02*
X11950317Y-16529836D01*
X11950317Y-16529836D02*
X11940794Y-16539360D01*
X11940794Y-16539360D02*
X11921746Y-16548884D01*
X11921746Y-16548884D02*
X11902698Y-16548884D01*
X11902698Y-16548884D02*
X11883651Y-16539360D01*
X11883651Y-16539360D02*
X11874127Y-16529836D01*
X11874127Y-16529836D02*
X11864603Y-16510788D01*
X11864603Y-16510788D02*
X11855079Y-16472693D01*
X11855079Y-16472693D02*
X11855079Y-16425074D01*
X11855079Y-16425074D02*
X11864603Y-16386979D01*
X11864603Y-16386979D02*
X11874127Y-16367931D01*
X11874127Y-16367931D02*
X11883651Y-16358408D01*
X11883651Y-16358408D02*
X11902698Y-16348884D01*
X12093175Y-16348884D02*
X12112222Y-16348884D01*
X12112222Y-16348884D02*
X12131270Y-16358408D01*
X12131270Y-16358408D02*
X12140794Y-16367931D01*
X12140794Y-16367931D02*
X12150317Y-16386979D01*
X12150317Y-16386979D02*
X12159841Y-16425074D01*
X12159841Y-16425074D02*
X12159841Y-16472693D01*
X12159841Y-16472693D02*
X12150317Y-16510788D01*
X12150317Y-16510788D02*
X12140794Y-16529836D01*
X12140794Y-16529836D02*
X12131270Y-16539360D01*
X12131270Y-16539360D02*
X12112222Y-16548884D01*
X12112222Y-16548884D02*
X12093175Y-16548884D01*
X12093175Y-16548884D02*
X12074127Y-16539360D01*
X12074127Y-16539360D02*
X12064603Y-16529836D01*
X12064603Y-16529836D02*
X12055079Y-16510788D01*
X12055079Y-16510788D02*
X12045556Y-16472693D01*
X12045556Y-16472693D02*
X12045556Y-16425074D01*
X12045556Y-16425074D02*
X12055079Y-16386979D01*
X12055079Y-16386979D02*
X12064603Y-16367931D01*
X12064603Y-16367931D02*
X12074127Y-16358408D01*
X12074127Y-16358408D02*
X12093175Y-16348884D01*
X12226508Y-16348884D02*
X12359841Y-16348884D01*
X12359841Y-16348884D02*
X12274127Y-16548884D01*
X12445556Y-16548884D02*
X12483651Y-16548884D01*
X12483651Y-16548884D02*
X12502698Y-16539360D01*
X12502698Y-16539360D02*
X12512222Y-16529836D01*
X12512222Y-16529836D02*
X12531270Y-16501265D01*
X12531270Y-16501265D02*
X12540794Y-16463169D01*
X12540794Y-16463169D02*
X12540794Y-16386979D01*
X12540794Y-16386979D02*
X12531270Y-16367931D01*
X12531270Y-16367931D02*
X12521746Y-16358408D01*
X12521746Y-16358408D02*
X12502698Y-16348884D01*
X12502698Y-16348884D02*
X12464603Y-16348884D01*
X12464603Y-16348884D02*
X12445556Y-16358408D01*
X12445556Y-16358408D02*
X12436032Y-16367931D01*
X12436032Y-16367931D02*
X12426508Y-16386979D01*
X12426508Y-16386979D02*
X12426508Y-16434598D01*
X12426508Y-16434598D02*
X12436032Y-16453646D01*
X12436032Y-16453646D02*
X12445556Y-16463169D01*
X12445556Y-16463169D02*
X12464603Y-16472693D01*
X12464603Y-16472693D02*
X12502698Y-16472693D01*
X12502698Y-16472693D02*
X12521746Y-16463169D01*
X12521746Y-16463169D02*
X12531270Y-16453646D01*
X12531270Y-16453646D02*
X12540794Y-16434598D01*
X12616984Y-16348884D02*
X12616984Y-16386979D01*
X12693175Y-16348884D02*
X12693175Y-16386979D01*
X12988413Y-16625074D02*
X12978889Y-16615550D01*
X12978889Y-16615550D02*
X12959841Y-16586979D01*
X12959841Y-16586979D02*
X12950318Y-16567931D01*
X12950318Y-16567931D02*
X12940794Y-16539360D01*
X12940794Y-16539360D02*
X12931270Y-16491741D01*
X12931270Y-16491741D02*
X12931270Y-16453646D01*
X12931270Y-16453646D02*
X12940794Y-16406027D01*
X12940794Y-16406027D02*
X12950318Y-16377455D01*
X12950318Y-16377455D02*
X12959841Y-16358408D01*
X12959841Y-16358408D02*
X12978889Y-16329836D01*
X12978889Y-16329836D02*
X12988413Y-16320312D01*
X13169365Y-16548884D02*
X13055079Y-16548884D01*
X13112222Y-16548884D02*
X13112222Y-16348884D01*
X13112222Y-16348884D02*
X13093175Y-16377455D01*
X13093175Y-16377455D02*
X13074127Y-16396503D01*
X13074127Y-16396503D02*
X13055079Y-16406027D01*
X13293175Y-16348884D02*
X13312222Y-16348884D01*
X13312222Y-16348884D02*
X13331270Y-16358408D01*
X13331270Y-16358408D02*
X13340794Y-16367931D01*
X13340794Y-16367931D02*
X13350318Y-16386979D01*
X13350318Y-16386979D02*
X13359841Y-16425074D01*
X13359841Y-16425074D02*
X13359841Y-16472693D01*
X13359841Y-16472693D02*
X13350318Y-16510788D01*
X13350318Y-16510788D02*
X13340794Y-16529836D01*
X13340794Y-16529836D02*
X13331270Y-16539360D01*
X13331270Y-16539360D02*
X13312222Y-16548884D01*
X13312222Y-16548884D02*
X13293175Y-16548884D01*
X13293175Y-16548884D02*
X13274127Y-16539360D01*
X13274127Y-16539360D02*
X13264603Y-16529836D01*
X13264603Y-16529836D02*
X13255079Y-16510788D01*
X13255079Y-16510788D02*
X13245556Y-16472693D01*
X13245556Y-16472693D02*
X13245556Y-16425074D01*
X13245556Y-16425074D02*
X13255079Y-16386979D01*
X13255079Y-16386979D02*
X13264603Y-16367931D01*
X13264603Y-16367931D02*
X13274127Y-16358408D01*
X13274127Y-16358408D02*
X13293175Y-16348884D01*
X13540794Y-16348884D02*
X13445556Y-16348884D01*
X13445556Y-16348884D02*
X13436032Y-16444122D01*
X13436032Y-16444122D02*
X13445556Y-16434598D01*
X13445556Y-16434598D02*
X13464603Y-16425074D01*
X13464603Y-16425074D02*
X13512222Y-16425074D01*
X13512222Y-16425074D02*
X13531270Y-16434598D01*
X13531270Y-16434598D02*
X13540794Y-16444122D01*
X13540794Y-16444122D02*
X13550318Y-16463169D01*
X13550318Y-16463169D02*
X13550318Y-16510788D01*
X13550318Y-16510788D02*
X13540794Y-16529836D01*
X13540794Y-16529836D02*
X13531270Y-16539360D01*
X13531270Y-16539360D02*
X13512222Y-16548884D01*
X13512222Y-16548884D02*
X13464603Y-16548884D01*
X13464603Y-16548884D02*
X13445556Y-16539360D01*
X13445556Y-16539360D02*
X13436032Y-16529836D01*
X13788413Y-16548884D02*
X13788413Y-16348884D01*
X13874127Y-16548884D02*
X13874127Y-16444122D01*
X13874127Y-16444122D02*
X13864603Y-16425074D01*
X13864603Y-16425074D02*
X13845556Y-16415550D01*
X13845556Y-16415550D02*
X13816984Y-16415550D01*
X13816984Y-16415550D02*
X13797937Y-16425074D01*
X13797937Y-16425074D02*
X13788413Y-16434598D01*
X13997937Y-16548884D02*
X13978889Y-16539360D01*
X13978889Y-16539360D02*
X13969365Y-16529836D01*
X13969365Y-16529836D02*
X13959841Y-16510788D01*
X13959841Y-16510788D02*
X13959841Y-16453646D01*
X13959841Y-16453646D02*
X13969365Y-16434598D01*
X13969365Y-16434598D02*
X13978889Y-16425074D01*
X13978889Y-16425074D02*
X13997937Y-16415550D01*
X13997937Y-16415550D02*
X14026508Y-16415550D01*
X14026508Y-16415550D02*
X14045556Y-16425074D01*
X14045556Y-16425074D02*
X14055080Y-16434598D01*
X14055080Y-16434598D02*
X14064603Y-16453646D01*
X14064603Y-16453646D02*
X14064603Y-16510788D01*
X14064603Y-16510788D02*
X14055080Y-16529836D01*
X14055080Y-16529836D02*
X14045556Y-16539360D01*
X14045556Y-16539360D02*
X14026508Y-16548884D01*
X14026508Y-16548884D02*
X13997937Y-16548884D01*
X14178889Y-16548884D02*
X14159841Y-16539360D01*
X14159841Y-16539360D02*
X14150318Y-16520312D01*
X14150318Y-16520312D02*
X14150318Y-16348884D01*
X14331270Y-16539360D02*
X14312222Y-16548884D01*
X14312222Y-16548884D02*
X14274127Y-16548884D01*
X14274127Y-16548884D02*
X14255080Y-16539360D01*
X14255080Y-16539360D02*
X14245556Y-16520312D01*
X14245556Y-16520312D02*
X14245556Y-16444122D01*
X14245556Y-16444122D02*
X14255080Y-16425074D01*
X14255080Y-16425074D02*
X14274127Y-16415550D01*
X14274127Y-16415550D02*
X14312222Y-16415550D01*
X14312222Y-16415550D02*
X14331270Y-16425074D01*
X14331270Y-16425074D02*
X14340794Y-16444122D01*
X14340794Y-16444122D02*
X14340794Y-16463169D01*
X14340794Y-16463169D02*
X14245556Y-16482217D01*
X14416984Y-16539360D02*
X14436032Y-16548884D01*
X14436032Y-16548884D02*
X14474127Y-16548884D01*
X14474127Y-16548884D02*
X14493175Y-16539360D01*
X14493175Y-16539360D02*
X14502699Y-16520312D01*
X14502699Y-16520312D02*
X14502699Y-16510788D01*
X14502699Y-16510788D02*
X14493175Y-16491741D01*
X14493175Y-16491741D02*
X14474127Y-16482217D01*
X14474127Y-16482217D02*
X14445556Y-16482217D01*
X14445556Y-16482217D02*
X14426508Y-16472693D01*
X14426508Y-16472693D02*
X14416984Y-16453646D01*
X14416984Y-16453646D02*
X14416984Y-16444122D01*
X14416984Y-16444122D02*
X14426508Y-16425074D01*
X14426508Y-16425074D02*
X14445556Y-16415550D01*
X14445556Y-16415550D02*
X14474127Y-16415550D01*
X14474127Y-16415550D02*
X14493175Y-16425074D01*
X14569365Y-16625074D02*
X14578889Y-16615550D01*
X14578889Y-16615550D02*
X14597937Y-16586979D01*
X14597937Y-16586979D02*
X14607461Y-16567931D01*
X14607461Y-16567931D02*
X14616984Y-16539360D01*
X14616984Y-16539360D02*
X14626508Y-16491741D01*
X14626508Y-16491741D02*
X14626508Y-16453646D01*
X14626508Y-16453646D02*
X14616984Y-16406027D01*
X14616984Y-16406027D02*
X14607461Y-16377455D01*
X14607461Y-16377455D02*
X14597937Y-16358408D01*
X14597937Y-16358408D02*
X14578889Y-16329836D01*
X14578889Y-16329836D02*
X14569365Y-16320312D01*
D12*
X9413350Y-16721400D02*
G75*
G02*
X9393350Y-16721400I-10000J0D01*
G01*
X9393350Y-16721400D02*
G75*
G02*
X9413350Y-16721400I10000J0D01*
G01*
D11*
X9712222Y-16612884D02*
X9731270Y-16612884D01*
X9731270Y-16612884D02*
X9750317Y-16622408D01*
X9750317Y-16622408D02*
X9759841Y-16631931D01*
X9759841Y-16631931D02*
X9769365Y-16650979D01*
X9769365Y-16650979D02*
X9778889Y-16689074D01*
X9778889Y-16689074D02*
X9778889Y-16736693D01*
X9778889Y-16736693D02*
X9769365Y-16774788D01*
X9769365Y-16774788D02*
X9759841Y-16793836D01*
X9759841Y-16793836D02*
X9750317Y-16803360D01*
X9750317Y-16803360D02*
X9731270Y-16812884D01*
X9731270Y-16812884D02*
X9712222Y-16812884D01*
X9712222Y-16812884D02*
X9693174Y-16803360D01*
X9693174Y-16803360D02*
X9683651Y-16793836D01*
X9683651Y-16793836D02*
X9674127Y-16774788D01*
X9674127Y-16774788D02*
X9664603Y-16736693D01*
X9664603Y-16736693D02*
X9664603Y-16689074D01*
X9664603Y-16689074D02*
X9674127Y-16650979D01*
X9674127Y-16650979D02*
X9683651Y-16631931D01*
X9683651Y-16631931D02*
X9693174Y-16622408D01*
X9693174Y-16622408D02*
X9712222Y-16612884D01*
X9864603Y-16793836D02*
X9874127Y-16803360D01*
X9874127Y-16803360D02*
X9864603Y-16812884D01*
X9864603Y-16812884D02*
X9855079Y-16803360D01*
X9855079Y-16803360D02*
X9864603Y-16793836D01*
X9864603Y-16793836D02*
X9864603Y-16812884D01*
X9950317Y-16631931D02*
X9959841Y-16622408D01*
X9959841Y-16622408D02*
X9978889Y-16612884D01*
X9978889Y-16612884D02*
X10026508Y-16612884D01*
X10026508Y-16612884D02*
X10045555Y-16622408D01*
X10045555Y-16622408D02*
X10055079Y-16631931D01*
X10055079Y-16631931D02*
X10064603Y-16650979D01*
X10064603Y-16650979D02*
X10064603Y-16670027D01*
X10064603Y-16670027D02*
X10055079Y-16698598D01*
X10055079Y-16698598D02*
X9940794Y-16812884D01*
X9940794Y-16812884D02*
X10064603Y-16812884D01*
X10188413Y-16612884D02*
X10207460Y-16612884D01*
X10207460Y-16612884D02*
X10226508Y-16622408D01*
X10226508Y-16622408D02*
X10236032Y-16631931D01*
X10236032Y-16631931D02*
X10245555Y-16650979D01*
X10245555Y-16650979D02*
X10255079Y-16689074D01*
X10255079Y-16689074D02*
X10255079Y-16736693D01*
X10255079Y-16736693D02*
X10245555Y-16774788D01*
X10245555Y-16774788D02*
X10236032Y-16793836D01*
X10236032Y-16793836D02*
X10226508Y-16803360D01*
X10226508Y-16803360D02*
X10207460Y-16812884D01*
X10207460Y-16812884D02*
X10188413Y-16812884D01*
X10188413Y-16812884D02*
X10169365Y-16803360D01*
X10169365Y-16803360D02*
X10159841Y-16793836D01*
X10159841Y-16793836D02*
X10150317Y-16774788D01*
X10150317Y-16774788D02*
X10140794Y-16736693D01*
X10140794Y-16736693D02*
X10140794Y-16689074D01*
X10140794Y-16689074D02*
X10150317Y-16650979D01*
X10150317Y-16650979D02*
X10159841Y-16631931D01*
X10159841Y-16631931D02*
X10169365Y-16622408D01*
X10169365Y-16622408D02*
X10188413Y-16612884D01*
X10378889Y-16612884D02*
X10397936Y-16612884D01*
X10397936Y-16612884D02*
X10416984Y-16622408D01*
X10416984Y-16622408D02*
X10426508Y-16631931D01*
X10426508Y-16631931D02*
X10436032Y-16650979D01*
X10436032Y-16650979D02*
X10445555Y-16689074D01*
X10445555Y-16689074D02*
X10445555Y-16736693D01*
X10445555Y-16736693D02*
X10436032Y-16774788D01*
X10436032Y-16774788D02*
X10426508Y-16793836D01*
X10426508Y-16793836D02*
X10416984Y-16803360D01*
X10416984Y-16803360D02*
X10397936Y-16812884D01*
X10397936Y-16812884D02*
X10378889Y-16812884D01*
X10378889Y-16812884D02*
X10359841Y-16803360D01*
X10359841Y-16803360D02*
X10350317Y-16793836D01*
X10350317Y-16793836D02*
X10340794Y-16774788D01*
X10340794Y-16774788D02*
X10331270Y-16736693D01*
X10331270Y-16736693D02*
X10331270Y-16689074D01*
X10331270Y-16689074D02*
X10340794Y-16650979D01*
X10340794Y-16650979D02*
X10350317Y-16631931D01*
X10350317Y-16631931D02*
X10359841Y-16622408D01*
X10359841Y-16622408D02*
X10378889Y-16612884D01*
X10531270Y-16812884D02*
X10531270Y-16679550D01*
X10531270Y-16698598D02*
X10540794Y-16689074D01*
X10540794Y-16689074D02*
X10559841Y-16679550D01*
X10559841Y-16679550D02*
X10588413Y-16679550D01*
X10588413Y-16679550D02*
X10607460Y-16689074D01*
X10607460Y-16689074D02*
X10616984Y-16708122D01*
X10616984Y-16708122D02*
X10616984Y-16812884D01*
X10616984Y-16708122D02*
X10626508Y-16689074D01*
X10626508Y-16689074D02*
X10645555Y-16679550D01*
X10645555Y-16679550D02*
X10674127Y-16679550D01*
X10674127Y-16679550D02*
X10693175Y-16689074D01*
X10693175Y-16689074D02*
X10702698Y-16708122D01*
X10702698Y-16708122D02*
X10702698Y-16812884D01*
X10797936Y-16812884D02*
X10797936Y-16679550D01*
X10797936Y-16698598D02*
X10807460Y-16689074D01*
X10807460Y-16689074D02*
X10826508Y-16679550D01*
X10826508Y-16679550D02*
X10855079Y-16679550D01*
X10855079Y-16679550D02*
X10874127Y-16689074D01*
X10874127Y-16689074D02*
X10883651Y-16708122D01*
X10883651Y-16708122D02*
X10883651Y-16812884D01*
X10883651Y-16708122D02*
X10893175Y-16689074D01*
X10893175Y-16689074D02*
X10912222Y-16679550D01*
X10912222Y-16679550D02*
X10940794Y-16679550D01*
X10940794Y-16679550D02*
X10959841Y-16689074D01*
X10959841Y-16689074D02*
X10969365Y-16708122D01*
X10969365Y-16708122D02*
X10969365Y-16812884D01*
X11359841Y-16603360D02*
X11188413Y-16860503D01*
X11616984Y-16612884D02*
X11636032Y-16612884D01*
X11636032Y-16612884D02*
X11655079Y-16622408D01*
X11655079Y-16622408D02*
X11664603Y-16631931D01*
X11664603Y-16631931D02*
X11674127Y-16650979D01*
X11674127Y-16650979D02*
X11683651Y-16689074D01*
X11683651Y-16689074D02*
X11683651Y-16736693D01*
X11683651Y-16736693D02*
X11674127Y-16774788D01*
X11674127Y-16774788D02*
X11664603Y-16793836D01*
X11664603Y-16793836D02*
X11655079Y-16803360D01*
X11655079Y-16803360D02*
X11636032Y-16812884D01*
X11636032Y-16812884D02*
X11616984Y-16812884D01*
X11616984Y-16812884D02*
X11597936Y-16803360D01*
X11597936Y-16803360D02*
X11588413Y-16793836D01*
X11588413Y-16793836D02*
X11578889Y-16774788D01*
X11578889Y-16774788D02*
X11569365Y-16736693D01*
X11569365Y-16736693D02*
X11569365Y-16689074D01*
X11569365Y-16689074D02*
X11578889Y-16650979D01*
X11578889Y-16650979D02*
X11588413Y-16631931D01*
X11588413Y-16631931D02*
X11597936Y-16622408D01*
X11597936Y-16622408D02*
X11616984Y-16612884D01*
X11769365Y-16793836D02*
X11778889Y-16803360D01*
X11778889Y-16803360D02*
X11769365Y-16812884D01*
X11769365Y-16812884D02*
X11759841Y-16803360D01*
X11759841Y-16803360D02*
X11769365Y-16793836D01*
X11769365Y-16793836D02*
X11769365Y-16812884D01*
X11902698Y-16612884D02*
X11921746Y-16612884D01*
X11921746Y-16612884D02*
X11940794Y-16622408D01*
X11940794Y-16622408D02*
X11950317Y-16631931D01*
X11950317Y-16631931D02*
X11959841Y-16650979D01*
X11959841Y-16650979D02*
X11969365Y-16689074D01*
X11969365Y-16689074D02*
X11969365Y-16736693D01*
X11969365Y-16736693D02*
X11959841Y-16774788D01*
X11959841Y-16774788D02*
X11950317Y-16793836D01*
X11950317Y-16793836D02*
X11940794Y-16803360D01*
X11940794Y-16803360D02*
X11921746Y-16812884D01*
X11921746Y-16812884D02*
X11902698Y-16812884D01*
X11902698Y-16812884D02*
X11883651Y-16803360D01*
X11883651Y-16803360D02*
X11874127Y-16793836D01*
X11874127Y-16793836D02*
X11864603Y-16774788D01*
X11864603Y-16774788D02*
X11855079Y-16736693D01*
X11855079Y-16736693D02*
X11855079Y-16689074D01*
X11855079Y-16689074D02*
X11864603Y-16650979D01*
X11864603Y-16650979D02*
X11874127Y-16631931D01*
X11874127Y-16631931D02*
X11883651Y-16622408D01*
X11883651Y-16622408D02*
X11902698Y-16612884D01*
X12093175Y-16612884D02*
X12112222Y-16612884D01*
X12112222Y-16612884D02*
X12131270Y-16622408D01*
X12131270Y-16622408D02*
X12140794Y-16631931D01*
X12140794Y-16631931D02*
X12150317Y-16650979D01*
X12150317Y-16650979D02*
X12159841Y-16689074D01*
X12159841Y-16689074D02*
X12159841Y-16736693D01*
X12159841Y-16736693D02*
X12150317Y-16774788D01*
X12150317Y-16774788D02*
X12140794Y-16793836D01*
X12140794Y-16793836D02*
X12131270Y-16803360D01*
X12131270Y-16803360D02*
X12112222Y-16812884D01*
X12112222Y-16812884D02*
X12093175Y-16812884D01*
X12093175Y-16812884D02*
X12074127Y-16803360D01*
X12074127Y-16803360D02*
X12064603Y-16793836D01*
X12064603Y-16793836D02*
X12055079Y-16774788D01*
X12055079Y-16774788D02*
X12045556Y-16736693D01*
X12045556Y-16736693D02*
X12045556Y-16689074D01*
X12045556Y-16689074D02*
X12055079Y-16650979D01*
X12055079Y-16650979D02*
X12064603Y-16631931D01*
X12064603Y-16631931D02*
X12074127Y-16622408D01*
X12074127Y-16622408D02*
X12093175Y-16612884D01*
X12226508Y-16612884D02*
X12359841Y-16612884D01*
X12359841Y-16612884D02*
X12274127Y-16812884D01*
X12445556Y-16812884D02*
X12483651Y-16812884D01*
X12483651Y-16812884D02*
X12502698Y-16803360D01*
X12502698Y-16803360D02*
X12512222Y-16793836D01*
X12512222Y-16793836D02*
X12531270Y-16765265D01*
X12531270Y-16765265D02*
X12540794Y-16727169D01*
X12540794Y-16727169D02*
X12540794Y-16650979D01*
X12540794Y-16650979D02*
X12531270Y-16631931D01*
X12531270Y-16631931D02*
X12521746Y-16622408D01*
X12521746Y-16622408D02*
X12502698Y-16612884D01*
X12502698Y-16612884D02*
X12464603Y-16612884D01*
X12464603Y-16612884D02*
X12445556Y-16622408D01*
X12445556Y-16622408D02*
X12436032Y-16631931D01*
X12436032Y-16631931D02*
X12426508Y-16650979D01*
X12426508Y-16650979D02*
X12426508Y-16698598D01*
X12426508Y-16698598D02*
X12436032Y-16717646D01*
X12436032Y-16717646D02*
X12445556Y-16727169D01*
X12445556Y-16727169D02*
X12464603Y-16736693D01*
X12464603Y-16736693D02*
X12502698Y-16736693D01*
X12502698Y-16736693D02*
X12521746Y-16727169D01*
X12521746Y-16727169D02*
X12531270Y-16717646D01*
X12531270Y-16717646D02*
X12540794Y-16698598D01*
X12616984Y-16612884D02*
X12616984Y-16650979D01*
X12693175Y-16612884D02*
X12693175Y-16650979D01*
X12988413Y-16889074D02*
X12978889Y-16879550D01*
X12978889Y-16879550D02*
X12959841Y-16850979D01*
X12959841Y-16850979D02*
X12950318Y-16831931D01*
X12950318Y-16831931D02*
X12940794Y-16803360D01*
X12940794Y-16803360D02*
X12931270Y-16755741D01*
X12931270Y-16755741D02*
X12931270Y-16717646D01*
X12931270Y-16717646D02*
X12940794Y-16670027D01*
X12940794Y-16670027D02*
X12950318Y-16641455D01*
X12950318Y-16641455D02*
X12959841Y-16622408D01*
X12959841Y-16622408D02*
X12978889Y-16593836D01*
X12978889Y-16593836D02*
X12988413Y-16584312D01*
X13055079Y-16631931D02*
X13064603Y-16622408D01*
X13064603Y-16622408D02*
X13083651Y-16612884D01*
X13083651Y-16612884D02*
X13131270Y-16612884D01*
X13131270Y-16612884D02*
X13150318Y-16622408D01*
X13150318Y-16622408D02*
X13159841Y-16631931D01*
X13159841Y-16631931D02*
X13169365Y-16650979D01*
X13169365Y-16650979D02*
X13169365Y-16670027D01*
X13169365Y-16670027D02*
X13159841Y-16698598D01*
X13159841Y-16698598D02*
X13045556Y-16812884D01*
X13045556Y-16812884D02*
X13169365Y-16812884D01*
X13340794Y-16679550D02*
X13340794Y-16812884D01*
X13293175Y-16603360D02*
X13245556Y-16746217D01*
X13245556Y-16746217D02*
X13369365Y-16746217D01*
X13597937Y-16812884D02*
X13597937Y-16612884D01*
X13683651Y-16812884D02*
X13683651Y-16708122D01*
X13683651Y-16708122D02*
X13674127Y-16689074D01*
X13674127Y-16689074D02*
X13655080Y-16679550D01*
X13655080Y-16679550D02*
X13626508Y-16679550D01*
X13626508Y-16679550D02*
X13607460Y-16689074D01*
X13607460Y-16689074D02*
X13597937Y-16698598D01*
X13807460Y-16812884D02*
X13788413Y-16803360D01*
X13788413Y-16803360D02*
X13778889Y-16793836D01*
X13778889Y-16793836D02*
X13769365Y-16774788D01*
X13769365Y-16774788D02*
X13769365Y-16717646D01*
X13769365Y-16717646D02*
X13778889Y-16698598D01*
X13778889Y-16698598D02*
X13788413Y-16689074D01*
X13788413Y-16689074D02*
X13807460Y-16679550D01*
X13807460Y-16679550D02*
X13836032Y-16679550D01*
X13836032Y-16679550D02*
X13855080Y-16689074D01*
X13855080Y-16689074D02*
X13864603Y-16698598D01*
X13864603Y-16698598D02*
X13874127Y-16717646D01*
X13874127Y-16717646D02*
X13874127Y-16774788D01*
X13874127Y-16774788D02*
X13864603Y-16793836D01*
X13864603Y-16793836D02*
X13855080Y-16803360D01*
X13855080Y-16803360D02*
X13836032Y-16812884D01*
X13836032Y-16812884D02*
X13807460Y-16812884D01*
X13988413Y-16812884D02*
X13969365Y-16803360D01*
X13969365Y-16803360D02*
X13959841Y-16784312D01*
X13959841Y-16784312D02*
X13959841Y-16612884D01*
X14140794Y-16803360D02*
X14121746Y-16812884D01*
X14121746Y-16812884D02*
X14083651Y-16812884D01*
X14083651Y-16812884D02*
X14064603Y-16803360D01*
X14064603Y-16803360D02*
X14055080Y-16784312D01*
X14055080Y-16784312D02*
X14055080Y-16708122D01*
X14055080Y-16708122D02*
X14064603Y-16689074D01*
X14064603Y-16689074D02*
X14083651Y-16679550D01*
X14083651Y-16679550D02*
X14121746Y-16679550D01*
X14121746Y-16679550D02*
X14140794Y-16689074D01*
X14140794Y-16689074D02*
X14150318Y-16708122D01*
X14150318Y-16708122D02*
X14150318Y-16727169D01*
X14150318Y-16727169D02*
X14055080Y-16746217D01*
X14226508Y-16803360D02*
X14245556Y-16812884D01*
X14245556Y-16812884D02*
X14283651Y-16812884D01*
X14283651Y-16812884D02*
X14302699Y-16803360D01*
X14302699Y-16803360D02*
X14312222Y-16784312D01*
X14312222Y-16784312D02*
X14312222Y-16774788D01*
X14312222Y-16774788D02*
X14302699Y-16755741D01*
X14302699Y-16755741D02*
X14283651Y-16746217D01*
X14283651Y-16746217D02*
X14255080Y-16746217D01*
X14255080Y-16746217D02*
X14236032Y-16736693D01*
X14236032Y-16736693D02*
X14226508Y-16717646D01*
X14226508Y-16717646D02*
X14226508Y-16708122D01*
X14226508Y-16708122D02*
X14236032Y-16689074D01*
X14236032Y-16689074D02*
X14255080Y-16679550D01*
X14255080Y-16679550D02*
X14283651Y-16679550D01*
X14283651Y-16679550D02*
X14302699Y-16689074D01*
X14378889Y-16889074D02*
X14388413Y-16879550D01*
X14388413Y-16879550D02*
X14407461Y-16850979D01*
X14407461Y-16850979D02*
X14416984Y-16831931D01*
X14416984Y-16831931D02*
X14426508Y-16803360D01*
X14426508Y-16803360D02*
X14436032Y-16755741D01*
X14436032Y-16755741D02*
X14436032Y-16717646D01*
X14436032Y-16717646D02*
X14426508Y-16670027D01*
X14426508Y-16670027D02*
X14416984Y-16641455D01*
X14416984Y-16641455D02*
X14407461Y-16622408D01*
X14407461Y-16622408D02*
X14388413Y-16593836D01*
X14388413Y-16593836D02*
X14378889Y-16584312D01*
D12*
X9398350Y-16970400D02*
X9398350Y-17000400D01*
X9383350Y-16985400D02*
X9413350Y-16985400D01*
D11*
X9712222Y-16876884D02*
X9731270Y-16876884D01*
X9731270Y-16876884D02*
X9750317Y-16886408D01*
X9750317Y-16886408D02*
X9759841Y-16895931D01*
X9759841Y-16895931D02*
X9769365Y-16914979D01*
X9769365Y-16914979D02*
X9778889Y-16953074D01*
X9778889Y-16953074D02*
X9778889Y-17000693D01*
X9778889Y-17000693D02*
X9769365Y-17038789D01*
X9769365Y-17038789D02*
X9759841Y-17057836D01*
X9759841Y-17057836D02*
X9750317Y-17067360D01*
X9750317Y-17067360D02*
X9731270Y-17076884D01*
X9731270Y-17076884D02*
X9712222Y-17076884D01*
X9712222Y-17076884D02*
X9693174Y-17067360D01*
X9693174Y-17067360D02*
X9683651Y-17057836D01*
X9683651Y-17057836D02*
X9674127Y-17038789D01*
X9674127Y-17038789D02*
X9664603Y-17000693D01*
X9664603Y-17000693D02*
X9664603Y-16953074D01*
X9664603Y-16953074D02*
X9674127Y-16914979D01*
X9674127Y-16914979D02*
X9683651Y-16895931D01*
X9683651Y-16895931D02*
X9693174Y-16886408D01*
X9693174Y-16886408D02*
X9712222Y-16876884D01*
X9864603Y-17057836D02*
X9874127Y-17067360D01*
X9874127Y-17067360D02*
X9864603Y-17076884D01*
X9864603Y-17076884D02*
X9855079Y-17067360D01*
X9855079Y-17067360D02*
X9864603Y-17057836D01*
X9864603Y-17057836D02*
X9864603Y-17076884D01*
X9940794Y-16876884D02*
X10064603Y-16876884D01*
X10064603Y-16876884D02*
X9997936Y-16953074D01*
X9997936Y-16953074D02*
X10026508Y-16953074D01*
X10026508Y-16953074D02*
X10045555Y-16962598D01*
X10045555Y-16962598D02*
X10055079Y-16972122D01*
X10055079Y-16972122D02*
X10064603Y-16991170D01*
X10064603Y-16991170D02*
X10064603Y-17038789D01*
X10064603Y-17038789D02*
X10055079Y-17057836D01*
X10055079Y-17057836D02*
X10045555Y-17067360D01*
X10045555Y-17067360D02*
X10026508Y-17076884D01*
X10026508Y-17076884D02*
X9969365Y-17076884D01*
X9969365Y-17076884D02*
X9950317Y-17067360D01*
X9950317Y-17067360D02*
X9940794Y-17057836D01*
X10188413Y-16876884D02*
X10207460Y-16876884D01*
X10207460Y-16876884D02*
X10226508Y-16886408D01*
X10226508Y-16886408D02*
X10236032Y-16895931D01*
X10236032Y-16895931D02*
X10245555Y-16914979D01*
X10245555Y-16914979D02*
X10255079Y-16953074D01*
X10255079Y-16953074D02*
X10255079Y-17000693D01*
X10255079Y-17000693D02*
X10245555Y-17038789D01*
X10245555Y-17038789D02*
X10236032Y-17057836D01*
X10236032Y-17057836D02*
X10226508Y-17067360D01*
X10226508Y-17067360D02*
X10207460Y-17076884D01*
X10207460Y-17076884D02*
X10188413Y-17076884D01*
X10188413Y-17076884D02*
X10169365Y-17067360D01*
X10169365Y-17067360D02*
X10159841Y-17057836D01*
X10159841Y-17057836D02*
X10150317Y-17038789D01*
X10150317Y-17038789D02*
X10140794Y-17000693D01*
X10140794Y-17000693D02*
X10140794Y-16953074D01*
X10140794Y-16953074D02*
X10150317Y-16914979D01*
X10150317Y-16914979D02*
X10159841Y-16895931D01*
X10159841Y-16895931D02*
X10169365Y-16886408D01*
X10169365Y-16886408D02*
X10188413Y-16876884D01*
X10378889Y-16876884D02*
X10397936Y-16876884D01*
X10397936Y-16876884D02*
X10416984Y-16886408D01*
X10416984Y-16886408D02*
X10426508Y-16895931D01*
X10426508Y-16895931D02*
X10436032Y-16914979D01*
X10436032Y-16914979D02*
X10445555Y-16953074D01*
X10445555Y-16953074D02*
X10445555Y-17000693D01*
X10445555Y-17000693D02*
X10436032Y-17038789D01*
X10436032Y-17038789D02*
X10426508Y-17057836D01*
X10426508Y-17057836D02*
X10416984Y-17067360D01*
X10416984Y-17067360D02*
X10397936Y-17076884D01*
X10397936Y-17076884D02*
X10378889Y-17076884D01*
X10378889Y-17076884D02*
X10359841Y-17067360D01*
X10359841Y-17067360D02*
X10350317Y-17057836D01*
X10350317Y-17057836D02*
X10340794Y-17038789D01*
X10340794Y-17038789D02*
X10331270Y-17000693D01*
X10331270Y-17000693D02*
X10331270Y-16953074D01*
X10331270Y-16953074D02*
X10340794Y-16914979D01*
X10340794Y-16914979D02*
X10350317Y-16895931D01*
X10350317Y-16895931D02*
X10359841Y-16886408D01*
X10359841Y-16886408D02*
X10378889Y-16876884D01*
X10531270Y-17076884D02*
X10531270Y-16943550D01*
X10531270Y-16962598D02*
X10540794Y-16953074D01*
X10540794Y-16953074D02*
X10559841Y-16943550D01*
X10559841Y-16943550D02*
X10588413Y-16943550D01*
X10588413Y-16943550D02*
X10607460Y-16953074D01*
X10607460Y-16953074D02*
X10616984Y-16972122D01*
X10616984Y-16972122D02*
X10616984Y-17076884D01*
X10616984Y-16972122D02*
X10626508Y-16953074D01*
X10626508Y-16953074D02*
X10645555Y-16943550D01*
X10645555Y-16943550D02*
X10674127Y-16943550D01*
X10674127Y-16943550D02*
X10693175Y-16953074D01*
X10693175Y-16953074D02*
X10702698Y-16972122D01*
X10702698Y-16972122D02*
X10702698Y-17076884D01*
X10797936Y-17076884D02*
X10797936Y-16943550D01*
X10797936Y-16962598D02*
X10807460Y-16953074D01*
X10807460Y-16953074D02*
X10826508Y-16943550D01*
X10826508Y-16943550D02*
X10855079Y-16943550D01*
X10855079Y-16943550D02*
X10874127Y-16953074D01*
X10874127Y-16953074D02*
X10883651Y-16972122D01*
X10883651Y-16972122D02*
X10883651Y-17076884D01*
X10883651Y-16972122D02*
X10893175Y-16953074D01*
X10893175Y-16953074D02*
X10912222Y-16943550D01*
X10912222Y-16943550D02*
X10940794Y-16943550D01*
X10940794Y-16943550D02*
X10959841Y-16953074D01*
X10959841Y-16953074D02*
X10969365Y-16972122D01*
X10969365Y-16972122D02*
X10969365Y-17076884D01*
X11359841Y-16867360D02*
X11188413Y-17124503D01*
X11616984Y-16876884D02*
X11636032Y-16876884D01*
X11636032Y-16876884D02*
X11655079Y-16886408D01*
X11655079Y-16886408D02*
X11664603Y-16895931D01*
X11664603Y-16895931D02*
X11674127Y-16914979D01*
X11674127Y-16914979D02*
X11683651Y-16953074D01*
X11683651Y-16953074D02*
X11683651Y-17000693D01*
X11683651Y-17000693D02*
X11674127Y-17038789D01*
X11674127Y-17038789D02*
X11664603Y-17057836D01*
X11664603Y-17057836D02*
X11655079Y-17067360D01*
X11655079Y-17067360D02*
X11636032Y-17076884D01*
X11636032Y-17076884D02*
X11616984Y-17076884D01*
X11616984Y-17076884D02*
X11597936Y-17067360D01*
X11597936Y-17067360D02*
X11588413Y-17057836D01*
X11588413Y-17057836D02*
X11578889Y-17038789D01*
X11578889Y-17038789D02*
X11569365Y-17000693D01*
X11569365Y-17000693D02*
X11569365Y-16953074D01*
X11569365Y-16953074D02*
X11578889Y-16914979D01*
X11578889Y-16914979D02*
X11588413Y-16895931D01*
X11588413Y-16895931D02*
X11597936Y-16886408D01*
X11597936Y-16886408D02*
X11616984Y-16876884D01*
X11769365Y-17057836D02*
X11778889Y-17067360D01*
X11778889Y-17067360D02*
X11769365Y-17076884D01*
X11769365Y-17076884D02*
X11759841Y-17067360D01*
X11759841Y-17067360D02*
X11769365Y-17057836D01*
X11769365Y-17057836D02*
X11769365Y-17076884D01*
X11902698Y-16876884D02*
X11921746Y-16876884D01*
X11921746Y-16876884D02*
X11940794Y-16886408D01*
X11940794Y-16886408D02*
X11950317Y-16895931D01*
X11950317Y-16895931D02*
X11959841Y-16914979D01*
X11959841Y-16914979D02*
X11969365Y-16953074D01*
X11969365Y-16953074D02*
X11969365Y-17000693D01*
X11969365Y-17000693D02*
X11959841Y-17038789D01*
X11959841Y-17038789D02*
X11950317Y-17057836D01*
X11950317Y-17057836D02*
X11940794Y-17067360D01*
X11940794Y-17067360D02*
X11921746Y-17076884D01*
X11921746Y-17076884D02*
X11902698Y-17076884D01*
X11902698Y-17076884D02*
X11883651Y-17067360D01*
X11883651Y-17067360D02*
X11874127Y-17057836D01*
X11874127Y-17057836D02*
X11864603Y-17038789D01*
X11864603Y-17038789D02*
X11855079Y-17000693D01*
X11855079Y-17000693D02*
X11855079Y-16953074D01*
X11855079Y-16953074D02*
X11864603Y-16914979D01*
X11864603Y-16914979D02*
X11874127Y-16895931D01*
X11874127Y-16895931D02*
X11883651Y-16886408D01*
X11883651Y-16886408D02*
X11902698Y-16876884D01*
X12159841Y-17076884D02*
X12045556Y-17076884D01*
X12102698Y-17076884D02*
X12102698Y-16876884D01*
X12102698Y-16876884D02*
X12083651Y-16905455D01*
X12083651Y-16905455D02*
X12064603Y-16924503D01*
X12064603Y-16924503D02*
X12045556Y-16934027D01*
X12350317Y-17076884D02*
X12236032Y-17076884D01*
X12293175Y-17076884D02*
X12293175Y-16876884D01*
X12293175Y-16876884D02*
X12274127Y-16905455D01*
X12274127Y-16905455D02*
X12255079Y-16924503D01*
X12255079Y-16924503D02*
X12236032Y-16934027D01*
X12464603Y-16962598D02*
X12445556Y-16953074D01*
X12445556Y-16953074D02*
X12436032Y-16943550D01*
X12436032Y-16943550D02*
X12426508Y-16924503D01*
X12426508Y-16924503D02*
X12426508Y-16914979D01*
X12426508Y-16914979D02*
X12436032Y-16895931D01*
X12436032Y-16895931D02*
X12445556Y-16886408D01*
X12445556Y-16886408D02*
X12464603Y-16876884D01*
X12464603Y-16876884D02*
X12502698Y-16876884D01*
X12502698Y-16876884D02*
X12521746Y-16886408D01*
X12521746Y-16886408D02*
X12531270Y-16895931D01*
X12531270Y-16895931D02*
X12540794Y-16914979D01*
X12540794Y-16914979D02*
X12540794Y-16924503D01*
X12540794Y-16924503D02*
X12531270Y-16943550D01*
X12531270Y-16943550D02*
X12521746Y-16953074D01*
X12521746Y-16953074D02*
X12502698Y-16962598D01*
X12502698Y-16962598D02*
X12464603Y-16962598D01*
X12464603Y-16962598D02*
X12445556Y-16972122D01*
X12445556Y-16972122D02*
X12436032Y-16981646D01*
X12436032Y-16981646D02*
X12426508Y-17000693D01*
X12426508Y-17000693D02*
X12426508Y-17038789D01*
X12426508Y-17038789D02*
X12436032Y-17057836D01*
X12436032Y-17057836D02*
X12445556Y-17067360D01*
X12445556Y-17067360D02*
X12464603Y-17076884D01*
X12464603Y-17076884D02*
X12502698Y-17076884D01*
X12502698Y-17076884D02*
X12521746Y-17067360D01*
X12521746Y-17067360D02*
X12531270Y-17057836D01*
X12531270Y-17057836D02*
X12540794Y-17038789D01*
X12540794Y-17038789D02*
X12540794Y-17000693D01*
X12540794Y-17000693D02*
X12531270Y-16981646D01*
X12531270Y-16981646D02*
X12521746Y-16972122D01*
X12521746Y-16972122D02*
X12502698Y-16962598D01*
X12616984Y-16876884D02*
X12616984Y-16914979D01*
X12693175Y-16876884D02*
X12693175Y-16914979D01*
X12988413Y-17153074D02*
X12978889Y-17143550D01*
X12978889Y-17143550D02*
X12959841Y-17114979D01*
X12959841Y-17114979D02*
X12950318Y-17095931D01*
X12950318Y-17095931D02*
X12940794Y-17067360D01*
X12940794Y-17067360D02*
X12931270Y-17019741D01*
X12931270Y-17019741D02*
X12931270Y-16981646D01*
X12931270Y-16981646D02*
X12940794Y-16934027D01*
X12940794Y-16934027D02*
X12950318Y-16905455D01*
X12950318Y-16905455D02*
X12959841Y-16886408D01*
X12959841Y-16886408D02*
X12978889Y-16857836D01*
X12978889Y-16857836D02*
X12988413Y-16848312D01*
X13045556Y-16876884D02*
X13169365Y-16876884D01*
X13169365Y-16876884D02*
X13102698Y-16953074D01*
X13102698Y-16953074D02*
X13131270Y-16953074D01*
X13131270Y-16953074D02*
X13150318Y-16962598D01*
X13150318Y-16962598D02*
X13159841Y-16972122D01*
X13159841Y-16972122D02*
X13169365Y-16991170D01*
X13169365Y-16991170D02*
X13169365Y-17038789D01*
X13169365Y-17038789D02*
X13159841Y-17057836D01*
X13159841Y-17057836D02*
X13150318Y-17067360D01*
X13150318Y-17067360D02*
X13131270Y-17076884D01*
X13131270Y-17076884D02*
X13074127Y-17076884D01*
X13074127Y-17076884D02*
X13055079Y-17067360D01*
X13055079Y-17067360D02*
X13045556Y-17057836D01*
X13264603Y-17076884D02*
X13302698Y-17076884D01*
X13302698Y-17076884D02*
X13321746Y-17067360D01*
X13321746Y-17067360D02*
X13331270Y-17057836D01*
X13331270Y-17057836D02*
X13350318Y-17029265D01*
X13350318Y-17029265D02*
X13359841Y-16991170D01*
X13359841Y-16991170D02*
X13359841Y-16914979D01*
X13359841Y-16914979D02*
X13350318Y-16895931D01*
X13350318Y-16895931D02*
X13340794Y-16886408D01*
X13340794Y-16886408D02*
X13321746Y-16876884D01*
X13321746Y-16876884D02*
X13283651Y-16876884D01*
X13283651Y-16876884D02*
X13264603Y-16886408D01*
X13264603Y-16886408D02*
X13255079Y-16895931D01*
X13255079Y-16895931D02*
X13245556Y-16914979D01*
X13245556Y-16914979D02*
X13245556Y-16962598D01*
X13245556Y-16962598D02*
X13255079Y-16981646D01*
X13255079Y-16981646D02*
X13264603Y-16991170D01*
X13264603Y-16991170D02*
X13283651Y-17000693D01*
X13283651Y-17000693D02*
X13321746Y-17000693D01*
X13321746Y-17000693D02*
X13340794Y-16991170D01*
X13340794Y-16991170D02*
X13350318Y-16981646D01*
X13350318Y-16981646D02*
X13359841Y-16962598D01*
X13436032Y-16895931D02*
X13445556Y-16886408D01*
X13445556Y-16886408D02*
X13464603Y-16876884D01*
X13464603Y-16876884D02*
X13512222Y-16876884D01*
X13512222Y-16876884D02*
X13531270Y-16886408D01*
X13531270Y-16886408D02*
X13540794Y-16895931D01*
X13540794Y-16895931D02*
X13550318Y-16914979D01*
X13550318Y-16914979D02*
X13550318Y-16934027D01*
X13550318Y-16934027D02*
X13540794Y-16962598D01*
X13540794Y-16962598D02*
X13426508Y-17076884D01*
X13426508Y-17076884D02*
X13550318Y-17076884D01*
X13788413Y-17076884D02*
X13788413Y-16876884D01*
X13874127Y-17076884D02*
X13874127Y-16972122D01*
X13874127Y-16972122D02*
X13864603Y-16953074D01*
X13864603Y-16953074D02*
X13845556Y-16943550D01*
X13845556Y-16943550D02*
X13816984Y-16943550D01*
X13816984Y-16943550D02*
X13797937Y-16953074D01*
X13797937Y-16953074D02*
X13788413Y-16962598D01*
X13997937Y-17076884D02*
X13978889Y-17067360D01*
X13978889Y-17067360D02*
X13969365Y-17057836D01*
X13969365Y-17057836D02*
X13959841Y-17038789D01*
X13959841Y-17038789D02*
X13959841Y-16981646D01*
X13959841Y-16981646D02*
X13969365Y-16962598D01*
X13969365Y-16962598D02*
X13978889Y-16953074D01*
X13978889Y-16953074D02*
X13997937Y-16943550D01*
X13997937Y-16943550D02*
X14026508Y-16943550D01*
X14026508Y-16943550D02*
X14045556Y-16953074D01*
X14045556Y-16953074D02*
X14055080Y-16962598D01*
X14055080Y-16962598D02*
X14064603Y-16981646D01*
X14064603Y-16981646D02*
X14064603Y-17038789D01*
X14064603Y-17038789D02*
X14055080Y-17057836D01*
X14055080Y-17057836D02*
X14045556Y-17067360D01*
X14045556Y-17067360D02*
X14026508Y-17076884D01*
X14026508Y-17076884D02*
X13997937Y-17076884D01*
X14178889Y-17076884D02*
X14159841Y-17067360D01*
X14159841Y-17067360D02*
X14150318Y-17048312D01*
X14150318Y-17048312D02*
X14150318Y-16876884D01*
X14331270Y-17067360D02*
X14312222Y-17076884D01*
X14312222Y-17076884D02*
X14274127Y-17076884D01*
X14274127Y-17076884D02*
X14255080Y-17067360D01*
X14255080Y-17067360D02*
X14245556Y-17048312D01*
X14245556Y-17048312D02*
X14245556Y-16972122D01*
X14245556Y-16972122D02*
X14255080Y-16953074D01*
X14255080Y-16953074D02*
X14274127Y-16943550D01*
X14274127Y-16943550D02*
X14312222Y-16943550D01*
X14312222Y-16943550D02*
X14331270Y-16953074D01*
X14331270Y-16953074D02*
X14340794Y-16972122D01*
X14340794Y-16972122D02*
X14340794Y-16991170D01*
X14340794Y-16991170D02*
X14245556Y-17010217D01*
X14416984Y-17067360D02*
X14436032Y-17076884D01*
X14436032Y-17076884D02*
X14474127Y-17076884D01*
X14474127Y-17076884D02*
X14493175Y-17067360D01*
X14493175Y-17067360D02*
X14502699Y-17048312D01*
X14502699Y-17048312D02*
X14502699Y-17038789D01*
X14502699Y-17038789D02*
X14493175Y-17019741D01*
X14493175Y-17019741D02*
X14474127Y-17010217D01*
X14474127Y-17010217D02*
X14445556Y-17010217D01*
X14445556Y-17010217D02*
X14426508Y-17000693D01*
X14426508Y-17000693D02*
X14416984Y-16981646D01*
X14416984Y-16981646D02*
X14416984Y-16972122D01*
X14416984Y-16972122D02*
X14426508Y-16953074D01*
X14426508Y-16953074D02*
X14445556Y-16943550D01*
X14445556Y-16943550D02*
X14474127Y-16943550D01*
X14474127Y-16943550D02*
X14493175Y-16953074D01*
X14569365Y-17153074D02*
X14578889Y-17143550D01*
X14578889Y-17143550D02*
X14597937Y-17114979D01*
X14597937Y-17114979D02*
X14607461Y-17095931D01*
X14607461Y-17095931D02*
X14616984Y-17067360D01*
X14616984Y-17067360D02*
X14626508Y-17019741D01*
X14626508Y-17019741D02*
X14626508Y-16981646D01*
X14626508Y-16981646D02*
X14616984Y-16934027D01*
X14616984Y-16934027D02*
X14607461Y-16905455D01*
X14607461Y-16905455D02*
X14597937Y-16886408D01*
X14597937Y-16886408D02*
X14578889Y-16857836D01*
X14578889Y-16857836D02*
X14569365Y-16848312D01*
D12*
X9402367Y-17275917D02*
X9402367Y-17222883D01*
X9349333Y-17222883D01*
X9349333Y-17275917D01*
X9402367Y-17275917D01*
D11*
X9712222Y-17140884D02*
X9731270Y-17140884D01*
X9731270Y-17140884D02*
X9750317Y-17150408D01*
X9750317Y-17150408D02*
X9759841Y-17159931D01*
X9759841Y-17159931D02*
X9769365Y-17178979D01*
X9769365Y-17178979D02*
X9778889Y-17217074D01*
X9778889Y-17217074D02*
X9778889Y-17264693D01*
X9778889Y-17264693D02*
X9769365Y-17302789D01*
X9769365Y-17302789D02*
X9759841Y-17321836D01*
X9759841Y-17321836D02*
X9750317Y-17331360D01*
X9750317Y-17331360D02*
X9731270Y-17340884D01*
X9731270Y-17340884D02*
X9712222Y-17340884D01*
X9712222Y-17340884D02*
X9693174Y-17331360D01*
X9693174Y-17331360D02*
X9683651Y-17321836D01*
X9683651Y-17321836D02*
X9674127Y-17302789D01*
X9674127Y-17302789D02*
X9664603Y-17264693D01*
X9664603Y-17264693D02*
X9664603Y-17217074D01*
X9664603Y-17217074D02*
X9674127Y-17178979D01*
X9674127Y-17178979D02*
X9683651Y-17159931D01*
X9683651Y-17159931D02*
X9693174Y-17150408D01*
X9693174Y-17150408D02*
X9712222Y-17140884D01*
X9864603Y-17321836D02*
X9874127Y-17331360D01*
X9874127Y-17331360D02*
X9864603Y-17340884D01*
X9864603Y-17340884D02*
X9855079Y-17331360D01*
X9855079Y-17331360D02*
X9864603Y-17321836D01*
X9864603Y-17321836D02*
X9864603Y-17340884D01*
X9940794Y-17140884D02*
X10074127Y-17140884D01*
X10074127Y-17140884D02*
X9988413Y-17340884D01*
X10245555Y-17140884D02*
X10150317Y-17140884D01*
X10150317Y-17140884D02*
X10140794Y-17236122D01*
X10140794Y-17236122D02*
X10150317Y-17226598D01*
X10150317Y-17226598D02*
X10169365Y-17217074D01*
X10169365Y-17217074D02*
X10216984Y-17217074D01*
X10216984Y-17217074D02*
X10236032Y-17226598D01*
X10236032Y-17226598D02*
X10245555Y-17236122D01*
X10245555Y-17236122D02*
X10255079Y-17255170D01*
X10255079Y-17255170D02*
X10255079Y-17302789D01*
X10255079Y-17302789D02*
X10245555Y-17321836D01*
X10245555Y-17321836D02*
X10236032Y-17331360D01*
X10236032Y-17331360D02*
X10216984Y-17340884D01*
X10216984Y-17340884D02*
X10169365Y-17340884D01*
X10169365Y-17340884D02*
X10150317Y-17331360D01*
X10150317Y-17331360D02*
X10140794Y-17321836D01*
X10378889Y-17140884D02*
X10397936Y-17140884D01*
X10397936Y-17140884D02*
X10416984Y-17150408D01*
X10416984Y-17150408D02*
X10426508Y-17159931D01*
X10426508Y-17159931D02*
X10436032Y-17178979D01*
X10436032Y-17178979D02*
X10445555Y-17217074D01*
X10445555Y-17217074D02*
X10445555Y-17264693D01*
X10445555Y-17264693D02*
X10436032Y-17302789D01*
X10436032Y-17302789D02*
X10426508Y-17321836D01*
X10426508Y-17321836D02*
X10416984Y-17331360D01*
X10416984Y-17331360D02*
X10397936Y-17340884D01*
X10397936Y-17340884D02*
X10378889Y-17340884D01*
X10378889Y-17340884D02*
X10359841Y-17331360D01*
X10359841Y-17331360D02*
X10350317Y-17321836D01*
X10350317Y-17321836D02*
X10340794Y-17302789D01*
X10340794Y-17302789D02*
X10331270Y-17264693D01*
X10331270Y-17264693D02*
X10331270Y-17217074D01*
X10331270Y-17217074D02*
X10340794Y-17178979D01*
X10340794Y-17178979D02*
X10350317Y-17159931D01*
X10350317Y-17159931D02*
X10359841Y-17150408D01*
X10359841Y-17150408D02*
X10378889Y-17140884D01*
X10531270Y-17340884D02*
X10531270Y-17207550D01*
X10531270Y-17226598D02*
X10540794Y-17217074D01*
X10540794Y-17217074D02*
X10559841Y-17207550D01*
X10559841Y-17207550D02*
X10588413Y-17207550D01*
X10588413Y-17207550D02*
X10607460Y-17217074D01*
X10607460Y-17217074D02*
X10616984Y-17236122D01*
X10616984Y-17236122D02*
X10616984Y-17340884D01*
X10616984Y-17236122D02*
X10626508Y-17217074D01*
X10626508Y-17217074D02*
X10645555Y-17207550D01*
X10645555Y-17207550D02*
X10674127Y-17207550D01*
X10674127Y-17207550D02*
X10693175Y-17217074D01*
X10693175Y-17217074D02*
X10702698Y-17236122D01*
X10702698Y-17236122D02*
X10702698Y-17340884D01*
X10797936Y-17340884D02*
X10797936Y-17207550D01*
X10797936Y-17226598D02*
X10807460Y-17217074D01*
X10807460Y-17217074D02*
X10826508Y-17207550D01*
X10826508Y-17207550D02*
X10855079Y-17207550D01*
X10855079Y-17207550D02*
X10874127Y-17217074D01*
X10874127Y-17217074D02*
X10883651Y-17236122D01*
X10883651Y-17236122D02*
X10883651Y-17340884D01*
X10883651Y-17236122D02*
X10893175Y-17217074D01*
X10893175Y-17217074D02*
X10912222Y-17207550D01*
X10912222Y-17207550D02*
X10940794Y-17207550D01*
X10940794Y-17207550D02*
X10959841Y-17217074D01*
X10959841Y-17217074D02*
X10969365Y-17236122D01*
X10969365Y-17236122D02*
X10969365Y-17340884D01*
X11359841Y-17131360D02*
X11188413Y-17388503D01*
X11616984Y-17140884D02*
X11636032Y-17140884D01*
X11636032Y-17140884D02*
X11655079Y-17150408D01*
X11655079Y-17150408D02*
X11664603Y-17159931D01*
X11664603Y-17159931D02*
X11674127Y-17178979D01*
X11674127Y-17178979D02*
X11683651Y-17217074D01*
X11683651Y-17217074D02*
X11683651Y-17264693D01*
X11683651Y-17264693D02*
X11674127Y-17302789D01*
X11674127Y-17302789D02*
X11664603Y-17321836D01*
X11664603Y-17321836D02*
X11655079Y-17331360D01*
X11655079Y-17331360D02*
X11636032Y-17340884D01*
X11636032Y-17340884D02*
X11616984Y-17340884D01*
X11616984Y-17340884D02*
X11597936Y-17331360D01*
X11597936Y-17331360D02*
X11588413Y-17321836D01*
X11588413Y-17321836D02*
X11578889Y-17302789D01*
X11578889Y-17302789D02*
X11569365Y-17264693D01*
X11569365Y-17264693D02*
X11569365Y-17217074D01*
X11569365Y-17217074D02*
X11578889Y-17178979D01*
X11578889Y-17178979D02*
X11588413Y-17159931D01*
X11588413Y-17159931D02*
X11597936Y-17150408D01*
X11597936Y-17150408D02*
X11616984Y-17140884D01*
X11769365Y-17321836D02*
X11778889Y-17331360D01*
X11778889Y-17331360D02*
X11769365Y-17340884D01*
X11769365Y-17340884D02*
X11759841Y-17331360D01*
X11759841Y-17331360D02*
X11769365Y-17321836D01*
X11769365Y-17321836D02*
X11769365Y-17340884D01*
X11902698Y-17140884D02*
X11921746Y-17140884D01*
X11921746Y-17140884D02*
X11940794Y-17150408D01*
X11940794Y-17150408D02*
X11950317Y-17159931D01*
X11950317Y-17159931D02*
X11959841Y-17178979D01*
X11959841Y-17178979D02*
X11969365Y-17217074D01*
X11969365Y-17217074D02*
X11969365Y-17264693D01*
X11969365Y-17264693D02*
X11959841Y-17302789D01*
X11959841Y-17302789D02*
X11950317Y-17321836D01*
X11950317Y-17321836D02*
X11940794Y-17331360D01*
X11940794Y-17331360D02*
X11921746Y-17340884D01*
X11921746Y-17340884D02*
X11902698Y-17340884D01*
X11902698Y-17340884D02*
X11883651Y-17331360D01*
X11883651Y-17331360D02*
X11874127Y-17321836D01*
X11874127Y-17321836D02*
X11864603Y-17302789D01*
X11864603Y-17302789D02*
X11855079Y-17264693D01*
X11855079Y-17264693D02*
X11855079Y-17217074D01*
X11855079Y-17217074D02*
X11864603Y-17178979D01*
X11864603Y-17178979D02*
X11874127Y-17159931D01*
X11874127Y-17159931D02*
X11883651Y-17150408D01*
X11883651Y-17150408D02*
X11902698Y-17140884D01*
X12045556Y-17159931D02*
X12055079Y-17150408D01*
X12055079Y-17150408D02*
X12074127Y-17140884D01*
X12074127Y-17140884D02*
X12121746Y-17140884D01*
X12121746Y-17140884D02*
X12140794Y-17150408D01*
X12140794Y-17150408D02*
X12150317Y-17159931D01*
X12150317Y-17159931D02*
X12159841Y-17178979D01*
X12159841Y-17178979D02*
X12159841Y-17198027D01*
X12159841Y-17198027D02*
X12150317Y-17226598D01*
X12150317Y-17226598D02*
X12036032Y-17340884D01*
X12036032Y-17340884D02*
X12159841Y-17340884D01*
X12255079Y-17340884D02*
X12293175Y-17340884D01*
X12293175Y-17340884D02*
X12312222Y-17331360D01*
X12312222Y-17331360D02*
X12321746Y-17321836D01*
X12321746Y-17321836D02*
X12340794Y-17293265D01*
X12340794Y-17293265D02*
X12350317Y-17255170D01*
X12350317Y-17255170D02*
X12350317Y-17178979D01*
X12350317Y-17178979D02*
X12340794Y-17159931D01*
X12340794Y-17159931D02*
X12331270Y-17150408D01*
X12331270Y-17150408D02*
X12312222Y-17140884D01*
X12312222Y-17140884D02*
X12274127Y-17140884D01*
X12274127Y-17140884D02*
X12255079Y-17150408D01*
X12255079Y-17150408D02*
X12245556Y-17159931D01*
X12245556Y-17159931D02*
X12236032Y-17178979D01*
X12236032Y-17178979D02*
X12236032Y-17226598D01*
X12236032Y-17226598D02*
X12245556Y-17245646D01*
X12245556Y-17245646D02*
X12255079Y-17255170D01*
X12255079Y-17255170D02*
X12274127Y-17264693D01*
X12274127Y-17264693D02*
X12312222Y-17264693D01*
X12312222Y-17264693D02*
X12331270Y-17255170D01*
X12331270Y-17255170D02*
X12340794Y-17245646D01*
X12340794Y-17245646D02*
X12350317Y-17226598D01*
X12531270Y-17140884D02*
X12436032Y-17140884D01*
X12436032Y-17140884D02*
X12426508Y-17236122D01*
X12426508Y-17236122D02*
X12436032Y-17226598D01*
X12436032Y-17226598D02*
X12455079Y-17217074D01*
X12455079Y-17217074D02*
X12502698Y-17217074D01*
X12502698Y-17217074D02*
X12521746Y-17226598D01*
X12521746Y-17226598D02*
X12531270Y-17236122D01*
X12531270Y-17236122D02*
X12540794Y-17255170D01*
X12540794Y-17255170D02*
X12540794Y-17302789D01*
X12540794Y-17302789D02*
X12531270Y-17321836D01*
X12531270Y-17321836D02*
X12521746Y-17331360D01*
X12521746Y-17331360D02*
X12502698Y-17340884D01*
X12502698Y-17340884D02*
X12455079Y-17340884D01*
X12455079Y-17340884D02*
X12436032Y-17331360D01*
X12436032Y-17331360D02*
X12426508Y-17321836D01*
X12616984Y-17140884D02*
X12616984Y-17178979D01*
X12693175Y-17140884D02*
X12693175Y-17178979D01*
X12988413Y-17417074D02*
X12978889Y-17407550D01*
X12978889Y-17407550D02*
X12959841Y-17378979D01*
X12959841Y-17378979D02*
X12950318Y-17359931D01*
X12950318Y-17359931D02*
X12940794Y-17331360D01*
X12940794Y-17331360D02*
X12931270Y-17283741D01*
X12931270Y-17283741D02*
X12931270Y-17245646D01*
X12931270Y-17245646D02*
X12940794Y-17198027D01*
X12940794Y-17198027D02*
X12950318Y-17169455D01*
X12950318Y-17169455D02*
X12959841Y-17150408D01*
X12959841Y-17150408D02*
X12978889Y-17121836D01*
X12978889Y-17121836D02*
X12988413Y-17112312D01*
X13159841Y-17140884D02*
X13064603Y-17140884D01*
X13064603Y-17140884D02*
X13055079Y-17236122D01*
X13055079Y-17236122D02*
X13064603Y-17226598D01*
X13064603Y-17226598D02*
X13083651Y-17217074D01*
X13083651Y-17217074D02*
X13131270Y-17217074D01*
X13131270Y-17217074D02*
X13150318Y-17226598D01*
X13150318Y-17226598D02*
X13159841Y-17236122D01*
X13159841Y-17236122D02*
X13169365Y-17255170D01*
X13169365Y-17255170D02*
X13169365Y-17302789D01*
X13169365Y-17302789D02*
X13159841Y-17321836D01*
X13159841Y-17321836D02*
X13150318Y-17331360D01*
X13150318Y-17331360D02*
X13131270Y-17340884D01*
X13131270Y-17340884D02*
X13083651Y-17340884D01*
X13083651Y-17340884D02*
X13064603Y-17331360D01*
X13064603Y-17331360D02*
X13055079Y-17321836D01*
X13350318Y-17140884D02*
X13255079Y-17140884D01*
X13255079Y-17140884D02*
X13245556Y-17236122D01*
X13245556Y-17236122D02*
X13255079Y-17226598D01*
X13255079Y-17226598D02*
X13274127Y-17217074D01*
X13274127Y-17217074D02*
X13321746Y-17217074D01*
X13321746Y-17217074D02*
X13340794Y-17226598D01*
X13340794Y-17226598D02*
X13350318Y-17236122D01*
X13350318Y-17236122D02*
X13359841Y-17255170D01*
X13359841Y-17255170D02*
X13359841Y-17302789D01*
X13359841Y-17302789D02*
X13350318Y-17321836D01*
X13350318Y-17321836D02*
X13340794Y-17331360D01*
X13340794Y-17331360D02*
X13321746Y-17340884D01*
X13321746Y-17340884D02*
X13274127Y-17340884D01*
X13274127Y-17340884D02*
X13255079Y-17331360D01*
X13255079Y-17331360D02*
X13245556Y-17321836D01*
X13597937Y-17340884D02*
X13597937Y-17140884D01*
X13683651Y-17340884D02*
X13683651Y-17236122D01*
X13683651Y-17236122D02*
X13674127Y-17217074D01*
X13674127Y-17217074D02*
X13655080Y-17207550D01*
X13655080Y-17207550D02*
X13626508Y-17207550D01*
X13626508Y-17207550D02*
X13607460Y-17217074D01*
X13607460Y-17217074D02*
X13597937Y-17226598D01*
X13807460Y-17340884D02*
X13788413Y-17331360D01*
X13788413Y-17331360D02*
X13778889Y-17321836D01*
X13778889Y-17321836D02*
X13769365Y-17302789D01*
X13769365Y-17302789D02*
X13769365Y-17245646D01*
X13769365Y-17245646D02*
X13778889Y-17226598D01*
X13778889Y-17226598D02*
X13788413Y-17217074D01*
X13788413Y-17217074D02*
X13807460Y-17207550D01*
X13807460Y-17207550D02*
X13836032Y-17207550D01*
X13836032Y-17207550D02*
X13855080Y-17217074D01*
X13855080Y-17217074D02*
X13864603Y-17226598D01*
X13864603Y-17226598D02*
X13874127Y-17245646D01*
X13874127Y-17245646D02*
X13874127Y-17302789D01*
X13874127Y-17302789D02*
X13864603Y-17321836D01*
X13864603Y-17321836D02*
X13855080Y-17331360D01*
X13855080Y-17331360D02*
X13836032Y-17340884D01*
X13836032Y-17340884D02*
X13807460Y-17340884D01*
X13988413Y-17340884D02*
X13969365Y-17331360D01*
X13969365Y-17331360D02*
X13959841Y-17312312D01*
X13959841Y-17312312D02*
X13959841Y-17140884D01*
X14140794Y-17331360D02*
X14121746Y-17340884D01*
X14121746Y-17340884D02*
X14083651Y-17340884D01*
X14083651Y-17340884D02*
X14064603Y-17331360D01*
X14064603Y-17331360D02*
X14055080Y-17312312D01*
X14055080Y-17312312D02*
X14055080Y-17236122D01*
X14055080Y-17236122D02*
X14064603Y-17217074D01*
X14064603Y-17217074D02*
X14083651Y-17207550D01*
X14083651Y-17207550D02*
X14121746Y-17207550D01*
X14121746Y-17207550D02*
X14140794Y-17217074D01*
X14140794Y-17217074D02*
X14150318Y-17236122D01*
X14150318Y-17236122D02*
X14150318Y-17255170D01*
X14150318Y-17255170D02*
X14055080Y-17274217D01*
X14226508Y-17331360D02*
X14245556Y-17340884D01*
X14245556Y-17340884D02*
X14283651Y-17340884D01*
X14283651Y-17340884D02*
X14302699Y-17331360D01*
X14302699Y-17331360D02*
X14312222Y-17312312D01*
X14312222Y-17312312D02*
X14312222Y-17302789D01*
X14312222Y-17302789D02*
X14302699Y-17283741D01*
X14302699Y-17283741D02*
X14283651Y-17274217D01*
X14283651Y-17274217D02*
X14255080Y-17274217D01*
X14255080Y-17274217D02*
X14236032Y-17264693D01*
X14236032Y-17264693D02*
X14226508Y-17245646D01*
X14226508Y-17245646D02*
X14226508Y-17236122D01*
X14226508Y-17236122D02*
X14236032Y-17217074D01*
X14236032Y-17217074D02*
X14255080Y-17207550D01*
X14255080Y-17207550D02*
X14283651Y-17207550D01*
X14283651Y-17207550D02*
X14302699Y-17217074D01*
X14378889Y-17417074D02*
X14388413Y-17407550D01*
X14388413Y-17407550D02*
X14407461Y-17378979D01*
X14407461Y-17378979D02*
X14416984Y-17359931D01*
X14416984Y-17359931D02*
X14426508Y-17331360D01*
X14426508Y-17331360D02*
X14436032Y-17283741D01*
X14436032Y-17283741D02*
X14436032Y-17245646D01*
X14436032Y-17245646D02*
X14426508Y-17198027D01*
X14426508Y-17198027D02*
X14416984Y-17169455D01*
X14416984Y-17169455D02*
X14407461Y-17150408D01*
X14407461Y-17150408D02*
X14388413Y-17121836D01*
X14388413Y-17121836D02*
X14378889Y-17112312D01*
D12*
X9363350Y-17563400D02*
X9413350Y-17513400D01*
X9363350Y-17463400D01*
X9313350Y-17513400D01*
X9363350Y-17563400D01*
D11*
X9778889Y-17604884D02*
X9664603Y-17604884D01*
X9721746Y-17604884D02*
X9721746Y-17404884D01*
X9721746Y-17404884D02*
X9702698Y-17433455D01*
X9702698Y-17433455D02*
X9683651Y-17452503D01*
X9683651Y-17452503D02*
X9664603Y-17462027D01*
X9864603Y-17585836D02*
X9874127Y-17595360D01*
X9874127Y-17595360D02*
X9864603Y-17604884D01*
X9864603Y-17604884D02*
X9855079Y-17595360D01*
X9855079Y-17595360D02*
X9864603Y-17585836D01*
X9864603Y-17585836D02*
X9864603Y-17604884D01*
X9997936Y-17404884D02*
X10016984Y-17404884D01*
X10016984Y-17404884D02*
X10036032Y-17414408D01*
X10036032Y-17414408D02*
X10045555Y-17423931D01*
X10045555Y-17423931D02*
X10055079Y-17442979D01*
X10055079Y-17442979D02*
X10064603Y-17481074D01*
X10064603Y-17481074D02*
X10064603Y-17528693D01*
X10064603Y-17528693D02*
X10055079Y-17566789D01*
X10055079Y-17566789D02*
X10045555Y-17585836D01*
X10045555Y-17585836D02*
X10036032Y-17595360D01*
X10036032Y-17595360D02*
X10016984Y-17604884D01*
X10016984Y-17604884D02*
X9997936Y-17604884D01*
X9997936Y-17604884D02*
X9978889Y-17595360D01*
X9978889Y-17595360D02*
X9969365Y-17585836D01*
X9969365Y-17585836D02*
X9959841Y-17566789D01*
X9959841Y-17566789D02*
X9950317Y-17528693D01*
X9950317Y-17528693D02*
X9950317Y-17481074D01*
X9950317Y-17481074D02*
X9959841Y-17442979D01*
X9959841Y-17442979D02*
X9969365Y-17423931D01*
X9969365Y-17423931D02*
X9978889Y-17414408D01*
X9978889Y-17414408D02*
X9997936Y-17404884D01*
X10188413Y-17404884D02*
X10207460Y-17404884D01*
X10207460Y-17404884D02*
X10226508Y-17414408D01*
X10226508Y-17414408D02*
X10236032Y-17423931D01*
X10236032Y-17423931D02*
X10245555Y-17442979D01*
X10245555Y-17442979D02*
X10255079Y-17481074D01*
X10255079Y-17481074D02*
X10255079Y-17528693D01*
X10255079Y-17528693D02*
X10245555Y-17566789D01*
X10245555Y-17566789D02*
X10236032Y-17585836D01*
X10236032Y-17585836D02*
X10226508Y-17595360D01*
X10226508Y-17595360D02*
X10207460Y-17604884D01*
X10207460Y-17604884D02*
X10188413Y-17604884D01*
X10188413Y-17604884D02*
X10169365Y-17595360D01*
X10169365Y-17595360D02*
X10159841Y-17585836D01*
X10159841Y-17585836D02*
X10150317Y-17566789D01*
X10150317Y-17566789D02*
X10140794Y-17528693D01*
X10140794Y-17528693D02*
X10140794Y-17481074D01*
X10140794Y-17481074D02*
X10150317Y-17442979D01*
X10150317Y-17442979D02*
X10159841Y-17423931D01*
X10159841Y-17423931D02*
X10169365Y-17414408D01*
X10169365Y-17414408D02*
X10188413Y-17404884D01*
X10378889Y-17404884D02*
X10397936Y-17404884D01*
X10397936Y-17404884D02*
X10416984Y-17414408D01*
X10416984Y-17414408D02*
X10426508Y-17423931D01*
X10426508Y-17423931D02*
X10436032Y-17442979D01*
X10436032Y-17442979D02*
X10445555Y-17481074D01*
X10445555Y-17481074D02*
X10445555Y-17528693D01*
X10445555Y-17528693D02*
X10436032Y-17566789D01*
X10436032Y-17566789D02*
X10426508Y-17585836D01*
X10426508Y-17585836D02*
X10416984Y-17595360D01*
X10416984Y-17595360D02*
X10397936Y-17604884D01*
X10397936Y-17604884D02*
X10378889Y-17604884D01*
X10378889Y-17604884D02*
X10359841Y-17595360D01*
X10359841Y-17595360D02*
X10350317Y-17585836D01*
X10350317Y-17585836D02*
X10340794Y-17566789D01*
X10340794Y-17566789D02*
X10331270Y-17528693D01*
X10331270Y-17528693D02*
X10331270Y-17481074D01*
X10331270Y-17481074D02*
X10340794Y-17442979D01*
X10340794Y-17442979D02*
X10350317Y-17423931D01*
X10350317Y-17423931D02*
X10359841Y-17414408D01*
X10359841Y-17414408D02*
X10378889Y-17404884D01*
X10531270Y-17604884D02*
X10531270Y-17471550D01*
X10531270Y-17490598D02*
X10540794Y-17481074D01*
X10540794Y-17481074D02*
X10559841Y-17471550D01*
X10559841Y-17471550D02*
X10588413Y-17471550D01*
X10588413Y-17471550D02*
X10607460Y-17481074D01*
X10607460Y-17481074D02*
X10616984Y-17500122D01*
X10616984Y-17500122D02*
X10616984Y-17604884D01*
X10616984Y-17500122D02*
X10626508Y-17481074D01*
X10626508Y-17481074D02*
X10645555Y-17471550D01*
X10645555Y-17471550D02*
X10674127Y-17471550D01*
X10674127Y-17471550D02*
X10693175Y-17481074D01*
X10693175Y-17481074D02*
X10702698Y-17500122D01*
X10702698Y-17500122D02*
X10702698Y-17604884D01*
X10797936Y-17604884D02*
X10797936Y-17471550D01*
X10797936Y-17490598D02*
X10807460Y-17481074D01*
X10807460Y-17481074D02*
X10826508Y-17471550D01*
X10826508Y-17471550D02*
X10855079Y-17471550D01*
X10855079Y-17471550D02*
X10874127Y-17481074D01*
X10874127Y-17481074D02*
X10883651Y-17500122D01*
X10883651Y-17500122D02*
X10883651Y-17604884D01*
X10883651Y-17500122D02*
X10893175Y-17481074D01*
X10893175Y-17481074D02*
X10912222Y-17471550D01*
X10912222Y-17471550D02*
X10940794Y-17471550D01*
X10940794Y-17471550D02*
X10959841Y-17481074D01*
X10959841Y-17481074D02*
X10969365Y-17500122D01*
X10969365Y-17500122D02*
X10969365Y-17604884D01*
X11359841Y-17395360D02*
X11188413Y-17652503D01*
X11616984Y-17404884D02*
X11636032Y-17404884D01*
X11636032Y-17404884D02*
X11655079Y-17414408D01*
X11655079Y-17414408D02*
X11664603Y-17423931D01*
X11664603Y-17423931D02*
X11674127Y-17442979D01*
X11674127Y-17442979D02*
X11683651Y-17481074D01*
X11683651Y-17481074D02*
X11683651Y-17528693D01*
X11683651Y-17528693D02*
X11674127Y-17566789D01*
X11674127Y-17566789D02*
X11664603Y-17585836D01*
X11664603Y-17585836D02*
X11655079Y-17595360D01*
X11655079Y-17595360D02*
X11636032Y-17604884D01*
X11636032Y-17604884D02*
X11616984Y-17604884D01*
X11616984Y-17604884D02*
X11597936Y-17595360D01*
X11597936Y-17595360D02*
X11588413Y-17585836D01*
X11588413Y-17585836D02*
X11578889Y-17566789D01*
X11578889Y-17566789D02*
X11569365Y-17528693D01*
X11569365Y-17528693D02*
X11569365Y-17481074D01*
X11569365Y-17481074D02*
X11578889Y-17442979D01*
X11578889Y-17442979D02*
X11588413Y-17423931D01*
X11588413Y-17423931D02*
X11597936Y-17414408D01*
X11597936Y-17414408D02*
X11616984Y-17404884D01*
X11769365Y-17585836D02*
X11778889Y-17595360D01*
X11778889Y-17595360D02*
X11769365Y-17604884D01*
X11769365Y-17604884D02*
X11759841Y-17595360D01*
X11759841Y-17595360D02*
X11769365Y-17585836D01*
X11769365Y-17585836D02*
X11769365Y-17604884D01*
X11902698Y-17404884D02*
X11921746Y-17404884D01*
X11921746Y-17404884D02*
X11940794Y-17414408D01*
X11940794Y-17414408D02*
X11950317Y-17423931D01*
X11950317Y-17423931D02*
X11959841Y-17442979D01*
X11959841Y-17442979D02*
X11969365Y-17481074D01*
X11969365Y-17481074D02*
X11969365Y-17528693D01*
X11969365Y-17528693D02*
X11959841Y-17566789D01*
X11959841Y-17566789D02*
X11950317Y-17585836D01*
X11950317Y-17585836D02*
X11940794Y-17595360D01*
X11940794Y-17595360D02*
X11921746Y-17604884D01*
X11921746Y-17604884D02*
X11902698Y-17604884D01*
X11902698Y-17604884D02*
X11883651Y-17595360D01*
X11883651Y-17595360D02*
X11874127Y-17585836D01*
X11874127Y-17585836D02*
X11864603Y-17566789D01*
X11864603Y-17566789D02*
X11855079Y-17528693D01*
X11855079Y-17528693D02*
X11855079Y-17481074D01*
X11855079Y-17481074D02*
X11864603Y-17442979D01*
X11864603Y-17442979D02*
X11874127Y-17423931D01*
X11874127Y-17423931D02*
X11883651Y-17414408D01*
X11883651Y-17414408D02*
X11902698Y-17404884D01*
X12036032Y-17404884D02*
X12159841Y-17404884D01*
X12159841Y-17404884D02*
X12093175Y-17481074D01*
X12093175Y-17481074D02*
X12121746Y-17481074D01*
X12121746Y-17481074D02*
X12140794Y-17490598D01*
X12140794Y-17490598D02*
X12150317Y-17500122D01*
X12150317Y-17500122D02*
X12159841Y-17519170D01*
X12159841Y-17519170D02*
X12159841Y-17566789D01*
X12159841Y-17566789D02*
X12150317Y-17585836D01*
X12150317Y-17585836D02*
X12140794Y-17595360D01*
X12140794Y-17595360D02*
X12121746Y-17604884D01*
X12121746Y-17604884D02*
X12064603Y-17604884D01*
X12064603Y-17604884D02*
X12045556Y-17595360D01*
X12045556Y-17595360D02*
X12036032Y-17585836D01*
X12255079Y-17604884D02*
X12293175Y-17604884D01*
X12293175Y-17604884D02*
X12312222Y-17595360D01*
X12312222Y-17595360D02*
X12321746Y-17585836D01*
X12321746Y-17585836D02*
X12340794Y-17557265D01*
X12340794Y-17557265D02*
X12350317Y-17519170D01*
X12350317Y-17519170D02*
X12350317Y-17442979D01*
X12350317Y-17442979D02*
X12340794Y-17423931D01*
X12340794Y-17423931D02*
X12331270Y-17414408D01*
X12331270Y-17414408D02*
X12312222Y-17404884D01*
X12312222Y-17404884D02*
X12274127Y-17404884D01*
X12274127Y-17404884D02*
X12255079Y-17414408D01*
X12255079Y-17414408D02*
X12245556Y-17423931D01*
X12245556Y-17423931D02*
X12236032Y-17442979D01*
X12236032Y-17442979D02*
X12236032Y-17490598D01*
X12236032Y-17490598D02*
X12245556Y-17509646D01*
X12245556Y-17509646D02*
X12255079Y-17519170D01*
X12255079Y-17519170D02*
X12274127Y-17528693D01*
X12274127Y-17528693D02*
X12312222Y-17528693D01*
X12312222Y-17528693D02*
X12331270Y-17519170D01*
X12331270Y-17519170D02*
X12340794Y-17509646D01*
X12340794Y-17509646D02*
X12350317Y-17490598D01*
X12521746Y-17471550D02*
X12521746Y-17604884D01*
X12474127Y-17395360D02*
X12426508Y-17538217D01*
X12426508Y-17538217D02*
X12550317Y-17538217D01*
X12616984Y-17404884D02*
X12616984Y-17442979D01*
X12693175Y-17404884D02*
X12693175Y-17442979D01*
X12988413Y-17681074D02*
X12978889Y-17671550D01*
X12978889Y-17671550D02*
X12959841Y-17642979D01*
X12959841Y-17642979D02*
X12950318Y-17623931D01*
X12950318Y-17623931D02*
X12940794Y-17595360D01*
X12940794Y-17595360D02*
X12931270Y-17547741D01*
X12931270Y-17547741D02*
X12931270Y-17509646D01*
X12931270Y-17509646D02*
X12940794Y-17462027D01*
X12940794Y-17462027D02*
X12950318Y-17433455D01*
X12950318Y-17433455D02*
X12959841Y-17414408D01*
X12959841Y-17414408D02*
X12978889Y-17385836D01*
X12978889Y-17385836D02*
X12988413Y-17376312D01*
X13074127Y-17604884D02*
X13112222Y-17604884D01*
X13112222Y-17604884D02*
X13131270Y-17595360D01*
X13131270Y-17595360D02*
X13140794Y-17585836D01*
X13140794Y-17585836D02*
X13159841Y-17557265D01*
X13159841Y-17557265D02*
X13169365Y-17519170D01*
X13169365Y-17519170D02*
X13169365Y-17442979D01*
X13169365Y-17442979D02*
X13159841Y-17423931D01*
X13159841Y-17423931D02*
X13150318Y-17414408D01*
X13150318Y-17414408D02*
X13131270Y-17404884D01*
X13131270Y-17404884D02*
X13093175Y-17404884D01*
X13093175Y-17404884D02*
X13074127Y-17414408D01*
X13074127Y-17414408D02*
X13064603Y-17423931D01*
X13064603Y-17423931D02*
X13055079Y-17442979D01*
X13055079Y-17442979D02*
X13055079Y-17490598D01*
X13055079Y-17490598D02*
X13064603Y-17509646D01*
X13064603Y-17509646D02*
X13074127Y-17519170D01*
X13074127Y-17519170D02*
X13093175Y-17528693D01*
X13093175Y-17528693D02*
X13131270Y-17528693D01*
X13131270Y-17528693D02*
X13150318Y-17519170D01*
X13150318Y-17519170D02*
X13159841Y-17509646D01*
X13159841Y-17509646D02*
X13169365Y-17490598D01*
X13293175Y-17404884D02*
X13312222Y-17404884D01*
X13312222Y-17404884D02*
X13331270Y-17414408D01*
X13331270Y-17414408D02*
X13340794Y-17423931D01*
X13340794Y-17423931D02*
X13350318Y-17442979D01*
X13350318Y-17442979D02*
X13359841Y-17481074D01*
X13359841Y-17481074D02*
X13359841Y-17528693D01*
X13359841Y-17528693D02*
X13350318Y-17566789D01*
X13350318Y-17566789D02*
X13340794Y-17585836D01*
X13340794Y-17585836D02*
X13331270Y-17595360D01*
X13331270Y-17595360D02*
X13312222Y-17604884D01*
X13312222Y-17604884D02*
X13293175Y-17604884D01*
X13293175Y-17604884D02*
X13274127Y-17595360D01*
X13274127Y-17595360D02*
X13264603Y-17585836D01*
X13264603Y-17585836D02*
X13255079Y-17566789D01*
X13255079Y-17566789D02*
X13245556Y-17528693D01*
X13245556Y-17528693D02*
X13245556Y-17481074D01*
X13245556Y-17481074D02*
X13255079Y-17442979D01*
X13255079Y-17442979D02*
X13264603Y-17423931D01*
X13264603Y-17423931D02*
X13274127Y-17414408D01*
X13274127Y-17414408D02*
X13293175Y-17404884D01*
X13597937Y-17604884D02*
X13597937Y-17404884D01*
X13683651Y-17604884D02*
X13683651Y-17500122D01*
X13683651Y-17500122D02*
X13674127Y-17481074D01*
X13674127Y-17481074D02*
X13655080Y-17471550D01*
X13655080Y-17471550D02*
X13626508Y-17471550D01*
X13626508Y-17471550D02*
X13607460Y-17481074D01*
X13607460Y-17481074D02*
X13597937Y-17490598D01*
X13807460Y-17604884D02*
X13788413Y-17595360D01*
X13788413Y-17595360D02*
X13778889Y-17585836D01*
X13778889Y-17585836D02*
X13769365Y-17566789D01*
X13769365Y-17566789D02*
X13769365Y-17509646D01*
X13769365Y-17509646D02*
X13778889Y-17490598D01*
X13778889Y-17490598D02*
X13788413Y-17481074D01*
X13788413Y-17481074D02*
X13807460Y-17471550D01*
X13807460Y-17471550D02*
X13836032Y-17471550D01*
X13836032Y-17471550D02*
X13855080Y-17481074D01*
X13855080Y-17481074D02*
X13864603Y-17490598D01*
X13864603Y-17490598D02*
X13874127Y-17509646D01*
X13874127Y-17509646D02*
X13874127Y-17566789D01*
X13874127Y-17566789D02*
X13864603Y-17585836D01*
X13864603Y-17585836D02*
X13855080Y-17595360D01*
X13855080Y-17595360D02*
X13836032Y-17604884D01*
X13836032Y-17604884D02*
X13807460Y-17604884D01*
X13988413Y-17604884D02*
X13969365Y-17595360D01*
X13969365Y-17595360D02*
X13959841Y-17576312D01*
X13959841Y-17576312D02*
X13959841Y-17404884D01*
X14140794Y-17595360D02*
X14121746Y-17604884D01*
X14121746Y-17604884D02*
X14083651Y-17604884D01*
X14083651Y-17604884D02*
X14064603Y-17595360D01*
X14064603Y-17595360D02*
X14055080Y-17576312D01*
X14055080Y-17576312D02*
X14055080Y-17500122D01*
X14055080Y-17500122D02*
X14064603Y-17481074D01*
X14064603Y-17481074D02*
X14083651Y-17471550D01*
X14083651Y-17471550D02*
X14121746Y-17471550D01*
X14121746Y-17471550D02*
X14140794Y-17481074D01*
X14140794Y-17481074D02*
X14150318Y-17500122D01*
X14150318Y-17500122D02*
X14150318Y-17519170D01*
X14150318Y-17519170D02*
X14055080Y-17538217D01*
X14226508Y-17595360D02*
X14245556Y-17604884D01*
X14245556Y-17604884D02*
X14283651Y-17604884D01*
X14283651Y-17604884D02*
X14302699Y-17595360D01*
X14302699Y-17595360D02*
X14312222Y-17576312D01*
X14312222Y-17576312D02*
X14312222Y-17566789D01*
X14312222Y-17566789D02*
X14302699Y-17547741D01*
X14302699Y-17547741D02*
X14283651Y-17538217D01*
X14283651Y-17538217D02*
X14255080Y-17538217D01*
X14255080Y-17538217D02*
X14236032Y-17528693D01*
X14236032Y-17528693D02*
X14226508Y-17509646D01*
X14226508Y-17509646D02*
X14226508Y-17500122D01*
X14226508Y-17500122D02*
X14236032Y-17481074D01*
X14236032Y-17481074D02*
X14255080Y-17471550D01*
X14255080Y-17471550D02*
X14283651Y-17471550D01*
X14283651Y-17471550D02*
X14302699Y-17481074D01*
X14378889Y-17681074D02*
X14388413Y-17671550D01*
X14388413Y-17671550D02*
X14407461Y-17642979D01*
X14407461Y-17642979D02*
X14416984Y-17623931D01*
X14416984Y-17623931D02*
X14426508Y-17595360D01*
X14426508Y-17595360D02*
X14436032Y-17547741D01*
X14436032Y-17547741D02*
X14436032Y-17509646D01*
X14436032Y-17509646D02*
X14426508Y-17462027D01*
X14426508Y-17462027D02*
X14416984Y-17433455D01*
X14416984Y-17433455D02*
X14407461Y-17414408D01*
X14407461Y-17414408D02*
X14388413Y-17385836D01*
X14388413Y-17385836D02*
X14378889Y-17376312D01*
X9213350Y-17677400D02*
X9413350Y-17877400D01*
X9413350Y-17677400D02*
X9213350Y-17877400D01*
X9413350Y-17777400D02*
G75*
G02*
X9213350Y-17777400I-100000J0D01*
G01*
X9213350Y-17777400D02*
G75*
G02*
X9413350Y-17777400I100000J0D01*
G01*
X9664603Y-17687931D02*
X9674127Y-17678408D01*
X9674127Y-17678408D02*
X9693174Y-17668884D01*
X9693174Y-17668884D02*
X9740794Y-17668884D01*
X9740794Y-17668884D02*
X9759841Y-17678408D01*
X9759841Y-17678408D02*
X9769365Y-17687931D01*
X9769365Y-17687931D02*
X9778889Y-17706979D01*
X9778889Y-17706979D02*
X9778889Y-17726027D01*
X9778889Y-17726027D02*
X9769365Y-17754598D01*
X9769365Y-17754598D02*
X9655079Y-17868884D01*
X9655079Y-17868884D02*
X9778889Y-17868884D01*
X9864603Y-17849836D02*
X9874127Y-17859360D01*
X9874127Y-17859360D02*
X9864603Y-17868884D01*
X9864603Y-17868884D02*
X9855079Y-17859360D01*
X9855079Y-17859360D02*
X9864603Y-17849836D01*
X9864603Y-17849836D02*
X9864603Y-17868884D01*
X9950317Y-17687931D02*
X9959841Y-17678408D01*
X9959841Y-17678408D02*
X9978889Y-17668884D01*
X9978889Y-17668884D02*
X10026508Y-17668884D01*
X10026508Y-17668884D02*
X10045555Y-17678408D01*
X10045555Y-17678408D02*
X10055079Y-17687931D01*
X10055079Y-17687931D02*
X10064603Y-17706979D01*
X10064603Y-17706979D02*
X10064603Y-17726027D01*
X10064603Y-17726027D02*
X10055079Y-17754598D01*
X10055079Y-17754598D02*
X9940794Y-17868884D01*
X9940794Y-17868884D02*
X10064603Y-17868884D01*
X10188413Y-17668884D02*
X10207460Y-17668884D01*
X10207460Y-17668884D02*
X10226508Y-17678408D01*
X10226508Y-17678408D02*
X10236032Y-17687931D01*
X10236032Y-17687931D02*
X10245555Y-17706979D01*
X10245555Y-17706979D02*
X10255079Y-17745074D01*
X10255079Y-17745074D02*
X10255079Y-17792693D01*
X10255079Y-17792693D02*
X10245555Y-17830789D01*
X10245555Y-17830789D02*
X10236032Y-17849836D01*
X10236032Y-17849836D02*
X10226508Y-17859360D01*
X10226508Y-17859360D02*
X10207460Y-17868884D01*
X10207460Y-17868884D02*
X10188413Y-17868884D01*
X10188413Y-17868884D02*
X10169365Y-17859360D01*
X10169365Y-17859360D02*
X10159841Y-17849836D01*
X10159841Y-17849836D02*
X10150317Y-17830789D01*
X10150317Y-17830789D02*
X10140794Y-17792693D01*
X10140794Y-17792693D02*
X10140794Y-17745074D01*
X10140794Y-17745074D02*
X10150317Y-17706979D01*
X10150317Y-17706979D02*
X10159841Y-17687931D01*
X10159841Y-17687931D02*
X10169365Y-17678408D01*
X10169365Y-17678408D02*
X10188413Y-17668884D01*
X10378889Y-17668884D02*
X10397936Y-17668884D01*
X10397936Y-17668884D02*
X10416984Y-17678408D01*
X10416984Y-17678408D02*
X10426508Y-17687931D01*
X10426508Y-17687931D02*
X10436032Y-17706979D01*
X10436032Y-17706979D02*
X10445555Y-17745074D01*
X10445555Y-17745074D02*
X10445555Y-17792693D01*
X10445555Y-17792693D02*
X10436032Y-17830789D01*
X10436032Y-17830789D02*
X10426508Y-17849836D01*
X10426508Y-17849836D02*
X10416984Y-17859360D01*
X10416984Y-17859360D02*
X10397936Y-17868884D01*
X10397936Y-17868884D02*
X10378889Y-17868884D01*
X10378889Y-17868884D02*
X10359841Y-17859360D01*
X10359841Y-17859360D02*
X10350317Y-17849836D01*
X10350317Y-17849836D02*
X10340794Y-17830789D01*
X10340794Y-17830789D02*
X10331270Y-17792693D01*
X10331270Y-17792693D02*
X10331270Y-17745074D01*
X10331270Y-17745074D02*
X10340794Y-17706979D01*
X10340794Y-17706979D02*
X10350317Y-17687931D01*
X10350317Y-17687931D02*
X10359841Y-17678408D01*
X10359841Y-17678408D02*
X10378889Y-17668884D01*
X10531270Y-17868884D02*
X10531270Y-17735550D01*
X10531270Y-17754598D02*
X10540794Y-17745074D01*
X10540794Y-17745074D02*
X10559841Y-17735550D01*
X10559841Y-17735550D02*
X10588413Y-17735550D01*
X10588413Y-17735550D02*
X10607460Y-17745074D01*
X10607460Y-17745074D02*
X10616984Y-17764122D01*
X10616984Y-17764122D02*
X10616984Y-17868884D01*
X10616984Y-17764122D02*
X10626508Y-17745074D01*
X10626508Y-17745074D02*
X10645555Y-17735550D01*
X10645555Y-17735550D02*
X10674127Y-17735550D01*
X10674127Y-17735550D02*
X10693175Y-17745074D01*
X10693175Y-17745074D02*
X10702698Y-17764122D01*
X10702698Y-17764122D02*
X10702698Y-17868884D01*
X10797936Y-17868884D02*
X10797936Y-17735550D01*
X10797936Y-17754598D02*
X10807460Y-17745074D01*
X10807460Y-17745074D02*
X10826508Y-17735550D01*
X10826508Y-17735550D02*
X10855079Y-17735550D01*
X10855079Y-17735550D02*
X10874127Y-17745074D01*
X10874127Y-17745074D02*
X10883651Y-17764122D01*
X10883651Y-17764122D02*
X10883651Y-17868884D01*
X10883651Y-17764122D02*
X10893175Y-17745074D01*
X10893175Y-17745074D02*
X10912222Y-17735550D01*
X10912222Y-17735550D02*
X10940794Y-17735550D01*
X10940794Y-17735550D02*
X10959841Y-17745074D01*
X10959841Y-17745074D02*
X10969365Y-17764122D01*
X10969365Y-17764122D02*
X10969365Y-17868884D01*
X11359841Y-17659360D02*
X11188413Y-17916503D01*
X11616984Y-17668884D02*
X11636032Y-17668884D01*
X11636032Y-17668884D02*
X11655079Y-17678408D01*
X11655079Y-17678408D02*
X11664603Y-17687931D01*
X11664603Y-17687931D02*
X11674127Y-17706979D01*
X11674127Y-17706979D02*
X11683651Y-17745074D01*
X11683651Y-17745074D02*
X11683651Y-17792693D01*
X11683651Y-17792693D02*
X11674127Y-17830789D01*
X11674127Y-17830789D02*
X11664603Y-17849836D01*
X11664603Y-17849836D02*
X11655079Y-17859360D01*
X11655079Y-17859360D02*
X11636032Y-17868884D01*
X11636032Y-17868884D02*
X11616984Y-17868884D01*
X11616984Y-17868884D02*
X11597936Y-17859360D01*
X11597936Y-17859360D02*
X11588413Y-17849836D01*
X11588413Y-17849836D02*
X11578889Y-17830789D01*
X11578889Y-17830789D02*
X11569365Y-17792693D01*
X11569365Y-17792693D02*
X11569365Y-17745074D01*
X11569365Y-17745074D02*
X11578889Y-17706979D01*
X11578889Y-17706979D02*
X11588413Y-17687931D01*
X11588413Y-17687931D02*
X11597936Y-17678408D01*
X11597936Y-17678408D02*
X11616984Y-17668884D01*
X11769365Y-17849836D02*
X11778889Y-17859360D01*
X11778889Y-17859360D02*
X11769365Y-17868884D01*
X11769365Y-17868884D02*
X11759841Y-17859360D01*
X11759841Y-17859360D02*
X11769365Y-17849836D01*
X11769365Y-17849836D02*
X11769365Y-17868884D01*
X11902698Y-17668884D02*
X11921746Y-17668884D01*
X11921746Y-17668884D02*
X11940794Y-17678408D01*
X11940794Y-17678408D02*
X11950317Y-17687931D01*
X11950317Y-17687931D02*
X11959841Y-17706979D01*
X11959841Y-17706979D02*
X11969365Y-17745074D01*
X11969365Y-17745074D02*
X11969365Y-17792693D01*
X11969365Y-17792693D02*
X11959841Y-17830789D01*
X11959841Y-17830789D02*
X11950317Y-17849836D01*
X11950317Y-17849836D02*
X11940794Y-17859360D01*
X11940794Y-17859360D02*
X11921746Y-17868884D01*
X11921746Y-17868884D02*
X11902698Y-17868884D01*
X11902698Y-17868884D02*
X11883651Y-17859360D01*
X11883651Y-17859360D02*
X11874127Y-17849836D01*
X11874127Y-17849836D02*
X11864603Y-17830789D01*
X11864603Y-17830789D02*
X11855079Y-17792693D01*
X11855079Y-17792693D02*
X11855079Y-17745074D01*
X11855079Y-17745074D02*
X11864603Y-17706979D01*
X11864603Y-17706979D02*
X11874127Y-17687931D01*
X11874127Y-17687931D02*
X11883651Y-17678408D01*
X11883651Y-17678408D02*
X11902698Y-17668884D01*
X12083651Y-17754598D02*
X12064603Y-17745074D01*
X12064603Y-17745074D02*
X12055079Y-17735550D01*
X12055079Y-17735550D02*
X12045556Y-17716503D01*
X12045556Y-17716503D02*
X12045556Y-17706979D01*
X12045556Y-17706979D02*
X12055079Y-17687931D01*
X12055079Y-17687931D02*
X12064603Y-17678408D01*
X12064603Y-17678408D02*
X12083651Y-17668884D01*
X12083651Y-17668884D02*
X12121746Y-17668884D01*
X12121746Y-17668884D02*
X12140794Y-17678408D01*
X12140794Y-17678408D02*
X12150317Y-17687931D01*
X12150317Y-17687931D02*
X12159841Y-17706979D01*
X12159841Y-17706979D02*
X12159841Y-17716503D01*
X12159841Y-17716503D02*
X12150317Y-17735550D01*
X12150317Y-17735550D02*
X12140794Y-17745074D01*
X12140794Y-17745074D02*
X12121746Y-17754598D01*
X12121746Y-17754598D02*
X12083651Y-17754598D01*
X12083651Y-17754598D02*
X12064603Y-17764122D01*
X12064603Y-17764122D02*
X12055079Y-17773646D01*
X12055079Y-17773646D02*
X12045556Y-17792693D01*
X12045556Y-17792693D02*
X12045556Y-17830789D01*
X12045556Y-17830789D02*
X12055079Y-17849836D01*
X12055079Y-17849836D02*
X12064603Y-17859360D01*
X12064603Y-17859360D02*
X12083651Y-17868884D01*
X12083651Y-17868884D02*
X12121746Y-17868884D01*
X12121746Y-17868884D02*
X12140794Y-17859360D01*
X12140794Y-17859360D02*
X12150317Y-17849836D01*
X12150317Y-17849836D02*
X12159841Y-17830789D01*
X12159841Y-17830789D02*
X12159841Y-17792693D01*
X12159841Y-17792693D02*
X12150317Y-17773646D01*
X12150317Y-17773646D02*
X12140794Y-17764122D01*
X12140794Y-17764122D02*
X12121746Y-17754598D01*
X12331270Y-17668884D02*
X12293175Y-17668884D01*
X12293175Y-17668884D02*
X12274127Y-17678408D01*
X12274127Y-17678408D02*
X12264603Y-17687931D01*
X12264603Y-17687931D02*
X12245556Y-17716503D01*
X12245556Y-17716503D02*
X12236032Y-17754598D01*
X12236032Y-17754598D02*
X12236032Y-17830789D01*
X12236032Y-17830789D02*
X12245556Y-17849836D01*
X12245556Y-17849836D02*
X12255079Y-17859360D01*
X12255079Y-17859360D02*
X12274127Y-17868884D01*
X12274127Y-17868884D02*
X12312222Y-17868884D01*
X12312222Y-17868884D02*
X12331270Y-17859360D01*
X12331270Y-17859360D02*
X12340794Y-17849836D01*
X12340794Y-17849836D02*
X12350317Y-17830789D01*
X12350317Y-17830789D02*
X12350317Y-17783170D01*
X12350317Y-17783170D02*
X12340794Y-17764122D01*
X12340794Y-17764122D02*
X12331270Y-17754598D01*
X12331270Y-17754598D02*
X12312222Y-17745074D01*
X12312222Y-17745074D02*
X12274127Y-17745074D01*
X12274127Y-17745074D02*
X12255079Y-17754598D01*
X12255079Y-17754598D02*
X12245556Y-17764122D01*
X12245556Y-17764122D02*
X12236032Y-17783170D01*
X12521746Y-17668884D02*
X12483651Y-17668884D01*
X12483651Y-17668884D02*
X12464603Y-17678408D01*
X12464603Y-17678408D02*
X12455079Y-17687931D01*
X12455079Y-17687931D02*
X12436032Y-17716503D01*
X12436032Y-17716503D02*
X12426508Y-17754598D01*
X12426508Y-17754598D02*
X12426508Y-17830789D01*
X12426508Y-17830789D02*
X12436032Y-17849836D01*
X12436032Y-17849836D02*
X12445556Y-17859360D01*
X12445556Y-17859360D02*
X12464603Y-17868884D01*
X12464603Y-17868884D02*
X12502698Y-17868884D01*
X12502698Y-17868884D02*
X12521746Y-17859360D01*
X12521746Y-17859360D02*
X12531270Y-17849836D01*
X12531270Y-17849836D02*
X12540794Y-17830789D01*
X12540794Y-17830789D02*
X12540794Y-17783170D01*
X12540794Y-17783170D02*
X12531270Y-17764122D01*
X12531270Y-17764122D02*
X12521746Y-17754598D01*
X12521746Y-17754598D02*
X12502698Y-17745074D01*
X12502698Y-17745074D02*
X12464603Y-17745074D01*
X12464603Y-17745074D02*
X12445556Y-17754598D01*
X12445556Y-17754598D02*
X12436032Y-17764122D01*
X12436032Y-17764122D02*
X12426508Y-17783170D01*
X12616984Y-17668884D02*
X12616984Y-17706979D01*
X12693175Y-17668884D02*
X12693175Y-17706979D01*
X12988413Y-17945074D02*
X12978889Y-17935550D01*
X12978889Y-17935550D02*
X12959841Y-17906979D01*
X12959841Y-17906979D02*
X12950318Y-17887931D01*
X12950318Y-17887931D02*
X12940794Y-17859360D01*
X12940794Y-17859360D02*
X12931270Y-17811741D01*
X12931270Y-17811741D02*
X12931270Y-17773646D01*
X12931270Y-17773646D02*
X12940794Y-17726027D01*
X12940794Y-17726027D02*
X12950318Y-17697455D01*
X12950318Y-17697455D02*
X12959841Y-17678408D01*
X12959841Y-17678408D02*
X12978889Y-17649836D01*
X12978889Y-17649836D02*
X12988413Y-17640312D01*
X13150318Y-17735550D02*
X13150318Y-17868884D01*
X13102698Y-17659360D02*
X13055079Y-17802217D01*
X13055079Y-17802217D02*
X13178889Y-17802217D01*
X13407460Y-17868884D02*
X13407460Y-17668884D01*
X13493175Y-17868884D02*
X13493175Y-17764122D01*
X13493175Y-17764122D02*
X13483651Y-17745074D01*
X13483651Y-17745074D02*
X13464603Y-17735550D01*
X13464603Y-17735550D02*
X13436032Y-17735550D01*
X13436032Y-17735550D02*
X13416984Y-17745074D01*
X13416984Y-17745074D02*
X13407460Y-17754598D01*
X13616984Y-17868884D02*
X13597937Y-17859360D01*
X13597937Y-17859360D02*
X13588413Y-17849836D01*
X13588413Y-17849836D02*
X13578889Y-17830789D01*
X13578889Y-17830789D02*
X13578889Y-17773646D01*
X13578889Y-17773646D02*
X13588413Y-17754598D01*
X13588413Y-17754598D02*
X13597937Y-17745074D01*
X13597937Y-17745074D02*
X13616984Y-17735550D01*
X13616984Y-17735550D02*
X13645556Y-17735550D01*
X13645556Y-17735550D02*
X13664603Y-17745074D01*
X13664603Y-17745074D02*
X13674127Y-17754598D01*
X13674127Y-17754598D02*
X13683651Y-17773646D01*
X13683651Y-17773646D02*
X13683651Y-17830789D01*
X13683651Y-17830789D02*
X13674127Y-17849836D01*
X13674127Y-17849836D02*
X13664603Y-17859360D01*
X13664603Y-17859360D02*
X13645556Y-17868884D01*
X13645556Y-17868884D02*
X13616984Y-17868884D01*
X13797937Y-17868884D02*
X13778889Y-17859360D01*
X13778889Y-17859360D02*
X13769365Y-17840312D01*
X13769365Y-17840312D02*
X13769365Y-17668884D01*
X13950318Y-17859360D02*
X13931270Y-17868884D01*
X13931270Y-17868884D02*
X13893175Y-17868884D01*
X13893175Y-17868884D02*
X13874127Y-17859360D01*
X13874127Y-17859360D02*
X13864603Y-17840312D01*
X13864603Y-17840312D02*
X13864603Y-17764122D01*
X13864603Y-17764122D02*
X13874127Y-17745074D01*
X13874127Y-17745074D02*
X13893175Y-17735550D01*
X13893175Y-17735550D02*
X13931270Y-17735550D01*
X13931270Y-17735550D02*
X13950318Y-17745074D01*
X13950318Y-17745074D02*
X13959841Y-17764122D01*
X13959841Y-17764122D02*
X13959841Y-17783170D01*
X13959841Y-17783170D02*
X13864603Y-17802217D01*
X14036032Y-17859360D02*
X14055080Y-17868884D01*
X14055080Y-17868884D02*
X14093175Y-17868884D01*
X14093175Y-17868884D02*
X14112222Y-17859360D01*
X14112222Y-17859360D02*
X14121746Y-17840312D01*
X14121746Y-17840312D02*
X14121746Y-17830789D01*
X14121746Y-17830789D02*
X14112222Y-17811741D01*
X14112222Y-17811741D02*
X14093175Y-17802217D01*
X14093175Y-17802217D02*
X14064603Y-17802217D01*
X14064603Y-17802217D02*
X14045556Y-17792693D01*
X14045556Y-17792693D02*
X14036032Y-17773646D01*
X14036032Y-17773646D02*
X14036032Y-17764122D01*
X14036032Y-17764122D02*
X14045556Y-17745074D01*
X14045556Y-17745074D02*
X14064603Y-17735550D01*
X14064603Y-17735550D02*
X14093175Y-17735550D01*
X14093175Y-17735550D02*
X14112222Y-17745074D01*
X14188413Y-17945074D02*
X14197937Y-17935550D01*
X14197937Y-17935550D02*
X14216984Y-17906979D01*
X14216984Y-17906979D02*
X14226508Y-17887931D01*
X14226508Y-17887931D02*
X14236032Y-17859360D01*
X14236032Y-17859360D02*
X14245556Y-17811741D01*
X14245556Y-17811741D02*
X14245556Y-17773646D01*
X14245556Y-17773646D02*
X14236032Y-17726027D01*
X14236032Y-17726027D02*
X14226508Y-17697455D01*
X14226508Y-17697455D02*
X14216984Y-17678408D01*
X14216984Y-17678408D02*
X14197937Y-17649836D01*
X14197937Y-17649836D02*
X14188413Y-17640312D01*
X9213350Y-17997400D02*
X9413350Y-18197400D01*
X9413350Y-17997400D02*
X9213350Y-18197400D01*
X9313350Y-17997400D02*
X9313350Y-18197400D01*
X9213350Y-18097400D02*
X9413350Y-18097400D01*
X9759841Y-18055550D02*
X9759841Y-18188884D01*
X9712222Y-17979360D02*
X9664603Y-18122217D01*
X9664603Y-18122217D02*
X9788413Y-18122217D01*
X9864603Y-18169836D02*
X9874127Y-18179360D01*
X9874127Y-18179360D02*
X9864603Y-18188884D01*
X9864603Y-18188884D02*
X9855079Y-18179360D01*
X9855079Y-18179360D02*
X9864603Y-18169836D01*
X9864603Y-18169836D02*
X9864603Y-18188884D01*
X10055079Y-17988884D02*
X9959841Y-17988884D01*
X9959841Y-17988884D02*
X9950317Y-18084122D01*
X9950317Y-18084122D02*
X9959841Y-18074598D01*
X9959841Y-18074598D02*
X9978889Y-18065074D01*
X9978889Y-18065074D02*
X10026508Y-18065074D01*
X10026508Y-18065074D02*
X10045555Y-18074598D01*
X10045555Y-18074598D02*
X10055079Y-18084122D01*
X10055079Y-18084122D02*
X10064603Y-18103170D01*
X10064603Y-18103170D02*
X10064603Y-18150789D01*
X10064603Y-18150789D02*
X10055079Y-18169836D01*
X10055079Y-18169836D02*
X10045555Y-18179360D01*
X10045555Y-18179360D02*
X10026508Y-18188884D01*
X10026508Y-18188884D02*
X9978889Y-18188884D01*
X9978889Y-18188884D02*
X9959841Y-18179360D01*
X9959841Y-18179360D02*
X9950317Y-18169836D01*
X10188413Y-17988884D02*
X10207460Y-17988884D01*
X10207460Y-17988884D02*
X10226508Y-17998408D01*
X10226508Y-17998408D02*
X10236032Y-18007931D01*
X10236032Y-18007931D02*
X10245555Y-18026979D01*
X10245555Y-18026979D02*
X10255079Y-18065074D01*
X10255079Y-18065074D02*
X10255079Y-18112693D01*
X10255079Y-18112693D02*
X10245555Y-18150789D01*
X10245555Y-18150789D02*
X10236032Y-18169836D01*
X10236032Y-18169836D02*
X10226508Y-18179360D01*
X10226508Y-18179360D02*
X10207460Y-18188884D01*
X10207460Y-18188884D02*
X10188413Y-18188884D01*
X10188413Y-18188884D02*
X10169365Y-18179360D01*
X10169365Y-18179360D02*
X10159841Y-18169836D01*
X10159841Y-18169836D02*
X10150317Y-18150789D01*
X10150317Y-18150789D02*
X10140794Y-18112693D01*
X10140794Y-18112693D02*
X10140794Y-18065074D01*
X10140794Y-18065074D02*
X10150317Y-18026979D01*
X10150317Y-18026979D02*
X10159841Y-18007931D01*
X10159841Y-18007931D02*
X10169365Y-17998408D01*
X10169365Y-17998408D02*
X10188413Y-17988884D01*
X10378889Y-17988884D02*
X10397936Y-17988884D01*
X10397936Y-17988884D02*
X10416984Y-17998408D01*
X10416984Y-17998408D02*
X10426508Y-18007931D01*
X10426508Y-18007931D02*
X10436032Y-18026979D01*
X10436032Y-18026979D02*
X10445555Y-18065074D01*
X10445555Y-18065074D02*
X10445555Y-18112693D01*
X10445555Y-18112693D02*
X10436032Y-18150789D01*
X10436032Y-18150789D02*
X10426508Y-18169836D01*
X10426508Y-18169836D02*
X10416984Y-18179360D01*
X10416984Y-18179360D02*
X10397936Y-18188884D01*
X10397936Y-18188884D02*
X10378889Y-18188884D01*
X10378889Y-18188884D02*
X10359841Y-18179360D01*
X10359841Y-18179360D02*
X10350317Y-18169836D01*
X10350317Y-18169836D02*
X10340794Y-18150789D01*
X10340794Y-18150789D02*
X10331270Y-18112693D01*
X10331270Y-18112693D02*
X10331270Y-18065074D01*
X10331270Y-18065074D02*
X10340794Y-18026979D01*
X10340794Y-18026979D02*
X10350317Y-18007931D01*
X10350317Y-18007931D02*
X10359841Y-17998408D01*
X10359841Y-17998408D02*
X10378889Y-17988884D01*
X10531270Y-18188884D02*
X10531270Y-18055550D01*
X10531270Y-18074598D02*
X10540794Y-18065074D01*
X10540794Y-18065074D02*
X10559841Y-18055550D01*
X10559841Y-18055550D02*
X10588413Y-18055550D01*
X10588413Y-18055550D02*
X10607460Y-18065074D01*
X10607460Y-18065074D02*
X10616984Y-18084122D01*
X10616984Y-18084122D02*
X10616984Y-18188884D01*
X10616984Y-18084122D02*
X10626508Y-18065074D01*
X10626508Y-18065074D02*
X10645555Y-18055550D01*
X10645555Y-18055550D02*
X10674127Y-18055550D01*
X10674127Y-18055550D02*
X10693175Y-18065074D01*
X10693175Y-18065074D02*
X10702698Y-18084122D01*
X10702698Y-18084122D02*
X10702698Y-18188884D01*
X10797936Y-18188884D02*
X10797936Y-18055550D01*
X10797936Y-18074598D02*
X10807460Y-18065074D01*
X10807460Y-18065074D02*
X10826508Y-18055550D01*
X10826508Y-18055550D02*
X10855079Y-18055550D01*
X10855079Y-18055550D02*
X10874127Y-18065074D01*
X10874127Y-18065074D02*
X10883651Y-18084122D01*
X10883651Y-18084122D02*
X10883651Y-18188884D01*
X10883651Y-18084122D02*
X10893175Y-18065074D01*
X10893175Y-18065074D02*
X10912222Y-18055550D01*
X10912222Y-18055550D02*
X10940794Y-18055550D01*
X10940794Y-18055550D02*
X10959841Y-18065074D01*
X10959841Y-18065074D02*
X10969365Y-18084122D01*
X10969365Y-18084122D02*
X10969365Y-18188884D01*
X11359841Y-17979360D02*
X11188413Y-18236503D01*
X11616984Y-17988884D02*
X11636032Y-17988884D01*
X11636032Y-17988884D02*
X11655079Y-17998408D01*
X11655079Y-17998408D02*
X11664603Y-18007931D01*
X11664603Y-18007931D02*
X11674127Y-18026979D01*
X11674127Y-18026979D02*
X11683651Y-18065074D01*
X11683651Y-18065074D02*
X11683651Y-18112693D01*
X11683651Y-18112693D02*
X11674127Y-18150789D01*
X11674127Y-18150789D02*
X11664603Y-18169836D01*
X11664603Y-18169836D02*
X11655079Y-18179360D01*
X11655079Y-18179360D02*
X11636032Y-18188884D01*
X11636032Y-18188884D02*
X11616984Y-18188884D01*
X11616984Y-18188884D02*
X11597936Y-18179360D01*
X11597936Y-18179360D02*
X11588413Y-18169836D01*
X11588413Y-18169836D02*
X11578889Y-18150789D01*
X11578889Y-18150789D02*
X11569365Y-18112693D01*
X11569365Y-18112693D02*
X11569365Y-18065074D01*
X11569365Y-18065074D02*
X11578889Y-18026979D01*
X11578889Y-18026979D02*
X11588413Y-18007931D01*
X11588413Y-18007931D02*
X11597936Y-17998408D01*
X11597936Y-17998408D02*
X11616984Y-17988884D01*
X11769365Y-18169836D02*
X11778889Y-18179360D01*
X11778889Y-18179360D02*
X11769365Y-18188884D01*
X11769365Y-18188884D02*
X11759841Y-18179360D01*
X11759841Y-18179360D02*
X11769365Y-18169836D01*
X11769365Y-18169836D02*
X11769365Y-18188884D01*
X11969365Y-18188884D02*
X11855079Y-18188884D01*
X11912222Y-18188884D02*
X11912222Y-17988884D01*
X11912222Y-17988884D02*
X11893175Y-18017455D01*
X11893175Y-18017455D02*
X11874127Y-18036503D01*
X11874127Y-18036503D02*
X11855079Y-18046027D01*
X12036032Y-17988884D02*
X12169365Y-17988884D01*
X12169365Y-17988884D02*
X12083651Y-18188884D01*
X12226508Y-17988884D02*
X12359841Y-17988884D01*
X12359841Y-17988884D02*
X12274127Y-18188884D01*
X12426508Y-18007931D02*
X12436032Y-17998408D01*
X12436032Y-17998408D02*
X12455079Y-17988884D01*
X12455079Y-17988884D02*
X12502698Y-17988884D01*
X12502698Y-17988884D02*
X12521746Y-17998408D01*
X12521746Y-17998408D02*
X12531270Y-18007931D01*
X12531270Y-18007931D02*
X12540794Y-18026979D01*
X12540794Y-18026979D02*
X12540794Y-18046027D01*
X12540794Y-18046027D02*
X12531270Y-18074598D01*
X12531270Y-18074598D02*
X12416984Y-18188884D01*
X12416984Y-18188884D02*
X12540794Y-18188884D01*
X12616984Y-17988884D02*
X12616984Y-18026979D01*
X12693175Y-17988884D02*
X12693175Y-18026979D01*
X12988413Y-18265074D02*
X12978889Y-18255550D01*
X12978889Y-18255550D02*
X12959841Y-18226979D01*
X12959841Y-18226979D02*
X12950318Y-18207931D01*
X12950318Y-18207931D02*
X12940794Y-18179360D01*
X12940794Y-18179360D02*
X12931270Y-18131741D01*
X12931270Y-18131741D02*
X12931270Y-18093646D01*
X12931270Y-18093646D02*
X12940794Y-18046027D01*
X12940794Y-18046027D02*
X12950318Y-18017455D01*
X12950318Y-18017455D02*
X12959841Y-17998408D01*
X12959841Y-17998408D02*
X12978889Y-17969836D01*
X12978889Y-17969836D02*
X12988413Y-17960312D01*
X13055079Y-18007931D02*
X13064603Y-17998408D01*
X13064603Y-17998408D02*
X13083651Y-17988884D01*
X13083651Y-17988884D02*
X13131270Y-17988884D01*
X13131270Y-17988884D02*
X13150318Y-17998408D01*
X13150318Y-17998408D02*
X13159841Y-18007931D01*
X13159841Y-18007931D02*
X13169365Y-18026979D01*
X13169365Y-18026979D02*
X13169365Y-18046027D01*
X13169365Y-18046027D02*
X13159841Y-18074598D01*
X13159841Y-18074598D02*
X13045556Y-18188884D01*
X13045556Y-18188884D02*
X13169365Y-18188884D01*
X13407460Y-18188884D02*
X13407460Y-17988884D01*
X13493175Y-18188884D02*
X13493175Y-18084122D01*
X13493175Y-18084122D02*
X13483651Y-18065074D01*
X13483651Y-18065074D02*
X13464603Y-18055550D01*
X13464603Y-18055550D02*
X13436032Y-18055550D01*
X13436032Y-18055550D02*
X13416984Y-18065074D01*
X13416984Y-18065074D02*
X13407460Y-18074598D01*
X13616984Y-18188884D02*
X13597937Y-18179360D01*
X13597937Y-18179360D02*
X13588413Y-18169836D01*
X13588413Y-18169836D02*
X13578889Y-18150789D01*
X13578889Y-18150789D02*
X13578889Y-18093646D01*
X13578889Y-18093646D02*
X13588413Y-18074598D01*
X13588413Y-18074598D02*
X13597937Y-18065074D01*
X13597937Y-18065074D02*
X13616984Y-18055550D01*
X13616984Y-18055550D02*
X13645556Y-18055550D01*
X13645556Y-18055550D02*
X13664603Y-18065074D01*
X13664603Y-18065074D02*
X13674127Y-18074598D01*
X13674127Y-18074598D02*
X13683651Y-18093646D01*
X13683651Y-18093646D02*
X13683651Y-18150789D01*
X13683651Y-18150789D02*
X13674127Y-18169836D01*
X13674127Y-18169836D02*
X13664603Y-18179360D01*
X13664603Y-18179360D02*
X13645556Y-18188884D01*
X13645556Y-18188884D02*
X13616984Y-18188884D01*
X13797937Y-18188884D02*
X13778889Y-18179360D01*
X13778889Y-18179360D02*
X13769365Y-18160312D01*
X13769365Y-18160312D02*
X13769365Y-17988884D01*
X13950318Y-18179360D02*
X13931270Y-18188884D01*
X13931270Y-18188884D02*
X13893175Y-18188884D01*
X13893175Y-18188884D02*
X13874127Y-18179360D01*
X13874127Y-18179360D02*
X13864603Y-18160312D01*
X13864603Y-18160312D02*
X13864603Y-18084122D01*
X13864603Y-18084122D02*
X13874127Y-18065074D01*
X13874127Y-18065074D02*
X13893175Y-18055550D01*
X13893175Y-18055550D02*
X13931270Y-18055550D01*
X13931270Y-18055550D02*
X13950318Y-18065074D01*
X13950318Y-18065074D02*
X13959841Y-18084122D01*
X13959841Y-18084122D02*
X13959841Y-18103170D01*
X13959841Y-18103170D02*
X13864603Y-18122217D01*
X14036032Y-18179360D02*
X14055080Y-18188884D01*
X14055080Y-18188884D02*
X14093175Y-18188884D01*
X14093175Y-18188884D02*
X14112222Y-18179360D01*
X14112222Y-18179360D02*
X14121746Y-18160312D01*
X14121746Y-18160312D02*
X14121746Y-18150789D01*
X14121746Y-18150789D02*
X14112222Y-18131741D01*
X14112222Y-18131741D02*
X14093175Y-18122217D01*
X14093175Y-18122217D02*
X14064603Y-18122217D01*
X14064603Y-18122217D02*
X14045556Y-18112693D01*
X14045556Y-18112693D02*
X14036032Y-18093646D01*
X14036032Y-18093646D02*
X14036032Y-18084122D01*
X14036032Y-18084122D02*
X14045556Y-18065074D01*
X14045556Y-18065074D02*
X14064603Y-18055550D01*
X14064603Y-18055550D02*
X14093175Y-18055550D01*
X14093175Y-18055550D02*
X14112222Y-18065074D01*
X14188413Y-18265074D02*
X14197937Y-18255550D01*
X14197937Y-18255550D02*
X14216984Y-18226979D01*
X14216984Y-18226979D02*
X14226508Y-18207931D01*
X14226508Y-18207931D02*
X14236032Y-18179360D01*
X14236032Y-18179360D02*
X14245556Y-18131741D01*
X14245556Y-18131741D02*
X14245556Y-18093646D01*
X14245556Y-18093646D02*
X14236032Y-18046027D01*
X14236032Y-18046027D02*
X14226508Y-18017455D01*
X14226508Y-18017455D02*
X14216984Y-17998408D01*
X14216984Y-17998408D02*
X14197937Y-17969836D01*
X14197937Y-17969836D02*
X14188413Y-17960312D01*
M02*
