%TF.GenerationSoftware,KiCad,Pcbnew,9.0.5*%
%TF.CreationDate,2025-12-11T12:47:58+01:00*%
%TF.ProjectId,high-speed,68696768-2d73-4706-9565-642e6b696361,rev?*%
%TF.SameCoordinates,Original*%
%TF.FileFunction,Paste,Top*%
%TF.FilePolarity,Positive*%
%FSLAX46Y46*%
G04 Gerber Fmt 4.6, Leading zero omitted, Abs format (unit mm)*
G04 Created by KiCad (PCBNEW 9.0.5) date 2025-12-11 12:47:58*
%MOMM*%
%LPD*%
G01*
G04 APERTURE LIST*
G04 Aperture macros list*
%AMRoundRect*
0 Rectangle with rounded corners*
0 $1 Rounding radius*
0 $2 $3 $4 $5 $6 $7 $8 $9 X,Y pos of 4 corners*
0 Add a 4 corners polygon primitive as box body*
4,1,4,$2,$3,$4,$5,$6,$7,$8,$9,$2,$3,0*
0 Add four circle primitives for the rounded corners*
1,1,$1+$1,$2,$3*
1,1,$1+$1,$4,$5*
1,1,$1+$1,$6,$7*
1,1,$1+$1,$8,$9*
0 Add four rect primitives between the rounded corners*
20,1,$1+$1,$2,$3,$4,$5,0*
20,1,$1+$1,$4,$5,$6,$7,0*
20,1,$1+$1,$6,$7,$8,$9,0*
20,1,$1+$1,$8,$9,$2,$3,0*%
%AMFreePoly0*
4,1,7,1.050000,-0.975000,-0.250000,-0.975000,-0.250000,-0.625000,-1.050000,-0.625000,-1.050000,0.975000,1.050000,0.975000,1.050000,-0.975000,1.050000,-0.975000,$1*%
%AMFreePoly1*
4,1,7,1.050000,-0.625000,0.250000,-0.625000,0.250000,-0.975000,-1.050000,-0.975000,-1.050000,0.975000,1.050000,0.975000,1.050000,-0.625000,1.050000,-0.625000,$1*%
G04 Aperture macros list end*
%ADD10RoundRect,0.150000X-0.150000X-0.625000X0.150000X-0.625000X0.150000X0.625000X-0.150000X0.625000X0*%
%ADD11RoundRect,0.250000X-0.350000X-0.650000X0.350000X-0.650000X0.350000X0.650000X-0.350000X0.650000X0*%
%ADD12R,0.900000X0.900000*%
%ADD13R,1.500000X0.900000*%
%ADD14R,0.900000X1.500000*%
%ADD15R,0.350000X0.500000*%
%ADD16RoundRect,0.250000X0.450000X-0.262500X0.450000X0.262500X-0.450000X0.262500X-0.450000X-0.262500X0*%
%ADD17RoundRect,0.150000X-0.150000X-0.700000X0.150000X-0.700000X0.150000X0.700000X-0.150000X0.700000X0*%
%ADD18RoundRect,0.250000X-0.250000X-1.150000X0.250000X-1.150000X0.250000X1.150000X-0.250000X1.150000X0*%
%ADD19RoundRect,0.250000X0.625000X-0.375000X0.625000X0.375000X-0.625000X0.375000X-0.625000X-0.375000X0*%
%ADD20R,0.200000X0.700000*%
%ADD21R,1.300000X0.300000*%
%ADD22R,2.200000X1.800000*%
%ADD23RoundRect,0.190000X-0.610000X-0.190000X0.610000X-0.190000X0.610000X0.190000X-0.610000X0.190000X0*%
%ADD24RoundRect,0.250000X-0.262500X-0.450000X0.262500X-0.450000X0.262500X0.450000X-0.262500X0.450000X0*%
%ADD25R,0.300000X2.600000*%
%ADD26RoundRect,0.250000X-0.375000X-0.625000X0.375000X-0.625000X0.375000X0.625000X-0.375000X0.625000X0*%
%ADD27RoundRect,0.400000X-0.546410X-0.146410X0.146410X-0.546410X0.546410X0.146410X-0.146410X0.546410X0*%
%ADD28R,0.300000X1.550000*%
%ADD29R,1.200000X2.750000*%
%ADD30RoundRect,0.075000X-0.075000X-0.200000X0.075000X-0.200000X0.075000X0.200000X-0.075000X0.200000X0*%
%ADD31RoundRect,0.075000X0.475000X-0.075000X0.475000X0.075000X-0.475000X0.075000X-0.475000X-0.075000X0*%
%ADD32FreePoly0,90.000000*%
%ADD33FreePoly1,90.000000*%
%ADD34R,0.600000X1.160000*%
%ADD35R,0.300000X1.160000*%
%ADD36RoundRect,0.250000X-0.625000X0.375000X-0.625000X-0.375000X0.625000X-0.375000X0.625000X0.375000X0*%
%ADD37RoundRect,0.250000X-0.450000X0.262500X-0.450000X-0.262500X0.450000X-0.262500X0.450000X0.262500X0*%
%ADD38RoundRect,0.100000X-0.637500X-0.100000X0.637500X-0.100000X0.637500X0.100000X-0.637500X0.100000X0*%
%ADD39RoundRect,0.250000X-0.475000X0.250000X-0.475000X-0.250000X0.475000X-0.250000X0.475000X0.250000X0*%
G04 APERTURE END LIST*
D10*
%TO.C,I2C_0x70_8*%
X148535400Y-65054400D03*
X149535400Y-65054400D03*
X150535400Y-65054400D03*
D11*
X147235400Y-62529400D03*
D10*
X151535400Y-65054400D03*
D11*
X152835400Y-62529400D03*
%TD*%
D12*
%TO.C,ESP32-S3*%
X185660244Y-68029354D03*
X185660244Y-69429354D03*
X185660244Y-70829354D03*
X187060244Y-68029354D03*
X187060244Y-69429354D03*
X187060244Y-70829354D03*
X188460244Y-68029354D03*
X188460244Y-69429354D03*
X188460244Y-70829354D03*
D13*
X179810244Y-61709354D03*
X179810244Y-62979354D03*
X179810244Y-64249354D03*
X179810244Y-65519354D03*
X179810244Y-66789354D03*
X179810244Y-68059354D03*
X179810244Y-69329354D03*
X179810244Y-70599354D03*
X179810244Y-71869354D03*
X179810244Y-73139354D03*
X179810244Y-74409354D03*
X179810244Y-75679354D03*
X179810244Y-76949354D03*
X179810244Y-78219354D03*
D14*
X181575244Y-79469354D03*
X182845244Y-79469354D03*
X184115244Y-79469354D03*
X185385244Y-79469354D03*
X186655244Y-79469354D03*
X187925244Y-79469354D03*
X189195244Y-79469354D03*
X190465244Y-79469354D03*
X191735244Y-79469354D03*
X193005244Y-79469354D03*
X194275244Y-79469354D03*
X195545244Y-79469354D03*
D13*
X197310244Y-78219354D03*
X197310244Y-76949354D03*
X197310244Y-75679354D03*
X197310244Y-74409354D03*
X197310244Y-73139354D03*
X197310244Y-71869354D03*
X197310244Y-70599354D03*
X197310244Y-69329354D03*
X197310244Y-68059354D03*
X197310244Y-66789354D03*
X197310244Y-65519354D03*
X197310244Y-64249354D03*
X197310244Y-62979354D03*
X197310244Y-61709354D03*
%TD*%
D15*
%TO.C,U23*%
X185148044Y-111569754D03*
X185798044Y-111569754D03*
X186448044Y-111569754D03*
X187098044Y-111569754D03*
X187098044Y-113619754D03*
X186448044Y-113619754D03*
X185798044Y-113619754D03*
X185148044Y-113619754D03*
%TD*%
D16*
%TO.C,R25*%
X180408044Y-111021054D03*
X180408044Y-109196054D03*
%TD*%
%TO.C,R98*%
X195978244Y-83410154D03*
X195978244Y-81585154D03*
%TD*%
D17*
%TO.C,SPI1*%
X180966044Y-86096754D03*
X182216044Y-86096754D03*
X183466044Y-86096754D03*
X184716044Y-86096754D03*
X185966044Y-86096754D03*
X187216044Y-86096754D03*
D18*
X179116044Y-82746754D03*
X189066044Y-82746754D03*
%TD*%
D10*
%TO.C,I2C_0x71_4*%
X115585400Y-70479400D03*
X116585400Y-70479400D03*
X117585400Y-70479400D03*
D11*
X114285400Y-67954400D03*
D10*
X118585400Y-70479400D03*
D11*
X119885400Y-67954400D03*
%TD*%
D17*
%TO.C,SPI3*%
X180966044Y-98720554D03*
X182216044Y-98720554D03*
X183466044Y-98720554D03*
X184716044Y-98720554D03*
X185966044Y-98720554D03*
X187216044Y-98720554D03*
D18*
X179116044Y-95370554D03*
X189066044Y-95370554D03*
%TD*%
D10*
%TO.C,I2C_0x71_1*%
X90535400Y-70479400D03*
X91535400Y-70479400D03*
X92535400Y-70479400D03*
D11*
X89235400Y-67954400D03*
D10*
X93535400Y-70479400D03*
D11*
X94835400Y-67954400D03*
%TD*%
D10*
%TO.C,I2C_0x71_3*%
X107235400Y-70479400D03*
X108235400Y-70479400D03*
X109235400Y-70479400D03*
D11*
X105935400Y-67954400D03*
D10*
X110235400Y-70479400D03*
D11*
X111535400Y-67954400D03*
%TD*%
D19*
%TO.C,D7*%
X197705444Y-87860054D03*
X197705444Y-85060054D03*
%TD*%
D17*
%TO.C,SPI4*%
X180966044Y-105019754D03*
X182216044Y-105019754D03*
X183466044Y-105019754D03*
X184716044Y-105019754D03*
X185966044Y-105019754D03*
X187216044Y-105019754D03*
D18*
X179116044Y-101669754D03*
X189066044Y-101669754D03*
%TD*%
D20*
%TO.C,CM5*%
X133335400Y-73814400D03*
X133335400Y-76894400D03*
X132935400Y-73814400D03*
X132935400Y-76894400D03*
X132535400Y-73814400D03*
X132535400Y-76894400D03*
X132135400Y-73814400D03*
X132135400Y-76894400D03*
X131735400Y-73814400D03*
X131735400Y-76894400D03*
X131335400Y-73814400D03*
X131335400Y-76894400D03*
X130935400Y-73814400D03*
X130935400Y-76894400D03*
X130535400Y-73814400D03*
X130535400Y-76894400D03*
X130135400Y-73814400D03*
X130135400Y-76894400D03*
X129735400Y-73814400D03*
X129735400Y-76894400D03*
X129335400Y-73814400D03*
X129335400Y-76894400D03*
X128935400Y-73814400D03*
X128935400Y-76894400D03*
X128535400Y-73814400D03*
X128535400Y-76894400D03*
X128135400Y-73814400D03*
X128135400Y-76894400D03*
X127735400Y-73814400D03*
X127735400Y-76894400D03*
X127335400Y-73814400D03*
X127335400Y-76894400D03*
X126935400Y-73814400D03*
X126935400Y-76894400D03*
X126535400Y-73814400D03*
X126535400Y-76894400D03*
X126135400Y-73814400D03*
X126135400Y-76894400D03*
X125735400Y-73814400D03*
X125735400Y-76894400D03*
X125335400Y-73814400D03*
X125335400Y-76894400D03*
X124935400Y-73814400D03*
X124935400Y-76894400D03*
X124535400Y-73814400D03*
X124535400Y-76894400D03*
X124135400Y-73814400D03*
X124135400Y-76894400D03*
X123735400Y-73814400D03*
X123735400Y-76894400D03*
X123335400Y-73814400D03*
X123335400Y-76894400D03*
X122935400Y-73814400D03*
X122935400Y-76894400D03*
X122535400Y-73814400D03*
X122535400Y-76894400D03*
X122135400Y-73814400D03*
X122135400Y-76894400D03*
X121735400Y-73814400D03*
X121735400Y-76894400D03*
X121335400Y-73814400D03*
X121335400Y-76894400D03*
X120935400Y-73814400D03*
X120935400Y-76894400D03*
X120535400Y-73814400D03*
X120535400Y-76894400D03*
X120135400Y-73814400D03*
X120135400Y-76894400D03*
X119735400Y-73814400D03*
X119735400Y-76894400D03*
X119335400Y-73814400D03*
X119335400Y-76894400D03*
X118935400Y-73814400D03*
X118935400Y-76894400D03*
X118535400Y-73814400D03*
X118535400Y-76894400D03*
X118135400Y-73814400D03*
X118135400Y-76894400D03*
X117735400Y-73814400D03*
X117735400Y-76894400D03*
X117335400Y-73814400D03*
X117335400Y-76894400D03*
X116935400Y-73814400D03*
X116935400Y-76894400D03*
X116535400Y-73814400D03*
X116535400Y-76894400D03*
X116135400Y-73814400D03*
X116135400Y-76894400D03*
X115735400Y-73814400D03*
X115735400Y-76894400D03*
X115335400Y-73814400D03*
X115335400Y-76894400D03*
X114935400Y-73814400D03*
X114935400Y-76894400D03*
X114535400Y-73814400D03*
X114535400Y-76894400D03*
X114135400Y-73814400D03*
X114135400Y-76894400D03*
X113735400Y-73814400D03*
X113735400Y-76894400D03*
X133335400Y-107814400D03*
X133335400Y-110894400D03*
X132935400Y-107814400D03*
X132935400Y-110894400D03*
X132535400Y-107814400D03*
X132535400Y-110894400D03*
X132135400Y-107814400D03*
X132135400Y-110894400D03*
X131735400Y-107814400D03*
X131735400Y-110894400D03*
X131335400Y-107814400D03*
X131335400Y-110894400D03*
X130935400Y-107814400D03*
X130935400Y-110894400D03*
X130535400Y-107814400D03*
X130535400Y-110894400D03*
X130135400Y-107814400D03*
X130135400Y-110894400D03*
X129735400Y-107814400D03*
X129735400Y-110894400D03*
X129335400Y-107814400D03*
X129335400Y-110894400D03*
X128935400Y-107814400D03*
X128935400Y-110894400D03*
X128535400Y-107814400D03*
X128535400Y-110894400D03*
X128135400Y-107814400D03*
X128135400Y-110894400D03*
X127735400Y-107814400D03*
X127735400Y-110894400D03*
X127335400Y-107814400D03*
X127335400Y-110894400D03*
X126935400Y-107814400D03*
X126935400Y-110894400D03*
X126535400Y-107814400D03*
X126535400Y-110894400D03*
X126135400Y-107814400D03*
X126135400Y-110894400D03*
X125735400Y-107814400D03*
X125735400Y-110894400D03*
X125335400Y-107814400D03*
X125335400Y-110894400D03*
X124935400Y-107814400D03*
X124935400Y-110894400D03*
X124535400Y-107814400D03*
X124535400Y-110894400D03*
X124135400Y-107814400D03*
X124135400Y-110894400D03*
X123735400Y-107814400D03*
X123735400Y-110894400D03*
X123335400Y-107814400D03*
X123335400Y-110894400D03*
X122935400Y-107814400D03*
X122935400Y-110894400D03*
X122535400Y-107814400D03*
X122535400Y-110894400D03*
X122135400Y-107814400D03*
X122135400Y-110894400D03*
X121735400Y-107814400D03*
X121735400Y-110894400D03*
X121335400Y-107814400D03*
X121335400Y-110894400D03*
X120935400Y-107814400D03*
X120935400Y-110894400D03*
X120535400Y-107814400D03*
X120535400Y-110894400D03*
X120135400Y-107814400D03*
X120135400Y-110894400D03*
X119735400Y-107814400D03*
X119735400Y-110894400D03*
X119335400Y-107814400D03*
X119335400Y-110894400D03*
X118935400Y-107814400D03*
X118935400Y-110894400D03*
X118535400Y-107814400D03*
X118535400Y-110894400D03*
X118135400Y-107814400D03*
X118135400Y-110894400D03*
X117735400Y-107814400D03*
X117735400Y-110894400D03*
X117335400Y-107814400D03*
X117335400Y-110894400D03*
X116935400Y-107814400D03*
X116935400Y-110894400D03*
X116535400Y-107814400D03*
X116535400Y-110894400D03*
X116135400Y-107814400D03*
X116135400Y-110894400D03*
X115735400Y-107814400D03*
X115735400Y-110894400D03*
X115335400Y-107814400D03*
X115335400Y-110894400D03*
X114935400Y-107814400D03*
X114935400Y-110894400D03*
X114535400Y-107814400D03*
X114535400Y-110894400D03*
X114135400Y-107814400D03*
X114135400Y-110894400D03*
X113735400Y-107814400D03*
X113735400Y-110894400D03*
%TD*%
D17*
%TO.C,SPI2*%
X180966044Y-92421354D03*
X182216044Y-92421354D03*
X183466044Y-92421354D03*
X184716044Y-92421354D03*
X185966044Y-92421354D03*
X187216044Y-92421354D03*
D18*
X179116044Y-89071354D03*
X189066044Y-89071354D03*
%TD*%
D21*
%TO.C,DSI1*%
X95035400Y-81554400D03*
X95035400Y-82054400D03*
X95035400Y-82554400D03*
X95035400Y-83054400D03*
X95035400Y-83554400D03*
X95035400Y-84054400D03*
X95035400Y-84554400D03*
X95035400Y-85054400D03*
X95035400Y-85554400D03*
X95035400Y-86054400D03*
X95035400Y-86554400D03*
X95035400Y-87054400D03*
X95035400Y-87554400D03*
X95035400Y-88054400D03*
X95035400Y-88554400D03*
X95035400Y-89054400D03*
X95035400Y-89554400D03*
X95035400Y-90054400D03*
X95035400Y-90554400D03*
X95035400Y-91054400D03*
X95035400Y-91554400D03*
X95035400Y-92054400D03*
D22*
X91785400Y-79654400D03*
X91785400Y-93954400D03*
%TD*%
D23*
%TO.C,DSW1*%
X193463644Y-109876954D03*
X193463644Y-111146954D03*
X193463644Y-112416954D03*
X193463644Y-113686954D03*
X193463644Y-114956954D03*
X193463644Y-116226954D03*
X193463644Y-117496954D03*
X193463644Y-118766954D03*
X198543644Y-118766954D03*
X198543644Y-117496954D03*
X198543644Y-116226954D03*
X198543644Y-114956954D03*
X198543644Y-113686954D03*
X198543644Y-112416954D03*
X198543644Y-111146954D03*
X198543644Y-109876954D03*
%TD*%
D24*
%TO.C,TEMP*%
X165012344Y-88354954D03*
X166837344Y-88354954D03*
%TD*%
D10*
%TO.C,I2C_0x71_2*%
X98885400Y-70479400D03*
X99885400Y-70479400D03*
X100885400Y-70479400D03*
D11*
X97585400Y-67954400D03*
D10*
X101885400Y-70479400D03*
D11*
X103185400Y-67954400D03*
%TD*%
D25*
%TO.C,J3*%
X102385400Y-120061900D03*
X101885400Y-120061900D03*
X101385400Y-120061900D03*
X100885400Y-120061900D03*
X100385400Y-120061900D03*
X99885400Y-120061900D03*
X99385400Y-120061900D03*
X98885400Y-120061900D03*
X98385400Y-120061900D03*
X97885400Y-120061900D03*
X97385400Y-120061900D03*
X96885400Y-120061900D03*
X96385400Y-120061900D03*
X95885400Y-120061900D03*
X95385400Y-120061900D03*
X94885400Y-120061900D03*
X94385400Y-120061900D03*
X93885400Y-120061900D03*
X93385400Y-120061900D03*
%TD*%
D10*
%TO.C,I2C_0x70_5*%
X123935400Y-65079400D03*
X124935400Y-65079400D03*
X125935400Y-65079400D03*
D11*
X122635400Y-62554400D03*
D10*
X126935400Y-65079400D03*
D11*
X128235400Y-62554400D03*
%TD*%
D26*
%TO.C,D6*%
X200374844Y-67404954D03*
X203174844Y-67404954D03*
%TD*%
D10*
%TO.C,I2C_0x70_3*%
X107235400Y-65079400D03*
X108235400Y-65079400D03*
X109235400Y-65079400D03*
D11*
X105935400Y-62554400D03*
D10*
X110235400Y-65079400D03*
D11*
X111535400Y-62554400D03*
%TD*%
D10*
%TO.C,I2C_0x71_8*%
X148535400Y-70479400D03*
X149535400Y-70479400D03*
X150535400Y-70479400D03*
D11*
X147235400Y-67954400D03*
D10*
X151535400Y-70479400D03*
D11*
X152835400Y-67954400D03*
%TD*%
D21*
%TO.C,DSI2*%
X95035400Y-98654400D03*
X95035400Y-99154400D03*
X95035400Y-99654400D03*
X95035400Y-100154400D03*
X95035400Y-100654400D03*
X95035400Y-101154400D03*
X95035400Y-101654400D03*
X95035400Y-102154400D03*
X95035400Y-102654400D03*
X95035400Y-103154400D03*
X95035400Y-103654400D03*
X95035400Y-104154400D03*
X95035400Y-104654400D03*
X95035400Y-105154400D03*
X95035400Y-105654400D03*
X95035400Y-106154400D03*
X95035400Y-106654400D03*
X95035400Y-107154400D03*
X95035400Y-107654400D03*
X95035400Y-108154400D03*
X95035400Y-108654400D03*
X95035400Y-109154400D03*
D22*
X91785400Y-96754400D03*
X91785400Y-111054400D03*
%TD*%
D10*
%TO.C,I2C_0x71_5*%
X123935400Y-70479400D03*
X124935400Y-70479400D03*
X125935400Y-70479400D03*
D11*
X122635400Y-67954400D03*
D10*
X126935400Y-70479400D03*
D11*
X128235400Y-67954400D03*
%TD*%
D27*
%TO.C,SW1*%
X201408680Y-117521146D03*
X207125917Y-120821994D03*
%TD*%
D28*
%TO.C,J10*%
X175485400Y-110004400D03*
X175235400Y-102454400D03*
X174985400Y-110004400D03*
X174735400Y-102454400D03*
X174485400Y-110004400D03*
X174235400Y-102454400D03*
X173985400Y-110004400D03*
X173735400Y-102454400D03*
X173485400Y-110004400D03*
X173235400Y-102454400D03*
X172985400Y-110004400D03*
X172735400Y-102454400D03*
X172485400Y-110004400D03*
X172235400Y-102454400D03*
X171985400Y-110004400D03*
X171735400Y-102454400D03*
X171485400Y-110004400D03*
X171235400Y-102454400D03*
X170985400Y-110004400D03*
X170735400Y-102454400D03*
X170485400Y-110004400D03*
X170235400Y-102454400D03*
X169985400Y-110004400D03*
X169735400Y-102454400D03*
X169485400Y-110004400D03*
X169235400Y-102454400D03*
X168985400Y-110004400D03*
X168735400Y-102454400D03*
X168485400Y-110004400D03*
X168235400Y-102454400D03*
X167985400Y-110004400D03*
X167735400Y-102454400D03*
X167485400Y-110004400D03*
X167235400Y-102454400D03*
X166985400Y-110004400D03*
X166735400Y-102454400D03*
X166485400Y-110004400D03*
X166235400Y-102454400D03*
X165985400Y-110004400D03*
X165735400Y-102454400D03*
X165485400Y-110004400D03*
X165235400Y-102454400D03*
X164985400Y-110004400D03*
X164735400Y-102454400D03*
X164485400Y-110004400D03*
X164235400Y-102454400D03*
X163985400Y-110004400D03*
X163735400Y-102454400D03*
X163485400Y-110004400D03*
X163235400Y-102454400D03*
X162985400Y-110004400D03*
X162735400Y-102454400D03*
X162485400Y-110004400D03*
X162235400Y-102454400D03*
X161985400Y-110004400D03*
X161735400Y-102454400D03*
X161485400Y-110004400D03*
X161235400Y-102454400D03*
X158985400Y-110004400D03*
X158735400Y-102454400D03*
X158485400Y-110004400D03*
X158235400Y-102454400D03*
X157985400Y-110004400D03*
X157735400Y-102454400D03*
X157485400Y-110004400D03*
X157235400Y-102454400D03*
X156985400Y-110004400D03*
D29*
X176585400Y-109229400D03*
X155885400Y-109229400D03*
%TD*%
D16*
%TO.C,TEMP*%
X154174844Y-84867454D03*
X154174844Y-83042454D03*
%TD*%
D10*
%TO.C,I2C_0x70_2*%
X98885400Y-65104400D03*
X99885400Y-65104400D03*
X100885400Y-65104400D03*
D11*
X97585400Y-62579400D03*
D10*
X101885400Y-65104400D03*
D11*
X103185400Y-62579400D03*
%TD*%
D10*
%TO.C,I2C_0x71_7*%
X140285400Y-70479400D03*
X141285400Y-70479400D03*
X142285400Y-70479400D03*
D11*
X138985400Y-67954400D03*
D10*
X143285400Y-70479400D03*
D11*
X144585400Y-67954400D03*
%TD*%
D10*
%TO.C,I2C_0x71_6*%
X132085400Y-70479400D03*
X133085400Y-70479400D03*
X134085400Y-70479400D03*
D11*
X130785400Y-67954400D03*
D10*
X135085400Y-70479400D03*
D11*
X136385400Y-67954400D03*
%TD*%
D30*
%TO.C,U9*%
X189731344Y-119444254D03*
X190231344Y-119444254D03*
X190731344Y-119444254D03*
X191231344Y-119444254D03*
X191731344Y-119444254D03*
X191731344Y-118674254D03*
X191231344Y-118674254D03*
X190731344Y-118674254D03*
X190231344Y-118674254D03*
X189731344Y-118674254D03*
%TD*%
D10*
%TO.C,I2C_0x70_7*%
X140285400Y-65079400D03*
X141285400Y-65079400D03*
X142285400Y-65079400D03*
D11*
X138985400Y-62554400D03*
D10*
X143285400Y-65079400D03*
D11*
X144585400Y-62554400D03*
%TD*%
D10*
%TO.C,I2C_0x70_1*%
X90535400Y-65104400D03*
X91535400Y-65104400D03*
X92535400Y-65104400D03*
D11*
X89235400Y-62579400D03*
D10*
X93535400Y-65104400D03*
D11*
X94835400Y-62579400D03*
%TD*%
D31*
%TO.C,J2*%
X202362536Y-110534786D03*
X202362536Y-110034786D03*
X202362536Y-109534786D03*
X202362536Y-109034786D03*
X202362536Y-108534786D03*
X202362536Y-108034786D03*
X202362536Y-107534786D03*
X202362536Y-107034786D03*
X202362536Y-106534786D03*
X202362536Y-106034786D03*
X202362536Y-105534786D03*
X202362536Y-105034786D03*
X202362536Y-104534786D03*
X202362536Y-104034786D03*
X202362536Y-103534786D03*
X202362536Y-103034786D03*
X202362536Y-102534786D03*
X202362536Y-102034786D03*
X202362536Y-101534786D03*
X202362536Y-101034786D03*
X202362536Y-100534786D03*
X202362536Y-100034786D03*
X202362536Y-99534786D03*
X202362536Y-99034786D03*
X202362536Y-98534786D03*
X202362536Y-98034786D03*
X202362536Y-97534786D03*
X202362536Y-97034786D03*
X202362536Y-96534786D03*
X202362536Y-96034786D03*
X202362536Y-95534786D03*
X202362536Y-95034786D03*
X202362536Y-94534786D03*
X202362536Y-94034786D03*
X202362536Y-93534786D03*
X202362536Y-93034786D03*
X202362536Y-92534786D03*
X202362536Y-92034786D03*
X202362536Y-91534786D03*
X202362536Y-91034786D03*
D32*
X203487536Y-112784786D03*
D33*
X203487536Y-88784786D03*
%TD*%
D34*
%TO.C,J12*%
X193035400Y-123449400D03*
X193835400Y-123449400D03*
D35*
X194985400Y-123449400D03*
X195985400Y-123449400D03*
X196485400Y-123449400D03*
X197485400Y-123449400D03*
D34*
X198635400Y-123449400D03*
X199435400Y-123449400D03*
X199435400Y-123449400D03*
X198635400Y-123449400D03*
D35*
X197985400Y-123449400D03*
X196985400Y-123449400D03*
X195485400Y-123449400D03*
X194485400Y-123449400D03*
D34*
X193835400Y-123449400D03*
X193035400Y-123449400D03*
%TD*%
D19*
%TO.C,D10*%
X193082644Y-87860054D03*
X193082644Y-85060054D03*
%TD*%
D25*
%TO.C,J5*%
X119785400Y-120061900D03*
X119285400Y-120061900D03*
X118785400Y-120061900D03*
X118285400Y-120061900D03*
X117785400Y-120061900D03*
X117285400Y-120061900D03*
X116785400Y-120061900D03*
X116285400Y-120061900D03*
X115785400Y-120061900D03*
X115285400Y-120061900D03*
X114785400Y-120061900D03*
X114285400Y-120061900D03*
X113785400Y-120061900D03*
X113285400Y-120061900D03*
X112785400Y-120061900D03*
X112285400Y-120061900D03*
X111785400Y-120061900D03*
X111285400Y-120061900D03*
X110785400Y-120061900D03*
%TD*%
D34*
%TO.C,J11*%
X182015400Y-123404400D03*
X182815400Y-123404400D03*
D35*
X183965400Y-123404400D03*
X184965400Y-123404400D03*
X185465400Y-123404400D03*
X186465400Y-123404400D03*
D34*
X187615400Y-123404400D03*
X188415400Y-123404400D03*
X188415400Y-123404400D03*
X187615400Y-123404400D03*
D35*
X186965400Y-123404400D03*
X185965400Y-123404400D03*
X184465400Y-123404400D03*
X183465400Y-123404400D03*
D34*
X182815400Y-123404400D03*
X182015400Y-123404400D03*
%TD*%
D36*
%TO.C,D4*%
X180408044Y-112848754D03*
X180408044Y-115648754D03*
%TD*%
D26*
%TO.C,D5*%
X205324844Y-67404954D03*
X208124844Y-67404954D03*
%TD*%
D16*
%TO.C,R99*%
X194047844Y-83412054D03*
X194047844Y-81587054D03*
%TD*%
D10*
%TO.C,I2C_1*%
X90574751Y-76275083D03*
X91574751Y-76275083D03*
X92574751Y-76275083D03*
D11*
X89274751Y-73750083D03*
D10*
X93574751Y-76275083D03*
D11*
X94874751Y-73750083D03*
%TD*%
D37*
%TO.C,R24*%
X182694044Y-109196054D03*
X182694044Y-111021054D03*
%TD*%
D38*
%TO.C,U20*%
X192658544Y-90350754D03*
X192658544Y-91000754D03*
X192658544Y-91650754D03*
X192658544Y-92300754D03*
X192658544Y-92950754D03*
X192658544Y-93600754D03*
X192658544Y-94250754D03*
X192658544Y-94900754D03*
X192658544Y-95550754D03*
X192658544Y-96200754D03*
X192658544Y-96850754D03*
X192658544Y-97500754D03*
X198383544Y-97500754D03*
X198383544Y-96850754D03*
X198383544Y-96200754D03*
X198383544Y-95550754D03*
X198383544Y-94900754D03*
X198383544Y-94250754D03*
X198383544Y-93600754D03*
X198383544Y-92950754D03*
X198383544Y-92300754D03*
X198383544Y-91650754D03*
X198383544Y-91000754D03*
X198383544Y-90350754D03*
%TD*%
D39*
%TO.C,C3*%
X188974844Y-109404954D03*
X188974844Y-111304954D03*
%TD*%
D19*
%TO.C,D3*%
X182737626Y-115579821D03*
X182737626Y-112779821D03*
%TD*%
D16*
%TO.C,R97*%
X197908644Y-83410154D03*
X197908644Y-81585154D03*
%TD*%
D10*
%TO.C,I2C_0x70_4*%
X115585400Y-65079400D03*
X116585400Y-65079400D03*
X117585400Y-65079400D03*
D11*
X114285400Y-62554400D03*
D10*
X118585400Y-65079400D03*
D11*
X119885400Y-62554400D03*
%TD*%
D10*
%TO.C,I2C_0x70_6*%
X132085400Y-65079400D03*
X133085400Y-65079400D03*
X134085400Y-65079400D03*
D11*
X130785400Y-62554400D03*
D10*
X135085400Y-65079400D03*
D11*
X136385400Y-62554400D03*
%TD*%
D19*
%TO.C,D9*%
X195419444Y-87860054D03*
X195419444Y-85060054D03*
%TD*%
M02*
