M48
; DRILL file {KiCad 9.0.2} date 2025-10-01T08:00:17+0200
; FORMAT={-:-/ absolute / inch / decimal}
; #@! TF.CreationDate,2025-10-01T08:00:17+02:00
; #@! TF.GenerationSoftware,Kicad,Pcbnew,9.0.2
; #@! TF.FileFunction,Plated,1,6,PTH
FMAT,2
INCH
; #@! TA.AperFunction,Plated,PTH,ViaDrill
T1C0.0118
; #@! TA.AperFunction,Plated,PTH,ComponentDrill
T2C0.0118
; #@! TA.AperFunction,Plated,PTH,ComponentDrill
T3C0.0295
; #@! TA.AperFunction,Plated,PTH,ComponentDrill
T4C0.0394
; #@! TA.AperFunction,Plated,PTH,ComponentDrill
T5C0.0866
; #@! TA.AperFunction,Plated,PTH,ComponentDrill
T6C0.1791
%
G90
G05
T1
X1.9598Y-3.4576
X1.9601Y-3.4176
X1.9641Y-3.392
X1.9641Y-3.4826
X1.9657Y-5.8198
X1.966Y-5.7798
X1.97Y-5.7542
X1.97Y-5.8448
X1.9776Y-3.4373
X1.9798Y-3.3566
X1.9821Y-3.5165
X1.9835Y-5.7995
X1.9857Y-5.7188
X1.9877Y-3.3822
X1.9877Y-3.4924
X1.988Y-5.8788
X1.9936Y-3.4117
X1.9936Y-3.4629
X1.9936Y-5.7444
X1.9936Y-5.8546
X1.9956Y-3.3369
X1.9958Y-3.5382
X1.9995Y-5.7739
X1.9995Y-5.8251
X2.0015Y-5.6991
X2.0018Y-5.9004
X2.0133Y-3.3625
X2.0133Y-3.5101
X2.0192Y-5.7247
X2.0192Y-5.8723
X2.0209Y-3.333
X2.0209Y-3.5416
X2.0254Y-3.5677
X2.0268Y-5.6952
X2.0268Y-5.9038
X2.0271Y-3.3074
X2.0313Y-5.9299
X2.033Y-5.6696
X2.0467Y-3.2936
X2.047Y-3.5815
X2.0507Y-3.3251
X2.0526Y-3.5495
X2.0526Y-5.6558
X2.0529Y-5.9437
X2.0566Y-5.6873
X2.0585Y-5.9117
X2.0704Y-3.2995
X2.0704Y-3.5751
X2.0763Y-5.6617
X2.0763Y-5.9373
X2.0805Y-3.5973
X2.0841Y-3.2779
X2.0864Y-5.9595
X2.09Y-5.6401
X2.0979Y-3.3054
X2.1019Y-3.5692
X2.1038Y-5.6676
X2.1041Y-3.5992
X2.1058Y-3.2739
X2.1078Y-5.9314
X2.11Y-5.9614
X2.1117Y-5.6361
X2.1252Y-3.2877
X2.1252Y-3.5869
X2.1311Y-5.6499
X2.1311Y-5.9491
X2.1471Y-3.2759
X2.1478Y-3.6029
X2.1491Y-3.3034
X2.1511Y-3.5692
X2.153Y-5.6381
X2.1537Y-5.9652
X2.155Y-5.6656
X2.157Y-5.9314
X2.1708Y-3.2779
X2.1727Y-3.5987
X2.1767Y-5.6401
X2.1786Y-5.9609
X2.1806Y-3.2995
X2.1806Y-3.5751
X2.1865Y-5.6617
X2.1865Y-5.9373
X2.1983Y-3.3231
X2.2003Y-3.5495
X2.2042Y-3.2936
X2.2042Y-5.6853
X2.2062Y-5.9117
X2.2067Y-3.5807
X2.2101Y-5.6558
X2.2126Y-5.9429
X2.2259Y-3.3074
X2.2283Y-3.5669
X2.229Y-3.3336
X2.2306Y-3.5425
X2.2318Y-5.6696
X2.2343Y-5.9291
X2.2349Y-5.6958
X2.2365Y-5.9047
X2.2377Y-3.3625
X2.2397Y-3.5121
X2.2436Y-5.7247
X2.2456Y-5.8743
X2.2554Y-3.3369
X2.2574Y-3.4629
X2.2579Y-3.5374
X2.2593Y-3.4117
X2.2613Y-5.6991
X2.2633Y-3.3822
X2.2633Y-3.4924
X2.2633Y-5.8251
X2.2638Y-5.8996
X2.2652Y-5.7739
X2.2692Y-3.3586
X2.2692Y-5.7444
X2.2692Y-5.8546
X2.2717Y-3.5157
X2.2748Y-3.4373
X2.2751Y-5.7208
X2.2776Y-5.878
X2.2807Y-5.7995
X2.2872Y-3.3925
X2.2874Y-3.4823
X2.2894Y-3.4587
X2.2914Y-3.4175
X2.2931Y-5.7547
X2.2933Y-5.8445
X2.2953Y-5.8209
X2.2973Y-5.7797
X2.5866Y-5.6043
X2.5925Y-5.628
X2.6043Y-5.5866
X2.6102Y-5.6102
X2.6161Y-5.6339
X2.622Y-5.5689
X2.628Y-5.5925
X2.6339Y-5.6161
X2.6398Y-5.5512
X2.6457Y-5.5748
X2.6516Y-5.5984
X2.6575Y-5.5335
X2.6634Y-5.5571
X2.6693Y-5.5807
X2.6811Y-5.5394
X2.687Y-5.563
X2.7323Y-4.6299
X2.7323Y-4.6614
X2.7323Y-4.6929
X2.7323Y-4.7244
X2.7323Y-4.7559
X2.7486Y-4.9626
X2.7638Y-4.6299
X2.7638Y-4.6614
X2.7638Y-4.6929
X2.7638Y-4.7244
X2.7638Y-4.7559
X2.972Y-3.598
X3.0787Y-3.8189
X3.1358Y-4.2756
X3.1358Y-4.315
X3.1358Y-4.3543
X3.1358Y-4.3937
X3.1358Y-4.4331
X3.1358Y-4.4724
X3.1358Y-4.5118
X3.1496Y-3.7953
X3.1614Y-3.7746
X3.1614Y-3.8159
X3.1673Y-3.4882
X3.1732Y-3.7953
X3.1752Y-4.2756
X3.1752Y-4.315
X3.1752Y-4.3543
X3.1752Y-4.3937
X3.1752Y-4.4331
X3.1752Y-4.4724
X3.1752Y-4.5118
X3.1791Y-3.4675
X3.1791Y-3.5089
X3.185Y-3.7746
X3.185Y-3.8159
X3.1909Y-3.4882
X3.1909Y-3.5295
X3.1969Y-3.7953
X3.2028Y-3.4675
X3.2028Y-3.5089
X3.2028Y-3.5502
X3.2087Y-3.7746
X3.2087Y-3.8159
X3.2146Y-3.4882
X3.2146Y-3.5295
X3.2146Y-3.5709
X3.2146Y-4.2756
X3.2146Y-4.315
X3.2146Y-4.3543
X3.2146Y-4.3937
X3.2146Y-4.4331
X3.2146Y-4.4724
X3.2146Y-4.5118
X3.2205Y-3.7953
X3.2264Y-3.4675
X3.2264Y-3.5089
X3.2264Y-3.5502
X3.2323Y-3.7746
X3.2323Y-3.8159
X3.2382Y-3.4882
X3.2382Y-3.5295
X3.2382Y-3.5709
X3.2441Y-3.7953
X3.2441Y-3.8969
X3.25Y-3.4675
X3.25Y-3.5089
X3.25Y-3.5502
X3.25Y-4.2047
X3.2618Y-3.4882
X3.2618Y-3.5295
X3.2736Y-3.5089
X3.2799Y-4.7016
X3.2839Y-4.5709
X3.3268Y-5.6004
X3.3327Y-5.624
X3.3445Y-5.5827
X3.3504Y-5.6063
X3.3563Y-5.6299
X3.3622Y-5.565
X3.3681Y-5.5886
X3.374Y-5.6122
X3.3778Y-4.3042
X3.3799Y-5.5472
X3.3817Y-4.3546
X3.3819Y-4.4665
X3.3831Y-4.4102
X3.3858Y-5.5709
X3.3917Y-5.5945
X3.3961Y-4.2785
X3.3976Y-5.5295
X3.3996Y-4.3287
X3.3996Y-4.3805
X3.3996Y-4.437
X3.4035Y-5.5531
X3.4094Y-3.6969
X3.4094Y-3.7362
X3.4094Y-3.7756
X3.4094Y-3.815
X3.4094Y-3.8543
X3.4094Y-3.8937
X3.4094Y-3.9331
X3.4094Y-5.5768
X3.4213Y-5.5354
X3.4272Y-5.5591
X3.4488Y-3.6969
X3.4488Y-3.7362
X3.4488Y-3.7756
X3.4488Y-3.815
X3.4488Y-3.8543
X3.4488Y-3.8937
X3.4488Y-3.9331
X3.4764Y-4.7992
X3.4826Y-4.6423
X3.4882Y-3.6969
X3.4882Y-3.7362
X3.4882Y-3.7756
X3.4882Y-3.815
X3.4882Y-3.8543
X3.4882Y-3.8937
X3.4882Y-3.9331
X3.4886Y-4.51
X3.4886Y-4.5343
X3.489Y-4.5587
X3.4944Y-4.6217
X3.4944Y-4.663
X3.5062Y-4.601
X3.5062Y-4.6423
X3.5122Y-4.51
X3.5122Y-4.5343
X3.5126Y-4.5587
X3.518Y-4.6217
X3.518Y-4.663
X3.5298Y-4.601
X3.5298Y-4.6423
X3.5299Y-5.448
X3.5416Y-4.6217
X3.5416Y-4.663
X3.5528Y-4.9661
X3.5534Y-4.601
X3.5534Y-4.6423
X3.5653Y-4.6217
X3.5653Y-4.663
X3.5771Y-4.601
X3.5771Y-4.6423
X3.5889Y-4.6217
X3.5889Y-4.663
X3.6007Y-4.601
X3.6007Y-4.6423
X3.6087Y-3.8795
X3.6125Y-4.6217
X3.6125Y-4.663
X3.6243Y-4.601
X3.6243Y-4.6423
X3.6309Y-3.4969
X3.6361Y-4.6217
X3.6361Y-4.663
X3.6427Y-3.4762
X3.6427Y-3.5175
X3.6479Y-4.6423
X3.6545Y-3.4969
X3.6545Y-3.5382
X3.6589Y-3.7963
X3.6594Y-3.8799
X3.6663Y-3.4762
X3.6663Y-3.5175
X3.6663Y-3.5589
X3.6673Y-4.1088
X3.6707Y-3.7756
X3.6707Y-3.8169
X3.6781Y-3.4969
X3.6781Y-3.5382
X3.6781Y-3.5795
X3.6825Y-3.7963
X3.6888Y-4.0868
X3.69Y-3.4762
X3.69Y-3.5175
X3.69Y-3.5589
X3.6943Y-3.7756
X3.6943Y-3.8169
X3.7018Y-3.4969
X3.7018Y-3.5382
X3.7018Y-3.5795
X3.7061Y-3.7963
X3.7126Y-4.5394
X3.7126Y-4.5709
X3.7126Y-4.6024
X3.7126Y-4.6339
X3.7126Y-4.6654
X3.7126Y-4.6969
X3.7136Y-3.4762
X3.7136Y-3.5175
X3.7136Y-3.5589
X3.7146Y-4.8431
X3.7179Y-3.7756
X3.7179Y-3.8169
X3.7254Y-3.4969
X3.7254Y-3.5382
X3.7264Y-4.8224
X3.7264Y-4.8638
X3.7297Y-3.7963
X3.7303Y-4.0012
X3.7372Y-3.5175
X3.7382Y-4.8018
X3.7382Y-4.8431
X3.7415Y-3.7756
X3.7415Y-3.8169
X3.7441Y-4.5394
X3.7441Y-4.5709
X3.7441Y-4.6024
X3.7441Y-4.6339
X3.7441Y-4.6654
X3.7441Y-4.6969
X3.75Y-4.8224
X3.75Y-4.8638
X3.7533Y-3.7963
X3.7618Y-4.8018
X3.7618Y-4.8431
X3.7736Y-4.8224
X3.7736Y-4.8638
X3.7854Y-4.8018
X3.7854Y-4.8431
X3.7972Y-4.8224
X3.7972Y-4.8638
X3.8039Y-4.9768
X3.8091Y-4.8018
X3.8091Y-4.8431
X3.8152Y-4.1809
X3.8209Y-4.8224
X3.8209Y-4.8638
X3.8268Y-3.4921
X3.8327Y-4.8018
X3.8327Y-4.8431
X3.8445Y-4.8224
X3.8445Y-4.8638
X3.853Y-4.2608
X3.8563Y-4.8018
X3.8563Y-4.8431
X3.8648Y-4.2402
X3.8648Y-4.2815
X3.8681Y-4.8224
X3.8681Y-4.8638
X3.8691Y-4.5846
X3.8766Y-4.2608
X3.8799Y-4.8431
X3.8809Y-4.564
X3.8809Y-4.6053
X3.8884Y-4.2402
X3.8884Y-4.2815
X3.8927Y-4.5433
X3.8927Y-4.5846
X3.9002Y-4.2608
X3.9045Y-4.5226
X3.9045Y-4.564
X3.9045Y-4.6053
X3.912Y-4.2402
X3.912Y-4.2815
X3.9163Y-4.502
X3.9163Y-4.5433
X3.9163Y-4.5846
X3.9238Y-4.2608
X3.9272Y-3.6988
X3.9272Y-3.7244
X3.9281Y-4.5226
X3.9281Y-4.564
X3.9281Y-4.6053
X3.9356Y-4.2402
X3.9356Y-4.2815
X3.94Y-4.502
X3.94Y-4.5433
X3.94Y-4.5846
X3.9474Y-4.2608
X3.9518Y-4.5226
X3.9518Y-4.564
X3.9518Y-4.6053
X3.9528Y-3.6988
X3.9528Y-3.7244
X3.9636Y-4.5433
X3.9636Y-4.5846
X3.9754Y-4.564
X3.9902Y-4.1535
X3.9902Y-4.2008
X4.0256Y-4.4988
X4.0591Y-5.6102
X4.065Y-4.4988
X4.065Y-5.6339
X4.0669Y-4.0079
X4.0709Y-3.7874
X4.0768Y-3.811
X4.0768Y-5.5925
X4.0827Y-3.8346
X4.0827Y-5.6161
X4.0886Y-3.7697
X4.0886Y-5.6398
X4.0945Y-3.7933
X4.0945Y-5.5748
X4.1004Y-3.8169
X4.1004Y-5.5984
X4.1063Y-3.752
X4.1063Y-3.8406
X4.1063Y-5.622
X4.1122Y-3.7756
X4.1122Y-5.5571
X4.1161Y-4.122
X4.1161Y-4.1614
X4.1161Y-4.2008
X4.1161Y-4.2402
X4.1161Y-4.2795
X4.1161Y-4.3189
X4.1161Y-4.3583
X4.1181Y-3.7992
X4.1181Y-5.5807
X4.124Y-3.7343
X4.124Y-3.8228
X4.124Y-5.6043
X4.1299Y-3.7579
X4.1299Y-5.5394
X4.1358Y-3.7815
X4.1358Y-5.563
X4.1417Y-3.7165
X4.1417Y-3.8051
X4.1417Y-5.5866
X4.1476Y-3.7402
X4.1535Y-3.7638
X4.1535Y-5.5453
X4.1555Y-4.122
X4.1555Y-4.1614
X4.1555Y-4.2008
X4.1555Y-4.2402
X4.1555Y-4.2795
X4.1555Y-4.3189
X4.1555Y-4.3583
X4.1594Y-3.6988
X4.1594Y-3.7874
X4.1594Y-5.5689
X4.1654Y-3.7224
X4.1654Y-4.878
X4.1673Y-5.3071
X4.1713Y-3.7461
X4.1772Y-3.7697
X4.1831Y-3.7047
X4.189Y-3.7283
X4.1949Y-3.752
X4.1949Y-4.122
X4.1949Y-4.1614
X4.1949Y-4.2008
X4.1949Y-4.2402
X4.1949Y-4.2795
X4.1949Y-4.3189
X4.1949Y-4.3583
X4.2067Y-3.7106
X4.2126Y-3.7343
X4.2736Y-5.4492
X4.3386Y-4.5846
X4.3504Y-4.564
X4.3504Y-4.6053
X4.3622Y-4.2598
X4.3622Y-4.5433
X4.3622Y-4.5846
X4.374Y-4.2392
X4.374Y-4.2805
X4.374Y-4.5226
X4.374Y-4.564
X4.374Y-4.6053
X4.3858Y-4.2598
X4.3858Y-4.502
X4.3858Y-4.5433
X4.3858Y-4.5846
X4.3976Y-4.2392
X4.3976Y-4.2805
X4.3976Y-4.5226
X4.3976Y-4.564
X4.3976Y-4.6053
X4.4094Y-4.2598
X4.4094Y-4.502
X4.4094Y-4.5433
X4.4094Y-4.5846
X4.4106Y-4.1524
X4.4213Y-4.2392
X4.4213Y-4.2805
X4.4213Y-4.5226
X4.4213Y-4.564
X4.4213Y-4.6053
X4.4311Y-3.9173
X4.4331Y-4.2598
X4.4331Y-4.5433
X4.4331Y-4.5846
X4.437Y-3.8524
X4.437Y-3.9409
X4.4429Y-3.7874
X4.4429Y-3.876
X4.4429Y-3.9646
X4.4449Y-4.2392
X4.4449Y-4.2805
X4.4449Y-4.564
X4.4484Y-3.9878
X4.4488Y-3.811
X4.4488Y-3.8996
X4.4488Y-4.1772
X4.4547Y-3.8346
X4.4547Y-3.9232
X4.4567Y-4.2598
X4.4606Y-3.7697
X4.4606Y-3.8583
X4.4606Y-3.9469
X4.4665Y-3.7933
X4.4665Y-3.8819
X4.4665Y-3.9705
X4.4717Y-3.9945
X4.4724Y-3.8169
X4.4724Y-3.9055
X4.4783Y-3.752
X4.4783Y-3.8406
X4.4783Y-3.9291
X4.4843Y-3.7756
X4.4843Y-3.8642
X4.4843Y-3.9528
X4.4902Y-3.7992
X4.4902Y-3.8878
X4.4902Y-3.9764
X4.4906Y-4.1555
X4.491Y-3.5028
X4.4957Y-3.9996
X4.4961Y-3.8228
X4.4961Y-3.9114
X4.4963Y-4.1795
X4.5012Y-4.1142
X4.5016Y-4.0228
X4.502Y-3.7579
X4.502Y-3.8465
X4.502Y-3.935
X4.5071Y-4.0469
X4.5079Y-3.7815
X4.5079Y-3.8701
X4.5079Y-3.9587
X4.5081Y-4.1382
X4.5126Y-4.0713
X4.5138Y-3.8051
X4.5138Y-3.8937
X4.5138Y-3.9823
X4.514Y-4.1618
X4.5165Y-3.5701
X4.5185Y-4.0961
X4.5197Y-3.8287
X4.5197Y-3.9173
X4.5197Y-4.0063
X4.5199Y-4.1854
X4.5248Y-4.1205
X4.5256Y-3.7638
X4.5256Y-3.8524
X4.5256Y-3.9409
X4.5256Y-4.0303
X4.5258Y-4.2091
X4.5311Y-4.0543
X4.5315Y-3.7874
X4.5315Y-3.876
X4.5317Y-4.1441
X4.5317Y-4.2327
X4.5319Y-3.9654
X4.5354Y-4.8878
X4.5366Y-4.0783
X4.5374Y-3.811
X4.5376Y-4.1677
X4.5378Y-3.9894
X4.5425Y-4.1028
X4.5435Y-4.1913
X4.5437Y-4.0134
X4.5484Y-4.1264
X4.5492Y-4.0374
X4.5492Y-3.4972
X4.5494Y-4.215
X4.5547Y-4.0614
X4.5553Y-4.15
X4.5553Y-4.2386
X4.5602Y-4.085
X4.5612Y-4.1736
X4.5642Y-3.624
X4.5661Y-4.1087
X4.5671Y-4.1972
X4.572Y-4.1323
X4.573Y-4.2209
X4.5787Y-4.0669
X4.5789Y-4.1559
X4.5795Y-3.5953
X4.5839Y-4.0909
X4.5848Y-4.1795
X4.5898Y-4.1146
X4.5907Y-4.2031
X4.5963Y-4.1386
X4.6004Y-4.6661
X4.6026Y-4.1628
X4.6073Y-4.0976
X4.6085Y-4.1864
X4.6136Y-4.1213
X4.615Y-3.6134
X4.6199Y-4.1453
X4.7441Y-4.5551
X4.7539Y-4.0433
X4.7823Y-4.6757
X4.7933Y-5.6122
X4.7992Y-5.6358
X4.8087Y-4.6529
X4.811Y-5.5945
X4.8169Y-5.6181
X4.8228Y-5.6417
X4.8287Y-5.5768
X4.8346Y-5.6004
X4.8406Y-5.624
X4.8465Y-5.5591
X4.8524Y-5.5827
X4.8583Y-5.6063
X4.8642Y-5.5413
X4.8701Y-5.565
X4.876Y-5.5886
X4.8858Y-3.9843
X4.8859Y-3.4255
X4.8878Y-5.5472
X4.8937Y-5.5709
X4.9012Y-5.3091
X5.0012Y-5.4331
X5.0106Y-4.0173
X5.0787Y-3.823
X5.0945Y-4.3622
X5.1193Y-4.6161
X5.1457Y-3.3937
X5.1539Y-4.6161
X5.1732Y-4.752
X5.2323Y-3.9616
X5.2323Y-4.003
X5.2323Y-4.0443
X5.2441Y-3.9409
X5.2441Y-3.9823
X5.2441Y-4.0236
X5.2441Y-4.065
X5.2459Y-5.3447
X5.252Y-3.5669
X5.2559Y-3.9616
X5.2559Y-4.003
X5.2559Y-4.0443
X5.2677Y-3.9409
X5.2677Y-3.9823
X5.2677Y-4.0236
X5.2677Y-4.065
X5.2709Y-4.9228
X5.2795Y-3.9616
X5.2795Y-4.003
X5.2795Y-4.0443
X5.3091Y-5.3169
X5.315Y-4.9331
X5.3189Y-5.0723
X5.3228Y-5.2101
X5.3524Y-5.576
X5.3524Y-5.6036
X5.3524Y-5.6312
X5.3819Y-5.576
X5.3819Y-5.6036
X5.3819Y-5.6312
X5.4035Y-3.6339
X5.4225Y-4.8952
X5.4225Y-5.033
X5.4225Y-5.1708
X5.4225Y-5.3086
X5.4227Y-5.2091
X5.4227Y-5.0703
X5.4308Y-3.699
X5.4614Y-3.6969
X5.4823Y-5.0295
X5.5012Y-4.9345
X5.5012Y-5.092
X5.5012Y-5.3479
X5.5114Y-3.6921
X5.5256Y-5.4882
X5.5827Y-4.6063
X5.5846Y-3.6909
X5.5957Y-5.0527
X5.5957Y-5.1905
X5.5957Y-5.3282
X5.5977Y-4.9227
X5.611Y-5.5374
X5.611Y-5.5669
X5.6161Y-4.6063
X5.626Y-3.5315
X5.6263Y-5.1283
X5.627Y-5.1683
X5.6385Y-5.5374
X5.6385Y-5.5669
X5.6437Y-4.565
X5.6484Y-4.6055
X5.6496Y-3.8268
X5.6661Y-5.5374
X5.6661Y-5.5669
X5.6791Y-4.6063
X5.6937Y-4.9291
X5.7016Y-4.9646
X5.7205Y-3.7736
X5.7264Y-4.8996
X5.7283Y-4.2165
X5.7323Y-4.7306
X5.7697Y-4.7244
X5.7947Y-5.0793
X5.7953Y-4.8848
X5.7953Y-4.9607
X5.8091Y-4.5098
X5.8386Y-4.8878
X5.8465Y-4.2165
X5.8465Y-5.3874
X5.8583Y-3.8583
X5.8583Y-3.8898
X5.8622Y-5.0234
X5.8826Y-5.5374
X5.8826Y-5.5669
X5.8858Y-4.6122
X5.8898Y-3.8583
X5.8898Y-3.8898
X5.9102Y-5.5374
X5.9102Y-5.5669
X5.9114Y-4.4936
X5.9213Y-3.8583
X5.9213Y-3.8898
X5.937Y-4.5133
X5.9377Y-5.5374
X5.9377Y-5.5669
X5.9528Y-3.8583
X5.9528Y-3.8898
X5.9626Y-3.5544
X5.9626Y-4.4936
X5.9646Y-4.2165
X5.9724Y-5.2461
X5.9744Y-5.2854
X5.9843Y-3.8583
X5.9843Y-3.8898
X5.9882Y-4.5133
X6.0126Y-5.1426
X6.0138Y-4.4936
X6.0157Y-3.8583
X6.0157Y-3.8898
X6.0335Y-5.0236
X6.0394Y-4.5133
X6.0472Y-3.8583
X6.0472Y-3.8898
X6.0492Y-5.1811
X6.063Y-5.1426
X6.065Y-4.4936
X6.0787Y-3.8583
X6.0787Y-3.8898
X6.0827Y-4.2165
X6.0906Y-4.5133
X6.1376Y-5.1339
X6.1406Y-4.7598
X6.1543Y-5.5354
X6.1543Y-5.565
X6.1626Y-5.0197
X6.1774Y-5.4254
X6.1818Y-5.5354
X6.1818Y-5.565
X6.1876Y-5.0394
X6.1906Y-4.7559
X6.2028Y-4.9449
X6.2047Y-4.2205
X6.2094Y-5.5354
X6.2094Y-5.565
X6.2126Y-5.0197
X6.2213Y-4.7559
X6.2376Y-5.0394
X6.2382Y-3.7559
X6.252Y-4.7559
X6.2626Y-5.0197
X6.2835Y-4.7559
X6.2876Y-5.0394
X6.311Y-3.5591
X6.311Y-4.435
X6.3111Y-4.6077
X6.312Y-4.4783
X6.3126Y-5.0197
X6.3228Y-4.2205
X6.3376Y-5.0394
X6.3583Y-4.7362
X6.3622Y-4.937
X6.376Y-4.5965
X6.377Y-4.4587
X6.422Y-4.9606
X6.422Y-5.1004
X6.4259Y-5.5374
X6.4259Y-5.5669
X6.4409Y-4.2205
X6.4535Y-5.5374
X6.4535Y-5.5669
X6.4724Y-4.7539
X6.4754Y-5.1732
X6.4764Y-4.8937
X6.4774Y-5.0335
X6.4811Y-5.5374
X6.4811Y-5.5669
X6.4961Y-4.4469
X6.5002Y-4.9469
X6.502Y-4.613
X6.5433Y-4.613
X6.5433Y-4.7343
X6.5433Y-4.874
X6.5433Y-5.0138
X6.5433Y-5.1535
X6.5441Y-4.9783
X6.5551Y-4.561
X6.6004Y-4.563
X6.6354Y-4.5567
X6.6378Y-5.2835
X6.6398Y-3.7146
X6.6786Y-3.6055
X6.6949Y-4.497
X6.6976Y-5.5354
X6.6976Y-5.565
X6.7039Y-4.9198
X6.7039Y-4.9506
X6.7041Y-4.8214
X6.7055Y-4.7908
X6.7067Y-4.4764
X6.7067Y-4.5177
X6.7185Y-4.497
X6.7214Y-4.7386
X6.7244Y-5.0866
X6.7251Y-5.5354
X6.7251Y-5.565
X6.7283Y-4.7087
X6.7303Y-4.4764
X6.7303Y-4.5177
X6.7333Y-4.8638
X6.7359Y-4.7767
X6.7409Y-5.3945
X6.7421Y-4.497
X6.75Y-4.311
X6.7527Y-5.5354
X6.7527Y-5.565
X6.7539Y-4.4764
X6.7539Y-4.5177
X6.7564Y-4.8374
X6.7586Y-4.8831
X6.7597Y-4.9464
X6.7657Y-4.497
X6.7705Y-4.9752
X6.8543Y-4.1339
X6.8563Y-4.2087
X6.8622Y-4.2776
X6.8661Y-4.1132
X6.8681Y-4.188
X6.874Y-4.2569
X6.878Y-4.1339
X6.8799Y-4.2087
X6.8839Y-4.3661
X6.8839Y-4.4075
X6.8839Y-4.4488
X6.8858Y-4.2776
X6.8898Y-4.1132
X6.8917Y-4.188
X6.8957Y-4.3455
X6.8957Y-4.3868
X6.8957Y-4.4281
X6.8957Y-4.4695
X6.8976Y-4.2569
X6.9016Y-4.1339
X6.9035Y-4.2087
X6.9075Y-4.3661
X6.9075Y-4.4075
X6.9075Y-4.4488
X6.9094Y-4.2776
X6.9134Y-4.1132
X6.9154Y-4.188
X6.9169Y-5.4807
X6.9193Y-4.3455
X6.9193Y-4.3868
X6.9193Y-4.4281
X6.9193Y-4.4695
X6.9213Y-4.2569
X6.9252Y-4.1339
X6.9272Y-4.2087
X6.9291Y-3.9252
X6.9291Y-3.9665
X6.9291Y-4.0079
X6.9311Y-4.3661
X6.9311Y-4.4075
X6.9311Y-4.4488
X6.9331Y-4.2776
X6.937Y-3.3386
X6.937Y-4.1132
X6.939Y-4.188
X6.9409Y-3.9045
X6.9409Y-3.9459
X6.9409Y-3.9872
X6.9409Y-4.0285
X6.9449Y-4.2569
X6.9457Y-4.6594
X6.9528Y-3.9252
X6.9528Y-3.9665
X6.9528Y-4.0079
X6.9646Y-3.9045
X6.9646Y-3.9459
X6.9646Y-3.9872
X6.9646Y-4.0285
X6.9764Y-3.9252
X6.9764Y-3.9665
X6.9764Y-4.0079
X7.076Y-3.4596
X7.076Y-5.8198
X7.0763Y-3.4196
X7.0763Y-5.7798
X7.0802Y-3.394
X7.0802Y-3.4845
X7.0802Y-5.7542
X7.0802Y-5.8448
X7.0937Y-3.4393
X7.0937Y-5.7995
X7.096Y-3.3586
X7.096Y-5.7188
X7.0982Y-3.5185
X7.0982Y-5.8788
X7.1038Y-3.3842
X7.1038Y-3.4944
X7.1038Y-5.7444
X7.1038Y-5.8546
X7.1097Y-3.4137
X7.1097Y-3.4649
X7.1097Y-5.7739
X7.1097Y-5.8251
X7.1117Y-3.3389
X7.1117Y-5.6991
X7.112Y-3.5402
X7.112Y-5.9004
X7.1294Y-3.3645
X7.1294Y-3.5121
X7.1294Y-5.7247
X7.1294Y-5.8723
X7.137Y-3.3349
X7.137Y-3.5436
X7.137Y-5.6952
X7.137Y-5.9038
X7.1415Y-3.5697
X7.1415Y-5.9299
X7.1432Y-3.3093
X7.1432Y-5.6696
X7.1629Y-3.2956
X7.1629Y-5.6558
X7.1632Y-3.5835
X7.1632Y-5.9437
X7.1668Y-3.3271
X7.1668Y-5.6873
X7.1688Y-3.5515
X7.1688Y-5.9117
X7.1865Y-3.3015
X7.1865Y-3.5771
X7.1865Y-5.6617
X7.1865Y-5.9373
X7.1966Y-3.5992
X7.1966Y-5.9595
X7.2003Y-3.2798
X7.2003Y-5.6401
X7.2141Y-3.3074
X7.2141Y-5.6676
X7.218Y-3.5712
X7.218Y-5.9314
X7.2203Y-3.6012
X7.2203Y-5.9614
X7.2219Y-3.2759
X7.2219Y-5.6361
X7.2414Y-3.2897
X7.2414Y-3.5889
X7.2414Y-5.6499
X7.2414Y-5.9491
X7.2633Y-3.2779
X7.2633Y-5.6381
X7.2639Y-3.6049
X7.2639Y-5.9652
X7.2652Y-3.3054
X7.2652Y-5.6656
X7.2672Y-3.5712
X7.2672Y-5.9314
X7.2869Y-3.2798
X7.2869Y-5.6401
X7.2889Y-3.6007
X7.2889Y-5.9609
X7.2967Y-3.3015
X7.2967Y-3.5771
X7.2967Y-5.6617
X7.2967Y-5.9373
X7.3145Y-3.3251
X7.3145Y-5.6853
X7.3164Y-3.5515
X7.3164Y-5.9117
X7.3204Y-3.2956
X7.3204Y-5.6558
X7.3228Y-3.5827
X7.3228Y-5.9429
X7.342Y-3.3093
X7.342Y-5.6696
X7.3445Y-3.5689
X7.3445Y-5.9291
X7.3452Y-3.3356
X7.3452Y-5.6958
X7.3468Y-3.5445
X7.3468Y-5.9047
X7.3538Y-3.3645
X7.3538Y-5.7247
X7.3558Y-3.5141
X7.3558Y-5.8743
X7.3715Y-3.3389
X7.3715Y-5.6991
X7.3735Y-3.4649
X7.3735Y-5.8251
X7.374Y-3.5394
X7.374Y-5.8996
X7.3755Y-3.4137
X7.3755Y-5.7739
X7.3794Y-3.3842
X7.3794Y-3.4944
X7.3794Y-5.7444
X7.3794Y-5.8546
X7.3853Y-3.3605
X7.3853Y-5.7208
X7.3878Y-3.5177
X7.3878Y-5.878
X7.391Y-3.4393
X7.391Y-5.7995
X7.4033Y-3.3945
X7.4033Y-5.7547
X7.4035Y-3.4843
X7.4035Y-5.8445
X7.4055Y-3.4606
X7.4055Y-5.8209
X7.4076Y-3.4195
X7.4076Y-5.7797
T2
X4.2894Y-3.5118
X4.2894Y-3.563
X4.2894Y-3.6142
X4.2894Y-3.6654
X4.3406Y-3.5118
X4.3406Y-3.563
X4.3406Y-3.6142
X4.3406Y-3.6654
X4.7182Y-4.2541
X4.7182Y-4.3053
X4.7182Y-4.3565
X4.7182Y-4.4077
X4.7198Y-3.7482
X4.7198Y-3.7994
X4.7198Y-3.8506
X4.7198Y-3.9018
X4.7694Y-4.2541
X4.7694Y-4.3053
X4.7694Y-4.3565
X4.7694Y-4.4077
X4.771Y-3.7482
X4.771Y-3.7994
X4.771Y-3.8506
X4.771Y-3.9018
T3
X2.4764Y-4.374
X2.4764Y-4.4528
X2.4764Y-4.6457
X2.4764Y-4.7244
X2.498Y-5.8356
X2.5249Y-4.0801
X2.5768Y-5.8356
X2.6036Y-4.0801
X2.6555Y-5.8356
X2.7343Y-5.8356
X2.813Y-5.8356
X2.8917Y-5.8356
X3.2362Y-5.8352
X3.315Y-5.8352
X3.3937Y-5.8352
X3.4724Y-5.8352
X3.5512Y-5.8352
X3.6299Y-5.8352
X3.9692Y-5.8368
X4.0479Y-5.8368
X4.1267Y-5.8368
X4.2054Y-5.8368
X4.2842Y-5.8368
X4.3629Y-5.8368
X4.6984Y-5.8364
X4.7772Y-5.8364
X4.8559Y-5.8364
X4.9346Y-5.8364
X5.0134Y-5.8364
X5.0921Y-5.8364
X5.3681Y-3.4311
X5.4409Y-5.8346
X5.4469Y-3.4311
X5.5197Y-5.8346
X5.5256Y-3.4311
X5.7126Y-5.8346
X5.7303Y-3.4311
X5.7913Y-5.8346
X5.8091Y-3.4311
X5.8878Y-3.4311
X5.9843Y-5.8346
X6.063Y-5.8346
X6.0925Y-3.4311
X6.1713Y-3.4311
X6.25Y-3.4311
X6.2559Y-5.8346
X6.3346Y-5.8346
X6.4547Y-3.4311
X6.5276Y-5.8346
X6.5335Y-3.4311
X6.6063Y-5.8346
X6.6122Y-3.4311
X6.7992Y-5.8346
X6.878Y-5.8346
X6.8878Y-3.5669
X6.8878Y-3.6457
X6.8878Y-3.7244
T4
X2.4449Y-4.9574
X2.4449Y-5.0574
X2.4449Y-5.1574
X2.4449Y-5.2574
X2.4449Y-5.3574
X2.4449Y-5.4574
X2.4449Y-5.5574
X2.4449Y-5.6574
X2.6486Y-4.3469
X2.6486Y-4.4469
X2.6486Y-4.5469
X2.7449Y-5.6574
X2.7486Y-4.3469
X2.7486Y-4.4469
X2.7486Y-4.5469
X2.8449Y-5.6574
X2.9449Y-4.9574
X2.9449Y-5.0574
X2.9449Y-5.1574
X2.9449Y-5.2574
X2.9449Y-5.3574
X2.9449Y-5.4574
X2.9449Y-5.5574
X2.9449Y-5.6574
X3.1831Y-4.9574
X3.1831Y-5.0574
X3.1831Y-5.1574
X3.1831Y-5.2574
X3.1831Y-5.3574
X3.1831Y-5.4574
X3.1831Y-5.5574
X3.1831Y-5.6574
X3.4831Y-5.6574
X3.5831Y-5.6574
X3.6831Y-4.9574
X3.6831Y-5.0574
X3.6831Y-5.1574
X3.6831Y-5.2574
X3.6831Y-5.3574
X3.6831Y-5.4574
X3.6831Y-5.5574
X3.6831Y-5.6574
X3.9155Y-4.9574
X3.9155Y-5.0574
X3.9155Y-5.1574
X3.9155Y-5.2574
X3.9155Y-5.3574
X3.9155Y-5.4574
X3.9155Y-5.5574
X3.9155Y-5.6574
X4.2155Y-5.6574
X4.3155Y-5.6574
X4.4155Y-4.9574
X4.4155Y-5.0574
X4.4155Y-5.1574
X4.4155Y-5.2574
X4.4155Y-5.3574
X4.4155Y-5.4574
X4.4155Y-5.5574
X4.4155Y-5.6574
X4.6476Y-4.9559
X4.6476Y-5.0559
X4.6476Y-5.1559
X4.6476Y-5.2559
X4.6476Y-5.3559
X4.6476Y-5.4559
X4.6476Y-5.5559
X4.6476Y-5.6559
X4.9476Y-5.6559
X5.0476Y-5.6559
X5.1476Y-4.9559
X5.1476Y-5.0559
X5.1476Y-5.1559
X5.1476Y-5.2559
X5.1476Y-5.3559
X5.1476Y-5.4559
X5.1476Y-5.5559
X5.1476Y-5.6559
X5.4409Y-4.1024
X5.5409Y-4.1024
X5.6409Y-4.1024
X5.7409Y-4.1024
X5.8409Y-4.1024
X5.9409Y-4.1024
X6.0409Y-4.1024
X6.1409Y-4.1024
X6.2409Y-4.1024
X6.3409Y-4.1024
X6.4409Y-4.1024
X6.5409Y-4.1024
T5
X2.9803Y-3.4626
X2.9803Y-4.6831
X5.0276Y-3.4626
X5.0276Y-4.6831
T6
X2.5583Y-3.4875
X2.5583Y-3.771
M30
