M48
; DRILL file {KiCad 9.0.2} date 2025-10-06T21:14:46+0200
; FORMAT={-:-/ absolute / inch / decimal}
; #@! TF.CreationDate,2025-10-06T21:14:46+02:00
; #@! TF.GenerationSoftware,Kicad,Pcbnew,9.0.2
; #@! TF.FileFunction,Plated,1,2,PTH
FMAT,2
INCH
; #@! TA.AperFunction,Plated,PTH,ViaDrill
T1C0.0118
; #@! TA.AperFunction,Plated,PTH,ComponentDrill
T2C0.0394
%
G90
G05
T1
X2.0925Y-1.6031
X2.0925Y-1.6307
X2.0925Y-1.6583
X2.0925Y-1.6858
X2.0925Y-1.7134
X2.0945Y-5.2087
X2.0945Y-5.2362
X2.0945Y-5.2638
X2.0945Y-5.2913
X2.0945Y-5.3189
X2.1437Y-1.6031
X2.1437Y-1.6307
X2.1437Y-1.6583
X2.1437Y-1.6858
X2.1437Y-1.7134
X2.1457Y-5.2087
X2.1457Y-5.2362
X2.1457Y-5.2638
X2.1457Y-5.2913
X2.1457Y-5.3189
X2.1831Y-1.6031
X2.1831Y-1.6307
X2.1831Y-1.6583
X2.1831Y-1.6858
X2.1831Y-1.7134
X2.185Y-5.2087
X2.185Y-5.2362
X2.185Y-5.2638
X2.185Y-5.2913
X2.185Y-5.3189
X2.2303Y-1.6031
X2.2303Y-1.6307
X2.2303Y-1.6583
X2.2303Y-1.6858
X2.2303Y-1.7134
X2.2323Y-5.2087
X2.2323Y-5.2362
X2.2323Y-5.2638
X2.2323Y-5.2913
X2.2323Y-5.3189
X2.2594Y-2.1004
X2.2594Y-2.128
X2.2594Y-2.1555
X2.2594Y-2.1831
X2.2594Y-2.2106
X2.2988Y-2.1004
X2.2988Y-2.128
X2.2988Y-2.1555
X2.2988Y-2.1831
X2.2988Y-2.2106
X2.3106Y-4.7244
X2.3106Y-4.752
X2.3106Y-4.7795
X2.3106Y-4.8071
X2.3106Y-4.8346
X2.3287Y-1.6031
X2.3287Y-1.6307
X2.3287Y-1.6583
X2.3287Y-1.6858
X2.3287Y-1.7134
X2.3307Y-5.2087
X2.3307Y-5.2362
X2.3307Y-5.2638
X2.3307Y-5.2913
X2.3307Y-5.3189
X2.3382Y-2.1004
X2.3382Y-2.128
X2.3382Y-2.1555
X2.3382Y-2.1831
X2.3382Y-2.2106
X2.35Y-4.7244
X2.35Y-4.752
X2.35Y-4.7795
X2.35Y-4.8071
X2.35Y-4.8346
X2.3681Y-1.6031
X2.3681Y-1.6307
X2.3681Y-1.6583
X2.3681Y-1.6858
X2.3681Y-1.7134
X2.3701Y-5.2087
X2.3701Y-5.2362
X2.3701Y-5.2638
X2.3701Y-5.2913
X2.3701Y-5.3189
X2.3764Y-2.1012
X2.3764Y-2.1287
X2.3764Y-2.1563
X2.3764Y-2.1839
X2.3764Y-2.2114
X2.3894Y-4.7244
X2.3894Y-4.752
X2.3894Y-4.7795
X2.3894Y-4.8071
X2.3894Y-4.8346
X2.4075Y-1.6031
X2.4075Y-1.6307
X2.4075Y-1.6583
X2.4075Y-1.6858
X2.4075Y-1.7134
X2.4094Y-5.2087
X2.4094Y-5.2362
X2.4094Y-5.2638
X2.4094Y-5.2913
X2.4094Y-5.3189
X2.4157Y-2.1012
X2.4157Y-2.1287
X2.4157Y-2.1563
X2.4157Y-2.1839
X2.4157Y-2.2114
X2.4276Y-4.7252
X2.4276Y-4.7528
X2.4276Y-4.7803
X2.4276Y-4.8079
X2.4276Y-4.8354
X2.4508Y-1.6031
X2.4508Y-1.6307
X2.4508Y-1.6583
X2.4508Y-1.6858
X2.4508Y-1.7134
X2.4528Y-5.2087
X2.4528Y-5.2362
X2.4528Y-5.2638
X2.4528Y-5.2913
X2.4528Y-5.3189
X2.4551Y-2.1012
X2.4551Y-2.1287
X2.4551Y-2.1563
X2.4551Y-2.1839
X2.4551Y-2.2114
X2.4669Y-4.7252
X2.4669Y-4.7528
X2.4669Y-4.7803
X2.4669Y-4.8079
X2.4669Y-4.8354
X2.5063Y-4.7252
X2.5063Y-4.7528
X2.5063Y-4.7803
X2.5063Y-4.8079
X2.5063Y-4.8354
X3.4425Y-5.2587
X3.4425Y-5.2862
X3.4425Y-5.3138
X3.4425Y-5.3413
X3.4425Y-5.3689
X3.4492Y-1.5748
X3.4492Y-1.6024
X3.4492Y-1.6299
X3.4492Y-1.6575
X3.4492Y-1.685
X3.4819Y-5.2587
X3.4819Y-5.2862
X3.4819Y-5.3138
X3.4819Y-5.3413
X3.4819Y-5.3689
X3.4886Y-1.5748
X3.4886Y-1.6024
X3.4886Y-1.6299
X3.4886Y-1.6575
X3.4886Y-1.685
X3.5213Y-5.2587
X3.5213Y-5.2862
X3.5213Y-5.3138
X3.5213Y-5.3413
X3.5213Y-5.3689
X3.528Y-1.5748
X3.528Y-1.6024
X3.528Y-1.6299
X3.528Y-1.6575
X3.528Y-1.685
X3.5594Y-5.2594
X3.5594Y-5.287
X3.5594Y-5.3146
X3.5594Y-5.3421
X3.5594Y-5.3697
X3.5661Y-1.5756
X3.5661Y-1.6031
X3.5661Y-1.6307
X3.5661Y-1.6583
X3.5661Y-1.6858
X3.5988Y-5.2594
X3.5988Y-5.287
X3.5988Y-5.3146
X3.5988Y-5.3421
X3.5988Y-5.3697
X3.6055Y-1.5756
X3.6055Y-1.6031
X3.6055Y-1.6307
X3.6055Y-1.6583
X3.6055Y-1.6858
X3.6382Y-5.2594
X3.6382Y-5.287
X3.6382Y-5.3146
X3.6382Y-5.3421
X3.6382Y-5.3697
X3.6449Y-1.5756
X3.6449Y-1.6031
X3.6449Y-1.6307
X3.6449Y-1.6583
X3.6449Y-1.6858
X3.7008Y-2.376
T2
X3.2283Y-2.525
X3.2283Y-2.625
X3.2283Y-2.725
X3.2283Y-2.825
X3.2283Y-2.925
X3.2283Y-3.025
X3.2283Y-3.125
X3.2283Y-3.225
X3.2283Y-3.325
X3.2283Y-3.425
X3.2283Y-3.525
X3.2283Y-3.625
X3.2283Y-3.725
X3.2283Y-3.825
X3.2283Y-3.925
X3.2283Y-4.025
X3.2283Y-4.125
X3.2283Y-4.225
X3.2283Y-4.325
X3.2283Y-4.425
X3.7189Y-2.525
X3.7189Y-2.625
X3.7189Y-2.725
X3.7189Y-2.825
X3.7189Y-2.925
X3.7189Y-3.025
X3.7189Y-3.125
X3.7189Y-3.225
X3.7189Y-3.325
X3.7189Y-3.425
X3.7189Y-3.525
X3.7189Y-3.625
X3.7189Y-3.725
X3.7189Y-3.825
X3.7189Y-3.925
X3.7189Y-4.025
X3.7189Y-4.125
X3.7189Y-4.225
X3.7189Y-4.325
X3.7189Y-4.425
M30
