%TF.GenerationSoftware,KiCad,Pcbnew,9.0.2*%
%TF.CreationDate,2025-10-06T21:14:46+02:00*%
%TF.ProjectId,szalagk_bel,737a616c-6167-46be-9162-656c2e6b6963,rev?*%
%TF.SameCoordinates,Original*%
%TF.FileFunction,Drillmap*%
%TF.FilePolarity,Positive*%
%FSLAX45Y45*%
G04 Gerber Fmt 4.5, Leading zero omitted, Abs format (unit mm)*
G04 Created by KiCad (PCBNEW 9.0.2) date 2025-10-06 21:14:46*
%MOMM*%
%LPD*%
G01*
G04 APERTURE LIST*
%ADD10C,0.200000*%
%ADD11C,0.050000*%
%ADD12C,0.100000*%
G04 APERTURE END LIST*
D10*
X10365000Y-4800000D02*
X10365000Y-12800000D01*
X9365000Y-13800000D02*
X4865000Y-13800000D01*
X4365000Y-4300000D02*
X4365000Y-5300000D01*
X4365000Y-13300000D02*
X4365000Y-12300000D01*
X7165000Y-11300000D02*
G75*
G02*
X6665000Y-11800000I-500000J0D01*
G01*
X7165000Y-6300000D02*
X7165000Y-11300000D01*
X6665000Y-5800000D02*
G75*
G02*
X7165000Y-6300000I0J-500000D01*
G01*
D11*
X9968553Y-13153553D02*
G75*
G02*
X9468553Y-13153553I-250000J0D01*
G01*
X9468553Y-13153553D02*
G75*
G02*
X9968553Y-13153553I250000J0D01*
G01*
X9968553Y-4446447D02*
G75*
G02*
X9468553Y-4446447I-250000J0D01*
G01*
X9468553Y-4446447D02*
G75*
G02*
X9968553Y-4446447I250000J0D01*
G01*
D10*
X9365000Y-3800000D02*
G75*
G02*
X10365000Y-4800000I0J-1000000D01*
G01*
X4865000Y-5800000D02*
X6665000Y-5800000D01*
D11*
X5115000Y-12300000D02*
G75*
G02*
X4615000Y-12300000I-250000J0D01*
G01*
X4615000Y-12300000D02*
G75*
G02*
X5115000Y-12300000I250000J0D01*
G01*
D10*
X4365000Y-12300000D02*
G75*
G02*
X4865000Y-11800000I500000J0D01*
G01*
X10365000Y-12800000D02*
G75*
G02*
X9365000Y-13800000I-1000000J0D01*
G01*
X4865000Y-5800000D02*
G75*
G02*
X4365000Y-5300000I0J500000D01*
G01*
X6665000Y-11800000D02*
X4865000Y-11800000D01*
D11*
X5115000Y-5300000D02*
G75*
G02*
X4615000Y-5300000I-250000J0D01*
G01*
X4615000Y-5300000D02*
G75*
G02*
X5115000Y-5300000I250000J0D01*
G01*
D10*
X4865000Y-3800000D02*
X9365000Y-3800000D01*
X4865000Y-13800000D02*
G75*
G02*
X4365000Y-13300000I0J500000D01*
G01*
X4365000Y-4300000D02*
G75*
G02*
X4865000Y-3800000I500000J0D01*
G01*
D12*
X5300000Y-4057000D02*
X5330000Y-4087000D01*
X5330000Y-4057000D02*
X5300000Y-4087000D01*
X5300000Y-4127000D02*
X5330000Y-4157000D01*
X5330000Y-4127000D02*
X5300000Y-4157000D01*
X5300000Y-4197000D02*
X5330000Y-4227000D01*
X5330000Y-4197000D02*
X5300000Y-4227000D01*
X5300000Y-4267000D02*
X5330000Y-4297000D01*
X5330000Y-4267000D02*
X5300000Y-4297000D01*
X5300000Y-4337000D02*
X5330000Y-4367000D01*
X5330000Y-4337000D02*
X5300000Y-4367000D01*
X5305000Y-13215000D02*
X5335000Y-13245000D01*
X5335000Y-13215000D02*
X5305000Y-13245000D01*
X5305000Y-13285000D02*
X5335000Y-13315000D01*
X5335000Y-13285000D02*
X5305000Y-13315000D01*
X5305000Y-13355000D02*
X5335000Y-13385000D01*
X5335000Y-13355000D02*
X5305000Y-13385000D01*
X5305000Y-13425000D02*
X5335000Y-13455000D01*
X5335000Y-13425000D02*
X5305000Y-13455000D01*
X5305000Y-13495000D02*
X5335000Y-13525000D01*
X5335000Y-13495000D02*
X5305000Y-13525000D01*
X5430000Y-4057000D02*
X5460000Y-4087000D01*
X5460000Y-4057000D02*
X5430000Y-4087000D01*
X5430000Y-4127000D02*
X5460000Y-4157000D01*
X5460000Y-4127000D02*
X5430000Y-4157000D01*
X5430000Y-4197000D02*
X5460000Y-4227000D01*
X5460000Y-4197000D02*
X5430000Y-4227000D01*
X5430000Y-4267000D02*
X5460000Y-4297000D01*
X5460000Y-4267000D02*
X5430000Y-4297000D01*
X5430000Y-4337000D02*
X5460000Y-4367000D01*
X5460000Y-4337000D02*
X5430000Y-4367000D01*
X5435000Y-13215000D02*
X5465000Y-13245000D01*
X5465000Y-13215000D02*
X5435000Y-13245000D01*
X5435000Y-13285000D02*
X5465000Y-13315000D01*
X5465000Y-13285000D02*
X5435000Y-13315000D01*
X5435000Y-13355000D02*
X5465000Y-13385000D01*
X5465000Y-13355000D02*
X5435000Y-13385000D01*
X5435000Y-13425000D02*
X5465000Y-13455000D01*
X5465000Y-13425000D02*
X5435000Y-13455000D01*
X5435000Y-13495000D02*
X5465000Y-13525000D01*
X5465000Y-13495000D02*
X5435000Y-13525000D01*
X5530000Y-4057000D02*
X5560000Y-4087000D01*
X5560000Y-4057000D02*
X5530000Y-4087000D01*
X5530000Y-4127000D02*
X5560000Y-4157000D01*
X5560000Y-4127000D02*
X5530000Y-4157000D01*
X5530000Y-4197000D02*
X5560000Y-4227000D01*
X5560000Y-4197000D02*
X5530000Y-4227000D01*
X5530000Y-4267000D02*
X5560000Y-4297000D01*
X5560000Y-4267000D02*
X5530000Y-4297000D01*
X5530000Y-4337000D02*
X5560000Y-4367000D01*
X5560000Y-4337000D02*
X5530000Y-4367000D01*
X5535000Y-13215000D02*
X5565000Y-13245000D01*
X5565000Y-13215000D02*
X5535000Y-13245000D01*
X5535000Y-13285000D02*
X5565000Y-13315000D01*
X5565000Y-13285000D02*
X5535000Y-13315000D01*
X5535000Y-13355000D02*
X5565000Y-13385000D01*
X5565000Y-13355000D02*
X5535000Y-13385000D01*
X5535000Y-13425000D02*
X5565000Y-13455000D01*
X5565000Y-13425000D02*
X5535000Y-13455000D01*
X5535000Y-13495000D02*
X5565000Y-13525000D01*
X5565000Y-13495000D02*
X5535000Y-13525000D01*
X5650000Y-4057000D02*
X5680000Y-4087000D01*
X5680000Y-4057000D02*
X5650000Y-4087000D01*
X5650000Y-4127000D02*
X5680000Y-4157000D01*
X5680000Y-4127000D02*
X5650000Y-4157000D01*
X5650000Y-4197000D02*
X5680000Y-4227000D01*
X5680000Y-4197000D02*
X5650000Y-4227000D01*
X5650000Y-4267000D02*
X5680000Y-4297000D01*
X5680000Y-4267000D02*
X5650000Y-4297000D01*
X5650000Y-4337000D02*
X5680000Y-4367000D01*
X5680000Y-4337000D02*
X5650000Y-4367000D01*
X5655000Y-13215000D02*
X5685000Y-13245000D01*
X5685000Y-13215000D02*
X5655000Y-13245000D01*
X5655000Y-13285000D02*
X5685000Y-13315000D01*
X5685000Y-13285000D02*
X5655000Y-13315000D01*
X5655000Y-13355000D02*
X5685000Y-13385000D01*
X5685000Y-13355000D02*
X5655000Y-13385000D01*
X5655000Y-13425000D02*
X5685000Y-13455000D01*
X5685000Y-13425000D02*
X5655000Y-13455000D01*
X5655000Y-13495000D02*
X5685000Y-13525000D01*
X5685000Y-13495000D02*
X5655000Y-13525000D01*
X5724000Y-5320000D02*
X5754000Y-5350000D01*
X5754000Y-5320000D02*
X5724000Y-5350000D01*
X5724000Y-5390000D02*
X5754000Y-5420000D01*
X5754000Y-5390000D02*
X5724000Y-5420000D01*
X5724000Y-5460000D02*
X5754000Y-5490000D01*
X5754000Y-5460000D02*
X5724000Y-5490000D01*
X5724000Y-5530000D02*
X5754000Y-5560000D01*
X5754000Y-5530000D02*
X5724000Y-5560000D01*
X5724000Y-5600000D02*
X5754000Y-5630000D01*
X5754000Y-5600000D02*
X5724000Y-5630000D01*
X5824000Y-5320000D02*
X5854000Y-5350000D01*
X5854000Y-5320000D02*
X5824000Y-5350000D01*
X5824000Y-5390000D02*
X5854000Y-5420000D01*
X5854000Y-5390000D02*
X5824000Y-5420000D01*
X5824000Y-5460000D02*
X5854000Y-5490000D01*
X5854000Y-5460000D02*
X5824000Y-5490000D01*
X5824000Y-5530000D02*
X5854000Y-5560000D01*
X5854000Y-5530000D02*
X5824000Y-5560000D01*
X5824000Y-5600000D02*
X5854000Y-5630000D01*
X5854000Y-5600000D02*
X5824000Y-5630000D01*
X5854000Y-11985000D02*
X5884000Y-12015000D01*
X5884000Y-11985000D02*
X5854000Y-12015000D01*
X5854000Y-12055000D02*
X5884000Y-12085000D01*
X5884000Y-12055000D02*
X5854000Y-12085000D01*
X5854000Y-12125000D02*
X5884000Y-12155000D01*
X5884000Y-12125000D02*
X5854000Y-12155000D01*
X5854000Y-12195000D02*
X5884000Y-12225000D01*
X5884000Y-12195000D02*
X5854000Y-12225000D01*
X5854000Y-12265000D02*
X5884000Y-12295000D01*
X5884000Y-12265000D02*
X5854000Y-12295000D01*
X5900000Y-4057000D02*
X5930000Y-4087000D01*
X5930000Y-4057000D02*
X5900000Y-4087000D01*
X5900000Y-4127000D02*
X5930000Y-4157000D01*
X5930000Y-4127000D02*
X5900000Y-4157000D01*
X5900000Y-4197000D02*
X5930000Y-4227000D01*
X5930000Y-4197000D02*
X5900000Y-4227000D01*
X5900000Y-4267000D02*
X5930000Y-4297000D01*
X5930000Y-4267000D02*
X5900000Y-4297000D01*
X5900000Y-4337000D02*
X5930000Y-4367000D01*
X5930000Y-4337000D02*
X5900000Y-4367000D01*
X5905000Y-13215000D02*
X5935000Y-13245000D01*
X5935000Y-13215000D02*
X5905000Y-13245000D01*
X5905000Y-13285000D02*
X5935000Y-13315000D01*
X5935000Y-13285000D02*
X5905000Y-13315000D01*
X5905000Y-13355000D02*
X5935000Y-13385000D01*
X5935000Y-13355000D02*
X5905000Y-13385000D01*
X5905000Y-13425000D02*
X5935000Y-13455000D01*
X5935000Y-13425000D02*
X5905000Y-13455000D01*
X5905000Y-13495000D02*
X5935000Y-13525000D01*
X5935000Y-13495000D02*
X5905000Y-13525000D01*
X5924000Y-5320000D02*
X5954000Y-5350000D01*
X5954000Y-5320000D02*
X5924000Y-5350000D01*
X5924000Y-5390000D02*
X5954000Y-5420000D01*
X5954000Y-5390000D02*
X5924000Y-5420000D01*
X5924000Y-5460000D02*
X5954000Y-5490000D01*
X5954000Y-5460000D02*
X5924000Y-5490000D01*
X5924000Y-5530000D02*
X5954000Y-5560000D01*
X5954000Y-5530000D02*
X5924000Y-5560000D01*
X5924000Y-5600000D02*
X5954000Y-5630000D01*
X5954000Y-5600000D02*
X5924000Y-5630000D01*
X5954000Y-11985000D02*
X5984000Y-12015000D01*
X5984000Y-11985000D02*
X5954000Y-12015000D01*
X5954000Y-12055000D02*
X5984000Y-12085000D01*
X5984000Y-12055000D02*
X5954000Y-12085000D01*
X5954000Y-12125000D02*
X5984000Y-12155000D01*
X5984000Y-12125000D02*
X5954000Y-12155000D01*
X5954000Y-12195000D02*
X5984000Y-12225000D01*
X5984000Y-12195000D02*
X5954000Y-12225000D01*
X5954000Y-12265000D02*
X5984000Y-12295000D01*
X5984000Y-12265000D02*
X5954000Y-12295000D01*
X6000000Y-4057000D02*
X6030000Y-4087000D01*
X6030000Y-4057000D02*
X6000000Y-4087000D01*
X6000000Y-4127000D02*
X6030000Y-4157000D01*
X6030000Y-4127000D02*
X6000000Y-4157000D01*
X6000000Y-4197000D02*
X6030000Y-4227000D01*
X6030000Y-4197000D02*
X6000000Y-4227000D01*
X6000000Y-4267000D02*
X6030000Y-4297000D01*
X6030000Y-4267000D02*
X6000000Y-4297000D01*
X6000000Y-4337000D02*
X6030000Y-4367000D01*
X6030000Y-4337000D02*
X6000000Y-4367000D01*
X6005000Y-13215000D02*
X6035000Y-13245000D01*
X6035000Y-13215000D02*
X6005000Y-13245000D01*
X6005000Y-13285000D02*
X6035000Y-13315000D01*
X6035000Y-13285000D02*
X6005000Y-13315000D01*
X6005000Y-13355000D02*
X6035000Y-13385000D01*
X6035000Y-13355000D02*
X6005000Y-13385000D01*
X6005000Y-13425000D02*
X6035000Y-13455000D01*
X6035000Y-13425000D02*
X6005000Y-13455000D01*
X6005000Y-13495000D02*
X6035000Y-13525000D01*
X6035000Y-13495000D02*
X6005000Y-13525000D01*
X6021000Y-5322000D02*
X6051000Y-5352000D01*
X6051000Y-5322000D02*
X6021000Y-5352000D01*
X6021000Y-5392000D02*
X6051000Y-5422000D01*
X6051000Y-5392000D02*
X6021000Y-5422000D01*
X6021000Y-5462000D02*
X6051000Y-5492000D01*
X6051000Y-5462000D02*
X6021000Y-5492000D01*
X6021000Y-5532000D02*
X6051000Y-5562000D01*
X6051000Y-5532000D02*
X6021000Y-5562000D01*
X6021000Y-5602000D02*
X6051000Y-5632000D01*
X6051000Y-5602000D02*
X6021000Y-5632000D01*
X6054000Y-11985000D02*
X6084000Y-12015000D01*
X6084000Y-11985000D02*
X6054000Y-12015000D01*
X6054000Y-12055000D02*
X6084000Y-12085000D01*
X6084000Y-12055000D02*
X6054000Y-12085000D01*
X6054000Y-12125000D02*
X6084000Y-12155000D01*
X6084000Y-12125000D02*
X6054000Y-12155000D01*
X6054000Y-12195000D02*
X6084000Y-12225000D01*
X6084000Y-12195000D02*
X6054000Y-12225000D01*
X6054000Y-12265000D02*
X6084000Y-12295000D01*
X6084000Y-12265000D02*
X6054000Y-12295000D01*
X6100000Y-4057000D02*
X6130000Y-4087000D01*
X6130000Y-4057000D02*
X6100000Y-4087000D01*
X6100000Y-4127000D02*
X6130000Y-4157000D01*
X6130000Y-4127000D02*
X6100000Y-4157000D01*
X6100000Y-4197000D02*
X6130000Y-4227000D01*
X6130000Y-4197000D02*
X6100000Y-4227000D01*
X6100000Y-4267000D02*
X6130000Y-4297000D01*
X6130000Y-4267000D02*
X6100000Y-4297000D01*
X6100000Y-4337000D02*
X6130000Y-4367000D01*
X6130000Y-4337000D02*
X6100000Y-4367000D01*
X6105000Y-13215000D02*
X6135000Y-13245000D01*
X6135000Y-13215000D02*
X6105000Y-13245000D01*
X6105000Y-13285000D02*
X6135000Y-13315000D01*
X6135000Y-13285000D02*
X6105000Y-13315000D01*
X6105000Y-13355000D02*
X6135000Y-13385000D01*
X6135000Y-13355000D02*
X6105000Y-13385000D01*
X6105000Y-13425000D02*
X6135000Y-13455000D01*
X6135000Y-13425000D02*
X6105000Y-13455000D01*
X6105000Y-13495000D02*
X6135000Y-13525000D01*
X6135000Y-13495000D02*
X6105000Y-13525000D01*
X6121000Y-5322000D02*
X6151000Y-5352000D01*
X6151000Y-5322000D02*
X6121000Y-5352000D01*
X6121000Y-5392000D02*
X6151000Y-5422000D01*
X6151000Y-5392000D02*
X6121000Y-5422000D01*
X6121000Y-5462000D02*
X6151000Y-5492000D01*
X6151000Y-5462000D02*
X6121000Y-5492000D01*
X6121000Y-5532000D02*
X6151000Y-5562000D01*
X6151000Y-5532000D02*
X6121000Y-5562000D01*
X6121000Y-5602000D02*
X6151000Y-5632000D01*
X6151000Y-5602000D02*
X6121000Y-5632000D01*
X6151000Y-11987000D02*
X6181000Y-12017000D01*
X6181000Y-11987000D02*
X6151000Y-12017000D01*
X6151000Y-12057000D02*
X6181000Y-12087000D01*
X6181000Y-12057000D02*
X6151000Y-12087000D01*
X6151000Y-12127000D02*
X6181000Y-12157000D01*
X6181000Y-12127000D02*
X6151000Y-12157000D01*
X6151000Y-12197000D02*
X6181000Y-12227000D01*
X6181000Y-12197000D02*
X6151000Y-12227000D01*
X6151000Y-12267000D02*
X6181000Y-12297000D01*
X6181000Y-12267000D02*
X6151000Y-12297000D01*
X6210000Y-4057000D02*
X6240000Y-4087000D01*
X6240000Y-4057000D02*
X6210000Y-4087000D01*
X6210000Y-4127000D02*
X6240000Y-4157000D01*
X6240000Y-4127000D02*
X6210000Y-4157000D01*
X6210000Y-4197000D02*
X6240000Y-4227000D01*
X6240000Y-4197000D02*
X6210000Y-4227000D01*
X6210000Y-4267000D02*
X6240000Y-4297000D01*
X6240000Y-4267000D02*
X6210000Y-4297000D01*
X6210000Y-4337000D02*
X6240000Y-4367000D01*
X6240000Y-4337000D02*
X6210000Y-4367000D01*
X6215000Y-13215000D02*
X6245000Y-13245000D01*
X6245000Y-13215000D02*
X6215000Y-13245000D01*
X6215000Y-13285000D02*
X6245000Y-13315000D01*
X6245000Y-13285000D02*
X6215000Y-13315000D01*
X6215000Y-13355000D02*
X6245000Y-13385000D01*
X6245000Y-13355000D02*
X6215000Y-13385000D01*
X6215000Y-13425000D02*
X6245000Y-13455000D01*
X6245000Y-13425000D02*
X6215000Y-13455000D01*
X6215000Y-13495000D02*
X6245000Y-13525000D01*
X6245000Y-13495000D02*
X6215000Y-13525000D01*
X6221000Y-5322000D02*
X6251000Y-5352000D01*
X6251000Y-5322000D02*
X6221000Y-5352000D01*
X6221000Y-5392000D02*
X6251000Y-5422000D01*
X6251000Y-5392000D02*
X6221000Y-5422000D01*
X6221000Y-5462000D02*
X6251000Y-5492000D01*
X6251000Y-5462000D02*
X6221000Y-5492000D01*
X6221000Y-5532000D02*
X6251000Y-5562000D01*
X6251000Y-5532000D02*
X6221000Y-5562000D01*
X6221000Y-5602000D02*
X6251000Y-5632000D01*
X6251000Y-5602000D02*
X6221000Y-5632000D01*
X6251000Y-11987000D02*
X6281000Y-12017000D01*
X6281000Y-11987000D02*
X6251000Y-12017000D01*
X6251000Y-12057000D02*
X6281000Y-12087000D01*
X6281000Y-12057000D02*
X6251000Y-12087000D01*
X6251000Y-12127000D02*
X6281000Y-12157000D01*
X6281000Y-12127000D02*
X6251000Y-12157000D01*
X6251000Y-12197000D02*
X6281000Y-12227000D01*
X6281000Y-12197000D02*
X6251000Y-12227000D01*
X6251000Y-12267000D02*
X6281000Y-12297000D01*
X6281000Y-12267000D02*
X6251000Y-12297000D01*
X6351000Y-11987000D02*
X6381000Y-12017000D01*
X6381000Y-11987000D02*
X6351000Y-12017000D01*
X6351000Y-12057000D02*
X6381000Y-12087000D01*
X6381000Y-12057000D02*
X6351000Y-12087000D01*
X6351000Y-12127000D02*
X6381000Y-12157000D01*
X6381000Y-12127000D02*
X6351000Y-12157000D01*
X6351000Y-12197000D02*
X6381000Y-12227000D01*
X6381000Y-12197000D02*
X6351000Y-12227000D01*
X6351000Y-12267000D02*
X6381000Y-12297000D01*
X6381000Y-12267000D02*
X6351000Y-12297000D01*
X8729000Y-13342000D02*
X8759000Y-13372000D01*
X8759000Y-13342000D02*
X8729000Y-13372000D01*
X8729000Y-13412000D02*
X8759000Y-13442000D01*
X8759000Y-13412000D02*
X8729000Y-13442000D01*
X8729000Y-13482000D02*
X8759000Y-13512000D01*
X8759000Y-13482000D02*
X8729000Y-13512000D01*
X8729000Y-13552000D02*
X8759000Y-13582000D01*
X8759000Y-13552000D02*
X8729000Y-13582000D01*
X8729000Y-13622000D02*
X8759000Y-13652000D01*
X8759000Y-13622000D02*
X8729000Y-13652000D01*
X8746000Y-3985000D02*
X8776000Y-4015000D01*
X8776000Y-3985000D02*
X8746000Y-4015000D01*
X8746000Y-4055000D02*
X8776000Y-4085000D01*
X8776000Y-4055000D02*
X8746000Y-4085000D01*
X8746000Y-4125000D02*
X8776000Y-4155000D01*
X8776000Y-4125000D02*
X8746000Y-4155000D01*
X8746000Y-4195000D02*
X8776000Y-4225000D01*
X8776000Y-4195000D02*
X8746000Y-4225000D01*
X8746000Y-4265000D02*
X8776000Y-4295000D01*
X8776000Y-4265000D02*
X8746000Y-4295000D01*
X8829000Y-13342000D02*
X8859000Y-13372000D01*
X8859000Y-13342000D02*
X8829000Y-13372000D01*
X8829000Y-13412000D02*
X8859000Y-13442000D01*
X8859000Y-13412000D02*
X8829000Y-13442000D01*
X8829000Y-13482000D02*
X8859000Y-13512000D01*
X8859000Y-13482000D02*
X8829000Y-13512000D01*
X8829000Y-13552000D02*
X8859000Y-13582000D01*
X8859000Y-13552000D02*
X8829000Y-13582000D01*
X8829000Y-13622000D02*
X8859000Y-13652000D01*
X8859000Y-13622000D02*
X8829000Y-13652000D01*
X8846000Y-3985000D02*
X8876000Y-4015000D01*
X8876000Y-3985000D02*
X8846000Y-4015000D01*
X8846000Y-4055000D02*
X8876000Y-4085000D01*
X8876000Y-4055000D02*
X8846000Y-4085000D01*
X8846000Y-4125000D02*
X8876000Y-4155000D01*
X8876000Y-4125000D02*
X8846000Y-4155000D01*
X8846000Y-4195000D02*
X8876000Y-4225000D01*
X8876000Y-4195000D02*
X8846000Y-4225000D01*
X8846000Y-4265000D02*
X8876000Y-4295000D01*
X8876000Y-4265000D02*
X8846000Y-4295000D01*
X8929000Y-13342000D02*
X8959000Y-13372000D01*
X8959000Y-13342000D02*
X8929000Y-13372000D01*
X8929000Y-13412000D02*
X8959000Y-13442000D01*
X8959000Y-13412000D02*
X8929000Y-13442000D01*
X8929000Y-13482000D02*
X8959000Y-13512000D01*
X8959000Y-13482000D02*
X8929000Y-13512000D01*
X8929000Y-13552000D02*
X8959000Y-13582000D01*
X8959000Y-13552000D02*
X8929000Y-13582000D01*
X8929000Y-13622000D02*
X8959000Y-13652000D01*
X8959000Y-13622000D02*
X8929000Y-13652000D01*
X8946000Y-3985000D02*
X8976000Y-4015000D01*
X8976000Y-3985000D02*
X8946000Y-4015000D01*
X8946000Y-4055000D02*
X8976000Y-4085000D01*
X8976000Y-4055000D02*
X8946000Y-4085000D01*
X8946000Y-4125000D02*
X8976000Y-4155000D01*
X8976000Y-4125000D02*
X8946000Y-4155000D01*
X8946000Y-4195000D02*
X8976000Y-4225000D01*
X8976000Y-4195000D02*
X8946000Y-4225000D01*
X8946000Y-4265000D02*
X8976000Y-4295000D01*
X8976000Y-4265000D02*
X8946000Y-4295000D01*
X9026000Y-13344000D02*
X9056000Y-13374000D01*
X9056000Y-13344000D02*
X9026000Y-13374000D01*
X9026000Y-13414000D02*
X9056000Y-13444000D01*
X9056000Y-13414000D02*
X9026000Y-13444000D01*
X9026000Y-13484000D02*
X9056000Y-13514000D01*
X9056000Y-13484000D02*
X9026000Y-13514000D01*
X9026000Y-13554000D02*
X9056000Y-13584000D01*
X9056000Y-13554000D02*
X9026000Y-13584000D01*
X9026000Y-13624000D02*
X9056000Y-13654000D01*
X9056000Y-13624000D02*
X9026000Y-13654000D01*
X9043000Y-3987000D02*
X9073000Y-4017000D01*
X9073000Y-3987000D02*
X9043000Y-4017000D01*
X9043000Y-4057000D02*
X9073000Y-4087000D01*
X9073000Y-4057000D02*
X9043000Y-4087000D01*
X9043000Y-4127000D02*
X9073000Y-4157000D01*
X9073000Y-4127000D02*
X9043000Y-4157000D01*
X9043000Y-4197000D02*
X9073000Y-4227000D01*
X9073000Y-4197000D02*
X9043000Y-4227000D01*
X9043000Y-4267000D02*
X9073000Y-4297000D01*
X9073000Y-4267000D02*
X9043000Y-4297000D01*
X9126000Y-13344000D02*
X9156000Y-13374000D01*
X9156000Y-13344000D02*
X9126000Y-13374000D01*
X9126000Y-13414000D02*
X9156000Y-13444000D01*
X9156000Y-13414000D02*
X9126000Y-13444000D01*
X9126000Y-13484000D02*
X9156000Y-13514000D01*
X9156000Y-13484000D02*
X9126000Y-13514000D01*
X9126000Y-13554000D02*
X9156000Y-13584000D01*
X9156000Y-13554000D02*
X9126000Y-13584000D01*
X9126000Y-13624000D02*
X9156000Y-13654000D01*
X9156000Y-13624000D02*
X9126000Y-13654000D01*
X9143000Y-3987000D02*
X9173000Y-4017000D01*
X9173000Y-3987000D02*
X9143000Y-4017000D01*
X9143000Y-4057000D02*
X9173000Y-4087000D01*
X9173000Y-4057000D02*
X9143000Y-4087000D01*
X9143000Y-4127000D02*
X9173000Y-4157000D01*
X9173000Y-4127000D02*
X9143000Y-4157000D01*
X9143000Y-4197000D02*
X9173000Y-4227000D01*
X9173000Y-4197000D02*
X9143000Y-4227000D01*
X9143000Y-4267000D02*
X9173000Y-4297000D01*
X9173000Y-4267000D02*
X9143000Y-4297000D01*
X9226000Y-13344000D02*
X9256000Y-13374000D01*
X9256000Y-13344000D02*
X9226000Y-13374000D01*
X9226000Y-13414000D02*
X9256000Y-13444000D01*
X9256000Y-13414000D02*
X9226000Y-13444000D01*
X9226000Y-13484000D02*
X9256000Y-13514000D01*
X9256000Y-13484000D02*
X9226000Y-13514000D01*
X9226000Y-13554000D02*
X9256000Y-13584000D01*
X9256000Y-13554000D02*
X9226000Y-13584000D01*
X9226000Y-13624000D02*
X9256000Y-13654000D01*
X9256000Y-13624000D02*
X9226000Y-13654000D01*
X9243000Y-3987000D02*
X9273000Y-4017000D01*
X9273000Y-3987000D02*
X9243000Y-4017000D01*
X9243000Y-4057000D02*
X9273000Y-4087000D01*
X9273000Y-4057000D02*
X9243000Y-4087000D01*
X9243000Y-4127000D02*
X9273000Y-4157000D01*
X9273000Y-4127000D02*
X9243000Y-4157000D01*
X9243000Y-4197000D02*
X9273000Y-4227000D01*
X9273000Y-4197000D02*
X9243000Y-4227000D01*
X9243000Y-4267000D02*
X9273000Y-4297000D01*
X9273000Y-4267000D02*
X9243000Y-4297000D01*
X9385000Y-6020000D02*
X9415000Y-6050000D01*
X9415000Y-6020000D02*
X9385000Y-6050000D01*
X8250000Y-6413500D02*
G75*
G02*
X8150000Y-6413500I-50000J0D01*
G01*
X8150000Y-6413500D02*
G75*
G02*
X8250000Y-6413500I50000J0D01*
G01*
X8250000Y-6667500D02*
G75*
G02*
X8150000Y-6667500I-50000J0D01*
G01*
X8150000Y-6667500D02*
G75*
G02*
X8250000Y-6667500I50000J0D01*
G01*
X8250000Y-6921500D02*
G75*
G02*
X8150000Y-6921500I-50000J0D01*
G01*
X8150000Y-6921500D02*
G75*
G02*
X8250000Y-6921500I50000J0D01*
G01*
X8250000Y-7175500D02*
G75*
G02*
X8150000Y-7175500I-50000J0D01*
G01*
X8150000Y-7175500D02*
G75*
G02*
X8250000Y-7175500I50000J0D01*
G01*
X8250000Y-7429500D02*
G75*
G02*
X8150000Y-7429500I-50000J0D01*
G01*
X8150000Y-7429500D02*
G75*
G02*
X8250000Y-7429500I50000J0D01*
G01*
X8250000Y-7683500D02*
G75*
G02*
X8150000Y-7683500I-50000J0D01*
G01*
X8150000Y-7683500D02*
G75*
G02*
X8250000Y-7683500I50000J0D01*
G01*
X8250000Y-7937500D02*
G75*
G02*
X8150000Y-7937500I-50000J0D01*
G01*
X8150000Y-7937500D02*
G75*
G02*
X8250000Y-7937500I50000J0D01*
G01*
X8250000Y-8191500D02*
G75*
G02*
X8150000Y-8191500I-50000J0D01*
G01*
X8150000Y-8191500D02*
G75*
G02*
X8250000Y-8191500I50000J0D01*
G01*
X8250000Y-8445500D02*
G75*
G02*
X8150000Y-8445500I-50000J0D01*
G01*
X8150000Y-8445500D02*
G75*
G02*
X8250000Y-8445500I50000J0D01*
G01*
X8250000Y-8699500D02*
G75*
G02*
X8150000Y-8699500I-50000J0D01*
G01*
X8150000Y-8699500D02*
G75*
G02*
X8250000Y-8699500I50000J0D01*
G01*
X8250000Y-8953500D02*
G75*
G02*
X8150000Y-8953500I-50000J0D01*
G01*
X8150000Y-8953500D02*
G75*
G02*
X8250000Y-8953500I50000J0D01*
G01*
X8250000Y-9207500D02*
G75*
G02*
X8150000Y-9207500I-50000J0D01*
G01*
X8150000Y-9207500D02*
G75*
G02*
X8250000Y-9207500I50000J0D01*
G01*
X8250000Y-9461500D02*
G75*
G02*
X8150000Y-9461500I-50000J0D01*
G01*
X8150000Y-9461500D02*
G75*
G02*
X8250000Y-9461500I50000J0D01*
G01*
X8250000Y-9715500D02*
G75*
G02*
X8150000Y-9715500I-50000J0D01*
G01*
X8150000Y-9715500D02*
G75*
G02*
X8250000Y-9715500I50000J0D01*
G01*
X8250000Y-9969500D02*
G75*
G02*
X8150000Y-9969500I-50000J0D01*
G01*
X8150000Y-9969500D02*
G75*
G02*
X8250000Y-9969500I50000J0D01*
G01*
X8250000Y-10223500D02*
G75*
G02*
X8150000Y-10223500I-50000J0D01*
G01*
X8150000Y-10223500D02*
G75*
G02*
X8250000Y-10223500I50000J0D01*
G01*
X8250000Y-10477500D02*
G75*
G02*
X8150000Y-10477500I-50000J0D01*
G01*
X8150000Y-10477500D02*
G75*
G02*
X8250000Y-10477500I50000J0D01*
G01*
X8250000Y-10731500D02*
G75*
G02*
X8150000Y-10731500I-50000J0D01*
G01*
X8150000Y-10731500D02*
G75*
G02*
X8250000Y-10731500I50000J0D01*
G01*
X8250000Y-10985500D02*
G75*
G02*
X8150000Y-10985500I-50000J0D01*
G01*
X8150000Y-10985500D02*
G75*
G02*
X8250000Y-10985500I50000J0D01*
G01*
X8250000Y-11239500D02*
G75*
G02*
X8150000Y-11239500I-50000J0D01*
G01*
X8150000Y-11239500D02*
G75*
G02*
X8250000Y-11239500I50000J0D01*
G01*
X9496000Y-6413500D02*
G75*
G02*
X9396000Y-6413500I-50000J0D01*
G01*
X9396000Y-6413500D02*
G75*
G02*
X9496000Y-6413500I50000J0D01*
G01*
X9496000Y-6667500D02*
G75*
G02*
X9396000Y-6667500I-50000J0D01*
G01*
X9396000Y-6667500D02*
G75*
G02*
X9496000Y-6667500I50000J0D01*
G01*
X9496000Y-6921500D02*
G75*
G02*
X9396000Y-6921500I-50000J0D01*
G01*
X9396000Y-6921500D02*
G75*
G02*
X9496000Y-6921500I50000J0D01*
G01*
X9496000Y-7175500D02*
G75*
G02*
X9396000Y-7175500I-50000J0D01*
G01*
X9396000Y-7175500D02*
G75*
G02*
X9496000Y-7175500I50000J0D01*
G01*
X9496000Y-7429500D02*
G75*
G02*
X9396000Y-7429500I-50000J0D01*
G01*
X9396000Y-7429500D02*
G75*
G02*
X9496000Y-7429500I50000J0D01*
G01*
X9496000Y-7683500D02*
G75*
G02*
X9396000Y-7683500I-50000J0D01*
G01*
X9396000Y-7683500D02*
G75*
G02*
X9496000Y-7683500I50000J0D01*
G01*
X9496000Y-7937500D02*
G75*
G02*
X9396000Y-7937500I-50000J0D01*
G01*
X9396000Y-7937500D02*
G75*
G02*
X9496000Y-7937500I50000J0D01*
G01*
X9496000Y-8191500D02*
G75*
G02*
X9396000Y-8191500I-50000J0D01*
G01*
X9396000Y-8191500D02*
G75*
G02*
X9496000Y-8191500I50000J0D01*
G01*
X9496000Y-8445500D02*
G75*
G02*
X9396000Y-8445500I-50000J0D01*
G01*
X9396000Y-8445500D02*
G75*
G02*
X9496000Y-8445500I50000J0D01*
G01*
X9496000Y-8699500D02*
G75*
G02*
X9396000Y-8699500I-50000J0D01*
G01*
X9396000Y-8699500D02*
G75*
G02*
X9496000Y-8699500I50000J0D01*
G01*
X9496000Y-8953500D02*
G75*
G02*
X9396000Y-8953500I-50000J0D01*
G01*
X9396000Y-8953500D02*
G75*
G02*
X9496000Y-8953500I50000J0D01*
G01*
X9496000Y-9207500D02*
G75*
G02*
X9396000Y-9207500I-50000J0D01*
G01*
X9396000Y-9207500D02*
G75*
G02*
X9496000Y-9207500I50000J0D01*
G01*
X9496000Y-9461500D02*
G75*
G02*
X9396000Y-9461500I-50000J0D01*
G01*
X9396000Y-9461500D02*
G75*
G02*
X9496000Y-9461500I50000J0D01*
G01*
X9496000Y-9715500D02*
G75*
G02*
X9396000Y-9715500I-50000J0D01*
G01*
X9396000Y-9715500D02*
G75*
G02*
X9496000Y-9715500I50000J0D01*
G01*
X9496000Y-9969500D02*
G75*
G02*
X9396000Y-9969500I-50000J0D01*
G01*
X9396000Y-9969500D02*
G75*
G02*
X9496000Y-9969500I50000J0D01*
G01*
X9496000Y-10223500D02*
G75*
G02*
X9396000Y-10223500I-50000J0D01*
G01*
X9396000Y-10223500D02*
G75*
G02*
X9496000Y-10223500I50000J0D01*
G01*
X9496000Y-10477500D02*
G75*
G02*
X9396000Y-10477500I-50000J0D01*
G01*
X9396000Y-10477500D02*
G75*
G02*
X9496000Y-10477500I50000J0D01*
G01*
X9496000Y-10731500D02*
G75*
G02*
X9396000Y-10731500I-50000J0D01*
G01*
X9396000Y-10731500D02*
G75*
G02*
X9496000Y-10731500I50000J0D01*
G01*
X9496000Y-10985500D02*
G75*
G02*
X9396000Y-10985500I-50000J0D01*
G01*
X9396000Y-10985500D02*
G75*
G02*
X9496000Y-10985500I50000J0D01*
G01*
X9496000Y-11239500D02*
G75*
G02*
X9396000Y-11239500I-50000J0D01*
G01*
X9396000Y-11239500D02*
G75*
G02*
X9496000Y-11239500I50000J0D01*
G01*
D10*
X4615777Y-14121484D02*
X4615777Y-13921484D01*
X4615777Y-13921484D02*
X4663396Y-13921484D01*
X4663396Y-13921484D02*
X4691967Y-13931008D01*
X4691967Y-13931008D02*
X4711015Y-13950055D01*
X4711015Y-13950055D02*
X4720539Y-13969103D01*
X4720539Y-13969103D02*
X4730063Y-14007198D01*
X4730063Y-14007198D02*
X4730063Y-14035769D01*
X4730063Y-14035769D02*
X4720539Y-14073865D01*
X4720539Y-14073865D02*
X4711015Y-14092912D01*
X4711015Y-14092912D02*
X4691967Y-14111960D01*
X4691967Y-14111960D02*
X4663396Y-14121484D01*
X4663396Y-14121484D02*
X4615777Y-14121484D01*
X4815777Y-14121484D02*
X4815777Y-13988150D01*
X4815777Y-14026246D02*
X4825301Y-14007198D01*
X4825301Y-14007198D02*
X4834824Y-13997674D01*
X4834824Y-13997674D02*
X4853872Y-13988150D01*
X4853872Y-13988150D02*
X4872920Y-13988150D01*
X4939586Y-14121484D02*
X4939586Y-13988150D01*
X4939586Y-13921484D02*
X4930063Y-13931008D01*
X4930063Y-13931008D02*
X4939586Y-13940531D01*
X4939586Y-13940531D02*
X4949110Y-13931008D01*
X4949110Y-13931008D02*
X4939586Y-13921484D01*
X4939586Y-13921484D02*
X4939586Y-13940531D01*
X5063396Y-14121484D02*
X5044348Y-14111960D01*
X5044348Y-14111960D02*
X5034824Y-14092912D01*
X5034824Y-14092912D02*
X5034824Y-13921484D01*
X5168158Y-14121484D02*
X5149110Y-14111960D01*
X5149110Y-14111960D02*
X5139586Y-14092912D01*
X5139586Y-14092912D02*
X5139586Y-13921484D01*
X5396729Y-14121484D02*
X5396729Y-13921484D01*
X5396729Y-13921484D02*
X5463396Y-14064341D01*
X5463396Y-14064341D02*
X5530063Y-13921484D01*
X5530063Y-13921484D02*
X5530063Y-14121484D01*
X5711015Y-14121484D02*
X5711015Y-14016722D01*
X5711015Y-14016722D02*
X5701491Y-13997674D01*
X5701491Y-13997674D02*
X5682443Y-13988150D01*
X5682443Y-13988150D02*
X5644348Y-13988150D01*
X5644348Y-13988150D02*
X5625301Y-13997674D01*
X5711015Y-14111960D02*
X5691967Y-14121484D01*
X5691967Y-14121484D02*
X5644348Y-14121484D01*
X5644348Y-14121484D02*
X5625301Y-14111960D01*
X5625301Y-14111960D02*
X5615777Y-14092912D01*
X5615777Y-14092912D02*
X5615777Y-14073865D01*
X5615777Y-14073865D02*
X5625301Y-14054817D01*
X5625301Y-14054817D02*
X5644348Y-14045293D01*
X5644348Y-14045293D02*
X5691967Y-14045293D01*
X5691967Y-14045293D02*
X5711015Y-14035769D01*
X5806253Y-13988150D02*
X5806253Y-14188150D01*
X5806253Y-13997674D02*
X5825301Y-13988150D01*
X5825301Y-13988150D02*
X5863396Y-13988150D01*
X5863396Y-13988150D02*
X5882443Y-13997674D01*
X5882443Y-13997674D02*
X5891967Y-14007198D01*
X5891967Y-14007198D02*
X5901491Y-14026246D01*
X5901491Y-14026246D02*
X5901491Y-14083388D01*
X5901491Y-14083388D02*
X5891967Y-14102436D01*
X5891967Y-14102436D02*
X5882443Y-14111960D01*
X5882443Y-14111960D02*
X5863396Y-14121484D01*
X5863396Y-14121484D02*
X5825301Y-14121484D01*
X5825301Y-14121484D02*
X5806253Y-14111960D01*
X5987205Y-14102436D02*
X5996729Y-14111960D01*
X5996729Y-14111960D02*
X5987205Y-14121484D01*
X5987205Y-14121484D02*
X5977682Y-14111960D01*
X5977682Y-14111960D02*
X5987205Y-14102436D01*
X5987205Y-14102436D02*
X5987205Y-14121484D01*
X5987205Y-13997674D02*
X5996729Y-14007198D01*
X5996729Y-14007198D02*
X5987205Y-14016722D01*
X5987205Y-14016722D02*
X5977682Y-14007198D01*
X5977682Y-14007198D02*
X5987205Y-13997674D01*
X5987205Y-13997674D02*
X5987205Y-14016722D01*
D12*
X4325000Y-14435000D02*
X4355000Y-14465000D01*
X4355000Y-14435000D02*
X4325000Y-14465000D01*
D10*
X4653872Y-14341484D02*
X4672920Y-14341484D01*
X4672920Y-14341484D02*
X4691967Y-14351008D01*
X4691967Y-14351008D02*
X4701491Y-14360531D01*
X4701491Y-14360531D02*
X4711015Y-14379579D01*
X4711015Y-14379579D02*
X4720539Y-14417674D01*
X4720539Y-14417674D02*
X4720539Y-14465293D01*
X4720539Y-14465293D02*
X4711015Y-14503388D01*
X4711015Y-14503388D02*
X4701491Y-14522436D01*
X4701491Y-14522436D02*
X4691967Y-14531960D01*
X4691967Y-14531960D02*
X4672920Y-14541484D01*
X4672920Y-14541484D02*
X4653872Y-14541484D01*
X4653872Y-14541484D02*
X4634824Y-14531960D01*
X4634824Y-14531960D02*
X4625301Y-14522436D01*
X4625301Y-14522436D02*
X4615777Y-14503388D01*
X4615777Y-14503388D02*
X4606253Y-14465293D01*
X4606253Y-14465293D02*
X4606253Y-14417674D01*
X4606253Y-14417674D02*
X4615777Y-14379579D01*
X4615777Y-14379579D02*
X4625301Y-14360531D01*
X4625301Y-14360531D02*
X4634824Y-14351008D01*
X4634824Y-14351008D02*
X4653872Y-14341484D01*
X4806253Y-14522436D02*
X4815777Y-14531960D01*
X4815777Y-14531960D02*
X4806253Y-14541484D01*
X4806253Y-14541484D02*
X4796729Y-14531960D01*
X4796729Y-14531960D02*
X4806253Y-14522436D01*
X4806253Y-14522436D02*
X4806253Y-14541484D01*
X4882444Y-14341484D02*
X5006253Y-14341484D01*
X5006253Y-14341484D02*
X4939586Y-14417674D01*
X4939586Y-14417674D02*
X4968158Y-14417674D01*
X4968158Y-14417674D02*
X4987205Y-14427198D01*
X4987205Y-14427198D02*
X4996729Y-14436722D01*
X4996729Y-14436722D02*
X5006253Y-14455769D01*
X5006253Y-14455769D02*
X5006253Y-14503388D01*
X5006253Y-14503388D02*
X4996729Y-14522436D01*
X4996729Y-14522436D02*
X4987205Y-14531960D01*
X4987205Y-14531960D02*
X4968158Y-14541484D01*
X4968158Y-14541484D02*
X4911015Y-14541484D01*
X4911015Y-14541484D02*
X4891967Y-14531960D01*
X4891967Y-14531960D02*
X4882444Y-14522436D01*
X5130063Y-14341484D02*
X5149110Y-14341484D01*
X5149110Y-14341484D02*
X5168158Y-14351008D01*
X5168158Y-14351008D02*
X5177682Y-14360531D01*
X5177682Y-14360531D02*
X5187205Y-14379579D01*
X5187205Y-14379579D02*
X5196729Y-14417674D01*
X5196729Y-14417674D02*
X5196729Y-14465293D01*
X5196729Y-14465293D02*
X5187205Y-14503388D01*
X5187205Y-14503388D02*
X5177682Y-14522436D01*
X5177682Y-14522436D02*
X5168158Y-14531960D01*
X5168158Y-14531960D02*
X5149110Y-14541484D01*
X5149110Y-14541484D02*
X5130063Y-14541484D01*
X5130063Y-14541484D02*
X5111015Y-14531960D01*
X5111015Y-14531960D02*
X5101491Y-14522436D01*
X5101491Y-14522436D02*
X5091967Y-14503388D01*
X5091967Y-14503388D02*
X5082444Y-14465293D01*
X5082444Y-14465293D02*
X5082444Y-14417674D01*
X5082444Y-14417674D02*
X5091967Y-14379579D01*
X5091967Y-14379579D02*
X5101491Y-14360531D01*
X5101491Y-14360531D02*
X5111015Y-14351008D01*
X5111015Y-14351008D02*
X5130063Y-14341484D01*
X5320539Y-14341484D02*
X5339586Y-14341484D01*
X5339586Y-14341484D02*
X5358634Y-14351008D01*
X5358634Y-14351008D02*
X5368158Y-14360531D01*
X5368158Y-14360531D02*
X5377682Y-14379579D01*
X5377682Y-14379579D02*
X5387205Y-14417674D01*
X5387205Y-14417674D02*
X5387205Y-14465293D01*
X5387205Y-14465293D02*
X5377682Y-14503388D01*
X5377682Y-14503388D02*
X5368158Y-14522436D01*
X5368158Y-14522436D02*
X5358634Y-14531960D01*
X5358634Y-14531960D02*
X5339586Y-14541484D01*
X5339586Y-14541484D02*
X5320539Y-14541484D01*
X5320539Y-14541484D02*
X5301491Y-14531960D01*
X5301491Y-14531960D02*
X5291967Y-14522436D01*
X5291967Y-14522436D02*
X5282444Y-14503388D01*
X5282444Y-14503388D02*
X5272920Y-14465293D01*
X5272920Y-14465293D02*
X5272920Y-14417674D01*
X5272920Y-14417674D02*
X5282444Y-14379579D01*
X5282444Y-14379579D02*
X5291967Y-14360531D01*
X5291967Y-14360531D02*
X5301491Y-14351008D01*
X5301491Y-14351008D02*
X5320539Y-14341484D01*
X5472920Y-14541484D02*
X5472920Y-14408150D01*
X5472920Y-14427198D02*
X5482444Y-14417674D01*
X5482444Y-14417674D02*
X5501491Y-14408150D01*
X5501491Y-14408150D02*
X5530063Y-14408150D01*
X5530063Y-14408150D02*
X5549110Y-14417674D01*
X5549110Y-14417674D02*
X5558634Y-14436722D01*
X5558634Y-14436722D02*
X5558634Y-14541484D01*
X5558634Y-14436722D02*
X5568158Y-14417674D01*
X5568158Y-14417674D02*
X5587205Y-14408150D01*
X5587205Y-14408150D02*
X5615777Y-14408150D01*
X5615777Y-14408150D02*
X5634824Y-14417674D01*
X5634824Y-14417674D02*
X5644348Y-14436722D01*
X5644348Y-14436722D02*
X5644348Y-14541484D01*
X5739586Y-14541484D02*
X5739586Y-14408150D01*
X5739586Y-14427198D02*
X5749110Y-14417674D01*
X5749110Y-14417674D02*
X5768158Y-14408150D01*
X5768158Y-14408150D02*
X5796729Y-14408150D01*
X5796729Y-14408150D02*
X5815777Y-14417674D01*
X5815777Y-14417674D02*
X5825301Y-14436722D01*
X5825301Y-14436722D02*
X5825301Y-14541484D01*
X5825301Y-14436722D02*
X5834824Y-14417674D01*
X5834824Y-14417674D02*
X5853872Y-14408150D01*
X5853872Y-14408150D02*
X5882443Y-14408150D01*
X5882443Y-14408150D02*
X5901491Y-14417674D01*
X5901491Y-14417674D02*
X5911015Y-14436722D01*
X5911015Y-14436722D02*
X5911015Y-14541484D01*
X6301491Y-14331960D02*
X6130063Y-14589103D01*
X6558634Y-14341484D02*
X6577682Y-14341484D01*
X6577682Y-14341484D02*
X6596729Y-14351008D01*
X6596729Y-14351008D02*
X6606253Y-14360531D01*
X6606253Y-14360531D02*
X6615777Y-14379579D01*
X6615777Y-14379579D02*
X6625301Y-14417674D01*
X6625301Y-14417674D02*
X6625301Y-14465293D01*
X6625301Y-14465293D02*
X6615777Y-14503388D01*
X6615777Y-14503388D02*
X6606253Y-14522436D01*
X6606253Y-14522436D02*
X6596729Y-14531960D01*
X6596729Y-14531960D02*
X6577682Y-14541484D01*
X6577682Y-14541484D02*
X6558634Y-14541484D01*
X6558634Y-14541484D02*
X6539586Y-14531960D01*
X6539586Y-14531960D02*
X6530063Y-14522436D01*
X6530063Y-14522436D02*
X6520539Y-14503388D01*
X6520539Y-14503388D02*
X6511015Y-14465293D01*
X6511015Y-14465293D02*
X6511015Y-14417674D01*
X6511015Y-14417674D02*
X6520539Y-14379579D01*
X6520539Y-14379579D02*
X6530063Y-14360531D01*
X6530063Y-14360531D02*
X6539586Y-14351008D01*
X6539586Y-14351008D02*
X6558634Y-14341484D01*
X6711015Y-14522436D02*
X6720539Y-14531960D01*
X6720539Y-14531960D02*
X6711015Y-14541484D01*
X6711015Y-14541484D02*
X6701491Y-14531960D01*
X6701491Y-14531960D02*
X6711015Y-14522436D01*
X6711015Y-14522436D02*
X6711015Y-14541484D01*
X6844348Y-14341484D02*
X6863396Y-14341484D01*
X6863396Y-14341484D02*
X6882444Y-14351008D01*
X6882444Y-14351008D02*
X6891967Y-14360531D01*
X6891967Y-14360531D02*
X6901491Y-14379579D01*
X6901491Y-14379579D02*
X6911015Y-14417674D01*
X6911015Y-14417674D02*
X6911015Y-14465293D01*
X6911015Y-14465293D02*
X6901491Y-14503388D01*
X6901491Y-14503388D02*
X6891967Y-14522436D01*
X6891967Y-14522436D02*
X6882444Y-14531960D01*
X6882444Y-14531960D02*
X6863396Y-14541484D01*
X6863396Y-14541484D02*
X6844348Y-14541484D01*
X6844348Y-14541484D02*
X6825301Y-14531960D01*
X6825301Y-14531960D02*
X6815777Y-14522436D01*
X6815777Y-14522436D02*
X6806253Y-14503388D01*
X6806253Y-14503388D02*
X6796729Y-14465293D01*
X6796729Y-14465293D02*
X6796729Y-14417674D01*
X6796729Y-14417674D02*
X6806253Y-14379579D01*
X6806253Y-14379579D02*
X6815777Y-14360531D01*
X6815777Y-14360531D02*
X6825301Y-14351008D01*
X6825301Y-14351008D02*
X6844348Y-14341484D01*
X7101491Y-14541484D02*
X6987206Y-14541484D01*
X7044348Y-14541484D02*
X7044348Y-14341484D01*
X7044348Y-14341484D02*
X7025301Y-14370055D01*
X7025301Y-14370055D02*
X7006253Y-14389103D01*
X7006253Y-14389103D02*
X6987206Y-14398627D01*
X7291967Y-14541484D02*
X7177682Y-14541484D01*
X7234825Y-14541484D02*
X7234825Y-14341484D01*
X7234825Y-14341484D02*
X7215777Y-14370055D01*
X7215777Y-14370055D02*
X7196729Y-14389103D01*
X7196729Y-14389103D02*
X7177682Y-14398627D01*
X7406253Y-14427198D02*
X7387206Y-14417674D01*
X7387206Y-14417674D02*
X7377682Y-14408150D01*
X7377682Y-14408150D02*
X7368158Y-14389103D01*
X7368158Y-14389103D02*
X7368158Y-14379579D01*
X7368158Y-14379579D02*
X7377682Y-14360531D01*
X7377682Y-14360531D02*
X7387206Y-14351008D01*
X7387206Y-14351008D02*
X7406253Y-14341484D01*
X7406253Y-14341484D02*
X7444348Y-14341484D01*
X7444348Y-14341484D02*
X7463396Y-14351008D01*
X7463396Y-14351008D02*
X7472920Y-14360531D01*
X7472920Y-14360531D02*
X7482444Y-14379579D01*
X7482444Y-14379579D02*
X7482444Y-14389103D01*
X7482444Y-14389103D02*
X7472920Y-14408150D01*
X7472920Y-14408150D02*
X7463396Y-14417674D01*
X7463396Y-14417674D02*
X7444348Y-14427198D01*
X7444348Y-14427198D02*
X7406253Y-14427198D01*
X7406253Y-14427198D02*
X7387206Y-14436722D01*
X7387206Y-14436722D02*
X7377682Y-14446246D01*
X7377682Y-14446246D02*
X7368158Y-14465293D01*
X7368158Y-14465293D02*
X7368158Y-14503388D01*
X7368158Y-14503388D02*
X7377682Y-14522436D01*
X7377682Y-14522436D02*
X7387206Y-14531960D01*
X7387206Y-14531960D02*
X7406253Y-14541484D01*
X7406253Y-14541484D02*
X7444348Y-14541484D01*
X7444348Y-14541484D02*
X7463396Y-14531960D01*
X7463396Y-14531960D02*
X7472920Y-14522436D01*
X7472920Y-14522436D02*
X7482444Y-14503388D01*
X7482444Y-14503388D02*
X7482444Y-14465293D01*
X7482444Y-14465293D02*
X7472920Y-14446246D01*
X7472920Y-14446246D02*
X7463396Y-14436722D01*
X7463396Y-14436722D02*
X7444348Y-14427198D01*
X7558634Y-14341484D02*
X7558634Y-14379579D01*
X7634825Y-14341484D02*
X7634825Y-14379579D01*
X7930063Y-14617674D02*
X7920539Y-14608150D01*
X7920539Y-14608150D02*
X7901491Y-14579579D01*
X7901491Y-14579579D02*
X7891968Y-14560531D01*
X7891968Y-14560531D02*
X7882444Y-14531960D01*
X7882444Y-14531960D02*
X7872920Y-14484341D01*
X7872920Y-14484341D02*
X7872920Y-14446246D01*
X7872920Y-14446246D02*
X7882444Y-14398627D01*
X7882444Y-14398627D02*
X7891968Y-14370055D01*
X7891968Y-14370055D02*
X7901491Y-14351008D01*
X7901491Y-14351008D02*
X7920539Y-14322436D01*
X7920539Y-14322436D02*
X7930063Y-14312912D01*
X7996729Y-14360531D02*
X8006253Y-14351008D01*
X8006253Y-14351008D02*
X8025301Y-14341484D01*
X8025301Y-14341484D02*
X8072920Y-14341484D01*
X8072920Y-14341484D02*
X8091968Y-14351008D01*
X8091968Y-14351008D02*
X8101491Y-14360531D01*
X8101491Y-14360531D02*
X8111015Y-14379579D01*
X8111015Y-14379579D02*
X8111015Y-14398627D01*
X8111015Y-14398627D02*
X8101491Y-14427198D01*
X8101491Y-14427198D02*
X7987206Y-14541484D01*
X7987206Y-14541484D02*
X8111015Y-14541484D01*
X8234825Y-14341484D02*
X8253872Y-14341484D01*
X8253872Y-14341484D02*
X8272920Y-14351008D01*
X8272920Y-14351008D02*
X8282444Y-14360531D01*
X8282444Y-14360531D02*
X8291968Y-14379579D01*
X8291968Y-14379579D02*
X8301491Y-14417674D01*
X8301491Y-14417674D02*
X8301491Y-14465293D01*
X8301491Y-14465293D02*
X8291968Y-14503388D01*
X8291968Y-14503388D02*
X8282444Y-14522436D01*
X8282444Y-14522436D02*
X8272920Y-14531960D01*
X8272920Y-14531960D02*
X8253872Y-14541484D01*
X8253872Y-14541484D02*
X8234825Y-14541484D01*
X8234825Y-14541484D02*
X8215777Y-14531960D01*
X8215777Y-14531960D02*
X8206253Y-14522436D01*
X8206253Y-14522436D02*
X8196729Y-14503388D01*
X8196729Y-14503388D02*
X8187206Y-14465293D01*
X8187206Y-14465293D02*
X8187206Y-14417674D01*
X8187206Y-14417674D02*
X8196729Y-14379579D01*
X8196729Y-14379579D02*
X8206253Y-14360531D01*
X8206253Y-14360531D02*
X8215777Y-14351008D01*
X8215777Y-14351008D02*
X8234825Y-14341484D01*
X8491968Y-14541484D02*
X8377682Y-14541484D01*
X8434825Y-14541484D02*
X8434825Y-14341484D01*
X8434825Y-14341484D02*
X8415777Y-14370055D01*
X8415777Y-14370055D02*
X8396730Y-14389103D01*
X8396730Y-14389103D02*
X8377682Y-14398627D01*
X8730063Y-14541484D02*
X8730063Y-14341484D01*
X8815777Y-14541484D02*
X8815777Y-14436722D01*
X8815777Y-14436722D02*
X8806253Y-14417674D01*
X8806253Y-14417674D02*
X8787206Y-14408150D01*
X8787206Y-14408150D02*
X8758634Y-14408150D01*
X8758634Y-14408150D02*
X8739587Y-14417674D01*
X8739587Y-14417674D02*
X8730063Y-14427198D01*
X8939587Y-14541484D02*
X8920539Y-14531960D01*
X8920539Y-14531960D02*
X8911015Y-14522436D01*
X8911015Y-14522436D02*
X8901492Y-14503388D01*
X8901492Y-14503388D02*
X8901492Y-14446246D01*
X8901492Y-14446246D02*
X8911015Y-14427198D01*
X8911015Y-14427198D02*
X8920539Y-14417674D01*
X8920539Y-14417674D02*
X8939587Y-14408150D01*
X8939587Y-14408150D02*
X8968158Y-14408150D01*
X8968158Y-14408150D02*
X8987206Y-14417674D01*
X8987206Y-14417674D02*
X8996730Y-14427198D01*
X8996730Y-14427198D02*
X9006253Y-14446246D01*
X9006253Y-14446246D02*
X9006253Y-14503388D01*
X9006253Y-14503388D02*
X8996730Y-14522436D01*
X8996730Y-14522436D02*
X8987206Y-14531960D01*
X8987206Y-14531960D02*
X8968158Y-14541484D01*
X8968158Y-14541484D02*
X8939587Y-14541484D01*
X9120539Y-14541484D02*
X9101492Y-14531960D01*
X9101492Y-14531960D02*
X9091968Y-14512912D01*
X9091968Y-14512912D02*
X9091968Y-14341484D01*
X9272920Y-14531960D02*
X9253873Y-14541484D01*
X9253873Y-14541484D02*
X9215777Y-14541484D01*
X9215777Y-14541484D02*
X9196730Y-14531960D01*
X9196730Y-14531960D02*
X9187206Y-14512912D01*
X9187206Y-14512912D02*
X9187206Y-14436722D01*
X9187206Y-14436722D02*
X9196730Y-14417674D01*
X9196730Y-14417674D02*
X9215777Y-14408150D01*
X9215777Y-14408150D02*
X9253873Y-14408150D01*
X9253873Y-14408150D02*
X9272920Y-14417674D01*
X9272920Y-14417674D02*
X9282444Y-14436722D01*
X9282444Y-14436722D02*
X9282444Y-14455769D01*
X9282444Y-14455769D02*
X9187206Y-14474817D01*
X9358634Y-14531960D02*
X9377682Y-14541484D01*
X9377682Y-14541484D02*
X9415777Y-14541484D01*
X9415777Y-14541484D02*
X9434825Y-14531960D01*
X9434825Y-14531960D02*
X9444349Y-14512912D01*
X9444349Y-14512912D02*
X9444349Y-14503388D01*
X9444349Y-14503388D02*
X9434825Y-14484341D01*
X9434825Y-14484341D02*
X9415777Y-14474817D01*
X9415777Y-14474817D02*
X9387206Y-14474817D01*
X9387206Y-14474817D02*
X9368158Y-14465293D01*
X9368158Y-14465293D02*
X9358634Y-14446246D01*
X9358634Y-14446246D02*
X9358634Y-14436722D01*
X9358634Y-14436722D02*
X9368158Y-14417674D01*
X9368158Y-14417674D02*
X9387206Y-14408150D01*
X9387206Y-14408150D02*
X9415777Y-14408150D01*
X9415777Y-14408150D02*
X9434825Y-14417674D01*
X9511015Y-14617674D02*
X9520539Y-14608150D01*
X9520539Y-14608150D02*
X9539587Y-14579579D01*
X9539587Y-14579579D02*
X9549111Y-14560531D01*
X9549111Y-14560531D02*
X9558634Y-14531960D01*
X9558634Y-14531960D02*
X9568158Y-14484341D01*
X9568158Y-14484341D02*
X9568158Y-14446246D01*
X9568158Y-14446246D02*
X9558634Y-14398627D01*
X9558634Y-14398627D02*
X9549111Y-14370055D01*
X9549111Y-14370055D02*
X9539587Y-14351008D01*
X9539587Y-14351008D02*
X9520539Y-14322436D01*
X9520539Y-14322436D02*
X9511015Y-14312912D01*
D12*
X4355000Y-14714000D02*
G75*
G02*
X4255000Y-14714000I-50000J0D01*
G01*
X4255000Y-14714000D02*
G75*
G02*
X4355000Y-14714000I50000J0D01*
G01*
D10*
X4720539Y-14805484D02*
X4606253Y-14805484D01*
X4663396Y-14805484D02*
X4663396Y-14605484D01*
X4663396Y-14605484D02*
X4644348Y-14634055D01*
X4644348Y-14634055D02*
X4625301Y-14653103D01*
X4625301Y-14653103D02*
X4606253Y-14662627D01*
X4806253Y-14786436D02*
X4815777Y-14795960D01*
X4815777Y-14795960D02*
X4806253Y-14805484D01*
X4806253Y-14805484D02*
X4796729Y-14795960D01*
X4796729Y-14795960D02*
X4806253Y-14786436D01*
X4806253Y-14786436D02*
X4806253Y-14805484D01*
X4939586Y-14605484D02*
X4958634Y-14605484D01*
X4958634Y-14605484D02*
X4977682Y-14615008D01*
X4977682Y-14615008D02*
X4987205Y-14624531D01*
X4987205Y-14624531D02*
X4996729Y-14643579D01*
X4996729Y-14643579D02*
X5006253Y-14681674D01*
X5006253Y-14681674D02*
X5006253Y-14729293D01*
X5006253Y-14729293D02*
X4996729Y-14767388D01*
X4996729Y-14767388D02*
X4987205Y-14786436D01*
X4987205Y-14786436D02*
X4977682Y-14795960D01*
X4977682Y-14795960D02*
X4958634Y-14805484D01*
X4958634Y-14805484D02*
X4939586Y-14805484D01*
X4939586Y-14805484D02*
X4920539Y-14795960D01*
X4920539Y-14795960D02*
X4911015Y-14786436D01*
X4911015Y-14786436D02*
X4901491Y-14767388D01*
X4901491Y-14767388D02*
X4891967Y-14729293D01*
X4891967Y-14729293D02*
X4891967Y-14681674D01*
X4891967Y-14681674D02*
X4901491Y-14643579D01*
X4901491Y-14643579D02*
X4911015Y-14624531D01*
X4911015Y-14624531D02*
X4920539Y-14615008D01*
X4920539Y-14615008D02*
X4939586Y-14605484D01*
X5130063Y-14605484D02*
X5149110Y-14605484D01*
X5149110Y-14605484D02*
X5168158Y-14615008D01*
X5168158Y-14615008D02*
X5177682Y-14624531D01*
X5177682Y-14624531D02*
X5187205Y-14643579D01*
X5187205Y-14643579D02*
X5196729Y-14681674D01*
X5196729Y-14681674D02*
X5196729Y-14729293D01*
X5196729Y-14729293D02*
X5187205Y-14767388D01*
X5187205Y-14767388D02*
X5177682Y-14786436D01*
X5177682Y-14786436D02*
X5168158Y-14795960D01*
X5168158Y-14795960D02*
X5149110Y-14805484D01*
X5149110Y-14805484D02*
X5130063Y-14805484D01*
X5130063Y-14805484D02*
X5111015Y-14795960D01*
X5111015Y-14795960D02*
X5101491Y-14786436D01*
X5101491Y-14786436D02*
X5091967Y-14767388D01*
X5091967Y-14767388D02*
X5082444Y-14729293D01*
X5082444Y-14729293D02*
X5082444Y-14681674D01*
X5082444Y-14681674D02*
X5091967Y-14643579D01*
X5091967Y-14643579D02*
X5101491Y-14624531D01*
X5101491Y-14624531D02*
X5111015Y-14615008D01*
X5111015Y-14615008D02*
X5130063Y-14605484D01*
X5320539Y-14605484D02*
X5339586Y-14605484D01*
X5339586Y-14605484D02*
X5358634Y-14615008D01*
X5358634Y-14615008D02*
X5368158Y-14624531D01*
X5368158Y-14624531D02*
X5377682Y-14643579D01*
X5377682Y-14643579D02*
X5387205Y-14681674D01*
X5387205Y-14681674D02*
X5387205Y-14729293D01*
X5387205Y-14729293D02*
X5377682Y-14767388D01*
X5377682Y-14767388D02*
X5368158Y-14786436D01*
X5368158Y-14786436D02*
X5358634Y-14795960D01*
X5358634Y-14795960D02*
X5339586Y-14805484D01*
X5339586Y-14805484D02*
X5320539Y-14805484D01*
X5320539Y-14805484D02*
X5301491Y-14795960D01*
X5301491Y-14795960D02*
X5291967Y-14786436D01*
X5291967Y-14786436D02*
X5282444Y-14767388D01*
X5282444Y-14767388D02*
X5272920Y-14729293D01*
X5272920Y-14729293D02*
X5272920Y-14681674D01*
X5272920Y-14681674D02*
X5282444Y-14643579D01*
X5282444Y-14643579D02*
X5291967Y-14624531D01*
X5291967Y-14624531D02*
X5301491Y-14615008D01*
X5301491Y-14615008D02*
X5320539Y-14605484D01*
X5472920Y-14805484D02*
X5472920Y-14672150D01*
X5472920Y-14691198D02*
X5482444Y-14681674D01*
X5482444Y-14681674D02*
X5501491Y-14672150D01*
X5501491Y-14672150D02*
X5530063Y-14672150D01*
X5530063Y-14672150D02*
X5549110Y-14681674D01*
X5549110Y-14681674D02*
X5558634Y-14700722D01*
X5558634Y-14700722D02*
X5558634Y-14805484D01*
X5558634Y-14700722D02*
X5568158Y-14681674D01*
X5568158Y-14681674D02*
X5587205Y-14672150D01*
X5587205Y-14672150D02*
X5615777Y-14672150D01*
X5615777Y-14672150D02*
X5634824Y-14681674D01*
X5634824Y-14681674D02*
X5644348Y-14700722D01*
X5644348Y-14700722D02*
X5644348Y-14805484D01*
X5739586Y-14805484D02*
X5739586Y-14672150D01*
X5739586Y-14691198D02*
X5749110Y-14681674D01*
X5749110Y-14681674D02*
X5768158Y-14672150D01*
X5768158Y-14672150D02*
X5796729Y-14672150D01*
X5796729Y-14672150D02*
X5815777Y-14681674D01*
X5815777Y-14681674D02*
X5825301Y-14700722D01*
X5825301Y-14700722D02*
X5825301Y-14805484D01*
X5825301Y-14700722D02*
X5834824Y-14681674D01*
X5834824Y-14681674D02*
X5853872Y-14672150D01*
X5853872Y-14672150D02*
X5882443Y-14672150D01*
X5882443Y-14672150D02*
X5901491Y-14681674D01*
X5901491Y-14681674D02*
X5911015Y-14700722D01*
X5911015Y-14700722D02*
X5911015Y-14805484D01*
X6301491Y-14595960D02*
X6130063Y-14853103D01*
X6558634Y-14605484D02*
X6577682Y-14605484D01*
X6577682Y-14605484D02*
X6596729Y-14615008D01*
X6596729Y-14615008D02*
X6606253Y-14624531D01*
X6606253Y-14624531D02*
X6615777Y-14643579D01*
X6615777Y-14643579D02*
X6625301Y-14681674D01*
X6625301Y-14681674D02*
X6625301Y-14729293D01*
X6625301Y-14729293D02*
X6615777Y-14767388D01*
X6615777Y-14767388D02*
X6606253Y-14786436D01*
X6606253Y-14786436D02*
X6596729Y-14795960D01*
X6596729Y-14795960D02*
X6577682Y-14805484D01*
X6577682Y-14805484D02*
X6558634Y-14805484D01*
X6558634Y-14805484D02*
X6539586Y-14795960D01*
X6539586Y-14795960D02*
X6530063Y-14786436D01*
X6530063Y-14786436D02*
X6520539Y-14767388D01*
X6520539Y-14767388D02*
X6511015Y-14729293D01*
X6511015Y-14729293D02*
X6511015Y-14681674D01*
X6511015Y-14681674D02*
X6520539Y-14643579D01*
X6520539Y-14643579D02*
X6530063Y-14624531D01*
X6530063Y-14624531D02*
X6539586Y-14615008D01*
X6539586Y-14615008D02*
X6558634Y-14605484D01*
X6711015Y-14786436D02*
X6720539Y-14795960D01*
X6720539Y-14795960D02*
X6711015Y-14805484D01*
X6711015Y-14805484D02*
X6701491Y-14795960D01*
X6701491Y-14795960D02*
X6711015Y-14786436D01*
X6711015Y-14786436D02*
X6711015Y-14805484D01*
X6844348Y-14605484D02*
X6863396Y-14605484D01*
X6863396Y-14605484D02*
X6882444Y-14615008D01*
X6882444Y-14615008D02*
X6891967Y-14624531D01*
X6891967Y-14624531D02*
X6901491Y-14643579D01*
X6901491Y-14643579D02*
X6911015Y-14681674D01*
X6911015Y-14681674D02*
X6911015Y-14729293D01*
X6911015Y-14729293D02*
X6901491Y-14767388D01*
X6901491Y-14767388D02*
X6891967Y-14786436D01*
X6891967Y-14786436D02*
X6882444Y-14795960D01*
X6882444Y-14795960D02*
X6863396Y-14805484D01*
X6863396Y-14805484D02*
X6844348Y-14805484D01*
X6844348Y-14805484D02*
X6825301Y-14795960D01*
X6825301Y-14795960D02*
X6815777Y-14786436D01*
X6815777Y-14786436D02*
X6806253Y-14767388D01*
X6806253Y-14767388D02*
X6796729Y-14729293D01*
X6796729Y-14729293D02*
X6796729Y-14681674D01*
X6796729Y-14681674D02*
X6806253Y-14643579D01*
X6806253Y-14643579D02*
X6815777Y-14624531D01*
X6815777Y-14624531D02*
X6825301Y-14615008D01*
X6825301Y-14615008D02*
X6844348Y-14605484D01*
X6977682Y-14605484D02*
X7101491Y-14605484D01*
X7101491Y-14605484D02*
X7034825Y-14681674D01*
X7034825Y-14681674D02*
X7063396Y-14681674D01*
X7063396Y-14681674D02*
X7082444Y-14691198D01*
X7082444Y-14691198D02*
X7091967Y-14700722D01*
X7091967Y-14700722D02*
X7101491Y-14719769D01*
X7101491Y-14719769D02*
X7101491Y-14767388D01*
X7101491Y-14767388D02*
X7091967Y-14786436D01*
X7091967Y-14786436D02*
X7082444Y-14795960D01*
X7082444Y-14795960D02*
X7063396Y-14805484D01*
X7063396Y-14805484D02*
X7006253Y-14805484D01*
X7006253Y-14805484D02*
X6987206Y-14795960D01*
X6987206Y-14795960D02*
X6977682Y-14786436D01*
X7196729Y-14805484D02*
X7234825Y-14805484D01*
X7234825Y-14805484D02*
X7253872Y-14795960D01*
X7253872Y-14795960D02*
X7263396Y-14786436D01*
X7263396Y-14786436D02*
X7282444Y-14757865D01*
X7282444Y-14757865D02*
X7291967Y-14719769D01*
X7291967Y-14719769D02*
X7291967Y-14643579D01*
X7291967Y-14643579D02*
X7282444Y-14624531D01*
X7282444Y-14624531D02*
X7272920Y-14615008D01*
X7272920Y-14615008D02*
X7253872Y-14605484D01*
X7253872Y-14605484D02*
X7215777Y-14605484D01*
X7215777Y-14605484D02*
X7196729Y-14615008D01*
X7196729Y-14615008D02*
X7187206Y-14624531D01*
X7187206Y-14624531D02*
X7177682Y-14643579D01*
X7177682Y-14643579D02*
X7177682Y-14691198D01*
X7177682Y-14691198D02*
X7187206Y-14710246D01*
X7187206Y-14710246D02*
X7196729Y-14719769D01*
X7196729Y-14719769D02*
X7215777Y-14729293D01*
X7215777Y-14729293D02*
X7253872Y-14729293D01*
X7253872Y-14729293D02*
X7272920Y-14719769D01*
X7272920Y-14719769D02*
X7282444Y-14710246D01*
X7282444Y-14710246D02*
X7291967Y-14691198D01*
X7463396Y-14672150D02*
X7463396Y-14805484D01*
X7415777Y-14595960D02*
X7368158Y-14738817D01*
X7368158Y-14738817D02*
X7491967Y-14738817D01*
X7558634Y-14605484D02*
X7558634Y-14643579D01*
X7634825Y-14605484D02*
X7634825Y-14643579D01*
X7930063Y-14881674D02*
X7920539Y-14872150D01*
X7920539Y-14872150D02*
X7901491Y-14843579D01*
X7901491Y-14843579D02*
X7891968Y-14824531D01*
X7891968Y-14824531D02*
X7882444Y-14795960D01*
X7882444Y-14795960D02*
X7872920Y-14748341D01*
X7872920Y-14748341D02*
X7872920Y-14710246D01*
X7872920Y-14710246D02*
X7882444Y-14662627D01*
X7882444Y-14662627D02*
X7891968Y-14634055D01*
X7891968Y-14634055D02*
X7901491Y-14615008D01*
X7901491Y-14615008D02*
X7920539Y-14586436D01*
X7920539Y-14586436D02*
X7930063Y-14576912D01*
X8091968Y-14672150D02*
X8091968Y-14805484D01*
X8044348Y-14595960D02*
X7996729Y-14738817D01*
X7996729Y-14738817D02*
X8120539Y-14738817D01*
X8234825Y-14605484D02*
X8253872Y-14605484D01*
X8253872Y-14605484D02*
X8272920Y-14615008D01*
X8272920Y-14615008D02*
X8282444Y-14624531D01*
X8282444Y-14624531D02*
X8291968Y-14643579D01*
X8291968Y-14643579D02*
X8301491Y-14681674D01*
X8301491Y-14681674D02*
X8301491Y-14729293D01*
X8301491Y-14729293D02*
X8291968Y-14767388D01*
X8291968Y-14767388D02*
X8282444Y-14786436D01*
X8282444Y-14786436D02*
X8272920Y-14795960D01*
X8272920Y-14795960D02*
X8253872Y-14805484D01*
X8253872Y-14805484D02*
X8234825Y-14805484D01*
X8234825Y-14805484D02*
X8215777Y-14795960D01*
X8215777Y-14795960D02*
X8206253Y-14786436D01*
X8206253Y-14786436D02*
X8196729Y-14767388D01*
X8196729Y-14767388D02*
X8187206Y-14729293D01*
X8187206Y-14729293D02*
X8187206Y-14681674D01*
X8187206Y-14681674D02*
X8196729Y-14643579D01*
X8196729Y-14643579D02*
X8206253Y-14624531D01*
X8206253Y-14624531D02*
X8215777Y-14615008D01*
X8215777Y-14615008D02*
X8234825Y-14605484D01*
X8539587Y-14805484D02*
X8539587Y-14605484D01*
X8625301Y-14805484D02*
X8625301Y-14700722D01*
X8625301Y-14700722D02*
X8615777Y-14681674D01*
X8615777Y-14681674D02*
X8596730Y-14672150D01*
X8596730Y-14672150D02*
X8568158Y-14672150D01*
X8568158Y-14672150D02*
X8549111Y-14681674D01*
X8549111Y-14681674D02*
X8539587Y-14691198D01*
X8749111Y-14805484D02*
X8730063Y-14795960D01*
X8730063Y-14795960D02*
X8720539Y-14786436D01*
X8720539Y-14786436D02*
X8711015Y-14767388D01*
X8711015Y-14767388D02*
X8711015Y-14710246D01*
X8711015Y-14710246D02*
X8720539Y-14691198D01*
X8720539Y-14691198D02*
X8730063Y-14681674D01*
X8730063Y-14681674D02*
X8749111Y-14672150D01*
X8749111Y-14672150D02*
X8777682Y-14672150D01*
X8777682Y-14672150D02*
X8796730Y-14681674D01*
X8796730Y-14681674D02*
X8806253Y-14691198D01*
X8806253Y-14691198D02*
X8815777Y-14710246D01*
X8815777Y-14710246D02*
X8815777Y-14767388D01*
X8815777Y-14767388D02*
X8806253Y-14786436D01*
X8806253Y-14786436D02*
X8796730Y-14795960D01*
X8796730Y-14795960D02*
X8777682Y-14805484D01*
X8777682Y-14805484D02*
X8749111Y-14805484D01*
X8930063Y-14805484D02*
X8911015Y-14795960D01*
X8911015Y-14795960D02*
X8901492Y-14776912D01*
X8901492Y-14776912D02*
X8901492Y-14605484D01*
X9082444Y-14795960D02*
X9063396Y-14805484D01*
X9063396Y-14805484D02*
X9025301Y-14805484D01*
X9025301Y-14805484D02*
X9006253Y-14795960D01*
X9006253Y-14795960D02*
X8996730Y-14776912D01*
X8996730Y-14776912D02*
X8996730Y-14700722D01*
X8996730Y-14700722D02*
X9006253Y-14681674D01*
X9006253Y-14681674D02*
X9025301Y-14672150D01*
X9025301Y-14672150D02*
X9063396Y-14672150D01*
X9063396Y-14672150D02*
X9082444Y-14681674D01*
X9082444Y-14681674D02*
X9091968Y-14700722D01*
X9091968Y-14700722D02*
X9091968Y-14719769D01*
X9091968Y-14719769D02*
X8996730Y-14738817D01*
X9168158Y-14795960D02*
X9187206Y-14805484D01*
X9187206Y-14805484D02*
X9225301Y-14805484D01*
X9225301Y-14805484D02*
X9244349Y-14795960D01*
X9244349Y-14795960D02*
X9253873Y-14776912D01*
X9253873Y-14776912D02*
X9253873Y-14767388D01*
X9253873Y-14767388D02*
X9244349Y-14748341D01*
X9244349Y-14748341D02*
X9225301Y-14738817D01*
X9225301Y-14738817D02*
X9196730Y-14738817D01*
X9196730Y-14738817D02*
X9177682Y-14729293D01*
X9177682Y-14729293D02*
X9168158Y-14710246D01*
X9168158Y-14710246D02*
X9168158Y-14700722D01*
X9168158Y-14700722D02*
X9177682Y-14681674D01*
X9177682Y-14681674D02*
X9196730Y-14672150D01*
X9196730Y-14672150D02*
X9225301Y-14672150D01*
X9225301Y-14672150D02*
X9244349Y-14681674D01*
X9320539Y-14881674D02*
X9330063Y-14872150D01*
X9330063Y-14872150D02*
X9349111Y-14843579D01*
X9349111Y-14843579D02*
X9358634Y-14824531D01*
X9358634Y-14824531D02*
X9368158Y-14795960D01*
X9368158Y-14795960D02*
X9377682Y-14748341D01*
X9377682Y-14748341D02*
X9377682Y-14710246D01*
X9377682Y-14710246D02*
X9368158Y-14662627D01*
X9368158Y-14662627D02*
X9358634Y-14634055D01*
X9358634Y-14634055D02*
X9349111Y-14615008D01*
X9349111Y-14615008D02*
X9330063Y-14586436D01*
X9330063Y-14586436D02*
X9320539Y-14576912D01*
M02*
