  0
SECTION
  2
HEADER
  9
$ANGBASE
  50
0.0
  9
$ANGDIR
  70
1
  9
$MEASUREMENT
  70
0
  0
ENDSEC
  0
SECTION
  2
TABLES
  0
TABLE
  2
LTYPE
  70
4
  0
LTYPE
  5
40F
  2
CONTINUOUS
  70
0
  3
Solid line
  72
65
  73
0
  40
0.0
  0
LTYPE
  5
410
  2
DASHDOT
 70
0
  3
Dash Dot ____ _ ____ _
 72
65
 73
4
 40
2.0
 49
1.25
 49
-0.25
 49
0.25
 49
-0.25
  0
LTYPE
  5
411
  2
DASHED
 70
0
  3
Dashed __ __ __ __ __
 72
65
 73
2
 40
0.75
 49
0.5
 49
-0.25
  0
LTYPE
  5
43B
  2
DOTTED
 70
0
  3
Dotted .  .  .  .
 72
65
 73
2
 40
0.2
 49
0.0
 49
-0.2
  0
ENDTAB
  0
TABLE
  2
STYLE
  70
4
  0
STYLE
  2
KICAD
  70
0
  40
0
  41
1
  42
1
  50
0
  71
0
  3
isocp.shx
  0
STYLE
  2
KICADB
  70
0
  40
0
  41
1
  42
1
  50
0
  71
0
  3
isocp.shx
  0
STYLE
  2
KICADI
  70
0
  40
0
  41
1
  42
1
  50
15
  71
0
  3
isocp.shx
  0
STYLE
  2
KICADBI
  70
0
  40
0
  41
1
  42
1
  50
15
  71
0
  3
isocp.shx
  0
ENDTAB
  0
TABLE
  2
LAYER
  70
1
  0
LAYER
  2
BLACK
  70
0
  62
7
  6
CONTINUOUS
  0
ENDTAB
  0
ENDSEC
  0
SECTION
  2
ENTITIES
0
LINE
8
BLACK
6
CONTINUOUS
10
3.7562821653543308
20
-5.3908229527559053
11
3.756814842519685
21
-5.3913556299212599
0
LINE
8
BLACK
6
CONTINUOUS
10
3.756814842519685
20
-5.3913556299212599
11
3.7568897637795273
21
-5.3917322834645667
0
LINE
8
BLACK
6
CONTINUOUS
10
3.7568897637795273
20
-5.3917322834645667
11
3.7568897637795273
21
-5.6555118110236222
0
LINE
8
BLACK
6
CONTINUOUS
10
3.7568897637795273
20
-5.6555118110236222
11
3.756814842519685
21
-5.655888464566929
0
LINE
8
BLACK
6
CONTINUOUS
10
3.756814842519685
20
-5.655888464566929
11
3.7562821653543308
21
-5.6564211417322836
0
LINE
8
BLACK
6
CONTINUOUS
10
3.7562821653543308
20
-5.6564211417322836
11
3.7559055118110236
21
-5.6564960629921259
0
LINE
8
BLACK
6
CONTINUOUS
10
3.7559055118110236
20
-5.6564960629921259
11
2.2480314960629921
21
-5.6564960629921259
0
LINE
8
BLACK
6
CONTINUOUS
10
2.2480314960629921
20
-5.6564960629921259
11
2.2476548425196849
21
-5.6564211417322836
0
LINE
8
BLACK
6
CONTINUOUS
10
2.2476548425196849
20
-5.6564211417322836
11
2.2471221653543307
21
-5.655888464566929
0
LINE
8
BLACK
6
CONTINUOUS
10
2.2471221653543307
20
-5.655888464566929
11
2.247047244094488
21
-5.6555118110236222
0
LINE
8
BLACK
6
CONTINUOUS
10
2.247047244094488
20
-5.6555118110236222
11
2.247047244094488
21
-5.3917322834645667
0
LINE
8
BLACK
6
CONTINUOUS
10
2.247047244094488
20
-5.3917322834645667
11
2.2471221653543307
21
-5.3913556299212599
0
LINE
8
BLACK
6
CONTINUOUS
10
2.2471221653543307
20
-5.3913556299212599
11
2.2476548425196849
21
-5.3908229527559053
0
LINE
8
BLACK
6
CONTINUOUS
10
2.2476548425196849
20
-5.3908229527559053
11
2.2480314960629921
21
-5.390748031496063
0
LINE
8
BLACK
6
CONTINUOUS
10
2.2480314960629921
20
-5.390748031496063
11
3.7559055118110236
21
-5.390748031496063
0
LINE
8
BLACK
6
CONTINUOUS
10
3.7559055118110236
20
-5.390748031496063
11
3.7562821653543308
21
-5.3908229527559053
0
LINE
8
BLACK
6
CONTINUOUS
10
2.2490157480314958
20
-5.3927165354330704
11
2.2490157480314958
21
-5.6545275590551176
0
LINE
8
BLACK
6
CONTINUOUS
10
2.2490157480314958
20
-5.6545275590551176
11
3.7549212598425195
21
-5.6545275590551176
0
LINE
8
BLACK
6
CONTINUOUS
10
3.7549212598425195
20
-5.6545275590551176
11
3.7549212598425195
21
-5.3927165354330704
0
LINE
8
BLACK
6
CONTINUOUS
10
3.7549212598425195
20
-5.3927165354330704
11
2.2490157480314958
21
-5.3927165354330704
0
LINE
8
BLACK
6
CONTINUOUS
10
4.1842349212598426
20
-2.6148387007874017
11
4.1847675984251964
21
-2.6153713779527559
0
LINE
8
BLACK
6
CONTINUOUS
10
4.1847675984251964
20
-2.6153713779527559
11
4.1848425196850396
21
-2.6157480314960631
0
LINE
8
BLACK
6
CONTINUOUS
10
4.1848425196850396
20
-2.6157480314960631
11
4.1848425196850396
21
-4.6555118110236222
0
LINE
8
BLACK
6
CONTINUOUS
10
4.1848425196850396
20
-4.6555118110236222
11
4.1847675984251964
21
-4.655888464566929
0
LINE
8
BLACK
6
CONTINUOUS
10
4.1847675984251964
20
-4.655888464566929
11
4.1842349212598426
21
-4.6564211417322836
0
LINE
8
BLACK
6
CONTINUOUS
10
4.1842349212598426
20
-4.6564211417322836
11
4.183858267716535
21
-4.6564960629921259
0
LINE
8
BLACK
6
CONTINUOUS
10
4.183858267716535
20
-4.6564960629921259
11
4.044488188976378
21
-4.6564960629921259
0
LINE
8
BLACK
6
CONTINUOUS
10
4.044488188976378
20
-4.6564960629921259
11
4.0441115354330703
21
-4.6564211417322836
0
LINE
8
BLACK
6
CONTINUOUS
10
4.0441115354330703
20
-4.6564211417322836
11
4.0435788582677166
21
-4.655888464566929
0
LINE
8
BLACK
6
CONTINUOUS
10
4.0435788582677166
20
-4.655888464566929
11
4.0435039370078742
21
-4.6555118110236222
0
LINE
8
BLACK
6
CONTINUOUS
10
4.0435039370078742
20
-4.6555118110236222
11
4.0435039370078742
21
-2.6157480314960631
0
LINE
8
BLACK
6
CONTINUOUS
10
4.0435039370078742
20
-2.6157480314960631
11
4.0435788582677166
21
-2.6153713779527559
0
LINE
8
BLACK
6
CONTINUOUS
10
4.0435788582677166
20
-2.6153713779527559
11
4.0441115354330703
21
-2.6148387007874017
0
LINE
8
BLACK
6
CONTINUOUS
10
4.0441115354330703
20
-2.6148387007874017
11
4.044488188976378
21
-2.6147637795275589
0
LINE
8
BLACK
6
CONTINUOUS
10
4.044488188976378
20
-2.6147637795275589
11
4.183858267716535
21
-2.6147637795275589
0
LINE
8
BLACK
6
CONTINUOUS
10
4.183858267716535
20
-2.6147637795275589
11
4.1842349212598426
21
-2.6148387007874017
0
LINE
8
BLACK
6
CONTINUOUS
10
4.0454724409448817
20
-2.6167322834645668
11
4.0454724409448817
21
-4.6545275590551176
0
LINE
8
BLACK
6
CONTINUOUS
10
4.0454724409448817
20
-4.6545275590551176
11
4.1828740157480313
21
-4.6545275590551176
0
LINE
8
BLACK
6
CONTINUOUS
10
4.1828740157480313
20
-4.6545275590551176
11
4.1828740157480313
21
-2.6167322834645668
0
LINE
8
BLACK
6
CONTINUOUS
10
4.1828740157480313
20
-2.6167322834645668
11
4.0454724409448817
21
-2.6167322834645668
0
LINE
8
BLACK
6
CONTINUOUS
10
4.4818727165354328
20
-2.6148387007874017
11
4.4824053937007875
21
-2.6153713779527559
0
LINE
8
BLACK
6
CONTINUOUS
10
4.4824053937007875
20
-2.6153713779527559
11
4.4824803149606298
21
-2.6157480314960631
0
LINE
8
BLACK
6
CONTINUOUS
10
4.4824803149606298
20
-2.6157480314960631
11
4.4824803149606298
21
-4.6555118110236222
0
LINE
8
BLACK
6
CONTINUOUS
10
4.4824803149606298
20
-4.6555118110236222
11
4.4824053937007875
21
-4.655888464566929
0
LINE
8
BLACK
6
CONTINUOUS
10
4.4824053937007875
20
-4.655888464566929
11
4.4818727165354328
21
-4.6564211417322836
0
LINE
8
BLACK
6
CONTINUOUS
10
4.4818727165354328
20
-4.6564211417322836
11
4.4814960629921261
21
-4.6564960629921259
0
LINE
8
BLACK
6
CONTINUOUS
10
4.4814960629921261
20
-4.6564960629921259
11
4.3421259842519682
21
-4.6564960629921259
0
LINE
8
BLACK
6
CONTINUOUS
10
4.3421259842519682
20
-4.6564960629921259
11
4.3417493307086614
21
-4.6564211417322836
0
LINE
8
BLACK
6
CONTINUOUS
10
4.3417493307086614
20
-4.6564211417322836
11
4.3412166535433068
21
-4.655888464566929
0
LINE
8
BLACK
6
CONTINUOUS
10
4.3412166535433068
20
-4.655888464566929
11
4.3411417322834644
21
-4.6555118110236222
0
LINE
8
BLACK
6
CONTINUOUS
10
4.3411417322834644
20
-4.6555118110236222
11
4.3411417322834644
21
-2.6157480314960631
0
LINE
8
BLACK
6
CONTINUOUS
10
4.3411417322834644
20
-2.6157480314960631
11
4.3412166535433068
21
-2.6153713779527559
0
LINE
8
BLACK
6
CONTINUOUS
10
4.3412166535433068
20
-2.6153713779527559
11
4.3417493307086614
21
-2.6148387007874017
0
LINE
8
BLACK
6
CONTINUOUS
10
4.3417493307086614
20
-2.6148387007874017
11
4.3421259842519682
21
-2.6147637795275589
0
LINE
8
BLACK
6
CONTINUOUS
10
4.3421259842519682
20
-2.6147637795275589
11
4.4814960629921261
21
-2.6147637795275589
0
LINE
8
BLACK
6
CONTINUOUS
10
4.4814960629921261
20
-2.6147637795275589
11
4.4818727165354328
21
-2.6148387007874017
0
LINE
8
BLACK
6
CONTINUOUS
10
4.3431102362204728
20
-2.6167322834645668
11
4.3431102362204728
21
-4.6545275590551176
0
LINE
8
BLACK
6
CONTINUOUS
10
4.3431102362204728
20
-4.6545275590551176
11
4.4805118110236215
21
-4.6545275590551176
0
LINE
8
BLACK
6
CONTINUOUS
10
4.4805118110236215
20
-4.6545275590551176
11
4.4805118110236215
21
-2.6167322834645668
0
LINE
8
BLACK
6
CONTINUOUS
10
4.4805118110236215
20
-2.6167322834645668
11
4.3431102362204728
21
-2.6167322834645668
0
LINE
8
BLACK
6
CONTINUOUS
10
3.7365971259842521
20
-1.7451536614173229
11
3.7371298031496063
21
-1.7456863385826771
0
LINE
8
BLACK
6
CONTINUOUS
10
3.7371298031496063
20
-1.7456863385826771
11
3.7372047244094486
21
-1.7460629921259843
0
LINE
8
BLACK
6
CONTINUOUS
10
3.7372047244094486
20
-1.7460629921259843
11
3.7372047244094486
21
-2.0098425196850394
0
LINE
8
BLACK
6
CONTINUOUS
10
3.7372047244094486
20
-2.0098425196850394
11
3.7371298031496063
21
-2.0102191732283465
0
LINE
8
BLACK
6
CONTINUOUS
10
3.7371298031496063
20
-2.0102191732283465
11
3.7365971259842521
21
-2.0107518503937007
0
LINE
8
BLACK
6
CONTINUOUS
10
3.7365971259842521
20
-2.0107518503937007
11
3.7362204724409449
21
-2.0108267716535431
0
LINE
8
BLACK
6
CONTINUOUS
10
3.7362204724409449
20
-2.0108267716535431
11
2.2283464566929134
21
-2.0108267716535431
0
LINE
8
BLACK
6
CONTINUOUS
10
2.2283464566929134
20
-2.0108267716535431
11
2.2279698031496062
21
-2.0107518503937007
0
LINE
8
BLACK
6
CONTINUOUS
10
2.2279698031496062
20
-2.0107518503937007
11
2.227437125984252
21
-2.0102191732283465
0
LINE
8
BLACK
6
CONTINUOUS
10
2.227437125984252
20
-2.0102191732283465
11
2.2273622047244093
21
-2.0098425196850394
0
LINE
8
BLACK
6
CONTINUOUS
10
2.2273622047244093
20
-2.0098425196850394
11
2.2273622047244093
21
-1.7460629921259843
0
LINE
8
BLACK
6
CONTINUOUS
10
2.2273622047244093
20
-1.7460629921259843
11
2.227437125984252
21
-1.7456863385826771
0
LINE
8
BLACK
6
CONTINUOUS
10
2.227437125984252
20
-1.7456863385826771
11
2.2279698031496062
21
-1.7451536614173229
0
LINE
8
BLACK
6
CONTINUOUS
10
2.2279698031496062
20
-1.7451536614173229
11
2.2283464566929134
21
-1.7450787401574803
0
LINE
8
BLACK
6
CONTINUOUS
10
2.2283464566929134
20
-1.7450787401574803
11
3.7362204724409449
21
-1.7450787401574803
0
LINE
8
BLACK
6
CONTINUOUS
10
3.7362204724409449
20
-1.7450787401574803
11
3.7365971259842521
21
-1.7451536614173229
0
LINE
8
BLACK
6
CONTINUOUS
10
2.2293307086614171
20
-1.7470472440944882
11
2.2293307086614171
21
-2.0088582677165352
0
LINE
8
BLACK
6
CONTINUOUS
10
2.2293307086614171
20
-2.0088582677165352
11
3.7352362204724407
21
-2.0088582677165352
0
LINE
8
BLACK
6
CONTINUOUS
10
3.7352362204724407
20
-2.0088582677165352
11
3.7352362204724407
21
-1.7470472440944882
0
LINE
8
BLACK
6
CONTINUOUS
10
3.7352362204724407
20
-1.7470472440944882
11
2.2293307086614171
21
-1.7470472440944882
  0
ENDSEC
  0
EOF
