%TF.GenerationSoftware,KiCad,Pcbnew,9.0.2*%
%TF.CreationDate,2025-09-16T08:59:02+02:00*%
%TF.ProjectId,psu,7073752e-6b69-4636-9164-5f7063625858,rev?*%
%TF.SameCoordinates,Original*%
%TF.FileFunction,Drillmap*%
%TF.FilePolarity,Positive*%
%FSLAX45Y45*%
G04 Gerber Fmt 4.5, Leading zero omitted, Abs format (unit mm)*
G04 Created by KiCad (PCBNEW 9.0.2) date 2025-09-16 08:59:02*
%MOMM*%
%LPD*%
G01*
G04 APERTURE LIST*
%ADD10C,0.050000*%
%ADD11C,0.200000*%
%ADD12C,0.100000*%
%ADD13C,0.220000*%
%ADD14C,0.455000*%
G04 APERTURE END LIST*
D10*
X17395000Y-15280750D02*
X6395000Y-15280750D01*
X17390000Y-8260000D02*
G75*
G02*
X17890000Y-8760000I0J-500000D01*
G01*
X5895000Y-14780750D02*
X5890000Y-8760000D01*
X5890000Y-8760000D02*
G75*
G02*
X6390000Y-8260000I500000J0D01*
G01*
X17890000Y-8760000D02*
X17895000Y-14780750D01*
X6395000Y-15280750D02*
G75*
G02*
X5895000Y-14780750I0J500000D01*
G01*
X17895000Y-14780750D02*
G75*
G02*
X17395000Y-15280750I-500000J0D01*
G01*
X6390000Y-8260000D02*
X17390000Y-8260000D01*
D11*
D12*
X6555000Y-14220000D02*
X6585000Y-14250000D01*
X6585000Y-14220000D02*
X6555000Y-14250000D01*
X6570000Y-14280000D02*
X6600000Y-14310000D01*
X6600000Y-14280000D02*
X6570000Y-14310000D01*
X6600000Y-14175000D02*
X6630000Y-14205000D01*
X6630000Y-14175000D02*
X6600000Y-14205000D01*
X6615000Y-14235000D02*
X6645000Y-14265000D01*
X6645000Y-14235000D02*
X6615000Y-14265000D01*
X6630000Y-14295000D02*
X6660000Y-14325000D01*
X6660000Y-14295000D02*
X6630000Y-14325000D01*
X6645000Y-14130000D02*
X6675000Y-14160000D01*
X6675000Y-14130000D02*
X6645000Y-14160000D01*
X6660000Y-14190000D02*
X6690000Y-14220000D01*
X6690000Y-14190000D02*
X6660000Y-14220000D01*
X6675000Y-14250000D02*
X6705000Y-14280000D01*
X6705000Y-14250000D02*
X6675000Y-14280000D01*
X6690000Y-14085000D02*
X6720000Y-14115000D01*
X6720000Y-14085000D02*
X6690000Y-14115000D01*
X6705000Y-14145000D02*
X6735000Y-14175000D01*
X6735000Y-14145000D02*
X6705000Y-14175000D01*
X6720000Y-14205000D02*
X6750000Y-14235000D01*
X6750000Y-14205000D02*
X6720000Y-14235000D01*
X6735000Y-14040000D02*
X6765000Y-14070000D01*
X6765000Y-14040000D02*
X6735000Y-14070000D01*
X6750000Y-14100000D02*
X6780000Y-14130000D01*
X6780000Y-14100000D02*
X6750000Y-14130000D01*
X6765000Y-14160000D02*
X6795000Y-14190000D01*
X6795000Y-14160000D02*
X6765000Y-14190000D01*
X6795000Y-14055000D02*
X6825000Y-14085000D01*
X6825000Y-14055000D02*
X6795000Y-14085000D01*
X6810000Y-14115000D02*
X6840000Y-14145000D01*
X6840000Y-14115000D02*
X6810000Y-14145000D01*
X6925000Y-11745000D02*
X6955000Y-11775000D01*
X6955000Y-11745000D02*
X6925000Y-11775000D01*
X6925000Y-11825000D02*
X6955000Y-11855000D01*
X6955000Y-11825000D02*
X6925000Y-11855000D01*
X6925000Y-11905000D02*
X6955000Y-11935000D01*
X6955000Y-11905000D02*
X6925000Y-11935000D01*
X6925000Y-11985000D02*
X6955000Y-12015000D01*
X6955000Y-11985000D02*
X6925000Y-12015000D01*
X6925000Y-12065000D02*
X6955000Y-12095000D01*
X6955000Y-12065000D02*
X6925000Y-12095000D01*
X6966500Y-12590000D02*
X6996500Y-12620000D01*
X6996500Y-12590000D02*
X6966500Y-12620000D01*
X7005000Y-11745000D02*
X7035000Y-11775000D01*
X7035000Y-11745000D02*
X7005000Y-11775000D01*
X7005000Y-11825000D02*
X7035000Y-11855000D01*
X7035000Y-11825000D02*
X7005000Y-11855000D01*
X7005000Y-11905000D02*
X7035000Y-11935000D01*
X7035000Y-11905000D02*
X7005000Y-11935000D01*
X7005000Y-11985000D02*
X7035000Y-12015000D01*
X7035000Y-11985000D02*
X7005000Y-12015000D01*
X7005000Y-12065000D02*
X7035000Y-12095000D01*
X7035000Y-12065000D02*
X7005000Y-12095000D01*
X7805000Y-9685000D02*
X7835000Y-9715000D01*
X7835000Y-9685000D02*
X7805000Y-9715000D01*
X7950000Y-10845000D02*
X7980000Y-10875000D01*
X7980000Y-10845000D02*
X7950000Y-10875000D01*
X7950000Y-10945000D02*
X7980000Y-10975000D01*
X7980000Y-10945000D02*
X7950000Y-10975000D01*
X7950000Y-11045000D02*
X7980000Y-11075000D01*
X7980000Y-11045000D02*
X7950000Y-11075000D01*
X7950000Y-11145000D02*
X7980000Y-11175000D01*
X7980000Y-11145000D02*
X7950000Y-11175000D01*
X7950000Y-11245000D02*
X7980000Y-11275000D01*
X7980000Y-11245000D02*
X7950000Y-11275000D01*
X7950000Y-11345000D02*
X7980000Y-11375000D01*
X7980000Y-11345000D02*
X7950000Y-11375000D01*
X7950000Y-11445000D02*
X7980000Y-11475000D01*
X7980000Y-11445000D02*
X7950000Y-11475000D01*
X7985000Y-9625000D02*
X8015000Y-9655000D01*
X8015000Y-9625000D02*
X7985000Y-9655000D01*
X8015000Y-9572500D02*
X8045000Y-9602500D01*
X8045000Y-9572500D02*
X8015000Y-9602500D01*
X8015000Y-9677500D02*
X8045000Y-9707500D01*
X8045000Y-9677500D02*
X8015000Y-9707500D01*
X8030000Y-8845000D02*
X8060000Y-8875000D01*
X8060000Y-8845000D02*
X8030000Y-8875000D01*
X8045000Y-9625000D02*
X8075000Y-9655000D01*
X8075000Y-9625000D02*
X8045000Y-9655000D01*
X8050000Y-10845000D02*
X8080000Y-10875000D01*
X8080000Y-10845000D02*
X8050000Y-10875000D01*
X8050000Y-10945000D02*
X8080000Y-10975000D01*
X8080000Y-10945000D02*
X8050000Y-10975000D01*
X8050000Y-11045000D02*
X8080000Y-11075000D01*
X8080000Y-11045000D02*
X8050000Y-11075000D01*
X8050000Y-11145000D02*
X8080000Y-11175000D01*
X8080000Y-11145000D02*
X8050000Y-11175000D01*
X8050000Y-11245000D02*
X8080000Y-11275000D01*
X8080000Y-11245000D02*
X8050000Y-11275000D01*
X8050000Y-11345000D02*
X8080000Y-11375000D01*
X8080000Y-11345000D02*
X8050000Y-11375000D01*
X8050000Y-11445000D02*
X8080000Y-11475000D01*
X8080000Y-11445000D02*
X8050000Y-11475000D01*
X8060000Y-8792500D02*
X8090000Y-8822500D01*
X8090000Y-8792500D02*
X8060000Y-8822500D01*
X8060000Y-8897500D02*
X8090000Y-8927500D01*
X8090000Y-8897500D02*
X8060000Y-8927500D01*
X8075000Y-9572500D02*
X8105000Y-9602500D01*
X8105000Y-9572500D02*
X8075000Y-9602500D01*
X8075000Y-9677500D02*
X8105000Y-9707500D01*
X8105000Y-9677500D02*
X8075000Y-9707500D01*
X8090000Y-8845000D02*
X8120000Y-8875000D01*
X8120000Y-8845000D02*
X8090000Y-8875000D01*
X8090000Y-8950000D02*
X8120000Y-8980000D01*
X8120000Y-8950000D02*
X8090000Y-8980000D01*
X8105000Y-9625000D02*
X8135000Y-9655000D01*
X8135000Y-9625000D02*
X8105000Y-9655000D01*
X8120000Y-8792500D02*
X8150000Y-8822500D01*
X8150000Y-8792500D02*
X8120000Y-8822500D01*
X8120000Y-8897500D02*
X8150000Y-8927500D01*
X8150000Y-8897500D02*
X8120000Y-8927500D01*
X8120000Y-9002500D02*
X8150000Y-9032500D01*
X8150000Y-9002500D02*
X8120000Y-9032500D01*
X8135000Y-9572500D02*
X8165000Y-9602500D01*
X8165000Y-9572500D02*
X8135000Y-9602500D01*
X8135000Y-9677500D02*
X8165000Y-9707500D01*
X8165000Y-9677500D02*
X8135000Y-9707500D01*
X8150000Y-8845000D02*
X8180000Y-8875000D01*
X8180000Y-8845000D02*
X8150000Y-8875000D01*
X8150000Y-8950000D02*
X8180000Y-8980000D01*
X8180000Y-8950000D02*
X8150000Y-8980000D01*
X8150000Y-9055000D02*
X8180000Y-9085000D01*
X8180000Y-9055000D02*
X8150000Y-9085000D01*
X8150000Y-10845000D02*
X8180000Y-10875000D01*
X8180000Y-10845000D02*
X8150000Y-10875000D01*
X8150000Y-10945000D02*
X8180000Y-10975000D01*
X8180000Y-10945000D02*
X8150000Y-10975000D01*
X8150000Y-11045000D02*
X8180000Y-11075000D01*
X8180000Y-11045000D02*
X8150000Y-11075000D01*
X8150000Y-11145000D02*
X8180000Y-11175000D01*
X8180000Y-11145000D02*
X8150000Y-11175000D01*
X8150000Y-11245000D02*
X8180000Y-11275000D01*
X8180000Y-11245000D02*
X8150000Y-11275000D01*
X8150000Y-11345000D02*
X8180000Y-11375000D01*
X8180000Y-11345000D02*
X8150000Y-11375000D01*
X8150000Y-11445000D02*
X8180000Y-11475000D01*
X8180000Y-11445000D02*
X8150000Y-11475000D01*
X8165000Y-9625000D02*
X8195000Y-9655000D01*
X8195000Y-9625000D02*
X8165000Y-9655000D01*
X8180000Y-8792500D02*
X8210000Y-8822500D01*
X8210000Y-8792500D02*
X8180000Y-8822500D01*
X8180000Y-8897500D02*
X8210000Y-8927500D01*
X8210000Y-8897500D02*
X8180000Y-8927500D01*
X8180000Y-9002500D02*
X8210000Y-9032500D01*
X8210000Y-9002500D02*
X8180000Y-9032500D01*
X8195000Y-9572500D02*
X8225000Y-9602500D01*
X8225000Y-9572500D02*
X8195000Y-9602500D01*
X8195000Y-9677500D02*
X8225000Y-9707500D01*
X8225000Y-9677500D02*
X8195000Y-9707500D01*
X8210000Y-8845000D02*
X8240000Y-8875000D01*
X8240000Y-8845000D02*
X8210000Y-8875000D01*
X8210000Y-8950000D02*
X8240000Y-8980000D01*
X8240000Y-8950000D02*
X8210000Y-8980000D01*
X8210000Y-9055000D02*
X8240000Y-9085000D01*
X8240000Y-9055000D02*
X8210000Y-9085000D01*
X8225000Y-9625000D02*
X8255000Y-9655000D01*
X8255000Y-9625000D02*
X8225000Y-9655000D01*
X8225000Y-9883000D02*
X8255000Y-9913000D01*
X8255000Y-9883000D02*
X8225000Y-9913000D01*
X8240000Y-8792500D02*
X8270000Y-8822500D01*
X8270000Y-8792500D02*
X8240000Y-8822500D01*
X8240000Y-8897500D02*
X8270000Y-8927500D01*
X8270000Y-8897500D02*
X8240000Y-8927500D01*
X8240000Y-9002500D02*
X8270000Y-9032500D01*
X8270000Y-9002500D02*
X8240000Y-9032500D01*
X8240000Y-10665000D02*
X8270000Y-10695000D01*
X8270000Y-10665000D02*
X8240000Y-10695000D01*
X8270000Y-8845000D02*
X8300000Y-8875000D01*
X8300000Y-8845000D02*
X8270000Y-8875000D01*
X8270000Y-8950000D02*
X8300000Y-8980000D01*
X8300000Y-8950000D02*
X8270000Y-8980000D01*
X8300000Y-8897500D02*
X8330000Y-8927500D01*
X8330000Y-8897500D02*
X8300000Y-8927500D01*
X8326000Y-11595000D02*
X8356000Y-11625000D01*
X8356000Y-11595000D02*
X8326000Y-11625000D01*
X8435000Y-14210000D02*
X8465000Y-14240000D01*
X8465000Y-14210000D02*
X8435000Y-14240000D01*
X8450000Y-14270000D02*
X8480000Y-14300000D01*
X8480000Y-14270000D02*
X8450000Y-14300000D01*
X8480000Y-14165000D02*
X8510000Y-14195000D01*
X8510000Y-14165000D02*
X8480000Y-14195000D01*
X8495000Y-14225000D02*
X8525000Y-14255000D01*
X8525000Y-14225000D02*
X8495000Y-14255000D01*
X8510000Y-14285000D02*
X8540000Y-14315000D01*
X8540000Y-14285000D02*
X8510000Y-14315000D01*
X8525000Y-14120000D02*
X8555000Y-14150000D01*
X8555000Y-14120000D02*
X8525000Y-14150000D01*
X8540000Y-14180000D02*
X8570000Y-14210000D01*
X8570000Y-14180000D02*
X8540000Y-14210000D01*
X8555000Y-14240000D02*
X8585000Y-14270000D01*
X8585000Y-14240000D02*
X8555000Y-14270000D01*
X8564574Y-10917595D02*
X8594574Y-10947595D01*
X8594574Y-10917595D02*
X8564574Y-10947595D01*
X8570000Y-14075000D02*
X8600000Y-14105000D01*
X8600000Y-14075000D02*
X8570000Y-14105000D01*
X8574463Y-11045776D02*
X8604463Y-11075776D01*
X8604463Y-11045776D02*
X8574463Y-11075776D01*
X8575000Y-11330000D02*
X8605000Y-11360000D01*
X8605000Y-11330000D02*
X8575000Y-11360000D01*
X8578072Y-11186867D02*
X8608072Y-11216867D01*
X8608072Y-11186867D02*
X8578072Y-11216867D01*
X8585000Y-14135000D02*
X8615000Y-14165000D01*
X8615000Y-14135000D02*
X8585000Y-14165000D01*
X8600000Y-14195000D02*
X8630000Y-14225000D01*
X8630000Y-14195000D02*
X8600000Y-14225000D01*
X8611079Y-10852500D02*
X8641079Y-10882500D01*
X8641079Y-10852500D02*
X8611079Y-10882500D01*
X8615000Y-14030000D02*
X8645000Y-14060000D01*
X8645000Y-14030000D02*
X8615000Y-14060000D01*
X8620000Y-10980000D02*
X8650000Y-11010000D01*
X8650000Y-10980000D02*
X8620000Y-11010000D01*
X8620000Y-11111551D02*
X8650000Y-11141551D01*
X8650000Y-11111551D02*
X8620000Y-11141551D01*
X8620000Y-11255000D02*
X8650000Y-11285000D01*
X8650000Y-11255000D02*
X8620000Y-11285000D01*
X8630000Y-14090000D02*
X8660000Y-14120000D01*
X8660000Y-14090000D02*
X8630000Y-14120000D01*
X8645000Y-9375000D02*
X8675000Y-9405000D01*
X8675000Y-9375000D02*
X8645000Y-9405000D01*
X8645000Y-9475000D02*
X8675000Y-9505000D01*
X8675000Y-9475000D02*
X8645000Y-9505000D01*
X8645000Y-9575000D02*
X8675000Y-9605000D01*
X8675000Y-9575000D02*
X8645000Y-9605000D01*
X8645000Y-9675000D02*
X8675000Y-9705000D01*
X8675000Y-9675000D02*
X8645000Y-9705000D01*
X8645000Y-9775000D02*
X8675000Y-9805000D01*
X8675000Y-9775000D02*
X8645000Y-9805000D01*
X8645000Y-9875000D02*
X8675000Y-9905000D01*
X8675000Y-9875000D02*
X8645000Y-9905000D01*
X8645000Y-9975000D02*
X8675000Y-10005000D01*
X8675000Y-9975000D02*
X8645000Y-10005000D01*
X8645000Y-14150000D02*
X8675000Y-14180000D01*
X8675000Y-14150000D02*
X8645000Y-14180000D01*
X8675000Y-14045000D02*
X8705000Y-14075000D01*
X8705000Y-14045000D02*
X8675000Y-14075000D01*
X8690000Y-14105000D02*
X8720000Y-14135000D01*
X8720000Y-14105000D02*
X8690000Y-14135000D01*
X8745000Y-9375000D02*
X8775000Y-9405000D01*
X8775000Y-9375000D02*
X8745000Y-9405000D01*
X8745000Y-9475000D02*
X8775000Y-9505000D01*
X8775000Y-9475000D02*
X8745000Y-9505000D01*
X8745000Y-9575000D02*
X8775000Y-9605000D01*
X8775000Y-9575000D02*
X8745000Y-9605000D01*
X8745000Y-9675000D02*
X8775000Y-9705000D01*
X8775000Y-9675000D02*
X8745000Y-9705000D01*
X8745000Y-9775000D02*
X8775000Y-9805000D01*
X8775000Y-9775000D02*
X8745000Y-9805000D01*
X8745000Y-9875000D02*
X8775000Y-9905000D01*
X8775000Y-9875000D02*
X8745000Y-9905000D01*
X8745000Y-9975000D02*
X8775000Y-10005000D01*
X8775000Y-9975000D02*
X8745000Y-10005000D01*
X8815000Y-12175000D02*
X8845000Y-12205000D01*
X8845000Y-12175000D02*
X8815000Y-12205000D01*
X8830750Y-11776500D02*
X8860750Y-11806500D01*
X8860750Y-11776500D02*
X8830750Y-11806500D01*
X8845000Y-9375000D02*
X8875000Y-9405000D01*
X8875000Y-9375000D02*
X8845000Y-9405000D01*
X8845000Y-9475000D02*
X8875000Y-9505000D01*
X8875000Y-9475000D02*
X8845000Y-9505000D01*
X8845000Y-9575000D02*
X8875000Y-9605000D01*
X8875000Y-9575000D02*
X8845000Y-9605000D01*
X8845000Y-9675000D02*
X8875000Y-9705000D01*
X8875000Y-9675000D02*
X8845000Y-9705000D01*
X8845000Y-9775000D02*
X8875000Y-9805000D01*
X8875000Y-9775000D02*
X8845000Y-9805000D01*
X8845000Y-9875000D02*
X8875000Y-9905000D01*
X8875000Y-9875000D02*
X8845000Y-9905000D01*
X8845000Y-9975000D02*
X8875000Y-10005000D01*
X8875000Y-9975000D02*
X8845000Y-10005000D01*
X8846000Y-11440500D02*
X8876000Y-11470500D01*
X8876000Y-11440500D02*
X8846000Y-11470500D01*
X8846000Y-11502000D02*
X8876000Y-11532000D01*
X8876000Y-11502000D02*
X8846000Y-11532000D01*
X8847000Y-11564000D02*
X8877000Y-11594000D01*
X8877000Y-11564000D02*
X8847000Y-11594000D01*
X8860750Y-11724000D02*
X8890750Y-11754000D01*
X8890750Y-11724000D02*
X8860750Y-11754000D01*
X8860750Y-11829000D02*
X8890750Y-11859000D01*
X8890750Y-11829000D02*
X8860750Y-11859000D01*
X8890750Y-11671500D02*
X8920750Y-11701500D01*
X8920750Y-11671500D02*
X8890750Y-11701500D01*
X8890750Y-11776500D02*
X8920750Y-11806500D01*
X8920750Y-11776500D02*
X8890750Y-11806500D01*
X8906000Y-11440500D02*
X8936000Y-11470500D01*
X8936000Y-11440500D02*
X8906000Y-11470500D01*
X8906000Y-11502000D02*
X8936000Y-11532000D01*
X8936000Y-11502000D02*
X8906000Y-11532000D01*
X8907000Y-11564000D02*
X8937000Y-11594000D01*
X8937000Y-11564000D02*
X8907000Y-11594000D01*
X8920750Y-11724000D02*
X8950750Y-11754000D01*
X8950750Y-11724000D02*
X8920750Y-11754000D01*
X8920750Y-11829000D02*
X8950750Y-11859000D01*
X8950750Y-11829000D02*
X8920750Y-11859000D01*
X8950750Y-11671500D02*
X8980750Y-11701500D01*
X8980750Y-11671500D02*
X8950750Y-11701500D01*
X8950750Y-11776500D02*
X8980750Y-11806500D01*
X8980750Y-11776500D02*
X8950750Y-11806500D01*
X8980750Y-11724000D02*
X9010750Y-11754000D01*
X9010750Y-11724000D02*
X8980750Y-11754000D01*
X8980750Y-11829000D02*
X9010750Y-11859000D01*
X9010750Y-11829000D02*
X8980750Y-11859000D01*
X9009000Y-12599000D02*
X9039000Y-12629000D01*
X9039000Y-12599000D02*
X9009000Y-12629000D01*
X9010750Y-11671500D02*
X9040750Y-11701500D01*
X9040750Y-11671500D02*
X9010750Y-11701500D01*
X9010750Y-11776500D02*
X9040750Y-11806500D01*
X9040750Y-11776500D02*
X9010750Y-11806500D01*
X9040750Y-11724000D02*
X9070750Y-11754000D01*
X9070750Y-11724000D02*
X9040750Y-11754000D01*
X9040750Y-11829000D02*
X9070750Y-11859000D01*
X9070750Y-11829000D02*
X9040750Y-11859000D01*
X9070750Y-11671500D02*
X9100750Y-11701500D01*
X9100750Y-11671500D02*
X9070750Y-11701500D01*
X9070750Y-11776500D02*
X9100750Y-11806500D01*
X9100750Y-11776500D02*
X9070750Y-11806500D01*
X9100750Y-11724000D02*
X9130750Y-11754000D01*
X9130750Y-11724000D02*
X9100750Y-11754000D01*
X9100750Y-11829000D02*
X9130750Y-11859000D01*
X9130750Y-11829000D02*
X9100750Y-11859000D01*
X9130750Y-11671500D02*
X9160750Y-11701500D01*
X9160750Y-11671500D02*
X9130750Y-11701500D01*
X9130750Y-11776500D02*
X9160750Y-11806500D01*
X9160750Y-11776500D02*
X9130750Y-11806500D01*
X9151100Y-9838900D02*
X9181100Y-9868900D01*
X9181100Y-9838900D02*
X9151100Y-9868900D01*
X9160750Y-11724000D02*
X9190750Y-11754000D01*
X9190750Y-11724000D02*
X9160750Y-11754000D01*
X9160750Y-11829000D02*
X9190750Y-11859000D01*
X9190750Y-11829000D02*
X9160750Y-11859000D01*
X9190750Y-11671500D02*
X9220750Y-11701500D01*
X9220750Y-11671500D02*
X9190750Y-11701500D01*
X9190750Y-11776500D02*
X9220750Y-11806500D01*
X9220750Y-11776500D02*
X9190750Y-11806500D01*
X9207500Y-8867000D02*
X9237500Y-8897000D01*
X9237500Y-8867000D02*
X9207500Y-8897000D01*
X9215000Y-9840000D02*
X9245000Y-9870000D01*
X9245000Y-9840000D02*
X9215000Y-9870000D01*
X9220750Y-11724000D02*
X9250750Y-11754000D01*
X9250750Y-11724000D02*
X9220750Y-11754000D01*
X9220750Y-11829000D02*
X9250750Y-11859000D01*
X9250750Y-11829000D02*
X9220750Y-11859000D01*
X9237500Y-8814500D02*
X9267500Y-8844500D01*
X9267500Y-8814500D02*
X9237500Y-8844500D01*
X9237500Y-8919500D02*
X9267500Y-8949500D01*
X9267500Y-8919500D02*
X9237500Y-8949500D01*
X9250750Y-11776500D02*
X9280750Y-11806500D01*
X9280750Y-11776500D02*
X9250750Y-11806500D01*
X9267500Y-8867000D02*
X9297500Y-8897000D01*
X9297500Y-8867000D02*
X9267500Y-8897000D01*
X9267500Y-8972000D02*
X9297500Y-9002000D01*
X9297500Y-8972000D02*
X9267500Y-9002000D01*
X9278500Y-9627500D02*
X9308500Y-9657500D01*
X9308500Y-9627500D02*
X9278500Y-9657500D01*
X9280000Y-9840000D02*
X9310000Y-9870000D01*
X9310000Y-9840000D02*
X9280000Y-9870000D01*
X9297500Y-8814500D02*
X9327500Y-8844500D01*
X9327500Y-8814500D02*
X9297500Y-8844500D01*
X9297500Y-8919500D02*
X9327500Y-8949500D01*
X9327500Y-8919500D02*
X9297500Y-8949500D01*
X9297500Y-9024500D02*
X9327500Y-9054500D01*
X9327500Y-9024500D02*
X9297500Y-9054500D01*
X9300000Y-10421315D02*
X9330000Y-10451315D01*
X9330000Y-10421315D02*
X9300000Y-10451315D01*
X9308500Y-9575000D02*
X9338500Y-9605000D01*
X9338500Y-9575000D02*
X9308500Y-9605000D01*
X9308500Y-9680000D02*
X9338500Y-9710000D01*
X9338500Y-9680000D02*
X9308500Y-9710000D01*
X9327500Y-8867000D02*
X9357500Y-8897000D01*
X9357500Y-8867000D02*
X9327500Y-8897000D01*
X9327500Y-8972000D02*
X9357500Y-9002000D01*
X9357500Y-8972000D02*
X9327500Y-9002000D01*
X9327500Y-9077000D02*
X9357500Y-9107000D01*
X9357500Y-9077000D02*
X9327500Y-9107000D01*
X9338500Y-9627500D02*
X9368500Y-9657500D01*
X9368500Y-9627500D02*
X9338500Y-9657500D01*
X9354486Y-10365500D02*
X9384486Y-10395500D01*
X9384486Y-10365500D02*
X9354486Y-10395500D01*
X9357500Y-8814500D02*
X9387500Y-8844500D01*
X9387500Y-8814500D02*
X9357500Y-8844500D01*
X9357500Y-8919500D02*
X9387500Y-8949500D01*
X9387500Y-8919500D02*
X9357500Y-8949500D01*
X9357500Y-9024500D02*
X9387500Y-9054500D01*
X9387500Y-9024500D02*
X9357500Y-9054500D01*
X9368500Y-9575000D02*
X9398500Y-9605000D01*
X9398500Y-9575000D02*
X9368500Y-9605000D01*
X9368500Y-9680000D02*
X9398500Y-9710000D01*
X9398500Y-9680000D02*
X9368500Y-9710000D01*
X9387500Y-8867000D02*
X9417500Y-8897000D01*
X9417500Y-8867000D02*
X9387500Y-8897000D01*
X9387500Y-8972000D02*
X9417500Y-9002000D01*
X9417500Y-8972000D02*
X9387500Y-9002000D01*
X9387500Y-9077000D02*
X9417500Y-9107000D01*
X9417500Y-9077000D02*
X9387500Y-9107000D01*
X9398500Y-9627500D02*
X9428500Y-9657500D01*
X9428500Y-9627500D02*
X9398500Y-9657500D01*
X9415000Y-11515000D02*
X9445000Y-11545000D01*
X9445000Y-11515000D02*
X9415000Y-11545000D01*
X9415000Y-11595000D02*
X9445000Y-11625000D01*
X9445000Y-11595000D02*
X9415000Y-11625000D01*
X9415000Y-11675000D02*
X9445000Y-11705000D01*
X9445000Y-11675000D02*
X9415000Y-11705000D01*
X9415000Y-11755000D02*
X9445000Y-11785000D01*
X9445000Y-11755000D02*
X9415000Y-11785000D01*
X9415000Y-11835000D02*
X9445000Y-11865000D01*
X9445000Y-11835000D02*
X9415000Y-11865000D01*
X9415000Y-11915000D02*
X9445000Y-11945000D01*
X9445000Y-11915000D02*
X9415000Y-11945000D01*
X9417500Y-8814500D02*
X9447500Y-8844500D01*
X9447500Y-8814500D02*
X9417500Y-8844500D01*
X9417500Y-8919500D02*
X9447500Y-8949500D01*
X9447500Y-8919500D02*
X9417500Y-8949500D01*
X9417500Y-9024500D02*
X9447500Y-9054500D01*
X9447500Y-9024500D02*
X9417500Y-9054500D01*
X9420000Y-12286500D02*
X9450000Y-12316500D01*
X9450000Y-12286500D02*
X9420000Y-12316500D01*
X9428500Y-9575000D02*
X9458500Y-9605000D01*
X9458500Y-9575000D02*
X9428500Y-9605000D01*
X9428500Y-9680000D02*
X9458500Y-9710000D01*
X9458500Y-9680000D02*
X9428500Y-9710000D01*
X9447500Y-8867000D02*
X9477500Y-8897000D01*
X9477500Y-8867000D02*
X9447500Y-8897000D01*
X9447500Y-8972000D02*
X9477500Y-9002000D01*
X9477500Y-8972000D02*
X9447500Y-9002000D01*
X9450000Y-12234000D02*
X9480000Y-12264000D01*
X9480000Y-12234000D02*
X9450000Y-12264000D01*
X9450000Y-12339000D02*
X9480000Y-12369000D01*
X9480000Y-12339000D02*
X9450000Y-12369000D01*
X9458500Y-9627500D02*
X9488500Y-9657500D01*
X9488500Y-9627500D02*
X9458500Y-9657500D01*
X9460000Y-10148000D02*
X9490000Y-10178000D01*
X9490000Y-10148000D02*
X9460000Y-10178000D01*
X9477500Y-8919500D02*
X9507500Y-8949500D01*
X9507500Y-8919500D02*
X9477500Y-8949500D01*
X9480000Y-12181500D02*
X9510000Y-12211500D01*
X9510000Y-12181500D02*
X9480000Y-12211500D01*
X9480000Y-12286500D02*
X9510000Y-12316500D01*
X9510000Y-12286500D02*
X9480000Y-12316500D01*
X9488500Y-9575000D02*
X9518500Y-9605000D01*
X9518500Y-9575000D02*
X9488500Y-9605000D01*
X9488500Y-9680000D02*
X9518500Y-9710000D01*
X9518500Y-9680000D02*
X9488500Y-9710000D01*
X9495000Y-11515000D02*
X9525000Y-11545000D01*
X9525000Y-11515000D02*
X9495000Y-11545000D01*
X9495000Y-11595000D02*
X9525000Y-11625000D01*
X9525000Y-11595000D02*
X9495000Y-11625000D01*
X9495000Y-11675000D02*
X9525000Y-11705000D01*
X9525000Y-11675000D02*
X9495000Y-11705000D01*
X9495000Y-11755000D02*
X9525000Y-11785000D01*
X9525000Y-11755000D02*
X9495000Y-11785000D01*
X9495000Y-11835000D02*
X9525000Y-11865000D01*
X9525000Y-11835000D02*
X9495000Y-11865000D01*
X9495000Y-11915000D02*
X9525000Y-11945000D01*
X9525000Y-11915000D02*
X9495000Y-11945000D01*
X9510000Y-12234000D02*
X9540000Y-12264000D01*
X9540000Y-12234000D02*
X9510000Y-12264000D01*
X9510000Y-12339000D02*
X9540000Y-12369000D01*
X9540000Y-12339000D02*
X9510000Y-12369000D01*
X9518500Y-9627500D02*
X9548500Y-9657500D01*
X9548500Y-9627500D02*
X9518500Y-9657500D01*
X9540000Y-12181500D02*
X9570000Y-12211500D01*
X9570000Y-12181500D02*
X9540000Y-12211500D01*
X9540000Y-12286500D02*
X9570000Y-12316500D01*
X9570000Y-12286500D02*
X9540000Y-12316500D01*
X9570000Y-12234000D02*
X9600000Y-12264000D01*
X9600000Y-12234000D02*
X9570000Y-12264000D01*
X9570000Y-12339000D02*
X9600000Y-12369000D01*
X9600000Y-12339000D02*
X9570000Y-12369000D01*
X9600000Y-12181500D02*
X9630000Y-12211500D01*
X9630000Y-12181500D02*
X9600000Y-12211500D01*
X9600000Y-12286500D02*
X9630000Y-12316500D01*
X9630000Y-12286500D02*
X9600000Y-12316500D01*
X9630000Y-12234000D02*
X9660000Y-12264000D01*
X9660000Y-12234000D02*
X9630000Y-12264000D01*
X9630000Y-12339000D02*
X9660000Y-12369000D01*
X9660000Y-12339000D02*
X9630000Y-12369000D01*
X9647000Y-12626176D02*
X9677000Y-12656176D01*
X9677000Y-12626176D02*
X9647000Y-12656176D01*
X9660000Y-12181500D02*
X9690000Y-12211500D01*
X9690000Y-12181500D02*
X9660000Y-12211500D01*
X9660000Y-12286500D02*
X9690000Y-12316500D01*
X9690000Y-12286500D02*
X9660000Y-12316500D01*
X9675512Y-10604502D02*
X9705512Y-10634502D01*
X9705512Y-10604502D02*
X9675512Y-10634502D01*
X9690000Y-12234000D02*
X9720000Y-12264000D01*
X9720000Y-12234000D02*
X9690000Y-12264000D01*
X9690000Y-12339000D02*
X9720000Y-12369000D01*
X9720000Y-12339000D02*
X9690000Y-12369000D01*
X9705000Y-8855000D02*
X9735000Y-8885000D01*
X9735000Y-8855000D02*
X9705000Y-8885000D01*
X9720000Y-12181500D02*
X9750000Y-12211500D01*
X9750000Y-12181500D02*
X9720000Y-12211500D01*
X9720000Y-12286500D02*
X9750000Y-12316500D01*
X9750000Y-12286500D02*
X9720000Y-12316500D01*
X9750000Y-12234000D02*
X9780000Y-12264000D01*
X9780000Y-12234000D02*
X9750000Y-12264000D01*
X9750000Y-12339000D02*
X9780000Y-12369000D01*
X9780000Y-12339000D02*
X9750000Y-12369000D01*
X9771500Y-10807500D02*
X9801500Y-10837500D01*
X9801500Y-10807500D02*
X9771500Y-10837500D01*
X9780000Y-12181500D02*
X9810000Y-12211500D01*
X9810000Y-12181500D02*
X9780000Y-12211500D01*
X9780000Y-12286500D02*
X9810000Y-12316500D01*
X9810000Y-12286500D02*
X9780000Y-12316500D01*
X9801500Y-10755000D02*
X9831500Y-10785000D01*
X9831500Y-10755000D02*
X9801500Y-10785000D01*
X9801500Y-10860000D02*
X9831500Y-10890000D01*
X9831500Y-10860000D02*
X9801500Y-10890000D01*
X9810000Y-12234000D02*
X9840000Y-12264000D01*
X9840000Y-12234000D02*
X9810000Y-12264000D01*
X9810000Y-12339000D02*
X9840000Y-12369000D01*
X9840000Y-12339000D02*
X9810000Y-12369000D01*
X9812500Y-11630000D02*
X9842500Y-11660000D01*
X9842500Y-11630000D02*
X9812500Y-11660000D01*
X9831500Y-10807500D02*
X9861500Y-10837500D01*
X9861500Y-10807500D02*
X9831500Y-10837500D01*
X9840000Y-12286500D02*
X9870000Y-12316500D01*
X9870000Y-12286500D02*
X9840000Y-12316500D01*
X9842500Y-11577500D02*
X9872500Y-11607500D01*
X9872500Y-11577500D02*
X9842500Y-11607500D01*
X9842500Y-11682500D02*
X9872500Y-11712500D01*
X9872500Y-11682500D02*
X9842500Y-11712500D01*
X9861500Y-10755000D02*
X9891500Y-10785000D01*
X9891500Y-10755000D02*
X9861500Y-10785000D01*
X9861500Y-10860000D02*
X9891500Y-10890000D01*
X9891500Y-10860000D02*
X9861500Y-10890000D01*
X9872500Y-11525000D02*
X9902500Y-11555000D01*
X9902500Y-11525000D02*
X9872500Y-11555000D01*
X9872500Y-11630000D02*
X9902500Y-11660000D01*
X9902500Y-11630000D02*
X9872500Y-11660000D01*
X9891500Y-10807500D02*
X9921500Y-10837500D01*
X9921500Y-10807500D02*
X9891500Y-10837500D01*
X9902500Y-11472500D02*
X9932500Y-11502500D01*
X9932500Y-11472500D02*
X9902500Y-11502500D01*
X9902500Y-11577500D02*
X9932500Y-11607500D01*
X9932500Y-11577500D02*
X9902500Y-11607500D01*
X9902500Y-11682500D02*
X9932500Y-11712500D01*
X9932500Y-11682500D02*
X9902500Y-11712500D01*
X9921500Y-10755000D02*
X9951500Y-10785000D01*
X9951500Y-10755000D02*
X9921500Y-10785000D01*
X9921500Y-10860000D02*
X9951500Y-10890000D01*
X9951500Y-10860000D02*
X9921500Y-10890000D01*
X9932500Y-11420000D02*
X9962500Y-11450000D01*
X9962500Y-11420000D02*
X9932500Y-11450000D01*
X9932500Y-11525000D02*
X9962500Y-11555000D01*
X9962500Y-11525000D02*
X9932500Y-11555000D01*
X9932500Y-11630000D02*
X9962500Y-11660000D01*
X9962500Y-11630000D02*
X9932500Y-11660000D01*
X9951500Y-10807500D02*
X9981500Y-10837500D01*
X9981500Y-10807500D02*
X9951500Y-10837500D01*
X9960000Y-9380000D02*
X9990000Y-9410000D01*
X9990000Y-9380000D02*
X9960000Y-9410000D01*
X9960000Y-9445000D02*
X9990000Y-9475000D01*
X9990000Y-9445000D02*
X9960000Y-9475000D01*
X9962500Y-11472500D02*
X9992500Y-11502500D01*
X9992500Y-11472500D02*
X9962500Y-11502500D01*
X9962500Y-11577500D02*
X9992500Y-11607500D01*
X9992500Y-11577500D02*
X9962500Y-11607500D01*
X9962500Y-11682500D02*
X9992500Y-11712500D01*
X9992500Y-11682500D02*
X9962500Y-11712500D01*
X9981500Y-10755000D02*
X10011500Y-10785000D01*
X10011500Y-10755000D02*
X9981500Y-10785000D01*
X9981500Y-10860000D02*
X10011500Y-10890000D01*
X10011500Y-10860000D02*
X9981500Y-10890000D01*
X9992500Y-11420000D02*
X10022500Y-11450000D01*
X10022500Y-11420000D02*
X9992500Y-11450000D01*
X9992500Y-11525000D02*
X10022500Y-11555000D01*
X10022500Y-11525000D02*
X9992500Y-11555000D01*
X9992500Y-11630000D02*
X10022500Y-11660000D01*
X10022500Y-11630000D02*
X9992500Y-11660000D01*
X10011500Y-10807500D02*
X10041500Y-10837500D01*
X10041500Y-10807500D02*
X10011500Y-10837500D01*
X10022500Y-11472500D02*
X10052500Y-11502500D01*
X10052500Y-11472500D02*
X10022500Y-11502500D01*
X10022500Y-11577500D02*
X10052500Y-11607500D01*
X10052500Y-11577500D02*
X10022500Y-11607500D01*
X10022500Y-11682500D02*
X10052500Y-11712500D01*
X10052500Y-11682500D02*
X10022500Y-11712500D01*
X10025000Y-9380000D02*
X10055000Y-9410000D01*
X10055000Y-9380000D02*
X10025000Y-9410000D01*
X10025000Y-9445000D02*
X10055000Y-9475000D01*
X10055000Y-9445000D02*
X10025000Y-9475000D01*
X10052500Y-11525000D02*
X10082500Y-11555000D01*
X10082500Y-11525000D02*
X10052500Y-11555000D01*
X10052500Y-11630000D02*
X10082500Y-11660000D01*
X10082500Y-11630000D02*
X10052500Y-11660000D01*
X10082500Y-11577500D02*
X10112500Y-11607500D01*
X10112500Y-11577500D02*
X10082500Y-11607500D01*
X10120000Y-10655000D02*
X10150000Y-10685000D01*
X10150000Y-10655000D02*
X10120000Y-10685000D01*
X10125000Y-10555000D02*
X10155000Y-10585000D01*
X10155000Y-10555000D02*
X10125000Y-10585000D01*
X10210000Y-11412000D02*
X10240000Y-11442000D01*
X10240000Y-11412000D02*
X10210000Y-11442000D01*
X10295000Y-14235000D02*
X10325000Y-14265000D01*
X10325000Y-14235000D02*
X10295000Y-14265000D01*
X10310000Y-11412000D02*
X10340000Y-11442000D01*
X10340000Y-11412000D02*
X10310000Y-11442000D01*
X10310000Y-14295000D02*
X10340000Y-14325000D01*
X10340000Y-14295000D02*
X10310000Y-14325000D01*
X10315000Y-10165000D02*
X10345000Y-10195000D01*
X10345000Y-10165000D02*
X10315000Y-10195000D01*
X10325000Y-9605000D02*
X10355000Y-9635000D01*
X10355000Y-9605000D02*
X10325000Y-9635000D01*
X10340000Y-9665000D02*
X10370000Y-9695000D01*
X10370000Y-9665000D02*
X10340000Y-9695000D01*
X10340000Y-14190000D02*
X10370000Y-14220000D01*
X10370000Y-14190000D02*
X10340000Y-14220000D01*
X10355000Y-9725000D02*
X10385000Y-9755000D01*
X10385000Y-9725000D02*
X10355000Y-9755000D01*
X10355000Y-14250000D02*
X10385000Y-14280000D01*
X10385000Y-14250000D02*
X10355000Y-14280000D01*
X10370000Y-9560000D02*
X10400000Y-9590000D01*
X10400000Y-9560000D02*
X10370000Y-9590000D01*
X10370000Y-14310000D02*
X10400000Y-14340000D01*
X10400000Y-14310000D02*
X10370000Y-14340000D01*
X10385000Y-9620000D02*
X10415000Y-9650000D01*
X10415000Y-9620000D02*
X10385000Y-9650000D01*
X10385000Y-14145000D02*
X10415000Y-14175000D01*
X10415000Y-14145000D02*
X10385000Y-14175000D01*
X10400000Y-9680000D02*
X10430000Y-9710000D01*
X10430000Y-9680000D02*
X10400000Y-9710000D01*
X10400000Y-14205000D02*
X10430000Y-14235000D01*
X10430000Y-14205000D02*
X10400000Y-14235000D01*
X10415000Y-9515000D02*
X10445000Y-9545000D01*
X10445000Y-9515000D02*
X10415000Y-9545000D01*
X10415000Y-9740000D02*
X10445000Y-9770000D01*
X10445000Y-9740000D02*
X10415000Y-9770000D01*
X10415000Y-14265000D02*
X10445000Y-14295000D01*
X10445000Y-14265000D02*
X10415000Y-14295000D01*
X10430000Y-9575000D02*
X10460000Y-9605000D01*
X10460000Y-9575000D02*
X10430000Y-9605000D01*
X10430000Y-14100000D02*
X10460000Y-14130000D01*
X10460000Y-14100000D02*
X10430000Y-14130000D01*
X10440000Y-10455000D02*
X10470000Y-10485000D01*
X10470000Y-10455000D02*
X10440000Y-10485000D01*
X10440000Y-10555000D02*
X10470000Y-10585000D01*
X10470000Y-10555000D02*
X10440000Y-10585000D01*
X10440000Y-10655000D02*
X10470000Y-10685000D01*
X10470000Y-10655000D02*
X10440000Y-10685000D01*
X10440000Y-10755000D02*
X10470000Y-10785000D01*
X10470000Y-10755000D02*
X10440000Y-10785000D01*
X10440000Y-10855000D02*
X10470000Y-10885000D01*
X10470000Y-10855000D02*
X10440000Y-10885000D01*
X10440000Y-10955000D02*
X10470000Y-10985000D01*
X10470000Y-10955000D02*
X10440000Y-10985000D01*
X10440000Y-11055000D02*
X10470000Y-11085000D01*
X10470000Y-11055000D02*
X10440000Y-11085000D01*
X10445000Y-9635000D02*
X10475000Y-9665000D01*
X10475000Y-9635000D02*
X10445000Y-9665000D01*
X10445000Y-14160000D02*
X10475000Y-14190000D01*
X10475000Y-14160000D02*
X10445000Y-14190000D01*
X10460000Y-9470000D02*
X10490000Y-9500000D01*
X10490000Y-9470000D02*
X10460000Y-9500000D01*
X10460000Y-9695000D02*
X10490000Y-9725000D01*
X10490000Y-9695000D02*
X10460000Y-9725000D01*
X10460000Y-14220000D02*
X10490000Y-14250000D01*
X10490000Y-14220000D02*
X10460000Y-14250000D01*
X10475000Y-9530000D02*
X10505000Y-9560000D01*
X10505000Y-9530000D02*
X10475000Y-9560000D01*
X10475000Y-14055000D02*
X10505000Y-14085000D01*
X10505000Y-14055000D02*
X10475000Y-14085000D01*
X10490000Y-9590000D02*
X10520000Y-9620000D01*
X10520000Y-9590000D02*
X10490000Y-9620000D01*
X10490000Y-14115000D02*
X10520000Y-14145000D01*
X10520000Y-14115000D02*
X10490000Y-14145000D01*
X10505000Y-9425000D02*
X10535000Y-9455000D01*
X10535000Y-9425000D02*
X10505000Y-9455000D01*
X10505000Y-9650000D02*
X10535000Y-9680000D01*
X10535000Y-9650000D02*
X10505000Y-9680000D01*
X10505000Y-14175000D02*
X10535000Y-14205000D01*
X10535000Y-14175000D02*
X10505000Y-14205000D01*
X10520000Y-9485000D02*
X10550000Y-9515000D01*
X10550000Y-9485000D02*
X10520000Y-9515000D01*
X10535000Y-9545000D02*
X10565000Y-9575000D01*
X10565000Y-9545000D02*
X10535000Y-9575000D01*
X10535000Y-14070000D02*
X10565000Y-14100000D01*
X10565000Y-14070000D02*
X10535000Y-14100000D01*
X10540000Y-10455000D02*
X10570000Y-10485000D01*
X10570000Y-10455000D02*
X10540000Y-10485000D01*
X10540000Y-10555000D02*
X10570000Y-10585000D01*
X10570000Y-10555000D02*
X10540000Y-10585000D01*
X10540000Y-10655000D02*
X10570000Y-10685000D01*
X10570000Y-10655000D02*
X10540000Y-10685000D01*
X10540000Y-10755000D02*
X10570000Y-10785000D01*
X10570000Y-10755000D02*
X10540000Y-10785000D01*
X10540000Y-10855000D02*
X10570000Y-10885000D01*
X10570000Y-10855000D02*
X10540000Y-10885000D01*
X10540000Y-10955000D02*
X10570000Y-10985000D01*
X10570000Y-10955000D02*
X10540000Y-10985000D01*
X10540000Y-11055000D02*
X10570000Y-11085000D01*
X10570000Y-11055000D02*
X10540000Y-11085000D01*
X10550000Y-9380000D02*
X10580000Y-9410000D01*
X10580000Y-9380000D02*
X10550000Y-9410000D01*
X10550000Y-9605000D02*
X10580000Y-9635000D01*
X10580000Y-9605000D02*
X10550000Y-9635000D01*
X10550000Y-14130000D02*
X10580000Y-14160000D01*
X10580000Y-14130000D02*
X10550000Y-14160000D01*
X10565000Y-9440000D02*
X10595000Y-9470000D01*
X10595000Y-9440000D02*
X10565000Y-9470000D01*
X10565000Y-12375000D02*
X10595000Y-12405000D01*
X10595000Y-12375000D02*
X10565000Y-12405000D01*
X10570000Y-13465000D02*
X10600000Y-13495000D01*
X10600000Y-13465000D02*
X10570000Y-13495000D01*
X10580000Y-9500000D02*
X10610000Y-9530000D01*
X10610000Y-9500000D02*
X10580000Y-9530000D01*
X10595000Y-9560000D02*
X10625000Y-9590000D01*
X10625000Y-9560000D02*
X10595000Y-9590000D01*
X10610000Y-9395000D02*
X10640000Y-9425000D01*
X10640000Y-9395000D02*
X10610000Y-9425000D01*
X10625000Y-9455000D02*
X10655000Y-9485000D01*
X10655000Y-9455000D02*
X10625000Y-9485000D01*
X10640000Y-9515000D02*
X10670000Y-9545000D01*
X10670000Y-9515000D02*
X10640000Y-9545000D01*
X10640000Y-10455000D02*
X10670000Y-10485000D01*
X10670000Y-10455000D02*
X10640000Y-10485000D01*
X10640000Y-10555000D02*
X10670000Y-10585000D01*
X10670000Y-10555000D02*
X10640000Y-10585000D01*
X10640000Y-10655000D02*
X10670000Y-10685000D01*
X10670000Y-10655000D02*
X10640000Y-10685000D01*
X10640000Y-10755000D02*
X10670000Y-10785000D01*
X10670000Y-10755000D02*
X10640000Y-10785000D01*
X10640000Y-10855000D02*
X10670000Y-10885000D01*
X10670000Y-10855000D02*
X10640000Y-10885000D01*
X10640000Y-10955000D02*
X10670000Y-10985000D01*
X10670000Y-10955000D02*
X10640000Y-10985000D01*
X10640000Y-11055000D02*
X10670000Y-11085000D01*
X10670000Y-11055000D02*
X10640000Y-11085000D01*
X10670000Y-9410000D02*
X10700000Y-9440000D01*
X10700000Y-9410000D02*
X10670000Y-9440000D01*
X10685000Y-9470000D02*
X10715000Y-9500000D01*
X10715000Y-9470000D02*
X10685000Y-9500000D01*
X11005000Y-11630000D02*
X11035000Y-11660000D01*
X11035000Y-11630000D02*
X11005000Y-11660000D01*
X11035000Y-11577500D02*
X11065000Y-11607500D01*
X11065000Y-11577500D02*
X11035000Y-11607500D01*
X11035000Y-11682500D02*
X11065000Y-11712500D01*
X11065000Y-11682500D02*
X11035000Y-11712500D01*
X11065000Y-10805000D02*
X11095000Y-10835000D01*
X11095000Y-10805000D02*
X11065000Y-10835000D01*
X11065000Y-11525000D02*
X11095000Y-11555000D01*
X11095000Y-11525000D02*
X11065000Y-11555000D01*
X11065000Y-11630000D02*
X11095000Y-11660000D01*
X11095000Y-11630000D02*
X11065000Y-11660000D01*
X11095000Y-10752500D02*
X11125000Y-10782500D01*
X11125000Y-10752500D02*
X11095000Y-10782500D01*
X11095000Y-10857500D02*
X11125000Y-10887500D01*
X11125000Y-10857500D02*
X11095000Y-10887500D01*
X11095000Y-11472500D02*
X11125000Y-11502500D01*
X11125000Y-11472500D02*
X11095000Y-11502500D01*
X11095000Y-11577500D02*
X11125000Y-11607500D01*
X11125000Y-11577500D02*
X11095000Y-11607500D01*
X11095000Y-11682500D02*
X11125000Y-11712500D01*
X11125000Y-11682500D02*
X11095000Y-11712500D01*
X11125000Y-10805000D02*
X11155000Y-10835000D01*
X11155000Y-10805000D02*
X11125000Y-10835000D01*
X11125000Y-11420000D02*
X11155000Y-11450000D01*
X11155000Y-11420000D02*
X11125000Y-11450000D01*
X11125000Y-11525000D02*
X11155000Y-11555000D01*
X11155000Y-11525000D02*
X11125000Y-11555000D01*
X11125000Y-11630000D02*
X11155000Y-11660000D01*
X11155000Y-11630000D02*
X11125000Y-11660000D01*
X11155000Y-10752500D02*
X11185000Y-10782500D01*
X11185000Y-10752500D02*
X11155000Y-10782500D01*
X11155000Y-10857500D02*
X11185000Y-10887500D01*
X11185000Y-10857500D02*
X11155000Y-10887500D01*
X11155000Y-11472500D02*
X11185000Y-11502500D01*
X11185000Y-11472500D02*
X11155000Y-11502500D01*
X11155000Y-11577500D02*
X11185000Y-11607500D01*
X11185000Y-11577500D02*
X11155000Y-11607500D01*
X11155000Y-11682500D02*
X11185000Y-11712500D01*
X11185000Y-11682500D02*
X11155000Y-11712500D01*
X11185000Y-10805000D02*
X11215000Y-10835000D01*
X11215000Y-10805000D02*
X11185000Y-10835000D01*
X11185000Y-11420000D02*
X11215000Y-11450000D01*
X11215000Y-11420000D02*
X11185000Y-11450000D01*
X11185000Y-11525000D02*
X11215000Y-11555000D01*
X11215000Y-11525000D02*
X11185000Y-11555000D01*
X11185000Y-11630000D02*
X11215000Y-11660000D01*
X11215000Y-11630000D02*
X11185000Y-11660000D01*
X11188000Y-10532000D02*
X11218000Y-10562000D01*
X11218000Y-10532000D02*
X11188000Y-10562000D01*
X11215000Y-10752500D02*
X11245000Y-10782500D01*
X11245000Y-10752500D02*
X11215000Y-10782500D01*
X11215000Y-10857500D02*
X11245000Y-10887500D01*
X11245000Y-10857500D02*
X11215000Y-10887500D01*
X11215000Y-11472500D02*
X11245000Y-11502500D01*
X11245000Y-11472500D02*
X11215000Y-11502500D01*
X11215000Y-11577500D02*
X11245000Y-11607500D01*
X11245000Y-11577500D02*
X11215000Y-11607500D01*
X11215000Y-11682500D02*
X11245000Y-11712500D01*
X11245000Y-11682500D02*
X11215000Y-11712500D01*
X11240000Y-9935000D02*
X11270000Y-9965000D01*
X11270000Y-9935000D02*
X11240000Y-9965000D01*
X11245000Y-10805000D02*
X11275000Y-10835000D01*
X11275000Y-10805000D02*
X11245000Y-10835000D01*
X11245000Y-11525000D02*
X11275000Y-11555000D01*
X11275000Y-11525000D02*
X11245000Y-11555000D01*
X11245000Y-11630000D02*
X11275000Y-11660000D01*
X11275000Y-11630000D02*
X11245000Y-11660000D01*
X11255000Y-9770000D02*
X11285000Y-9800000D01*
X11285000Y-9770000D02*
X11255000Y-9800000D01*
X11255000Y-9995000D02*
X11285000Y-10025000D01*
X11285000Y-9995000D02*
X11255000Y-10025000D01*
X11270000Y-9605000D02*
X11300000Y-9635000D01*
X11300000Y-9605000D02*
X11270000Y-9635000D01*
X11270000Y-9830000D02*
X11300000Y-9860000D01*
X11300000Y-9830000D02*
X11270000Y-9860000D01*
X11270000Y-10055000D02*
X11300000Y-10085000D01*
X11300000Y-10055000D02*
X11270000Y-10085000D01*
X11275000Y-10752500D02*
X11305000Y-10782500D01*
X11305000Y-10752500D02*
X11275000Y-10782500D01*
X11275000Y-10857500D02*
X11305000Y-10887500D01*
X11305000Y-10857500D02*
X11275000Y-10887500D01*
X11275000Y-11577500D02*
X11305000Y-11607500D01*
X11305000Y-11577500D02*
X11275000Y-11607500D01*
X11284000Y-10114000D02*
X11314000Y-10144000D01*
X11314000Y-10114000D02*
X11284000Y-10144000D01*
X11285000Y-9665000D02*
X11315000Y-9695000D01*
X11315000Y-9665000D02*
X11285000Y-9695000D01*
X11285000Y-9890000D02*
X11315000Y-9920000D01*
X11315000Y-9890000D02*
X11285000Y-9920000D01*
X11285000Y-10595000D02*
X11315000Y-10625000D01*
X11315000Y-10595000D02*
X11285000Y-10625000D01*
X11300000Y-9725000D02*
X11330000Y-9755000D01*
X11330000Y-9725000D02*
X11300000Y-9755000D01*
X11300000Y-9950000D02*
X11330000Y-9980000D01*
X11330000Y-9950000D02*
X11300000Y-9980000D01*
X11305000Y-10805000D02*
X11335000Y-10835000D01*
X11335000Y-10805000D02*
X11305000Y-10835000D01*
X11315000Y-9560000D02*
X11345000Y-9590000D01*
X11345000Y-9560000D02*
X11315000Y-9590000D01*
X11315000Y-9785000D02*
X11345000Y-9815000D01*
X11345000Y-9785000D02*
X11315000Y-9815000D01*
X11315000Y-10010000D02*
X11345000Y-10040000D01*
X11345000Y-10010000D02*
X11315000Y-10040000D01*
X11330000Y-9620000D02*
X11360000Y-9650000D01*
X11360000Y-9620000D02*
X11330000Y-9650000D01*
X11330000Y-9845000D02*
X11360000Y-9875000D01*
X11360000Y-9845000D02*
X11330000Y-9875000D01*
X11330000Y-10070000D02*
X11360000Y-10100000D01*
X11360000Y-10070000D02*
X11330000Y-10100000D01*
X11343000Y-10131000D02*
X11373000Y-10161000D01*
X11373000Y-10131000D02*
X11343000Y-10161000D01*
X11345000Y-9680000D02*
X11375000Y-9710000D01*
X11375000Y-9680000D02*
X11345000Y-9710000D01*
X11345000Y-9905000D02*
X11375000Y-9935000D01*
X11375000Y-9905000D02*
X11345000Y-9935000D01*
X11360000Y-9515000D02*
X11390000Y-9545000D01*
X11390000Y-9515000D02*
X11360000Y-9545000D01*
X11360000Y-9740000D02*
X11390000Y-9770000D01*
X11390000Y-9740000D02*
X11360000Y-9770000D01*
X11360000Y-9965000D02*
X11390000Y-9995000D01*
X11390000Y-9965000D02*
X11360000Y-9995000D01*
X11375000Y-9575000D02*
X11405000Y-9605000D01*
X11405000Y-9575000D02*
X11375000Y-9605000D01*
X11375000Y-9800000D02*
X11405000Y-9830000D01*
X11405000Y-9800000D02*
X11375000Y-9830000D01*
X11375000Y-10025000D02*
X11405000Y-10055000D01*
X11405000Y-10025000D02*
X11375000Y-10055000D01*
X11390000Y-9635000D02*
X11420000Y-9665000D01*
X11420000Y-9635000D02*
X11390000Y-9665000D01*
X11390000Y-9860000D02*
X11420000Y-9890000D01*
X11420000Y-9860000D02*
X11390000Y-9890000D01*
X11390000Y-10085000D02*
X11420000Y-10115000D01*
X11420000Y-10085000D02*
X11390000Y-10115000D01*
X11391000Y-10540000D02*
X11421000Y-10570000D01*
X11421000Y-10540000D02*
X11391000Y-10570000D01*
X11392152Y-8882152D02*
X11422152Y-8912152D01*
X11422152Y-8882152D02*
X11392152Y-8912152D01*
X11404000Y-10144000D02*
X11434000Y-10174000D01*
X11434000Y-10144000D02*
X11404000Y-10174000D01*
X11405000Y-9695000D02*
X11435000Y-9725000D01*
X11435000Y-9695000D02*
X11405000Y-9725000D01*
X11405000Y-9920000D02*
X11435000Y-9950000D01*
X11435000Y-9920000D02*
X11405000Y-9950000D01*
X11405500Y-10601000D02*
X11435500Y-10631000D01*
X11435500Y-10601000D02*
X11405500Y-10631000D01*
X11418000Y-10435000D02*
X11448000Y-10465000D01*
X11448000Y-10435000D02*
X11418000Y-10465000D01*
X11419000Y-10203000D02*
X11449000Y-10233000D01*
X11449000Y-10203000D02*
X11419000Y-10233000D01*
X11420000Y-9530000D02*
X11450000Y-9560000D01*
X11450000Y-9530000D02*
X11420000Y-9560000D01*
X11420000Y-9755000D02*
X11450000Y-9785000D01*
X11450000Y-9755000D02*
X11420000Y-9785000D01*
X11420000Y-9980000D02*
X11450000Y-10010000D01*
X11450000Y-9980000D02*
X11420000Y-10010000D01*
X11433000Y-10264000D02*
X11463000Y-10294000D01*
X11463000Y-10264000D02*
X11433000Y-10294000D01*
X11435000Y-9590000D02*
X11465000Y-9620000D01*
X11465000Y-9590000D02*
X11435000Y-9620000D01*
X11435000Y-9815000D02*
X11465000Y-9845000D01*
X11465000Y-9815000D02*
X11435000Y-9845000D01*
X11435000Y-10040000D02*
X11465000Y-10070000D01*
X11465000Y-10040000D02*
X11435000Y-10070000D01*
X11435500Y-10496000D02*
X11465500Y-10526000D01*
X11465500Y-10496000D02*
X11435500Y-10526000D01*
X11447000Y-10326000D02*
X11477000Y-10356000D01*
X11477000Y-10326000D02*
X11447000Y-10356000D01*
X11450000Y-9650000D02*
X11480000Y-9680000D01*
X11480000Y-9650000D02*
X11450000Y-9680000D01*
X11450000Y-9875000D02*
X11480000Y-9905000D01*
X11480000Y-9875000D02*
X11450000Y-9905000D01*
X11450000Y-10100000D02*
X11480000Y-10130000D01*
X11480000Y-10100000D02*
X11450000Y-10130000D01*
X11450500Y-10556000D02*
X11480500Y-10586000D01*
X11480500Y-10556000D02*
X11450500Y-10586000D01*
X11457000Y-9053000D02*
X11487000Y-9083000D01*
X11487000Y-9053000D02*
X11457000Y-9083000D01*
X11462000Y-10389000D02*
X11492000Y-10419000D01*
X11492000Y-10389000D02*
X11462000Y-10419000D01*
X11465000Y-9710000D02*
X11495000Y-9740000D01*
X11495000Y-9710000D02*
X11465000Y-9740000D01*
X11465000Y-9935000D02*
X11495000Y-9965000D01*
X11495000Y-9935000D02*
X11465000Y-9965000D01*
X11465000Y-10161000D02*
X11495000Y-10191000D01*
X11495000Y-10161000D02*
X11465000Y-10191000D01*
X11465500Y-10616000D02*
X11495500Y-10646000D01*
X11495500Y-10616000D02*
X11465500Y-10646000D01*
X11478000Y-10451000D02*
X11508000Y-10481000D01*
X11508000Y-10451000D02*
X11478000Y-10481000D01*
X11480000Y-9545000D02*
X11510000Y-9575000D01*
X11510000Y-9545000D02*
X11480000Y-9575000D01*
X11480000Y-9770000D02*
X11510000Y-9800000D01*
X11510000Y-9770000D02*
X11480000Y-9800000D01*
X11480000Y-9995000D02*
X11510000Y-10025000D01*
X11510000Y-9995000D02*
X11480000Y-10025000D01*
X11480000Y-10222000D02*
X11510000Y-10252000D01*
X11510000Y-10222000D02*
X11480000Y-10252000D01*
X11480500Y-10676000D02*
X11510500Y-10706000D01*
X11510500Y-10676000D02*
X11480500Y-10706000D01*
X11494000Y-10283000D02*
X11524000Y-10313000D01*
X11524000Y-10283000D02*
X11494000Y-10313000D01*
X11495000Y-9605000D02*
X11525000Y-9635000D01*
X11525000Y-9605000D02*
X11495000Y-9635000D01*
X11495000Y-9830000D02*
X11525000Y-9860000D01*
X11525000Y-9830000D02*
X11495000Y-9860000D01*
X11495500Y-10511000D02*
X11525500Y-10541000D01*
X11525500Y-10511000D02*
X11495500Y-10541000D01*
X11495500Y-10736000D02*
X11525500Y-10766000D01*
X11525500Y-10736000D02*
X11495500Y-10766000D01*
X11496000Y-10057000D02*
X11526000Y-10087000D01*
X11526000Y-10057000D02*
X11496000Y-10087000D01*
X11505000Y-12400000D02*
X11535000Y-12430000D01*
X11535000Y-12400000D02*
X11505000Y-12430000D01*
X11508000Y-10344000D02*
X11538000Y-10374000D01*
X11538000Y-10344000D02*
X11508000Y-10374000D01*
X11510000Y-9665000D02*
X11540000Y-9695000D01*
X11540000Y-9665000D02*
X11510000Y-9695000D01*
X11510500Y-10571000D02*
X11540500Y-10601000D01*
X11540500Y-10571000D02*
X11510500Y-10601000D01*
X11511000Y-10118000D02*
X11541000Y-10148000D01*
X11541000Y-10118000D02*
X11511000Y-10148000D01*
X11523000Y-10406000D02*
X11553000Y-10436000D01*
X11553000Y-10406000D02*
X11523000Y-10436000D01*
X11525500Y-10631000D02*
X11555500Y-10661000D01*
X11555500Y-10631000D02*
X11525500Y-10661000D01*
X11526000Y-10179000D02*
X11556000Y-10209000D01*
X11556000Y-10179000D02*
X11526000Y-10209000D01*
X11538000Y-10466000D02*
X11568000Y-10496000D01*
X11568000Y-10466000D02*
X11538000Y-10496000D01*
X11540000Y-10240000D02*
X11570000Y-10270000D01*
X11570000Y-10240000D02*
X11540000Y-10270000D01*
X11540012Y-8867988D02*
X11570012Y-8897988D01*
X11570012Y-8867988D02*
X11540012Y-8897988D01*
X11540500Y-10691000D02*
X11570500Y-10721000D01*
X11570500Y-10691000D02*
X11540500Y-10721000D01*
X11554000Y-10301000D02*
X11584000Y-10331000D01*
X11584000Y-10301000D02*
X11554000Y-10331000D01*
X11555500Y-10526000D02*
X11585500Y-10556000D01*
X11585500Y-10526000D02*
X11555500Y-10556000D01*
X11555500Y-10751000D02*
X11585500Y-10781000D01*
X11585500Y-10751000D02*
X11555500Y-10781000D01*
X11568000Y-10361000D02*
X11598000Y-10391000D01*
X11598000Y-10361000D02*
X11568000Y-10391000D01*
X11570500Y-10586000D02*
X11600500Y-10616000D01*
X11600500Y-10586000D02*
X11570500Y-10616000D01*
X11578000Y-9190000D02*
X11608000Y-9220000D01*
X11608000Y-9190000D02*
X11578000Y-9220000D01*
X11583000Y-10421000D02*
X11613000Y-10451000D01*
X11613000Y-10421000D02*
X11583000Y-10451000D01*
X11585500Y-10646000D02*
X11615500Y-10676000D01*
X11615500Y-10646000D02*
X11585500Y-10676000D01*
X11598000Y-10481000D02*
X11628000Y-10511000D01*
X11628000Y-10481000D02*
X11598000Y-10511000D01*
X11600500Y-10706000D02*
X11630500Y-10736000D01*
X11630500Y-10706000D02*
X11600500Y-10736000D01*
X11615000Y-10315000D02*
X11645000Y-10345000D01*
X11645000Y-10315000D02*
X11615000Y-10345000D01*
X11615500Y-10541000D02*
X11645500Y-10571000D01*
X11645500Y-10541000D02*
X11615500Y-10571000D01*
X11617000Y-9117000D02*
X11647000Y-9147000D01*
X11647000Y-9117000D02*
X11617000Y-9147000D01*
X11628000Y-10376000D02*
X11658000Y-10406000D01*
X11658000Y-10376000D02*
X11628000Y-10406000D01*
X11630500Y-10601000D02*
X11660500Y-10631000D01*
X11660500Y-10601000D02*
X11630500Y-10631000D01*
X11643000Y-10436000D02*
X11673000Y-10466000D01*
X11673000Y-10436000D02*
X11643000Y-10466000D01*
X11645500Y-10661000D02*
X11675500Y-10691000D01*
X11675500Y-10661000D02*
X11645500Y-10691000D01*
X11659500Y-10497000D02*
X11689500Y-10527000D01*
X11689500Y-10497000D02*
X11659500Y-10527000D01*
X11670000Y-11836900D02*
X11700000Y-11866900D01*
X11700000Y-11836900D02*
X11670000Y-11866900D01*
X11675500Y-10558500D02*
X11705500Y-10588500D01*
X11705500Y-10558500D02*
X11675500Y-10588500D01*
X11687500Y-10393000D02*
X11717500Y-10423000D01*
X11717500Y-10393000D02*
X11687500Y-10423000D01*
X11690500Y-10618500D02*
X11720500Y-10648500D01*
X11720500Y-10618500D02*
X11690500Y-10648500D01*
X11703500Y-10453000D02*
X11733500Y-10483000D01*
X11733500Y-10453000D02*
X11703500Y-10483000D01*
X11707000Y-9163000D02*
X11737000Y-9193000D01*
X11737000Y-9163000D02*
X11707000Y-9193000D01*
X11719500Y-10514000D02*
X11749500Y-10544000D01*
X11749500Y-10514000D02*
X11719500Y-10544000D01*
X12035000Y-11555000D02*
X12065000Y-11585000D01*
X12065000Y-11555000D02*
X12035000Y-11585000D01*
X12060000Y-10255000D02*
X12090000Y-10285000D01*
X12090000Y-10255000D02*
X12060000Y-10285000D01*
X12132045Y-11861269D02*
X12162045Y-11891269D01*
X12162045Y-11861269D02*
X12132045Y-11891269D01*
X12160000Y-14240000D02*
X12190000Y-14270000D01*
X12190000Y-14240000D02*
X12160000Y-14270000D01*
X12175000Y-14300000D02*
X12205000Y-14330000D01*
X12205000Y-14300000D02*
X12175000Y-14330000D01*
X12199000Y-11803269D02*
X12229000Y-11833269D01*
X12229000Y-11803269D02*
X12199000Y-11833269D01*
X12205000Y-14195000D02*
X12235000Y-14225000D01*
X12235000Y-14195000D02*
X12205000Y-14225000D01*
X12220000Y-14255000D02*
X12250000Y-14285000D01*
X12250000Y-14255000D02*
X12220000Y-14285000D01*
X12235000Y-14315000D02*
X12265000Y-14345000D01*
X12265000Y-14315000D02*
X12235000Y-14345000D01*
X12250000Y-14150000D02*
X12280000Y-14180000D01*
X12280000Y-14150000D02*
X12250000Y-14180000D01*
X12265000Y-14210000D02*
X12295000Y-14240000D01*
X12295000Y-14210000D02*
X12265000Y-14240000D01*
X12280000Y-14270000D02*
X12310000Y-14300000D01*
X12310000Y-14270000D02*
X12280000Y-14300000D01*
X12295000Y-14105000D02*
X12325000Y-14135000D01*
X12325000Y-14105000D02*
X12295000Y-14135000D01*
X12310000Y-14165000D02*
X12340000Y-14195000D01*
X12340000Y-14165000D02*
X12310000Y-14195000D01*
X12325000Y-14225000D02*
X12355000Y-14255000D01*
X12355000Y-14225000D02*
X12325000Y-14255000D01*
X12340000Y-14060000D02*
X12370000Y-14090000D01*
X12370000Y-14060000D02*
X12340000Y-14090000D01*
X12355000Y-14120000D02*
X12385000Y-14150000D01*
X12385000Y-14120000D02*
X12355000Y-14150000D01*
X12370000Y-14180000D02*
X12400000Y-14210000D01*
X12400000Y-14180000D02*
X12370000Y-14210000D01*
X12395000Y-10105000D02*
X12425000Y-10135000D01*
X12425000Y-10105000D02*
X12395000Y-10135000D01*
X12395152Y-8685848D02*
X12425152Y-8715848D01*
X12425152Y-8685848D02*
X12395152Y-8715848D01*
X12400000Y-14075000D02*
X12430000Y-14105000D01*
X12430000Y-14075000D02*
X12400000Y-14105000D01*
X12415000Y-14135000D02*
X12445000Y-14165000D01*
X12445000Y-14135000D02*
X12415000Y-14165000D01*
X12434000Y-13470000D02*
X12464000Y-13500000D01*
X12464000Y-13470000D02*
X12434000Y-13500000D01*
X12711937Y-10189063D02*
X12741937Y-10219063D01*
X12741937Y-10189063D02*
X12711937Y-10219063D01*
X12885000Y-9695500D02*
X12915000Y-9725500D01*
X12915000Y-9695500D02*
X12885000Y-9725500D01*
X12925000Y-11065000D02*
X12955000Y-11095000D01*
X12955000Y-11065000D02*
X12925000Y-11095000D01*
X12988000Y-11710000D02*
X13018000Y-11740000D01*
X13018000Y-11710000D02*
X12988000Y-11740000D01*
X13055000Y-8605000D02*
X13085000Y-8635000D01*
X13085000Y-8605000D02*
X13055000Y-8635000D01*
X13076000Y-11710000D02*
X13106000Y-11740000D01*
X13106000Y-11710000D02*
X13076000Y-11740000D01*
X13125000Y-12055000D02*
X13155000Y-12085000D01*
X13155000Y-12055000D02*
X13125000Y-12085000D01*
X13275000Y-10047500D02*
X13305000Y-10077500D01*
X13305000Y-10047500D02*
X13275000Y-10077500D01*
X13275000Y-10152500D02*
X13305000Y-10182500D01*
X13305000Y-10152500D02*
X13275000Y-10182500D01*
X13275000Y-10257500D02*
X13305000Y-10287500D01*
X13305000Y-10257500D02*
X13275000Y-10287500D01*
X13305000Y-9995000D02*
X13335000Y-10025000D01*
X13335000Y-9995000D02*
X13305000Y-10025000D01*
X13305000Y-10100000D02*
X13335000Y-10130000D01*
X13335000Y-10100000D02*
X13305000Y-10130000D01*
X13305000Y-10205000D02*
X13335000Y-10235000D01*
X13335000Y-10205000D02*
X13305000Y-10235000D01*
X13305000Y-10310000D02*
X13335000Y-10340000D01*
X13335000Y-10310000D02*
X13305000Y-10340000D01*
X13309547Y-13560453D02*
X13339547Y-13590453D01*
X13339547Y-13560453D02*
X13309547Y-13590453D01*
X13325000Y-9045000D02*
X13355000Y-9075000D01*
X13355000Y-9045000D02*
X13325000Y-9075000D01*
X13335000Y-10047500D02*
X13365000Y-10077500D01*
X13365000Y-10047500D02*
X13335000Y-10077500D01*
X13335000Y-10152500D02*
X13365000Y-10182500D01*
X13365000Y-10152500D02*
X13335000Y-10182500D01*
X13335000Y-10257500D02*
X13365000Y-10287500D01*
X13365000Y-10257500D02*
X13335000Y-10287500D01*
X13365000Y-9995000D02*
X13395000Y-10025000D01*
X13395000Y-9995000D02*
X13365000Y-10025000D01*
X13365000Y-10100000D02*
X13395000Y-10130000D01*
X13395000Y-10100000D02*
X13365000Y-10130000D01*
X13365000Y-10205000D02*
X13395000Y-10235000D01*
X13395000Y-10205000D02*
X13365000Y-10235000D01*
X13365000Y-10310000D02*
X13395000Y-10340000D01*
X13395000Y-10310000D02*
X13365000Y-10340000D01*
X13373000Y-12489000D02*
X13403000Y-12519000D01*
X13403000Y-12489000D02*
X13373000Y-12519000D01*
X13395000Y-10047500D02*
X13425000Y-10077500D01*
X13425000Y-10047500D02*
X13395000Y-10077500D01*
X13395000Y-10152500D02*
X13425000Y-10182500D01*
X13425000Y-10152500D02*
X13395000Y-10182500D01*
X13395000Y-10257500D02*
X13425000Y-10287500D01*
X13425000Y-10257500D02*
X13395000Y-10287500D01*
X13537228Y-13568754D02*
X13567228Y-13598754D01*
X13567228Y-13568754D02*
X13537228Y-13598754D01*
X13538100Y-12518754D02*
X13568100Y-12548754D01*
X13568100Y-12518754D02*
X13538100Y-12548754D01*
X13538100Y-12868754D02*
X13568100Y-12898754D01*
X13568100Y-12868754D02*
X13538100Y-12898754D01*
X13538100Y-13218754D02*
X13568100Y-13248754D01*
X13568100Y-13218754D02*
X13538100Y-13248754D01*
X13580000Y-14148125D02*
X13610000Y-14178125D01*
X13610000Y-14148125D02*
X13580000Y-14178125D01*
X13580000Y-14218125D02*
X13610000Y-14248125D01*
X13610000Y-14218125D02*
X13580000Y-14248125D01*
X13580000Y-14288125D02*
X13610000Y-14318125D01*
X13610000Y-14288125D02*
X13580000Y-14318125D01*
X13655000Y-14148125D02*
X13685000Y-14178125D01*
X13685000Y-14148125D02*
X13655000Y-14178125D01*
X13655000Y-14218125D02*
X13685000Y-14248125D01*
X13685000Y-14218125D02*
X13655000Y-14248125D01*
X13655000Y-14288125D02*
X13685000Y-14318125D01*
X13685000Y-14288125D02*
X13655000Y-14318125D01*
X13710000Y-9215000D02*
X13740000Y-9245000D01*
X13740000Y-9215000D02*
X13710000Y-9245000D01*
X13758100Y-12418754D02*
X13788100Y-12448754D01*
X13788100Y-12418754D02*
X13758100Y-12448754D01*
X13758100Y-12768754D02*
X13788100Y-12798754D01*
X13788100Y-12768754D02*
X13758100Y-12798754D01*
X13758100Y-13118754D02*
X13788100Y-13148754D01*
X13788100Y-13118754D02*
X13758100Y-13148754D01*
X13758100Y-13468754D02*
X13788100Y-13498754D01*
X13788100Y-13468754D02*
X13758100Y-13498754D01*
X13758600Y-13216229D02*
X13788600Y-13246229D01*
X13788600Y-13216229D02*
X13758600Y-13246229D01*
X13758600Y-12863663D02*
X13788600Y-12893663D01*
X13788600Y-12863663D02*
X13758600Y-12893663D01*
X13779187Y-9380404D02*
X13809187Y-9410404D01*
X13809187Y-9380404D02*
X13779187Y-9410404D01*
X13857000Y-9375000D02*
X13887000Y-9405000D01*
X13887000Y-9375000D02*
X13857000Y-9405000D01*
X13910000Y-12760000D02*
X13940000Y-12790000D01*
X13940000Y-12760000D02*
X13910000Y-12790000D01*
X13958100Y-12518754D02*
X13988100Y-12548754D01*
X13988100Y-12518754D02*
X13958100Y-12548754D01*
X13958100Y-12918754D02*
X13988100Y-12948754D01*
X13988100Y-12918754D02*
X13958100Y-12948754D01*
X13958100Y-13568754D02*
X13988100Y-13598754D01*
X13988100Y-13568754D02*
X13958100Y-13598754D01*
X13984000Y-9363000D02*
X14014000Y-9393000D01*
X14014000Y-9363000D02*
X13984000Y-9393000D01*
X14020000Y-13925000D02*
X14050000Y-13955000D01*
X14050000Y-13925000D02*
X14020000Y-13955000D01*
X14165000Y-11685000D02*
X14195000Y-11715000D01*
X14195000Y-11685000D02*
X14165000Y-11715000D01*
X14170000Y-9360000D02*
X14200000Y-9390000D01*
X14200000Y-9360000D02*
X14170000Y-9390000D01*
X14198100Y-12818754D02*
X14228100Y-12848754D01*
X14228100Y-12818754D02*
X14198100Y-12848754D01*
X14198100Y-13168754D02*
X14228100Y-13198754D01*
X14228100Y-13168754D02*
X14198100Y-13198754D01*
X14198100Y-13518754D02*
X14228100Y-13548754D01*
X14228100Y-13518754D02*
X14198100Y-13548754D01*
X14203100Y-12488754D02*
X14233100Y-12518754D01*
X14233100Y-12488754D02*
X14203100Y-12518754D01*
X14236875Y-14050000D02*
X14266875Y-14080000D01*
X14266875Y-14050000D02*
X14236875Y-14080000D01*
X14236875Y-14125000D02*
X14266875Y-14155000D01*
X14266875Y-14125000D02*
X14236875Y-14155000D01*
X14250000Y-11685000D02*
X14280000Y-11715000D01*
X14280000Y-11685000D02*
X14250000Y-11715000D01*
X14275000Y-8955000D02*
X14305000Y-8985000D01*
X14305000Y-8955000D02*
X14275000Y-8985000D01*
X14275927Y-13010927D02*
X14305927Y-13040927D01*
X14305927Y-13010927D02*
X14275927Y-13040927D01*
X14277500Y-13112500D02*
X14307500Y-13142500D01*
X14307500Y-13112500D02*
X14277500Y-13142500D01*
X14306875Y-14050000D02*
X14336875Y-14080000D01*
X14336875Y-14050000D02*
X14306875Y-14080000D01*
X14306875Y-14125000D02*
X14336875Y-14155000D01*
X14336875Y-14125000D02*
X14306875Y-14155000D01*
X14320000Y-11580000D02*
X14350000Y-11610000D01*
X14350000Y-11580000D02*
X14320000Y-11610000D01*
X14332027Y-11682921D02*
X14362027Y-11712921D01*
X14362027Y-11682921D02*
X14332027Y-11712921D01*
X14335000Y-9705000D02*
X14365000Y-9735000D01*
X14365000Y-9705000D02*
X14335000Y-9735000D01*
X14376875Y-14050000D02*
X14406875Y-14080000D01*
X14406875Y-14050000D02*
X14376875Y-14080000D01*
X14376875Y-14125000D02*
X14406875Y-14155000D01*
X14406875Y-14125000D02*
X14376875Y-14155000D01*
X14410000Y-11685000D02*
X14440000Y-11715000D01*
X14440000Y-11685000D02*
X14410000Y-11715000D01*
X14446900Y-12505000D02*
X14476900Y-12535000D01*
X14476900Y-12505000D02*
X14446900Y-12535000D01*
X14467000Y-12595000D02*
X14497000Y-12625000D01*
X14497000Y-12595000D02*
X14467000Y-12625000D01*
X14515000Y-9570000D02*
X14545000Y-9600000D01*
X14545000Y-9570000D02*
X14515000Y-9600000D01*
X14530000Y-12430000D02*
X14560000Y-12460000D01*
X14560000Y-12430000D02*
X14530000Y-12460000D01*
X14535000Y-10695000D02*
X14565000Y-10725000D01*
X14565000Y-10695000D02*
X14535000Y-10725000D01*
X14545000Y-12000800D02*
X14575000Y-12030800D01*
X14575000Y-12000800D02*
X14545000Y-12030800D01*
X14640000Y-11985000D02*
X14670000Y-12015000D01*
X14670000Y-11985000D02*
X14640000Y-12015000D01*
X14703500Y-12886500D02*
X14733500Y-12916500D01*
X14733500Y-12886500D02*
X14703500Y-12916500D01*
X14705000Y-12392500D02*
X14735000Y-12422500D01*
X14735000Y-12392500D02*
X14705000Y-12422500D01*
X14705106Y-12585106D02*
X14735106Y-12615106D01*
X14735106Y-12585106D02*
X14705106Y-12615106D01*
X14740000Y-11440000D02*
X14770000Y-11470000D01*
X14770000Y-11440000D02*
X14740000Y-11470000D01*
X14815000Y-12400000D02*
X14845000Y-12430000D01*
X14845000Y-12400000D02*
X14815000Y-12430000D01*
X14835000Y-10695000D02*
X14865000Y-10725000D01*
X14865000Y-10695000D02*
X14835000Y-10725000D01*
X14865000Y-9785000D02*
X14895000Y-9815000D01*
X14895000Y-9785000D02*
X14865000Y-9815000D01*
X14865000Y-9865000D02*
X14895000Y-9895000D01*
X14895000Y-9865000D02*
X14865000Y-9895000D01*
X14875000Y-12744500D02*
X14905000Y-12774500D01*
X14905000Y-12744500D02*
X14875000Y-12774500D01*
X14926875Y-14050000D02*
X14956875Y-14080000D01*
X14956875Y-14050000D02*
X14926875Y-14080000D01*
X14926875Y-14125000D02*
X14956875Y-14155000D01*
X14956875Y-14125000D02*
X14926875Y-14155000D01*
X14935000Y-11700000D02*
X14965000Y-11730000D01*
X14965000Y-11700000D02*
X14935000Y-11730000D01*
X14945000Y-9785000D02*
X14975000Y-9815000D01*
X14975000Y-9785000D02*
X14945000Y-9815000D01*
X14945000Y-9865000D02*
X14975000Y-9895000D01*
X14975000Y-9865000D02*
X14945000Y-9895000D01*
X14996875Y-14050000D02*
X15026875Y-14080000D01*
X15026875Y-14050000D02*
X14996875Y-14080000D01*
X14996875Y-14125000D02*
X15026875Y-14155000D01*
X15026875Y-14125000D02*
X14996875Y-14155000D01*
X15000000Y-11398750D02*
X15030000Y-11428750D01*
X15030000Y-11398750D02*
X15000000Y-11428750D01*
X15025000Y-9785000D02*
X15055000Y-9815000D01*
X15055000Y-9785000D02*
X15025000Y-9815000D01*
X15025000Y-9865000D02*
X15055000Y-9895000D01*
X15055000Y-9865000D02*
X15025000Y-9895000D01*
X15065000Y-11448750D02*
X15095000Y-11478750D01*
X15095000Y-11448750D02*
X15065000Y-11478750D01*
X15066875Y-14050000D02*
X15096875Y-14080000D01*
X15096875Y-14050000D02*
X15066875Y-14080000D01*
X15066875Y-14125000D02*
X15096875Y-14155000D01*
X15096875Y-14125000D02*
X15066875Y-14155000D01*
X15105000Y-9785000D02*
X15135000Y-9815000D01*
X15135000Y-9785000D02*
X15105000Y-9815000D01*
X15105000Y-9865000D02*
X15135000Y-9895000D01*
X15135000Y-9865000D02*
X15105000Y-9895000D01*
X15130000Y-9013200D02*
X15160000Y-9043200D01*
X15160000Y-9013200D02*
X15130000Y-9043200D01*
X15130000Y-11398750D02*
X15160000Y-11428750D01*
X15160000Y-11398750D02*
X15130000Y-11428750D01*
X15135000Y-10695000D02*
X15165000Y-10725000D01*
X15165000Y-10695000D02*
X15135000Y-10725000D01*
X15155000Y-13310000D02*
X15185000Y-13340000D01*
X15185000Y-13310000D02*
X15155000Y-13340000D01*
X15160000Y-13410000D02*
X15190000Y-13440000D01*
X15190000Y-13410000D02*
X15160000Y-13440000D01*
X15185000Y-9785000D02*
X15215000Y-9815000D01*
X15215000Y-9785000D02*
X15185000Y-9815000D01*
X15185000Y-9865000D02*
X15215000Y-9895000D01*
X15215000Y-9865000D02*
X15185000Y-9895000D01*
X15195000Y-11448750D02*
X15225000Y-11478750D01*
X15225000Y-11448750D02*
X15195000Y-11478750D01*
X15257000Y-13047164D02*
X15287000Y-13077164D01*
X15287000Y-13047164D02*
X15257000Y-13077164D01*
X15260000Y-11398750D02*
X15290000Y-11428750D01*
X15290000Y-11398750D02*
X15260000Y-11428750D01*
X15265000Y-9785000D02*
X15295000Y-9815000D01*
X15295000Y-9785000D02*
X15265000Y-9815000D01*
X15265000Y-9865000D02*
X15295000Y-9895000D01*
X15295000Y-9865000D02*
X15265000Y-9895000D01*
X15310000Y-12745000D02*
X15340000Y-12775000D01*
X15340000Y-12745000D02*
X15310000Y-12775000D01*
X15325000Y-11448750D02*
X15355000Y-11478750D01*
X15355000Y-11448750D02*
X15325000Y-11478750D01*
X15345000Y-9785000D02*
X15375000Y-9815000D01*
X15375000Y-9785000D02*
X15345000Y-9815000D01*
X15345000Y-9865000D02*
X15375000Y-9895000D01*
X15375000Y-9865000D02*
X15345000Y-9895000D01*
X15350000Y-13145000D02*
X15380000Y-13175000D01*
X15380000Y-13145000D02*
X15350000Y-13175000D01*
X15385000Y-13047164D02*
X15415000Y-13077164D01*
X15415000Y-13047164D02*
X15385000Y-13077164D01*
X15390000Y-11398750D02*
X15420000Y-11428750D01*
X15420000Y-11398750D02*
X15390000Y-11428750D01*
X15425000Y-9785000D02*
X15455000Y-9815000D01*
X15455000Y-9785000D02*
X15425000Y-9815000D01*
X15425000Y-9865000D02*
X15455000Y-9895000D01*
X15455000Y-9865000D02*
X15425000Y-9895000D01*
X15435000Y-10695000D02*
X15465000Y-10725000D01*
X15465000Y-10695000D02*
X15435000Y-10725000D01*
X15455000Y-11448750D02*
X15485000Y-11478750D01*
X15485000Y-11448750D02*
X15455000Y-11478750D01*
X15574500Y-13025000D02*
X15604500Y-13055000D01*
X15604500Y-13025000D02*
X15574500Y-13055000D01*
X15582000Y-12075000D02*
X15612000Y-12105000D01*
X15612000Y-12075000D02*
X15582000Y-12105000D01*
X15616875Y-14045000D02*
X15646875Y-14075000D01*
X15646875Y-14045000D02*
X15616875Y-14075000D01*
X15616875Y-14120000D02*
X15646875Y-14150000D01*
X15646875Y-14120000D02*
X15616875Y-14150000D01*
X15638000Y-12735000D02*
X15668000Y-12765000D01*
X15668000Y-12735000D02*
X15638000Y-12765000D01*
X15675485Y-13765485D02*
X15705485Y-13795485D01*
X15705485Y-13765485D02*
X15675485Y-13795485D01*
X15686875Y-14045000D02*
X15716875Y-14075000D01*
X15716875Y-14045000D02*
X15686875Y-14075000D01*
X15686875Y-14120000D02*
X15716875Y-14150000D01*
X15716875Y-14120000D02*
X15686875Y-14150000D01*
X15701500Y-12785000D02*
X15731500Y-12815000D01*
X15731500Y-12785000D02*
X15701500Y-12815000D01*
X15708999Y-12065000D02*
X15738999Y-12095000D01*
X15738999Y-12065000D02*
X15708999Y-12095000D01*
X15740000Y-12545000D02*
X15770000Y-12575000D01*
X15770000Y-12545000D02*
X15740000Y-12575000D01*
X15745000Y-10705000D02*
X15775000Y-10735000D01*
X15775000Y-10705000D02*
X15745000Y-10735000D01*
X15756875Y-14045000D02*
X15786875Y-14075000D01*
X15786875Y-14045000D02*
X15756875Y-14075000D01*
X15756875Y-14120000D02*
X15786875Y-14150000D01*
X15786875Y-14120000D02*
X15756875Y-14150000D01*
X15765000Y-12735000D02*
X15795000Y-12765000D01*
X15795000Y-12735000D02*
X15765000Y-12765000D01*
X15787000Y-12065000D02*
X15817000Y-12095000D01*
X15817000Y-12065000D02*
X15787000Y-12095000D01*
X15828500Y-12785000D02*
X15858500Y-12815000D01*
X15858500Y-12785000D02*
X15828500Y-12815000D01*
X15830000Y-9525000D02*
X15860000Y-9555000D01*
X15860000Y-9525000D02*
X15830000Y-9555000D01*
X15865000Y-12065000D02*
X15895000Y-12095000D01*
X15895000Y-12065000D02*
X15865000Y-12095000D01*
X15892000Y-12735000D02*
X15922000Y-12765000D01*
X15922000Y-12735000D02*
X15892000Y-12765000D01*
X15945000Y-12065000D02*
X15975000Y-12095000D01*
X15975000Y-12065000D02*
X15945000Y-12095000D01*
X15955500Y-12785000D02*
X15985500Y-12815000D01*
X15985500Y-12785000D02*
X15955500Y-12815000D01*
X16015000Y-9025000D02*
X16045000Y-9055000D01*
X16045000Y-9025000D02*
X16015000Y-9055000D01*
X16015100Y-11688512D02*
X16045100Y-11718512D01*
X16045100Y-11688512D02*
X16015100Y-11718512D01*
X16017500Y-11360000D02*
X16047500Y-11390000D01*
X16047500Y-11360000D02*
X16017500Y-11390000D01*
X16019000Y-12735000D02*
X16049000Y-12765000D01*
X16049000Y-12735000D02*
X16019000Y-12765000D01*
X16045000Y-10705000D02*
X16075000Y-10735000D01*
X16075000Y-10705000D02*
X16045000Y-10735000D01*
X16065000Y-11160000D02*
X16095000Y-11190000D01*
X16095000Y-11160000D02*
X16065000Y-11190000D01*
X16082500Y-12785000D02*
X16112500Y-12815000D01*
X16112500Y-12785000D02*
X16082500Y-12815000D01*
X16135000Y-12015000D02*
X16165000Y-12045000D01*
X16165000Y-12015000D02*
X16135000Y-12045000D01*
X16145000Y-12525000D02*
X16175000Y-12555000D01*
X16175000Y-12525000D02*
X16145000Y-12555000D01*
X16180000Y-11660000D02*
X16210000Y-11690000D01*
X16210000Y-11660000D02*
X16180000Y-11690000D01*
X16182500Y-11310000D02*
X16212500Y-11340000D01*
X16212500Y-11310000D02*
X16182500Y-11340000D01*
X16190000Y-11515000D02*
X16220000Y-11545000D01*
X16220000Y-11515000D02*
X16190000Y-11545000D01*
X16296946Y-12585000D02*
X16326946Y-12615000D01*
X16326946Y-12585000D02*
X16296946Y-12615000D01*
X16296946Y-12940000D02*
X16326946Y-12970000D01*
X16326946Y-12940000D02*
X16296946Y-12970000D01*
X16306875Y-14050000D02*
X16336875Y-14080000D01*
X16336875Y-14050000D02*
X16306875Y-14080000D01*
X16306875Y-14125000D02*
X16336875Y-14155000D01*
X16336875Y-14125000D02*
X16306875Y-14155000D01*
X16345000Y-10705000D02*
X16375000Y-10735000D01*
X16375000Y-10705000D02*
X16345000Y-10735000D01*
X16376875Y-14050000D02*
X16406875Y-14080000D01*
X16406875Y-14050000D02*
X16376875Y-14080000D01*
X16376875Y-14125000D02*
X16406875Y-14155000D01*
X16406875Y-14125000D02*
X16376875Y-14155000D01*
X16425000Y-12060000D02*
X16455000Y-12090000D01*
X16455000Y-12060000D02*
X16425000Y-12090000D01*
X16432500Y-13125000D02*
X16462500Y-13155000D01*
X16462500Y-13125000D02*
X16432500Y-13155000D01*
X16435000Y-12415000D02*
X16465000Y-12445000D01*
X16465000Y-12415000D02*
X16435000Y-12445000D01*
X16437500Y-12770000D02*
X16467500Y-12800000D01*
X16467500Y-12770000D02*
X16437500Y-12800000D01*
X16446875Y-14050000D02*
X16476875Y-14080000D01*
X16476875Y-14050000D02*
X16446875Y-14080000D01*
X16446875Y-14125000D02*
X16476875Y-14155000D01*
X16476875Y-14125000D02*
X16446875Y-14155000D01*
X16485000Y-11280000D02*
X16515000Y-11310000D01*
X16515000Y-11280000D02*
X16485000Y-11310000D01*
X16495500Y-12550000D02*
X16525500Y-12580000D01*
X16525500Y-12550000D02*
X16495500Y-12580000D01*
X16500000Y-11702000D02*
X16530000Y-11732000D01*
X16530000Y-11702000D02*
X16500000Y-11732000D01*
X16605000Y-11702000D02*
X16635000Y-11732000D01*
X16635000Y-11702000D02*
X16605000Y-11732000D01*
X16605000Y-12010000D02*
X16635000Y-12040000D01*
X16635000Y-12010000D02*
X16605000Y-12040000D01*
X16605000Y-12365000D02*
X16635000Y-12395000D01*
X16635000Y-12365000D02*
X16605000Y-12395000D01*
X16605000Y-12720000D02*
X16635000Y-12750000D01*
X16635000Y-12720000D02*
X16605000Y-12750000D01*
X16605000Y-13075000D02*
X16635000Y-13105000D01*
X16635000Y-13075000D02*
X16605000Y-13105000D01*
X16606946Y-12630000D02*
X16636946Y-12660000D01*
X16636946Y-12630000D02*
X16606946Y-12660000D01*
X16635000Y-11570000D02*
X16665000Y-11600000D01*
X16665000Y-11570000D02*
X16635000Y-11600000D01*
X16750000Y-11575000D02*
X16780000Y-11605000D01*
X16780000Y-11575000D02*
X16750000Y-11605000D01*
X16838988Y-11558988D02*
X16868988Y-11588988D01*
X16868988Y-11558988D02*
X16838988Y-11588988D01*
X16850000Y-9420000D02*
X16880000Y-9450000D01*
X16880000Y-9420000D02*
X16850000Y-9450000D01*
X16990000Y-11407500D02*
X17020000Y-11437500D01*
X17020000Y-11407500D02*
X16990000Y-11437500D01*
X16996875Y-14045000D02*
X17026875Y-14075000D01*
X17026875Y-14045000D02*
X16996875Y-14075000D01*
X16996875Y-14120000D02*
X17026875Y-14150000D01*
X17026875Y-14120000D02*
X16996875Y-14150000D01*
X17012900Y-12481398D02*
X17042900Y-12511398D01*
X17042900Y-12481398D02*
X17012900Y-12511398D01*
X17012900Y-12559398D02*
X17042900Y-12589398D01*
X17042900Y-12559398D02*
X17012900Y-12589398D01*
X17013462Y-12231438D02*
X17043462Y-12261438D01*
X17043462Y-12231438D02*
X17013462Y-12261438D01*
X17017083Y-12153522D02*
X17047083Y-12183522D01*
X17047083Y-12153522D02*
X17017083Y-12183522D01*
X17020000Y-11355000D02*
X17050000Y-11385000D01*
X17050000Y-11355000D02*
X17020000Y-11385000D01*
X17020000Y-11460000D02*
X17050000Y-11490000D01*
X17050000Y-11460000D02*
X17020000Y-11490000D01*
X17050000Y-11407500D02*
X17080000Y-11437500D01*
X17080000Y-11407500D02*
X17050000Y-11437500D01*
X17057461Y-12021003D02*
X17087461Y-12051003D01*
X17087461Y-12021003D02*
X17057461Y-12051003D01*
X17065000Y-12905000D02*
X17095000Y-12935000D01*
X17095000Y-12905000D02*
X17065000Y-12935000D01*
X17066875Y-14045000D02*
X17096875Y-14075000D01*
X17096875Y-14045000D02*
X17066875Y-14075000D01*
X17066875Y-14120000D02*
X17096875Y-14150000D01*
X17096875Y-14120000D02*
X17066875Y-14150000D01*
X17075000Y-11945000D02*
X17105000Y-11975000D01*
X17105000Y-11945000D02*
X17075000Y-11975000D01*
X17080000Y-11355000D02*
X17110000Y-11385000D01*
X17110000Y-11355000D02*
X17080000Y-11385000D01*
X17080000Y-11460000D02*
X17110000Y-11490000D01*
X17110000Y-11460000D02*
X17080000Y-11490000D01*
X17087681Y-12339082D02*
X17117681Y-12369082D01*
X17117681Y-12339082D02*
X17087681Y-12369082D01*
X17094178Y-12117800D02*
X17124178Y-12147800D01*
X17124178Y-12117800D02*
X17094178Y-12147800D01*
X17110000Y-11407500D02*
X17140000Y-11437500D01*
X17140000Y-11407500D02*
X17110000Y-11437500D01*
X17130000Y-10935000D02*
X17160000Y-10965000D01*
X17160000Y-10935000D02*
X17130000Y-10965000D01*
X17136875Y-14045000D02*
X17166875Y-14075000D01*
X17166875Y-14045000D02*
X17136875Y-14075000D01*
X17136875Y-14120000D02*
X17166875Y-14150000D01*
X17166875Y-14120000D02*
X17136875Y-14150000D01*
X17140000Y-11355000D02*
X17170000Y-11385000D01*
X17170000Y-11355000D02*
X17140000Y-11385000D01*
X17140000Y-11460000D02*
X17170000Y-11490000D01*
X17170000Y-11460000D02*
X17140000Y-11490000D01*
X17146193Y-12272000D02*
X17176193Y-12302000D01*
X17176193Y-12272000D02*
X17146193Y-12302000D01*
X17151747Y-12388000D02*
X17181747Y-12418000D01*
X17181747Y-12388000D02*
X17151747Y-12418000D01*
X17154612Y-12548966D02*
X17184612Y-12578966D01*
X17184612Y-12548966D02*
X17154612Y-12578966D01*
X17170000Y-11407500D02*
X17200000Y-11437500D01*
X17200000Y-11407500D02*
X17170000Y-11437500D01*
X17182000Y-12622000D02*
X17212000Y-12652000D01*
X17212000Y-12622000D02*
X17182000Y-12652000D01*
X17395000Y-10485000D02*
X17425000Y-10515000D01*
X17425000Y-10485000D02*
X17395000Y-10515000D01*
X17400000Y-10675000D02*
X17430000Y-10705000D01*
X17430000Y-10675000D02*
X17400000Y-10705000D01*
X17415000Y-10850000D02*
X17445000Y-10880000D01*
X17445000Y-10850000D02*
X17415000Y-10880000D01*
X17425000Y-10432500D02*
X17455000Y-10462500D01*
X17455000Y-10432500D02*
X17425000Y-10462500D01*
X17430000Y-10622500D02*
X17460000Y-10652500D01*
X17460000Y-10622500D02*
X17430000Y-10652500D01*
X17445000Y-10797500D02*
X17475000Y-10827500D01*
X17475000Y-10797500D02*
X17445000Y-10827500D01*
X17455000Y-10485000D02*
X17485000Y-10515000D01*
X17485000Y-10485000D02*
X17455000Y-10515000D01*
X17460000Y-10675000D02*
X17490000Y-10705000D01*
X17490000Y-10675000D02*
X17460000Y-10705000D01*
X17470000Y-11075000D02*
X17500000Y-11105000D01*
X17500000Y-11075000D02*
X17470000Y-11105000D01*
X17470000Y-11180000D02*
X17500000Y-11210000D01*
X17500000Y-11180000D02*
X17470000Y-11210000D01*
X17470000Y-11285000D02*
X17500000Y-11315000D01*
X17500000Y-11285000D02*
X17470000Y-11315000D01*
X17475000Y-10850000D02*
X17505000Y-10880000D01*
X17505000Y-10850000D02*
X17475000Y-10880000D01*
X17485000Y-10432500D02*
X17515000Y-10462500D01*
X17515000Y-10432500D02*
X17485000Y-10462500D01*
X17490000Y-10622500D02*
X17520000Y-10652500D01*
X17520000Y-10622500D02*
X17490000Y-10652500D01*
X17500000Y-11022500D02*
X17530000Y-11052500D01*
X17530000Y-11022500D02*
X17500000Y-11052500D01*
X17500000Y-11127500D02*
X17530000Y-11157500D01*
X17530000Y-11127500D02*
X17500000Y-11157500D01*
X17500000Y-11232500D02*
X17530000Y-11262500D01*
X17530000Y-11232500D02*
X17500000Y-11262500D01*
X17500000Y-11337500D02*
X17530000Y-11367500D01*
X17530000Y-11337500D02*
X17500000Y-11367500D01*
X17505000Y-10797500D02*
X17535000Y-10827500D01*
X17535000Y-10797500D02*
X17505000Y-10827500D01*
X17515000Y-10485000D02*
X17545000Y-10515000D01*
X17545000Y-10485000D02*
X17515000Y-10515000D01*
X17520000Y-10675000D02*
X17550000Y-10705000D01*
X17550000Y-10675000D02*
X17520000Y-10705000D01*
X17530000Y-11075000D02*
X17560000Y-11105000D01*
X17560000Y-11075000D02*
X17530000Y-11105000D01*
X17530000Y-11180000D02*
X17560000Y-11210000D01*
X17560000Y-11180000D02*
X17530000Y-11210000D01*
X17530000Y-11285000D02*
X17560000Y-11315000D01*
X17560000Y-11285000D02*
X17530000Y-11315000D01*
X17535000Y-10850000D02*
X17565000Y-10880000D01*
X17565000Y-10850000D02*
X17535000Y-10880000D01*
X17545000Y-10432500D02*
X17575000Y-10462500D01*
X17575000Y-10432500D02*
X17545000Y-10462500D01*
X17550000Y-10622500D02*
X17580000Y-10652500D01*
X17580000Y-10622500D02*
X17550000Y-10652500D01*
X17560000Y-11022500D02*
X17590000Y-11052500D01*
X17590000Y-11022500D02*
X17560000Y-11052500D01*
X17560000Y-11127500D02*
X17590000Y-11157500D01*
X17590000Y-11127500D02*
X17560000Y-11157500D01*
X17560000Y-11232500D02*
X17590000Y-11262500D01*
X17590000Y-11232500D02*
X17560000Y-11262500D01*
X17560000Y-11337500D02*
X17590000Y-11367500D01*
X17590000Y-11337500D02*
X17560000Y-11367500D01*
X17565000Y-10797500D02*
X17595000Y-10827500D01*
X17595000Y-10797500D02*
X17565000Y-10827500D01*
X17575000Y-10485000D02*
X17605000Y-10515000D01*
X17605000Y-10485000D02*
X17575000Y-10515000D01*
X17580000Y-10675000D02*
X17610000Y-10705000D01*
X17610000Y-10675000D02*
X17580000Y-10705000D01*
X17585000Y-9955000D02*
X17615000Y-9985000D01*
X17615000Y-9955000D02*
X17585000Y-9985000D01*
X17585000Y-10060000D02*
X17615000Y-10090000D01*
X17615000Y-10060000D02*
X17585000Y-10090000D01*
X17585000Y-10165000D02*
X17615000Y-10195000D01*
X17615000Y-10165000D02*
X17585000Y-10195000D01*
X17590000Y-11075000D02*
X17620000Y-11105000D01*
X17620000Y-11075000D02*
X17590000Y-11105000D01*
X17590000Y-11180000D02*
X17620000Y-11210000D01*
X17620000Y-11180000D02*
X17590000Y-11210000D01*
X17590000Y-11285000D02*
X17620000Y-11315000D01*
X17620000Y-11285000D02*
X17590000Y-11315000D01*
X17595000Y-10850000D02*
X17625000Y-10880000D01*
X17625000Y-10850000D02*
X17595000Y-10880000D01*
X17605000Y-8465000D02*
X17635000Y-8495000D01*
X17635000Y-8465000D02*
X17605000Y-8495000D01*
X17605000Y-10432500D02*
X17635000Y-10462500D01*
X17635000Y-10432500D02*
X17605000Y-10462500D01*
X17610000Y-10622500D02*
X17640000Y-10652500D01*
X17640000Y-10622500D02*
X17610000Y-10652500D01*
X17615000Y-9902500D02*
X17645000Y-9932500D01*
X17645000Y-9902500D02*
X17615000Y-9932500D01*
X17615000Y-10007500D02*
X17645000Y-10037500D01*
X17645000Y-10007500D02*
X17615000Y-10037500D01*
X17615000Y-10112500D02*
X17645000Y-10142500D01*
X17645000Y-10112500D02*
X17615000Y-10142500D01*
X17615000Y-10217500D02*
X17645000Y-10247500D01*
X17645000Y-10217500D02*
X17615000Y-10247500D01*
X17625000Y-10797500D02*
X17655000Y-10827500D01*
X17655000Y-10797500D02*
X17625000Y-10827500D01*
X17627100Y-11820000D02*
X17657100Y-11850000D01*
X17657100Y-11820000D02*
X17627100Y-11850000D01*
X17645000Y-9955000D02*
X17675000Y-9985000D01*
X17675000Y-9955000D02*
X17645000Y-9985000D01*
X17645000Y-10060000D02*
X17675000Y-10090000D01*
X17675000Y-10060000D02*
X17645000Y-10090000D01*
X17645000Y-10165000D02*
X17675000Y-10195000D01*
X17675000Y-10165000D02*
X17645000Y-10195000D01*
X17675000Y-9902500D02*
X17705000Y-9932500D01*
X17705000Y-9902500D02*
X17675000Y-9932500D01*
X17675000Y-10007500D02*
X17705000Y-10037500D01*
X17705000Y-10007500D02*
X17675000Y-10037500D01*
X17675000Y-10112500D02*
X17705000Y-10142500D01*
X17705000Y-10112500D02*
X17675000Y-10142500D01*
X17675000Y-10217500D02*
X17705000Y-10247500D01*
X17705000Y-10217500D02*
X17675000Y-10247500D01*
X17705000Y-9955000D02*
X17735000Y-9985000D01*
X17735000Y-9955000D02*
X17705000Y-9985000D01*
X17705000Y-10060000D02*
X17735000Y-10090000D01*
X17735000Y-10060000D02*
X17705000Y-10090000D01*
X17705000Y-10165000D02*
X17735000Y-10195000D01*
X17735000Y-10165000D02*
X17705000Y-10195000D01*
X10910000Y-8920000D02*
G75*
G02*
X10880000Y-8920000I-15000J0D01*
G01*
X10880000Y-8920000D02*
G75*
G02*
X10910000Y-8920000I15000J0D01*
G01*
X10910000Y-9050000D02*
G75*
G02*
X10880000Y-9050000I-15000J0D01*
G01*
X10880000Y-9050000D02*
G75*
G02*
X10910000Y-9050000I15000J0D01*
G01*
X10910000Y-9180000D02*
G75*
G02*
X10880000Y-9180000I-15000J0D01*
G01*
X10880000Y-9180000D02*
G75*
G02*
X10910000Y-9180000I15000J0D01*
G01*
X10910000Y-9310000D02*
G75*
G02*
X10880000Y-9310000I-15000J0D01*
G01*
X10880000Y-9310000D02*
G75*
G02*
X10910000Y-9310000I15000J0D01*
G01*
X11040000Y-8920000D02*
G75*
G02*
X11010000Y-8920000I-15000J0D01*
G01*
X11010000Y-8920000D02*
G75*
G02*
X11040000Y-8920000I15000J0D01*
G01*
X11040000Y-9050000D02*
G75*
G02*
X11010000Y-9050000I-15000J0D01*
G01*
X11010000Y-9050000D02*
G75*
G02*
X11040000Y-9050000I15000J0D01*
G01*
X11040000Y-9180000D02*
G75*
G02*
X11010000Y-9180000I-15000J0D01*
G01*
X11010000Y-9180000D02*
G75*
G02*
X11040000Y-9180000I15000J0D01*
G01*
X11040000Y-9310000D02*
G75*
G02*
X11010000Y-9310000I-15000J0D01*
G01*
X11010000Y-9310000D02*
G75*
G02*
X11040000Y-9310000I15000J0D01*
G01*
X11999250Y-10805500D02*
G75*
G02*
X11969250Y-10805500I-15000J0D01*
G01*
X11969250Y-10805500D02*
G75*
G02*
X11999250Y-10805500I15000J0D01*
G01*
X11999250Y-10935500D02*
G75*
G02*
X11969250Y-10935500I-15000J0D01*
G01*
X11969250Y-10935500D02*
G75*
G02*
X11999250Y-10935500I15000J0D01*
G01*
X11999250Y-11065500D02*
G75*
G02*
X11969250Y-11065500I-15000J0D01*
G01*
X11969250Y-11065500D02*
G75*
G02*
X11999250Y-11065500I15000J0D01*
G01*
X11999250Y-11195500D02*
G75*
G02*
X11969250Y-11195500I-15000J0D01*
G01*
X11969250Y-11195500D02*
G75*
G02*
X11999250Y-11195500I15000J0D01*
G01*
X12003375Y-9520500D02*
G75*
G02*
X11973375Y-9520500I-15000J0D01*
G01*
X11973375Y-9520500D02*
G75*
G02*
X12003375Y-9520500I15000J0D01*
G01*
X12003375Y-9650500D02*
G75*
G02*
X11973375Y-9650500I-15000J0D01*
G01*
X11973375Y-9650500D02*
G75*
G02*
X12003375Y-9650500I15000J0D01*
G01*
X12003375Y-9780500D02*
G75*
G02*
X11973375Y-9780500I-15000J0D01*
G01*
X11973375Y-9780500D02*
G75*
G02*
X12003375Y-9780500I15000J0D01*
G01*
X12003375Y-9910500D02*
G75*
G02*
X11973375Y-9910500I-15000J0D01*
G01*
X11973375Y-9910500D02*
G75*
G02*
X12003375Y-9910500I15000J0D01*
G01*
X12129250Y-10805500D02*
G75*
G02*
X12099250Y-10805500I-15000J0D01*
G01*
X12099250Y-10805500D02*
G75*
G02*
X12129250Y-10805500I15000J0D01*
G01*
X12129250Y-10935500D02*
G75*
G02*
X12099250Y-10935500I-15000J0D01*
G01*
X12099250Y-10935500D02*
G75*
G02*
X12129250Y-10935500I15000J0D01*
G01*
X12129250Y-11065500D02*
G75*
G02*
X12099250Y-11065500I-15000J0D01*
G01*
X12099250Y-11065500D02*
G75*
G02*
X12129250Y-11065500I15000J0D01*
G01*
X12129250Y-11195500D02*
G75*
G02*
X12099250Y-11195500I-15000J0D01*
G01*
X12099250Y-11195500D02*
G75*
G02*
X12129250Y-11195500I15000J0D01*
G01*
X12133375Y-9520500D02*
G75*
G02*
X12103375Y-9520500I-15000J0D01*
G01*
X12103375Y-9520500D02*
G75*
G02*
X12133375Y-9520500I15000J0D01*
G01*
X12133375Y-9650500D02*
G75*
G02*
X12103375Y-9650500I-15000J0D01*
G01*
X12103375Y-9650500D02*
G75*
G02*
X12133375Y-9650500I15000J0D01*
G01*
X12133375Y-9780500D02*
G75*
G02*
X12103375Y-9780500I-15000J0D01*
G01*
X12103375Y-9780500D02*
G75*
G02*
X12133375Y-9780500I15000J0D01*
G01*
X12133375Y-9910500D02*
G75*
G02*
X12103375Y-9910500I-15000J0D01*
G01*
X12103375Y-9910500D02*
G75*
G02*
X12133375Y-9910500I15000J0D01*
G01*
X6290000Y-11072500D02*
X6290000Y-11147500D01*
X6252500Y-11110000D02*
X6327500Y-11110000D01*
X6290000Y-11272500D02*
X6290000Y-11347500D01*
X6252500Y-11310000D02*
X6327500Y-11310000D01*
X6290000Y-11762500D02*
X6290000Y-11837500D01*
X6252500Y-11800000D02*
X6327500Y-11800000D01*
X6290000Y-11962500D02*
X6290000Y-12037500D01*
X6252500Y-12000000D02*
X6327500Y-12000000D01*
X6345000Y-14785000D02*
X6345000Y-14860000D01*
X6307500Y-14822500D02*
X6382500Y-14822500D01*
X6413150Y-10325850D02*
X6413150Y-10400850D01*
X6375650Y-10363350D02*
X6450650Y-10363350D01*
X6545000Y-14785000D02*
X6545000Y-14860000D01*
X6507500Y-14822500D02*
X6582500Y-14822500D01*
X6613150Y-10325850D02*
X6613150Y-10400850D01*
X6575650Y-10363350D02*
X6650650Y-10363350D01*
X6745000Y-14785000D02*
X6745000Y-14860000D01*
X6707500Y-14822500D02*
X6782500Y-14822500D01*
X6945000Y-14785000D02*
X6945000Y-14860000D01*
X6907500Y-14822500D02*
X6982500Y-14822500D01*
X7145000Y-14785000D02*
X7145000Y-14860000D01*
X7107500Y-14822500D02*
X7182500Y-14822500D01*
X7345000Y-14785000D02*
X7345000Y-14860000D01*
X7307500Y-14822500D02*
X7382500Y-14822500D01*
X8220000Y-14784000D02*
X8220000Y-14859000D01*
X8182500Y-14821500D02*
X8257500Y-14821500D01*
X8420000Y-14784000D02*
X8420000Y-14859000D01*
X8382500Y-14821500D02*
X8457500Y-14821500D01*
X8620000Y-14784000D02*
X8620000Y-14859000D01*
X8582500Y-14821500D02*
X8657500Y-14821500D01*
X8820000Y-14784000D02*
X8820000Y-14859000D01*
X8782500Y-14821500D02*
X8857500Y-14821500D01*
X9020000Y-14784000D02*
X9020000Y-14859000D01*
X8982500Y-14821500D02*
X9057500Y-14821500D01*
X9220000Y-14784000D02*
X9220000Y-14859000D01*
X9182500Y-14821500D02*
X9257500Y-14821500D01*
X10081750Y-14788000D02*
X10081750Y-14863000D01*
X10044250Y-14825500D02*
X10119250Y-14825500D01*
X10281750Y-14788000D02*
X10281750Y-14863000D01*
X10244250Y-14825500D02*
X10319250Y-14825500D01*
X10481750Y-14788000D02*
X10481750Y-14863000D01*
X10444250Y-14825500D02*
X10519250Y-14825500D01*
X10681750Y-14788000D02*
X10681750Y-14863000D01*
X10644250Y-14825500D02*
X10719250Y-14825500D01*
X10881750Y-14788000D02*
X10881750Y-14863000D01*
X10844250Y-14825500D02*
X10919250Y-14825500D01*
X11081750Y-14788000D02*
X11081750Y-14863000D01*
X11044250Y-14825500D02*
X11119250Y-14825500D01*
X11934000Y-14787000D02*
X11934000Y-14862000D01*
X11896500Y-14824500D02*
X11971500Y-14824500D01*
X12134000Y-14787000D02*
X12134000Y-14862000D01*
X12096500Y-14824500D02*
X12171500Y-14824500D01*
X12334000Y-14787000D02*
X12334000Y-14862000D01*
X12296500Y-14824500D02*
X12371500Y-14824500D01*
X12534000Y-14787000D02*
X12534000Y-14862000D01*
X12496500Y-14824500D02*
X12571500Y-14824500D01*
X12734000Y-14787000D02*
X12734000Y-14862000D01*
X12696500Y-14824500D02*
X12771500Y-14824500D01*
X12934000Y-14787000D02*
X12934000Y-14862000D01*
X12896500Y-14824500D02*
X12971500Y-14824500D01*
X13635000Y-8677500D02*
X13635000Y-8752500D01*
X13597500Y-8715000D02*
X13672500Y-8715000D01*
X13820000Y-14782500D02*
X13820000Y-14857500D01*
X13782500Y-14820000D02*
X13857500Y-14820000D01*
X13835000Y-8677500D02*
X13835000Y-8752500D01*
X13797500Y-8715000D02*
X13872500Y-8715000D01*
X14020000Y-14782500D02*
X14020000Y-14857500D01*
X13982500Y-14820000D02*
X14057500Y-14820000D01*
X14035000Y-8677500D02*
X14035000Y-8752500D01*
X13997500Y-8715000D02*
X14072500Y-8715000D01*
X14510000Y-14782500D02*
X14510000Y-14857500D01*
X14472500Y-14820000D02*
X14547500Y-14820000D01*
X14555000Y-8677500D02*
X14555000Y-8752500D01*
X14517500Y-8715000D02*
X14592500Y-8715000D01*
X14710000Y-14782500D02*
X14710000Y-14857500D01*
X14672500Y-14820000D02*
X14747500Y-14820000D01*
X14755000Y-8677500D02*
X14755000Y-8752500D01*
X14717500Y-8715000D02*
X14792500Y-8715000D01*
X14955000Y-8677500D02*
X14955000Y-8752500D01*
X14917500Y-8715000D02*
X14992500Y-8715000D01*
X15200000Y-14782500D02*
X15200000Y-14857500D01*
X15162500Y-14820000D02*
X15237500Y-14820000D01*
X15400000Y-14782500D02*
X15400000Y-14857500D01*
X15362500Y-14820000D02*
X15437500Y-14820000D01*
X15475000Y-8677500D02*
X15475000Y-8752500D01*
X15437500Y-8715000D02*
X15512500Y-8715000D01*
X15675000Y-8677500D02*
X15675000Y-8752500D01*
X15637500Y-8715000D02*
X15712500Y-8715000D01*
X15875000Y-8677500D02*
X15875000Y-8752500D01*
X15837500Y-8715000D02*
X15912500Y-8715000D01*
X15890000Y-14782500D02*
X15890000Y-14857500D01*
X15852500Y-14820000D02*
X15927500Y-14820000D01*
X16090000Y-14782500D02*
X16090000Y-14857500D01*
X16052500Y-14820000D02*
X16127500Y-14820000D01*
X16395000Y-8677500D02*
X16395000Y-8752500D01*
X16357500Y-8715000D02*
X16432500Y-8715000D01*
X16580000Y-14782500D02*
X16580000Y-14857500D01*
X16542500Y-14820000D02*
X16617500Y-14820000D01*
X16595000Y-8677500D02*
X16595000Y-8752500D01*
X16557500Y-8715000D02*
X16632500Y-8715000D01*
X16780000Y-14782500D02*
X16780000Y-14857500D01*
X16742500Y-14820000D02*
X16817500Y-14820000D01*
X16795000Y-8677500D02*
X16795000Y-8752500D01*
X16757500Y-8715000D02*
X16832500Y-8715000D01*
X17270000Y-14782500D02*
X17270000Y-14857500D01*
X17232500Y-14820000D02*
X17307500Y-14820000D01*
X17470000Y-14782500D02*
X17470000Y-14857500D01*
X17432500Y-14820000D02*
X17507500Y-14820000D01*
X17495000Y-9022500D02*
X17495000Y-9097500D01*
X17457500Y-9060000D02*
X17532500Y-9060000D01*
X17495000Y-9222500D02*
X17495000Y-9297500D01*
X17457500Y-9260000D02*
X17532500Y-9260000D01*
X17495000Y-9422500D02*
X17495000Y-9497500D01*
X17457500Y-9460000D02*
X17532500Y-9460000D01*
X6245356Y-12627106D02*
X6245356Y-12556394D01*
X6174644Y-12556394D01*
X6174644Y-12627106D01*
X6245356Y-12627106D01*
X6245356Y-12881106D02*
X6245356Y-12810394D01*
X6174644Y-12810394D01*
X6174644Y-12881106D01*
X6245356Y-12881106D01*
X6245356Y-13135106D02*
X6245356Y-13064394D01*
X6174644Y-13064394D01*
X6174644Y-13135106D01*
X6245356Y-13135106D01*
X6245356Y-13389106D02*
X6245356Y-13318394D01*
X6174644Y-13318394D01*
X6174644Y-13389106D01*
X6245356Y-13389106D01*
X6245356Y-13643106D02*
X6245356Y-13572394D01*
X6174644Y-13572394D01*
X6174644Y-13643106D01*
X6245356Y-13643106D01*
X6245356Y-13897106D02*
X6245356Y-13826394D01*
X6174644Y-13826394D01*
X6174644Y-13897106D01*
X6245356Y-13897106D01*
X6245356Y-14151106D02*
X6245356Y-14080394D01*
X6174644Y-14080394D01*
X6174644Y-14151106D01*
X6245356Y-14151106D01*
X6245356Y-14405106D02*
X6245356Y-14334394D01*
X6174644Y-14334394D01*
X6174644Y-14405106D01*
X6245356Y-14405106D01*
X6762856Y-11076356D02*
X6762856Y-11005644D01*
X6692144Y-11005644D01*
X6692144Y-11076356D01*
X6762856Y-11076356D01*
X6762856Y-11330356D02*
X6762856Y-11259644D01*
X6692144Y-11259644D01*
X6692144Y-11330356D01*
X6762856Y-11330356D01*
X6762856Y-11584356D02*
X6762856Y-11513644D01*
X6692144Y-11513644D01*
X6692144Y-11584356D01*
X6762856Y-11584356D01*
X7007356Y-14405106D02*
X7007356Y-14334394D01*
X6936644Y-14334394D01*
X6936644Y-14405106D01*
X7007356Y-14405106D01*
X7016856Y-11076356D02*
X7016856Y-11005644D01*
X6946144Y-11005644D01*
X6946144Y-11076356D01*
X7016856Y-11076356D01*
X7016856Y-11330356D02*
X7016856Y-11259644D01*
X6946144Y-11259644D01*
X6946144Y-11330356D01*
X7016856Y-11330356D01*
X7016856Y-11584356D02*
X7016856Y-11513644D01*
X6946144Y-11513644D01*
X6946144Y-11584356D01*
X7016856Y-11584356D01*
X7261356Y-14405106D02*
X7261356Y-14334394D01*
X7190644Y-14334394D01*
X7190644Y-14405106D01*
X7261356Y-14405106D01*
X7515356Y-12627106D02*
X7515356Y-12556394D01*
X7444644Y-12556394D01*
X7444644Y-12627106D01*
X7515356Y-12627106D01*
X7515356Y-12881106D02*
X7515356Y-12810394D01*
X7444644Y-12810394D01*
X7444644Y-12881106D01*
X7515356Y-12881106D01*
X7515356Y-13135106D02*
X7515356Y-13064394D01*
X7444644Y-13064394D01*
X7444644Y-13135106D01*
X7515356Y-13135106D01*
X7515356Y-13389106D02*
X7515356Y-13318394D01*
X7444644Y-13318394D01*
X7444644Y-13389106D01*
X7515356Y-13389106D01*
X7515356Y-13643106D02*
X7515356Y-13572394D01*
X7444644Y-13572394D01*
X7444644Y-13643106D01*
X7515356Y-13643106D01*
X7515356Y-13897106D02*
X7515356Y-13826394D01*
X7444644Y-13826394D01*
X7444644Y-13897106D01*
X7515356Y-13897106D01*
X7515356Y-14151106D02*
X7515356Y-14080394D01*
X7444644Y-14080394D01*
X7444644Y-14151106D01*
X7515356Y-14151106D01*
X7515356Y-14405106D02*
X7515356Y-14334394D01*
X7444644Y-14334394D01*
X7444644Y-14405106D01*
X7515356Y-14405106D01*
X8120356Y-12627106D02*
X8120356Y-12556394D01*
X8049644Y-12556394D01*
X8049644Y-12627106D01*
X8120356Y-12627106D01*
X8120356Y-12881106D02*
X8120356Y-12810394D01*
X8049644Y-12810394D01*
X8049644Y-12881106D01*
X8120356Y-12881106D01*
X8120356Y-13135106D02*
X8120356Y-13064394D01*
X8049644Y-13064394D01*
X8049644Y-13135106D01*
X8120356Y-13135106D01*
X8120356Y-13389106D02*
X8120356Y-13318394D01*
X8049644Y-13318394D01*
X8049644Y-13389106D01*
X8120356Y-13389106D01*
X8120356Y-13643106D02*
X8120356Y-13572394D01*
X8049644Y-13572394D01*
X8049644Y-13643106D01*
X8120356Y-13643106D01*
X8120356Y-13897106D02*
X8120356Y-13826394D01*
X8049644Y-13826394D01*
X8049644Y-13897106D01*
X8120356Y-13897106D01*
X8120356Y-14151106D02*
X8120356Y-14080394D01*
X8049644Y-14080394D01*
X8049644Y-14151106D01*
X8120356Y-14151106D01*
X8120356Y-14405106D02*
X8120356Y-14334394D01*
X8049644Y-14334394D01*
X8049644Y-14405106D01*
X8120356Y-14405106D01*
X8882356Y-14405106D02*
X8882356Y-14334394D01*
X8811644Y-14334394D01*
X8811644Y-14405106D01*
X8882356Y-14405106D01*
X9136356Y-14405106D02*
X9136356Y-14334394D01*
X9065644Y-14334394D01*
X9065644Y-14405106D01*
X9136356Y-14405106D01*
X9390356Y-12627106D02*
X9390356Y-12556394D01*
X9319644Y-12556394D01*
X9319644Y-12627106D01*
X9390356Y-12627106D01*
X9390356Y-12881106D02*
X9390356Y-12810394D01*
X9319644Y-12810394D01*
X9319644Y-12881106D01*
X9390356Y-12881106D01*
X9390356Y-13135106D02*
X9390356Y-13064394D01*
X9319644Y-13064394D01*
X9319644Y-13135106D01*
X9390356Y-13135106D01*
X9390356Y-13389106D02*
X9390356Y-13318394D01*
X9319644Y-13318394D01*
X9319644Y-13389106D01*
X9390356Y-13389106D01*
X9390356Y-13643106D02*
X9390356Y-13572394D01*
X9319644Y-13572394D01*
X9319644Y-13643106D01*
X9390356Y-13643106D01*
X9390356Y-13897106D02*
X9390356Y-13826394D01*
X9319644Y-13826394D01*
X9319644Y-13897106D01*
X9390356Y-13897106D01*
X9390356Y-14151106D02*
X9390356Y-14080394D01*
X9319644Y-14080394D01*
X9319644Y-14151106D01*
X9390356Y-14151106D01*
X9390356Y-14405106D02*
X9390356Y-14334394D01*
X9319644Y-14334394D01*
X9319644Y-14405106D01*
X9390356Y-14405106D01*
X9980606Y-12627106D02*
X9980606Y-12556394D01*
X9909894Y-12556394D01*
X9909894Y-12627106D01*
X9980606Y-12627106D01*
X9980606Y-12881106D02*
X9980606Y-12810394D01*
X9909894Y-12810394D01*
X9909894Y-12881106D01*
X9980606Y-12881106D01*
X9980606Y-13135106D02*
X9980606Y-13064394D01*
X9909894Y-13064394D01*
X9909894Y-13135106D01*
X9980606Y-13135106D01*
X9980606Y-13389106D02*
X9980606Y-13318394D01*
X9909894Y-13318394D01*
X9909894Y-13389106D01*
X9980606Y-13389106D01*
X9980606Y-13643106D02*
X9980606Y-13572394D01*
X9909894Y-13572394D01*
X9909894Y-13643106D01*
X9980606Y-13643106D01*
X9980606Y-13897106D02*
X9980606Y-13826394D01*
X9909894Y-13826394D01*
X9909894Y-13897106D01*
X9980606Y-13897106D01*
X9980606Y-14151106D02*
X9980606Y-14080394D01*
X9909894Y-14080394D01*
X9909894Y-14151106D01*
X9980606Y-14151106D01*
X9980606Y-14405106D02*
X9980606Y-14334394D01*
X9909894Y-14334394D01*
X9909894Y-14405106D01*
X9980606Y-14405106D01*
X10742606Y-14405106D02*
X10742606Y-14334394D01*
X10671894Y-14334394D01*
X10671894Y-14405106D01*
X10742606Y-14405106D01*
X10996606Y-14405106D02*
X10996606Y-14334394D01*
X10925894Y-14334394D01*
X10925894Y-14405106D01*
X10996606Y-14405106D01*
X11250606Y-12627106D02*
X11250606Y-12556394D01*
X11179894Y-12556394D01*
X11179894Y-12627106D01*
X11250606Y-12627106D01*
X11250606Y-12881106D02*
X11250606Y-12810394D01*
X11179894Y-12810394D01*
X11179894Y-12881106D01*
X11250606Y-12881106D01*
X11250606Y-13135106D02*
X11250606Y-13064394D01*
X11179894Y-13064394D01*
X11179894Y-13135106D01*
X11250606Y-13135106D01*
X11250606Y-13389106D02*
X11250606Y-13318394D01*
X11179894Y-13318394D01*
X11179894Y-13389106D01*
X11250606Y-13389106D01*
X11250606Y-13643106D02*
X11250606Y-13572394D01*
X11179894Y-13572394D01*
X11179894Y-13643106D01*
X11250606Y-13643106D01*
X11250606Y-13897106D02*
X11250606Y-13826394D01*
X11179894Y-13826394D01*
X11179894Y-13897106D01*
X11250606Y-13897106D01*
X11250606Y-14151106D02*
X11250606Y-14080394D01*
X11179894Y-14080394D01*
X11179894Y-14151106D01*
X11250606Y-14151106D01*
X11250606Y-14405106D02*
X11250606Y-14334394D01*
X11179894Y-14334394D01*
X11179894Y-14405106D01*
X11250606Y-14405106D01*
X11837356Y-12626106D02*
X11837356Y-12555394D01*
X11766644Y-12555394D01*
X11766644Y-12626106D01*
X11837356Y-12626106D01*
X11837356Y-12880106D02*
X11837356Y-12809394D01*
X11766644Y-12809394D01*
X11766644Y-12880106D01*
X11837356Y-12880106D01*
X11837356Y-13134106D02*
X11837356Y-13063394D01*
X11766644Y-13063394D01*
X11766644Y-13134106D01*
X11837356Y-13134106D01*
X11837356Y-13388106D02*
X11837356Y-13317394D01*
X11766644Y-13317394D01*
X11766644Y-13388106D01*
X11837356Y-13388106D01*
X11837356Y-13642106D02*
X11837356Y-13571394D01*
X11766644Y-13571394D01*
X11766644Y-13642106D01*
X11837356Y-13642106D01*
X11837356Y-13896106D02*
X11837356Y-13825394D01*
X11766644Y-13825394D01*
X11766644Y-13896106D01*
X11837356Y-13896106D01*
X11837356Y-14150106D02*
X11837356Y-14079394D01*
X11766644Y-14079394D01*
X11766644Y-14150106D01*
X11837356Y-14150106D01*
X11837356Y-14404106D02*
X11837356Y-14333394D01*
X11766644Y-14333394D01*
X11766644Y-14404106D01*
X11837356Y-14404106D01*
X12599356Y-14404106D02*
X12599356Y-14333394D01*
X12528644Y-14333394D01*
X12528644Y-14404106D01*
X12599356Y-14404106D01*
X12853356Y-14404106D02*
X12853356Y-14333394D01*
X12782644Y-14333394D01*
X12782644Y-14404106D01*
X12853356Y-14404106D01*
X13107356Y-12626106D02*
X13107356Y-12555394D01*
X13036644Y-12555394D01*
X13036644Y-12626106D01*
X13107356Y-12626106D01*
X13107356Y-12880106D02*
X13107356Y-12809394D01*
X13036644Y-12809394D01*
X13036644Y-12880106D01*
X13107356Y-12880106D01*
X13107356Y-13134106D02*
X13107356Y-13063394D01*
X13036644Y-13063394D01*
X13036644Y-13134106D01*
X13107356Y-13134106D01*
X13107356Y-13388106D02*
X13107356Y-13317394D01*
X13036644Y-13317394D01*
X13036644Y-13388106D01*
X13107356Y-13388106D01*
X13107356Y-13642106D02*
X13107356Y-13571394D01*
X13036644Y-13571394D01*
X13036644Y-13642106D01*
X13107356Y-13642106D01*
X13107356Y-13896106D02*
X13107356Y-13825394D01*
X13036644Y-13825394D01*
X13036644Y-13896106D01*
X13107356Y-13896106D01*
X13107356Y-14150106D02*
X13107356Y-14079394D01*
X13036644Y-14079394D01*
X13036644Y-14150106D01*
X13107356Y-14150106D01*
X13107356Y-14404106D02*
X13107356Y-14333394D01*
X13036644Y-14333394D01*
X13036644Y-14404106D01*
X13107356Y-14404106D01*
X13855356Y-10455356D02*
X13855356Y-10384644D01*
X13784644Y-10384644D01*
X13784644Y-10455356D01*
X13855356Y-10455356D01*
X14109356Y-10455356D02*
X14109356Y-10384644D01*
X14038644Y-10384644D01*
X14038644Y-10455356D01*
X14109356Y-10455356D01*
X14363356Y-10455356D02*
X14363356Y-10384644D01*
X14292644Y-10384644D01*
X14292644Y-10455356D01*
X14363356Y-10455356D01*
X14617356Y-10455356D02*
X14617356Y-10384644D01*
X14546644Y-10384644D01*
X14546644Y-10455356D01*
X14617356Y-10455356D01*
X14871356Y-10455356D02*
X14871356Y-10384644D01*
X14800644Y-10384644D01*
X14800644Y-10455356D01*
X14871356Y-10455356D01*
X15125356Y-10455356D02*
X15125356Y-10384644D01*
X15054644Y-10384644D01*
X15054644Y-10455356D01*
X15125356Y-10455356D01*
X15379356Y-10455356D02*
X15379356Y-10384644D01*
X15308644Y-10384644D01*
X15308644Y-10455356D01*
X15379356Y-10455356D01*
X15633356Y-10455356D02*
X15633356Y-10384644D01*
X15562644Y-10384644D01*
X15562644Y-10455356D01*
X15633356Y-10455356D01*
X15887356Y-10455356D02*
X15887356Y-10384644D01*
X15816644Y-10384644D01*
X15816644Y-10455356D01*
X15887356Y-10455356D01*
X16141356Y-10455356D02*
X16141356Y-10384644D01*
X16070644Y-10384644D01*
X16070644Y-10455356D01*
X16141356Y-10455356D01*
X16395356Y-10455356D02*
X16395356Y-10384644D01*
X16324644Y-10384644D01*
X16324644Y-10455356D01*
X16395356Y-10455356D01*
X16649356Y-10455356D02*
X16649356Y-10384644D01*
X16578644Y-10384644D01*
X16578644Y-10455356D01*
X16649356Y-10455356D01*
D13*
X7570000Y-8905000D02*
X7680000Y-8795000D01*
X7570000Y-8685000D01*
X7460000Y-8795000D01*
X7570000Y-8905000D01*
X7570000Y-12005000D02*
X7680000Y-11895000D01*
X7570000Y-11785000D01*
X7460000Y-11895000D01*
X7570000Y-12005000D01*
X12770000Y-8905000D02*
X12880000Y-8795000D01*
X12770000Y-8685000D01*
X12660000Y-8795000D01*
X12770000Y-8905000D01*
X12770000Y-12005000D02*
X12880000Y-11895000D01*
X12770000Y-11785000D01*
X12660000Y-11895000D01*
X12770000Y-12005000D01*
D14*
X6270650Y-8630850D02*
X6725650Y-9085850D01*
X6725650Y-8630850D02*
X6270650Y-9085850D01*
X6725650Y-8858350D02*
G75*
G02*
X6270650Y-8858350I-227500J0D01*
G01*
X6270650Y-8858350D02*
G75*
G02*
X6725650Y-8858350I227500J0D01*
G01*
X6270650Y-9350850D02*
X6725650Y-9805850D01*
X6725650Y-9350850D02*
X6270650Y-9805850D01*
X6725650Y-9578350D02*
G75*
G02*
X6270650Y-9578350I-227500J0D01*
G01*
X6270650Y-9578350D02*
G75*
G02*
X6725650Y-9578350I227500J0D01*
G01*
D11*
X6148277Y-15594734D02*
X6148277Y-15394734D01*
X6148277Y-15394734D02*
X6195896Y-15394734D01*
X6195896Y-15394734D02*
X6224467Y-15404258D01*
X6224467Y-15404258D02*
X6243515Y-15423305D01*
X6243515Y-15423305D02*
X6253039Y-15442353D01*
X6253039Y-15442353D02*
X6262562Y-15480448D01*
X6262562Y-15480448D02*
X6262562Y-15509019D01*
X6262562Y-15509019D02*
X6253039Y-15547115D01*
X6253039Y-15547115D02*
X6243515Y-15566162D01*
X6243515Y-15566162D02*
X6224467Y-15585210D01*
X6224467Y-15585210D02*
X6195896Y-15594734D01*
X6195896Y-15594734D02*
X6148277Y-15594734D01*
X6348277Y-15594734D02*
X6348277Y-15461400D01*
X6348277Y-15499496D02*
X6357801Y-15480448D01*
X6357801Y-15480448D02*
X6367324Y-15470924D01*
X6367324Y-15470924D02*
X6386372Y-15461400D01*
X6386372Y-15461400D02*
X6405420Y-15461400D01*
X6472086Y-15594734D02*
X6472086Y-15461400D01*
X6472086Y-15394734D02*
X6462562Y-15404258D01*
X6462562Y-15404258D02*
X6472086Y-15413781D01*
X6472086Y-15413781D02*
X6481610Y-15404258D01*
X6481610Y-15404258D02*
X6472086Y-15394734D01*
X6472086Y-15394734D02*
X6472086Y-15413781D01*
X6595896Y-15594734D02*
X6576848Y-15585210D01*
X6576848Y-15585210D02*
X6567324Y-15566162D01*
X6567324Y-15566162D02*
X6567324Y-15394734D01*
X6700658Y-15594734D02*
X6681610Y-15585210D01*
X6681610Y-15585210D02*
X6672086Y-15566162D01*
X6672086Y-15566162D02*
X6672086Y-15394734D01*
X6929229Y-15594734D02*
X6929229Y-15394734D01*
X6929229Y-15394734D02*
X6995896Y-15537591D01*
X6995896Y-15537591D02*
X7062562Y-15394734D01*
X7062562Y-15394734D02*
X7062562Y-15594734D01*
X7243515Y-15594734D02*
X7243515Y-15489972D01*
X7243515Y-15489972D02*
X7233991Y-15470924D01*
X7233991Y-15470924D02*
X7214943Y-15461400D01*
X7214943Y-15461400D02*
X7176848Y-15461400D01*
X7176848Y-15461400D02*
X7157801Y-15470924D01*
X7243515Y-15585210D02*
X7224467Y-15594734D01*
X7224467Y-15594734D02*
X7176848Y-15594734D01*
X7176848Y-15594734D02*
X7157801Y-15585210D01*
X7157801Y-15585210D02*
X7148277Y-15566162D01*
X7148277Y-15566162D02*
X7148277Y-15547115D01*
X7148277Y-15547115D02*
X7157801Y-15528067D01*
X7157801Y-15528067D02*
X7176848Y-15518543D01*
X7176848Y-15518543D02*
X7224467Y-15518543D01*
X7224467Y-15518543D02*
X7243515Y-15509019D01*
X7338753Y-15461400D02*
X7338753Y-15661400D01*
X7338753Y-15470924D02*
X7357801Y-15461400D01*
X7357801Y-15461400D02*
X7395896Y-15461400D01*
X7395896Y-15461400D02*
X7414943Y-15470924D01*
X7414943Y-15470924D02*
X7424467Y-15480448D01*
X7424467Y-15480448D02*
X7433991Y-15499496D01*
X7433991Y-15499496D02*
X7433991Y-15556638D01*
X7433991Y-15556638D02*
X7424467Y-15575686D01*
X7424467Y-15575686D02*
X7414943Y-15585210D01*
X7414943Y-15585210D02*
X7395896Y-15594734D01*
X7395896Y-15594734D02*
X7357801Y-15594734D01*
X7357801Y-15594734D02*
X7338753Y-15585210D01*
X7519705Y-15575686D02*
X7529229Y-15585210D01*
X7529229Y-15585210D02*
X7519705Y-15594734D01*
X7519705Y-15594734D02*
X7510182Y-15585210D01*
X7510182Y-15585210D02*
X7519705Y-15575686D01*
X7519705Y-15575686D02*
X7519705Y-15594734D01*
X7519705Y-15470924D02*
X7529229Y-15480448D01*
X7529229Y-15480448D02*
X7519705Y-15489972D01*
X7519705Y-15489972D02*
X7510182Y-15480448D01*
X7510182Y-15480448D02*
X7519705Y-15470924D01*
X7519705Y-15470924D02*
X7519705Y-15489972D01*
D12*
X5857500Y-15908250D02*
X5887500Y-15938250D01*
X5887500Y-15908250D02*
X5857500Y-15938250D01*
D11*
X6186372Y-15814734D02*
X6205420Y-15814734D01*
X6205420Y-15814734D02*
X6224467Y-15824258D01*
X6224467Y-15824258D02*
X6233991Y-15833781D01*
X6233991Y-15833781D02*
X6243515Y-15852829D01*
X6243515Y-15852829D02*
X6253039Y-15890924D01*
X6253039Y-15890924D02*
X6253039Y-15938543D01*
X6253039Y-15938543D02*
X6243515Y-15976638D01*
X6243515Y-15976638D02*
X6233991Y-15995686D01*
X6233991Y-15995686D02*
X6224467Y-16005210D01*
X6224467Y-16005210D02*
X6205420Y-16014734D01*
X6205420Y-16014734D02*
X6186372Y-16014734D01*
X6186372Y-16014734D02*
X6167324Y-16005210D01*
X6167324Y-16005210D02*
X6157801Y-15995686D01*
X6157801Y-15995686D02*
X6148277Y-15976638D01*
X6148277Y-15976638D02*
X6138753Y-15938543D01*
X6138753Y-15938543D02*
X6138753Y-15890924D01*
X6138753Y-15890924D02*
X6148277Y-15852829D01*
X6148277Y-15852829D02*
X6157801Y-15833781D01*
X6157801Y-15833781D02*
X6167324Y-15824258D01*
X6167324Y-15824258D02*
X6186372Y-15814734D01*
X6338753Y-15995686D02*
X6348277Y-16005210D01*
X6348277Y-16005210D02*
X6338753Y-16014734D01*
X6338753Y-16014734D02*
X6329229Y-16005210D01*
X6329229Y-16005210D02*
X6338753Y-15995686D01*
X6338753Y-15995686D02*
X6338753Y-16014734D01*
X6414943Y-15814734D02*
X6538753Y-15814734D01*
X6538753Y-15814734D02*
X6472086Y-15890924D01*
X6472086Y-15890924D02*
X6500658Y-15890924D01*
X6500658Y-15890924D02*
X6519705Y-15900448D01*
X6519705Y-15900448D02*
X6529229Y-15909972D01*
X6529229Y-15909972D02*
X6538753Y-15929019D01*
X6538753Y-15929019D02*
X6538753Y-15976638D01*
X6538753Y-15976638D02*
X6529229Y-15995686D01*
X6529229Y-15995686D02*
X6519705Y-16005210D01*
X6519705Y-16005210D02*
X6500658Y-16014734D01*
X6500658Y-16014734D02*
X6443515Y-16014734D01*
X6443515Y-16014734D02*
X6424467Y-16005210D01*
X6424467Y-16005210D02*
X6414943Y-15995686D01*
X6662562Y-15814734D02*
X6681610Y-15814734D01*
X6681610Y-15814734D02*
X6700658Y-15824258D01*
X6700658Y-15824258D02*
X6710182Y-15833781D01*
X6710182Y-15833781D02*
X6719705Y-15852829D01*
X6719705Y-15852829D02*
X6729229Y-15890924D01*
X6729229Y-15890924D02*
X6729229Y-15938543D01*
X6729229Y-15938543D02*
X6719705Y-15976638D01*
X6719705Y-15976638D02*
X6710182Y-15995686D01*
X6710182Y-15995686D02*
X6700658Y-16005210D01*
X6700658Y-16005210D02*
X6681610Y-16014734D01*
X6681610Y-16014734D02*
X6662562Y-16014734D01*
X6662562Y-16014734D02*
X6643515Y-16005210D01*
X6643515Y-16005210D02*
X6633991Y-15995686D01*
X6633991Y-15995686D02*
X6624467Y-15976638D01*
X6624467Y-15976638D02*
X6614943Y-15938543D01*
X6614943Y-15938543D02*
X6614943Y-15890924D01*
X6614943Y-15890924D02*
X6624467Y-15852829D01*
X6624467Y-15852829D02*
X6633991Y-15833781D01*
X6633991Y-15833781D02*
X6643515Y-15824258D01*
X6643515Y-15824258D02*
X6662562Y-15814734D01*
X6853039Y-15814734D02*
X6872086Y-15814734D01*
X6872086Y-15814734D02*
X6891134Y-15824258D01*
X6891134Y-15824258D02*
X6900658Y-15833781D01*
X6900658Y-15833781D02*
X6910182Y-15852829D01*
X6910182Y-15852829D02*
X6919705Y-15890924D01*
X6919705Y-15890924D02*
X6919705Y-15938543D01*
X6919705Y-15938543D02*
X6910182Y-15976638D01*
X6910182Y-15976638D02*
X6900658Y-15995686D01*
X6900658Y-15995686D02*
X6891134Y-16005210D01*
X6891134Y-16005210D02*
X6872086Y-16014734D01*
X6872086Y-16014734D02*
X6853039Y-16014734D01*
X6853039Y-16014734D02*
X6833991Y-16005210D01*
X6833991Y-16005210D02*
X6824467Y-15995686D01*
X6824467Y-15995686D02*
X6814943Y-15976638D01*
X6814943Y-15976638D02*
X6805420Y-15938543D01*
X6805420Y-15938543D02*
X6805420Y-15890924D01*
X6805420Y-15890924D02*
X6814943Y-15852829D01*
X6814943Y-15852829D02*
X6824467Y-15833781D01*
X6824467Y-15833781D02*
X6833991Y-15824258D01*
X6833991Y-15824258D02*
X6853039Y-15814734D01*
X7005420Y-16014734D02*
X7005420Y-15881400D01*
X7005420Y-15900448D02*
X7014943Y-15890924D01*
X7014943Y-15890924D02*
X7033991Y-15881400D01*
X7033991Y-15881400D02*
X7062563Y-15881400D01*
X7062563Y-15881400D02*
X7081610Y-15890924D01*
X7081610Y-15890924D02*
X7091134Y-15909972D01*
X7091134Y-15909972D02*
X7091134Y-16014734D01*
X7091134Y-15909972D02*
X7100658Y-15890924D01*
X7100658Y-15890924D02*
X7119705Y-15881400D01*
X7119705Y-15881400D02*
X7148277Y-15881400D01*
X7148277Y-15881400D02*
X7167324Y-15890924D01*
X7167324Y-15890924D02*
X7176848Y-15909972D01*
X7176848Y-15909972D02*
X7176848Y-16014734D01*
X7272086Y-16014734D02*
X7272086Y-15881400D01*
X7272086Y-15900448D02*
X7281610Y-15890924D01*
X7281610Y-15890924D02*
X7300658Y-15881400D01*
X7300658Y-15881400D02*
X7329229Y-15881400D01*
X7329229Y-15881400D02*
X7348277Y-15890924D01*
X7348277Y-15890924D02*
X7357801Y-15909972D01*
X7357801Y-15909972D02*
X7357801Y-16014734D01*
X7357801Y-15909972D02*
X7367324Y-15890924D01*
X7367324Y-15890924D02*
X7386372Y-15881400D01*
X7386372Y-15881400D02*
X7414943Y-15881400D01*
X7414943Y-15881400D02*
X7433991Y-15890924D01*
X7433991Y-15890924D02*
X7443515Y-15909972D01*
X7443515Y-15909972D02*
X7443515Y-16014734D01*
X7833991Y-15805210D02*
X7662563Y-16062353D01*
X8091134Y-15814734D02*
X8110182Y-15814734D01*
X8110182Y-15814734D02*
X8129229Y-15824258D01*
X8129229Y-15824258D02*
X8138753Y-15833781D01*
X8138753Y-15833781D02*
X8148277Y-15852829D01*
X8148277Y-15852829D02*
X8157801Y-15890924D01*
X8157801Y-15890924D02*
X8157801Y-15938543D01*
X8157801Y-15938543D02*
X8148277Y-15976638D01*
X8148277Y-15976638D02*
X8138753Y-15995686D01*
X8138753Y-15995686D02*
X8129229Y-16005210D01*
X8129229Y-16005210D02*
X8110182Y-16014734D01*
X8110182Y-16014734D02*
X8091134Y-16014734D01*
X8091134Y-16014734D02*
X8072086Y-16005210D01*
X8072086Y-16005210D02*
X8062563Y-15995686D01*
X8062563Y-15995686D02*
X8053039Y-15976638D01*
X8053039Y-15976638D02*
X8043515Y-15938543D01*
X8043515Y-15938543D02*
X8043515Y-15890924D01*
X8043515Y-15890924D02*
X8053039Y-15852829D01*
X8053039Y-15852829D02*
X8062563Y-15833781D01*
X8062563Y-15833781D02*
X8072086Y-15824258D01*
X8072086Y-15824258D02*
X8091134Y-15814734D01*
X8243515Y-15995686D02*
X8253039Y-16005210D01*
X8253039Y-16005210D02*
X8243515Y-16014734D01*
X8243515Y-16014734D02*
X8233991Y-16005210D01*
X8233991Y-16005210D02*
X8243515Y-15995686D01*
X8243515Y-15995686D02*
X8243515Y-16014734D01*
X8376848Y-15814734D02*
X8395896Y-15814734D01*
X8395896Y-15814734D02*
X8414944Y-15824258D01*
X8414944Y-15824258D02*
X8424468Y-15833781D01*
X8424468Y-15833781D02*
X8433991Y-15852829D01*
X8433991Y-15852829D02*
X8443515Y-15890924D01*
X8443515Y-15890924D02*
X8443515Y-15938543D01*
X8443515Y-15938543D02*
X8433991Y-15976638D01*
X8433991Y-15976638D02*
X8424468Y-15995686D01*
X8424468Y-15995686D02*
X8414944Y-16005210D01*
X8414944Y-16005210D02*
X8395896Y-16014734D01*
X8395896Y-16014734D02*
X8376848Y-16014734D01*
X8376848Y-16014734D02*
X8357801Y-16005210D01*
X8357801Y-16005210D02*
X8348277Y-15995686D01*
X8348277Y-15995686D02*
X8338753Y-15976638D01*
X8338753Y-15976638D02*
X8329229Y-15938543D01*
X8329229Y-15938543D02*
X8329229Y-15890924D01*
X8329229Y-15890924D02*
X8338753Y-15852829D01*
X8338753Y-15852829D02*
X8348277Y-15833781D01*
X8348277Y-15833781D02*
X8357801Y-15824258D01*
X8357801Y-15824258D02*
X8376848Y-15814734D01*
X8633991Y-16014734D02*
X8519706Y-16014734D01*
X8576848Y-16014734D02*
X8576848Y-15814734D01*
X8576848Y-15814734D02*
X8557801Y-15843305D01*
X8557801Y-15843305D02*
X8538753Y-15862353D01*
X8538753Y-15862353D02*
X8519706Y-15871877D01*
X8824468Y-16014734D02*
X8710182Y-16014734D01*
X8767325Y-16014734D02*
X8767325Y-15814734D01*
X8767325Y-15814734D02*
X8748277Y-15843305D01*
X8748277Y-15843305D02*
X8729229Y-15862353D01*
X8729229Y-15862353D02*
X8710182Y-15871877D01*
X8938753Y-15900448D02*
X8919706Y-15890924D01*
X8919706Y-15890924D02*
X8910182Y-15881400D01*
X8910182Y-15881400D02*
X8900658Y-15862353D01*
X8900658Y-15862353D02*
X8900658Y-15852829D01*
X8900658Y-15852829D02*
X8910182Y-15833781D01*
X8910182Y-15833781D02*
X8919706Y-15824258D01*
X8919706Y-15824258D02*
X8938753Y-15814734D01*
X8938753Y-15814734D02*
X8976849Y-15814734D01*
X8976849Y-15814734D02*
X8995896Y-15824258D01*
X8995896Y-15824258D02*
X9005420Y-15833781D01*
X9005420Y-15833781D02*
X9014944Y-15852829D01*
X9014944Y-15852829D02*
X9014944Y-15862353D01*
X9014944Y-15862353D02*
X9005420Y-15881400D01*
X9005420Y-15881400D02*
X8995896Y-15890924D01*
X8995896Y-15890924D02*
X8976849Y-15900448D01*
X8976849Y-15900448D02*
X8938753Y-15900448D01*
X8938753Y-15900448D02*
X8919706Y-15909972D01*
X8919706Y-15909972D02*
X8910182Y-15919496D01*
X8910182Y-15919496D02*
X8900658Y-15938543D01*
X8900658Y-15938543D02*
X8900658Y-15976638D01*
X8900658Y-15976638D02*
X8910182Y-15995686D01*
X8910182Y-15995686D02*
X8919706Y-16005210D01*
X8919706Y-16005210D02*
X8938753Y-16014734D01*
X8938753Y-16014734D02*
X8976849Y-16014734D01*
X8976849Y-16014734D02*
X8995896Y-16005210D01*
X8995896Y-16005210D02*
X9005420Y-15995686D01*
X9005420Y-15995686D02*
X9014944Y-15976638D01*
X9014944Y-15976638D02*
X9014944Y-15938543D01*
X9014944Y-15938543D02*
X9005420Y-15919496D01*
X9005420Y-15919496D02*
X8995896Y-15909972D01*
X8995896Y-15909972D02*
X8976849Y-15900448D01*
X9091134Y-15814734D02*
X9091134Y-15852829D01*
X9167325Y-15814734D02*
X9167325Y-15852829D01*
X9462563Y-16090924D02*
X9453039Y-16081400D01*
X9453039Y-16081400D02*
X9433991Y-16052829D01*
X9433991Y-16052829D02*
X9424468Y-16033781D01*
X9424468Y-16033781D02*
X9414944Y-16005210D01*
X9414944Y-16005210D02*
X9405420Y-15957591D01*
X9405420Y-15957591D02*
X9405420Y-15919496D01*
X9405420Y-15919496D02*
X9414944Y-15871877D01*
X9414944Y-15871877D02*
X9424468Y-15843305D01*
X9424468Y-15843305D02*
X9433991Y-15824258D01*
X9433991Y-15824258D02*
X9453039Y-15795686D01*
X9453039Y-15795686D02*
X9462563Y-15786162D01*
X9567325Y-15900448D02*
X9548277Y-15890924D01*
X9548277Y-15890924D02*
X9538753Y-15881400D01*
X9538753Y-15881400D02*
X9529230Y-15862353D01*
X9529230Y-15862353D02*
X9529230Y-15852829D01*
X9529230Y-15852829D02*
X9538753Y-15833781D01*
X9538753Y-15833781D02*
X9548277Y-15824258D01*
X9548277Y-15824258D02*
X9567325Y-15814734D01*
X9567325Y-15814734D02*
X9605420Y-15814734D01*
X9605420Y-15814734D02*
X9624468Y-15824258D01*
X9624468Y-15824258D02*
X9633991Y-15833781D01*
X9633991Y-15833781D02*
X9643515Y-15852829D01*
X9643515Y-15852829D02*
X9643515Y-15862353D01*
X9643515Y-15862353D02*
X9633991Y-15881400D01*
X9633991Y-15881400D02*
X9624468Y-15890924D01*
X9624468Y-15890924D02*
X9605420Y-15900448D01*
X9605420Y-15900448D02*
X9567325Y-15900448D01*
X9567325Y-15900448D02*
X9548277Y-15909972D01*
X9548277Y-15909972D02*
X9538753Y-15919496D01*
X9538753Y-15919496D02*
X9529230Y-15938543D01*
X9529230Y-15938543D02*
X9529230Y-15976638D01*
X9529230Y-15976638D02*
X9538753Y-15995686D01*
X9538753Y-15995686D02*
X9548277Y-16005210D01*
X9548277Y-16005210D02*
X9567325Y-16014734D01*
X9567325Y-16014734D02*
X9605420Y-16014734D01*
X9605420Y-16014734D02*
X9624468Y-16005210D01*
X9624468Y-16005210D02*
X9633991Y-15995686D01*
X9633991Y-15995686D02*
X9643515Y-15976638D01*
X9643515Y-15976638D02*
X9643515Y-15938543D01*
X9643515Y-15938543D02*
X9633991Y-15919496D01*
X9633991Y-15919496D02*
X9624468Y-15909972D01*
X9624468Y-15909972D02*
X9605420Y-15900448D01*
X9767325Y-15814734D02*
X9786372Y-15814734D01*
X9786372Y-15814734D02*
X9805420Y-15824258D01*
X9805420Y-15824258D02*
X9814944Y-15833781D01*
X9814944Y-15833781D02*
X9824468Y-15852829D01*
X9824468Y-15852829D02*
X9833991Y-15890924D01*
X9833991Y-15890924D02*
X9833991Y-15938543D01*
X9833991Y-15938543D02*
X9824468Y-15976638D01*
X9824468Y-15976638D02*
X9814944Y-15995686D01*
X9814944Y-15995686D02*
X9805420Y-16005210D01*
X9805420Y-16005210D02*
X9786372Y-16014734D01*
X9786372Y-16014734D02*
X9767325Y-16014734D01*
X9767325Y-16014734D02*
X9748277Y-16005210D01*
X9748277Y-16005210D02*
X9738753Y-15995686D01*
X9738753Y-15995686D02*
X9729230Y-15976638D01*
X9729230Y-15976638D02*
X9719706Y-15938543D01*
X9719706Y-15938543D02*
X9719706Y-15890924D01*
X9719706Y-15890924D02*
X9729230Y-15852829D01*
X9729230Y-15852829D02*
X9738753Y-15833781D01*
X9738753Y-15833781D02*
X9748277Y-15824258D01*
X9748277Y-15824258D02*
X9767325Y-15814734D01*
X9948277Y-15900448D02*
X9929230Y-15890924D01*
X9929230Y-15890924D02*
X9919706Y-15881400D01*
X9919706Y-15881400D02*
X9910182Y-15862353D01*
X9910182Y-15862353D02*
X9910182Y-15852829D01*
X9910182Y-15852829D02*
X9919706Y-15833781D01*
X9919706Y-15833781D02*
X9929230Y-15824258D01*
X9929230Y-15824258D02*
X9948277Y-15814734D01*
X9948277Y-15814734D02*
X9986372Y-15814734D01*
X9986372Y-15814734D02*
X10005420Y-15824258D01*
X10005420Y-15824258D02*
X10014944Y-15833781D01*
X10014944Y-15833781D02*
X10024468Y-15852829D01*
X10024468Y-15852829D02*
X10024468Y-15862353D01*
X10024468Y-15862353D02*
X10014944Y-15881400D01*
X10014944Y-15881400D02*
X10005420Y-15890924D01*
X10005420Y-15890924D02*
X9986372Y-15900448D01*
X9986372Y-15900448D02*
X9948277Y-15900448D01*
X9948277Y-15900448D02*
X9929230Y-15909972D01*
X9929230Y-15909972D02*
X9919706Y-15919496D01*
X9919706Y-15919496D02*
X9910182Y-15938543D01*
X9910182Y-15938543D02*
X9910182Y-15976638D01*
X9910182Y-15976638D02*
X9919706Y-15995686D01*
X9919706Y-15995686D02*
X9929230Y-16005210D01*
X9929230Y-16005210D02*
X9948277Y-16014734D01*
X9948277Y-16014734D02*
X9986372Y-16014734D01*
X9986372Y-16014734D02*
X10005420Y-16005210D01*
X10005420Y-16005210D02*
X10014944Y-15995686D01*
X10014944Y-15995686D02*
X10024468Y-15976638D01*
X10024468Y-15976638D02*
X10024468Y-15938543D01*
X10024468Y-15938543D02*
X10014944Y-15919496D01*
X10014944Y-15919496D02*
X10005420Y-15909972D01*
X10005420Y-15909972D02*
X9986372Y-15900448D01*
X10262563Y-16014734D02*
X10262563Y-15814734D01*
X10348277Y-16014734D02*
X10348277Y-15909972D01*
X10348277Y-15909972D02*
X10338753Y-15890924D01*
X10338753Y-15890924D02*
X10319706Y-15881400D01*
X10319706Y-15881400D02*
X10291134Y-15881400D01*
X10291134Y-15881400D02*
X10272087Y-15890924D01*
X10272087Y-15890924D02*
X10262563Y-15900448D01*
X10472087Y-16014734D02*
X10453039Y-16005210D01*
X10453039Y-16005210D02*
X10443515Y-15995686D01*
X10443515Y-15995686D02*
X10433992Y-15976638D01*
X10433992Y-15976638D02*
X10433992Y-15919496D01*
X10433992Y-15919496D02*
X10443515Y-15900448D01*
X10443515Y-15900448D02*
X10453039Y-15890924D01*
X10453039Y-15890924D02*
X10472087Y-15881400D01*
X10472087Y-15881400D02*
X10500658Y-15881400D01*
X10500658Y-15881400D02*
X10519706Y-15890924D01*
X10519706Y-15890924D02*
X10529230Y-15900448D01*
X10529230Y-15900448D02*
X10538753Y-15919496D01*
X10538753Y-15919496D02*
X10538753Y-15976638D01*
X10538753Y-15976638D02*
X10529230Y-15995686D01*
X10529230Y-15995686D02*
X10519706Y-16005210D01*
X10519706Y-16005210D02*
X10500658Y-16014734D01*
X10500658Y-16014734D02*
X10472087Y-16014734D01*
X10653039Y-16014734D02*
X10633992Y-16005210D01*
X10633992Y-16005210D02*
X10624468Y-15986162D01*
X10624468Y-15986162D02*
X10624468Y-15814734D01*
X10805420Y-16005210D02*
X10786373Y-16014734D01*
X10786373Y-16014734D02*
X10748277Y-16014734D01*
X10748277Y-16014734D02*
X10729230Y-16005210D01*
X10729230Y-16005210D02*
X10719706Y-15986162D01*
X10719706Y-15986162D02*
X10719706Y-15909972D01*
X10719706Y-15909972D02*
X10729230Y-15890924D01*
X10729230Y-15890924D02*
X10748277Y-15881400D01*
X10748277Y-15881400D02*
X10786373Y-15881400D01*
X10786373Y-15881400D02*
X10805420Y-15890924D01*
X10805420Y-15890924D02*
X10814944Y-15909972D01*
X10814944Y-15909972D02*
X10814944Y-15929019D01*
X10814944Y-15929019D02*
X10719706Y-15948067D01*
X10891134Y-16005210D02*
X10910182Y-16014734D01*
X10910182Y-16014734D02*
X10948277Y-16014734D01*
X10948277Y-16014734D02*
X10967325Y-16005210D01*
X10967325Y-16005210D02*
X10976849Y-15986162D01*
X10976849Y-15986162D02*
X10976849Y-15976638D01*
X10976849Y-15976638D02*
X10967325Y-15957591D01*
X10967325Y-15957591D02*
X10948277Y-15948067D01*
X10948277Y-15948067D02*
X10919706Y-15948067D01*
X10919706Y-15948067D02*
X10900658Y-15938543D01*
X10900658Y-15938543D02*
X10891134Y-15919496D01*
X10891134Y-15919496D02*
X10891134Y-15909972D01*
X10891134Y-15909972D02*
X10900658Y-15890924D01*
X10900658Y-15890924D02*
X10919706Y-15881400D01*
X10919706Y-15881400D02*
X10948277Y-15881400D01*
X10948277Y-15881400D02*
X10967325Y-15890924D01*
X11043515Y-16090924D02*
X11053039Y-16081400D01*
X11053039Y-16081400D02*
X11072087Y-16052829D01*
X11072087Y-16052829D02*
X11081611Y-16033781D01*
X11081611Y-16033781D02*
X11091134Y-16005210D01*
X11091134Y-16005210D02*
X11100658Y-15957591D01*
X11100658Y-15957591D02*
X11100658Y-15919496D01*
X11100658Y-15919496D02*
X11091134Y-15871877D01*
X11091134Y-15871877D02*
X11081611Y-15843305D01*
X11081611Y-15843305D02*
X11072087Y-15824258D01*
X11072087Y-15824258D02*
X11053039Y-15795686D01*
X11053039Y-15795686D02*
X11043515Y-15786162D01*
D12*
X5887500Y-16187250D02*
G75*
G02*
X5857500Y-16187250I-15000J0D01*
G01*
X5857500Y-16187250D02*
G75*
G02*
X5887500Y-16187250I15000J0D01*
G01*
D11*
X6186372Y-16078734D02*
X6205420Y-16078734D01*
X6205420Y-16078734D02*
X6224467Y-16088258D01*
X6224467Y-16088258D02*
X6233991Y-16097781D01*
X6233991Y-16097781D02*
X6243515Y-16116829D01*
X6243515Y-16116829D02*
X6253039Y-16154924D01*
X6253039Y-16154924D02*
X6253039Y-16202543D01*
X6253039Y-16202543D02*
X6243515Y-16240638D01*
X6243515Y-16240638D02*
X6233991Y-16259686D01*
X6233991Y-16259686D02*
X6224467Y-16269210D01*
X6224467Y-16269210D02*
X6205420Y-16278734D01*
X6205420Y-16278734D02*
X6186372Y-16278734D01*
X6186372Y-16278734D02*
X6167324Y-16269210D01*
X6167324Y-16269210D02*
X6157801Y-16259686D01*
X6157801Y-16259686D02*
X6148277Y-16240638D01*
X6148277Y-16240638D02*
X6138753Y-16202543D01*
X6138753Y-16202543D02*
X6138753Y-16154924D01*
X6138753Y-16154924D02*
X6148277Y-16116829D01*
X6148277Y-16116829D02*
X6157801Y-16097781D01*
X6157801Y-16097781D02*
X6167324Y-16088258D01*
X6167324Y-16088258D02*
X6186372Y-16078734D01*
X6338753Y-16259686D02*
X6348277Y-16269210D01*
X6348277Y-16269210D02*
X6338753Y-16278734D01*
X6338753Y-16278734D02*
X6329229Y-16269210D01*
X6329229Y-16269210D02*
X6338753Y-16259686D01*
X6338753Y-16259686D02*
X6338753Y-16278734D01*
X6414943Y-16078734D02*
X6538753Y-16078734D01*
X6538753Y-16078734D02*
X6472086Y-16154924D01*
X6472086Y-16154924D02*
X6500658Y-16154924D01*
X6500658Y-16154924D02*
X6519705Y-16164448D01*
X6519705Y-16164448D02*
X6529229Y-16173972D01*
X6529229Y-16173972D02*
X6538753Y-16193019D01*
X6538753Y-16193019D02*
X6538753Y-16240638D01*
X6538753Y-16240638D02*
X6529229Y-16259686D01*
X6529229Y-16259686D02*
X6519705Y-16269210D01*
X6519705Y-16269210D02*
X6500658Y-16278734D01*
X6500658Y-16278734D02*
X6443515Y-16278734D01*
X6443515Y-16278734D02*
X6424467Y-16269210D01*
X6424467Y-16269210D02*
X6414943Y-16259686D01*
X6662562Y-16078734D02*
X6681610Y-16078734D01*
X6681610Y-16078734D02*
X6700658Y-16088258D01*
X6700658Y-16088258D02*
X6710182Y-16097781D01*
X6710182Y-16097781D02*
X6719705Y-16116829D01*
X6719705Y-16116829D02*
X6729229Y-16154924D01*
X6729229Y-16154924D02*
X6729229Y-16202543D01*
X6729229Y-16202543D02*
X6719705Y-16240638D01*
X6719705Y-16240638D02*
X6710182Y-16259686D01*
X6710182Y-16259686D02*
X6700658Y-16269210D01*
X6700658Y-16269210D02*
X6681610Y-16278734D01*
X6681610Y-16278734D02*
X6662562Y-16278734D01*
X6662562Y-16278734D02*
X6643515Y-16269210D01*
X6643515Y-16269210D02*
X6633991Y-16259686D01*
X6633991Y-16259686D02*
X6624467Y-16240638D01*
X6624467Y-16240638D02*
X6614943Y-16202543D01*
X6614943Y-16202543D02*
X6614943Y-16154924D01*
X6614943Y-16154924D02*
X6624467Y-16116829D01*
X6624467Y-16116829D02*
X6633991Y-16097781D01*
X6633991Y-16097781D02*
X6643515Y-16088258D01*
X6643515Y-16088258D02*
X6662562Y-16078734D01*
X6853039Y-16078734D02*
X6872086Y-16078734D01*
X6872086Y-16078734D02*
X6891134Y-16088258D01*
X6891134Y-16088258D02*
X6900658Y-16097781D01*
X6900658Y-16097781D02*
X6910182Y-16116829D01*
X6910182Y-16116829D02*
X6919705Y-16154924D01*
X6919705Y-16154924D02*
X6919705Y-16202543D01*
X6919705Y-16202543D02*
X6910182Y-16240638D01*
X6910182Y-16240638D02*
X6900658Y-16259686D01*
X6900658Y-16259686D02*
X6891134Y-16269210D01*
X6891134Y-16269210D02*
X6872086Y-16278734D01*
X6872086Y-16278734D02*
X6853039Y-16278734D01*
X6853039Y-16278734D02*
X6833991Y-16269210D01*
X6833991Y-16269210D02*
X6824467Y-16259686D01*
X6824467Y-16259686D02*
X6814943Y-16240638D01*
X6814943Y-16240638D02*
X6805420Y-16202543D01*
X6805420Y-16202543D02*
X6805420Y-16154924D01*
X6805420Y-16154924D02*
X6814943Y-16116829D01*
X6814943Y-16116829D02*
X6824467Y-16097781D01*
X6824467Y-16097781D02*
X6833991Y-16088258D01*
X6833991Y-16088258D02*
X6853039Y-16078734D01*
X7005420Y-16278734D02*
X7005420Y-16145400D01*
X7005420Y-16164448D02*
X7014943Y-16154924D01*
X7014943Y-16154924D02*
X7033991Y-16145400D01*
X7033991Y-16145400D02*
X7062563Y-16145400D01*
X7062563Y-16145400D02*
X7081610Y-16154924D01*
X7081610Y-16154924D02*
X7091134Y-16173972D01*
X7091134Y-16173972D02*
X7091134Y-16278734D01*
X7091134Y-16173972D02*
X7100658Y-16154924D01*
X7100658Y-16154924D02*
X7119705Y-16145400D01*
X7119705Y-16145400D02*
X7148277Y-16145400D01*
X7148277Y-16145400D02*
X7167324Y-16154924D01*
X7167324Y-16154924D02*
X7176848Y-16173972D01*
X7176848Y-16173972D02*
X7176848Y-16278734D01*
X7272086Y-16278734D02*
X7272086Y-16145400D01*
X7272086Y-16164448D02*
X7281610Y-16154924D01*
X7281610Y-16154924D02*
X7300658Y-16145400D01*
X7300658Y-16145400D02*
X7329229Y-16145400D01*
X7329229Y-16145400D02*
X7348277Y-16154924D01*
X7348277Y-16154924D02*
X7357801Y-16173972D01*
X7357801Y-16173972D02*
X7357801Y-16278734D01*
X7357801Y-16173972D02*
X7367324Y-16154924D01*
X7367324Y-16154924D02*
X7386372Y-16145400D01*
X7386372Y-16145400D02*
X7414943Y-16145400D01*
X7414943Y-16145400D02*
X7433991Y-16154924D01*
X7433991Y-16154924D02*
X7443515Y-16173972D01*
X7443515Y-16173972D02*
X7443515Y-16278734D01*
X7833991Y-16069210D02*
X7662563Y-16326353D01*
X8091134Y-16078734D02*
X8110182Y-16078734D01*
X8110182Y-16078734D02*
X8129229Y-16088258D01*
X8129229Y-16088258D02*
X8138753Y-16097781D01*
X8138753Y-16097781D02*
X8148277Y-16116829D01*
X8148277Y-16116829D02*
X8157801Y-16154924D01*
X8157801Y-16154924D02*
X8157801Y-16202543D01*
X8157801Y-16202543D02*
X8148277Y-16240638D01*
X8148277Y-16240638D02*
X8138753Y-16259686D01*
X8138753Y-16259686D02*
X8129229Y-16269210D01*
X8129229Y-16269210D02*
X8110182Y-16278734D01*
X8110182Y-16278734D02*
X8091134Y-16278734D01*
X8091134Y-16278734D02*
X8072086Y-16269210D01*
X8072086Y-16269210D02*
X8062563Y-16259686D01*
X8062563Y-16259686D02*
X8053039Y-16240638D01*
X8053039Y-16240638D02*
X8043515Y-16202543D01*
X8043515Y-16202543D02*
X8043515Y-16154924D01*
X8043515Y-16154924D02*
X8053039Y-16116829D01*
X8053039Y-16116829D02*
X8062563Y-16097781D01*
X8062563Y-16097781D02*
X8072086Y-16088258D01*
X8072086Y-16088258D02*
X8091134Y-16078734D01*
X8243515Y-16259686D02*
X8253039Y-16269210D01*
X8253039Y-16269210D02*
X8243515Y-16278734D01*
X8243515Y-16278734D02*
X8233991Y-16269210D01*
X8233991Y-16269210D02*
X8243515Y-16259686D01*
X8243515Y-16259686D02*
X8243515Y-16278734D01*
X8376848Y-16078734D02*
X8395896Y-16078734D01*
X8395896Y-16078734D02*
X8414944Y-16088258D01*
X8414944Y-16088258D02*
X8424468Y-16097781D01*
X8424468Y-16097781D02*
X8433991Y-16116829D01*
X8433991Y-16116829D02*
X8443515Y-16154924D01*
X8443515Y-16154924D02*
X8443515Y-16202543D01*
X8443515Y-16202543D02*
X8433991Y-16240638D01*
X8433991Y-16240638D02*
X8424468Y-16259686D01*
X8424468Y-16259686D02*
X8414944Y-16269210D01*
X8414944Y-16269210D02*
X8395896Y-16278734D01*
X8395896Y-16278734D02*
X8376848Y-16278734D01*
X8376848Y-16278734D02*
X8357801Y-16269210D01*
X8357801Y-16269210D02*
X8348277Y-16259686D01*
X8348277Y-16259686D02*
X8338753Y-16240638D01*
X8338753Y-16240638D02*
X8329229Y-16202543D01*
X8329229Y-16202543D02*
X8329229Y-16154924D01*
X8329229Y-16154924D02*
X8338753Y-16116829D01*
X8338753Y-16116829D02*
X8348277Y-16097781D01*
X8348277Y-16097781D02*
X8357801Y-16088258D01*
X8357801Y-16088258D02*
X8376848Y-16078734D01*
X8633991Y-16278734D02*
X8519706Y-16278734D01*
X8576848Y-16278734D02*
X8576848Y-16078734D01*
X8576848Y-16078734D02*
X8557801Y-16107305D01*
X8557801Y-16107305D02*
X8538753Y-16126353D01*
X8538753Y-16126353D02*
X8519706Y-16135877D01*
X8824468Y-16278734D02*
X8710182Y-16278734D01*
X8767325Y-16278734D02*
X8767325Y-16078734D01*
X8767325Y-16078734D02*
X8748277Y-16107305D01*
X8748277Y-16107305D02*
X8729229Y-16126353D01*
X8729229Y-16126353D02*
X8710182Y-16135877D01*
X8938753Y-16164448D02*
X8919706Y-16154924D01*
X8919706Y-16154924D02*
X8910182Y-16145400D01*
X8910182Y-16145400D02*
X8900658Y-16126353D01*
X8900658Y-16126353D02*
X8900658Y-16116829D01*
X8900658Y-16116829D02*
X8910182Y-16097781D01*
X8910182Y-16097781D02*
X8919706Y-16088258D01*
X8919706Y-16088258D02*
X8938753Y-16078734D01*
X8938753Y-16078734D02*
X8976849Y-16078734D01*
X8976849Y-16078734D02*
X8995896Y-16088258D01*
X8995896Y-16088258D02*
X9005420Y-16097781D01*
X9005420Y-16097781D02*
X9014944Y-16116829D01*
X9014944Y-16116829D02*
X9014944Y-16126353D01*
X9014944Y-16126353D02*
X9005420Y-16145400D01*
X9005420Y-16145400D02*
X8995896Y-16154924D01*
X8995896Y-16154924D02*
X8976849Y-16164448D01*
X8976849Y-16164448D02*
X8938753Y-16164448D01*
X8938753Y-16164448D02*
X8919706Y-16173972D01*
X8919706Y-16173972D02*
X8910182Y-16183496D01*
X8910182Y-16183496D02*
X8900658Y-16202543D01*
X8900658Y-16202543D02*
X8900658Y-16240638D01*
X8900658Y-16240638D02*
X8910182Y-16259686D01*
X8910182Y-16259686D02*
X8919706Y-16269210D01*
X8919706Y-16269210D02*
X8938753Y-16278734D01*
X8938753Y-16278734D02*
X8976849Y-16278734D01*
X8976849Y-16278734D02*
X8995896Y-16269210D01*
X8995896Y-16269210D02*
X9005420Y-16259686D01*
X9005420Y-16259686D02*
X9014944Y-16240638D01*
X9014944Y-16240638D02*
X9014944Y-16202543D01*
X9014944Y-16202543D02*
X9005420Y-16183496D01*
X9005420Y-16183496D02*
X8995896Y-16173972D01*
X8995896Y-16173972D02*
X8976849Y-16164448D01*
X9091134Y-16078734D02*
X9091134Y-16116829D01*
X9167325Y-16078734D02*
X9167325Y-16116829D01*
X9462563Y-16354924D02*
X9453039Y-16345400D01*
X9453039Y-16345400D02*
X9433991Y-16316829D01*
X9433991Y-16316829D02*
X9424468Y-16297781D01*
X9424468Y-16297781D02*
X9414944Y-16269210D01*
X9414944Y-16269210D02*
X9405420Y-16221591D01*
X9405420Y-16221591D02*
X9405420Y-16183496D01*
X9405420Y-16183496D02*
X9414944Y-16135877D01*
X9414944Y-16135877D02*
X9424468Y-16107305D01*
X9424468Y-16107305D02*
X9433991Y-16088258D01*
X9433991Y-16088258D02*
X9453039Y-16059686D01*
X9453039Y-16059686D02*
X9462563Y-16050162D01*
X9529230Y-16097781D02*
X9538753Y-16088258D01*
X9538753Y-16088258D02*
X9557801Y-16078734D01*
X9557801Y-16078734D02*
X9605420Y-16078734D01*
X9605420Y-16078734D02*
X9624468Y-16088258D01*
X9624468Y-16088258D02*
X9633991Y-16097781D01*
X9633991Y-16097781D02*
X9643515Y-16116829D01*
X9643515Y-16116829D02*
X9643515Y-16135877D01*
X9643515Y-16135877D02*
X9633991Y-16164448D01*
X9633991Y-16164448D02*
X9519706Y-16278734D01*
X9519706Y-16278734D02*
X9643515Y-16278734D01*
X9814944Y-16145400D02*
X9814944Y-16278734D01*
X9767325Y-16069210D02*
X9719706Y-16212067D01*
X9719706Y-16212067D02*
X9843515Y-16212067D01*
X10072087Y-16278734D02*
X10072087Y-16078734D01*
X10157801Y-16278734D02*
X10157801Y-16173972D01*
X10157801Y-16173972D02*
X10148277Y-16154924D01*
X10148277Y-16154924D02*
X10129230Y-16145400D01*
X10129230Y-16145400D02*
X10100658Y-16145400D01*
X10100658Y-16145400D02*
X10081611Y-16154924D01*
X10081611Y-16154924D02*
X10072087Y-16164448D01*
X10281611Y-16278734D02*
X10262563Y-16269210D01*
X10262563Y-16269210D02*
X10253039Y-16259686D01*
X10253039Y-16259686D02*
X10243515Y-16240638D01*
X10243515Y-16240638D02*
X10243515Y-16183496D01*
X10243515Y-16183496D02*
X10253039Y-16164448D01*
X10253039Y-16164448D02*
X10262563Y-16154924D01*
X10262563Y-16154924D02*
X10281611Y-16145400D01*
X10281611Y-16145400D02*
X10310182Y-16145400D01*
X10310182Y-16145400D02*
X10329230Y-16154924D01*
X10329230Y-16154924D02*
X10338753Y-16164448D01*
X10338753Y-16164448D02*
X10348277Y-16183496D01*
X10348277Y-16183496D02*
X10348277Y-16240638D01*
X10348277Y-16240638D02*
X10338753Y-16259686D01*
X10338753Y-16259686D02*
X10329230Y-16269210D01*
X10329230Y-16269210D02*
X10310182Y-16278734D01*
X10310182Y-16278734D02*
X10281611Y-16278734D01*
X10462563Y-16278734D02*
X10443515Y-16269210D01*
X10443515Y-16269210D02*
X10433992Y-16250162D01*
X10433992Y-16250162D02*
X10433992Y-16078734D01*
X10614944Y-16269210D02*
X10595896Y-16278734D01*
X10595896Y-16278734D02*
X10557801Y-16278734D01*
X10557801Y-16278734D02*
X10538753Y-16269210D01*
X10538753Y-16269210D02*
X10529230Y-16250162D01*
X10529230Y-16250162D02*
X10529230Y-16173972D01*
X10529230Y-16173972D02*
X10538753Y-16154924D01*
X10538753Y-16154924D02*
X10557801Y-16145400D01*
X10557801Y-16145400D02*
X10595896Y-16145400D01*
X10595896Y-16145400D02*
X10614944Y-16154924D01*
X10614944Y-16154924D02*
X10624468Y-16173972D01*
X10624468Y-16173972D02*
X10624468Y-16193019D01*
X10624468Y-16193019D02*
X10529230Y-16212067D01*
X10700658Y-16269210D02*
X10719706Y-16278734D01*
X10719706Y-16278734D02*
X10757801Y-16278734D01*
X10757801Y-16278734D02*
X10776849Y-16269210D01*
X10776849Y-16269210D02*
X10786373Y-16250162D01*
X10786373Y-16250162D02*
X10786373Y-16240638D01*
X10786373Y-16240638D02*
X10776849Y-16221591D01*
X10776849Y-16221591D02*
X10757801Y-16212067D01*
X10757801Y-16212067D02*
X10729230Y-16212067D01*
X10729230Y-16212067D02*
X10710182Y-16202543D01*
X10710182Y-16202543D02*
X10700658Y-16183496D01*
X10700658Y-16183496D02*
X10700658Y-16173972D01*
X10700658Y-16173972D02*
X10710182Y-16154924D01*
X10710182Y-16154924D02*
X10729230Y-16145400D01*
X10729230Y-16145400D02*
X10757801Y-16145400D01*
X10757801Y-16145400D02*
X10776849Y-16154924D01*
X10853039Y-16354924D02*
X10862563Y-16345400D01*
X10862563Y-16345400D02*
X10881611Y-16316829D01*
X10881611Y-16316829D02*
X10891134Y-16297781D01*
X10891134Y-16297781D02*
X10900658Y-16269210D01*
X10900658Y-16269210D02*
X10910182Y-16221591D01*
X10910182Y-16221591D02*
X10910182Y-16183496D01*
X10910182Y-16183496D02*
X10900658Y-16135877D01*
X10900658Y-16135877D02*
X10891134Y-16107305D01*
X10891134Y-16107305D02*
X10881611Y-16088258D01*
X10881611Y-16088258D02*
X10862563Y-16059686D01*
X10862563Y-16059686D02*
X10853039Y-16050162D01*
D12*
X5850000Y-16413750D02*
X5850000Y-16488750D01*
X5812500Y-16451250D02*
X5887500Y-16451250D01*
D11*
X6186372Y-16342734D02*
X6205420Y-16342734D01*
X6205420Y-16342734D02*
X6224467Y-16352258D01*
X6224467Y-16352258D02*
X6233991Y-16361781D01*
X6233991Y-16361781D02*
X6243515Y-16380829D01*
X6243515Y-16380829D02*
X6253039Y-16418924D01*
X6253039Y-16418924D02*
X6253039Y-16466543D01*
X6253039Y-16466543D02*
X6243515Y-16504638D01*
X6243515Y-16504638D02*
X6233991Y-16523686D01*
X6233991Y-16523686D02*
X6224467Y-16533210D01*
X6224467Y-16533210D02*
X6205420Y-16542734D01*
X6205420Y-16542734D02*
X6186372Y-16542734D01*
X6186372Y-16542734D02*
X6167324Y-16533210D01*
X6167324Y-16533210D02*
X6157801Y-16523686D01*
X6157801Y-16523686D02*
X6148277Y-16504638D01*
X6148277Y-16504638D02*
X6138753Y-16466543D01*
X6138753Y-16466543D02*
X6138753Y-16418924D01*
X6138753Y-16418924D02*
X6148277Y-16380829D01*
X6148277Y-16380829D02*
X6157801Y-16361781D01*
X6157801Y-16361781D02*
X6167324Y-16352258D01*
X6167324Y-16352258D02*
X6186372Y-16342734D01*
X6338753Y-16523686D02*
X6348277Y-16533210D01*
X6348277Y-16533210D02*
X6338753Y-16542734D01*
X6338753Y-16542734D02*
X6329229Y-16533210D01*
X6329229Y-16533210D02*
X6338753Y-16523686D01*
X6338753Y-16523686D02*
X6338753Y-16542734D01*
X6414943Y-16342734D02*
X6548277Y-16342734D01*
X6548277Y-16342734D02*
X6462562Y-16542734D01*
X6719705Y-16342734D02*
X6624467Y-16342734D01*
X6624467Y-16342734D02*
X6614943Y-16437972D01*
X6614943Y-16437972D02*
X6624467Y-16428448D01*
X6624467Y-16428448D02*
X6643515Y-16418924D01*
X6643515Y-16418924D02*
X6691134Y-16418924D01*
X6691134Y-16418924D02*
X6710182Y-16428448D01*
X6710182Y-16428448D02*
X6719705Y-16437972D01*
X6719705Y-16437972D02*
X6729229Y-16457019D01*
X6729229Y-16457019D02*
X6729229Y-16504638D01*
X6729229Y-16504638D02*
X6719705Y-16523686D01*
X6719705Y-16523686D02*
X6710182Y-16533210D01*
X6710182Y-16533210D02*
X6691134Y-16542734D01*
X6691134Y-16542734D02*
X6643515Y-16542734D01*
X6643515Y-16542734D02*
X6624467Y-16533210D01*
X6624467Y-16533210D02*
X6614943Y-16523686D01*
X6853039Y-16342734D02*
X6872086Y-16342734D01*
X6872086Y-16342734D02*
X6891134Y-16352258D01*
X6891134Y-16352258D02*
X6900658Y-16361781D01*
X6900658Y-16361781D02*
X6910182Y-16380829D01*
X6910182Y-16380829D02*
X6919705Y-16418924D01*
X6919705Y-16418924D02*
X6919705Y-16466543D01*
X6919705Y-16466543D02*
X6910182Y-16504638D01*
X6910182Y-16504638D02*
X6900658Y-16523686D01*
X6900658Y-16523686D02*
X6891134Y-16533210D01*
X6891134Y-16533210D02*
X6872086Y-16542734D01*
X6872086Y-16542734D02*
X6853039Y-16542734D01*
X6853039Y-16542734D02*
X6833991Y-16533210D01*
X6833991Y-16533210D02*
X6824467Y-16523686D01*
X6824467Y-16523686D02*
X6814943Y-16504638D01*
X6814943Y-16504638D02*
X6805420Y-16466543D01*
X6805420Y-16466543D02*
X6805420Y-16418924D01*
X6805420Y-16418924D02*
X6814943Y-16380829D01*
X6814943Y-16380829D02*
X6824467Y-16361781D01*
X6824467Y-16361781D02*
X6833991Y-16352258D01*
X6833991Y-16352258D02*
X6853039Y-16342734D01*
X7005420Y-16542734D02*
X7005420Y-16409400D01*
X7005420Y-16428448D02*
X7014943Y-16418924D01*
X7014943Y-16418924D02*
X7033991Y-16409400D01*
X7033991Y-16409400D02*
X7062563Y-16409400D01*
X7062563Y-16409400D02*
X7081610Y-16418924D01*
X7081610Y-16418924D02*
X7091134Y-16437972D01*
X7091134Y-16437972D02*
X7091134Y-16542734D01*
X7091134Y-16437972D02*
X7100658Y-16418924D01*
X7100658Y-16418924D02*
X7119705Y-16409400D01*
X7119705Y-16409400D02*
X7148277Y-16409400D01*
X7148277Y-16409400D02*
X7167324Y-16418924D01*
X7167324Y-16418924D02*
X7176848Y-16437972D01*
X7176848Y-16437972D02*
X7176848Y-16542734D01*
X7272086Y-16542734D02*
X7272086Y-16409400D01*
X7272086Y-16428448D02*
X7281610Y-16418924D01*
X7281610Y-16418924D02*
X7300658Y-16409400D01*
X7300658Y-16409400D02*
X7329229Y-16409400D01*
X7329229Y-16409400D02*
X7348277Y-16418924D01*
X7348277Y-16418924D02*
X7357801Y-16437972D01*
X7357801Y-16437972D02*
X7357801Y-16542734D01*
X7357801Y-16437972D02*
X7367324Y-16418924D01*
X7367324Y-16418924D02*
X7386372Y-16409400D01*
X7386372Y-16409400D02*
X7414943Y-16409400D01*
X7414943Y-16409400D02*
X7433991Y-16418924D01*
X7433991Y-16418924D02*
X7443515Y-16437972D01*
X7443515Y-16437972D02*
X7443515Y-16542734D01*
X7833991Y-16333210D02*
X7662563Y-16590353D01*
X8091134Y-16342734D02*
X8110182Y-16342734D01*
X8110182Y-16342734D02*
X8129229Y-16352258D01*
X8129229Y-16352258D02*
X8138753Y-16361781D01*
X8138753Y-16361781D02*
X8148277Y-16380829D01*
X8148277Y-16380829D02*
X8157801Y-16418924D01*
X8157801Y-16418924D02*
X8157801Y-16466543D01*
X8157801Y-16466543D02*
X8148277Y-16504638D01*
X8148277Y-16504638D02*
X8138753Y-16523686D01*
X8138753Y-16523686D02*
X8129229Y-16533210D01*
X8129229Y-16533210D02*
X8110182Y-16542734D01*
X8110182Y-16542734D02*
X8091134Y-16542734D01*
X8091134Y-16542734D02*
X8072086Y-16533210D01*
X8072086Y-16533210D02*
X8062563Y-16523686D01*
X8062563Y-16523686D02*
X8053039Y-16504638D01*
X8053039Y-16504638D02*
X8043515Y-16466543D01*
X8043515Y-16466543D02*
X8043515Y-16418924D01*
X8043515Y-16418924D02*
X8053039Y-16380829D01*
X8053039Y-16380829D02*
X8062563Y-16361781D01*
X8062563Y-16361781D02*
X8072086Y-16352258D01*
X8072086Y-16352258D02*
X8091134Y-16342734D01*
X8243515Y-16523686D02*
X8253039Y-16533210D01*
X8253039Y-16533210D02*
X8243515Y-16542734D01*
X8243515Y-16542734D02*
X8233991Y-16533210D01*
X8233991Y-16533210D02*
X8243515Y-16523686D01*
X8243515Y-16523686D02*
X8243515Y-16542734D01*
X8376848Y-16342734D02*
X8395896Y-16342734D01*
X8395896Y-16342734D02*
X8414944Y-16352258D01*
X8414944Y-16352258D02*
X8424468Y-16361781D01*
X8424468Y-16361781D02*
X8433991Y-16380829D01*
X8433991Y-16380829D02*
X8443515Y-16418924D01*
X8443515Y-16418924D02*
X8443515Y-16466543D01*
X8443515Y-16466543D02*
X8433991Y-16504638D01*
X8433991Y-16504638D02*
X8424468Y-16523686D01*
X8424468Y-16523686D02*
X8414944Y-16533210D01*
X8414944Y-16533210D02*
X8395896Y-16542734D01*
X8395896Y-16542734D02*
X8376848Y-16542734D01*
X8376848Y-16542734D02*
X8357801Y-16533210D01*
X8357801Y-16533210D02*
X8348277Y-16523686D01*
X8348277Y-16523686D02*
X8338753Y-16504638D01*
X8338753Y-16504638D02*
X8329229Y-16466543D01*
X8329229Y-16466543D02*
X8329229Y-16418924D01*
X8329229Y-16418924D02*
X8338753Y-16380829D01*
X8338753Y-16380829D02*
X8348277Y-16361781D01*
X8348277Y-16361781D02*
X8357801Y-16352258D01*
X8357801Y-16352258D02*
X8376848Y-16342734D01*
X8519706Y-16361781D02*
X8529229Y-16352258D01*
X8529229Y-16352258D02*
X8548277Y-16342734D01*
X8548277Y-16342734D02*
X8595896Y-16342734D01*
X8595896Y-16342734D02*
X8614944Y-16352258D01*
X8614944Y-16352258D02*
X8624468Y-16361781D01*
X8624468Y-16361781D02*
X8633991Y-16380829D01*
X8633991Y-16380829D02*
X8633991Y-16399877D01*
X8633991Y-16399877D02*
X8624468Y-16428448D01*
X8624468Y-16428448D02*
X8510182Y-16542734D01*
X8510182Y-16542734D02*
X8633991Y-16542734D01*
X8729229Y-16542734D02*
X8767325Y-16542734D01*
X8767325Y-16542734D02*
X8786372Y-16533210D01*
X8786372Y-16533210D02*
X8795896Y-16523686D01*
X8795896Y-16523686D02*
X8814944Y-16495115D01*
X8814944Y-16495115D02*
X8824468Y-16457019D01*
X8824468Y-16457019D02*
X8824468Y-16380829D01*
X8824468Y-16380829D02*
X8814944Y-16361781D01*
X8814944Y-16361781D02*
X8805420Y-16352258D01*
X8805420Y-16352258D02*
X8786372Y-16342734D01*
X8786372Y-16342734D02*
X8748277Y-16342734D01*
X8748277Y-16342734D02*
X8729229Y-16352258D01*
X8729229Y-16352258D02*
X8719706Y-16361781D01*
X8719706Y-16361781D02*
X8710182Y-16380829D01*
X8710182Y-16380829D02*
X8710182Y-16428448D01*
X8710182Y-16428448D02*
X8719706Y-16447496D01*
X8719706Y-16447496D02*
X8729229Y-16457019D01*
X8729229Y-16457019D02*
X8748277Y-16466543D01*
X8748277Y-16466543D02*
X8786372Y-16466543D01*
X8786372Y-16466543D02*
X8805420Y-16457019D01*
X8805420Y-16457019D02*
X8814944Y-16447496D01*
X8814944Y-16447496D02*
X8824468Y-16428448D01*
X9005420Y-16342734D02*
X8910182Y-16342734D01*
X8910182Y-16342734D02*
X8900658Y-16437972D01*
X8900658Y-16437972D02*
X8910182Y-16428448D01*
X8910182Y-16428448D02*
X8929229Y-16418924D01*
X8929229Y-16418924D02*
X8976849Y-16418924D01*
X8976849Y-16418924D02*
X8995896Y-16428448D01*
X8995896Y-16428448D02*
X9005420Y-16437972D01*
X9005420Y-16437972D02*
X9014944Y-16457019D01*
X9014944Y-16457019D02*
X9014944Y-16504638D01*
X9014944Y-16504638D02*
X9005420Y-16523686D01*
X9005420Y-16523686D02*
X8995896Y-16533210D01*
X8995896Y-16533210D02*
X8976849Y-16542734D01*
X8976849Y-16542734D02*
X8929229Y-16542734D01*
X8929229Y-16542734D02*
X8910182Y-16533210D01*
X8910182Y-16533210D02*
X8900658Y-16523686D01*
X9091134Y-16342734D02*
X9091134Y-16380829D01*
X9167325Y-16342734D02*
X9167325Y-16380829D01*
X9462563Y-16618924D02*
X9453039Y-16609400D01*
X9453039Y-16609400D02*
X9433991Y-16580829D01*
X9433991Y-16580829D02*
X9424468Y-16561781D01*
X9424468Y-16561781D02*
X9414944Y-16533210D01*
X9414944Y-16533210D02*
X9405420Y-16485591D01*
X9405420Y-16485591D02*
X9405420Y-16447496D01*
X9405420Y-16447496D02*
X9414944Y-16399877D01*
X9414944Y-16399877D02*
X9424468Y-16371305D01*
X9424468Y-16371305D02*
X9433991Y-16352258D01*
X9433991Y-16352258D02*
X9453039Y-16323686D01*
X9453039Y-16323686D02*
X9462563Y-16314162D01*
X9633991Y-16342734D02*
X9538753Y-16342734D01*
X9538753Y-16342734D02*
X9529230Y-16437972D01*
X9529230Y-16437972D02*
X9538753Y-16428448D01*
X9538753Y-16428448D02*
X9557801Y-16418924D01*
X9557801Y-16418924D02*
X9605420Y-16418924D01*
X9605420Y-16418924D02*
X9624468Y-16428448D01*
X9624468Y-16428448D02*
X9633991Y-16437972D01*
X9633991Y-16437972D02*
X9643515Y-16457019D01*
X9643515Y-16457019D02*
X9643515Y-16504638D01*
X9643515Y-16504638D02*
X9633991Y-16523686D01*
X9633991Y-16523686D02*
X9624468Y-16533210D01*
X9624468Y-16533210D02*
X9605420Y-16542734D01*
X9605420Y-16542734D02*
X9557801Y-16542734D01*
X9557801Y-16542734D02*
X9538753Y-16533210D01*
X9538753Y-16533210D02*
X9529230Y-16523686D01*
X9710182Y-16342734D02*
X9843515Y-16342734D01*
X9843515Y-16342734D02*
X9757801Y-16542734D01*
X10072087Y-16542734D02*
X10072087Y-16342734D01*
X10157801Y-16542734D02*
X10157801Y-16437972D01*
X10157801Y-16437972D02*
X10148277Y-16418924D01*
X10148277Y-16418924D02*
X10129230Y-16409400D01*
X10129230Y-16409400D02*
X10100658Y-16409400D01*
X10100658Y-16409400D02*
X10081611Y-16418924D01*
X10081611Y-16418924D02*
X10072087Y-16428448D01*
X10281611Y-16542734D02*
X10262563Y-16533210D01*
X10262563Y-16533210D02*
X10253039Y-16523686D01*
X10253039Y-16523686D02*
X10243515Y-16504638D01*
X10243515Y-16504638D02*
X10243515Y-16447496D01*
X10243515Y-16447496D02*
X10253039Y-16428448D01*
X10253039Y-16428448D02*
X10262563Y-16418924D01*
X10262563Y-16418924D02*
X10281611Y-16409400D01*
X10281611Y-16409400D02*
X10310182Y-16409400D01*
X10310182Y-16409400D02*
X10329230Y-16418924D01*
X10329230Y-16418924D02*
X10338753Y-16428448D01*
X10338753Y-16428448D02*
X10348277Y-16447496D01*
X10348277Y-16447496D02*
X10348277Y-16504638D01*
X10348277Y-16504638D02*
X10338753Y-16523686D01*
X10338753Y-16523686D02*
X10329230Y-16533210D01*
X10329230Y-16533210D02*
X10310182Y-16542734D01*
X10310182Y-16542734D02*
X10281611Y-16542734D01*
X10462563Y-16542734D02*
X10443515Y-16533210D01*
X10443515Y-16533210D02*
X10433992Y-16514162D01*
X10433992Y-16514162D02*
X10433992Y-16342734D01*
X10614944Y-16533210D02*
X10595896Y-16542734D01*
X10595896Y-16542734D02*
X10557801Y-16542734D01*
X10557801Y-16542734D02*
X10538753Y-16533210D01*
X10538753Y-16533210D02*
X10529230Y-16514162D01*
X10529230Y-16514162D02*
X10529230Y-16437972D01*
X10529230Y-16437972D02*
X10538753Y-16418924D01*
X10538753Y-16418924D02*
X10557801Y-16409400D01*
X10557801Y-16409400D02*
X10595896Y-16409400D01*
X10595896Y-16409400D02*
X10614944Y-16418924D01*
X10614944Y-16418924D02*
X10624468Y-16437972D01*
X10624468Y-16437972D02*
X10624468Y-16457019D01*
X10624468Y-16457019D02*
X10529230Y-16476067D01*
X10700658Y-16533210D02*
X10719706Y-16542734D01*
X10719706Y-16542734D02*
X10757801Y-16542734D01*
X10757801Y-16542734D02*
X10776849Y-16533210D01*
X10776849Y-16533210D02*
X10786373Y-16514162D01*
X10786373Y-16514162D02*
X10786373Y-16504638D01*
X10786373Y-16504638D02*
X10776849Y-16485591D01*
X10776849Y-16485591D02*
X10757801Y-16476067D01*
X10757801Y-16476067D02*
X10729230Y-16476067D01*
X10729230Y-16476067D02*
X10710182Y-16466543D01*
X10710182Y-16466543D02*
X10700658Y-16447496D01*
X10700658Y-16447496D02*
X10700658Y-16437972D01*
X10700658Y-16437972D02*
X10710182Y-16418924D01*
X10710182Y-16418924D02*
X10729230Y-16409400D01*
X10729230Y-16409400D02*
X10757801Y-16409400D01*
X10757801Y-16409400D02*
X10776849Y-16418924D01*
X10853039Y-16618924D02*
X10862563Y-16609400D01*
X10862563Y-16609400D02*
X10881611Y-16580829D01*
X10881611Y-16580829D02*
X10891134Y-16561781D01*
X10891134Y-16561781D02*
X10900658Y-16533210D01*
X10900658Y-16533210D02*
X10910182Y-16485591D01*
X10910182Y-16485591D02*
X10910182Y-16447496D01*
X10910182Y-16447496D02*
X10900658Y-16399877D01*
X10900658Y-16399877D02*
X10891134Y-16371305D01*
X10891134Y-16371305D02*
X10881611Y-16352258D01*
X10881611Y-16352258D02*
X10862563Y-16323686D01*
X10862563Y-16323686D02*
X10853039Y-16314162D01*
D12*
X5872856Y-16750606D02*
X5872856Y-16679894D01*
X5802144Y-16679894D01*
X5802144Y-16750606D01*
X5872856Y-16750606D01*
D11*
X6253039Y-16806734D02*
X6138753Y-16806734D01*
X6195896Y-16806734D02*
X6195896Y-16606734D01*
X6195896Y-16606734D02*
X6176848Y-16635305D01*
X6176848Y-16635305D02*
X6157801Y-16654353D01*
X6157801Y-16654353D02*
X6138753Y-16663877D01*
X6338753Y-16787686D02*
X6348277Y-16797210D01*
X6348277Y-16797210D02*
X6338753Y-16806734D01*
X6338753Y-16806734D02*
X6329229Y-16797210D01*
X6329229Y-16797210D02*
X6338753Y-16787686D01*
X6338753Y-16787686D02*
X6338753Y-16806734D01*
X6472086Y-16606734D02*
X6491134Y-16606734D01*
X6491134Y-16606734D02*
X6510182Y-16616258D01*
X6510182Y-16616258D02*
X6519705Y-16625781D01*
X6519705Y-16625781D02*
X6529229Y-16644829D01*
X6529229Y-16644829D02*
X6538753Y-16682924D01*
X6538753Y-16682924D02*
X6538753Y-16730543D01*
X6538753Y-16730543D02*
X6529229Y-16768638D01*
X6529229Y-16768638D02*
X6519705Y-16787686D01*
X6519705Y-16787686D02*
X6510182Y-16797210D01*
X6510182Y-16797210D02*
X6491134Y-16806734D01*
X6491134Y-16806734D02*
X6472086Y-16806734D01*
X6472086Y-16806734D02*
X6453039Y-16797210D01*
X6453039Y-16797210D02*
X6443515Y-16787686D01*
X6443515Y-16787686D02*
X6433991Y-16768638D01*
X6433991Y-16768638D02*
X6424467Y-16730543D01*
X6424467Y-16730543D02*
X6424467Y-16682924D01*
X6424467Y-16682924D02*
X6433991Y-16644829D01*
X6433991Y-16644829D02*
X6443515Y-16625781D01*
X6443515Y-16625781D02*
X6453039Y-16616258D01*
X6453039Y-16616258D02*
X6472086Y-16606734D01*
X6662562Y-16606734D02*
X6681610Y-16606734D01*
X6681610Y-16606734D02*
X6700658Y-16616258D01*
X6700658Y-16616258D02*
X6710182Y-16625781D01*
X6710182Y-16625781D02*
X6719705Y-16644829D01*
X6719705Y-16644829D02*
X6729229Y-16682924D01*
X6729229Y-16682924D02*
X6729229Y-16730543D01*
X6729229Y-16730543D02*
X6719705Y-16768638D01*
X6719705Y-16768638D02*
X6710182Y-16787686D01*
X6710182Y-16787686D02*
X6700658Y-16797210D01*
X6700658Y-16797210D02*
X6681610Y-16806734D01*
X6681610Y-16806734D02*
X6662562Y-16806734D01*
X6662562Y-16806734D02*
X6643515Y-16797210D01*
X6643515Y-16797210D02*
X6633991Y-16787686D01*
X6633991Y-16787686D02*
X6624467Y-16768638D01*
X6624467Y-16768638D02*
X6614943Y-16730543D01*
X6614943Y-16730543D02*
X6614943Y-16682924D01*
X6614943Y-16682924D02*
X6624467Y-16644829D01*
X6624467Y-16644829D02*
X6633991Y-16625781D01*
X6633991Y-16625781D02*
X6643515Y-16616258D01*
X6643515Y-16616258D02*
X6662562Y-16606734D01*
X6853039Y-16606734D02*
X6872086Y-16606734D01*
X6872086Y-16606734D02*
X6891134Y-16616258D01*
X6891134Y-16616258D02*
X6900658Y-16625781D01*
X6900658Y-16625781D02*
X6910182Y-16644829D01*
X6910182Y-16644829D02*
X6919705Y-16682924D01*
X6919705Y-16682924D02*
X6919705Y-16730543D01*
X6919705Y-16730543D02*
X6910182Y-16768638D01*
X6910182Y-16768638D02*
X6900658Y-16787686D01*
X6900658Y-16787686D02*
X6891134Y-16797210D01*
X6891134Y-16797210D02*
X6872086Y-16806734D01*
X6872086Y-16806734D02*
X6853039Y-16806734D01*
X6853039Y-16806734D02*
X6833991Y-16797210D01*
X6833991Y-16797210D02*
X6824467Y-16787686D01*
X6824467Y-16787686D02*
X6814943Y-16768638D01*
X6814943Y-16768638D02*
X6805420Y-16730543D01*
X6805420Y-16730543D02*
X6805420Y-16682924D01*
X6805420Y-16682924D02*
X6814943Y-16644829D01*
X6814943Y-16644829D02*
X6824467Y-16625781D01*
X6824467Y-16625781D02*
X6833991Y-16616258D01*
X6833991Y-16616258D02*
X6853039Y-16606734D01*
X7005420Y-16806734D02*
X7005420Y-16673400D01*
X7005420Y-16692448D02*
X7014943Y-16682924D01*
X7014943Y-16682924D02*
X7033991Y-16673400D01*
X7033991Y-16673400D02*
X7062563Y-16673400D01*
X7062563Y-16673400D02*
X7081610Y-16682924D01*
X7081610Y-16682924D02*
X7091134Y-16701972D01*
X7091134Y-16701972D02*
X7091134Y-16806734D01*
X7091134Y-16701972D02*
X7100658Y-16682924D01*
X7100658Y-16682924D02*
X7119705Y-16673400D01*
X7119705Y-16673400D02*
X7148277Y-16673400D01*
X7148277Y-16673400D02*
X7167324Y-16682924D01*
X7167324Y-16682924D02*
X7176848Y-16701972D01*
X7176848Y-16701972D02*
X7176848Y-16806734D01*
X7272086Y-16806734D02*
X7272086Y-16673400D01*
X7272086Y-16692448D02*
X7281610Y-16682924D01*
X7281610Y-16682924D02*
X7300658Y-16673400D01*
X7300658Y-16673400D02*
X7329229Y-16673400D01*
X7329229Y-16673400D02*
X7348277Y-16682924D01*
X7348277Y-16682924D02*
X7357801Y-16701972D01*
X7357801Y-16701972D02*
X7357801Y-16806734D01*
X7357801Y-16701972D02*
X7367324Y-16682924D01*
X7367324Y-16682924D02*
X7386372Y-16673400D01*
X7386372Y-16673400D02*
X7414943Y-16673400D01*
X7414943Y-16673400D02*
X7433991Y-16682924D01*
X7433991Y-16682924D02*
X7443515Y-16701972D01*
X7443515Y-16701972D02*
X7443515Y-16806734D01*
X7833991Y-16597210D02*
X7662563Y-16854353D01*
X8091134Y-16606734D02*
X8110182Y-16606734D01*
X8110182Y-16606734D02*
X8129229Y-16616258D01*
X8129229Y-16616258D02*
X8138753Y-16625781D01*
X8138753Y-16625781D02*
X8148277Y-16644829D01*
X8148277Y-16644829D02*
X8157801Y-16682924D01*
X8157801Y-16682924D02*
X8157801Y-16730543D01*
X8157801Y-16730543D02*
X8148277Y-16768638D01*
X8148277Y-16768638D02*
X8138753Y-16787686D01*
X8138753Y-16787686D02*
X8129229Y-16797210D01*
X8129229Y-16797210D02*
X8110182Y-16806734D01*
X8110182Y-16806734D02*
X8091134Y-16806734D01*
X8091134Y-16806734D02*
X8072086Y-16797210D01*
X8072086Y-16797210D02*
X8062563Y-16787686D01*
X8062563Y-16787686D02*
X8053039Y-16768638D01*
X8053039Y-16768638D02*
X8043515Y-16730543D01*
X8043515Y-16730543D02*
X8043515Y-16682924D01*
X8043515Y-16682924D02*
X8053039Y-16644829D01*
X8053039Y-16644829D02*
X8062563Y-16625781D01*
X8062563Y-16625781D02*
X8072086Y-16616258D01*
X8072086Y-16616258D02*
X8091134Y-16606734D01*
X8243515Y-16787686D02*
X8253039Y-16797210D01*
X8253039Y-16797210D02*
X8243515Y-16806734D01*
X8243515Y-16806734D02*
X8233991Y-16797210D01*
X8233991Y-16797210D02*
X8243515Y-16787686D01*
X8243515Y-16787686D02*
X8243515Y-16806734D01*
X8376848Y-16606734D02*
X8395896Y-16606734D01*
X8395896Y-16606734D02*
X8414944Y-16616258D01*
X8414944Y-16616258D02*
X8424468Y-16625781D01*
X8424468Y-16625781D02*
X8433991Y-16644829D01*
X8433991Y-16644829D02*
X8443515Y-16682924D01*
X8443515Y-16682924D02*
X8443515Y-16730543D01*
X8443515Y-16730543D02*
X8433991Y-16768638D01*
X8433991Y-16768638D02*
X8424468Y-16787686D01*
X8424468Y-16787686D02*
X8414944Y-16797210D01*
X8414944Y-16797210D02*
X8395896Y-16806734D01*
X8395896Y-16806734D02*
X8376848Y-16806734D01*
X8376848Y-16806734D02*
X8357801Y-16797210D01*
X8357801Y-16797210D02*
X8348277Y-16787686D01*
X8348277Y-16787686D02*
X8338753Y-16768638D01*
X8338753Y-16768638D02*
X8329229Y-16730543D01*
X8329229Y-16730543D02*
X8329229Y-16682924D01*
X8329229Y-16682924D02*
X8338753Y-16644829D01*
X8338753Y-16644829D02*
X8348277Y-16625781D01*
X8348277Y-16625781D02*
X8357801Y-16616258D01*
X8357801Y-16616258D02*
X8376848Y-16606734D01*
X8510182Y-16606734D02*
X8633991Y-16606734D01*
X8633991Y-16606734D02*
X8567325Y-16682924D01*
X8567325Y-16682924D02*
X8595896Y-16682924D01*
X8595896Y-16682924D02*
X8614944Y-16692448D01*
X8614944Y-16692448D02*
X8624468Y-16701972D01*
X8624468Y-16701972D02*
X8633991Y-16721019D01*
X8633991Y-16721019D02*
X8633991Y-16768638D01*
X8633991Y-16768638D02*
X8624468Y-16787686D01*
X8624468Y-16787686D02*
X8614944Y-16797210D01*
X8614944Y-16797210D02*
X8595896Y-16806734D01*
X8595896Y-16806734D02*
X8538753Y-16806734D01*
X8538753Y-16806734D02*
X8519706Y-16797210D01*
X8519706Y-16797210D02*
X8510182Y-16787686D01*
X8729229Y-16806734D02*
X8767325Y-16806734D01*
X8767325Y-16806734D02*
X8786372Y-16797210D01*
X8786372Y-16797210D02*
X8795896Y-16787686D01*
X8795896Y-16787686D02*
X8814944Y-16759115D01*
X8814944Y-16759115D02*
X8824468Y-16721019D01*
X8824468Y-16721019D02*
X8824468Y-16644829D01*
X8824468Y-16644829D02*
X8814944Y-16625781D01*
X8814944Y-16625781D02*
X8805420Y-16616258D01*
X8805420Y-16616258D02*
X8786372Y-16606734D01*
X8786372Y-16606734D02*
X8748277Y-16606734D01*
X8748277Y-16606734D02*
X8729229Y-16616258D01*
X8729229Y-16616258D02*
X8719706Y-16625781D01*
X8719706Y-16625781D02*
X8710182Y-16644829D01*
X8710182Y-16644829D02*
X8710182Y-16692448D01*
X8710182Y-16692448D02*
X8719706Y-16711496D01*
X8719706Y-16711496D02*
X8729229Y-16721019D01*
X8729229Y-16721019D02*
X8748277Y-16730543D01*
X8748277Y-16730543D02*
X8786372Y-16730543D01*
X8786372Y-16730543D02*
X8805420Y-16721019D01*
X8805420Y-16721019D02*
X8814944Y-16711496D01*
X8814944Y-16711496D02*
X8824468Y-16692448D01*
X8995896Y-16673400D02*
X8995896Y-16806734D01*
X8948277Y-16597210D02*
X8900658Y-16740067D01*
X8900658Y-16740067D02*
X9024468Y-16740067D01*
X9091134Y-16606734D02*
X9091134Y-16644829D01*
X9167325Y-16606734D02*
X9167325Y-16644829D01*
X9462563Y-16882924D02*
X9453039Y-16873400D01*
X9453039Y-16873400D02*
X9433991Y-16844829D01*
X9433991Y-16844829D02*
X9424468Y-16825781D01*
X9424468Y-16825781D02*
X9414944Y-16797210D01*
X9414944Y-16797210D02*
X9405420Y-16749591D01*
X9405420Y-16749591D02*
X9405420Y-16711496D01*
X9405420Y-16711496D02*
X9414944Y-16663877D01*
X9414944Y-16663877D02*
X9424468Y-16635305D01*
X9424468Y-16635305D02*
X9433991Y-16616258D01*
X9433991Y-16616258D02*
X9453039Y-16587686D01*
X9453039Y-16587686D02*
X9462563Y-16578162D01*
X9548277Y-16806734D02*
X9586372Y-16806734D01*
X9586372Y-16806734D02*
X9605420Y-16797210D01*
X9605420Y-16797210D02*
X9614944Y-16787686D01*
X9614944Y-16787686D02*
X9633991Y-16759115D01*
X9633991Y-16759115D02*
X9643515Y-16721019D01*
X9643515Y-16721019D02*
X9643515Y-16644829D01*
X9643515Y-16644829D02*
X9633991Y-16625781D01*
X9633991Y-16625781D02*
X9624468Y-16616258D01*
X9624468Y-16616258D02*
X9605420Y-16606734D01*
X9605420Y-16606734D02*
X9567325Y-16606734D01*
X9567325Y-16606734D02*
X9548277Y-16616258D01*
X9548277Y-16616258D02*
X9538753Y-16625781D01*
X9538753Y-16625781D02*
X9529230Y-16644829D01*
X9529230Y-16644829D02*
X9529230Y-16692448D01*
X9529230Y-16692448D02*
X9538753Y-16711496D01*
X9538753Y-16711496D02*
X9548277Y-16721019D01*
X9548277Y-16721019D02*
X9567325Y-16730543D01*
X9567325Y-16730543D02*
X9605420Y-16730543D01*
X9605420Y-16730543D02*
X9624468Y-16721019D01*
X9624468Y-16721019D02*
X9633991Y-16711496D01*
X9633991Y-16711496D02*
X9643515Y-16692448D01*
X9767325Y-16606734D02*
X9786372Y-16606734D01*
X9786372Y-16606734D02*
X9805420Y-16616258D01*
X9805420Y-16616258D02*
X9814944Y-16625781D01*
X9814944Y-16625781D02*
X9824468Y-16644829D01*
X9824468Y-16644829D02*
X9833991Y-16682924D01*
X9833991Y-16682924D02*
X9833991Y-16730543D01*
X9833991Y-16730543D02*
X9824468Y-16768638D01*
X9824468Y-16768638D02*
X9814944Y-16787686D01*
X9814944Y-16787686D02*
X9805420Y-16797210D01*
X9805420Y-16797210D02*
X9786372Y-16806734D01*
X9786372Y-16806734D02*
X9767325Y-16806734D01*
X9767325Y-16806734D02*
X9748277Y-16797210D01*
X9748277Y-16797210D02*
X9738753Y-16787686D01*
X9738753Y-16787686D02*
X9729230Y-16768638D01*
X9729230Y-16768638D02*
X9719706Y-16730543D01*
X9719706Y-16730543D02*
X9719706Y-16682924D01*
X9719706Y-16682924D02*
X9729230Y-16644829D01*
X9729230Y-16644829D02*
X9738753Y-16625781D01*
X9738753Y-16625781D02*
X9748277Y-16616258D01*
X9748277Y-16616258D02*
X9767325Y-16606734D01*
X10072087Y-16806734D02*
X10072087Y-16606734D01*
X10157801Y-16806734D02*
X10157801Y-16701972D01*
X10157801Y-16701972D02*
X10148277Y-16682924D01*
X10148277Y-16682924D02*
X10129230Y-16673400D01*
X10129230Y-16673400D02*
X10100658Y-16673400D01*
X10100658Y-16673400D02*
X10081611Y-16682924D01*
X10081611Y-16682924D02*
X10072087Y-16692448D01*
X10281611Y-16806734D02*
X10262563Y-16797210D01*
X10262563Y-16797210D02*
X10253039Y-16787686D01*
X10253039Y-16787686D02*
X10243515Y-16768638D01*
X10243515Y-16768638D02*
X10243515Y-16711496D01*
X10243515Y-16711496D02*
X10253039Y-16692448D01*
X10253039Y-16692448D02*
X10262563Y-16682924D01*
X10262563Y-16682924D02*
X10281611Y-16673400D01*
X10281611Y-16673400D02*
X10310182Y-16673400D01*
X10310182Y-16673400D02*
X10329230Y-16682924D01*
X10329230Y-16682924D02*
X10338753Y-16692448D01*
X10338753Y-16692448D02*
X10348277Y-16711496D01*
X10348277Y-16711496D02*
X10348277Y-16768638D01*
X10348277Y-16768638D02*
X10338753Y-16787686D01*
X10338753Y-16787686D02*
X10329230Y-16797210D01*
X10329230Y-16797210D02*
X10310182Y-16806734D01*
X10310182Y-16806734D02*
X10281611Y-16806734D01*
X10462563Y-16806734D02*
X10443515Y-16797210D01*
X10443515Y-16797210D02*
X10433992Y-16778162D01*
X10433992Y-16778162D02*
X10433992Y-16606734D01*
X10614944Y-16797210D02*
X10595896Y-16806734D01*
X10595896Y-16806734D02*
X10557801Y-16806734D01*
X10557801Y-16806734D02*
X10538753Y-16797210D01*
X10538753Y-16797210D02*
X10529230Y-16778162D01*
X10529230Y-16778162D02*
X10529230Y-16701972D01*
X10529230Y-16701972D02*
X10538753Y-16682924D01*
X10538753Y-16682924D02*
X10557801Y-16673400D01*
X10557801Y-16673400D02*
X10595896Y-16673400D01*
X10595896Y-16673400D02*
X10614944Y-16682924D01*
X10614944Y-16682924D02*
X10624468Y-16701972D01*
X10624468Y-16701972D02*
X10624468Y-16721019D01*
X10624468Y-16721019D02*
X10529230Y-16740067D01*
X10700658Y-16797210D02*
X10719706Y-16806734D01*
X10719706Y-16806734D02*
X10757801Y-16806734D01*
X10757801Y-16806734D02*
X10776849Y-16797210D01*
X10776849Y-16797210D02*
X10786373Y-16778162D01*
X10786373Y-16778162D02*
X10786373Y-16768638D01*
X10786373Y-16768638D02*
X10776849Y-16749591D01*
X10776849Y-16749591D02*
X10757801Y-16740067D01*
X10757801Y-16740067D02*
X10729230Y-16740067D01*
X10729230Y-16740067D02*
X10710182Y-16730543D01*
X10710182Y-16730543D02*
X10700658Y-16711496D01*
X10700658Y-16711496D02*
X10700658Y-16701972D01*
X10700658Y-16701972D02*
X10710182Y-16682924D01*
X10710182Y-16682924D02*
X10729230Y-16673400D01*
X10729230Y-16673400D02*
X10757801Y-16673400D01*
X10757801Y-16673400D02*
X10776849Y-16682924D01*
X10853039Y-16882924D02*
X10862563Y-16873400D01*
X10862563Y-16873400D02*
X10881611Y-16844829D01*
X10881611Y-16844829D02*
X10891134Y-16825781D01*
X10891134Y-16825781D02*
X10900658Y-16797210D01*
X10900658Y-16797210D02*
X10910182Y-16749591D01*
X10910182Y-16749591D02*
X10910182Y-16711496D01*
X10910182Y-16711496D02*
X10900658Y-16663877D01*
X10900658Y-16663877D02*
X10891134Y-16635305D01*
X10891134Y-16635305D02*
X10881611Y-16616258D01*
X10881611Y-16616258D02*
X10862563Y-16587686D01*
X10862563Y-16587686D02*
X10853039Y-16578162D01*
X5787500Y-17079250D02*
X5887500Y-16979250D01*
X5787500Y-16879250D01*
X5687500Y-16979250D01*
X5787500Y-17079250D01*
X6138753Y-16889781D02*
X6148277Y-16880258D01*
X6148277Y-16880258D02*
X6167324Y-16870734D01*
X6167324Y-16870734D02*
X6214943Y-16870734D01*
X6214943Y-16870734D02*
X6233991Y-16880258D01*
X6233991Y-16880258D02*
X6243515Y-16889781D01*
X6243515Y-16889781D02*
X6253039Y-16908829D01*
X6253039Y-16908829D02*
X6253039Y-16927877D01*
X6253039Y-16927877D02*
X6243515Y-16956448D01*
X6243515Y-16956448D02*
X6129229Y-17070734D01*
X6129229Y-17070734D02*
X6253039Y-17070734D01*
X6338753Y-17051686D02*
X6348277Y-17061210D01*
X6348277Y-17061210D02*
X6338753Y-17070734D01*
X6338753Y-17070734D02*
X6329229Y-17061210D01*
X6329229Y-17061210D02*
X6338753Y-17051686D01*
X6338753Y-17051686D02*
X6338753Y-17070734D01*
X6424467Y-16889781D02*
X6433991Y-16880258D01*
X6433991Y-16880258D02*
X6453039Y-16870734D01*
X6453039Y-16870734D02*
X6500658Y-16870734D01*
X6500658Y-16870734D02*
X6519705Y-16880258D01*
X6519705Y-16880258D02*
X6529229Y-16889781D01*
X6529229Y-16889781D02*
X6538753Y-16908829D01*
X6538753Y-16908829D02*
X6538753Y-16927877D01*
X6538753Y-16927877D02*
X6529229Y-16956448D01*
X6529229Y-16956448D02*
X6414943Y-17070734D01*
X6414943Y-17070734D02*
X6538753Y-17070734D01*
X6662562Y-16870734D02*
X6681610Y-16870734D01*
X6681610Y-16870734D02*
X6700658Y-16880258D01*
X6700658Y-16880258D02*
X6710182Y-16889781D01*
X6710182Y-16889781D02*
X6719705Y-16908829D01*
X6719705Y-16908829D02*
X6729229Y-16946924D01*
X6729229Y-16946924D02*
X6729229Y-16994543D01*
X6729229Y-16994543D02*
X6719705Y-17032639D01*
X6719705Y-17032639D02*
X6710182Y-17051686D01*
X6710182Y-17051686D02*
X6700658Y-17061210D01*
X6700658Y-17061210D02*
X6681610Y-17070734D01*
X6681610Y-17070734D02*
X6662562Y-17070734D01*
X6662562Y-17070734D02*
X6643515Y-17061210D01*
X6643515Y-17061210D02*
X6633991Y-17051686D01*
X6633991Y-17051686D02*
X6624467Y-17032639D01*
X6624467Y-17032639D02*
X6614943Y-16994543D01*
X6614943Y-16994543D02*
X6614943Y-16946924D01*
X6614943Y-16946924D02*
X6624467Y-16908829D01*
X6624467Y-16908829D02*
X6633991Y-16889781D01*
X6633991Y-16889781D02*
X6643515Y-16880258D01*
X6643515Y-16880258D02*
X6662562Y-16870734D01*
X6853039Y-16870734D02*
X6872086Y-16870734D01*
X6872086Y-16870734D02*
X6891134Y-16880258D01*
X6891134Y-16880258D02*
X6900658Y-16889781D01*
X6900658Y-16889781D02*
X6910182Y-16908829D01*
X6910182Y-16908829D02*
X6919705Y-16946924D01*
X6919705Y-16946924D02*
X6919705Y-16994543D01*
X6919705Y-16994543D02*
X6910182Y-17032639D01*
X6910182Y-17032639D02*
X6900658Y-17051686D01*
X6900658Y-17051686D02*
X6891134Y-17061210D01*
X6891134Y-17061210D02*
X6872086Y-17070734D01*
X6872086Y-17070734D02*
X6853039Y-17070734D01*
X6853039Y-17070734D02*
X6833991Y-17061210D01*
X6833991Y-17061210D02*
X6824467Y-17051686D01*
X6824467Y-17051686D02*
X6814943Y-17032639D01*
X6814943Y-17032639D02*
X6805420Y-16994543D01*
X6805420Y-16994543D02*
X6805420Y-16946924D01*
X6805420Y-16946924D02*
X6814943Y-16908829D01*
X6814943Y-16908829D02*
X6824467Y-16889781D01*
X6824467Y-16889781D02*
X6833991Y-16880258D01*
X6833991Y-16880258D02*
X6853039Y-16870734D01*
X7005420Y-17070734D02*
X7005420Y-16937400D01*
X7005420Y-16956448D02*
X7014943Y-16946924D01*
X7014943Y-16946924D02*
X7033991Y-16937400D01*
X7033991Y-16937400D02*
X7062563Y-16937400D01*
X7062563Y-16937400D02*
X7081610Y-16946924D01*
X7081610Y-16946924D02*
X7091134Y-16965972D01*
X7091134Y-16965972D02*
X7091134Y-17070734D01*
X7091134Y-16965972D02*
X7100658Y-16946924D01*
X7100658Y-16946924D02*
X7119705Y-16937400D01*
X7119705Y-16937400D02*
X7148277Y-16937400D01*
X7148277Y-16937400D02*
X7167324Y-16946924D01*
X7167324Y-16946924D02*
X7176848Y-16965972D01*
X7176848Y-16965972D02*
X7176848Y-17070734D01*
X7272086Y-17070734D02*
X7272086Y-16937400D01*
X7272086Y-16956448D02*
X7281610Y-16946924D01*
X7281610Y-16946924D02*
X7300658Y-16937400D01*
X7300658Y-16937400D02*
X7329229Y-16937400D01*
X7329229Y-16937400D02*
X7348277Y-16946924D01*
X7348277Y-16946924D02*
X7357801Y-16965972D01*
X7357801Y-16965972D02*
X7357801Y-17070734D01*
X7357801Y-16965972D02*
X7367324Y-16946924D01*
X7367324Y-16946924D02*
X7386372Y-16937400D01*
X7386372Y-16937400D02*
X7414943Y-16937400D01*
X7414943Y-16937400D02*
X7433991Y-16946924D01*
X7433991Y-16946924D02*
X7443515Y-16965972D01*
X7443515Y-16965972D02*
X7443515Y-17070734D01*
X7833991Y-16861210D02*
X7662563Y-17118353D01*
X8091134Y-16870734D02*
X8110182Y-16870734D01*
X8110182Y-16870734D02*
X8129229Y-16880258D01*
X8129229Y-16880258D02*
X8138753Y-16889781D01*
X8138753Y-16889781D02*
X8148277Y-16908829D01*
X8148277Y-16908829D02*
X8157801Y-16946924D01*
X8157801Y-16946924D02*
X8157801Y-16994543D01*
X8157801Y-16994543D02*
X8148277Y-17032639D01*
X8148277Y-17032639D02*
X8138753Y-17051686D01*
X8138753Y-17051686D02*
X8129229Y-17061210D01*
X8129229Y-17061210D02*
X8110182Y-17070734D01*
X8110182Y-17070734D02*
X8091134Y-17070734D01*
X8091134Y-17070734D02*
X8072086Y-17061210D01*
X8072086Y-17061210D02*
X8062563Y-17051686D01*
X8062563Y-17051686D02*
X8053039Y-17032639D01*
X8053039Y-17032639D02*
X8043515Y-16994543D01*
X8043515Y-16994543D02*
X8043515Y-16946924D01*
X8043515Y-16946924D02*
X8053039Y-16908829D01*
X8053039Y-16908829D02*
X8062563Y-16889781D01*
X8062563Y-16889781D02*
X8072086Y-16880258D01*
X8072086Y-16880258D02*
X8091134Y-16870734D01*
X8243515Y-17051686D02*
X8253039Y-17061210D01*
X8253039Y-17061210D02*
X8243515Y-17070734D01*
X8243515Y-17070734D02*
X8233991Y-17061210D01*
X8233991Y-17061210D02*
X8243515Y-17051686D01*
X8243515Y-17051686D02*
X8243515Y-17070734D01*
X8376848Y-16870734D02*
X8395896Y-16870734D01*
X8395896Y-16870734D02*
X8414944Y-16880258D01*
X8414944Y-16880258D02*
X8424468Y-16889781D01*
X8424468Y-16889781D02*
X8433991Y-16908829D01*
X8433991Y-16908829D02*
X8443515Y-16946924D01*
X8443515Y-16946924D02*
X8443515Y-16994543D01*
X8443515Y-16994543D02*
X8433991Y-17032639D01*
X8433991Y-17032639D02*
X8424468Y-17051686D01*
X8424468Y-17051686D02*
X8414944Y-17061210D01*
X8414944Y-17061210D02*
X8395896Y-17070734D01*
X8395896Y-17070734D02*
X8376848Y-17070734D01*
X8376848Y-17070734D02*
X8357801Y-17061210D01*
X8357801Y-17061210D02*
X8348277Y-17051686D01*
X8348277Y-17051686D02*
X8338753Y-17032639D01*
X8338753Y-17032639D02*
X8329229Y-16994543D01*
X8329229Y-16994543D02*
X8329229Y-16946924D01*
X8329229Y-16946924D02*
X8338753Y-16908829D01*
X8338753Y-16908829D02*
X8348277Y-16889781D01*
X8348277Y-16889781D02*
X8357801Y-16880258D01*
X8357801Y-16880258D02*
X8376848Y-16870734D01*
X8557801Y-16956448D02*
X8538753Y-16946924D01*
X8538753Y-16946924D02*
X8529229Y-16937400D01*
X8529229Y-16937400D02*
X8519706Y-16918353D01*
X8519706Y-16918353D02*
X8519706Y-16908829D01*
X8519706Y-16908829D02*
X8529229Y-16889781D01*
X8529229Y-16889781D02*
X8538753Y-16880258D01*
X8538753Y-16880258D02*
X8557801Y-16870734D01*
X8557801Y-16870734D02*
X8595896Y-16870734D01*
X8595896Y-16870734D02*
X8614944Y-16880258D01*
X8614944Y-16880258D02*
X8624468Y-16889781D01*
X8624468Y-16889781D02*
X8633991Y-16908829D01*
X8633991Y-16908829D02*
X8633991Y-16918353D01*
X8633991Y-16918353D02*
X8624468Y-16937400D01*
X8624468Y-16937400D02*
X8614944Y-16946924D01*
X8614944Y-16946924D02*
X8595896Y-16956448D01*
X8595896Y-16956448D02*
X8557801Y-16956448D01*
X8557801Y-16956448D02*
X8538753Y-16965972D01*
X8538753Y-16965972D02*
X8529229Y-16975496D01*
X8529229Y-16975496D02*
X8519706Y-16994543D01*
X8519706Y-16994543D02*
X8519706Y-17032639D01*
X8519706Y-17032639D02*
X8529229Y-17051686D01*
X8529229Y-17051686D02*
X8538753Y-17061210D01*
X8538753Y-17061210D02*
X8557801Y-17070734D01*
X8557801Y-17070734D02*
X8595896Y-17070734D01*
X8595896Y-17070734D02*
X8614944Y-17061210D01*
X8614944Y-17061210D02*
X8624468Y-17051686D01*
X8624468Y-17051686D02*
X8633991Y-17032639D01*
X8633991Y-17032639D02*
X8633991Y-16994543D01*
X8633991Y-16994543D02*
X8624468Y-16975496D01*
X8624468Y-16975496D02*
X8614944Y-16965972D01*
X8614944Y-16965972D02*
X8595896Y-16956448D01*
X8805420Y-16870734D02*
X8767325Y-16870734D01*
X8767325Y-16870734D02*
X8748277Y-16880258D01*
X8748277Y-16880258D02*
X8738753Y-16889781D01*
X8738753Y-16889781D02*
X8719706Y-16918353D01*
X8719706Y-16918353D02*
X8710182Y-16956448D01*
X8710182Y-16956448D02*
X8710182Y-17032639D01*
X8710182Y-17032639D02*
X8719706Y-17051686D01*
X8719706Y-17051686D02*
X8729229Y-17061210D01*
X8729229Y-17061210D02*
X8748277Y-17070734D01*
X8748277Y-17070734D02*
X8786372Y-17070734D01*
X8786372Y-17070734D02*
X8805420Y-17061210D01*
X8805420Y-17061210D02*
X8814944Y-17051686D01*
X8814944Y-17051686D02*
X8824468Y-17032639D01*
X8824468Y-17032639D02*
X8824468Y-16985020D01*
X8824468Y-16985020D02*
X8814944Y-16965972D01*
X8814944Y-16965972D02*
X8805420Y-16956448D01*
X8805420Y-16956448D02*
X8786372Y-16946924D01*
X8786372Y-16946924D02*
X8748277Y-16946924D01*
X8748277Y-16946924D02*
X8729229Y-16956448D01*
X8729229Y-16956448D02*
X8719706Y-16965972D01*
X8719706Y-16965972D02*
X8710182Y-16985020D01*
X8995896Y-16870734D02*
X8957801Y-16870734D01*
X8957801Y-16870734D02*
X8938753Y-16880258D01*
X8938753Y-16880258D02*
X8929229Y-16889781D01*
X8929229Y-16889781D02*
X8910182Y-16918353D01*
X8910182Y-16918353D02*
X8900658Y-16956448D01*
X8900658Y-16956448D02*
X8900658Y-17032639D01*
X8900658Y-17032639D02*
X8910182Y-17051686D01*
X8910182Y-17051686D02*
X8919706Y-17061210D01*
X8919706Y-17061210D02*
X8938753Y-17070734D01*
X8938753Y-17070734D02*
X8976849Y-17070734D01*
X8976849Y-17070734D02*
X8995896Y-17061210D01*
X8995896Y-17061210D02*
X9005420Y-17051686D01*
X9005420Y-17051686D02*
X9014944Y-17032639D01*
X9014944Y-17032639D02*
X9014944Y-16985020D01*
X9014944Y-16985020D02*
X9005420Y-16965972D01*
X9005420Y-16965972D02*
X8995896Y-16956448D01*
X8995896Y-16956448D02*
X8976849Y-16946924D01*
X8976849Y-16946924D02*
X8938753Y-16946924D01*
X8938753Y-16946924D02*
X8919706Y-16956448D01*
X8919706Y-16956448D02*
X8910182Y-16965972D01*
X8910182Y-16965972D02*
X8900658Y-16985020D01*
X9091134Y-16870734D02*
X9091134Y-16908829D01*
X9167325Y-16870734D02*
X9167325Y-16908829D01*
X9462563Y-17146924D02*
X9453039Y-17137400D01*
X9453039Y-17137400D02*
X9433991Y-17108829D01*
X9433991Y-17108829D02*
X9424468Y-17089781D01*
X9424468Y-17089781D02*
X9414944Y-17061210D01*
X9414944Y-17061210D02*
X9405420Y-17013591D01*
X9405420Y-17013591D02*
X9405420Y-16975496D01*
X9405420Y-16975496D02*
X9414944Y-16927877D01*
X9414944Y-16927877D02*
X9424468Y-16899305D01*
X9424468Y-16899305D02*
X9433991Y-16880258D01*
X9433991Y-16880258D02*
X9453039Y-16851686D01*
X9453039Y-16851686D02*
X9462563Y-16842162D01*
X9624468Y-16937400D02*
X9624468Y-17070734D01*
X9576849Y-16861210D02*
X9529230Y-17004067D01*
X9529230Y-17004067D02*
X9653039Y-17004067D01*
X9881611Y-17070734D02*
X9881611Y-16870734D01*
X9967325Y-17070734D02*
X9967325Y-16965972D01*
X9967325Y-16965972D02*
X9957801Y-16946924D01*
X9957801Y-16946924D02*
X9938753Y-16937400D01*
X9938753Y-16937400D02*
X9910182Y-16937400D01*
X9910182Y-16937400D02*
X9891134Y-16946924D01*
X9891134Y-16946924D02*
X9881611Y-16956448D01*
X10091134Y-17070734D02*
X10072087Y-17061210D01*
X10072087Y-17061210D02*
X10062563Y-17051686D01*
X10062563Y-17051686D02*
X10053039Y-17032639D01*
X10053039Y-17032639D02*
X10053039Y-16975496D01*
X10053039Y-16975496D02*
X10062563Y-16956448D01*
X10062563Y-16956448D02*
X10072087Y-16946924D01*
X10072087Y-16946924D02*
X10091134Y-16937400D01*
X10091134Y-16937400D02*
X10119706Y-16937400D01*
X10119706Y-16937400D02*
X10138753Y-16946924D01*
X10138753Y-16946924D02*
X10148277Y-16956448D01*
X10148277Y-16956448D02*
X10157801Y-16975496D01*
X10157801Y-16975496D02*
X10157801Y-17032639D01*
X10157801Y-17032639D02*
X10148277Y-17051686D01*
X10148277Y-17051686D02*
X10138753Y-17061210D01*
X10138753Y-17061210D02*
X10119706Y-17070734D01*
X10119706Y-17070734D02*
X10091134Y-17070734D01*
X10272087Y-17070734D02*
X10253039Y-17061210D01*
X10253039Y-17061210D02*
X10243515Y-17042162D01*
X10243515Y-17042162D02*
X10243515Y-16870734D01*
X10424468Y-17061210D02*
X10405420Y-17070734D01*
X10405420Y-17070734D02*
X10367325Y-17070734D01*
X10367325Y-17070734D02*
X10348277Y-17061210D01*
X10348277Y-17061210D02*
X10338753Y-17042162D01*
X10338753Y-17042162D02*
X10338753Y-16965972D01*
X10338753Y-16965972D02*
X10348277Y-16946924D01*
X10348277Y-16946924D02*
X10367325Y-16937400D01*
X10367325Y-16937400D02*
X10405420Y-16937400D01*
X10405420Y-16937400D02*
X10424468Y-16946924D01*
X10424468Y-16946924D02*
X10433992Y-16965972D01*
X10433992Y-16965972D02*
X10433992Y-16985020D01*
X10433992Y-16985020D02*
X10338753Y-17004067D01*
X10510182Y-17061210D02*
X10529230Y-17070734D01*
X10529230Y-17070734D02*
X10567325Y-17070734D01*
X10567325Y-17070734D02*
X10586373Y-17061210D01*
X10586373Y-17061210D02*
X10595896Y-17042162D01*
X10595896Y-17042162D02*
X10595896Y-17032639D01*
X10595896Y-17032639D02*
X10586373Y-17013591D01*
X10586373Y-17013591D02*
X10567325Y-17004067D01*
X10567325Y-17004067D02*
X10538753Y-17004067D01*
X10538753Y-17004067D02*
X10519706Y-16994543D01*
X10519706Y-16994543D02*
X10510182Y-16975496D01*
X10510182Y-16975496D02*
X10510182Y-16965972D01*
X10510182Y-16965972D02*
X10519706Y-16946924D01*
X10519706Y-16946924D02*
X10538753Y-16937400D01*
X10538753Y-16937400D02*
X10567325Y-16937400D01*
X10567325Y-16937400D02*
X10586373Y-16946924D01*
X10662563Y-17146924D02*
X10672087Y-17137400D01*
X10672087Y-17137400D02*
X10691134Y-17108829D01*
X10691134Y-17108829D02*
X10700658Y-17089781D01*
X10700658Y-17089781D02*
X10710182Y-17061210D01*
X10710182Y-17061210D02*
X10719706Y-17013591D01*
X10719706Y-17013591D02*
X10719706Y-16975496D01*
X10719706Y-16975496D02*
X10710182Y-16927877D01*
X10710182Y-16927877D02*
X10700658Y-16899305D01*
X10700658Y-16899305D02*
X10691134Y-16880258D01*
X10691134Y-16880258D02*
X10672087Y-16851686D01*
X10672087Y-16851686D02*
X10662563Y-16842162D01*
X5687500Y-17199250D02*
X5887500Y-17399250D01*
X5887500Y-17199250D02*
X5687500Y-17399250D01*
X5887500Y-17299250D02*
G75*
G02*
X5687500Y-17299250I-100000J0D01*
G01*
X5687500Y-17299250D02*
G75*
G02*
X5887500Y-17299250I100000J0D01*
G01*
X6233991Y-17257400D02*
X6233991Y-17390734D01*
X6186372Y-17181210D02*
X6138753Y-17324067D01*
X6138753Y-17324067D02*
X6262562Y-17324067D01*
X6338753Y-17371686D02*
X6348277Y-17381210D01*
X6348277Y-17381210D02*
X6338753Y-17390734D01*
X6338753Y-17390734D02*
X6329229Y-17381210D01*
X6329229Y-17381210D02*
X6338753Y-17371686D01*
X6338753Y-17371686D02*
X6338753Y-17390734D01*
X6529229Y-17190734D02*
X6433991Y-17190734D01*
X6433991Y-17190734D02*
X6424467Y-17285972D01*
X6424467Y-17285972D02*
X6433991Y-17276448D01*
X6433991Y-17276448D02*
X6453039Y-17266924D01*
X6453039Y-17266924D02*
X6500658Y-17266924D01*
X6500658Y-17266924D02*
X6519705Y-17276448D01*
X6519705Y-17276448D02*
X6529229Y-17285972D01*
X6529229Y-17285972D02*
X6538753Y-17305020D01*
X6538753Y-17305020D02*
X6538753Y-17352639D01*
X6538753Y-17352639D02*
X6529229Y-17371686D01*
X6529229Y-17371686D02*
X6519705Y-17381210D01*
X6519705Y-17381210D02*
X6500658Y-17390734D01*
X6500658Y-17390734D02*
X6453039Y-17390734D01*
X6453039Y-17390734D02*
X6433991Y-17381210D01*
X6433991Y-17381210D02*
X6424467Y-17371686D01*
X6719705Y-17190734D02*
X6624467Y-17190734D01*
X6624467Y-17190734D02*
X6614943Y-17285972D01*
X6614943Y-17285972D02*
X6624467Y-17276448D01*
X6624467Y-17276448D02*
X6643515Y-17266924D01*
X6643515Y-17266924D02*
X6691134Y-17266924D01*
X6691134Y-17266924D02*
X6710182Y-17276448D01*
X6710182Y-17276448D02*
X6719705Y-17285972D01*
X6719705Y-17285972D02*
X6729229Y-17305020D01*
X6729229Y-17305020D02*
X6729229Y-17352639D01*
X6729229Y-17352639D02*
X6719705Y-17371686D01*
X6719705Y-17371686D02*
X6710182Y-17381210D01*
X6710182Y-17381210D02*
X6691134Y-17390734D01*
X6691134Y-17390734D02*
X6643515Y-17390734D01*
X6643515Y-17390734D02*
X6624467Y-17381210D01*
X6624467Y-17381210D02*
X6614943Y-17371686D01*
X6853039Y-17190734D02*
X6872086Y-17190734D01*
X6872086Y-17190734D02*
X6891134Y-17200258D01*
X6891134Y-17200258D02*
X6900658Y-17209781D01*
X6900658Y-17209781D02*
X6910182Y-17228829D01*
X6910182Y-17228829D02*
X6919705Y-17266924D01*
X6919705Y-17266924D02*
X6919705Y-17314543D01*
X6919705Y-17314543D02*
X6910182Y-17352639D01*
X6910182Y-17352639D02*
X6900658Y-17371686D01*
X6900658Y-17371686D02*
X6891134Y-17381210D01*
X6891134Y-17381210D02*
X6872086Y-17390734D01*
X6872086Y-17390734D02*
X6853039Y-17390734D01*
X6853039Y-17390734D02*
X6833991Y-17381210D01*
X6833991Y-17381210D02*
X6824467Y-17371686D01*
X6824467Y-17371686D02*
X6814943Y-17352639D01*
X6814943Y-17352639D02*
X6805420Y-17314543D01*
X6805420Y-17314543D02*
X6805420Y-17266924D01*
X6805420Y-17266924D02*
X6814943Y-17228829D01*
X6814943Y-17228829D02*
X6824467Y-17209781D01*
X6824467Y-17209781D02*
X6833991Y-17200258D01*
X6833991Y-17200258D02*
X6853039Y-17190734D01*
X7005420Y-17390734D02*
X7005420Y-17257400D01*
X7005420Y-17276448D02*
X7014943Y-17266924D01*
X7014943Y-17266924D02*
X7033991Y-17257400D01*
X7033991Y-17257400D02*
X7062563Y-17257400D01*
X7062563Y-17257400D02*
X7081610Y-17266924D01*
X7081610Y-17266924D02*
X7091134Y-17285972D01*
X7091134Y-17285972D02*
X7091134Y-17390734D01*
X7091134Y-17285972D02*
X7100658Y-17266924D01*
X7100658Y-17266924D02*
X7119705Y-17257400D01*
X7119705Y-17257400D02*
X7148277Y-17257400D01*
X7148277Y-17257400D02*
X7167324Y-17266924D01*
X7167324Y-17266924D02*
X7176848Y-17285972D01*
X7176848Y-17285972D02*
X7176848Y-17390734D01*
X7272086Y-17390734D02*
X7272086Y-17257400D01*
X7272086Y-17276448D02*
X7281610Y-17266924D01*
X7281610Y-17266924D02*
X7300658Y-17257400D01*
X7300658Y-17257400D02*
X7329229Y-17257400D01*
X7329229Y-17257400D02*
X7348277Y-17266924D01*
X7348277Y-17266924D02*
X7357801Y-17285972D01*
X7357801Y-17285972D02*
X7357801Y-17390734D01*
X7357801Y-17285972D02*
X7367324Y-17266924D01*
X7367324Y-17266924D02*
X7386372Y-17257400D01*
X7386372Y-17257400D02*
X7414943Y-17257400D01*
X7414943Y-17257400D02*
X7433991Y-17266924D01*
X7433991Y-17266924D02*
X7443515Y-17285972D01*
X7443515Y-17285972D02*
X7443515Y-17390734D01*
X7833991Y-17181210D02*
X7662563Y-17438353D01*
X8091134Y-17190734D02*
X8110182Y-17190734D01*
X8110182Y-17190734D02*
X8129229Y-17200258D01*
X8129229Y-17200258D02*
X8138753Y-17209781D01*
X8138753Y-17209781D02*
X8148277Y-17228829D01*
X8148277Y-17228829D02*
X8157801Y-17266924D01*
X8157801Y-17266924D02*
X8157801Y-17314543D01*
X8157801Y-17314543D02*
X8148277Y-17352639D01*
X8148277Y-17352639D02*
X8138753Y-17371686D01*
X8138753Y-17371686D02*
X8129229Y-17381210D01*
X8129229Y-17381210D02*
X8110182Y-17390734D01*
X8110182Y-17390734D02*
X8091134Y-17390734D01*
X8091134Y-17390734D02*
X8072086Y-17381210D01*
X8072086Y-17381210D02*
X8062563Y-17371686D01*
X8062563Y-17371686D02*
X8053039Y-17352639D01*
X8053039Y-17352639D02*
X8043515Y-17314543D01*
X8043515Y-17314543D02*
X8043515Y-17266924D01*
X8043515Y-17266924D02*
X8053039Y-17228829D01*
X8053039Y-17228829D02*
X8062563Y-17209781D01*
X8062563Y-17209781D02*
X8072086Y-17200258D01*
X8072086Y-17200258D02*
X8091134Y-17190734D01*
X8243515Y-17371686D02*
X8253039Y-17381210D01*
X8253039Y-17381210D02*
X8243515Y-17390734D01*
X8243515Y-17390734D02*
X8233991Y-17381210D01*
X8233991Y-17381210D02*
X8243515Y-17371686D01*
X8243515Y-17371686D02*
X8243515Y-17390734D01*
X8443515Y-17390734D02*
X8329229Y-17390734D01*
X8386372Y-17390734D02*
X8386372Y-17190734D01*
X8386372Y-17190734D02*
X8367325Y-17219305D01*
X8367325Y-17219305D02*
X8348277Y-17238353D01*
X8348277Y-17238353D02*
X8329229Y-17247877D01*
X8510182Y-17190734D02*
X8643515Y-17190734D01*
X8643515Y-17190734D02*
X8557801Y-17390734D01*
X8729229Y-17390734D02*
X8767325Y-17390734D01*
X8767325Y-17390734D02*
X8786372Y-17381210D01*
X8786372Y-17381210D02*
X8795896Y-17371686D01*
X8795896Y-17371686D02*
X8814944Y-17343115D01*
X8814944Y-17343115D02*
X8824468Y-17305020D01*
X8824468Y-17305020D02*
X8824468Y-17228829D01*
X8824468Y-17228829D02*
X8814944Y-17209781D01*
X8814944Y-17209781D02*
X8805420Y-17200258D01*
X8805420Y-17200258D02*
X8786372Y-17190734D01*
X8786372Y-17190734D02*
X8748277Y-17190734D01*
X8748277Y-17190734D02*
X8729229Y-17200258D01*
X8729229Y-17200258D02*
X8719706Y-17209781D01*
X8719706Y-17209781D02*
X8710182Y-17228829D01*
X8710182Y-17228829D02*
X8710182Y-17276448D01*
X8710182Y-17276448D02*
X8719706Y-17295496D01*
X8719706Y-17295496D02*
X8729229Y-17305020D01*
X8729229Y-17305020D02*
X8748277Y-17314543D01*
X8748277Y-17314543D02*
X8786372Y-17314543D01*
X8786372Y-17314543D02*
X8805420Y-17305020D01*
X8805420Y-17305020D02*
X8814944Y-17295496D01*
X8814944Y-17295496D02*
X8824468Y-17276448D01*
X9014944Y-17390734D02*
X8900658Y-17390734D01*
X8957801Y-17390734D02*
X8957801Y-17190734D01*
X8957801Y-17190734D02*
X8938753Y-17219305D01*
X8938753Y-17219305D02*
X8919706Y-17238353D01*
X8919706Y-17238353D02*
X8900658Y-17247877D01*
X9091134Y-17190734D02*
X9091134Y-17228829D01*
X9167325Y-17190734D02*
X9167325Y-17228829D01*
X9462563Y-17466924D02*
X9453039Y-17457400D01*
X9453039Y-17457400D02*
X9433991Y-17428829D01*
X9433991Y-17428829D02*
X9424468Y-17409781D01*
X9424468Y-17409781D02*
X9414944Y-17381210D01*
X9414944Y-17381210D02*
X9405420Y-17333591D01*
X9405420Y-17333591D02*
X9405420Y-17295496D01*
X9405420Y-17295496D02*
X9414944Y-17247877D01*
X9414944Y-17247877D02*
X9424468Y-17219305D01*
X9424468Y-17219305D02*
X9433991Y-17200258D01*
X9433991Y-17200258D02*
X9453039Y-17171686D01*
X9453039Y-17171686D02*
X9462563Y-17162162D01*
X9529230Y-17209781D02*
X9538753Y-17200258D01*
X9538753Y-17200258D02*
X9557801Y-17190734D01*
X9557801Y-17190734D02*
X9605420Y-17190734D01*
X9605420Y-17190734D02*
X9624468Y-17200258D01*
X9624468Y-17200258D02*
X9633991Y-17209781D01*
X9633991Y-17209781D02*
X9643515Y-17228829D01*
X9643515Y-17228829D02*
X9643515Y-17247877D01*
X9643515Y-17247877D02*
X9633991Y-17276448D01*
X9633991Y-17276448D02*
X9519706Y-17390734D01*
X9519706Y-17390734D02*
X9643515Y-17390734D01*
X9881611Y-17390734D02*
X9881611Y-17190734D01*
X9967325Y-17390734D02*
X9967325Y-17285972D01*
X9967325Y-17285972D02*
X9957801Y-17266924D01*
X9957801Y-17266924D02*
X9938753Y-17257400D01*
X9938753Y-17257400D02*
X9910182Y-17257400D01*
X9910182Y-17257400D02*
X9891134Y-17266924D01*
X9891134Y-17266924D02*
X9881611Y-17276448D01*
X10091134Y-17390734D02*
X10072087Y-17381210D01*
X10072087Y-17381210D02*
X10062563Y-17371686D01*
X10062563Y-17371686D02*
X10053039Y-17352639D01*
X10053039Y-17352639D02*
X10053039Y-17295496D01*
X10053039Y-17295496D02*
X10062563Y-17276448D01*
X10062563Y-17276448D02*
X10072087Y-17266924D01*
X10072087Y-17266924D02*
X10091134Y-17257400D01*
X10091134Y-17257400D02*
X10119706Y-17257400D01*
X10119706Y-17257400D02*
X10138753Y-17266924D01*
X10138753Y-17266924D02*
X10148277Y-17276448D01*
X10148277Y-17276448D02*
X10157801Y-17295496D01*
X10157801Y-17295496D02*
X10157801Y-17352639D01*
X10157801Y-17352639D02*
X10148277Y-17371686D01*
X10148277Y-17371686D02*
X10138753Y-17381210D01*
X10138753Y-17381210D02*
X10119706Y-17390734D01*
X10119706Y-17390734D02*
X10091134Y-17390734D01*
X10272087Y-17390734D02*
X10253039Y-17381210D01*
X10253039Y-17381210D02*
X10243515Y-17362162D01*
X10243515Y-17362162D02*
X10243515Y-17190734D01*
X10424468Y-17381210D02*
X10405420Y-17390734D01*
X10405420Y-17390734D02*
X10367325Y-17390734D01*
X10367325Y-17390734D02*
X10348277Y-17381210D01*
X10348277Y-17381210D02*
X10338753Y-17362162D01*
X10338753Y-17362162D02*
X10338753Y-17285972D01*
X10338753Y-17285972D02*
X10348277Y-17266924D01*
X10348277Y-17266924D02*
X10367325Y-17257400D01*
X10367325Y-17257400D02*
X10405420Y-17257400D01*
X10405420Y-17257400D02*
X10424468Y-17266924D01*
X10424468Y-17266924D02*
X10433992Y-17285972D01*
X10433992Y-17285972D02*
X10433992Y-17305020D01*
X10433992Y-17305020D02*
X10338753Y-17324067D01*
X10510182Y-17381210D02*
X10529230Y-17390734D01*
X10529230Y-17390734D02*
X10567325Y-17390734D01*
X10567325Y-17390734D02*
X10586373Y-17381210D01*
X10586373Y-17381210D02*
X10595896Y-17362162D01*
X10595896Y-17362162D02*
X10595896Y-17352639D01*
X10595896Y-17352639D02*
X10586373Y-17333591D01*
X10586373Y-17333591D02*
X10567325Y-17324067D01*
X10567325Y-17324067D02*
X10538753Y-17324067D01*
X10538753Y-17324067D02*
X10519706Y-17314543D01*
X10519706Y-17314543D02*
X10510182Y-17295496D01*
X10510182Y-17295496D02*
X10510182Y-17285972D01*
X10510182Y-17285972D02*
X10519706Y-17266924D01*
X10519706Y-17266924D02*
X10538753Y-17257400D01*
X10538753Y-17257400D02*
X10567325Y-17257400D01*
X10567325Y-17257400D02*
X10586373Y-17266924D01*
X10662563Y-17466924D02*
X10672087Y-17457400D01*
X10672087Y-17457400D02*
X10691134Y-17428829D01*
X10691134Y-17428829D02*
X10700658Y-17409781D01*
X10700658Y-17409781D02*
X10710182Y-17381210D01*
X10710182Y-17381210D02*
X10719706Y-17333591D01*
X10719706Y-17333591D02*
X10719706Y-17295496D01*
X10719706Y-17295496D02*
X10710182Y-17247877D01*
X10710182Y-17247877D02*
X10700658Y-17219305D01*
X10700658Y-17219305D02*
X10691134Y-17200258D01*
X10691134Y-17200258D02*
X10672087Y-17171686D01*
X10672087Y-17171686D02*
X10662563Y-17162162D01*
M02*
