%TF.GenerationSoftware,KiCad,Pcbnew,9.0.2*%
%TF.CreationDate,2025-09-16T08:59:02+02:00*%
%TF.ProjectId,psu,7073752e-6b69-4636-9164-5f7063625858,rev?*%
%TF.SameCoordinates,Original*%
%TF.FileFunction,Drillmap*%
%TF.FilePolarity,Positive*%
%FSLAX45Y45*%
G04 Gerber Fmt 4.5, Leading zero omitted, Abs format (unit mm)*
G04 Created by KiCad (PCBNEW 9.0.2) date 2025-09-16 08:59:02*
%MOMM*%
%LPD*%
G01*
G04 APERTURE LIST*
%ADD10C,0.050000*%
%ADD11C,0.200000*%
G04 APERTURE END LIST*
D10*
X17395000Y-15280750D02*
X6395000Y-15280750D01*
X17390000Y-8260000D02*
G75*
G02*
X17890000Y-8760000I0J-500000D01*
G01*
X5895000Y-14780750D02*
X5890000Y-8760000D01*
X5890000Y-8760000D02*
G75*
G02*
X6390000Y-8260000I500000J0D01*
G01*
X17890000Y-8760000D02*
X17895000Y-14780750D01*
X6395000Y-15280750D02*
G75*
G02*
X5895000Y-14780750I0J500000D01*
G01*
X17895000Y-14780750D02*
G75*
G02*
X17395000Y-15280750I-500000J0D01*
G01*
X6390000Y-8260000D02*
X17390000Y-8260000D01*
D11*
X6148277Y-15594734D02*
X6148277Y-15394734D01*
X6148277Y-15394734D02*
X6195896Y-15394734D01*
X6195896Y-15394734D02*
X6224467Y-15404258D01*
X6224467Y-15404258D02*
X6243515Y-15423305D01*
X6243515Y-15423305D02*
X6253039Y-15442353D01*
X6253039Y-15442353D02*
X6262562Y-15480448D01*
X6262562Y-15480448D02*
X6262562Y-15509019D01*
X6262562Y-15509019D02*
X6253039Y-15547115D01*
X6253039Y-15547115D02*
X6243515Y-15566162D01*
X6243515Y-15566162D02*
X6224467Y-15585210D01*
X6224467Y-15585210D02*
X6195896Y-15594734D01*
X6195896Y-15594734D02*
X6148277Y-15594734D01*
X6348277Y-15594734D02*
X6348277Y-15461400D01*
X6348277Y-15499496D02*
X6357801Y-15480448D01*
X6357801Y-15480448D02*
X6367324Y-15470924D01*
X6367324Y-15470924D02*
X6386372Y-15461400D01*
X6386372Y-15461400D02*
X6405420Y-15461400D01*
X6472086Y-15594734D02*
X6472086Y-15461400D01*
X6472086Y-15394734D02*
X6462562Y-15404258D01*
X6462562Y-15404258D02*
X6472086Y-15413781D01*
X6472086Y-15413781D02*
X6481610Y-15404258D01*
X6481610Y-15404258D02*
X6472086Y-15394734D01*
X6472086Y-15394734D02*
X6472086Y-15413781D01*
X6595896Y-15594734D02*
X6576848Y-15585210D01*
X6576848Y-15585210D02*
X6567324Y-15566162D01*
X6567324Y-15566162D02*
X6567324Y-15394734D01*
X6700658Y-15594734D02*
X6681610Y-15585210D01*
X6681610Y-15585210D02*
X6672086Y-15566162D01*
X6672086Y-15566162D02*
X6672086Y-15394734D01*
X6929229Y-15594734D02*
X6929229Y-15394734D01*
X6929229Y-15394734D02*
X6995896Y-15537591D01*
X6995896Y-15537591D02*
X7062562Y-15394734D01*
X7062562Y-15394734D02*
X7062562Y-15594734D01*
X7243515Y-15594734D02*
X7243515Y-15489972D01*
X7243515Y-15489972D02*
X7233991Y-15470924D01*
X7233991Y-15470924D02*
X7214943Y-15461400D01*
X7214943Y-15461400D02*
X7176848Y-15461400D01*
X7176848Y-15461400D02*
X7157801Y-15470924D01*
X7243515Y-15585210D02*
X7224467Y-15594734D01*
X7224467Y-15594734D02*
X7176848Y-15594734D01*
X7176848Y-15594734D02*
X7157801Y-15585210D01*
X7157801Y-15585210D02*
X7148277Y-15566162D01*
X7148277Y-15566162D02*
X7148277Y-15547115D01*
X7148277Y-15547115D02*
X7157801Y-15528067D01*
X7157801Y-15528067D02*
X7176848Y-15518543D01*
X7176848Y-15518543D02*
X7224467Y-15518543D01*
X7224467Y-15518543D02*
X7243515Y-15509019D01*
X7338753Y-15461400D02*
X7338753Y-15661400D01*
X7338753Y-15470924D02*
X7357801Y-15461400D01*
X7357801Y-15461400D02*
X7395896Y-15461400D01*
X7395896Y-15461400D02*
X7414943Y-15470924D01*
X7414943Y-15470924D02*
X7424467Y-15480448D01*
X7424467Y-15480448D02*
X7433991Y-15499496D01*
X7433991Y-15499496D02*
X7433991Y-15556638D01*
X7433991Y-15556638D02*
X7424467Y-15575686D01*
X7424467Y-15575686D02*
X7414943Y-15585210D01*
X7414943Y-15585210D02*
X7395896Y-15594734D01*
X7395896Y-15594734D02*
X7357801Y-15594734D01*
X7357801Y-15594734D02*
X7338753Y-15585210D01*
X7519705Y-15575686D02*
X7529229Y-15585210D01*
X7529229Y-15585210D02*
X7519705Y-15594734D01*
X7519705Y-15594734D02*
X7510182Y-15585210D01*
X7510182Y-15585210D02*
X7519705Y-15575686D01*
X7519705Y-15575686D02*
X7519705Y-15594734D01*
X7519705Y-15470924D02*
X7529229Y-15480448D01*
X7529229Y-15480448D02*
X7519705Y-15489972D01*
X7519705Y-15489972D02*
X7510182Y-15480448D01*
X7510182Y-15480448D02*
X7519705Y-15470924D01*
X7519705Y-15470924D02*
X7519705Y-15489972D01*
M02*
