%TF.GenerationSoftware,KiCad,Pcbnew,9.0.2*%
%TF.CreationDate,2025-10-01T15:01:36+02:00*%
%TF.ProjectId,psu,7073752e-6b69-4636-9164-5f7063625858,rev?*%
%TF.SameCoordinates,Original*%
%TF.FileFunction,Legend,Bot*%
%TF.FilePolarity,Positive*%
%FSLAX46Y46*%
G04 Gerber Fmt 4.6, Leading zero omitted, Abs format (unit mm)*
G04 Created by KiCad (PCBNEW 9.0.2) date 2025-10-01 15:01:36*
%MOMM*%
%LPD*%
G01*
G04 APERTURE LIST*
%ADD10C,0.120000*%
%ADD11C,0.750000*%
%ADD12C,0.250000*%
%ADD13C,0.150000*%
G04 APERTURE END LIST*
D10*
X172500000Y-128500000D02*
X177500000Y-128500000D01*
X177500000Y-133500000D01*
X172500000Y-133500000D01*
X172500000Y-128500000D01*
G36*
X172500000Y-128500000D02*
G01*
X177500000Y-128500000D01*
X177500000Y-133500000D01*
X172500000Y-133500000D01*
X172500000Y-128500000D01*
G37*
X168000000Y-135000000D02*
X178000000Y-135000000D01*
X178000000Y-137000000D01*
X168000000Y-137000000D01*
X168000000Y-135000000D01*
G36*
X168000000Y-135000000D02*
G01*
X178000000Y-135000000D01*
X178000000Y-137000000D01*
X168000000Y-137000000D01*
X168000000Y-135000000D01*
G37*
D11*
X164102293Y-111179095D02*
X164102293Y-106179095D01*
X164102293Y-108560047D02*
X162388007Y-108560047D01*
X162388007Y-111179095D02*
X162388007Y-106179095D01*
X160959436Y-108560047D02*
X159959436Y-108560047D01*
X159530864Y-111179095D02*
X160959436Y-111179095D01*
X160959436Y-111179095D02*
X160959436Y-106179095D01*
X160959436Y-106179095D02*
X159530864Y-106179095D01*
X158388007Y-110941000D02*
X157959436Y-111179095D01*
X157959436Y-111179095D02*
X157245150Y-111179095D01*
X157245150Y-111179095D02*
X156959436Y-110941000D01*
X156959436Y-110941000D02*
X156816578Y-110702904D01*
X156816578Y-110702904D02*
X156673721Y-110226714D01*
X156673721Y-110226714D02*
X156673721Y-109750523D01*
X156673721Y-109750523D02*
X156816578Y-109274333D01*
X156816578Y-109274333D02*
X156959436Y-109036238D01*
X156959436Y-109036238D02*
X157245150Y-108798142D01*
X157245150Y-108798142D02*
X157816578Y-108560047D01*
X157816578Y-108560047D02*
X158102293Y-108321952D01*
X158102293Y-108321952D02*
X158245150Y-108083857D01*
X158245150Y-108083857D02*
X158388007Y-107607666D01*
X158388007Y-107607666D02*
X158388007Y-107131476D01*
X158388007Y-107131476D02*
X158245150Y-106655285D01*
X158245150Y-106655285D02*
X158102293Y-106417190D01*
X158102293Y-106417190D02*
X157816578Y-106179095D01*
X157816578Y-106179095D02*
X157102293Y-106179095D01*
X157102293Y-106179095D02*
X156673721Y-106417190D01*
X155816578Y-106179095D02*
X154102293Y-106179095D01*
X154959435Y-111179095D02*
X154959435Y-106179095D01*
X152530864Y-106179095D02*
X151959436Y-106179095D01*
X151959436Y-106179095D02*
X151673721Y-106417190D01*
X151673721Y-106417190D02*
X151388007Y-106893380D01*
X151388007Y-106893380D02*
X151245150Y-107845761D01*
X151245150Y-107845761D02*
X151245150Y-109512428D01*
X151245150Y-109512428D02*
X151388007Y-110464809D01*
X151388007Y-110464809D02*
X151673721Y-110941000D01*
X151673721Y-110941000D02*
X151959436Y-111179095D01*
X151959436Y-111179095D02*
X152530864Y-111179095D01*
X152530864Y-111179095D02*
X152816579Y-110941000D01*
X152816579Y-110941000D02*
X153102293Y-110464809D01*
X153102293Y-110464809D02*
X153245150Y-109512428D01*
X153245150Y-109512428D02*
X153245150Y-107845761D01*
X153245150Y-107845761D02*
X153102293Y-106893380D01*
X153102293Y-106893380D02*
X152816579Y-106417190D01*
X152816579Y-106417190D02*
X152530864Y-106179095D01*
X148245150Y-111179095D02*
X149245150Y-108798142D01*
X149959436Y-111179095D02*
X149959436Y-106179095D01*
X149959436Y-106179095D02*
X148816579Y-106179095D01*
X148816579Y-106179095D02*
X148530864Y-106417190D01*
X148530864Y-106417190D02*
X148388007Y-106655285D01*
X148388007Y-106655285D02*
X148245150Y-107131476D01*
X148245150Y-107131476D02*
X148245150Y-107845761D01*
X148245150Y-107845761D02*
X148388007Y-108321952D01*
X148388007Y-108321952D02*
X148530864Y-108560047D01*
X148530864Y-108560047D02*
X148816579Y-108798142D01*
X148816579Y-108798142D02*
X149959436Y-108798142D01*
X146959436Y-108560047D02*
X145959436Y-108560047D01*
X145530864Y-111179095D02*
X146959436Y-111179095D01*
X146959436Y-111179095D02*
X146959436Y-106179095D01*
X146959436Y-106179095D02*
X145530864Y-106179095D01*
D12*
X157466003Y-136214619D02*
X157799336Y-135738428D01*
X158037431Y-136214619D02*
X158037431Y-135214619D01*
X158037431Y-135214619D02*
X157656479Y-135214619D01*
X157656479Y-135214619D02*
X157561241Y-135262238D01*
X157561241Y-135262238D02*
X157513622Y-135309857D01*
X157513622Y-135309857D02*
X157466003Y-135405095D01*
X157466003Y-135405095D02*
X157466003Y-135547952D01*
X157466003Y-135547952D02*
X157513622Y-135643190D01*
X157513622Y-135643190D02*
X157561241Y-135690809D01*
X157561241Y-135690809D02*
X157656479Y-135738428D01*
X157656479Y-135738428D02*
X158037431Y-135738428D01*
X156608860Y-136214619D02*
X156608860Y-135690809D01*
X156608860Y-135690809D02*
X156656479Y-135595571D01*
X156656479Y-135595571D02*
X156751717Y-135547952D01*
X156751717Y-135547952D02*
X156942193Y-135547952D01*
X156942193Y-135547952D02*
X157037431Y-135595571D01*
X156608860Y-136167000D02*
X156704098Y-136214619D01*
X156704098Y-136214619D02*
X156942193Y-136214619D01*
X156942193Y-136214619D02*
X157037431Y-136167000D01*
X157037431Y-136167000D02*
X157085050Y-136071761D01*
X157085050Y-136071761D02*
X157085050Y-135976523D01*
X157085050Y-135976523D02*
X157037431Y-135881285D01*
X157037431Y-135881285D02*
X156942193Y-135833666D01*
X156942193Y-135833666D02*
X156704098Y-135833666D01*
X156704098Y-135833666D02*
X156608860Y-135786047D01*
X156180288Y-136167000D02*
X156085050Y-136214619D01*
X156085050Y-136214619D02*
X155894574Y-136214619D01*
X155894574Y-136214619D02*
X155799336Y-136167000D01*
X155799336Y-136167000D02*
X155751717Y-136071761D01*
X155751717Y-136071761D02*
X155751717Y-136024142D01*
X155751717Y-136024142D02*
X155799336Y-135928904D01*
X155799336Y-135928904D02*
X155894574Y-135881285D01*
X155894574Y-135881285D02*
X156037431Y-135881285D01*
X156037431Y-135881285D02*
X156132669Y-135833666D01*
X156132669Y-135833666D02*
X156180288Y-135738428D01*
X156180288Y-135738428D02*
X156180288Y-135690809D01*
X156180288Y-135690809D02*
X156132669Y-135595571D01*
X156132669Y-135595571D02*
X156037431Y-135547952D01*
X156037431Y-135547952D02*
X155894574Y-135547952D01*
X155894574Y-135547952D02*
X155799336Y-135595571D01*
X155323145Y-135547952D02*
X155323145Y-136547952D01*
X155323145Y-135595571D02*
X155227907Y-135547952D01*
X155227907Y-135547952D02*
X155037431Y-135547952D01*
X155037431Y-135547952D02*
X154942193Y-135595571D01*
X154942193Y-135595571D02*
X154894574Y-135643190D01*
X154894574Y-135643190D02*
X154846955Y-135738428D01*
X154846955Y-135738428D02*
X154846955Y-136024142D01*
X154846955Y-136024142D02*
X154894574Y-136119380D01*
X154894574Y-136119380D02*
X154942193Y-136167000D01*
X154942193Y-136167000D02*
X155037431Y-136214619D01*
X155037431Y-136214619D02*
X155227907Y-136214619D01*
X155227907Y-136214619D02*
X155323145Y-136167000D01*
X154418383Y-136214619D02*
X154418383Y-135214619D01*
X154418383Y-135595571D02*
X154323145Y-135547952D01*
X154323145Y-135547952D02*
X154132669Y-135547952D01*
X154132669Y-135547952D02*
X154037431Y-135595571D01*
X154037431Y-135595571D02*
X153989812Y-135643190D01*
X153989812Y-135643190D02*
X153942193Y-135738428D01*
X153942193Y-135738428D02*
X153942193Y-136024142D01*
X153942193Y-136024142D02*
X153989812Y-136119380D01*
X153989812Y-136119380D02*
X154037431Y-136167000D01*
X154037431Y-136167000D02*
X154132669Y-136214619D01*
X154132669Y-136214619D02*
X154323145Y-136214619D01*
X154323145Y-136214619D02*
X154418383Y-136167000D01*
X153132669Y-136167000D02*
X153227907Y-136214619D01*
X153227907Y-136214619D02*
X153418383Y-136214619D01*
X153418383Y-136214619D02*
X153513621Y-136167000D01*
X153513621Y-136167000D02*
X153561240Y-136071761D01*
X153561240Y-136071761D02*
X153561240Y-135690809D01*
X153561240Y-135690809D02*
X153513621Y-135595571D01*
X153513621Y-135595571D02*
X153418383Y-135547952D01*
X153418383Y-135547952D02*
X153227907Y-135547952D01*
X153227907Y-135547952D02*
X153132669Y-135595571D01*
X153132669Y-135595571D02*
X153085050Y-135690809D01*
X153085050Y-135690809D02*
X153085050Y-135786047D01*
X153085050Y-135786047D02*
X153561240Y-135881285D01*
X152656478Y-136214619D02*
X152656478Y-135547952D01*
X152656478Y-135738428D02*
X152608859Y-135643190D01*
X152608859Y-135643190D02*
X152561240Y-135595571D01*
X152561240Y-135595571D02*
X152466002Y-135547952D01*
X152466002Y-135547952D02*
X152370764Y-135547952D01*
X152037430Y-136214619D02*
X152037430Y-135547952D01*
X152037430Y-135738428D02*
X151989811Y-135643190D01*
X151989811Y-135643190D02*
X151942192Y-135595571D01*
X151942192Y-135595571D02*
X151846954Y-135547952D01*
X151846954Y-135547952D02*
X151751716Y-135547952D01*
X151513620Y-135547952D02*
X151275525Y-136214619D01*
X151037430Y-135547952D02*
X151275525Y-136214619D01*
X151275525Y-136214619D02*
X151370763Y-136452714D01*
X151370763Y-136452714D02*
X151418382Y-136500333D01*
X151418382Y-136500333D02*
X151513620Y-136547952D01*
X149894572Y-136214619D02*
X149894572Y-135214619D01*
X149894572Y-135214619D02*
X149513620Y-135214619D01*
X149513620Y-135214619D02*
X149418382Y-135262238D01*
X149418382Y-135262238D02*
X149370763Y-135309857D01*
X149370763Y-135309857D02*
X149323144Y-135405095D01*
X149323144Y-135405095D02*
X149323144Y-135547952D01*
X149323144Y-135547952D02*
X149370763Y-135643190D01*
X149370763Y-135643190D02*
X149418382Y-135690809D01*
X149418382Y-135690809D02*
X149513620Y-135738428D01*
X149513620Y-135738428D02*
X149894572Y-135738428D01*
X148894572Y-136214619D02*
X148894572Y-135547952D01*
X148894572Y-135214619D02*
X148942191Y-135262238D01*
X148942191Y-135262238D02*
X148894572Y-135309857D01*
X148894572Y-135309857D02*
X148846953Y-135262238D01*
X148846953Y-135262238D02*
X148894572Y-135214619D01*
X148894572Y-135214619D02*
X148894572Y-135309857D01*
X147656477Y-136214619D02*
X147656477Y-135214619D01*
X147656477Y-135214619D02*
X147323144Y-135928904D01*
X147323144Y-135928904D02*
X146989811Y-135214619D01*
X146989811Y-135214619D02*
X146989811Y-136214619D01*
X146085049Y-136214619D02*
X146085049Y-135690809D01*
X146085049Y-135690809D02*
X146132668Y-135595571D01*
X146132668Y-135595571D02*
X146227906Y-135547952D01*
X146227906Y-135547952D02*
X146418382Y-135547952D01*
X146418382Y-135547952D02*
X146513620Y-135595571D01*
X146085049Y-136167000D02*
X146180287Y-136214619D01*
X146180287Y-136214619D02*
X146418382Y-136214619D01*
X146418382Y-136214619D02*
X146513620Y-136167000D01*
X146513620Y-136167000D02*
X146561239Y-136071761D01*
X146561239Y-136071761D02*
X146561239Y-135976523D01*
X146561239Y-135976523D02*
X146513620Y-135881285D01*
X146513620Y-135881285D02*
X146418382Y-135833666D01*
X146418382Y-135833666D02*
X146180287Y-135833666D01*
X146180287Y-135833666D02*
X146085049Y-135786047D01*
X145180287Y-135547952D02*
X145180287Y-136357476D01*
X145180287Y-136357476D02*
X145227906Y-136452714D01*
X145227906Y-136452714D02*
X145275525Y-136500333D01*
X145275525Y-136500333D02*
X145370763Y-136547952D01*
X145370763Y-136547952D02*
X145513620Y-136547952D01*
X145513620Y-136547952D02*
X145608858Y-136500333D01*
X145180287Y-136167000D02*
X145275525Y-136214619D01*
X145275525Y-136214619D02*
X145466001Y-136214619D01*
X145466001Y-136214619D02*
X145561239Y-136167000D01*
X145561239Y-136167000D02*
X145608858Y-136119380D01*
X145608858Y-136119380D02*
X145656477Y-136024142D01*
X145656477Y-136024142D02*
X145656477Y-135738428D01*
X145656477Y-135738428D02*
X145608858Y-135643190D01*
X145608858Y-135643190D02*
X145561239Y-135595571D01*
X145561239Y-135595571D02*
X145466001Y-135547952D01*
X145466001Y-135547952D02*
X145275525Y-135547952D01*
X145275525Y-135547952D02*
X145180287Y-135595571D01*
X144799334Y-135547952D02*
X144561239Y-136214619D01*
X144323144Y-135547952D02*
X144561239Y-136214619D01*
X144561239Y-136214619D02*
X144656477Y-136452714D01*
X144656477Y-136452714D02*
X144704096Y-136500333D01*
X144704096Y-136500333D02*
X144799334Y-136547952D01*
X143513620Y-136214619D02*
X143513620Y-135690809D01*
X143513620Y-135690809D02*
X143561239Y-135595571D01*
X143561239Y-135595571D02*
X143656477Y-135547952D01*
X143656477Y-135547952D02*
X143846953Y-135547952D01*
X143846953Y-135547952D02*
X143942191Y-135595571D01*
X143513620Y-136167000D02*
X143608858Y-136214619D01*
X143608858Y-136214619D02*
X143846953Y-136214619D01*
X143846953Y-136214619D02*
X143942191Y-136167000D01*
X143942191Y-136167000D02*
X143989810Y-136071761D01*
X143989810Y-136071761D02*
X143989810Y-135976523D01*
X143989810Y-135976523D02*
X143942191Y-135881285D01*
X143942191Y-135881285D02*
X143846953Y-135833666D01*
X143846953Y-135833666D02*
X143608858Y-135833666D01*
X143608858Y-135833666D02*
X143513620Y-135786047D01*
X143037429Y-136214619D02*
X143037429Y-135547952D01*
X143037429Y-135738428D02*
X142989810Y-135643190D01*
X142989810Y-135643190D02*
X142942191Y-135595571D01*
X142942191Y-135595571D02*
X142846953Y-135547952D01*
X142846953Y-135547952D02*
X142751715Y-135547952D01*
X142275524Y-136214619D02*
X142370762Y-136167000D01*
X142370762Y-136167000D02*
X142418381Y-136119380D01*
X142418381Y-136119380D02*
X142466000Y-136024142D01*
X142466000Y-136024142D02*
X142466000Y-135738428D01*
X142466000Y-135738428D02*
X142418381Y-135643190D01*
X142418381Y-135643190D02*
X142370762Y-135595571D01*
X142370762Y-135595571D02*
X142275524Y-135547952D01*
X142275524Y-135547952D02*
X142132667Y-135547952D01*
X142132667Y-135547952D02*
X142037429Y-135595571D01*
X142037429Y-135595571D02*
X141989810Y-135643190D01*
X141989810Y-135643190D02*
X141942191Y-135738428D01*
X141942191Y-135738428D02*
X141942191Y-136024142D01*
X141942191Y-136024142D02*
X141989810Y-136119380D01*
X141989810Y-136119380D02*
X142037429Y-136167000D01*
X142037429Y-136167000D02*
X142132667Y-136214619D01*
X142132667Y-136214619D02*
X142275524Y-136214619D01*
X141513619Y-136214619D02*
X141513619Y-135547952D01*
X141513619Y-135738428D02*
X141466000Y-135643190D01*
X141466000Y-135643190D02*
X141418381Y-135595571D01*
X141418381Y-135595571D02*
X141323143Y-135547952D01*
X141323143Y-135547952D02*
X141227905Y-135547952D01*
X140942190Y-136167000D02*
X140846952Y-136214619D01*
X140846952Y-136214619D02*
X140656476Y-136214619D01*
X140656476Y-136214619D02*
X140561238Y-136167000D01*
X140561238Y-136167000D02*
X140513619Y-136071761D01*
X140513619Y-136071761D02*
X140513619Y-136024142D01*
X140513619Y-136024142D02*
X140561238Y-135928904D01*
X140561238Y-135928904D02*
X140656476Y-135881285D01*
X140656476Y-135881285D02*
X140799333Y-135881285D01*
X140799333Y-135881285D02*
X140894571Y-135833666D01*
X140894571Y-135833666D02*
X140942190Y-135738428D01*
X140942190Y-135738428D02*
X140942190Y-135690809D01*
X140942190Y-135690809D02*
X140894571Y-135595571D01*
X140894571Y-135595571D02*
X140799333Y-135547952D01*
X140799333Y-135547952D02*
X140656476Y-135547952D01*
X140656476Y-135547952D02*
X140561238Y-135595571D01*
X140180285Y-135547952D02*
X139656476Y-135547952D01*
X139656476Y-135547952D02*
X140180285Y-136214619D01*
X140180285Y-136214619D02*
X139656476Y-136214619D01*
X138846952Y-136214619D02*
X138846952Y-135690809D01*
X138846952Y-135690809D02*
X138894571Y-135595571D01*
X138894571Y-135595571D02*
X138989809Y-135547952D01*
X138989809Y-135547952D02*
X139180285Y-135547952D01*
X139180285Y-135547952D02*
X139275523Y-135595571D01*
X138846952Y-136167000D02*
X138942190Y-136214619D01*
X138942190Y-136214619D02*
X139180285Y-136214619D01*
X139180285Y-136214619D02*
X139275523Y-136167000D01*
X139275523Y-136167000D02*
X139323142Y-136071761D01*
X139323142Y-136071761D02*
X139323142Y-135976523D01*
X139323142Y-135976523D02*
X139275523Y-135881285D01*
X139275523Y-135881285D02*
X139180285Y-135833666D01*
X139180285Y-135833666D02*
X138942190Y-135833666D01*
X138942190Y-135833666D02*
X138846952Y-135786047D01*
X138989809Y-135167000D02*
X139132666Y-135309857D01*
X137942190Y-135547952D02*
X137942190Y-136357476D01*
X137942190Y-136357476D02*
X137989809Y-136452714D01*
X137989809Y-136452714D02*
X138037428Y-136500333D01*
X138037428Y-136500333D02*
X138132666Y-136547952D01*
X138132666Y-136547952D02*
X138275523Y-136547952D01*
X138275523Y-136547952D02*
X138370761Y-136500333D01*
X137942190Y-136167000D02*
X138037428Y-136214619D01*
X138037428Y-136214619D02*
X138227904Y-136214619D01*
X138227904Y-136214619D02*
X138323142Y-136167000D01*
X138323142Y-136167000D02*
X138370761Y-136119380D01*
X138370761Y-136119380D02*
X138418380Y-136024142D01*
X138418380Y-136024142D02*
X138418380Y-135738428D01*
X138418380Y-135738428D02*
X138370761Y-135643190D01*
X138370761Y-135643190D02*
X138323142Y-135595571D01*
X138323142Y-135595571D02*
X138227904Y-135547952D01*
X138227904Y-135547952D02*
X138037428Y-135547952D01*
X138037428Y-135547952D02*
X137942190Y-135595571D01*
D11*
X157162293Y-125419095D02*
X157162293Y-120419095D01*
X157162293Y-120419095D02*
X156019436Y-120419095D01*
X156019436Y-120419095D02*
X155733721Y-120657190D01*
X155733721Y-120657190D02*
X155590864Y-120895285D01*
X155590864Y-120895285D02*
X155448007Y-121371476D01*
X155448007Y-121371476D02*
X155448007Y-122085761D01*
X155448007Y-122085761D02*
X155590864Y-122561952D01*
X155590864Y-122561952D02*
X155733721Y-122800047D01*
X155733721Y-122800047D02*
X156019436Y-123038142D01*
X156019436Y-123038142D02*
X157162293Y-123038142D01*
X152448007Y-125419095D02*
X153448007Y-123038142D01*
X154162293Y-125419095D02*
X154162293Y-120419095D01*
X154162293Y-120419095D02*
X153019436Y-120419095D01*
X153019436Y-120419095D02*
X152733721Y-120657190D01*
X152733721Y-120657190D02*
X152590864Y-120895285D01*
X152590864Y-120895285D02*
X152448007Y-121371476D01*
X152448007Y-121371476D02*
X152448007Y-122085761D01*
X152448007Y-122085761D02*
X152590864Y-122561952D01*
X152590864Y-122561952D02*
X152733721Y-122800047D01*
X152733721Y-122800047D02*
X153019436Y-123038142D01*
X153019436Y-123038142D02*
X154162293Y-123038142D01*
X150590864Y-120419095D02*
X150019436Y-120419095D01*
X150019436Y-120419095D02*
X149733721Y-120657190D01*
X149733721Y-120657190D02*
X149448007Y-121133380D01*
X149448007Y-121133380D02*
X149305150Y-122085761D01*
X149305150Y-122085761D02*
X149305150Y-123752428D01*
X149305150Y-123752428D02*
X149448007Y-124704809D01*
X149448007Y-124704809D02*
X149733721Y-125181000D01*
X149733721Y-125181000D02*
X150019436Y-125419095D01*
X150019436Y-125419095D02*
X150590864Y-125419095D01*
X150590864Y-125419095D02*
X150876579Y-125181000D01*
X150876579Y-125181000D02*
X151162293Y-124704809D01*
X151162293Y-124704809D02*
X151305150Y-123752428D01*
X151305150Y-123752428D02*
X151305150Y-122085761D01*
X151305150Y-122085761D02*
X151162293Y-121133380D01*
X151162293Y-121133380D02*
X150876579Y-120657190D01*
X150876579Y-120657190D02*
X150590864Y-120419095D01*
X145733722Y-125419095D02*
X145733722Y-120419095D01*
X145733722Y-120419095D02*
X145019436Y-120419095D01*
X145019436Y-120419095D02*
X144590865Y-120657190D01*
X144590865Y-120657190D02*
X144305150Y-121133380D01*
X144305150Y-121133380D02*
X144162293Y-121609571D01*
X144162293Y-121609571D02*
X144019436Y-122561952D01*
X144019436Y-122561952D02*
X144019436Y-123276238D01*
X144019436Y-123276238D02*
X144162293Y-124228619D01*
X144162293Y-124228619D02*
X144305150Y-124704809D01*
X144305150Y-124704809D02*
X144590865Y-125181000D01*
X144590865Y-125181000D02*
X145019436Y-125419095D01*
X145019436Y-125419095D02*
X145733722Y-125419095D01*
X142876579Y-125181000D02*
X142448008Y-125419095D01*
X142448008Y-125419095D02*
X141733722Y-125419095D01*
X141733722Y-125419095D02*
X141448008Y-125181000D01*
X141448008Y-125181000D02*
X141305150Y-124942904D01*
X141305150Y-124942904D02*
X141162293Y-124466714D01*
X141162293Y-124466714D02*
X141162293Y-123990523D01*
X141162293Y-123990523D02*
X141305150Y-123514333D01*
X141305150Y-123514333D02*
X141448008Y-123276238D01*
X141448008Y-123276238D02*
X141733722Y-123038142D01*
X141733722Y-123038142D02*
X142305150Y-122800047D01*
X142305150Y-122800047D02*
X142590865Y-122561952D01*
X142590865Y-122561952D02*
X142733722Y-122323857D01*
X142733722Y-122323857D02*
X142876579Y-121847666D01*
X142876579Y-121847666D02*
X142876579Y-121371476D01*
X142876579Y-121371476D02*
X142733722Y-120895285D01*
X142733722Y-120895285D02*
X142590865Y-120657190D01*
X142590865Y-120657190D02*
X142305150Y-120419095D01*
X142305150Y-120419095D02*
X141590865Y-120419095D01*
X141590865Y-120419095D02*
X141162293Y-120657190D01*
X139876579Y-125419095D02*
X139876579Y-120419095D01*
X139876579Y-120419095D02*
X138733722Y-120419095D01*
X138733722Y-120419095D02*
X138448007Y-120657190D01*
X138448007Y-120657190D02*
X138305150Y-120895285D01*
X138305150Y-120895285D02*
X138162293Y-121371476D01*
X138162293Y-121371476D02*
X138162293Y-122085761D01*
X138162293Y-122085761D02*
X138305150Y-122561952D01*
X138305150Y-122561952D02*
X138448007Y-122800047D01*
X138448007Y-122800047D02*
X138733722Y-123038142D01*
X138733722Y-123038142D02*
X139876579Y-123038142D01*
D12*
X158275050Y-126534619D02*
X157132193Y-126534619D01*
X157703622Y-127534619D02*
X157703622Y-126534619D01*
X156465526Y-127010809D02*
X155798859Y-127010809D01*
X155513145Y-127534619D02*
X156465526Y-127534619D01*
X156465526Y-127534619D02*
X156465526Y-126534619D01*
X156465526Y-126534619D02*
X155513145Y-126534619D01*
X153513145Y-127439380D02*
X153608383Y-127487000D01*
X153608383Y-127487000D02*
X153894097Y-127534619D01*
X153894097Y-127534619D02*
X154084573Y-127534619D01*
X154084573Y-127534619D02*
X154370288Y-127487000D01*
X154370288Y-127487000D02*
X154560764Y-127391761D01*
X154560764Y-127391761D02*
X154656002Y-127296523D01*
X154656002Y-127296523D02*
X154751240Y-127106047D01*
X154751240Y-127106047D02*
X154751240Y-126963190D01*
X154751240Y-126963190D02*
X154656002Y-126772714D01*
X154656002Y-126772714D02*
X154560764Y-126677476D01*
X154560764Y-126677476D02*
X154370288Y-126582238D01*
X154370288Y-126582238D02*
X154084573Y-126534619D01*
X154084573Y-126534619D02*
X153894097Y-126534619D01*
X153894097Y-126534619D02*
X153608383Y-126582238D01*
X153608383Y-126582238D02*
X153513145Y-126629857D01*
X152656002Y-127534619D02*
X152656002Y-126534619D01*
X152656002Y-127010809D02*
X151513145Y-127010809D01*
X151513145Y-127534619D02*
X151513145Y-126534619D01*
X150560764Y-127534619D02*
X150560764Y-126534619D01*
X150560764Y-126534619D02*
X149417907Y-127534619D01*
X149417907Y-127534619D02*
X149417907Y-126534619D01*
X148084574Y-126534619D02*
X147703621Y-126534619D01*
X147703621Y-126534619D02*
X147513145Y-126582238D01*
X147513145Y-126582238D02*
X147322669Y-126677476D01*
X147322669Y-126677476D02*
X147227431Y-126867952D01*
X147227431Y-126867952D02*
X147227431Y-127201285D01*
X147227431Y-127201285D02*
X147322669Y-127391761D01*
X147322669Y-127391761D02*
X147513145Y-127487000D01*
X147513145Y-127487000D02*
X147703621Y-127534619D01*
X147703621Y-127534619D02*
X148084574Y-127534619D01*
X148084574Y-127534619D02*
X148275050Y-127487000D01*
X148275050Y-127487000D02*
X148465526Y-127391761D01*
X148465526Y-127391761D02*
X148560764Y-127201285D01*
X148560764Y-127201285D02*
X148560764Y-126867952D01*
X148560764Y-126867952D02*
X148465526Y-126677476D01*
X148465526Y-126677476D02*
X148275050Y-126582238D01*
X148275050Y-126582238D02*
X148084574Y-126534619D01*
X145417907Y-127534619D02*
X146370288Y-127534619D01*
X146370288Y-127534619D02*
X146370288Y-126534619D01*
X144370288Y-126534619D02*
X143989335Y-126534619D01*
X143989335Y-126534619D02*
X143798859Y-126582238D01*
X143798859Y-126582238D02*
X143608383Y-126677476D01*
X143608383Y-126677476D02*
X143513145Y-126867952D01*
X143513145Y-126867952D02*
X143513145Y-127201285D01*
X143513145Y-127201285D02*
X143608383Y-127391761D01*
X143608383Y-127391761D02*
X143798859Y-127487000D01*
X143798859Y-127487000D02*
X143989335Y-127534619D01*
X143989335Y-127534619D02*
X144370288Y-127534619D01*
X144370288Y-127534619D02*
X144560764Y-127487000D01*
X144560764Y-127487000D02*
X144751240Y-127391761D01*
X144751240Y-127391761D02*
X144846478Y-127201285D01*
X144846478Y-127201285D02*
X144846478Y-126867952D01*
X144846478Y-126867952D02*
X144751240Y-126677476D01*
X144751240Y-126677476D02*
X144560764Y-126582238D01*
X144560764Y-126582238D02*
X144370288Y-126534619D01*
X141608383Y-126582238D02*
X141798859Y-126534619D01*
X141798859Y-126534619D02*
X142084573Y-126534619D01*
X142084573Y-126534619D02*
X142370288Y-126582238D01*
X142370288Y-126582238D02*
X142560764Y-126677476D01*
X142560764Y-126677476D02*
X142656002Y-126772714D01*
X142656002Y-126772714D02*
X142751240Y-126963190D01*
X142751240Y-126963190D02*
X142751240Y-127106047D01*
X142751240Y-127106047D02*
X142656002Y-127296523D01*
X142656002Y-127296523D02*
X142560764Y-127391761D01*
X142560764Y-127391761D02*
X142370288Y-127487000D01*
X142370288Y-127487000D02*
X142084573Y-127534619D01*
X142084573Y-127534619D02*
X141894097Y-127534619D01*
X141894097Y-127534619D02*
X141608383Y-127487000D01*
X141608383Y-127487000D02*
X141513145Y-127439380D01*
X141513145Y-127439380D02*
X141513145Y-127106047D01*
X141513145Y-127106047D02*
X141894097Y-127106047D01*
X140656002Y-127534619D02*
X140656002Y-126534619D01*
X139703621Y-127010809D02*
X139036954Y-127010809D01*
X138751240Y-127534619D02*
X139703621Y-127534619D01*
X139703621Y-127534619D02*
X139703621Y-126534619D01*
X139703621Y-126534619D02*
X138751240Y-126534619D01*
X137989335Y-127487000D02*
X137703621Y-127534619D01*
X137703621Y-127534619D02*
X137227430Y-127534619D01*
X137227430Y-127534619D02*
X137036954Y-127487000D01*
X137036954Y-127487000D02*
X136941716Y-127439380D01*
X136941716Y-127439380D02*
X136846478Y-127344142D01*
X136846478Y-127344142D02*
X136846478Y-127248904D01*
X136846478Y-127248904D02*
X136941716Y-127153666D01*
X136941716Y-127153666D02*
X137036954Y-127106047D01*
X137036954Y-127106047D02*
X137227430Y-127058428D01*
X137227430Y-127058428D02*
X137608383Y-127010809D01*
X137608383Y-127010809D02*
X137798859Y-126963190D01*
X137798859Y-126963190D02*
X137894097Y-126915571D01*
X137894097Y-126915571D02*
X137989335Y-126820333D01*
X137989335Y-126820333D02*
X137989335Y-126725095D01*
X137989335Y-126725095D02*
X137894097Y-126629857D01*
X137894097Y-126629857D02*
X137798859Y-126582238D01*
X137798859Y-126582238D02*
X137608383Y-126534619D01*
X137608383Y-126534619D02*
X137132192Y-126534619D01*
X137132192Y-126534619D02*
X136846478Y-126582238D01*
D11*
X166492293Y-101949095D02*
X166492293Y-96949095D01*
X166492293Y-99330047D02*
X164778007Y-99330047D01*
X164778007Y-101949095D02*
X164778007Y-96949095D01*
X161349436Y-102425285D02*
X161635150Y-102187190D01*
X161635150Y-102187190D02*
X161920864Y-101711000D01*
X161920864Y-101711000D02*
X162349436Y-100996714D01*
X162349436Y-100996714D02*
X162635150Y-100758619D01*
X162635150Y-100758619D02*
X162920864Y-100758619D01*
X162778007Y-101949095D02*
X163063722Y-101711000D01*
X163063722Y-101711000D02*
X163349436Y-101234809D01*
X163349436Y-101234809D02*
X163492293Y-100282428D01*
X163492293Y-100282428D02*
X163492293Y-98615761D01*
X163492293Y-98615761D02*
X163349436Y-97663380D01*
X163349436Y-97663380D02*
X163063722Y-97187190D01*
X163063722Y-97187190D02*
X162778007Y-96949095D01*
X162778007Y-96949095D02*
X162206579Y-96949095D01*
X162206579Y-96949095D02*
X161920864Y-97187190D01*
X161920864Y-97187190D02*
X161635150Y-97663380D01*
X161635150Y-97663380D02*
X161492293Y-98615761D01*
X161492293Y-98615761D02*
X161492293Y-100282428D01*
X161492293Y-100282428D02*
X161635150Y-101234809D01*
X161635150Y-101234809D02*
X161920864Y-101711000D01*
X161920864Y-101711000D02*
X162206579Y-101949095D01*
X162206579Y-101949095D02*
X162778007Y-101949095D01*
X159063722Y-101711000D02*
X159349436Y-101949095D01*
X159349436Y-101949095D02*
X159920865Y-101949095D01*
X159920865Y-101949095D02*
X160206579Y-101711000D01*
X160206579Y-101711000D02*
X160349436Y-101234809D01*
X160349436Y-101234809D02*
X160349436Y-99330047D01*
X160349436Y-99330047D02*
X160206579Y-98853857D01*
X160206579Y-98853857D02*
X159920865Y-98615761D01*
X159920865Y-98615761D02*
X159349436Y-98615761D01*
X159349436Y-98615761D02*
X159063722Y-98853857D01*
X159063722Y-98853857D02*
X158920865Y-99330047D01*
X158920865Y-99330047D02*
X158920865Y-99806238D01*
X158920865Y-99806238D02*
X160349436Y-100282428D01*
X157206578Y-101949095D02*
X157492293Y-101711000D01*
X157492293Y-101711000D02*
X157635150Y-101234809D01*
X157635150Y-101234809D02*
X157635150Y-96949095D01*
X154920864Y-101711000D02*
X155206578Y-101949095D01*
X155206578Y-101949095D02*
X155778007Y-101949095D01*
X155778007Y-101949095D02*
X156063721Y-101711000D01*
X156063721Y-101711000D02*
X156206578Y-101234809D01*
X156206578Y-101234809D02*
X156206578Y-99330047D01*
X156206578Y-99330047D02*
X156063721Y-98853857D01*
X156063721Y-98853857D02*
X155778007Y-98615761D01*
X155778007Y-98615761D02*
X155206578Y-98615761D01*
X155206578Y-98615761D02*
X154920864Y-98853857D01*
X154920864Y-98853857D02*
X154778007Y-99330047D01*
X154778007Y-99330047D02*
X154778007Y-99806238D01*
X154778007Y-99806238D02*
X156206578Y-100282428D01*
X153492292Y-101949095D02*
X153492292Y-96949095D01*
X153206578Y-100044333D02*
X152349435Y-101949095D01*
X152349435Y-98615761D02*
X153492292Y-100520523D01*
X151492292Y-98615761D02*
X150349435Y-98615761D01*
X151063721Y-96949095D02*
X151063721Y-101234809D01*
X151063721Y-101234809D02*
X150920864Y-101711000D01*
X150920864Y-101711000D02*
X150635149Y-101949095D01*
X150635149Y-101949095D02*
X150349435Y-101949095D01*
X149349435Y-101949095D02*
X149349435Y-98615761D01*
X149349435Y-99568142D02*
X149206578Y-99091952D01*
X149206578Y-99091952D02*
X149063721Y-98853857D01*
X149063721Y-98853857D02*
X148778006Y-98615761D01*
X148778006Y-98615761D02*
X148492292Y-98615761D01*
X147063720Y-101949095D02*
X147349435Y-101711000D01*
X147349435Y-101711000D02*
X147492292Y-101472904D01*
X147492292Y-101472904D02*
X147635149Y-100996714D01*
X147635149Y-100996714D02*
X147635149Y-99568142D01*
X147635149Y-99568142D02*
X147492292Y-99091952D01*
X147492292Y-99091952D02*
X147349435Y-98853857D01*
X147349435Y-98853857D02*
X147063720Y-98615761D01*
X147063720Y-98615761D02*
X146635149Y-98615761D01*
X146635149Y-98615761D02*
X146349435Y-98853857D01*
X146349435Y-98853857D02*
X146206578Y-99091952D01*
X146206578Y-99091952D02*
X146063720Y-99568142D01*
X146063720Y-99568142D02*
X146063720Y-100996714D01*
X146063720Y-100996714D02*
X146206578Y-101472904D01*
X146206578Y-101472904D02*
X146349435Y-101711000D01*
X146349435Y-101711000D02*
X146635149Y-101949095D01*
X146635149Y-101949095D02*
X147063720Y-101949095D01*
X144778006Y-98615761D02*
X144778006Y-101949095D01*
X144778006Y-99091952D02*
X144635149Y-98853857D01*
X144635149Y-98853857D02*
X144349434Y-98615761D01*
X144349434Y-98615761D02*
X143920863Y-98615761D01*
X143920863Y-98615761D02*
X143635149Y-98853857D01*
X143635149Y-98853857D02*
X143492292Y-99330047D01*
X143492292Y-99330047D02*
X143492292Y-101949095D01*
X142063720Y-101949095D02*
X142063720Y-98615761D01*
X142063720Y-96949095D02*
X142206577Y-97187190D01*
X142206577Y-97187190D02*
X142063720Y-97425285D01*
X142063720Y-97425285D02*
X141920863Y-97187190D01*
X141920863Y-97187190D02*
X142063720Y-96949095D01*
X142063720Y-96949095D02*
X142063720Y-97425285D01*
X140635149Y-101949095D02*
X140635149Y-96949095D01*
X140349435Y-100044333D02*
X139492292Y-101949095D01*
X139492292Y-98615761D02*
X140635149Y-100520523D01*
X136920864Y-101949095D02*
X136920864Y-99330047D01*
X136920864Y-99330047D02*
X137063721Y-98853857D01*
X137063721Y-98853857D02*
X137349435Y-98615761D01*
X137349435Y-98615761D02*
X137920864Y-98615761D01*
X137920864Y-98615761D02*
X138206578Y-98853857D01*
X136920864Y-101711000D02*
X137206578Y-101949095D01*
X137206578Y-101949095D02*
X137920864Y-101949095D01*
X137920864Y-101949095D02*
X138206578Y-101711000D01*
X138206578Y-101711000D02*
X138349435Y-101234809D01*
X138349435Y-101234809D02*
X138349435Y-100758619D01*
X138349435Y-100758619D02*
X138206578Y-100282428D01*
X138206578Y-100282428D02*
X137920864Y-100044333D01*
X137920864Y-100044333D02*
X137206578Y-100044333D01*
X137206578Y-100044333D02*
X136920864Y-99806238D01*
X171432293Y-139705761D02*
X171432293Y-144705761D01*
X171432293Y-139943857D02*
X171146579Y-139705761D01*
X171146579Y-139705761D02*
X170575150Y-139705761D01*
X170575150Y-139705761D02*
X170289436Y-139943857D01*
X170289436Y-139943857D02*
X170146579Y-140181952D01*
X170146579Y-140181952D02*
X170003721Y-140658142D01*
X170003721Y-140658142D02*
X170003721Y-142086714D01*
X170003721Y-142086714D02*
X170146579Y-142562904D01*
X170146579Y-142562904D02*
X170289436Y-142801000D01*
X170289436Y-142801000D02*
X170575150Y-143039095D01*
X170575150Y-143039095D02*
X171146579Y-143039095D01*
X171146579Y-143039095D02*
X171432293Y-142801000D01*
X168718007Y-143039095D02*
X168718007Y-139705761D01*
X168718007Y-138039095D02*
X168860864Y-138277190D01*
X168860864Y-138277190D02*
X168718007Y-138515285D01*
X168718007Y-138515285D02*
X168575150Y-138277190D01*
X168575150Y-138277190D02*
X168718007Y-138039095D01*
X168718007Y-138039095D02*
X168718007Y-138515285D01*
X167289436Y-141134333D02*
X165003722Y-141134333D01*
X163718007Y-142801000D02*
X163432293Y-143039095D01*
X163432293Y-143039095D02*
X162860864Y-143039095D01*
X162860864Y-143039095D02*
X162575150Y-142801000D01*
X162575150Y-142801000D02*
X162432293Y-142324809D01*
X162432293Y-142324809D02*
X162432293Y-142086714D01*
X162432293Y-142086714D02*
X162575150Y-141610523D01*
X162575150Y-141610523D02*
X162860864Y-141372428D01*
X162860864Y-141372428D02*
X163289436Y-141372428D01*
X163289436Y-141372428D02*
X163575150Y-141134333D01*
X163575150Y-141134333D02*
X163718007Y-140658142D01*
X163718007Y-140658142D02*
X163718007Y-140420047D01*
X163718007Y-140420047D02*
X163575150Y-139943857D01*
X163575150Y-139943857D02*
X163289436Y-139705761D01*
X163289436Y-139705761D02*
X162860864Y-139705761D01*
X162860864Y-139705761D02*
X162575150Y-139943857D01*
X161146579Y-143039095D02*
X161146579Y-138039095D01*
X159860865Y-143039095D02*
X159860865Y-140420047D01*
X159860865Y-140420047D02*
X160003722Y-139943857D01*
X160003722Y-139943857D02*
X160289436Y-139705761D01*
X160289436Y-139705761D02*
X160718007Y-139705761D01*
X160718007Y-139705761D02*
X161003722Y-139943857D01*
X161003722Y-139943857D02*
X161146579Y-140181952D01*
X158003721Y-143039095D02*
X158289436Y-142801000D01*
X158289436Y-142801000D02*
X158432293Y-142562904D01*
X158432293Y-142562904D02*
X158575150Y-142086714D01*
X158575150Y-142086714D02*
X158575150Y-140658142D01*
X158575150Y-140658142D02*
X158432293Y-140181952D01*
X158432293Y-140181952D02*
X158289436Y-139943857D01*
X158289436Y-139943857D02*
X158003721Y-139705761D01*
X158003721Y-139705761D02*
X157575150Y-139705761D01*
X157575150Y-139705761D02*
X157289436Y-139943857D01*
X157289436Y-139943857D02*
X157146579Y-140181952D01*
X157146579Y-140181952D02*
X157003721Y-140658142D01*
X157003721Y-140658142D02*
X157003721Y-142086714D01*
X157003721Y-142086714D02*
X157146579Y-142562904D01*
X157146579Y-142562904D02*
X157289436Y-142801000D01*
X157289436Y-142801000D02*
X157575150Y-143039095D01*
X157575150Y-143039095D02*
X158003721Y-143039095D01*
X155718007Y-139705761D02*
X155718007Y-144705761D01*
X155718007Y-139943857D02*
X155432293Y-139705761D01*
X155432293Y-139705761D02*
X154860864Y-139705761D01*
X154860864Y-139705761D02*
X154575150Y-139943857D01*
X154575150Y-139943857D02*
X154432293Y-140181952D01*
X154432293Y-140181952D02*
X154289435Y-140658142D01*
X154289435Y-140658142D02*
X154289435Y-142086714D01*
X154289435Y-142086714D02*
X154432293Y-142562904D01*
X154432293Y-142562904D02*
X154575150Y-142801000D01*
X154575150Y-142801000D02*
X154860864Y-143039095D01*
X154860864Y-143039095D02*
X155432293Y-143039095D01*
X155432293Y-143039095D02*
X155718007Y-142801000D01*
X153003721Y-142562904D02*
X152860864Y-142801000D01*
X152860864Y-142801000D02*
X153003721Y-143039095D01*
X153003721Y-143039095D02*
X153146578Y-142801000D01*
X153146578Y-142801000D02*
X153003721Y-142562904D01*
X153003721Y-142562904D02*
X153003721Y-143039095D01*
X151575150Y-143039095D02*
X151575150Y-138039095D01*
X150289436Y-143039095D02*
X150289436Y-140420047D01*
X150289436Y-140420047D02*
X150432293Y-139943857D01*
X150432293Y-139943857D02*
X150718007Y-139705761D01*
X150718007Y-139705761D02*
X151146578Y-139705761D01*
X151146578Y-139705761D02*
X151432293Y-139943857D01*
X151432293Y-139943857D02*
X151575150Y-140181952D01*
X147575150Y-139705761D02*
X147575150Y-143039095D01*
X148860864Y-139705761D02*
X148860864Y-142324809D01*
X148860864Y-142324809D02*
X148718007Y-142801000D01*
X148718007Y-142801000D02*
X148432292Y-143039095D01*
X148432292Y-143039095D02*
X148003721Y-143039095D01*
X148003721Y-143039095D02*
X147718007Y-142801000D01*
X147718007Y-142801000D02*
X147575150Y-142562904D01*
X157729793Y-118009095D02*
X157729793Y-114675761D01*
X157729793Y-115151952D02*
X157586936Y-114913857D01*
X157586936Y-114913857D02*
X157301221Y-114675761D01*
X157301221Y-114675761D02*
X156872650Y-114675761D01*
X156872650Y-114675761D02*
X156586936Y-114913857D01*
X156586936Y-114913857D02*
X156444079Y-115390047D01*
X156444079Y-115390047D02*
X156444079Y-118009095D01*
X156444079Y-115390047D02*
X156301221Y-114913857D01*
X156301221Y-114913857D02*
X156015507Y-114675761D01*
X156015507Y-114675761D02*
X155586936Y-114675761D01*
X155586936Y-114675761D02*
X155301221Y-114913857D01*
X155301221Y-114913857D02*
X155158364Y-115390047D01*
X155158364Y-115390047D02*
X155158364Y-118009095D01*
X152444079Y-118009095D02*
X152444079Y-115390047D01*
X152444079Y-115390047D02*
X152586936Y-114913857D01*
X152586936Y-114913857D02*
X152872650Y-114675761D01*
X152872650Y-114675761D02*
X153444079Y-114675761D01*
X153444079Y-114675761D02*
X153729793Y-114913857D01*
X152444079Y-117771000D02*
X152729793Y-118009095D01*
X152729793Y-118009095D02*
X153444079Y-118009095D01*
X153444079Y-118009095D02*
X153729793Y-117771000D01*
X153729793Y-117771000D02*
X153872650Y-117294809D01*
X153872650Y-117294809D02*
X153872650Y-116818619D01*
X153872650Y-116818619D02*
X153729793Y-116342428D01*
X153729793Y-116342428D02*
X153444079Y-116104333D01*
X153444079Y-116104333D02*
X152729793Y-116104333D01*
X152729793Y-116104333D02*
X152444079Y-115866238D01*
X151158364Y-117771000D02*
X150872650Y-118009095D01*
X150872650Y-118009095D02*
X150301221Y-118009095D01*
X150301221Y-118009095D02*
X150015507Y-117771000D01*
X150015507Y-117771000D02*
X149872650Y-117294809D01*
X149872650Y-117294809D02*
X149872650Y-117056714D01*
X149872650Y-117056714D02*
X150015507Y-116580523D01*
X150015507Y-116580523D02*
X150301221Y-116342428D01*
X150301221Y-116342428D02*
X150729793Y-116342428D01*
X150729793Y-116342428D02*
X151015507Y-116104333D01*
X151015507Y-116104333D02*
X151158364Y-115628142D01*
X151158364Y-115628142D02*
X151158364Y-115390047D01*
X151158364Y-115390047D02*
X151015507Y-114913857D01*
X151015507Y-114913857D02*
X150729793Y-114675761D01*
X150729793Y-114675761D02*
X150301221Y-114675761D01*
X150301221Y-114675761D02*
X150015507Y-114913857D01*
X149015507Y-114675761D02*
X147872650Y-114675761D01*
X148586936Y-113009095D02*
X148586936Y-117294809D01*
X148586936Y-117294809D02*
X148444079Y-117771000D01*
X148444079Y-117771000D02*
X148158364Y-118009095D01*
X148158364Y-118009095D02*
X147872650Y-118009095D01*
X145729793Y-117771000D02*
X146015507Y-118009095D01*
X146015507Y-118009095D02*
X146586936Y-118009095D01*
X146586936Y-118009095D02*
X146872650Y-117771000D01*
X146872650Y-117771000D02*
X147015507Y-117294809D01*
X147015507Y-117294809D02*
X147015507Y-115390047D01*
X147015507Y-115390047D02*
X146872650Y-114913857D01*
X146872650Y-114913857D02*
X146586936Y-114675761D01*
X146586936Y-114675761D02*
X146015507Y-114675761D01*
X146015507Y-114675761D02*
X145729793Y-114913857D01*
X145729793Y-114913857D02*
X145586936Y-115390047D01*
X145586936Y-115390047D02*
X145586936Y-115866238D01*
X145586936Y-115866238D02*
X147015507Y-116342428D01*
X144301221Y-118009095D02*
X144301221Y-114675761D01*
X144301221Y-115628142D02*
X144158364Y-115151952D01*
X144158364Y-115151952D02*
X144015507Y-114913857D01*
X144015507Y-114913857D02*
X143729792Y-114675761D01*
X143729792Y-114675761D02*
X143444078Y-114675761D01*
X142729792Y-113009095D02*
X140872649Y-113009095D01*
X140872649Y-113009095D02*
X141872649Y-114913857D01*
X141872649Y-114913857D02*
X141444078Y-114913857D01*
X141444078Y-114913857D02*
X141158364Y-115151952D01*
X141158364Y-115151952D02*
X141015506Y-115390047D01*
X141015506Y-115390047D02*
X140872649Y-115866238D01*
X140872649Y-115866238D02*
X140872649Y-117056714D01*
X140872649Y-117056714D02*
X141015506Y-117532904D01*
X141015506Y-117532904D02*
X141158364Y-117771000D01*
X141158364Y-117771000D02*
X141444078Y-118009095D01*
X141444078Y-118009095D02*
X142301221Y-118009095D01*
X142301221Y-118009095D02*
X142586935Y-117771000D01*
X142586935Y-117771000D02*
X142729792Y-117532904D01*
X138301221Y-118009095D02*
X138301221Y-113009095D01*
X138301221Y-117771000D02*
X138586935Y-118009095D01*
X138586935Y-118009095D02*
X139158363Y-118009095D01*
X139158363Y-118009095D02*
X139444078Y-117771000D01*
X139444078Y-117771000D02*
X139586935Y-117532904D01*
X139586935Y-117532904D02*
X139729792Y-117056714D01*
X139729792Y-117056714D02*
X139729792Y-115628142D01*
X139729792Y-115628142D02*
X139586935Y-115151952D01*
X139586935Y-115151952D02*
X139444078Y-114913857D01*
X139444078Y-114913857D02*
X139158363Y-114675761D01*
X139158363Y-114675761D02*
X138586935Y-114675761D01*
X138586935Y-114675761D02*
X138301221Y-114913857D01*
X136872649Y-117532904D02*
X136729792Y-117771000D01*
X136729792Y-117771000D02*
X136872649Y-118009095D01*
X136872649Y-118009095D02*
X137015506Y-117771000D01*
X137015506Y-117771000D02*
X136872649Y-117532904D01*
X136872649Y-117532904D02*
X136872649Y-118009095D01*
X135444078Y-118009095D02*
X135444078Y-113009095D01*
X134158364Y-118009095D02*
X134158364Y-115390047D01*
X134158364Y-115390047D02*
X134301221Y-114913857D01*
X134301221Y-114913857D02*
X134586935Y-114675761D01*
X134586935Y-114675761D02*
X135015506Y-114675761D01*
X135015506Y-114675761D02*
X135301221Y-114913857D01*
X135301221Y-114913857D02*
X135444078Y-115151952D01*
X131444078Y-114675761D02*
X131444078Y-118009095D01*
X132729792Y-114675761D02*
X132729792Y-117294809D01*
X132729792Y-117294809D02*
X132586935Y-117771000D01*
X132586935Y-117771000D02*
X132301220Y-118009095D01*
X132301220Y-118009095D02*
X131872649Y-118009095D01*
X131872649Y-118009095D02*
X131586935Y-117771000D01*
X131586935Y-117771000D02*
X131444078Y-117532904D01*
X157492293Y-134089095D02*
X157492293Y-129089095D01*
X157492293Y-129089095D02*
X156492293Y-132660523D01*
X156492293Y-132660523D02*
X155492293Y-129089095D01*
X155492293Y-129089095D02*
X155492293Y-134089095D01*
X152778008Y-134089095D02*
X152778008Y-131470047D01*
X152778008Y-131470047D02*
X152920865Y-130993857D01*
X152920865Y-130993857D02*
X153206579Y-130755761D01*
X153206579Y-130755761D02*
X153778008Y-130755761D01*
X153778008Y-130755761D02*
X154063722Y-130993857D01*
X152778008Y-133851000D02*
X153063722Y-134089095D01*
X153063722Y-134089095D02*
X153778008Y-134089095D01*
X153778008Y-134089095D02*
X154063722Y-133851000D01*
X154063722Y-133851000D02*
X154206579Y-133374809D01*
X154206579Y-133374809D02*
X154206579Y-132898619D01*
X154206579Y-132898619D02*
X154063722Y-132422428D01*
X154063722Y-132422428D02*
X153778008Y-132184333D01*
X153778008Y-132184333D02*
X153063722Y-132184333D01*
X153063722Y-132184333D02*
X152778008Y-131946238D01*
X153206579Y-128851000D02*
X153635150Y-129565285D01*
X150920864Y-134089095D02*
X151206579Y-133851000D01*
X151206579Y-133851000D02*
X151349436Y-133374809D01*
X151349436Y-133374809D02*
X151349436Y-129089095D01*
X149778007Y-130755761D02*
X149778007Y-134089095D01*
X149778007Y-131231952D02*
X149635150Y-130993857D01*
X149635150Y-130993857D02*
X149349435Y-130755761D01*
X149349435Y-130755761D02*
X148920864Y-130755761D01*
X148920864Y-130755761D02*
X148635150Y-130993857D01*
X148635150Y-130993857D02*
X148492293Y-131470047D01*
X148492293Y-131470047D02*
X148492293Y-134089095D01*
X145778007Y-134089095D02*
X145778007Y-131470047D01*
X145778007Y-131470047D02*
X145920864Y-130993857D01*
X145920864Y-130993857D02*
X146206578Y-130755761D01*
X146206578Y-130755761D02*
X146778007Y-130755761D01*
X146778007Y-130755761D02*
X147063721Y-130993857D01*
X145778007Y-133851000D02*
X146063721Y-134089095D01*
X146063721Y-134089095D02*
X146778007Y-134089095D01*
X146778007Y-134089095D02*
X147063721Y-133851000D01*
X147063721Y-133851000D02*
X147206578Y-133374809D01*
X147206578Y-133374809D02*
X147206578Y-132898619D01*
X147206578Y-132898619D02*
X147063721Y-132422428D01*
X147063721Y-132422428D02*
X146778007Y-132184333D01*
X146778007Y-132184333D02*
X146063721Y-132184333D01*
X146063721Y-132184333D02*
X145778007Y-131946238D01*
X142063721Y-134089095D02*
X142063721Y-129089095D01*
X142063721Y-129089095D02*
X140920864Y-129089095D01*
X140920864Y-129089095D02*
X140635149Y-129327190D01*
X140635149Y-129327190D02*
X140492292Y-129565285D01*
X140492292Y-129565285D02*
X140349435Y-130041476D01*
X140349435Y-130041476D02*
X140349435Y-130755761D01*
X140349435Y-130755761D02*
X140492292Y-131231952D01*
X140492292Y-131231952D02*
X140635149Y-131470047D01*
X140635149Y-131470047D02*
X140920864Y-131708142D01*
X140920864Y-131708142D02*
X142063721Y-131708142D01*
X137349435Y-133612904D02*
X137492292Y-133851000D01*
X137492292Y-133851000D02*
X137920864Y-134089095D01*
X137920864Y-134089095D02*
X138206578Y-134089095D01*
X138206578Y-134089095D02*
X138635149Y-133851000D01*
X138635149Y-133851000D02*
X138920864Y-133374809D01*
X138920864Y-133374809D02*
X139063721Y-132898619D01*
X139063721Y-132898619D02*
X139206578Y-131946238D01*
X139206578Y-131946238D02*
X139206578Y-131231952D01*
X139206578Y-131231952D02*
X139063721Y-130279571D01*
X139063721Y-130279571D02*
X138920864Y-129803380D01*
X138920864Y-129803380D02*
X138635149Y-129327190D01*
X138635149Y-129327190D02*
X138206578Y-129089095D01*
X138206578Y-129089095D02*
X137920864Y-129089095D01*
X137920864Y-129089095D02*
X137492292Y-129327190D01*
X137492292Y-129327190D02*
X137349435Y-129565285D01*
D13*
X126311904Y-105552819D02*
X125740476Y-105552819D01*
X126026190Y-106552819D02*
X126026190Y-105552819D01*
X125407142Y-106552819D02*
X125407142Y-105552819D01*
X125407142Y-105552819D02*
X125026190Y-105552819D01*
X125026190Y-105552819D02*
X124930952Y-105600438D01*
X124930952Y-105600438D02*
X124883333Y-105648057D01*
X124883333Y-105648057D02*
X124835714Y-105743295D01*
X124835714Y-105743295D02*
X124835714Y-105886152D01*
X124835714Y-105886152D02*
X124883333Y-105981390D01*
X124883333Y-105981390D02*
X124930952Y-106029009D01*
X124930952Y-106029009D02*
X125026190Y-106076628D01*
X125026190Y-106076628D02*
X125407142Y-106076628D01*
X124502380Y-105552819D02*
X123835714Y-105552819D01*
X123835714Y-105552819D02*
X124264285Y-106552819D01*
X110011904Y-124652819D02*
X109440476Y-124652819D01*
X109726190Y-125652819D02*
X109726190Y-124652819D01*
X109107142Y-125652819D02*
X109107142Y-124652819D01*
X109107142Y-124652819D02*
X108726190Y-124652819D01*
X108726190Y-124652819D02*
X108630952Y-124700438D01*
X108630952Y-124700438D02*
X108583333Y-124748057D01*
X108583333Y-124748057D02*
X108535714Y-124843295D01*
X108535714Y-124843295D02*
X108535714Y-124986152D01*
X108535714Y-124986152D02*
X108583333Y-125081390D01*
X108583333Y-125081390D02*
X108630952Y-125129009D01*
X108630952Y-125129009D02*
X108726190Y-125176628D01*
X108726190Y-125176628D02*
X109107142Y-125176628D01*
X108154761Y-124748057D02*
X108107142Y-124700438D01*
X108107142Y-124700438D02*
X108011904Y-124652819D01*
X108011904Y-124652819D02*
X107773809Y-124652819D01*
X107773809Y-124652819D02*
X107678571Y-124700438D01*
X107678571Y-124700438D02*
X107630952Y-124748057D01*
X107630952Y-124748057D02*
X107583333Y-124843295D01*
X107583333Y-124843295D02*
X107583333Y-124938533D01*
X107583333Y-124938533D02*
X107630952Y-125081390D01*
X107630952Y-125081390D02*
X108202380Y-125652819D01*
X108202380Y-125652819D02*
X107583333Y-125652819D01*
X67233333Y-101961009D02*
X67566666Y-101961009D01*
X67566666Y-102484819D02*
X67566666Y-101484819D01*
X67566666Y-101484819D02*
X67090476Y-101484819D01*
X66185714Y-102484819D02*
X66757142Y-102484819D01*
X66471428Y-102484819D02*
X66471428Y-101484819D01*
X66471428Y-101484819D02*
X66566666Y-101627676D01*
X66566666Y-101627676D02*
X66661904Y-101722914D01*
X66661904Y-101722914D02*
X66757142Y-101770533D01*
X73992904Y-123853819D02*
X73421476Y-123853819D01*
X73707190Y-124853819D02*
X73707190Y-123853819D01*
X73088142Y-124853819D02*
X73088142Y-123853819D01*
X73088142Y-123853819D02*
X72707190Y-123853819D01*
X72707190Y-123853819D02*
X72611952Y-123901438D01*
X72611952Y-123901438D02*
X72564333Y-123949057D01*
X72564333Y-123949057D02*
X72516714Y-124044295D01*
X72516714Y-124044295D02*
X72516714Y-124187152D01*
X72516714Y-124187152D02*
X72564333Y-124282390D01*
X72564333Y-124282390D02*
X72611952Y-124330009D01*
X72611952Y-124330009D02*
X72707190Y-124377628D01*
X72707190Y-124377628D02*
X73088142Y-124377628D01*
X71611952Y-123853819D02*
X72088142Y-123853819D01*
X72088142Y-123853819D02*
X72135761Y-124330009D01*
X72135761Y-124330009D02*
X72088142Y-124282390D01*
X72088142Y-124282390D02*
X71992904Y-124234771D01*
X71992904Y-124234771D02*
X71754809Y-124234771D01*
X71754809Y-124234771D02*
X71659571Y-124282390D01*
X71659571Y-124282390D02*
X71611952Y-124330009D01*
X71611952Y-124330009D02*
X71564333Y-124425247D01*
X71564333Y-124425247D02*
X71564333Y-124663342D01*
X71564333Y-124663342D02*
X71611952Y-124758580D01*
X71611952Y-124758580D02*
X71659571Y-124806200D01*
X71659571Y-124806200D02*
X71754809Y-124853819D01*
X71754809Y-124853819D02*
X71992904Y-124853819D01*
X71992904Y-124853819D02*
X72088142Y-124806200D01*
X72088142Y-124806200D02*
X72135761Y-124758580D01*
X144111904Y-110752819D02*
X143540476Y-110752819D01*
X143826190Y-111752819D02*
X143826190Y-110752819D01*
X143207142Y-111752819D02*
X143207142Y-110752819D01*
X143207142Y-110752819D02*
X142826190Y-110752819D01*
X142826190Y-110752819D02*
X142730952Y-110800438D01*
X142730952Y-110800438D02*
X142683333Y-110848057D01*
X142683333Y-110848057D02*
X142635714Y-110943295D01*
X142635714Y-110943295D02*
X142635714Y-111086152D01*
X142635714Y-111086152D02*
X142683333Y-111181390D01*
X142683333Y-111181390D02*
X142730952Y-111229009D01*
X142730952Y-111229009D02*
X142826190Y-111276628D01*
X142826190Y-111276628D02*
X143207142Y-111276628D01*
X141778571Y-111086152D02*
X141778571Y-111752819D01*
X142016666Y-110705200D02*
X142254761Y-111419485D01*
X142254761Y-111419485D02*
X141635714Y-111419485D01*
X87042857Y-119884819D02*
X87376190Y-119408628D01*
X87614285Y-119884819D02*
X87614285Y-118884819D01*
X87614285Y-118884819D02*
X87233333Y-118884819D01*
X87233333Y-118884819D02*
X87138095Y-118932438D01*
X87138095Y-118932438D02*
X87090476Y-118980057D01*
X87090476Y-118980057D02*
X87042857Y-119075295D01*
X87042857Y-119075295D02*
X87042857Y-119218152D01*
X87042857Y-119218152D02*
X87090476Y-119313390D01*
X87090476Y-119313390D02*
X87138095Y-119361009D01*
X87138095Y-119361009D02*
X87233333Y-119408628D01*
X87233333Y-119408628D02*
X87614285Y-119408628D01*
X86661904Y-118980057D02*
X86614285Y-118932438D01*
X86614285Y-118932438D02*
X86519047Y-118884819D01*
X86519047Y-118884819D02*
X86280952Y-118884819D01*
X86280952Y-118884819D02*
X86185714Y-118932438D01*
X86185714Y-118932438D02*
X86138095Y-118980057D01*
X86138095Y-118980057D02*
X86090476Y-119075295D01*
X86090476Y-119075295D02*
X86090476Y-119170533D01*
X86090476Y-119170533D02*
X86138095Y-119313390D01*
X86138095Y-119313390D02*
X86709523Y-119884819D01*
X86709523Y-119884819D02*
X86090476Y-119884819D01*
X85519047Y-119313390D02*
X85614285Y-119265771D01*
X85614285Y-119265771D02*
X85661904Y-119218152D01*
X85661904Y-119218152D02*
X85709523Y-119122914D01*
X85709523Y-119122914D02*
X85709523Y-119075295D01*
X85709523Y-119075295D02*
X85661904Y-118980057D01*
X85661904Y-118980057D02*
X85614285Y-118932438D01*
X85614285Y-118932438D02*
X85519047Y-118884819D01*
X85519047Y-118884819D02*
X85328571Y-118884819D01*
X85328571Y-118884819D02*
X85233333Y-118932438D01*
X85233333Y-118932438D02*
X85185714Y-118980057D01*
X85185714Y-118980057D02*
X85138095Y-119075295D01*
X85138095Y-119075295D02*
X85138095Y-119122914D01*
X85138095Y-119122914D02*
X85185714Y-119218152D01*
X85185714Y-119218152D02*
X85233333Y-119265771D01*
X85233333Y-119265771D02*
X85328571Y-119313390D01*
X85328571Y-119313390D02*
X85519047Y-119313390D01*
X85519047Y-119313390D02*
X85614285Y-119361009D01*
X85614285Y-119361009D02*
X85661904Y-119408628D01*
X85661904Y-119408628D02*
X85709523Y-119503866D01*
X85709523Y-119503866D02*
X85709523Y-119694342D01*
X85709523Y-119694342D02*
X85661904Y-119789580D01*
X85661904Y-119789580D02*
X85614285Y-119837200D01*
X85614285Y-119837200D02*
X85519047Y-119884819D01*
X85519047Y-119884819D02*
X85328571Y-119884819D01*
X85328571Y-119884819D02*
X85233333Y-119837200D01*
X85233333Y-119837200D02*
X85185714Y-119789580D01*
X85185714Y-119789580D02*
X85138095Y-119694342D01*
X85138095Y-119694342D02*
X85138095Y-119503866D01*
X85138095Y-119503866D02*
X85185714Y-119408628D01*
X85185714Y-119408628D02*
X85233333Y-119361009D01*
X85233333Y-119361009D02*
X85328571Y-119313390D01*
D10*
%TO.C,C15*%
X73638748Y-93065000D02*
X74161252Y-93065000D01*
X73638748Y-94535000D02*
X74161252Y-94535000D01*
%TO.C,C43*%
X112980248Y-109963500D02*
X113502752Y-109963500D01*
X112980248Y-111433500D02*
X113502752Y-111433500D01*
%TO.C,U13*%
X136690000Y-93200000D02*
X136690000Y-91700000D01*
X136690000Y-93200000D02*
X136690000Y-94700000D01*
X139910000Y-93200000D02*
X139910000Y-91700000D01*
X139910000Y-93200000D02*
X139910000Y-94700000D01*
X140040000Y-95652500D02*
X139710000Y-95412500D01*
X140040000Y-95172500D01*
X140040000Y-95652500D01*
G36*
X140040000Y-95652500D02*
G01*
X139710000Y-95412500D01*
X140040000Y-95172500D01*
X140040000Y-95652500D01*
G37*
%TO.C,U12*%
X165350000Y-119140000D02*
X163850000Y-119140000D01*
X165350000Y-119140000D02*
X166850000Y-119140000D01*
X165350000Y-122360000D02*
X163850000Y-122360000D01*
X165350000Y-122360000D02*
X166850000Y-122360000D01*
X163377500Y-122490000D02*
X162897500Y-122490000D01*
X163137500Y-122160000D01*
X163377500Y-122490000D01*
G36*
X163377500Y-122490000D02*
G01*
X162897500Y-122490000D01*
X163137500Y-122160000D01*
X163377500Y-122490000D01*
G37*
%TO.C,C14*%
X80388748Y-119465000D02*
X80911252Y-119465000D01*
X80388748Y-120935000D02*
X80911252Y-120935000D01*
%TO.C,R21*%
X67540000Y-129535436D02*
X67540000Y-130989564D01*
X69360000Y-129535436D02*
X69360000Y-130989564D01*
%TO.C,C67*%
X83538748Y-91965000D02*
X84061252Y-91965000D01*
X83538748Y-93435000D02*
X84061252Y-93435000D01*
%TO.C,R17*%
X81965000Y-100785436D02*
X81965000Y-101239564D01*
X83435000Y-100785436D02*
X83435000Y-101239564D01*
%TO.C,R25*%
X169014436Y-102098500D02*
X170468564Y-102098500D01*
X169014436Y-103918500D02*
X170468564Y-103918500D01*
%TO.C,C18*%
X170688748Y-84755000D02*
X171211252Y-84755000D01*
X170688748Y-86225000D02*
X171211252Y-86225000D01*
%TO.C,TP7*%
X126250000Y-104100000D02*
G75*
G02*
X123850000Y-104100000I-1200000J0D01*
G01*
X123850000Y-104100000D02*
G75*
G02*
X126250000Y-104100000I1200000J0D01*
G01*
%TO.C,R20*%
X123580000Y-126520436D02*
X123580000Y-127974564D01*
X125400000Y-126520436D02*
X125400000Y-127974564D01*
%TO.C,R22*%
X171290000Y-94785564D02*
X171290000Y-93331436D01*
X173110000Y-94785564D02*
X173110000Y-93331436D01*
%TO.C,C70*%
X80611252Y-93965000D02*
X80088748Y-93965000D01*
X80611252Y-95435000D02*
X80088748Y-95435000D01*
%TO.C,U16*%
X161150000Y-112140000D02*
X159650000Y-112140000D01*
X161150000Y-112140000D02*
X162650000Y-112140000D01*
X161150000Y-115360000D02*
X159650000Y-115360000D01*
X161150000Y-115360000D02*
X162650000Y-115360000D01*
X159177500Y-115490000D02*
X158697500Y-115490000D01*
X158937500Y-115160000D01*
X159177500Y-115490000D01*
G36*
X159177500Y-115490000D02*
G01*
X158697500Y-115490000D01*
X158937500Y-115160000D01*
X159177500Y-115490000D01*
G37*
%TO.C,U14*%
X119680000Y-87680000D02*
X118180000Y-87680000D01*
X119680000Y-87680000D02*
X121180000Y-87680000D01*
X119680000Y-90900000D02*
X118180000Y-90900000D01*
X119680000Y-90900000D02*
X121180000Y-90900000D01*
X121892500Y-87880000D02*
X121652500Y-87550000D01*
X122132500Y-87550000D01*
X121892500Y-87880000D01*
G36*
X121892500Y-87880000D02*
G01*
X121652500Y-87550000D01*
X122132500Y-87550000D01*
X121892500Y-87880000D01*
G37*
%TO.C,TP2*%
X109950000Y-123200000D02*
G75*
G02*
X107550000Y-123200000I-1200000J0D01*
G01*
X107550000Y-123200000D02*
G75*
G02*
X109950000Y-123200000I1200000J0D01*
G01*
%TO.C,U8*%
X165350000Y-129790000D02*
X163850000Y-129790000D01*
X165350000Y-129790000D02*
X166850000Y-129790000D01*
X165350000Y-133010000D02*
X163850000Y-133010000D01*
X165350000Y-133010000D02*
X166850000Y-133010000D01*
X163377500Y-133140000D02*
X162897500Y-133140000D01*
X163137500Y-132810000D01*
X163377500Y-133140000D01*
G36*
X163377500Y-133140000D02*
G01*
X162897500Y-133140000D01*
X163137500Y-132810000D01*
X163377500Y-133140000D01*
G37*
%TO.C,U11*%
X165350000Y-126240000D02*
X163850000Y-126240000D01*
X165350000Y-126240000D02*
X166850000Y-126240000D01*
X165350000Y-129460000D02*
X163850000Y-129460000D01*
X165350000Y-129460000D02*
X166850000Y-129460000D01*
X163377500Y-129590000D02*
X162897500Y-129590000D01*
X163137500Y-129260000D01*
X163377500Y-129590000D01*
G36*
X163377500Y-129590000D02*
G01*
X162897500Y-129590000D01*
X163137500Y-129260000D01*
X163377500Y-129590000D01*
G37*
%TO.C,Q3*%
X71625000Y-108130000D02*
X71895000Y-108130000D01*
X71625000Y-114550000D02*
X71625000Y-108130000D01*
X78525000Y-108130000D02*
X78255000Y-108130000D01*
X78525000Y-114550000D02*
X78525000Y-108130000D01*
X71935000Y-106400000D02*
X71465000Y-106740000D01*
X71465000Y-106060000D01*
X71935000Y-106400000D01*
G36*
X71935000Y-106400000D02*
G01*
X71465000Y-106740000D01*
X71465000Y-106060000D01*
X71935000Y-106400000D01*
G37*
%TO.C,C69*%
X80611252Y-91965000D02*
X80088748Y-91965000D01*
X80611252Y-93435000D02*
X80088748Y-93435000D01*
%TO.C,R29*%
X169014436Y-104398500D02*
X170468564Y-104398500D01*
X169014436Y-106218500D02*
X170468564Y-106218500D01*
%TO.C,F1*%
X66172936Y-99290000D02*
X67627064Y-99290000D01*
X66172936Y-101110000D02*
X67627064Y-101110000D01*
%TO.C,C71*%
X93181252Y-110875000D02*
X92658748Y-110875000D01*
X93181252Y-112345000D02*
X92658748Y-112345000D01*
%TO.C,U4*%
X87537500Y-102040000D02*
X86737500Y-102040000D01*
X87537500Y-102040000D02*
X88337500Y-102040000D01*
X87537500Y-105160000D02*
X86737500Y-105160000D01*
X87537500Y-105160000D02*
X88337500Y-105160000D01*
X88837500Y-102090000D02*
X88597500Y-101760000D01*
X89077500Y-101760000D01*
X88837500Y-102090000D01*
G36*
X88837500Y-102090000D02*
G01*
X88597500Y-101760000D01*
X89077500Y-101760000D01*
X88837500Y-102090000D01*
G37*
%TO.C,C13*%
X68388748Y-105765000D02*
X68911252Y-105765000D01*
X68388748Y-107235000D02*
X68911252Y-107235000D01*
%TO.C,U20*%
X145890000Y-93200000D02*
X145890000Y-91700000D01*
X145890000Y-93200000D02*
X145890000Y-94700000D01*
X149110000Y-93200000D02*
X149110000Y-91700000D01*
X149110000Y-93200000D02*
X149110000Y-94700000D01*
X149240000Y-95652500D02*
X148910000Y-95412500D01*
X149240000Y-95172500D01*
X149240000Y-95652500D01*
G36*
X149240000Y-95652500D02*
G01*
X148910000Y-95412500D01*
X149240000Y-95172500D01*
X149240000Y-95652500D01*
G37*
%TO.C,TP5*%
X73931000Y-122401000D02*
G75*
G02*
X71531000Y-122401000I-1200000J0D01*
G01*
X71531000Y-122401000D02*
G75*
G02*
X73931000Y-122401000I1200000J0D01*
G01*
%TO.C,C64*%
X93181252Y-106875000D02*
X92658748Y-106875000D01*
X93181252Y-108345000D02*
X92658748Y-108345000D01*
%TO.C,C17*%
X114271252Y-83555000D02*
X113748748Y-83555000D01*
X114271252Y-85025000D02*
X113748748Y-85025000D01*
%TO.C,C46*%
X110011252Y-111065000D02*
X109488748Y-111065000D01*
X110011252Y-112535000D02*
X109488748Y-112535000D01*
%TO.C,Q2*%
X71550000Y-97750000D02*
X77970000Y-97750000D01*
X71550000Y-104650000D02*
X77970000Y-104650000D01*
X77970000Y-97750000D02*
X77970000Y-98020000D01*
X77970000Y-104650000D02*
X77970000Y-104380000D01*
X79700000Y-98060000D02*
X79360000Y-97590000D01*
X80040000Y-97590000D01*
X79700000Y-98060000D01*
G36*
X79700000Y-98060000D02*
G01*
X79360000Y-97590000D01*
X80040000Y-97590000D01*
X79700000Y-98060000D01*
G37*
%TO.C,U15*%
X165350000Y-122690000D02*
X163850000Y-122690000D01*
X165350000Y-122690000D02*
X166850000Y-122690000D01*
X165350000Y-125910000D02*
X163850000Y-125910000D01*
X165350000Y-125910000D02*
X166850000Y-125910000D01*
X163377500Y-126040000D02*
X162897500Y-126040000D01*
X163137500Y-125710000D01*
X163377500Y-126040000D01*
G36*
X163377500Y-126040000D02*
G01*
X162897500Y-126040000D01*
X163137500Y-125710000D01*
X163377500Y-126040000D01*
G37*
%TO.C,C68*%
X83538748Y-93965000D02*
X84061252Y-93965000D01*
X83538748Y-95435000D02*
X84061252Y-95435000D01*
%TO.C,U18*%
X161150000Y-115640000D02*
X159650000Y-115640000D01*
X161150000Y-115640000D02*
X162650000Y-115640000D01*
X161150000Y-118860000D02*
X159650000Y-118860000D01*
X161150000Y-118860000D02*
X162650000Y-118860000D01*
X159177500Y-118990000D02*
X158697500Y-118990000D01*
X158937500Y-118660000D01*
X159177500Y-118990000D01*
G36*
X159177500Y-118990000D02*
G01*
X158697500Y-118990000D01*
X158937500Y-118660000D01*
X159177500Y-118990000D01*
G37*
%TO.C,TP4*%
X144050000Y-109300000D02*
G75*
G02*
X141650000Y-109300000I-1200000J0D01*
G01*
X141650000Y-109300000D02*
G75*
G02*
X144050000Y-109300000I1200000J0D01*
G01*
%TO.C,U17*%
X164340000Y-93100000D02*
X164340000Y-91600000D01*
X164340000Y-93100000D02*
X164340000Y-94600000D01*
X167560000Y-93100000D02*
X167560000Y-91600000D01*
X167560000Y-93100000D02*
X167560000Y-94600000D01*
X167690000Y-95552500D02*
X167360000Y-95312500D01*
X167690000Y-95072500D01*
X167690000Y-95552500D01*
G36*
X167690000Y-95552500D02*
G01*
X167360000Y-95312500D01*
X167690000Y-95072500D01*
X167690000Y-95552500D01*
G37*
%TO.C,C19*%
X165275000Y-134838748D02*
X165275000Y-135361252D01*
X166745000Y-134838748D02*
X166745000Y-135361252D01*
%TO.C,L4*%
X83790000Y-84340000D02*
X83790000Y-85940000D01*
X83790000Y-91460000D02*
X83790000Y-89860000D01*
X91410000Y-84340000D02*
X83790000Y-84340000D01*
X91410000Y-84340000D02*
X91410000Y-85940000D01*
X91410000Y-91460000D02*
X83790000Y-91460000D01*
X91410000Y-91460000D02*
X91410000Y-89860000D01*
%TO.C,R18*%
X88014564Y-105715000D02*
X87560436Y-105715000D01*
X88014564Y-107185000D02*
X87560436Y-107185000D01*
%TO.C,U19*%
X119680000Y-84050000D02*
X118180000Y-84050000D01*
X119680000Y-84050000D02*
X121180000Y-84050000D01*
X119680000Y-87270000D02*
X118180000Y-87270000D01*
X119680000Y-87270000D02*
X121180000Y-87270000D01*
X121892500Y-84250000D02*
X121652500Y-83920000D01*
X122132500Y-83920000D01*
X121892500Y-84250000D01*
G36*
X121892500Y-84250000D02*
G01*
X121652500Y-83920000D01*
X122132500Y-83920000D01*
X121892500Y-84250000D01*
G37*
%TO.C,D5*%
X76160000Y-95150000D02*
X72500000Y-95150000D01*
X76160000Y-95150000D02*
X76160000Y-97050000D01*
X76160000Y-97050000D02*
X72500000Y-97050000D01*
%TO.C,R16*%
X67215000Y-103827064D02*
X67215000Y-103372936D01*
X68685000Y-103827064D02*
X68685000Y-103372936D01*
%TO.C,C45*%
X110011252Y-109065000D02*
X109488748Y-109065000D01*
X110011252Y-110535000D02*
X109488748Y-110535000D01*
%TO.C,C72*%
X93181252Y-112885000D02*
X92658748Y-112885000D01*
X93181252Y-114355000D02*
X92658748Y-114355000D01*
%TO.C,R19*%
X104940000Y-126585436D02*
X104940000Y-128039564D01*
X106760000Y-126585436D02*
X106760000Y-128039564D01*
%TO.C,C65*%
X93181252Y-108855000D02*
X92658748Y-108855000D01*
X93181252Y-110325000D02*
X92658748Y-110325000D01*
%TO.C,R28*%
X85672936Y-116690000D02*
X87127064Y-116690000D01*
X85672936Y-118510000D02*
X87127064Y-118510000D01*
%TO.C,L5*%
X97090000Y-96490000D02*
X97090000Y-104110000D01*
X97090000Y-96490000D02*
X98690000Y-96490000D01*
X97090000Y-104110000D02*
X98690000Y-104110000D01*
X104210000Y-96490000D02*
X102610000Y-96490000D01*
X104210000Y-96490000D02*
X104210000Y-104110000D01*
X104210000Y-104110000D02*
X102610000Y-104110000D01*
%TO.C,C6*%
X83665000Y-111238748D02*
X83665000Y-111761252D01*
X85135000Y-111238748D02*
X85135000Y-111761252D01*
%TO.C,R26*%
X169014436Y-106698500D02*
X170468564Y-106698500D01*
X169014436Y-108518500D02*
X170468564Y-108518500D01*
%TO.C,C44*%
X112980248Y-111963500D02*
X113502752Y-111963500D01*
X112980248Y-113433500D02*
X113502752Y-113433500D01*
%TO.C,U10*%
X155090000Y-93150000D02*
X155090000Y-91650000D01*
X155090000Y-93150000D02*
X155090000Y-94650000D01*
X158310000Y-93150000D02*
X158310000Y-91650000D01*
X158310000Y-93150000D02*
X158310000Y-94650000D01*
X158440000Y-95602500D02*
X158110000Y-95362500D01*
X158440000Y-95122500D01*
X158440000Y-95602500D01*
G36*
X158440000Y-95602500D02*
G01*
X158110000Y-95362500D01*
X158440000Y-95122500D01*
X158440000Y-95602500D01*
G37*
%TO.C,R23*%
X86300000Y-129535436D02*
X86300000Y-130989564D01*
X88120000Y-129535436D02*
X88120000Y-130989564D01*
%TO.C,L2*%
X101740000Y-112890000D02*
X101740000Y-114490000D01*
X101740000Y-112890000D02*
X109360000Y-112890000D01*
X101740000Y-120010000D02*
X101740000Y-118410000D01*
X101740000Y-120010000D02*
X109360000Y-120010000D01*
X109360000Y-112890000D02*
X109360000Y-114490000D01*
X109360000Y-120010000D02*
X109360000Y-118410000D01*
%TD*%
M02*
