%TF.GenerationSoftware,KiCad,Pcbnew,9.0.4*%
%TF.CreationDate,2025-12-15T09:40:38+01:00*%
%TF.ProjectId,high-speed,68696768-2d73-4706-9565-642e6b696361,rev?*%
%TF.SameCoordinates,Original*%
%TF.FileFunction,Profile,NP*%
%FSLAX46Y46*%
G04 Gerber Fmt 4.6, Leading zero omitted, Abs format (unit mm)*
G04 Created by KiCad (PCBNEW 9.0.4) date 2025-12-15 09:40:38*
%MOMM*%
%LPD*%
G01*
G04 APERTURE LIST*
%TA.AperFunction,Profile*%
%ADD10C,0.200000*%
%TD*%
G04 APERTURE END LIST*
D10*
X214205400Y-120394400D02*
X212205400Y-120394400D01*
X82205400Y-120394400D02*
X84205400Y-120394400D01*
X84205400Y-70394400D02*
G75*
G02*
X88205400Y-74394401I0J-4000000D01*
G01*
X88205400Y-116394400D02*
G75*
G02*
X84205400Y-120394400I-4000000J0D01*
G01*
X218205401Y-66394400D02*
G75*
G02*
X214205400Y-70394401I-4000001J0D01*
G01*
X85705399Y-125394400D02*
G75*
G02*
X80705399Y-125394400I-2500000J0D01*
G01*
X80705399Y-125394400D02*
G75*
G02*
X85705399Y-125394400I2500000J0D01*
G01*
X214205400Y-120394400D02*
G75*
G02*
X218205400Y-124394400I0J-4000000D01*
G01*
X82205399Y-70394400D02*
X84205400Y-70394400D01*
X208205400Y-60394400D02*
X214205400Y-60394400D01*
X212205400Y-120394400D02*
G75*
G02*
X208205400Y-116394400I0J4000000D01*
G01*
X214205400Y-60394400D02*
G75*
G02*
X218205400Y-64394400I0J-4000000D01*
G01*
X78205399Y-64394400D02*
G75*
G02*
X82205399Y-60394399I4000001J0D01*
G01*
X208205400Y-74394400D02*
G75*
G02*
X212205400Y-70394400I4000000J0D01*
G01*
X218205401Y-64394400D02*
X218205401Y-66394400D01*
X78205399Y-126394400D02*
X78205399Y-124394400D01*
X88205400Y-116394400D02*
X88205400Y-74394401D01*
X214205400Y-70394400D02*
X212205400Y-70394400D01*
X208205400Y-130394400D02*
X214205400Y-130394400D01*
X215705401Y-125394400D02*
G75*
G02*
X210705401Y-125394400I-2500000J0D01*
G01*
X210705401Y-125394400D02*
G75*
G02*
X215705401Y-125394400I2500000J0D01*
G01*
X215705401Y-65394400D02*
G75*
G02*
X210705401Y-65394400I-2500000J0D01*
G01*
X210705401Y-65394400D02*
G75*
G02*
X215705401Y-65394400I2500000J0D01*
G01*
X208205400Y-130394400D02*
X88205400Y-130394400D01*
X208205400Y-116394400D02*
X208205400Y-74394400D01*
X88205400Y-60394400D02*
X82205399Y-60394400D01*
X88205400Y-60394400D02*
X208205400Y-60394400D01*
X85705399Y-65394400D02*
G75*
G02*
X80705399Y-65394400I-2500000J0D01*
G01*
X80705399Y-65394400D02*
G75*
G02*
X85705399Y-65394400I2500000J0D01*
G01*
X218205401Y-126394400D02*
X218205401Y-124394400D01*
X82205399Y-70394400D02*
G75*
G02*
X78205400Y-66394400I1J4000000D01*
G01*
X218205401Y-126394400D02*
G75*
G02*
X214205400Y-130394401I-4000001J0D01*
G01*
X82205399Y-130394400D02*
G75*
G02*
X78205400Y-126394400I1J4000000D01*
G01*
X78205399Y-124394400D02*
G75*
G02*
X82205400Y-120394399I4000001J0D01*
G01*
X88205400Y-130394400D02*
X82205399Y-130394400D01*
X78205399Y-64394400D02*
X78205399Y-66394400D01*
M02*
