%TF.GenerationSoftware,KiCad,Pcbnew,9.0.2*%
%TF.CreationDate,2025-07-13T19:06:54+02:00*%
%TF.ProjectId,CM5IO,434d3549-4f2e-46b6-9963-61645f706362,rev?*%
%TF.SameCoordinates,Original*%
%TF.FileFunction,Drillmap*%
%TF.FilePolarity,Positive*%
%FSLAX45Y45*%
G04 Gerber Fmt 4.5, Leading zero omitted, Abs format (unit mm)*
G04 Created by KiCad (PCBNEW 9.0.2) date 2025-07-13 19:06:54*
%MOMM*%
%LPD*%
G01*
G04 APERTURE LIST*
%ADD10C,0.050000*%
%ADD11C,0.200000*%
%ADD12C,0.100000*%
%ADD13C,0.115000*%
%ADD14C,0.165000*%
%ADD15C,0.270000*%
%ADD16C,0.320000*%
G04 APERTURE END LIST*
D10*
X35500000Y-28500000D02*
G75*
G02*
X35000000Y-29000000I-500000J0D01*
G01*
X35300000Y-28500000D02*
G75*
G02*
X34700000Y-28500000I-300000J0D01*
G01*
X34700000Y-28500000D02*
G75*
G02*
X35300000Y-28500000I300000J0D01*
G01*
X35000000Y-19000000D02*
G75*
G02*
X35500000Y-19500000I0J-500000D01*
G01*
X35500000Y-19500000D02*
X35500000Y-28500000D01*
X35300000Y-19500000D02*
G75*
G02*
X34700000Y-19500000I-300000J0D01*
G01*
X34700000Y-19500000D02*
G75*
G02*
X35300000Y-19500000I300000J0D01*
G01*
X20000000Y-28500000D02*
X20000000Y-19500000D01*
X20500000Y-19000000D02*
X35000000Y-19000000D01*
X35000000Y-29000000D02*
X20500000Y-29000000D01*
X20800000Y-28500000D02*
G75*
G02*
X20200000Y-28500000I-300000J0D01*
G01*
X20200000Y-28500000D02*
G75*
G02*
X20800000Y-28500000I300000J0D01*
G01*
X20800000Y-19500000D02*
G75*
G02*
X20200000Y-19500000I-300000J0D01*
G01*
X20200000Y-19500000D02*
G75*
G02*
X20800000Y-19500000I300000J0D01*
G01*
X20500000Y-29000000D02*
G75*
G02*
X20000000Y-28500000I0J500000D01*
G01*
X20000000Y-19500000D02*
G75*
G02*
X20500000Y-19000000I500000J0D01*
G01*
D11*
D12*
X30869000Y-28391000D02*
X30929000Y-28451000D01*
X30929000Y-28391000D02*
X30869000Y-28451000D01*
X31447000Y-28391000D02*
X31507000Y-28451000D01*
X31507000Y-28391000D02*
X31447000Y-28451000D01*
X32089000Y-28391000D02*
X32149000Y-28451000D01*
X32149000Y-28391000D02*
X32089000Y-28451000D01*
X32667000Y-28391000D02*
X32727000Y-28451000D01*
X32727000Y-28391000D02*
X32667000Y-28451000D01*
X33301000Y-28397500D02*
X33361000Y-28457500D01*
X33361000Y-28397500D02*
X33301000Y-28457500D01*
X33879000Y-28397500D02*
X33939000Y-28457500D01*
X33939000Y-28397500D02*
X33879000Y-28457500D01*
D13*
X21859800Y-21540000D02*
G75*
G02*
X21744800Y-21540000I-57500J0D01*
G01*
X21744800Y-21540000D02*
G75*
G02*
X21859800Y-21540000I57500J0D01*
G01*
D14*
X21802300Y-19457500D02*
X21802300Y-19622500D01*
X21719800Y-19540000D02*
X21884800Y-19540000D01*
D15*
X21445460Y-22365460D02*
X21445460Y-22174540D01*
X21254540Y-22174540D01*
X21254540Y-22365460D01*
X21445460Y-22365460D01*
X21445460Y-27165460D02*
X21445460Y-26974540D01*
X21254540Y-26974540D01*
X21254540Y-27165460D01*
X21445460Y-27165460D01*
X24745460Y-22365460D02*
X24745460Y-22174540D01*
X24554540Y-22174540D01*
X24554540Y-22365460D01*
X24745460Y-22365460D01*
X24745460Y-27165460D02*
X24745460Y-26974540D01*
X24554540Y-26974540D01*
X24554540Y-27165460D01*
X24745460Y-27165460D01*
D16*
X27099500Y-28144000D02*
X27259500Y-27984000D01*
X27099500Y-27824000D01*
X26939500Y-27984000D01*
X27099500Y-28144000D01*
X28242500Y-28144000D02*
X28402500Y-27984000D01*
X28242500Y-27824000D01*
X28082500Y-27984000D01*
X28242500Y-28144000D01*
D11*
X20258277Y-29313984D02*
X20258277Y-29113984D01*
X20258277Y-29113984D02*
X20305896Y-29113984D01*
X20305896Y-29113984D02*
X20334467Y-29123508D01*
X20334467Y-29123508D02*
X20353515Y-29142555D01*
X20353515Y-29142555D02*
X20363039Y-29161603D01*
X20363039Y-29161603D02*
X20372563Y-29199698D01*
X20372563Y-29199698D02*
X20372563Y-29228269D01*
X20372563Y-29228269D02*
X20363039Y-29266365D01*
X20363039Y-29266365D02*
X20353515Y-29285412D01*
X20353515Y-29285412D02*
X20334467Y-29304460D01*
X20334467Y-29304460D02*
X20305896Y-29313984D01*
X20305896Y-29313984D02*
X20258277Y-29313984D01*
X20458277Y-29313984D02*
X20458277Y-29180650D01*
X20458277Y-29218746D02*
X20467801Y-29199698D01*
X20467801Y-29199698D02*
X20477324Y-29190174D01*
X20477324Y-29190174D02*
X20496372Y-29180650D01*
X20496372Y-29180650D02*
X20515420Y-29180650D01*
X20582086Y-29313984D02*
X20582086Y-29180650D01*
X20582086Y-29113984D02*
X20572563Y-29123508D01*
X20572563Y-29123508D02*
X20582086Y-29133031D01*
X20582086Y-29133031D02*
X20591610Y-29123508D01*
X20591610Y-29123508D02*
X20582086Y-29113984D01*
X20582086Y-29113984D02*
X20582086Y-29133031D01*
X20705896Y-29313984D02*
X20686848Y-29304460D01*
X20686848Y-29304460D02*
X20677324Y-29285412D01*
X20677324Y-29285412D02*
X20677324Y-29113984D01*
X20810658Y-29313984D02*
X20791610Y-29304460D01*
X20791610Y-29304460D02*
X20782086Y-29285412D01*
X20782086Y-29285412D02*
X20782086Y-29113984D01*
X21039229Y-29313984D02*
X21039229Y-29113984D01*
X21039229Y-29113984D02*
X21105896Y-29256841D01*
X21105896Y-29256841D02*
X21172563Y-29113984D01*
X21172563Y-29113984D02*
X21172563Y-29313984D01*
X21353515Y-29313984D02*
X21353515Y-29209222D01*
X21353515Y-29209222D02*
X21343991Y-29190174D01*
X21343991Y-29190174D02*
X21324944Y-29180650D01*
X21324944Y-29180650D02*
X21286848Y-29180650D01*
X21286848Y-29180650D02*
X21267801Y-29190174D01*
X21353515Y-29304460D02*
X21334467Y-29313984D01*
X21334467Y-29313984D02*
X21286848Y-29313984D01*
X21286848Y-29313984D02*
X21267801Y-29304460D01*
X21267801Y-29304460D02*
X21258277Y-29285412D01*
X21258277Y-29285412D02*
X21258277Y-29266365D01*
X21258277Y-29266365D02*
X21267801Y-29247317D01*
X21267801Y-29247317D02*
X21286848Y-29237793D01*
X21286848Y-29237793D02*
X21334467Y-29237793D01*
X21334467Y-29237793D02*
X21353515Y-29228269D01*
X21448753Y-29180650D02*
X21448753Y-29380650D01*
X21448753Y-29190174D02*
X21467801Y-29180650D01*
X21467801Y-29180650D02*
X21505896Y-29180650D01*
X21505896Y-29180650D02*
X21524944Y-29190174D01*
X21524944Y-29190174D02*
X21534467Y-29199698D01*
X21534467Y-29199698D02*
X21543991Y-29218746D01*
X21543991Y-29218746D02*
X21543991Y-29275888D01*
X21543991Y-29275888D02*
X21534467Y-29294936D01*
X21534467Y-29294936D02*
X21524944Y-29304460D01*
X21524944Y-29304460D02*
X21505896Y-29313984D01*
X21505896Y-29313984D02*
X21467801Y-29313984D01*
X21467801Y-29313984D02*
X21448753Y-29304460D01*
X21629705Y-29294936D02*
X21639229Y-29304460D01*
X21639229Y-29304460D02*
X21629705Y-29313984D01*
X21629705Y-29313984D02*
X21620182Y-29304460D01*
X21620182Y-29304460D02*
X21629705Y-29294936D01*
X21629705Y-29294936D02*
X21629705Y-29313984D01*
X21629705Y-29190174D02*
X21639229Y-29199698D01*
X21639229Y-29199698D02*
X21629705Y-29209222D01*
X21629705Y-29209222D02*
X21620182Y-29199698D01*
X21620182Y-29199698D02*
X21629705Y-29190174D01*
X21629705Y-29190174D02*
X21629705Y-29209222D01*
D12*
X19937500Y-29612500D02*
X19997500Y-29672500D01*
X19997500Y-29612500D02*
X19937500Y-29672500D01*
D11*
X20296372Y-29533984D02*
X20315420Y-29533984D01*
X20315420Y-29533984D02*
X20334467Y-29543508D01*
X20334467Y-29543508D02*
X20343991Y-29553031D01*
X20343991Y-29553031D02*
X20353515Y-29572079D01*
X20353515Y-29572079D02*
X20363039Y-29610174D01*
X20363039Y-29610174D02*
X20363039Y-29657793D01*
X20363039Y-29657793D02*
X20353515Y-29695888D01*
X20353515Y-29695888D02*
X20343991Y-29714936D01*
X20343991Y-29714936D02*
X20334467Y-29724460D01*
X20334467Y-29724460D02*
X20315420Y-29733984D01*
X20315420Y-29733984D02*
X20296372Y-29733984D01*
X20296372Y-29733984D02*
X20277324Y-29724460D01*
X20277324Y-29724460D02*
X20267801Y-29714936D01*
X20267801Y-29714936D02*
X20258277Y-29695888D01*
X20258277Y-29695888D02*
X20248753Y-29657793D01*
X20248753Y-29657793D02*
X20248753Y-29610174D01*
X20248753Y-29610174D02*
X20258277Y-29572079D01*
X20258277Y-29572079D02*
X20267801Y-29553031D01*
X20267801Y-29553031D02*
X20277324Y-29543508D01*
X20277324Y-29543508D02*
X20296372Y-29533984D01*
X20448753Y-29714936D02*
X20458277Y-29724460D01*
X20458277Y-29724460D02*
X20448753Y-29733984D01*
X20448753Y-29733984D02*
X20439229Y-29724460D01*
X20439229Y-29724460D02*
X20448753Y-29714936D01*
X20448753Y-29714936D02*
X20448753Y-29733984D01*
X20629705Y-29533984D02*
X20591610Y-29533984D01*
X20591610Y-29533984D02*
X20572563Y-29543508D01*
X20572563Y-29543508D02*
X20563039Y-29553031D01*
X20563039Y-29553031D02*
X20543991Y-29581603D01*
X20543991Y-29581603D02*
X20534467Y-29619698D01*
X20534467Y-29619698D02*
X20534467Y-29695888D01*
X20534467Y-29695888D02*
X20543991Y-29714936D01*
X20543991Y-29714936D02*
X20553515Y-29724460D01*
X20553515Y-29724460D02*
X20572563Y-29733984D01*
X20572563Y-29733984D02*
X20610658Y-29733984D01*
X20610658Y-29733984D02*
X20629705Y-29724460D01*
X20629705Y-29724460D02*
X20639229Y-29714936D01*
X20639229Y-29714936D02*
X20648753Y-29695888D01*
X20648753Y-29695888D02*
X20648753Y-29648269D01*
X20648753Y-29648269D02*
X20639229Y-29629222D01*
X20639229Y-29629222D02*
X20629705Y-29619698D01*
X20629705Y-29619698D02*
X20610658Y-29610174D01*
X20610658Y-29610174D02*
X20572563Y-29610174D01*
X20572563Y-29610174D02*
X20553515Y-29619698D01*
X20553515Y-29619698D02*
X20543991Y-29629222D01*
X20543991Y-29629222D02*
X20534467Y-29648269D01*
X20772563Y-29533984D02*
X20791610Y-29533984D01*
X20791610Y-29533984D02*
X20810658Y-29543508D01*
X20810658Y-29543508D02*
X20820182Y-29553031D01*
X20820182Y-29553031D02*
X20829705Y-29572079D01*
X20829705Y-29572079D02*
X20839229Y-29610174D01*
X20839229Y-29610174D02*
X20839229Y-29657793D01*
X20839229Y-29657793D02*
X20829705Y-29695888D01*
X20829705Y-29695888D02*
X20820182Y-29714936D01*
X20820182Y-29714936D02*
X20810658Y-29724460D01*
X20810658Y-29724460D02*
X20791610Y-29733984D01*
X20791610Y-29733984D02*
X20772563Y-29733984D01*
X20772563Y-29733984D02*
X20753515Y-29724460D01*
X20753515Y-29724460D02*
X20743991Y-29714936D01*
X20743991Y-29714936D02*
X20734467Y-29695888D01*
X20734467Y-29695888D02*
X20724944Y-29657793D01*
X20724944Y-29657793D02*
X20724944Y-29610174D01*
X20724944Y-29610174D02*
X20734467Y-29572079D01*
X20734467Y-29572079D02*
X20743991Y-29553031D01*
X20743991Y-29553031D02*
X20753515Y-29543508D01*
X20753515Y-29543508D02*
X20772563Y-29533984D01*
X20963039Y-29533984D02*
X20982086Y-29533984D01*
X20982086Y-29533984D02*
X21001134Y-29543508D01*
X21001134Y-29543508D02*
X21010658Y-29553031D01*
X21010658Y-29553031D02*
X21020182Y-29572079D01*
X21020182Y-29572079D02*
X21029705Y-29610174D01*
X21029705Y-29610174D02*
X21029705Y-29657793D01*
X21029705Y-29657793D02*
X21020182Y-29695888D01*
X21020182Y-29695888D02*
X21010658Y-29714936D01*
X21010658Y-29714936D02*
X21001134Y-29724460D01*
X21001134Y-29724460D02*
X20982086Y-29733984D01*
X20982086Y-29733984D02*
X20963039Y-29733984D01*
X20963039Y-29733984D02*
X20943991Y-29724460D01*
X20943991Y-29724460D02*
X20934467Y-29714936D01*
X20934467Y-29714936D02*
X20924944Y-29695888D01*
X20924944Y-29695888D02*
X20915420Y-29657793D01*
X20915420Y-29657793D02*
X20915420Y-29610174D01*
X20915420Y-29610174D02*
X20924944Y-29572079D01*
X20924944Y-29572079D02*
X20934467Y-29553031D01*
X20934467Y-29553031D02*
X20943991Y-29543508D01*
X20943991Y-29543508D02*
X20963039Y-29533984D01*
X21115420Y-29733984D02*
X21115420Y-29600650D01*
X21115420Y-29619698D02*
X21124944Y-29610174D01*
X21124944Y-29610174D02*
X21143991Y-29600650D01*
X21143991Y-29600650D02*
X21172563Y-29600650D01*
X21172563Y-29600650D02*
X21191610Y-29610174D01*
X21191610Y-29610174D02*
X21201134Y-29629222D01*
X21201134Y-29629222D02*
X21201134Y-29733984D01*
X21201134Y-29629222D02*
X21210658Y-29610174D01*
X21210658Y-29610174D02*
X21229705Y-29600650D01*
X21229705Y-29600650D02*
X21258277Y-29600650D01*
X21258277Y-29600650D02*
X21277325Y-29610174D01*
X21277325Y-29610174D02*
X21286848Y-29629222D01*
X21286848Y-29629222D02*
X21286848Y-29733984D01*
X21382086Y-29733984D02*
X21382086Y-29600650D01*
X21382086Y-29619698D02*
X21391610Y-29610174D01*
X21391610Y-29610174D02*
X21410658Y-29600650D01*
X21410658Y-29600650D02*
X21439229Y-29600650D01*
X21439229Y-29600650D02*
X21458277Y-29610174D01*
X21458277Y-29610174D02*
X21467801Y-29629222D01*
X21467801Y-29629222D02*
X21467801Y-29733984D01*
X21467801Y-29629222D02*
X21477325Y-29610174D01*
X21477325Y-29610174D02*
X21496372Y-29600650D01*
X21496372Y-29600650D02*
X21524944Y-29600650D01*
X21524944Y-29600650D02*
X21543991Y-29610174D01*
X21543991Y-29610174D02*
X21553515Y-29629222D01*
X21553515Y-29629222D02*
X21553515Y-29733984D01*
X21943991Y-29524460D02*
X21772563Y-29781603D01*
X22201134Y-29533984D02*
X22220182Y-29533984D01*
X22220182Y-29533984D02*
X22239229Y-29543508D01*
X22239229Y-29543508D02*
X22248753Y-29553031D01*
X22248753Y-29553031D02*
X22258277Y-29572079D01*
X22258277Y-29572079D02*
X22267801Y-29610174D01*
X22267801Y-29610174D02*
X22267801Y-29657793D01*
X22267801Y-29657793D02*
X22258277Y-29695888D01*
X22258277Y-29695888D02*
X22248753Y-29714936D01*
X22248753Y-29714936D02*
X22239229Y-29724460D01*
X22239229Y-29724460D02*
X22220182Y-29733984D01*
X22220182Y-29733984D02*
X22201134Y-29733984D01*
X22201134Y-29733984D02*
X22182087Y-29724460D01*
X22182087Y-29724460D02*
X22172563Y-29714936D01*
X22172563Y-29714936D02*
X22163039Y-29695888D01*
X22163039Y-29695888D02*
X22153515Y-29657793D01*
X22153515Y-29657793D02*
X22153515Y-29610174D01*
X22153515Y-29610174D02*
X22163039Y-29572079D01*
X22163039Y-29572079D02*
X22172563Y-29553031D01*
X22172563Y-29553031D02*
X22182087Y-29543508D01*
X22182087Y-29543508D02*
X22201134Y-29533984D01*
X22353515Y-29714936D02*
X22363039Y-29724460D01*
X22363039Y-29724460D02*
X22353515Y-29733984D01*
X22353515Y-29733984D02*
X22343991Y-29724460D01*
X22343991Y-29724460D02*
X22353515Y-29714936D01*
X22353515Y-29714936D02*
X22353515Y-29733984D01*
X22486848Y-29533984D02*
X22505896Y-29533984D01*
X22505896Y-29533984D02*
X22524944Y-29543508D01*
X22524944Y-29543508D02*
X22534467Y-29553031D01*
X22534467Y-29553031D02*
X22543991Y-29572079D01*
X22543991Y-29572079D02*
X22553515Y-29610174D01*
X22553515Y-29610174D02*
X22553515Y-29657793D01*
X22553515Y-29657793D02*
X22543991Y-29695888D01*
X22543991Y-29695888D02*
X22534467Y-29714936D01*
X22534467Y-29714936D02*
X22524944Y-29724460D01*
X22524944Y-29724460D02*
X22505896Y-29733984D01*
X22505896Y-29733984D02*
X22486848Y-29733984D01*
X22486848Y-29733984D02*
X22467801Y-29724460D01*
X22467801Y-29724460D02*
X22458277Y-29714936D01*
X22458277Y-29714936D02*
X22448753Y-29695888D01*
X22448753Y-29695888D02*
X22439229Y-29657793D01*
X22439229Y-29657793D02*
X22439229Y-29610174D01*
X22439229Y-29610174D02*
X22448753Y-29572079D01*
X22448753Y-29572079D02*
X22458277Y-29553031D01*
X22458277Y-29553031D02*
X22467801Y-29543508D01*
X22467801Y-29543508D02*
X22486848Y-29533984D01*
X22629706Y-29553031D02*
X22639229Y-29543508D01*
X22639229Y-29543508D02*
X22658277Y-29533984D01*
X22658277Y-29533984D02*
X22705896Y-29533984D01*
X22705896Y-29533984D02*
X22724944Y-29543508D01*
X22724944Y-29543508D02*
X22734467Y-29553031D01*
X22734467Y-29553031D02*
X22743991Y-29572079D01*
X22743991Y-29572079D02*
X22743991Y-29591127D01*
X22743991Y-29591127D02*
X22734467Y-29619698D01*
X22734467Y-29619698D02*
X22620182Y-29733984D01*
X22620182Y-29733984D02*
X22743991Y-29733984D01*
X22810658Y-29533984D02*
X22934467Y-29533984D01*
X22934467Y-29533984D02*
X22867801Y-29610174D01*
X22867801Y-29610174D02*
X22896372Y-29610174D01*
X22896372Y-29610174D02*
X22915420Y-29619698D01*
X22915420Y-29619698D02*
X22924944Y-29629222D01*
X22924944Y-29629222D02*
X22934467Y-29648269D01*
X22934467Y-29648269D02*
X22934467Y-29695888D01*
X22934467Y-29695888D02*
X22924944Y-29714936D01*
X22924944Y-29714936D02*
X22915420Y-29724460D01*
X22915420Y-29724460D02*
X22896372Y-29733984D01*
X22896372Y-29733984D02*
X22839229Y-29733984D01*
X22839229Y-29733984D02*
X22820182Y-29724460D01*
X22820182Y-29724460D02*
X22810658Y-29714936D01*
X23105896Y-29533984D02*
X23067801Y-29533984D01*
X23067801Y-29533984D02*
X23048753Y-29543508D01*
X23048753Y-29543508D02*
X23039229Y-29553031D01*
X23039229Y-29553031D02*
X23020182Y-29581603D01*
X23020182Y-29581603D02*
X23010658Y-29619698D01*
X23010658Y-29619698D02*
X23010658Y-29695888D01*
X23010658Y-29695888D02*
X23020182Y-29714936D01*
X23020182Y-29714936D02*
X23029706Y-29724460D01*
X23029706Y-29724460D02*
X23048753Y-29733984D01*
X23048753Y-29733984D02*
X23086848Y-29733984D01*
X23086848Y-29733984D02*
X23105896Y-29724460D01*
X23105896Y-29724460D02*
X23115420Y-29714936D01*
X23115420Y-29714936D02*
X23124944Y-29695888D01*
X23124944Y-29695888D02*
X23124944Y-29648269D01*
X23124944Y-29648269D02*
X23115420Y-29629222D01*
X23115420Y-29629222D02*
X23105896Y-29619698D01*
X23105896Y-29619698D02*
X23086848Y-29610174D01*
X23086848Y-29610174D02*
X23048753Y-29610174D01*
X23048753Y-29610174D02*
X23029706Y-29619698D01*
X23029706Y-29619698D02*
X23020182Y-29629222D01*
X23020182Y-29629222D02*
X23010658Y-29648269D01*
X23201134Y-29533984D02*
X23201134Y-29572079D01*
X23277325Y-29533984D02*
X23277325Y-29572079D01*
X23572563Y-29810174D02*
X23563039Y-29800650D01*
X23563039Y-29800650D02*
X23543991Y-29772079D01*
X23543991Y-29772079D02*
X23534468Y-29753031D01*
X23534468Y-29753031D02*
X23524944Y-29724460D01*
X23524944Y-29724460D02*
X23515420Y-29676841D01*
X23515420Y-29676841D02*
X23515420Y-29638746D01*
X23515420Y-29638746D02*
X23524944Y-29591127D01*
X23524944Y-29591127D02*
X23534468Y-29562555D01*
X23534468Y-29562555D02*
X23543991Y-29543508D01*
X23543991Y-29543508D02*
X23563039Y-29514936D01*
X23563039Y-29514936D02*
X23572563Y-29505412D01*
X23734468Y-29533984D02*
X23696372Y-29533984D01*
X23696372Y-29533984D02*
X23677325Y-29543508D01*
X23677325Y-29543508D02*
X23667801Y-29553031D01*
X23667801Y-29553031D02*
X23648753Y-29581603D01*
X23648753Y-29581603D02*
X23639229Y-29619698D01*
X23639229Y-29619698D02*
X23639229Y-29695888D01*
X23639229Y-29695888D02*
X23648753Y-29714936D01*
X23648753Y-29714936D02*
X23658277Y-29724460D01*
X23658277Y-29724460D02*
X23677325Y-29733984D01*
X23677325Y-29733984D02*
X23715420Y-29733984D01*
X23715420Y-29733984D02*
X23734468Y-29724460D01*
X23734468Y-29724460D02*
X23743991Y-29714936D01*
X23743991Y-29714936D02*
X23753515Y-29695888D01*
X23753515Y-29695888D02*
X23753515Y-29648269D01*
X23753515Y-29648269D02*
X23743991Y-29629222D01*
X23743991Y-29629222D02*
X23734468Y-29619698D01*
X23734468Y-29619698D02*
X23715420Y-29610174D01*
X23715420Y-29610174D02*
X23677325Y-29610174D01*
X23677325Y-29610174D02*
X23658277Y-29619698D01*
X23658277Y-29619698D02*
X23648753Y-29629222D01*
X23648753Y-29629222D02*
X23639229Y-29648269D01*
X23991610Y-29733984D02*
X23991610Y-29533984D01*
X24077325Y-29733984D02*
X24077325Y-29629222D01*
X24077325Y-29629222D02*
X24067801Y-29610174D01*
X24067801Y-29610174D02*
X24048753Y-29600650D01*
X24048753Y-29600650D02*
X24020182Y-29600650D01*
X24020182Y-29600650D02*
X24001134Y-29610174D01*
X24001134Y-29610174D02*
X23991610Y-29619698D01*
X24201134Y-29733984D02*
X24182087Y-29724460D01*
X24182087Y-29724460D02*
X24172563Y-29714936D01*
X24172563Y-29714936D02*
X24163039Y-29695888D01*
X24163039Y-29695888D02*
X24163039Y-29638746D01*
X24163039Y-29638746D02*
X24172563Y-29619698D01*
X24172563Y-29619698D02*
X24182087Y-29610174D01*
X24182087Y-29610174D02*
X24201134Y-29600650D01*
X24201134Y-29600650D02*
X24229706Y-29600650D01*
X24229706Y-29600650D02*
X24248753Y-29610174D01*
X24248753Y-29610174D02*
X24258277Y-29619698D01*
X24258277Y-29619698D02*
X24267801Y-29638746D01*
X24267801Y-29638746D02*
X24267801Y-29695888D01*
X24267801Y-29695888D02*
X24258277Y-29714936D01*
X24258277Y-29714936D02*
X24248753Y-29724460D01*
X24248753Y-29724460D02*
X24229706Y-29733984D01*
X24229706Y-29733984D02*
X24201134Y-29733984D01*
X24382087Y-29733984D02*
X24363039Y-29724460D01*
X24363039Y-29724460D02*
X24353515Y-29705412D01*
X24353515Y-29705412D02*
X24353515Y-29533984D01*
X24534468Y-29724460D02*
X24515420Y-29733984D01*
X24515420Y-29733984D02*
X24477325Y-29733984D01*
X24477325Y-29733984D02*
X24458277Y-29724460D01*
X24458277Y-29724460D02*
X24448753Y-29705412D01*
X24448753Y-29705412D02*
X24448753Y-29629222D01*
X24448753Y-29629222D02*
X24458277Y-29610174D01*
X24458277Y-29610174D02*
X24477325Y-29600650D01*
X24477325Y-29600650D02*
X24515420Y-29600650D01*
X24515420Y-29600650D02*
X24534468Y-29610174D01*
X24534468Y-29610174D02*
X24543991Y-29629222D01*
X24543991Y-29629222D02*
X24543991Y-29648269D01*
X24543991Y-29648269D02*
X24448753Y-29667317D01*
X24620182Y-29724460D02*
X24639230Y-29733984D01*
X24639230Y-29733984D02*
X24677325Y-29733984D01*
X24677325Y-29733984D02*
X24696372Y-29724460D01*
X24696372Y-29724460D02*
X24705896Y-29705412D01*
X24705896Y-29705412D02*
X24705896Y-29695888D01*
X24705896Y-29695888D02*
X24696372Y-29676841D01*
X24696372Y-29676841D02*
X24677325Y-29667317D01*
X24677325Y-29667317D02*
X24648753Y-29667317D01*
X24648753Y-29667317D02*
X24629706Y-29657793D01*
X24629706Y-29657793D02*
X24620182Y-29638746D01*
X24620182Y-29638746D02*
X24620182Y-29629222D01*
X24620182Y-29629222D02*
X24629706Y-29610174D01*
X24629706Y-29610174D02*
X24648753Y-29600650D01*
X24648753Y-29600650D02*
X24677325Y-29600650D01*
X24677325Y-29600650D02*
X24696372Y-29610174D01*
X24772563Y-29810174D02*
X24782087Y-29800650D01*
X24782087Y-29800650D02*
X24801134Y-29772079D01*
X24801134Y-29772079D02*
X24810658Y-29753031D01*
X24810658Y-29753031D02*
X24820182Y-29724460D01*
X24820182Y-29724460D02*
X24829706Y-29676841D01*
X24829706Y-29676841D02*
X24829706Y-29638746D01*
X24829706Y-29638746D02*
X24820182Y-29591127D01*
X24820182Y-29591127D02*
X24810658Y-29562555D01*
X24810658Y-29562555D02*
X24801134Y-29543508D01*
X24801134Y-29543508D02*
X24782087Y-29514936D01*
X24782087Y-29514936D02*
X24772563Y-29505412D01*
X25134468Y-29810174D02*
X25124944Y-29800650D01*
X25124944Y-29800650D02*
X25105896Y-29772079D01*
X25105896Y-29772079D02*
X25096372Y-29753031D01*
X25096372Y-29753031D02*
X25086849Y-29724460D01*
X25086849Y-29724460D02*
X25077325Y-29676841D01*
X25077325Y-29676841D02*
X25077325Y-29638746D01*
X25077325Y-29638746D02*
X25086849Y-29591127D01*
X25086849Y-29591127D02*
X25096372Y-29562555D01*
X25096372Y-29562555D02*
X25105896Y-29543508D01*
X25105896Y-29543508D02*
X25124944Y-29514936D01*
X25124944Y-29514936D02*
X25134468Y-29505412D01*
X25210658Y-29600650D02*
X25210658Y-29733984D01*
X25210658Y-29619698D02*
X25220182Y-29610174D01*
X25220182Y-29610174D02*
X25239230Y-29600650D01*
X25239230Y-29600650D02*
X25267801Y-29600650D01*
X25267801Y-29600650D02*
X25286849Y-29610174D01*
X25286849Y-29610174D02*
X25296372Y-29629222D01*
X25296372Y-29629222D02*
X25296372Y-29733984D01*
X25420182Y-29733984D02*
X25401134Y-29724460D01*
X25401134Y-29724460D02*
X25391611Y-29714936D01*
X25391611Y-29714936D02*
X25382087Y-29695888D01*
X25382087Y-29695888D02*
X25382087Y-29638746D01*
X25382087Y-29638746D02*
X25391611Y-29619698D01*
X25391611Y-29619698D02*
X25401134Y-29610174D01*
X25401134Y-29610174D02*
X25420182Y-29600650D01*
X25420182Y-29600650D02*
X25448753Y-29600650D01*
X25448753Y-29600650D02*
X25467801Y-29610174D01*
X25467801Y-29610174D02*
X25477325Y-29619698D01*
X25477325Y-29619698D02*
X25486849Y-29638746D01*
X25486849Y-29638746D02*
X25486849Y-29695888D01*
X25486849Y-29695888D02*
X25477325Y-29714936D01*
X25477325Y-29714936D02*
X25467801Y-29724460D01*
X25467801Y-29724460D02*
X25448753Y-29733984D01*
X25448753Y-29733984D02*
X25420182Y-29733984D01*
X25543992Y-29600650D02*
X25620182Y-29600650D01*
X25572563Y-29533984D02*
X25572563Y-29705412D01*
X25572563Y-29705412D02*
X25582087Y-29724460D01*
X25582087Y-29724460D02*
X25601134Y-29733984D01*
X25601134Y-29733984D02*
X25620182Y-29733984D01*
X25839230Y-29600650D02*
X25839230Y-29800650D01*
X25839230Y-29610174D02*
X25858277Y-29600650D01*
X25858277Y-29600650D02*
X25896373Y-29600650D01*
X25896373Y-29600650D02*
X25915420Y-29610174D01*
X25915420Y-29610174D02*
X25924944Y-29619698D01*
X25924944Y-29619698D02*
X25934468Y-29638746D01*
X25934468Y-29638746D02*
X25934468Y-29695888D01*
X25934468Y-29695888D02*
X25924944Y-29714936D01*
X25924944Y-29714936D02*
X25915420Y-29724460D01*
X25915420Y-29724460D02*
X25896373Y-29733984D01*
X25896373Y-29733984D02*
X25858277Y-29733984D01*
X25858277Y-29733984D02*
X25839230Y-29724460D01*
X26048753Y-29733984D02*
X26029706Y-29724460D01*
X26029706Y-29724460D02*
X26020182Y-29705412D01*
X26020182Y-29705412D02*
X26020182Y-29533984D01*
X26210658Y-29733984D02*
X26210658Y-29629222D01*
X26210658Y-29629222D02*
X26201134Y-29610174D01*
X26201134Y-29610174D02*
X26182087Y-29600650D01*
X26182087Y-29600650D02*
X26143992Y-29600650D01*
X26143992Y-29600650D02*
X26124944Y-29610174D01*
X26210658Y-29724460D02*
X26191611Y-29733984D01*
X26191611Y-29733984D02*
X26143992Y-29733984D01*
X26143992Y-29733984D02*
X26124944Y-29724460D01*
X26124944Y-29724460D02*
X26115420Y-29705412D01*
X26115420Y-29705412D02*
X26115420Y-29686365D01*
X26115420Y-29686365D02*
X26124944Y-29667317D01*
X26124944Y-29667317D02*
X26143992Y-29657793D01*
X26143992Y-29657793D02*
X26191611Y-29657793D01*
X26191611Y-29657793D02*
X26210658Y-29648269D01*
X26277325Y-29600650D02*
X26353515Y-29600650D01*
X26305896Y-29533984D02*
X26305896Y-29705412D01*
X26305896Y-29705412D02*
X26315420Y-29724460D01*
X26315420Y-29724460D02*
X26334468Y-29733984D01*
X26334468Y-29733984D02*
X26353515Y-29733984D01*
X26496373Y-29724460D02*
X26477325Y-29733984D01*
X26477325Y-29733984D02*
X26439230Y-29733984D01*
X26439230Y-29733984D02*
X26420182Y-29724460D01*
X26420182Y-29724460D02*
X26410658Y-29705412D01*
X26410658Y-29705412D02*
X26410658Y-29629222D01*
X26410658Y-29629222D02*
X26420182Y-29610174D01*
X26420182Y-29610174D02*
X26439230Y-29600650D01*
X26439230Y-29600650D02*
X26477325Y-29600650D01*
X26477325Y-29600650D02*
X26496373Y-29610174D01*
X26496373Y-29610174D02*
X26505896Y-29629222D01*
X26505896Y-29629222D02*
X26505896Y-29648269D01*
X26505896Y-29648269D02*
X26410658Y-29667317D01*
X26677325Y-29733984D02*
X26677325Y-29533984D01*
X26677325Y-29724460D02*
X26658277Y-29733984D01*
X26658277Y-29733984D02*
X26620182Y-29733984D01*
X26620182Y-29733984D02*
X26601134Y-29724460D01*
X26601134Y-29724460D02*
X26591611Y-29714936D01*
X26591611Y-29714936D02*
X26582087Y-29695888D01*
X26582087Y-29695888D02*
X26582087Y-29638746D01*
X26582087Y-29638746D02*
X26591611Y-29619698D01*
X26591611Y-29619698D02*
X26601134Y-29610174D01*
X26601134Y-29610174D02*
X26620182Y-29600650D01*
X26620182Y-29600650D02*
X26658277Y-29600650D01*
X26658277Y-29600650D02*
X26677325Y-29610174D01*
X26753515Y-29810174D02*
X26763039Y-29800650D01*
X26763039Y-29800650D02*
X26782087Y-29772079D01*
X26782087Y-29772079D02*
X26791611Y-29753031D01*
X26791611Y-29753031D02*
X26801134Y-29724460D01*
X26801134Y-29724460D02*
X26810658Y-29676841D01*
X26810658Y-29676841D02*
X26810658Y-29638746D01*
X26810658Y-29638746D02*
X26801134Y-29591127D01*
X26801134Y-29591127D02*
X26791611Y-29562555D01*
X26791611Y-29562555D02*
X26782087Y-29543508D01*
X26782087Y-29543508D02*
X26763039Y-29514936D01*
X26763039Y-29514936D02*
X26753515Y-29505412D01*
D13*
X19997500Y-29906500D02*
G75*
G02*
X19882500Y-29906500I-57500J0D01*
G01*
X19882500Y-29906500D02*
G75*
G02*
X19997500Y-29906500I57500J0D01*
G01*
D11*
X20363039Y-29997984D02*
X20248753Y-29997984D01*
X20305896Y-29997984D02*
X20305896Y-29797984D01*
X20305896Y-29797984D02*
X20286848Y-29826555D01*
X20286848Y-29826555D02*
X20267801Y-29845603D01*
X20267801Y-29845603D02*
X20248753Y-29855127D01*
X20448753Y-29978936D02*
X20458277Y-29988460D01*
X20458277Y-29988460D02*
X20448753Y-29997984D01*
X20448753Y-29997984D02*
X20439229Y-29988460D01*
X20439229Y-29988460D02*
X20448753Y-29978936D01*
X20448753Y-29978936D02*
X20448753Y-29997984D01*
X20648753Y-29997984D02*
X20534467Y-29997984D01*
X20591610Y-29997984D02*
X20591610Y-29797984D01*
X20591610Y-29797984D02*
X20572563Y-29826555D01*
X20572563Y-29826555D02*
X20553515Y-29845603D01*
X20553515Y-29845603D02*
X20534467Y-29855127D01*
X20829705Y-29797984D02*
X20734467Y-29797984D01*
X20734467Y-29797984D02*
X20724944Y-29893222D01*
X20724944Y-29893222D02*
X20734467Y-29883698D01*
X20734467Y-29883698D02*
X20753515Y-29874174D01*
X20753515Y-29874174D02*
X20801134Y-29874174D01*
X20801134Y-29874174D02*
X20820182Y-29883698D01*
X20820182Y-29883698D02*
X20829705Y-29893222D01*
X20829705Y-29893222D02*
X20839229Y-29912269D01*
X20839229Y-29912269D02*
X20839229Y-29959888D01*
X20839229Y-29959888D02*
X20829705Y-29978936D01*
X20829705Y-29978936D02*
X20820182Y-29988460D01*
X20820182Y-29988460D02*
X20801134Y-29997984D01*
X20801134Y-29997984D02*
X20753515Y-29997984D01*
X20753515Y-29997984D02*
X20734467Y-29988460D01*
X20734467Y-29988460D02*
X20724944Y-29978936D01*
X20963039Y-29797984D02*
X20982086Y-29797984D01*
X20982086Y-29797984D02*
X21001134Y-29807508D01*
X21001134Y-29807508D02*
X21010658Y-29817031D01*
X21010658Y-29817031D02*
X21020182Y-29836079D01*
X21020182Y-29836079D02*
X21029705Y-29874174D01*
X21029705Y-29874174D02*
X21029705Y-29921793D01*
X21029705Y-29921793D02*
X21020182Y-29959888D01*
X21020182Y-29959888D02*
X21010658Y-29978936D01*
X21010658Y-29978936D02*
X21001134Y-29988460D01*
X21001134Y-29988460D02*
X20982086Y-29997984D01*
X20982086Y-29997984D02*
X20963039Y-29997984D01*
X20963039Y-29997984D02*
X20943991Y-29988460D01*
X20943991Y-29988460D02*
X20934467Y-29978936D01*
X20934467Y-29978936D02*
X20924944Y-29959888D01*
X20924944Y-29959888D02*
X20915420Y-29921793D01*
X20915420Y-29921793D02*
X20915420Y-29874174D01*
X20915420Y-29874174D02*
X20924944Y-29836079D01*
X20924944Y-29836079D02*
X20934467Y-29817031D01*
X20934467Y-29817031D02*
X20943991Y-29807508D01*
X20943991Y-29807508D02*
X20963039Y-29797984D01*
X21115420Y-29997984D02*
X21115420Y-29864650D01*
X21115420Y-29883698D02*
X21124944Y-29874174D01*
X21124944Y-29874174D02*
X21143991Y-29864650D01*
X21143991Y-29864650D02*
X21172563Y-29864650D01*
X21172563Y-29864650D02*
X21191610Y-29874174D01*
X21191610Y-29874174D02*
X21201134Y-29893222D01*
X21201134Y-29893222D02*
X21201134Y-29997984D01*
X21201134Y-29893222D02*
X21210658Y-29874174D01*
X21210658Y-29874174D02*
X21229705Y-29864650D01*
X21229705Y-29864650D02*
X21258277Y-29864650D01*
X21258277Y-29864650D02*
X21277325Y-29874174D01*
X21277325Y-29874174D02*
X21286848Y-29893222D01*
X21286848Y-29893222D02*
X21286848Y-29997984D01*
X21382086Y-29997984D02*
X21382086Y-29864650D01*
X21382086Y-29883698D02*
X21391610Y-29874174D01*
X21391610Y-29874174D02*
X21410658Y-29864650D01*
X21410658Y-29864650D02*
X21439229Y-29864650D01*
X21439229Y-29864650D02*
X21458277Y-29874174D01*
X21458277Y-29874174D02*
X21467801Y-29893222D01*
X21467801Y-29893222D02*
X21467801Y-29997984D01*
X21467801Y-29893222D02*
X21477325Y-29874174D01*
X21477325Y-29874174D02*
X21496372Y-29864650D01*
X21496372Y-29864650D02*
X21524944Y-29864650D01*
X21524944Y-29864650D02*
X21543991Y-29874174D01*
X21543991Y-29874174D02*
X21553515Y-29893222D01*
X21553515Y-29893222D02*
X21553515Y-29997984D01*
X21943991Y-29788460D02*
X21772563Y-30045603D01*
X22201134Y-29797984D02*
X22220182Y-29797984D01*
X22220182Y-29797984D02*
X22239229Y-29807508D01*
X22239229Y-29807508D02*
X22248753Y-29817031D01*
X22248753Y-29817031D02*
X22258277Y-29836079D01*
X22258277Y-29836079D02*
X22267801Y-29874174D01*
X22267801Y-29874174D02*
X22267801Y-29921793D01*
X22267801Y-29921793D02*
X22258277Y-29959888D01*
X22258277Y-29959888D02*
X22248753Y-29978936D01*
X22248753Y-29978936D02*
X22239229Y-29988460D01*
X22239229Y-29988460D02*
X22220182Y-29997984D01*
X22220182Y-29997984D02*
X22201134Y-29997984D01*
X22201134Y-29997984D02*
X22182087Y-29988460D01*
X22182087Y-29988460D02*
X22172563Y-29978936D01*
X22172563Y-29978936D02*
X22163039Y-29959888D01*
X22163039Y-29959888D02*
X22153515Y-29921793D01*
X22153515Y-29921793D02*
X22153515Y-29874174D01*
X22153515Y-29874174D02*
X22163039Y-29836079D01*
X22163039Y-29836079D02*
X22172563Y-29817031D01*
X22172563Y-29817031D02*
X22182087Y-29807508D01*
X22182087Y-29807508D02*
X22201134Y-29797984D01*
X22353515Y-29978936D02*
X22363039Y-29988460D01*
X22363039Y-29988460D02*
X22353515Y-29997984D01*
X22353515Y-29997984D02*
X22343991Y-29988460D01*
X22343991Y-29988460D02*
X22353515Y-29978936D01*
X22353515Y-29978936D02*
X22353515Y-29997984D01*
X22486848Y-29797984D02*
X22505896Y-29797984D01*
X22505896Y-29797984D02*
X22524944Y-29807508D01*
X22524944Y-29807508D02*
X22534467Y-29817031D01*
X22534467Y-29817031D02*
X22543991Y-29836079D01*
X22543991Y-29836079D02*
X22553515Y-29874174D01*
X22553515Y-29874174D02*
X22553515Y-29921793D01*
X22553515Y-29921793D02*
X22543991Y-29959888D01*
X22543991Y-29959888D02*
X22534467Y-29978936D01*
X22534467Y-29978936D02*
X22524944Y-29988460D01*
X22524944Y-29988460D02*
X22505896Y-29997984D01*
X22505896Y-29997984D02*
X22486848Y-29997984D01*
X22486848Y-29997984D02*
X22467801Y-29988460D01*
X22467801Y-29988460D02*
X22458277Y-29978936D01*
X22458277Y-29978936D02*
X22448753Y-29959888D01*
X22448753Y-29959888D02*
X22439229Y-29921793D01*
X22439229Y-29921793D02*
X22439229Y-29874174D01*
X22439229Y-29874174D02*
X22448753Y-29836079D01*
X22448753Y-29836079D02*
X22458277Y-29817031D01*
X22458277Y-29817031D02*
X22467801Y-29807508D01*
X22467801Y-29807508D02*
X22486848Y-29797984D01*
X22724944Y-29864650D02*
X22724944Y-29997984D01*
X22677325Y-29788460D02*
X22629706Y-29931317D01*
X22629706Y-29931317D02*
X22753515Y-29931317D01*
X22924944Y-29797984D02*
X22829706Y-29797984D01*
X22829706Y-29797984D02*
X22820182Y-29893222D01*
X22820182Y-29893222D02*
X22829706Y-29883698D01*
X22829706Y-29883698D02*
X22848753Y-29874174D01*
X22848753Y-29874174D02*
X22896372Y-29874174D01*
X22896372Y-29874174D02*
X22915420Y-29883698D01*
X22915420Y-29883698D02*
X22924944Y-29893222D01*
X22924944Y-29893222D02*
X22934467Y-29912269D01*
X22934467Y-29912269D02*
X22934467Y-29959888D01*
X22934467Y-29959888D02*
X22924944Y-29978936D01*
X22924944Y-29978936D02*
X22915420Y-29988460D01*
X22915420Y-29988460D02*
X22896372Y-29997984D01*
X22896372Y-29997984D02*
X22848753Y-29997984D01*
X22848753Y-29997984D02*
X22829706Y-29988460D01*
X22829706Y-29988460D02*
X22820182Y-29978936D01*
X23001134Y-29797984D02*
X23124944Y-29797984D01*
X23124944Y-29797984D02*
X23058277Y-29874174D01*
X23058277Y-29874174D02*
X23086848Y-29874174D01*
X23086848Y-29874174D02*
X23105896Y-29883698D01*
X23105896Y-29883698D02*
X23115420Y-29893222D01*
X23115420Y-29893222D02*
X23124944Y-29912269D01*
X23124944Y-29912269D02*
X23124944Y-29959888D01*
X23124944Y-29959888D02*
X23115420Y-29978936D01*
X23115420Y-29978936D02*
X23105896Y-29988460D01*
X23105896Y-29988460D02*
X23086848Y-29997984D01*
X23086848Y-29997984D02*
X23029706Y-29997984D01*
X23029706Y-29997984D02*
X23010658Y-29988460D01*
X23010658Y-29988460D02*
X23001134Y-29978936D01*
X23201134Y-29797984D02*
X23201134Y-29836079D01*
X23277325Y-29797984D02*
X23277325Y-29836079D01*
X23572563Y-30074174D02*
X23563039Y-30064650D01*
X23563039Y-30064650D02*
X23543991Y-30036079D01*
X23543991Y-30036079D02*
X23534468Y-30017031D01*
X23534468Y-30017031D02*
X23524944Y-29988460D01*
X23524944Y-29988460D02*
X23515420Y-29940841D01*
X23515420Y-29940841D02*
X23515420Y-29902746D01*
X23515420Y-29902746D02*
X23524944Y-29855127D01*
X23524944Y-29855127D02*
X23534468Y-29826555D01*
X23534468Y-29826555D02*
X23543991Y-29807508D01*
X23543991Y-29807508D02*
X23563039Y-29778936D01*
X23563039Y-29778936D02*
X23572563Y-29769412D01*
X23753515Y-29997984D02*
X23639229Y-29997984D01*
X23696372Y-29997984D02*
X23696372Y-29797984D01*
X23696372Y-29797984D02*
X23677325Y-29826555D01*
X23677325Y-29826555D02*
X23658277Y-29845603D01*
X23658277Y-29845603D02*
X23639229Y-29855127D01*
X23991610Y-29997984D02*
X23991610Y-29797984D01*
X24077325Y-29997984D02*
X24077325Y-29893222D01*
X24077325Y-29893222D02*
X24067801Y-29874174D01*
X24067801Y-29874174D02*
X24048753Y-29864650D01*
X24048753Y-29864650D02*
X24020182Y-29864650D01*
X24020182Y-29864650D02*
X24001134Y-29874174D01*
X24001134Y-29874174D02*
X23991610Y-29883698D01*
X24201134Y-29997984D02*
X24182087Y-29988460D01*
X24182087Y-29988460D02*
X24172563Y-29978936D01*
X24172563Y-29978936D02*
X24163039Y-29959888D01*
X24163039Y-29959888D02*
X24163039Y-29902746D01*
X24163039Y-29902746D02*
X24172563Y-29883698D01*
X24172563Y-29883698D02*
X24182087Y-29874174D01*
X24182087Y-29874174D02*
X24201134Y-29864650D01*
X24201134Y-29864650D02*
X24229706Y-29864650D01*
X24229706Y-29864650D02*
X24248753Y-29874174D01*
X24248753Y-29874174D02*
X24258277Y-29883698D01*
X24258277Y-29883698D02*
X24267801Y-29902746D01*
X24267801Y-29902746D02*
X24267801Y-29959888D01*
X24267801Y-29959888D02*
X24258277Y-29978936D01*
X24258277Y-29978936D02*
X24248753Y-29988460D01*
X24248753Y-29988460D02*
X24229706Y-29997984D01*
X24229706Y-29997984D02*
X24201134Y-29997984D01*
X24382087Y-29997984D02*
X24363039Y-29988460D01*
X24363039Y-29988460D02*
X24353515Y-29969412D01*
X24353515Y-29969412D02*
X24353515Y-29797984D01*
X24534468Y-29988460D02*
X24515420Y-29997984D01*
X24515420Y-29997984D02*
X24477325Y-29997984D01*
X24477325Y-29997984D02*
X24458277Y-29988460D01*
X24458277Y-29988460D02*
X24448753Y-29969412D01*
X24448753Y-29969412D02*
X24448753Y-29893222D01*
X24448753Y-29893222D02*
X24458277Y-29874174D01*
X24458277Y-29874174D02*
X24477325Y-29864650D01*
X24477325Y-29864650D02*
X24515420Y-29864650D01*
X24515420Y-29864650D02*
X24534468Y-29874174D01*
X24534468Y-29874174D02*
X24543991Y-29893222D01*
X24543991Y-29893222D02*
X24543991Y-29912269D01*
X24543991Y-29912269D02*
X24448753Y-29931317D01*
X24610658Y-30074174D02*
X24620182Y-30064650D01*
X24620182Y-30064650D02*
X24639230Y-30036079D01*
X24639230Y-30036079D02*
X24648753Y-30017031D01*
X24648753Y-30017031D02*
X24658277Y-29988460D01*
X24658277Y-29988460D02*
X24667801Y-29940841D01*
X24667801Y-29940841D02*
X24667801Y-29902746D01*
X24667801Y-29902746D02*
X24658277Y-29855127D01*
X24658277Y-29855127D02*
X24648753Y-29826555D01*
X24648753Y-29826555D02*
X24639230Y-29807508D01*
X24639230Y-29807508D02*
X24620182Y-29778936D01*
X24620182Y-29778936D02*
X24610658Y-29769412D01*
X24972563Y-30074174D02*
X24963039Y-30064650D01*
X24963039Y-30064650D02*
X24943991Y-30036079D01*
X24943991Y-30036079D02*
X24934468Y-30017031D01*
X24934468Y-30017031D02*
X24924944Y-29988460D01*
X24924944Y-29988460D02*
X24915420Y-29940841D01*
X24915420Y-29940841D02*
X24915420Y-29902746D01*
X24915420Y-29902746D02*
X24924944Y-29855127D01*
X24924944Y-29855127D02*
X24934468Y-29826555D01*
X24934468Y-29826555D02*
X24943991Y-29807508D01*
X24943991Y-29807508D02*
X24963039Y-29778936D01*
X24963039Y-29778936D02*
X24972563Y-29769412D01*
X25048753Y-29864650D02*
X25048753Y-29997984D01*
X25048753Y-29883698D02*
X25058277Y-29874174D01*
X25058277Y-29874174D02*
X25077325Y-29864650D01*
X25077325Y-29864650D02*
X25105896Y-29864650D01*
X25105896Y-29864650D02*
X25124944Y-29874174D01*
X25124944Y-29874174D02*
X25134468Y-29893222D01*
X25134468Y-29893222D02*
X25134468Y-29997984D01*
X25258277Y-29997984D02*
X25239230Y-29988460D01*
X25239230Y-29988460D02*
X25229706Y-29978936D01*
X25229706Y-29978936D02*
X25220182Y-29959888D01*
X25220182Y-29959888D02*
X25220182Y-29902746D01*
X25220182Y-29902746D02*
X25229706Y-29883698D01*
X25229706Y-29883698D02*
X25239230Y-29874174D01*
X25239230Y-29874174D02*
X25258277Y-29864650D01*
X25258277Y-29864650D02*
X25286849Y-29864650D01*
X25286849Y-29864650D02*
X25305896Y-29874174D01*
X25305896Y-29874174D02*
X25315420Y-29883698D01*
X25315420Y-29883698D02*
X25324944Y-29902746D01*
X25324944Y-29902746D02*
X25324944Y-29959888D01*
X25324944Y-29959888D02*
X25315420Y-29978936D01*
X25315420Y-29978936D02*
X25305896Y-29988460D01*
X25305896Y-29988460D02*
X25286849Y-29997984D01*
X25286849Y-29997984D02*
X25258277Y-29997984D01*
X25382087Y-29864650D02*
X25458277Y-29864650D01*
X25410658Y-29797984D02*
X25410658Y-29969412D01*
X25410658Y-29969412D02*
X25420182Y-29988460D01*
X25420182Y-29988460D02*
X25439230Y-29997984D01*
X25439230Y-29997984D02*
X25458277Y-29997984D01*
X25677325Y-29864650D02*
X25677325Y-30064650D01*
X25677325Y-29874174D02*
X25696372Y-29864650D01*
X25696372Y-29864650D02*
X25734468Y-29864650D01*
X25734468Y-29864650D02*
X25753515Y-29874174D01*
X25753515Y-29874174D02*
X25763039Y-29883698D01*
X25763039Y-29883698D02*
X25772563Y-29902746D01*
X25772563Y-29902746D02*
X25772563Y-29959888D01*
X25772563Y-29959888D02*
X25763039Y-29978936D01*
X25763039Y-29978936D02*
X25753515Y-29988460D01*
X25753515Y-29988460D02*
X25734468Y-29997984D01*
X25734468Y-29997984D02*
X25696372Y-29997984D01*
X25696372Y-29997984D02*
X25677325Y-29988460D01*
X25886849Y-29997984D02*
X25867801Y-29988460D01*
X25867801Y-29988460D02*
X25858277Y-29969412D01*
X25858277Y-29969412D02*
X25858277Y-29797984D01*
X26048753Y-29997984D02*
X26048753Y-29893222D01*
X26048753Y-29893222D02*
X26039230Y-29874174D01*
X26039230Y-29874174D02*
X26020182Y-29864650D01*
X26020182Y-29864650D02*
X25982087Y-29864650D01*
X25982087Y-29864650D02*
X25963039Y-29874174D01*
X26048753Y-29988460D02*
X26029706Y-29997984D01*
X26029706Y-29997984D02*
X25982087Y-29997984D01*
X25982087Y-29997984D02*
X25963039Y-29988460D01*
X25963039Y-29988460D02*
X25953515Y-29969412D01*
X25953515Y-29969412D02*
X25953515Y-29950365D01*
X25953515Y-29950365D02*
X25963039Y-29931317D01*
X25963039Y-29931317D02*
X25982087Y-29921793D01*
X25982087Y-29921793D02*
X26029706Y-29921793D01*
X26029706Y-29921793D02*
X26048753Y-29912269D01*
X26115420Y-29864650D02*
X26191611Y-29864650D01*
X26143992Y-29797984D02*
X26143992Y-29969412D01*
X26143992Y-29969412D02*
X26153515Y-29988460D01*
X26153515Y-29988460D02*
X26172563Y-29997984D01*
X26172563Y-29997984D02*
X26191611Y-29997984D01*
X26334468Y-29988460D02*
X26315420Y-29997984D01*
X26315420Y-29997984D02*
X26277325Y-29997984D01*
X26277325Y-29997984D02*
X26258277Y-29988460D01*
X26258277Y-29988460D02*
X26248753Y-29969412D01*
X26248753Y-29969412D02*
X26248753Y-29893222D01*
X26248753Y-29893222D02*
X26258277Y-29874174D01*
X26258277Y-29874174D02*
X26277325Y-29864650D01*
X26277325Y-29864650D02*
X26315420Y-29864650D01*
X26315420Y-29864650D02*
X26334468Y-29874174D01*
X26334468Y-29874174D02*
X26343992Y-29893222D01*
X26343992Y-29893222D02*
X26343992Y-29912269D01*
X26343992Y-29912269D02*
X26248753Y-29931317D01*
X26515420Y-29997984D02*
X26515420Y-29797984D01*
X26515420Y-29988460D02*
X26496373Y-29997984D01*
X26496373Y-29997984D02*
X26458277Y-29997984D01*
X26458277Y-29997984D02*
X26439230Y-29988460D01*
X26439230Y-29988460D02*
X26429706Y-29978936D01*
X26429706Y-29978936D02*
X26420182Y-29959888D01*
X26420182Y-29959888D02*
X26420182Y-29902746D01*
X26420182Y-29902746D02*
X26429706Y-29883698D01*
X26429706Y-29883698D02*
X26439230Y-29874174D01*
X26439230Y-29874174D02*
X26458277Y-29864650D01*
X26458277Y-29864650D02*
X26496373Y-29864650D01*
X26496373Y-29864650D02*
X26515420Y-29874174D01*
X26591611Y-30074174D02*
X26601134Y-30064650D01*
X26601134Y-30064650D02*
X26620182Y-30036079D01*
X26620182Y-30036079D02*
X26629706Y-30017031D01*
X26629706Y-30017031D02*
X26639230Y-29988460D01*
X26639230Y-29988460D02*
X26648753Y-29940841D01*
X26648753Y-29940841D02*
X26648753Y-29902746D01*
X26648753Y-29902746D02*
X26639230Y-29855127D01*
X26639230Y-29855127D02*
X26629706Y-29826555D01*
X26629706Y-29826555D02*
X26620182Y-29807508D01*
X26620182Y-29807508D02*
X26601134Y-29778936D01*
X26601134Y-29778936D02*
X26591611Y-29769412D01*
D14*
X19915000Y-30088000D02*
X19915000Y-30253000D01*
X19832500Y-30170500D02*
X19997500Y-30170500D01*
D11*
X20363039Y-30261984D02*
X20248753Y-30261984D01*
X20305896Y-30261984D02*
X20305896Y-30061984D01*
X20305896Y-30061984D02*
X20286848Y-30090555D01*
X20286848Y-30090555D02*
X20267801Y-30109603D01*
X20267801Y-30109603D02*
X20248753Y-30119127D01*
X20448753Y-30242936D02*
X20458277Y-30252460D01*
X20458277Y-30252460D02*
X20448753Y-30261984D01*
X20448753Y-30261984D02*
X20439229Y-30252460D01*
X20439229Y-30252460D02*
X20448753Y-30242936D01*
X20448753Y-30242936D02*
X20448753Y-30261984D01*
X20629705Y-30061984D02*
X20591610Y-30061984D01*
X20591610Y-30061984D02*
X20572563Y-30071508D01*
X20572563Y-30071508D02*
X20563039Y-30081031D01*
X20563039Y-30081031D02*
X20543991Y-30109603D01*
X20543991Y-30109603D02*
X20534467Y-30147698D01*
X20534467Y-30147698D02*
X20534467Y-30223888D01*
X20534467Y-30223888D02*
X20543991Y-30242936D01*
X20543991Y-30242936D02*
X20553515Y-30252460D01*
X20553515Y-30252460D02*
X20572563Y-30261984D01*
X20572563Y-30261984D02*
X20610658Y-30261984D01*
X20610658Y-30261984D02*
X20629705Y-30252460D01*
X20629705Y-30252460D02*
X20639229Y-30242936D01*
X20639229Y-30242936D02*
X20648753Y-30223888D01*
X20648753Y-30223888D02*
X20648753Y-30176269D01*
X20648753Y-30176269D02*
X20639229Y-30157222D01*
X20639229Y-30157222D02*
X20629705Y-30147698D01*
X20629705Y-30147698D02*
X20610658Y-30138174D01*
X20610658Y-30138174D02*
X20572563Y-30138174D01*
X20572563Y-30138174D02*
X20553515Y-30147698D01*
X20553515Y-30147698D02*
X20543991Y-30157222D01*
X20543991Y-30157222D02*
X20534467Y-30176269D01*
X20829705Y-30061984D02*
X20734467Y-30061984D01*
X20734467Y-30061984D02*
X20724944Y-30157222D01*
X20724944Y-30157222D02*
X20734467Y-30147698D01*
X20734467Y-30147698D02*
X20753515Y-30138174D01*
X20753515Y-30138174D02*
X20801134Y-30138174D01*
X20801134Y-30138174D02*
X20820182Y-30147698D01*
X20820182Y-30147698D02*
X20829705Y-30157222D01*
X20829705Y-30157222D02*
X20839229Y-30176269D01*
X20839229Y-30176269D02*
X20839229Y-30223888D01*
X20839229Y-30223888D02*
X20829705Y-30242936D01*
X20829705Y-30242936D02*
X20820182Y-30252460D01*
X20820182Y-30252460D02*
X20801134Y-30261984D01*
X20801134Y-30261984D02*
X20753515Y-30261984D01*
X20753515Y-30261984D02*
X20734467Y-30252460D01*
X20734467Y-30252460D02*
X20724944Y-30242936D01*
X20963039Y-30061984D02*
X20982086Y-30061984D01*
X20982086Y-30061984D02*
X21001134Y-30071508D01*
X21001134Y-30071508D02*
X21010658Y-30081031D01*
X21010658Y-30081031D02*
X21020182Y-30100079D01*
X21020182Y-30100079D02*
X21029705Y-30138174D01*
X21029705Y-30138174D02*
X21029705Y-30185793D01*
X21029705Y-30185793D02*
X21020182Y-30223888D01*
X21020182Y-30223888D02*
X21010658Y-30242936D01*
X21010658Y-30242936D02*
X21001134Y-30252460D01*
X21001134Y-30252460D02*
X20982086Y-30261984D01*
X20982086Y-30261984D02*
X20963039Y-30261984D01*
X20963039Y-30261984D02*
X20943991Y-30252460D01*
X20943991Y-30252460D02*
X20934467Y-30242936D01*
X20934467Y-30242936D02*
X20924944Y-30223888D01*
X20924944Y-30223888D02*
X20915420Y-30185793D01*
X20915420Y-30185793D02*
X20915420Y-30138174D01*
X20915420Y-30138174D02*
X20924944Y-30100079D01*
X20924944Y-30100079D02*
X20934467Y-30081031D01*
X20934467Y-30081031D02*
X20943991Y-30071508D01*
X20943991Y-30071508D02*
X20963039Y-30061984D01*
X21115420Y-30261984D02*
X21115420Y-30128650D01*
X21115420Y-30147698D02*
X21124944Y-30138174D01*
X21124944Y-30138174D02*
X21143991Y-30128650D01*
X21143991Y-30128650D02*
X21172563Y-30128650D01*
X21172563Y-30128650D02*
X21191610Y-30138174D01*
X21191610Y-30138174D02*
X21201134Y-30157222D01*
X21201134Y-30157222D02*
X21201134Y-30261984D01*
X21201134Y-30157222D02*
X21210658Y-30138174D01*
X21210658Y-30138174D02*
X21229705Y-30128650D01*
X21229705Y-30128650D02*
X21258277Y-30128650D01*
X21258277Y-30128650D02*
X21277325Y-30138174D01*
X21277325Y-30138174D02*
X21286848Y-30157222D01*
X21286848Y-30157222D02*
X21286848Y-30261984D01*
X21382086Y-30261984D02*
X21382086Y-30128650D01*
X21382086Y-30147698D02*
X21391610Y-30138174D01*
X21391610Y-30138174D02*
X21410658Y-30128650D01*
X21410658Y-30128650D02*
X21439229Y-30128650D01*
X21439229Y-30128650D02*
X21458277Y-30138174D01*
X21458277Y-30138174D02*
X21467801Y-30157222D01*
X21467801Y-30157222D02*
X21467801Y-30261984D01*
X21467801Y-30157222D02*
X21477325Y-30138174D01*
X21477325Y-30138174D02*
X21496372Y-30128650D01*
X21496372Y-30128650D02*
X21524944Y-30128650D01*
X21524944Y-30128650D02*
X21543991Y-30138174D01*
X21543991Y-30138174D02*
X21553515Y-30157222D01*
X21553515Y-30157222D02*
X21553515Y-30261984D01*
X21943991Y-30052460D02*
X21772563Y-30309603D01*
X22201134Y-30061984D02*
X22220182Y-30061984D01*
X22220182Y-30061984D02*
X22239229Y-30071508D01*
X22239229Y-30071508D02*
X22248753Y-30081031D01*
X22248753Y-30081031D02*
X22258277Y-30100079D01*
X22258277Y-30100079D02*
X22267801Y-30138174D01*
X22267801Y-30138174D02*
X22267801Y-30185793D01*
X22267801Y-30185793D02*
X22258277Y-30223888D01*
X22258277Y-30223888D02*
X22248753Y-30242936D01*
X22248753Y-30242936D02*
X22239229Y-30252460D01*
X22239229Y-30252460D02*
X22220182Y-30261984D01*
X22220182Y-30261984D02*
X22201134Y-30261984D01*
X22201134Y-30261984D02*
X22182087Y-30252460D01*
X22182087Y-30252460D02*
X22172563Y-30242936D01*
X22172563Y-30242936D02*
X22163039Y-30223888D01*
X22163039Y-30223888D02*
X22153515Y-30185793D01*
X22153515Y-30185793D02*
X22153515Y-30138174D01*
X22153515Y-30138174D02*
X22163039Y-30100079D01*
X22163039Y-30100079D02*
X22172563Y-30081031D01*
X22172563Y-30081031D02*
X22182087Y-30071508D01*
X22182087Y-30071508D02*
X22201134Y-30061984D01*
X22353515Y-30242936D02*
X22363039Y-30252460D01*
X22363039Y-30252460D02*
X22353515Y-30261984D01*
X22353515Y-30261984D02*
X22343991Y-30252460D01*
X22343991Y-30252460D02*
X22353515Y-30242936D01*
X22353515Y-30242936D02*
X22353515Y-30261984D01*
X22486848Y-30061984D02*
X22505896Y-30061984D01*
X22505896Y-30061984D02*
X22524944Y-30071508D01*
X22524944Y-30071508D02*
X22534467Y-30081031D01*
X22534467Y-30081031D02*
X22543991Y-30100079D01*
X22543991Y-30100079D02*
X22553515Y-30138174D01*
X22553515Y-30138174D02*
X22553515Y-30185793D01*
X22553515Y-30185793D02*
X22543991Y-30223888D01*
X22543991Y-30223888D02*
X22534467Y-30242936D01*
X22534467Y-30242936D02*
X22524944Y-30252460D01*
X22524944Y-30252460D02*
X22505896Y-30261984D01*
X22505896Y-30261984D02*
X22486848Y-30261984D01*
X22486848Y-30261984D02*
X22467801Y-30252460D01*
X22467801Y-30252460D02*
X22458277Y-30242936D01*
X22458277Y-30242936D02*
X22448753Y-30223888D01*
X22448753Y-30223888D02*
X22439229Y-30185793D01*
X22439229Y-30185793D02*
X22439229Y-30138174D01*
X22439229Y-30138174D02*
X22448753Y-30100079D01*
X22448753Y-30100079D02*
X22458277Y-30081031D01*
X22458277Y-30081031D02*
X22467801Y-30071508D01*
X22467801Y-30071508D02*
X22486848Y-30061984D01*
X22724944Y-30061984D02*
X22686848Y-30061984D01*
X22686848Y-30061984D02*
X22667801Y-30071508D01*
X22667801Y-30071508D02*
X22658277Y-30081031D01*
X22658277Y-30081031D02*
X22639229Y-30109603D01*
X22639229Y-30109603D02*
X22629706Y-30147698D01*
X22629706Y-30147698D02*
X22629706Y-30223888D01*
X22629706Y-30223888D02*
X22639229Y-30242936D01*
X22639229Y-30242936D02*
X22648753Y-30252460D01*
X22648753Y-30252460D02*
X22667801Y-30261984D01*
X22667801Y-30261984D02*
X22705896Y-30261984D01*
X22705896Y-30261984D02*
X22724944Y-30252460D01*
X22724944Y-30252460D02*
X22734467Y-30242936D01*
X22734467Y-30242936D02*
X22743991Y-30223888D01*
X22743991Y-30223888D02*
X22743991Y-30176269D01*
X22743991Y-30176269D02*
X22734467Y-30157222D01*
X22734467Y-30157222D02*
X22724944Y-30147698D01*
X22724944Y-30147698D02*
X22705896Y-30138174D01*
X22705896Y-30138174D02*
X22667801Y-30138174D01*
X22667801Y-30138174D02*
X22648753Y-30147698D01*
X22648753Y-30147698D02*
X22639229Y-30157222D01*
X22639229Y-30157222D02*
X22629706Y-30176269D01*
X22924944Y-30061984D02*
X22829706Y-30061984D01*
X22829706Y-30061984D02*
X22820182Y-30157222D01*
X22820182Y-30157222D02*
X22829706Y-30147698D01*
X22829706Y-30147698D02*
X22848753Y-30138174D01*
X22848753Y-30138174D02*
X22896372Y-30138174D01*
X22896372Y-30138174D02*
X22915420Y-30147698D01*
X22915420Y-30147698D02*
X22924944Y-30157222D01*
X22924944Y-30157222D02*
X22934467Y-30176269D01*
X22934467Y-30176269D02*
X22934467Y-30223888D01*
X22934467Y-30223888D02*
X22924944Y-30242936D01*
X22924944Y-30242936D02*
X22915420Y-30252460D01*
X22915420Y-30252460D02*
X22896372Y-30261984D01*
X22896372Y-30261984D02*
X22848753Y-30261984D01*
X22848753Y-30261984D02*
X22829706Y-30252460D01*
X22829706Y-30252460D02*
X22820182Y-30242936D01*
X23058277Y-30061984D02*
X23077325Y-30061984D01*
X23077325Y-30061984D02*
X23096372Y-30071508D01*
X23096372Y-30071508D02*
X23105896Y-30081031D01*
X23105896Y-30081031D02*
X23115420Y-30100079D01*
X23115420Y-30100079D02*
X23124944Y-30138174D01*
X23124944Y-30138174D02*
X23124944Y-30185793D01*
X23124944Y-30185793D02*
X23115420Y-30223888D01*
X23115420Y-30223888D02*
X23105896Y-30242936D01*
X23105896Y-30242936D02*
X23096372Y-30252460D01*
X23096372Y-30252460D02*
X23077325Y-30261984D01*
X23077325Y-30261984D02*
X23058277Y-30261984D01*
X23058277Y-30261984D02*
X23039229Y-30252460D01*
X23039229Y-30252460D02*
X23029706Y-30242936D01*
X23029706Y-30242936D02*
X23020182Y-30223888D01*
X23020182Y-30223888D02*
X23010658Y-30185793D01*
X23010658Y-30185793D02*
X23010658Y-30138174D01*
X23010658Y-30138174D02*
X23020182Y-30100079D01*
X23020182Y-30100079D02*
X23029706Y-30081031D01*
X23029706Y-30081031D02*
X23039229Y-30071508D01*
X23039229Y-30071508D02*
X23058277Y-30061984D01*
X23201134Y-30061984D02*
X23201134Y-30100079D01*
X23277325Y-30061984D02*
X23277325Y-30100079D01*
X23572563Y-30338174D02*
X23563039Y-30328650D01*
X23563039Y-30328650D02*
X23543991Y-30300079D01*
X23543991Y-30300079D02*
X23534468Y-30281031D01*
X23534468Y-30281031D02*
X23524944Y-30252460D01*
X23524944Y-30252460D02*
X23515420Y-30204841D01*
X23515420Y-30204841D02*
X23515420Y-30166746D01*
X23515420Y-30166746D02*
X23524944Y-30119127D01*
X23524944Y-30119127D02*
X23534468Y-30090555D01*
X23534468Y-30090555D02*
X23543991Y-30071508D01*
X23543991Y-30071508D02*
X23563039Y-30042936D01*
X23563039Y-30042936D02*
X23572563Y-30033412D01*
X23753515Y-30261984D02*
X23639229Y-30261984D01*
X23696372Y-30261984D02*
X23696372Y-30061984D01*
X23696372Y-30061984D02*
X23677325Y-30090555D01*
X23677325Y-30090555D02*
X23658277Y-30109603D01*
X23658277Y-30109603D02*
X23639229Y-30119127D01*
X23991610Y-30261984D02*
X23991610Y-30061984D01*
X24077325Y-30261984D02*
X24077325Y-30157222D01*
X24077325Y-30157222D02*
X24067801Y-30138174D01*
X24067801Y-30138174D02*
X24048753Y-30128650D01*
X24048753Y-30128650D02*
X24020182Y-30128650D01*
X24020182Y-30128650D02*
X24001134Y-30138174D01*
X24001134Y-30138174D02*
X23991610Y-30147698D01*
X24201134Y-30261984D02*
X24182087Y-30252460D01*
X24182087Y-30252460D02*
X24172563Y-30242936D01*
X24172563Y-30242936D02*
X24163039Y-30223888D01*
X24163039Y-30223888D02*
X24163039Y-30166746D01*
X24163039Y-30166746D02*
X24172563Y-30147698D01*
X24172563Y-30147698D02*
X24182087Y-30138174D01*
X24182087Y-30138174D02*
X24201134Y-30128650D01*
X24201134Y-30128650D02*
X24229706Y-30128650D01*
X24229706Y-30128650D02*
X24248753Y-30138174D01*
X24248753Y-30138174D02*
X24258277Y-30147698D01*
X24258277Y-30147698D02*
X24267801Y-30166746D01*
X24267801Y-30166746D02*
X24267801Y-30223888D01*
X24267801Y-30223888D02*
X24258277Y-30242936D01*
X24258277Y-30242936D02*
X24248753Y-30252460D01*
X24248753Y-30252460D02*
X24229706Y-30261984D01*
X24229706Y-30261984D02*
X24201134Y-30261984D01*
X24382087Y-30261984D02*
X24363039Y-30252460D01*
X24363039Y-30252460D02*
X24353515Y-30233412D01*
X24353515Y-30233412D02*
X24353515Y-30061984D01*
X24534468Y-30252460D02*
X24515420Y-30261984D01*
X24515420Y-30261984D02*
X24477325Y-30261984D01*
X24477325Y-30261984D02*
X24458277Y-30252460D01*
X24458277Y-30252460D02*
X24448753Y-30233412D01*
X24448753Y-30233412D02*
X24448753Y-30157222D01*
X24448753Y-30157222D02*
X24458277Y-30138174D01*
X24458277Y-30138174D02*
X24477325Y-30128650D01*
X24477325Y-30128650D02*
X24515420Y-30128650D01*
X24515420Y-30128650D02*
X24534468Y-30138174D01*
X24534468Y-30138174D02*
X24543991Y-30157222D01*
X24543991Y-30157222D02*
X24543991Y-30176269D01*
X24543991Y-30176269D02*
X24448753Y-30195317D01*
X24610658Y-30338174D02*
X24620182Y-30328650D01*
X24620182Y-30328650D02*
X24639230Y-30300079D01*
X24639230Y-30300079D02*
X24648753Y-30281031D01*
X24648753Y-30281031D02*
X24658277Y-30252460D01*
X24658277Y-30252460D02*
X24667801Y-30204841D01*
X24667801Y-30204841D02*
X24667801Y-30166746D01*
X24667801Y-30166746D02*
X24658277Y-30119127D01*
X24658277Y-30119127D02*
X24648753Y-30090555D01*
X24648753Y-30090555D02*
X24639230Y-30071508D01*
X24639230Y-30071508D02*
X24620182Y-30042936D01*
X24620182Y-30042936D02*
X24610658Y-30033412D01*
X24972563Y-30338174D02*
X24963039Y-30328650D01*
X24963039Y-30328650D02*
X24943991Y-30300079D01*
X24943991Y-30300079D02*
X24934468Y-30281031D01*
X24934468Y-30281031D02*
X24924944Y-30252460D01*
X24924944Y-30252460D02*
X24915420Y-30204841D01*
X24915420Y-30204841D02*
X24915420Y-30166746D01*
X24915420Y-30166746D02*
X24924944Y-30119127D01*
X24924944Y-30119127D02*
X24934468Y-30090555D01*
X24934468Y-30090555D02*
X24943991Y-30071508D01*
X24943991Y-30071508D02*
X24963039Y-30042936D01*
X24963039Y-30042936D02*
X24972563Y-30033412D01*
X25048753Y-30128650D02*
X25048753Y-30261984D01*
X25048753Y-30147698D02*
X25058277Y-30138174D01*
X25058277Y-30138174D02*
X25077325Y-30128650D01*
X25077325Y-30128650D02*
X25105896Y-30128650D01*
X25105896Y-30128650D02*
X25124944Y-30138174D01*
X25124944Y-30138174D02*
X25134468Y-30157222D01*
X25134468Y-30157222D02*
X25134468Y-30261984D01*
X25258277Y-30261984D02*
X25239230Y-30252460D01*
X25239230Y-30252460D02*
X25229706Y-30242936D01*
X25229706Y-30242936D02*
X25220182Y-30223888D01*
X25220182Y-30223888D02*
X25220182Y-30166746D01*
X25220182Y-30166746D02*
X25229706Y-30147698D01*
X25229706Y-30147698D02*
X25239230Y-30138174D01*
X25239230Y-30138174D02*
X25258277Y-30128650D01*
X25258277Y-30128650D02*
X25286849Y-30128650D01*
X25286849Y-30128650D02*
X25305896Y-30138174D01*
X25305896Y-30138174D02*
X25315420Y-30147698D01*
X25315420Y-30147698D02*
X25324944Y-30166746D01*
X25324944Y-30166746D02*
X25324944Y-30223888D01*
X25324944Y-30223888D02*
X25315420Y-30242936D01*
X25315420Y-30242936D02*
X25305896Y-30252460D01*
X25305896Y-30252460D02*
X25286849Y-30261984D01*
X25286849Y-30261984D02*
X25258277Y-30261984D01*
X25382087Y-30128650D02*
X25458277Y-30128650D01*
X25410658Y-30061984D02*
X25410658Y-30233412D01*
X25410658Y-30233412D02*
X25420182Y-30252460D01*
X25420182Y-30252460D02*
X25439230Y-30261984D01*
X25439230Y-30261984D02*
X25458277Y-30261984D01*
X25677325Y-30128650D02*
X25677325Y-30328650D01*
X25677325Y-30138174D02*
X25696372Y-30128650D01*
X25696372Y-30128650D02*
X25734468Y-30128650D01*
X25734468Y-30128650D02*
X25753515Y-30138174D01*
X25753515Y-30138174D02*
X25763039Y-30147698D01*
X25763039Y-30147698D02*
X25772563Y-30166746D01*
X25772563Y-30166746D02*
X25772563Y-30223888D01*
X25772563Y-30223888D02*
X25763039Y-30242936D01*
X25763039Y-30242936D02*
X25753515Y-30252460D01*
X25753515Y-30252460D02*
X25734468Y-30261984D01*
X25734468Y-30261984D02*
X25696372Y-30261984D01*
X25696372Y-30261984D02*
X25677325Y-30252460D01*
X25886849Y-30261984D02*
X25867801Y-30252460D01*
X25867801Y-30252460D02*
X25858277Y-30233412D01*
X25858277Y-30233412D02*
X25858277Y-30061984D01*
X26048753Y-30261984D02*
X26048753Y-30157222D01*
X26048753Y-30157222D02*
X26039230Y-30138174D01*
X26039230Y-30138174D02*
X26020182Y-30128650D01*
X26020182Y-30128650D02*
X25982087Y-30128650D01*
X25982087Y-30128650D02*
X25963039Y-30138174D01*
X26048753Y-30252460D02*
X26029706Y-30261984D01*
X26029706Y-30261984D02*
X25982087Y-30261984D01*
X25982087Y-30261984D02*
X25963039Y-30252460D01*
X25963039Y-30252460D02*
X25953515Y-30233412D01*
X25953515Y-30233412D02*
X25953515Y-30214365D01*
X25953515Y-30214365D02*
X25963039Y-30195317D01*
X25963039Y-30195317D02*
X25982087Y-30185793D01*
X25982087Y-30185793D02*
X26029706Y-30185793D01*
X26029706Y-30185793D02*
X26048753Y-30176269D01*
X26115420Y-30128650D02*
X26191611Y-30128650D01*
X26143992Y-30061984D02*
X26143992Y-30233412D01*
X26143992Y-30233412D02*
X26153515Y-30252460D01*
X26153515Y-30252460D02*
X26172563Y-30261984D01*
X26172563Y-30261984D02*
X26191611Y-30261984D01*
X26334468Y-30252460D02*
X26315420Y-30261984D01*
X26315420Y-30261984D02*
X26277325Y-30261984D01*
X26277325Y-30261984D02*
X26258277Y-30252460D01*
X26258277Y-30252460D02*
X26248753Y-30233412D01*
X26248753Y-30233412D02*
X26248753Y-30157222D01*
X26248753Y-30157222D02*
X26258277Y-30138174D01*
X26258277Y-30138174D02*
X26277325Y-30128650D01*
X26277325Y-30128650D02*
X26315420Y-30128650D01*
X26315420Y-30128650D02*
X26334468Y-30138174D01*
X26334468Y-30138174D02*
X26343992Y-30157222D01*
X26343992Y-30157222D02*
X26343992Y-30176269D01*
X26343992Y-30176269D02*
X26248753Y-30195317D01*
X26515420Y-30261984D02*
X26515420Y-30061984D01*
X26515420Y-30252460D02*
X26496373Y-30261984D01*
X26496373Y-30261984D02*
X26458277Y-30261984D01*
X26458277Y-30261984D02*
X26439230Y-30252460D01*
X26439230Y-30252460D02*
X26429706Y-30242936D01*
X26429706Y-30242936D02*
X26420182Y-30223888D01*
X26420182Y-30223888D02*
X26420182Y-30166746D01*
X26420182Y-30166746D02*
X26429706Y-30147698D01*
X26429706Y-30147698D02*
X26439230Y-30138174D01*
X26439230Y-30138174D02*
X26458277Y-30128650D01*
X26458277Y-30128650D02*
X26496373Y-30128650D01*
X26496373Y-30128650D02*
X26515420Y-30138174D01*
X26591611Y-30338174D02*
X26601134Y-30328650D01*
X26601134Y-30328650D02*
X26620182Y-30300079D01*
X26620182Y-30300079D02*
X26629706Y-30281031D01*
X26629706Y-30281031D02*
X26639230Y-30252460D01*
X26639230Y-30252460D02*
X26648753Y-30204841D01*
X26648753Y-30204841D02*
X26648753Y-30166746D01*
X26648753Y-30166746D02*
X26639230Y-30119127D01*
X26639230Y-30119127D02*
X26629706Y-30090555D01*
X26629706Y-30090555D02*
X26620182Y-30071508D01*
X26620182Y-30071508D02*
X26601134Y-30042936D01*
X26601134Y-30042936D02*
X26591611Y-30033412D01*
X19968211Y-30526211D02*
X19968211Y-30384789D01*
X19826789Y-30384789D01*
X19826789Y-30526211D01*
X19968211Y-30526211D01*
X20248753Y-30366031D02*
X20258277Y-30356508D01*
X20258277Y-30356508D02*
X20277324Y-30346984D01*
X20277324Y-30346984D02*
X20324944Y-30346984D01*
X20324944Y-30346984D02*
X20343991Y-30356508D01*
X20343991Y-30356508D02*
X20353515Y-30366031D01*
X20353515Y-30366031D02*
X20363039Y-30385079D01*
X20363039Y-30385079D02*
X20363039Y-30404127D01*
X20363039Y-30404127D02*
X20353515Y-30432698D01*
X20353515Y-30432698D02*
X20239229Y-30546984D01*
X20239229Y-30546984D02*
X20363039Y-30546984D01*
X20448753Y-30527936D02*
X20458277Y-30537460D01*
X20458277Y-30537460D02*
X20448753Y-30546984D01*
X20448753Y-30546984D02*
X20439229Y-30537460D01*
X20439229Y-30537460D02*
X20448753Y-30527936D01*
X20448753Y-30527936D02*
X20448753Y-30546984D01*
X20524944Y-30346984D02*
X20658277Y-30346984D01*
X20658277Y-30346984D02*
X20572563Y-30546984D01*
X20772563Y-30346984D02*
X20791610Y-30346984D01*
X20791610Y-30346984D02*
X20810658Y-30356508D01*
X20810658Y-30356508D02*
X20820182Y-30366031D01*
X20820182Y-30366031D02*
X20829705Y-30385079D01*
X20829705Y-30385079D02*
X20839229Y-30423174D01*
X20839229Y-30423174D02*
X20839229Y-30470793D01*
X20839229Y-30470793D02*
X20829705Y-30508888D01*
X20829705Y-30508888D02*
X20820182Y-30527936D01*
X20820182Y-30527936D02*
X20810658Y-30537460D01*
X20810658Y-30537460D02*
X20791610Y-30546984D01*
X20791610Y-30546984D02*
X20772563Y-30546984D01*
X20772563Y-30546984D02*
X20753515Y-30537460D01*
X20753515Y-30537460D02*
X20743991Y-30527936D01*
X20743991Y-30527936D02*
X20734467Y-30508888D01*
X20734467Y-30508888D02*
X20724944Y-30470793D01*
X20724944Y-30470793D02*
X20724944Y-30423174D01*
X20724944Y-30423174D02*
X20734467Y-30385079D01*
X20734467Y-30385079D02*
X20743991Y-30366031D01*
X20743991Y-30366031D02*
X20753515Y-30356508D01*
X20753515Y-30356508D02*
X20772563Y-30346984D01*
X20963039Y-30346984D02*
X20982086Y-30346984D01*
X20982086Y-30346984D02*
X21001134Y-30356508D01*
X21001134Y-30356508D02*
X21010658Y-30366031D01*
X21010658Y-30366031D02*
X21020182Y-30385079D01*
X21020182Y-30385079D02*
X21029705Y-30423174D01*
X21029705Y-30423174D02*
X21029705Y-30470793D01*
X21029705Y-30470793D02*
X21020182Y-30508888D01*
X21020182Y-30508888D02*
X21010658Y-30527936D01*
X21010658Y-30527936D02*
X21001134Y-30537460D01*
X21001134Y-30537460D02*
X20982086Y-30546984D01*
X20982086Y-30546984D02*
X20963039Y-30546984D01*
X20963039Y-30546984D02*
X20943991Y-30537460D01*
X20943991Y-30537460D02*
X20934467Y-30527936D01*
X20934467Y-30527936D02*
X20924944Y-30508888D01*
X20924944Y-30508888D02*
X20915420Y-30470793D01*
X20915420Y-30470793D02*
X20915420Y-30423174D01*
X20915420Y-30423174D02*
X20924944Y-30385079D01*
X20924944Y-30385079D02*
X20934467Y-30366031D01*
X20934467Y-30366031D02*
X20943991Y-30356508D01*
X20943991Y-30356508D02*
X20963039Y-30346984D01*
X21115420Y-30546984D02*
X21115420Y-30413650D01*
X21115420Y-30432698D02*
X21124944Y-30423174D01*
X21124944Y-30423174D02*
X21143991Y-30413650D01*
X21143991Y-30413650D02*
X21172563Y-30413650D01*
X21172563Y-30413650D02*
X21191610Y-30423174D01*
X21191610Y-30423174D02*
X21201134Y-30442222D01*
X21201134Y-30442222D02*
X21201134Y-30546984D01*
X21201134Y-30442222D02*
X21210658Y-30423174D01*
X21210658Y-30423174D02*
X21229705Y-30413650D01*
X21229705Y-30413650D02*
X21258277Y-30413650D01*
X21258277Y-30413650D02*
X21277325Y-30423174D01*
X21277325Y-30423174D02*
X21286848Y-30442222D01*
X21286848Y-30442222D02*
X21286848Y-30546984D01*
X21382086Y-30546984D02*
X21382086Y-30413650D01*
X21382086Y-30432698D02*
X21391610Y-30423174D01*
X21391610Y-30423174D02*
X21410658Y-30413650D01*
X21410658Y-30413650D02*
X21439229Y-30413650D01*
X21439229Y-30413650D02*
X21458277Y-30423174D01*
X21458277Y-30423174D02*
X21467801Y-30442222D01*
X21467801Y-30442222D02*
X21467801Y-30546984D01*
X21467801Y-30442222D02*
X21477325Y-30423174D01*
X21477325Y-30423174D02*
X21496372Y-30413650D01*
X21496372Y-30413650D02*
X21524944Y-30413650D01*
X21524944Y-30413650D02*
X21543991Y-30423174D01*
X21543991Y-30423174D02*
X21553515Y-30442222D01*
X21553515Y-30442222D02*
X21553515Y-30546984D01*
X21943991Y-30337460D02*
X21772563Y-30594603D01*
X22201134Y-30346984D02*
X22220182Y-30346984D01*
X22220182Y-30346984D02*
X22239229Y-30356508D01*
X22239229Y-30356508D02*
X22248753Y-30366031D01*
X22248753Y-30366031D02*
X22258277Y-30385079D01*
X22258277Y-30385079D02*
X22267801Y-30423174D01*
X22267801Y-30423174D02*
X22267801Y-30470793D01*
X22267801Y-30470793D02*
X22258277Y-30508888D01*
X22258277Y-30508888D02*
X22248753Y-30527936D01*
X22248753Y-30527936D02*
X22239229Y-30537460D01*
X22239229Y-30537460D02*
X22220182Y-30546984D01*
X22220182Y-30546984D02*
X22201134Y-30546984D01*
X22201134Y-30546984D02*
X22182087Y-30537460D01*
X22182087Y-30537460D02*
X22172563Y-30527936D01*
X22172563Y-30527936D02*
X22163039Y-30508888D01*
X22163039Y-30508888D02*
X22153515Y-30470793D01*
X22153515Y-30470793D02*
X22153515Y-30423174D01*
X22153515Y-30423174D02*
X22163039Y-30385079D01*
X22163039Y-30385079D02*
X22172563Y-30366031D01*
X22172563Y-30366031D02*
X22182087Y-30356508D01*
X22182087Y-30356508D02*
X22201134Y-30346984D01*
X22353515Y-30527936D02*
X22363039Y-30537460D01*
X22363039Y-30537460D02*
X22353515Y-30546984D01*
X22353515Y-30546984D02*
X22343991Y-30537460D01*
X22343991Y-30537460D02*
X22353515Y-30527936D01*
X22353515Y-30527936D02*
X22353515Y-30546984D01*
X22553515Y-30546984D02*
X22439229Y-30546984D01*
X22496372Y-30546984D02*
X22496372Y-30346984D01*
X22496372Y-30346984D02*
X22477325Y-30375555D01*
X22477325Y-30375555D02*
X22458277Y-30394603D01*
X22458277Y-30394603D02*
X22439229Y-30404127D01*
X22677325Y-30346984D02*
X22696372Y-30346984D01*
X22696372Y-30346984D02*
X22715420Y-30356508D01*
X22715420Y-30356508D02*
X22724944Y-30366031D01*
X22724944Y-30366031D02*
X22734467Y-30385079D01*
X22734467Y-30385079D02*
X22743991Y-30423174D01*
X22743991Y-30423174D02*
X22743991Y-30470793D01*
X22743991Y-30470793D02*
X22734467Y-30508888D01*
X22734467Y-30508888D02*
X22724944Y-30527936D01*
X22724944Y-30527936D02*
X22715420Y-30537460D01*
X22715420Y-30537460D02*
X22696372Y-30546984D01*
X22696372Y-30546984D02*
X22677325Y-30546984D01*
X22677325Y-30546984D02*
X22658277Y-30537460D01*
X22658277Y-30537460D02*
X22648753Y-30527936D01*
X22648753Y-30527936D02*
X22639229Y-30508888D01*
X22639229Y-30508888D02*
X22629706Y-30470793D01*
X22629706Y-30470793D02*
X22629706Y-30423174D01*
X22629706Y-30423174D02*
X22639229Y-30385079D01*
X22639229Y-30385079D02*
X22648753Y-30366031D01*
X22648753Y-30366031D02*
X22658277Y-30356508D01*
X22658277Y-30356508D02*
X22677325Y-30346984D01*
X22915420Y-30346984D02*
X22877325Y-30346984D01*
X22877325Y-30346984D02*
X22858277Y-30356508D01*
X22858277Y-30356508D02*
X22848753Y-30366031D01*
X22848753Y-30366031D02*
X22829706Y-30394603D01*
X22829706Y-30394603D02*
X22820182Y-30432698D01*
X22820182Y-30432698D02*
X22820182Y-30508888D01*
X22820182Y-30508888D02*
X22829706Y-30527936D01*
X22829706Y-30527936D02*
X22839229Y-30537460D01*
X22839229Y-30537460D02*
X22858277Y-30546984D01*
X22858277Y-30546984D02*
X22896372Y-30546984D01*
X22896372Y-30546984D02*
X22915420Y-30537460D01*
X22915420Y-30537460D02*
X22924944Y-30527936D01*
X22924944Y-30527936D02*
X22934467Y-30508888D01*
X22934467Y-30508888D02*
X22934467Y-30461269D01*
X22934467Y-30461269D02*
X22924944Y-30442222D01*
X22924944Y-30442222D02*
X22915420Y-30432698D01*
X22915420Y-30432698D02*
X22896372Y-30423174D01*
X22896372Y-30423174D02*
X22858277Y-30423174D01*
X22858277Y-30423174D02*
X22839229Y-30432698D01*
X22839229Y-30432698D02*
X22829706Y-30442222D01*
X22829706Y-30442222D02*
X22820182Y-30461269D01*
X23001134Y-30346984D02*
X23124944Y-30346984D01*
X23124944Y-30346984D02*
X23058277Y-30423174D01*
X23058277Y-30423174D02*
X23086848Y-30423174D01*
X23086848Y-30423174D02*
X23105896Y-30432698D01*
X23105896Y-30432698D02*
X23115420Y-30442222D01*
X23115420Y-30442222D02*
X23124944Y-30461269D01*
X23124944Y-30461269D02*
X23124944Y-30508888D01*
X23124944Y-30508888D02*
X23115420Y-30527936D01*
X23115420Y-30527936D02*
X23105896Y-30537460D01*
X23105896Y-30537460D02*
X23086848Y-30546984D01*
X23086848Y-30546984D02*
X23029706Y-30546984D01*
X23029706Y-30546984D02*
X23010658Y-30537460D01*
X23010658Y-30537460D02*
X23001134Y-30527936D01*
X23201134Y-30346984D02*
X23201134Y-30385079D01*
X23277325Y-30346984D02*
X23277325Y-30385079D01*
X23572563Y-30623174D02*
X23563039Y-30613650D01*
X23563039Y-30613650D02*
X23543991Y-30585079D01*
X23543991Y-30585079D02*
X23534468Y-30566031D01*
X23534468Y-30566031D02*
X23524944Y-30537460D01*
X23524944Y-30537460D02*
X23515420Y-30489841D01*
X23515420Y-30489841D02*
X23515420Y-30451746D01*
X23515420Y-30451746D02*
X23524944Y-30404127D01*
X23524944Y-30404127D02*
X23534468Y-30375555D01*
X23534468Y-30375555D02*
X23543991Y-30356508D01*
X23543991Y-30356508D02*
X23563039Y-30327936D01*
X23563039Y-30327936D02*
X23572563Y-30318412D01*
X23734468Y-30413650D02*
X23734468Y-30546984D01*
X23686848Y-30337460D02*
X23639229Y-30480317D01*
X23639229Y-30480317D02*
X23763039Y-30480317D01*
X23991610Y-30546984D02*
X23991610Y-30346984D01*
X24077325Y-30546984D02*
X24077325Y-30442222D01*
X24077325Y-30442222D02*
X24067801Y-30423174D01*
X24067801Y-30423174D02*
X24048753Y-30413650D01*
X24048753Y-30413650D02*
X24020182Y-30413650D01*
X24020182Y-30413650D02*
X24001134Y-30423174D01*
X24001134Y-30423174D02*
X23991610Y-30432698D01*
X24201134Y-30546984D02*
X24182087Y-30537460D01*
X24182087Y-30537460D02*
X24172563Y-30527936D01*
X24172563Y-30527936D02*
X24163039Y-30508888D01*
X24163039Y-30508888D02*
X24163039Y-30451746D01*
X24163039Y-30451746D02*
X24172563Y-30432698D01*
X24172563Y-30432698D02*
X24182087Y-30423174D01*
X24182087Y-30423174D02*
X24201134Y-30413650D01*
X24201134Y-30413650D02*
X24229706Y-30413650D01*
X24229706Y-30413650D02*
X24248753Y-30423174D01*
X24248753Y-30423174D02*
X24258277Y-30432698D01*
X24258277Y-30432698D02*
X24267801Y-30451746D01*
X24267801Y-30451746D02*
X24267801Y-30508888D01*
X24267801Y-30508888D02*
X24258277Y-30527936D01*
X24258277Y-30527936D02*
X24248753Y-30537460D01*
X24248753Y-30537460D02*
X24229706Y-30546984D01*
X24229706Y-30546984D02*
X24201134Y-30546984D01*
X24382087Y-30546984D02*
X24363039Y-30537460D01*
X24363039Y-30537460D02*
X24353515Y-30518412D01*
X24353515Y-30518412D02*
X24353515Y-30346984D01*
X24534468Y-30537460D02*
X24515420Y-30546984D01*
X24515420Y-30546984D02*
X24477325Y-30546984D01*
X24477325Y-30546984D02*
X24458277Y-30537460D01*
X24458277Y-30537460D02*
X24448753Y-30518412D01*
X24448753Y-30518412D02*
X24448753Y-30442222D01*
X24448753Y-30442222D02*
X24458277Y-30423174D01*
X24458277Y-30423174D02*
X24477325Y-30413650D01*
X24477325Y-30413650D02*
X24515420Y-30413650D01*
X24515420Y-30413650D02*
X24534468Y-30423174D01*
X24534468Y-30423174D02*
X24543991Y-30442222D01*
X24543991Y-30442222D02*
X24543991Y-30461269D01*
X24543991Y-30461269D02*
X24448753Y-30480317D01*
X24620182Y-30537460D02*
X24639230Y-30546984D01*
X24639230Y-30546984D02*
X24677325Y-30546984D01*
X24677325Y-30546984D02*
X24696372Y-30537460D01*
X24696372Y-30537460D02*
X24705896Y-30518412D01*
X24705896Y-30518412D02*
X24705896Y-30508888D01*
X24705896Y-30508888D02*
X24696372Y-30489841D01*
X24696372Y-30489841D02*
X24677325Y-30480317D01*
X24677325Y-30480317D02*
X24648753Y-30480317D01*
X24648753Y-30480317D02*
X24629706Y-30470793D01*
X24629706Y-30470793D02*
X24620182Y-30451746D01*
X24620182Y-30451746D02*
X24620182Y-30442222D01*
X24620182Y-30442222D02*
X24629706Y-30423174D01*
X24629706Y-30423174D02*
X24648753Y-30413650D01*
X24648753Y-30413650D02*
X24677325Y-30413650D01*
X24677325Y-30413650D02*
X24696372Y-30423174D01*
X24772563Y-30623174D02*
X24782087Y-30613650D01*
X24782087Y-30613650D02*
X24801134Y-30585079D01*
X24801134Y-30585079D02*
X24810658Y-30566031D01*
X24810658Y-30566031D02*
X24820182Y-30537460D01*
X24820182Y-30537460D02*
X24829706Y-30489841D01*
X24829706Y-30489841D02*
X24829706Y-30451746D01*
X24829706Y-30451746D02*
X24820182Y-30404127D01*
X24820182Y-30404127D02*
X24810658Y-30375555D01*
X24810658Y-30375555D02*
X24801134Y-30356508D01*
X24801134Y-30356508D02*
X24782087Y-30327936D01*
X24782087Y-30327936D02*
X24772563Y-30318412D01*
X25134468Y-30623174D02*
X25124944Y-30613650D01*
X25124944Y-30613650D02*
X25105896Y-30585079D01*
X25105896Y-30585079D02*
X25096372Y-30566031D01*
X25096372Y-30566031D02*
X25086849Y-30537460D01*
X25086849Y-30537460D02*
X25077325Y-30489841D01*
X25077325Y-30489841D02*
X25077325Y-30451746D01*
X25077325Y-30451746D02*
X25086849Y-30404127D01*
X25086849Y-30404127D02*
X25096372Y-30375555D01*
X25096372Y-30375555D02*
X25105896Y-30356508D01*
X25105896Y-30356508D02*
X25124944Y-30327936D01*
X25124944Y-30327936D02*
X25134468Y-30318412D01*
X25210658Y-30413650D02*
X25210658Y-30546984D01*
X25210658Y-30432698D02*
X25220182Y-30423174D01*
X25220182Y-30423174D02*
X25239230Y-30413650D01*
X25239230Y-30413650D02*
X25267801Y-30413650D01*
X25267801Y-30413650D02*
X25286849Y-30423174D01*
X25286849Y-30423174D02*
X25296372Y-30442222D01*
X25296372Y-30442222D02*
X25296372Y-30546984D01*
X25420182Y-30546984D02*
X25401134Y-30537460D01*
X25401134Y-30537460D02*
X25391611Y-30527936D01*
X25391611Y-30527936D02*
X25382087Y-30508888D01*
X25382087Y-30508888D02*
X25382087Y-30451746D01*
X25382087Y-30451746D02*
X25391611Y-30432698D01*
X25391611Y-30432698D02*
X25401134Y-30423174D01*
X25401134Y-30423174D02*
X25420182Y-30413650D01*
X25420182Y-30413650D02*
X25448753Y-30413650D01*
X25448753Y-30413650D02*
X25467801Y-30423174D01*
X25467801Y-30423174D02*
X25477325Y-30432698D01*
X25477325Y-30432698D02*
X25486849Y-30451746D01*
X25486849Y-30451746D02*
X25486849Y-30508888D01*
X25486849Y-30508888D02*
X25477325Y-30527936D01*
X25477325Y-30527936D02*
X25467801Y-30537460D01*
X25467801Y-30537460D02*
X25448753Y-30546984D01*
X25448753Y-30546984D02*
X25420182Y-30546984D01*
X25543992Y-30413650D02*
X25620182Y-30413650D01*
X25572563Y-30346984D02*
X25572563Y-30518412D01*
X25572563Y-30518412D02*
X25582087Y-30537460D01*
X25582087Y-30537460D02*
X25601134Y-30546984D01*
X25601134Y-30546984D02*
X25620182Y-30546984D01*
X25839230Y-30413650D02*
X25839230Y-30613650D01*
X25839230Y-30423174D02*
X25858277Y-30413650D01*
X25858277Y-30413650D02*
X25896373Y-30413650D01*
X25896373Y-30413650D02*
X25915420Y-30423174D01*
X25915420Y-30423174D02*
X25924944Y-30432698D01*
X25924944Y-30432698D02*
X25934468Y-30451746D01*
X25934468Y-30451746D02*
X25934468Y-30508888D01*
X25934468Y-30508888D02*
X25924944Y-30527936D01*
X25924944Y-30527936D02*
X25915420Y-30537460D01*
X25915420Y-30537460D02*
X25896373Y-30546984D01*
X25896373Y-30546984D02*
X25858277Y-30546984D01*
X25858277Y-30546984D02*
X25839230Y-30537460D01*
X26048753Y-30546984D02*
X26029706Y-30537460D01*
X26029706Y-30537460D02*
X26020182Y-30518412D01*
X26020182Y-30518412D02*
X26020182Y-30346984D01*
X26210658Y-30546984D02*
X26210658Y-30442222D01*
X26210658Y-30442222D02*
X26201134Y-30423174D01*
X26201134Y-30423174D02*
X26182087Y-30413650D01*
X26182087Y-30413650D02*
X26143992Y-30413650D01*
X26143992Y-30413650D02*
X26124944Y-30423174D01*
X26210658Y-30537460D02*
X26191611Y-30546984D01*
X26191611Y-30546984D02*
X26143992Y-30546984D01*
X26143992Y-30546984D02*
X26124944Y-30537460D01*
X26124944Y-30537460D02*
X26115420Y-30518412D01*
X26115420Y-30518412D02*
X26115420Y-30499365D01*
X26115420Y-30499365D02*
X26124944Y-30480317D01*
X26124944Y-30480317D02*
X26143992Y-30470793D01*
X26143992Y-30470793D02*
X26191611Y-30470793D01*
X26191611Y-30470793D02*
X26210658Y-30461269D01*
X26277325Y-30413650D02*
X26353515Y-30413650D01*
X26305896Y-30346984D02*
X26305896Y-30518412D01*
X26305896Y-30518412D02*
X26315420Y-30537460D01*
X26315420Y-30537460D02*
X26334468Y-30546984D01*
X26334468Y-30546984D02*
X26353515Y-30546984D01*
X26496373Y-30537460D02*
X26477325Y-30546984D01*
X26477325Y-30546984D02*
X26439230Y-30546984D01*
X26439230Y-30546984D02*
X26420182Y-30537460D01*
X26420182Y-30537460D02*
X26410658Y-30518412D01*
X26410658Y-30518412D02*
X26410658Y-30442222D01*
X26410658Y-30442222D02*
X26420182Y-30423174D01*
X26420182Y-30423174D02*
X26439230Y-30413650D01*
X26439230Y-30413650D02*
X26477325Y-30413650D01*
X26477325Y-30413650D02*
X26496373Y-30423174D01*
X26496373Y-30423174D02*
X26505896Y-30442222D01*
X26505896Y-30442222D02*
X26505896Y-30461269D01*
X26505896Y-30461269D02*
X26410658Y-30480317D01*
X26677325Y-30546984D02*
X26677325Y-30346984D01*
X26677325Y-30537460D02*
X26658277Y-30546984D01*
X26658277Y-30546984D02*
X26620182Y-30546984D01*
X26620182Y-30546984D02*
X26601134Y-30537460D01*
X26601134Y-30537460D02*
X26591611Y-30527936D01*
X26591611Y-30527936D02*
X26582087Y-30508888D01*
X26582087Y-30508888D02*
X26582087Y-30451746D01*
X26582087Y-30451746D02*
X26591611Y-30432698D01*
X26591611Y-30432698D02*
X26601134Y-30423174D01*
X26601134Y-30423174D02*
X26620182Y-30413650D01*
X26620182Y-30413650D02*
X26658277Y-30413650D01*
X26658277Y-30413650D02*
X26677325Y-30423174D01*
X26753515Y-30623174D02*
X26763039Y-30613650D01*
X26763039Y-30613650D02*
X26782087Y-30585079D01*
X26782087Y-30585079D02*
X26791611Y-30566031D01*
X26791611Y-30566031D02*
X26801134Y-30537460D01*
X26801134Y-30537460D02*
X26810658Y-30489841D01*
X26810658Y-30489841D02*
X26810658Y-30451746D01*
X26810658Y-30451746D02*
X26801134Y-30404127D01*
X26801134Y-30404127D02*
X26791611Y-30375555D01*
X26791611Y-30375555D02*
X26782087Y-30356508D01*
X26782087Y-30356508D02*
X26763039Y-30327936D01*
X26763039Y-30327936D02*
X26753515Y-30318412D01*
X19897500Y-30875500D02*
X19997500Y-30775500D01*
X19897500Y-30675500D01*
X19797500Y-30775500D01*
X19897500Y-30875500D01*
X20239229Y-30666984D02*
X20363039Y-30666984D01*
X20363039Y-30666984D02*
X20296372Y-30743174D01*
X20296372Y-30743174D02*
X20324944Y-30743174D01*
X20324944Y-30743174D02*
X20343991Y-30752698D01*
X20343991Y-30752698D02*
X20353515Y-30762222D01*
X20353515Y-30762222D02*
X20363039Y-30781269D01*
X20363039Y-30781269D02*
X20363039Y-30828888D01*
X20363039Y-30828888D02*
X20353515Y-30847936D01*
X20353515Y-30847936D02*
X20343991Y-30857460D01*
X20343991Y-30857460D02*
X20324944Y-30866984D01*
X20324944Y-30866984D02*
X20267801Y-30866984D01*
X20267801Y-30866984D02*
X20248753Y-30857460D01*
X20248753Y-30857460D02*
X20239229Y-30847936D01*
X20448753Y-30847936D02*
X20458277Y-30857460D01*
X20458277Y-30857460D02*
X20448753Y-30866984D01*
X20448753Y-30866984D02*
X20439229Y-30857460D01*
X20439229Y-30857460D02*
X20448753Y-30847936D01*
X20448753Y-30847936D02*
X20448753Y-30866984D01*
X20534467Y-30686031D02*
X20543991Y-30676508D01*
X20543991Y-30676508D02*
X20563039Y-30666984D01*
X20563039Y-30666984D02*
X20610658Y-30666984D01*
X20610658Y-30666984D02*
X20629705Y-30676508D01*
X20629705Y-30676508D02*
X20639229Y-30686031D01*
X20639229Y-30686031D02*
X20648753Y-30705079D01*
X20648753Y-30705079D02*
X20648753Y-30724127D01*
X20648753Y-30724127D02*
X20639229Y-30752698D01*
X20639229Y-30752698D02*
X20524944Y-30866984D01*
X20524944Y-30866984D02*
X20648753Y-30866984D01*
X20772563Y-30666984D02*
X20791610Y-30666984D01*
X20791610Y-30666984D02*
X20810658Y-30676508D01*
X20810658Y-30676508D02*
X20820182Y-30686031D01*
X20820182Y-30686031D02*
X20829705Y-30705079D01*
X20829705Y-30705079D02*
X20839229Y-30743174D01*
X20839229Y-30743174D02*
X20839229Y-30790793D01*
X20839229Y-30790793D02*
X20829705Y-30828888D01*
X20829705Y-30828888D02*
X20820182Y-30847936D01*
X20820182Y-30847936D02*
X20810658Y-30857460D01*
X20810658Y-30857460D02*
X20791610Y-30866984D01*
X20791610Y-30866984D02*
X20772563Y-30866984D01*
X20772563Y-30866984D02*
X20753515Y-30857460D01*
X20753515Y-30857460D02*
X20743991Y-30847936D01*
X20743991Y-30847936D02*
X20734467Y-30828888D01*
X20734467Y-30828888D02*
X20724944Y-30790793D01*
X20724944Y-30790793D02*
X20724944Y-30743174D01*
X20724944Y-30743174D02*
X20734467Y-30705079D01*
X20734467Y-30705079D02*
X20743991Y-30686031D01*
X20743991Y-30686031D02*
X20753515Y-30676508D01*
X20753515Y-30676508D02*
X20772563Y-30666984D01*
X20963039Y-30666984D02*
X20982086Y-30666984D01*
X20982086Y-30666984D02*
X21001134Y-30676508D01*
X21001134Y-30676508D02*
X21010658Y-30686031D01*
X21010658Y-30686031D02*
X21020182Y-30705079D01*
X21020182Y-30705079D02*
X21029705Y-30743174D01*
X21029705Y-30743174D02*
X21029705Y-30790793D01*
X21029705Y-30790793D02*
X21020182Y-30828888D01*
X21020182Y-30828888D02*
X21010658Y-30847936D01*
X21010658Y-30847936D02*
X21001134Y-30857460D01*
X21001134Y-30857460D02*
X20982086Y-30866984D01*
X20982086Y-30866984D02*
X20963039Y-30866984D01*
X20963039Y-30866984D02*
X20943991Y-30857460D01*
X20943991Y-30857460D02*
X20934467Y-30847936D01*
X20934467Y-30847936D02*
X20924944Y-30828888D01*
X20924944Y-30828888D02*
X20915420Y-30790793D01*
X20915420Y-30790793D02*
X20915420Y-30743174D01*
X20915420Y-30743174D02*
X20924944Y-30705079D01*
X20924944Y-30705079D02*
X20934467Y-30686031D01*
X20934467Y-30686031D02*
X20943991Y-30676508D01*
X20943991Y-30676508D02*
X20963039Y-30666984D01*
X21115420Y-30866984D02*
X21115420Y-30733650D01*
X21115420Y-30752698D02*
X21124944Y-30743174D01*
X21124944Y-30743174D02*
X21143991Y-30733650D01*
X21143991Y-30733650D02*
X21172563Y-30733650D01*
X21172563Y-30733650D02*
X21191610Y-30743174D01*
X21191610Y-30743174D02*
X21201134Y-30762222D01*
X21201134Y-30762222D02*
X21201134Y-30866984D01*
X21201134Y-30762222D02*
X21210658Y-30743174D01*
X21210658Y-30743174D02*
X21229705Y-30733650D01*
X21229705Y-30733650D02*
X21258277Y-30733650D01*
X21258277Y-30733650D02*
X21277325Y-30743174D01*
X21277325Y-30743174D02*
X21286848Y-30762222D01*
X21286848Y-30762222D02*
X21286848Y-30866984D01*
X21382086Y-30866984D02*
X21382086Y-30733650D01*
X21382086Y-30752698D02*
X21391610Y-30743174D01*
X21391610Y-30743174D02*
X21410658Y-30733650D01*
X21410658Y-30733650D02*
X21439229Y-30733650D01*
X21439229Y-30733650D02*
X21458277Y-30743174D01*
X21458277Y-30743174D02*
X21467801Y-30762222D01*
X21467801Y-30762222D02*
X21467801Y-30866984D01*
X21467801Y-30762222D02*
X21477325Y-30743174D01*
X21477325Y-30743174D02*
X21496372Y-30733650D01*
X21496372Y-30733650D02*
X21524944Y-30733650D01*
X21524944Y-30733650D02*
X21543991Y-30743174D01*
X21543991Y-30743174D02*
X21553515Y-30762222D01*
X21553515Y-30762222D02*
X21553515Y-30866984D01*
X21943991Y-30657460D02*
X21772563Y-30914603D01*
X22201134Y-30666984D02*
X22220182Y-30666984D01*
X22220182Y-30666984D02*
X22239229Y-30676508D01*
X22239229Y-30676508D02*
X22248753Y-30686031D01*
X22248753Y-30686031D02*
X22258277Y-30705079D01*
X22258277Y-30705079D02*
X22267801Y-30743174D01*
X22267801Y-30743174D02*
X22267801Y-30790793D01*
X22267801Y-30790793D02*
X22258277Y-30828888D01*
X22258277Y-30828888D02*
X22248753Y-30847936D01*
X22248753Y-30847936D02*
X22239229Y-30857460D01*
X22239229Y-30857460D02*
X22220182Y-30866984D01*
X22220182Y-30866984D02*
X22201134Y-30866984D01*
X22201134Y-30866984D02*
X22182087Y-30857460D01*
X22182087Y-30857460D02*
X22172563Y-30847936D01*
X22172563Y-30847936D02*
X22163039Y-30828888D01*
X22163039Y-30828888D02*
X22153515Y-30790793D01*
X22153515Y-30790793D02*
X22153515Y-30743174D01*
X22153515Y-30743174D02*
X22163039Y-30705079D01*
X22163039Y-30705079D02*
X22172563Y-30686031D01*
X22172563Y-30686031D02*
X22182087Y-30676508D01*
X22182087Y-30676508D02*
X22201134Y-30666984D01*
X22353515Y-30847936D02*
X22363039Y-30857460D01*
X22363039Y-30857460D02*
X22353515Y-30866984D01*
X22353515Y-30866984D02*
X22343991Y-30857460D01*
X22343991Y-30857460D02*
X22353515Y-30847936D01*
X22353515Y-30847936D02*
X22353515Y-30866984D01*
X22553515Y-30866984D02*
X22439229Y-30866984D01*
X22496372Y-30866984D02*
X22496372Y-30666984D01*
X22496372Y-30666984D02*
X22477325Y-30695555D01*
X22477325Y-30695555D02*
X22458277Y-30714603D01*
X22458277Y-30714603D02*
X22439229Y-30724127D01*
X22629706Y-30686031D02*
X22639229Y-30676508D01*
X22639229Y-30676508D02*
X22658277Y-30666984D01*
X22658277Y-30666984D02*
X22705896Y-30666984D01*
X22705896Y-30666984D02*
X22724944Y-30676508D01*
X22724944Y-30676508D02*
X22734467Y-30686031D01*
X22734467Y-30686031D02*
X22743991Y-30705079D01*
X22743991Y-30705079D02*
X22743991Y-30724127D01*
X22743991Y-30724127D02*
X22734467Y-30752698D01*
X22734467Y-30752698D02*
X22620182Y-30866984D01*
X22620182Y-30866984D02*
X22743991Y-30866984D01*
X22915420Y-30666984D02*
X22877325Y-30666984D01*
X22877325Y-30666984D02*
X22858277Y-30676508D01*
X22858277Y-30676508D02*
X22848753Y-30686031D01*
X22848753Y-30686031D02*
X22829706Y-30714603D01*
X22829706Y-30714603D02*
X22820182Y-30752698D01*
X22820182Y-30752698D02*
X22820182Y-30828888D01*
X22820182Y-30828888D02*
X22829706Y-30847936D01*
X22829706Y-30847936D02*
X22839229Y-30857460D01*
X22839229Y-30857460D02*
X22858277Y-30866984D01*
X22858277Y-30866984D02*
X22896372Y-30866984D01*
X22896372Y-30866984D02*
X22915420Y-30857460D01*
X22915420Y-30857460D02*
X22924944Y-30847936D01*
X22924944Y-30847936D02*
X22934467Y-30828888D01*
X22934467Y-30828888D02*
X22934467Y-30781269D01*
X22934467Y-30781269D02*
X22924944Y-30762222D01*
X22924944Y-30762222D02*
X22915420Y-30752698D01*
X22915420Y-30752698D02*
X22896372Y-30743174D01*
X22896372Y-30743174D02*
X22858277Y-30743174D01*
X22858277Y-30743174D02*
X22839229Y-30752698D01*
X22839229Y-30752698D02*
X22829706Y-30762222D01*
X22829706Y-30762222D02*
X22820182Y-30781269D01*
X23058277Y-30666984D02*
X23077325Y-30666984D01*
X23077325Y-30666984D02*
X23096372Y-30676508D01*
X23096372Y-30676508D02*
X23105896Y-30686031D01*
X23105896Y-30686031D02*
X23115420Y-30705079D01*
X23115420Y-30705079D02*
X23124944Y-30743174D01*
X23124944Y-30743174D02*
X23124944Y-30790793D01*
X23124944Y-30790793D02*
X23115420Y-30828888D01*
X23115420Y-30828888D02*
X23105896Y-30847936D01*
X23105896Y-30847936D02*
X23096372Y-30857460D01*
X23096372Y-30857460D02*
X23077325Y-30866984D01*
X23077325Y-30866984D02*
X23058277Y-30866984D01*
X23058277Y-30866984D02*
X23039229Y-30857460D01*
X23039229Y-30857460D02*
X23029706Y-30847936D01*
X23029706Y-30847936D02*
X23020182Y-30828888D01*
X23020182Y-30828888D02*
X23010658Y-30790793D01*
X23010658Y-30790793D02*
X23010658Y-30743174D01*
X23010658Y-30743174D02*
X23020182Y-30705079D01*
X23020182Y-30705079D02*
X23029706Y-30686031D01*
X23029706Y-30686031D02*
X23039229Y-30676508D01*
X23039229Y-30676508D02*
X23058277Y-30666984D01*
X23201134Y-30666984D02*
X23201134Y-30705079D01*
X23277325Y-30666984D02*
X23277325Y-30705079D01*
X23572563Y-30943174D02*
X23563039Y-30933650D01*
X23563039Y-30933650D02*
X23543991Y-30905079D01*
X23543991Y-30905079D02*
X23534468Y-30886031D01*
X23534468Y-30886031D02*
X23524944Y-30857460D01*
X23524944Y-30857460D02*
X23515420Y-30809841D01*
X23515420Y-30809841D02*
X23515420Y-30771746D01*
X23515420Y-30771746D02*
X23524944Y-30724127D01*
X23524944Y-30724127D02*
X23534468Y-30695555D01*
X23534468Y-30695555D02*
X23543991Y-30676508D01*
X23543991Y-30676508D02*
X23563039Y-30647936D01*
X23563039Y-30647936D02*
X23572563Y-30638412D01*
X23639229Y-30686031D02*
X23648753Y-30676508D01*
X23648753Y-30676508D02*
X23667801Y-30666984D01*
X23667801Y-30666984D02*
X23715420Y-30666984D01*
X23715420Y-30666984D02*
X23734468Y-30676508D01*
X23734468Y-30676508D02*
X23743991Y-30686031D01*
X23743991Y-30686031D02*
X23753515Y-30705079D01*
X23753515Y-30705079D02*
X23753515Y-30724127D01*
X23753515Y-30724127D02*
X23743991Y-30752698D01*
X23743991Y-30752698D02*
X23629706Y-30866984D01*
X23629706Y-30866984D02*
X23753515Y-30866984D01*
X23991610Y-30866984D02*
X23991610Y-30666984D01*
X24077325Y-30866984D02*
X24077325Y-30762222D01*
X24077325Y-30762222D02*
X24067801Y-30743174D01*
X24067801Y-30743174D02*
X24048753Y-30733650D01*
X24048753Y-30733650D02*
X24020182Y-30733650D01*
X24020182Y-30733650D02*
X24001134Y-30743174D01*
X24001134Y-30743174D02*
X23991610Y-30752698D01*
X24201134Y-30866984D02*
X24182087Y-30857460D01*
X24182087Y-30857460D02*
X24172563Y-30847936D01*
X24172563Y-30847936D02*
X24163039Y-30828888D01*
X24163039Y-30828888D02*
X24163039Y-30771746D01*
X24163039Y-30771746D02*
X24172563Y-30752698D01*
X24172563Y-30752698D02*
X24182087Y-30743174D01*
X24182087Y-30743174D02*
X24201134Y-30733650D01*
X24201134Y-30733650D02*
X24229706Y-30733650D01*
X24229706Y-30733650D02*
X24248753Y-30743174D01*
X24248753Y-30743174D02*
X24258277Y-30752698D01*
X24258277Y-30752698D02*
X24267801Y-30771746D01*
X24267801Y-30771746D02*
X24267801Y-30828888D01*
X24267801Y-30828888D02*
X24258277Y-30847936D01*
X24258277Y-30847936D02*
X24248753Y-30857460D01*
X24248753Y-30857460D02*
X24229706Y-30866984D01*
X24229706Y-30866984D02*
X24201134Y-30866984D01*
X24382087Y-30866984D02*
X24363039Y-30857460D01*
X24363039Y-30857460D02*
X24353515Y-30838412D01*
X24353515Y-30838412D02*
X24353515Y-30666984D01*
X24534468Y-30857460D02*
X24515420Y-30866984D01*
X24515420Y-30866984D02*
X24477325Y-30866984D01*
X24477325Y-30866984D02*
X24458277Y-30857460D01*
X24458277Y-30857460D02*
X24448753Y-30838412D01*
X24448753Y-30838412D02*
X24448753Y-30762222D01*
X24448753Y-30762222D02*
X24458277Y-30743174D01*
X24458277Y-30743174D02*
X24477325Y-30733650D01*
X24477325Y-30733650D02*
X24515420Y-30733650D01*
X24515420Y-30733650D02*
X24534468Y-30743174D01*
X24534468Y-30743174D02*
X24543991Y-30762222D01*
X24543991Y-30762222D02*
X24543991Y-30781269D01*
X24543991Y-30781269D02*
X24448753Y-30800317D01*
X24620182Y-30857460D02*
X24639230Y-30866984D01*
X24639230Y-30866984D02*
X24677325Y-30866984D01*
X24677325Y-30866984D02*
X24696372Y-30857460D01*
X24696372Y-30857460D02*
X24705896Y-30838412D01*
X24705896Y-30838412D02*
X24705896Y-30828888D01*
X24705896Y-30828888D02*
X24696372Y-30809841D01*
X24696372Y-30809841D02*
X24677325Y-30800317D01*
X24677325Y-30800317D02*
X24648753Y-30800317D01*
X24648753Y-30800317D02*
X24629706Y-30790793D01*
X24629706Y-30790793D02*
X24620182Y-30771746D01*
X24620182Y-30771746D02*
X24620182Y-30762222D01*
X24620182Y-30762222D02*
X24629706Y-30743174D01*
X24629706Y-30743174D02*
X24648753Y-30733650D01*
X24648753Y-30733650D02*
X24677325Y-30733650D01*
X24677325Y-30733650D02*
X24696372Y-30743174D01*
X24772563Y-30943174D02*
X24782087Y-30933650D01*
X24782087Y-30933650D02*
X24801134Y-30905079D01*
X24801134Y-30905079D02*
X24810658Y-30886031D01*
X24810658Y-30886031D02*
X24820182Y-30857460D01*
X24820182Y-30857460D02*
X24829706Y-30809841D01*
X24829706Y-30809841D02*
X24829706Y-30771746D01*
X24829706Y-30771746D02*
X24820182Y-30724127D01*
X24820182Y-30724127D02*
X24810658Y-30695555D01*
X24810658Y-30695555D02*
X24801134Y-30676508D01*
X24801134Y-30676508D02*
X24782087Y-30647936D01*
X24782087Y-30647936D02*
X24772563Y-30638412D01*
X25134468Y-30943174D02*
X25124944Y-30933650D01*
X25124944Y-30933650D02*
X25105896Y-30905079D01*
X25105896Y-30905079D02*
X25096372Y-30886031D01*
X25096372Y-30886031D02*
X25086849Y-30857460D01*
X25086849Y-30857460D02*
X25077325Y-30809841D01*
X25077325Y-30809841D02*
X25077325Y-30771746D01*
X25077325Y-30771746D02*
X25086849Y-30724127D01*
X25086849Y-30724127D02*
X25096372Y-30695555D01*
X25096372Y-30695555D02*
X25105896Y-30676508D01*
X25105896Y-30676508D02*
X25124944Y-30647936D01*
X25124944Y-30647936D02*
X25134468Y-30638412D01*
X25210658Y-30733650D02*
X25210658Y-30866984D01*
X25210658Y-30752698D02*
X25220182Y-30743174D01*
X25220182Y-30743174D02*
X25239230Y-30733650D01*
X25239230Y-30733650D02*
X25267801Y-30733650D01*
X25267801Y-30733650D02*
X25286849Y-30743174D01*
X25286849Y-30743174D02*
X25296372Y-30762222D01*
X25296372Y-30762222D02*
X25296372Y-30866984D01*
X25420182Y-30866984D02*
X25401134Y-30857460D01*
X25401134Y-30857460D02*
X25391611Y-30847936D01*
X25391611Y-30847936D02*
X25382087Y-30828888D01*
X25382087Y-30828888D02*
X25382087Y-30771746D01*
X25382087Y-30771746D02*
X25391611Y-30752698D01*
X25391611Y-30752698D02*
X25401134Y-30743174D01*
X25401134Y-30743174D02*
X25420182Y-30733650D01*
X25420182Y-30733650D02*
X25448753Y-30733650D01*
X25448753Y-30733650D02*
X25467801Y-30743174D01*
X25467801Y-30743174D02*
X25477325Y-30752698D01*
X25477325Y-30752698D02*
X25486849Y-30771746D01*
X25486849Y-30771746D02*
X25486849Y-30828888D01*
X25486849Y-30828888D02*
X25477325Y-30847936D01*
X25477325Y-30847936D02*
X25467801Y-30857460D01*
X25467801Y-30857460D02*
X25448753Y-30866984D01*
X25448753Y-30866984D02*
X25420182Y-30866984D01*
X25543992Y-30733650D02*
X25620182Y-30733650D01*
X25572563Y-30666984D02*
X25572563Y-30838412D01*
X25572563Y-30838412D02*
X25582087Y-30857460D01*
X25582087Y-30857460D02*
X25601134Y-30866984D01*
X25601134Y-30866984D02*
X25620182Y-30866984D01*
X25839230Y-30733650D02*
X25839230Y-30933650D01*
X25839230Y-30743174D02*
X25858277Y-30733650D01*
X25858277Y-30733650D02*
X25896373Y-30733650D01*
X25896373Y-30733650D02*
X25915420Y-30743174D01*
X25915420Y-30743174D02*
X25924944Y-30752698D01*
X25924944Y-30752698D02*
X25934468Y-30771746D01*
X25934468Y-30771746D02*
X25934468Y-30828888D01*
X25934468Y-30828888D02*
X25924944Y-30847936D01*
X25924944Y-30847936D02*
X25915420Y-30857460D01*
X25915420Y-30857460D02*
X25896373Y-30866984D01*
X25896373Y-30866984D02*
X25858277Y-30866984D01*
X25858277Y-30866984D02*
X25839230Y-30857460D01*
X26048753Y-30866984D02*
X26029706Y-30857460D01*
X26029706Y-30857460D02*
X26020182Y-30838412D01*
X26020182Y-30838412D02*
X26020182Y-30666984D01*
X26210658Y-30866984D02*
X26210658Y-30762222D01*
X26210658Y-30762222D02*
X26201134Y-30743174D01*
X26201134Y-30743174D02*
X26182087Y-30733650D01*
X26182087Y-30733650D02*
X26143992Y-30733650D01*
X26143992Y-30733650D02*
X26124944Y-30743174D01*
X26210658Y-30857460D02*
X26191611Y-30866984D01*
X26191611Y-30866984D02*
X26143992Y-30866984D01*
X26143992Y-30866984D02*
X26124944Y-30857460D01*
X26124944Y-30857460D02*
X26115420Y-30838412D01*
X26115420Y-30838412D02*
X26115420Y-30819365D01*
X26115420Y-30819365D02*
X26124944Y-30800317D01*
X26124944Y-30800317D02*
X26143992Y-30790793D01*
X26143992Y-30790793D02*
X26191611Y-30790793D01*
X26191611Y-30790793D02*
X26210658Y-30781269D01*
X26277325Y-30733650D02*
X26353515Y-30733650D01*
X26305896Y-30666984D02*
X26305896Y-30838412D01*
X26305896Y-30838412D02*
X26315420Y-30857460D01*
X26315420Y-30857460D02*
X26334468Y-30866984D01*
X26334468Y-30866984D02*
X26353515Y-30866984D01*
X26496373Y-30857460D02*
X26477325Y-30866984D01*
X26477325Y-30866984D02*
X26439230Y-30866984D01*
X26439230Y-30866984D02*
X26420182Y-30857460D01*
X26420182Y-30857460D02*
X26410658Y-30838412D01*
X26410658Y-30838412D02*
X26410658Y-30762222D01*
X26410658Y-30762222D02*
X26420182Y-30743174D01*
X26420182Y-30743174D02*
X26439230Y-30733650D01*
X26439230Y-30733650D02*
X26477325Y-30733650D01*
X26477325Y-30733650D02*
X26496373Y-30743174D01*
X26496373Y-30743174D02*
X26505896Y-30762222D01*
X26505896Y-30762222D02*
X26505896Y-30781269D01*
X26505896Y-30781269D02*
X26410658Y-30800317D01*
X26677325Y-30866984D02*
X26677325Y-30666984D01*
X26677325Y-30857460D02*
X26658277Y-30866984D01*
X26658277Y-30866984D02*
X26620182Y-30866984D01*
X26620182Y-30866984D02*
X26601134Y-30857460D01*
X26601134Y-30857460D02*
X26591611Y-30847936D01*
X26591611Y-30847936D02*
X26582087Y-30828888D01*
X26582087Y-30828888D02*
X26582087Y-30771746D01*
X26582087Y-30771746D02*
X26591611Y-30752698D01*
X26591611Y-30752698D02*
X26601134Y-30743174D01*
X26601134Y-30743174D02*
X26620182Y-30733650D01*
X26620182Y-30733650D02*
X26658277Y-30733650D01*
X26658277Y-30733650D02*
X26677325Y-30743174D01*
X26753515Y-30943174D02*
X26763039Y-30933650D01*
X26763039Y-30933650D02*
X26782087Y-30905079D01*
X26782087Y-30905079D02*
X26791611Y-30886031D01*
X26791611Y-30886031D02*
X26801134Y-30857460D01*
X26801134Y-30857460D02*
X26810658Y-30809841D01*
X26810658Y-30809841D02*
X26810658Y-30771746D01*
X26810658Y-30771746D02*
X26801134Y-30724127D01*
X26801134Y-30724127D02*
X26791611Y-30695555D01*
X26791611Y-30695555D02*
X26782087Y-30676508D01*
X26782087Y-30676508D02*
X26763039Y-30647936D01*
X26763039Y-30647936D02*
X26753515Y-30638412D01*
M02*
