M48
; DRILL file {KiCad 9.0.2} date 2025-07-13T19:06:54+0200
; FORMAT={-:-/ absolute / inch / decimal}
; #@! TF.CreationDate,2025-07-13T19:06:54+02:00
; #@! TF.GenerationSoftware,Kicad,Pcbnew,9.0.2
; #@! TF.FileFunction,Plated,1,6,PTH
FMAT,2
INCH
; #@! TA.AperFunction,Plated,PTH,ComponentDrill
T1C0.0000
; #@! TA.AperFunction,Plated,PTH,ComponentDrill
T2C0.0079
; #@! TA.AperFunction,Plated,PTH,ComponentDrill
T3C0.0236
; #@! TA.AperFunction,Plated,PTH,ComponentDrill
T4C0.0276
; #@! TA.AperFunction,Plated,PTH,ComponentDrill
T5C0.0295
; #@! TA.AperFunction,Plated,PTH,ComponentDrill
T6C0.0354
; #@! TA.AperFunction,Plated,PTH,ComponentDrill
T7C0.0390
; #@! TA.AperFunction,Plated,PTH,ComponentDrill
T8C0.0394
; #@! TA.AperFunction,Plated,PTH,ComponentDrill
T9C0.0402
; #@! TA.AperFunction,Plated,PTH,ComponentDrill
T10C0.0512
; #@! TA.AperFunction,Plated,PTH,ComponentDrill
T11C0.0669
; #@! TA.AperFunction,Plated,PTH,ComponentDrill
T12C0.0906
; #@! TA.AperFunction,Plated,PTH,ComponentDrill
T13C0.1457
; #@! TA.AperFunction,Plated,PTH,ComponentDrill
T14C0.1772
%
G90
G05
T1
X5.044Y-5.9443
X7.1563Y-7.1955
T2
X8.687Y-9.2657
X8.687Y-9.3169
X8.687Y-9.6909
X8.687Y-9.7421
X8.7382Y-9.2657
X8.7382Y-9.3169
X8.7382Y-9.6909
X8.7382Y-9.7421
X8.7894Y-9.2657
X8.7894Y-9.3169
X8.7894Y-9.6909
X8.7894Y-9.7421
X8.8406Y-9.2657
X8.8406Y-9.3169
X8.8406Y-9.6909
X8.8406Y-9.7421
X8.9783Y-9.2539
X8.9783Y-9.3051
X8.9783Y-9.687
X8.9783Y-9.7382
X9.0295Y-9.2539
X9.0295Y-9.3051
X9.0295Y-9.687
X9.0295Y-9.7382
X9.0807Y-9.2539
X9.0807Y-9.3051
X9.0807Y-9.687
X9.0807Y-9.7382
X9.1319Y-9.2539
X9.1319Y-9.3051
X9.1319Y-9.687
X9.1319Y-9.7382
X10.311Y-8.9055
X10.311Y-8.9528
X10.3583Y-8.9055
X10.3583Y-8.9528
X11.0604Y-7.7024
X11.0604Y-7.7614
X11.09Y-7.6728
X11.09Y-7.7319
X11.09Y-7.7909
X11.1195Y-7.7024
X11.1195Y-7.7614
X11.149Y-7.6728
X11.149Y-7.7319
X11.149Y-7.7909
X11.1785Y-7.7024
X11.1785Y-7.7614
X11.2776Y-10.1713
X11.2776Y-10.2224
X11.3209Y-10.1713
X11.3209Y-10.2224
X12.0098Y-10.7618
X12.0098Y-10.813
X12.061Y-10.7618
X12.061Y-10.813
X12.1122Y-10.7618
X12.1122Y-10.813
X12.1634Y-10.7618
X12.1634Y-10.813
T4
X10.0157Y-10.8154
X10.0157Y-10.9413
X10.0354Y-10.8744
X10.0354Y-11.0004
X10.0945Y-10.8134
X10.0945Y-10.9394
X10.1339Y-10.8744
X10.1339Y-11.0004
X10.1732Y-10.8154
X10.1732Y-10.9413
X10.2126Y-10.8744
X10.2126Y-11.0004
X10.252Y-10.8154
X10.252Y-10.9413
X10.311Y-10.8744
X10.311Y-11.0004
X10.3307Y-10.8154
X10.3307Y-10.9413
T5
X10.3563Y-9.8465
X10.3563Y-9.9252
X10.3563Y-10.0039
X10.3563Y-10.0827
X10.3622Y-9.5394
X10.3622Y-9.6181
X11.2402Y-9.1969
X11.2402Y-9.4508
X11.2559Y-9.6693
X11.3189Y-9.1969
X11.3189Y-9.4508
X11.3346Y-9.6693
X11.5433Y-9.1555
X11.5433Y-9.4134
X11.5433Y-9.6713
X11.5433Y-9.9291
X11.5433Y-10.187
X11.5433Y-10.4449
X11.622Y-9.1555
X11.622Y-9.4134
X11.622Y-9.6713
X11.622Y-9.9291
X11.622Y-10.187
X11.622Y-10.4449
X11.6969Y-8.9154
X11.7008Y-8.1319
X11.7008Y-8.3917
X11.7008Y-8.6476
X11.7756Y-8.9154
X11.7795Y-8.1319
X11.7795Y-8.3917
X11.7795Y-8.6476
X11.8425Y-9.6713
X11.8425Y-9.9291
X11.8425Y-10.187
X11.8425Y-10.4449
X11.8465Y-9.4134
X11.8504Y-9.1673
X11.8543Y-8.9154
X11.8583Y-8.1319
X11.8583Y-8.3917
X11.8583Y-8.6476
X11.9213Y-9.6713
X11.9213Y-9.9291
X11.9213Y-10.187
X11.9213Y-10.4449
X11.9252Y-9.4134
X11.9291Y-9.1673
X11.9331Y-8.9154
X11.937Y-8.1319
X11.937Y-8.3917
X11.937Y-8.6476
X12.0Y-9.6713
X12.0Y-9.9291
X12.0Y-10.187
X12.0Y-10.4449
X12.0039Y-9.4134
X12.0079Y-9.1673
X12.0118Y-8.9154
X12.0157Y-8.1319
X12.0157Y-8.3917
X12.0157Y-8.6476
X12.0827Y-9.4134
X12.0866Y-9.1673
X12.0906Y-8.9154
X12.0945Y-8.1319
X12.0945Y-8.3917
X12.0945Y-8.6476
X12.2362Y-9.6811
X12.2362Y-9.939
X12.2362Y-10.1969
X12.2362Y-10.4547
X12.315Y-9.6811
X12.315Y-9.939
X12.315Y-10.1969
X12.315Y-10.4547
X12.3583Y-7.624
X12.3937Y-9.6811
X12.3937Y-9.939
X12.3937Y-10.1969
X12.3937Y-10.4547
X12.437Y-7.624
X12.4724Y-9.6811
X12.4724Y-9.939
X12.4724Y-10.1969
X12.4724Y-10.4547
X12.5157Y-7.624
X12.5945Y-7.624
X12.6732Y-7.624
X12.7008Y-9.6831
X12.7008Y-9.9429
X12.7008Y-10.2008
X12.7008Y-10.4587
X12.752Y-7.624
X12.7795Y-9.6831
X12.7795Y-9.9429
X12.7795Y-10.2008
X12.7795Y-10.4587
X12.8583Y-9.6831
X12.8583Y-9.9429
X12.8583Y-10.2008
X12.8583Y-10.4587
X12.937Y-9.6831
X12.937Y-9.9429
X12.937Y-10.2008
X12.937Y-10.4587
X13.0787Y-7.628
X13.1575Y-7.628
X13.1654Y-9.687
X13.1654Y-9.9449
X13.1654Y-10.2028
X13.1654Y-10.4606
X13.2362Y-7.628
X13.2441Y-9.687
X13.2441Y-9.9449
X13.2441Y-10.2028
X13.2441Y-10.4606
X13.315Y-7.628
X13.3228Y-9.687
X13.3228Y-9.9449
X13.3228Y-10.2028
X13.3228Y-10.4606
X13.3937Y-7.628
X13.4016Y-9.687
X13.4016Y-9.9449
X13.4016Y-10.2028
X13.4016Y-10.4606
X13.4724Y-7.628
X13.6142Y-9.689
X13.6142Y-9.9469
X13.6142Y-10.2047
X13.6142Y-10.4626
X13.6929Y-9.689
X13.6929Y-9.9469
X13.6929Y-10.2047
X13.6929Y-10.4626
X13.7539Y-8.8543
X13.7539Y-8.9331
X13.7539Y-9.0118
X13.7539Y-9.0906
X13.7539Y-9.1693
X13.7539Y-9.248
X13.7618Y-7.9685
X13.7618Y-8.0472
X13.7618Y-8.126
X13.7618Y-8.2047
X13.7618Y-8.2835
X13.7618Y-8.3622
X13.7717Y-9.689
X13.7717Y-9.9469
X13.7717Y-10.2047
X13.7717Y-10.4626
X13.8504Y-9.689
X13.8504Y-9.9469
X13.8504Y-10.2047
X13.8504Y-10.4626
T6
X10.6691Y-10.6673
X10.6691Y-10.8665
X10.7191Y-10.7673
X10.7691Y-10.6673
X10.7691Y-10.9165
X10.8191Y-10.7673
X10.8691Y-10.6673
X10.9191Y-10.7673
X10.9691Y-10.6673
X11.0191Y-10.7673
X11.0191Y-10.9165
X11.0691Y-10.6673
X11.1191Y-10.7673
X11.1191Y-10.8665
T7
X8.0083Y-8.2861
X8.0083Y-8.4633
T8
X9.9734Y-8.7431
X9.9734Y-8.8431
X9.9734Y-8.9431
X9.9734Y-9.0431
X9.9734Y-9.1431
X9.9734Y-9.2431
X9.9734Y-9.3431
X9.9734Y-9.4431
X9.9734Y-9.5431
X9.9734Y-9.6431
X9.9734Y-9.7431
X9.9734Y-9.8431
X9.9734Y-9.9431
X9.9734Y-10.0431
X9.9734Y-10.1431
X9.9734Y-10.2431
X9.9734Y-10.3431
X9.9734Y-10.4431
X9.9734Y-10.5431
X9.9734Y-10.6431
X10.0734Y-8.7431
X10.0734Y-8.8431
X10.0734Y-8.9431
X10.0734Y-9.0431
X10.0734Y-9.1431
X10.0734Y-9.2431
X10.0734Y-9.3431
X10.0734Y-9.4431
X10.0734Y-9.5431
X10.0734Y-9.6431
X10.0734Y-9.7431
X10.0734Y-9.8431
X10.0734Y-9.9431
X10.0734Y-10.0431
X10.0734Y-10.1431
X10.0734Y-10.2431
X10.0734Y-10.3431
X10.0734Y-10.4431
X10.0734Y-10.5431
X10.0734Y-10.6431
X10.3278Y-8.5482
X10.3278Y-8.6482
X10.4278Y-8.5482
X10.4278Y-8.6482
X10.9459Y-8.6886
X10.9459Y-8.7886
X10.9459Y-8.8886
X10.9459Y-8.9886
X10.9459Y-9.0886
X10.9459Y-9.1886
X10.9459Y-9.2886
X10.9459Y-9.3886
X10.9459Y-9.4886
X10.9459Y-9.5886
X10.9459Y-9.6886
X10.9459Y-9.7886
X10.9459Y-9.8886
X10.9459Y-9.9886
X11.0459Y-8.6886
X11.0459Y-8.7886
X11.0459Y-8.8886
X11.0459Y-8.9886
X11.0459Y-9.0886
X11.0459Y-9.1886
X11.0459Y-9.2886
X11.0459Y-9.3886
X11.0459Y-9.4886
X11.0459Y-9.5886
X11.0459Y-9.6886
X11.0459Y-9.7886
X11.0459Y-9.8886
X11.0459Y-9.9886
X11.2411Y-10.4183
X11.2411Y-10.5183
X11.3411Y-10.4183
X11.3411Y-10.5183
X11.4764Y-10.8023
X11.4764Y-10.9054
X11.5748Y-10.8023
X11.5748Y-10.9054
X11.6535Y-10.8023
X11.6535Y-10.9054
X11.752Y-10.8023
X11.752Y-10.9054
X12.3029Y-8.7265
X12.3029Y-8.8265
X12.3029Y-8.9265
X12.3029Y-9.0265
X12.3029Y-9.1265
X12.3029Y-9.2265
X12.3029Y-9.3265
X12.3029Y-9.4265
X12.3031Y-7.817
X12.3031Y-7.917
X12.3031Y-8.017
X12.3031Y-8.117
X12.3031Y-8.217
X12.3031Y-8.317
X12.3031Y-8.417
X12.3031Y-8.517
X12.3031Y-10.7766
X12.3031Y-10.8766
X12.4839Y-10.7766
X12.4839Y-10.8766
X12.6029Y-9.4265
X12.6031Y-8.517
X12.6646Y-10.7766
X12.6646Y-10.8766
X12.7029Y-9.4265
X12.7031Y-8.517
X12.8029Y-8.7265
X12.8029Y-8.8265
X12.8029Y-8.9265
X12.8029Y-9.0265
X12.8029Y-9.1265
X12.8029Y-9.2265
X12.8029Y-9.3265
X12.8029Y-9.4265
X12.8031Y-7.817
X12.8031Y-7.917
X12.8031Y-8.017
X12.8031Y-8.117
X12.8031Y-8.217
X12.8031Y-8.317
X12.8031Y-8.417
X12.8031Y-8.517
X13.0177Y-7.8134
X13.0177Y-7.9134
X13.0177Y-8.0134
X13.0177Y-8.1134
X13.0177Y-8.2134
X13.0177Y-8.3134
X13.0177Y-8.4134
X13.0177Y-8.5134
X13.0217Y-8.7268
X13.0217Y-8.8268
X13.0217Y-8.9268
X13.0217Y-9.0268
X13.0217Y-9.1268
X13.0217Y-9.2268
X13.0217Y-9.3268
X13.0217Y-9.4268
X13.3177Y-8.5134
X13.3217Y-9.4268
X13.4177Y-8.5134
X13.4217Y-9.4268
X13.5177Y-7.8134
X13.5177Y-7.9134
X13.5177Y-8.0134
X13.5177Y-8.1134
X13.5177Y-8.2134
X13.5177Y-8.3134
X13.5177Y-8.4134
X13.5177Y-8.5134
X13.5217Y-8.7268
X13.5217Y-8.8268
X13.5217Y-8.9268
X13.5217Y-9.0268
X13.5217Y-9.1268
X13.5217Y-9.2268
X13.5217Y-9.3268
X13.5217Y-9.4268
T9
X10.6331Y-11.1772
X10.7331Y-11.1772
X11.0551Y-11.1772
X11.1551Y-11.1772
T10
X8.1063Y-8.2369
X8.1063Y-8.5129
T11
X10.5841Y-10.8972
X11.2041Y-10.8972
T12
X9.9146Y-10.8555
X9.9146Y-11.0791
X10.4319Y-10.8555
X10.4319Y-11.0791
X11.3555Y-10.7885
X11.3555Y-11.0121
X11.8728Y-10.7885
X11.8728Y-11.0121
T13
X9.6958Y-8.0866
X10.1682Y-8.0866
T14
X13.4685Y-10.8307
X13.752Y-10.8307
T3
G00X12.1087Y-11.1921
M15
G01X12.1087Y-11.1488
M16
G05
G00X12.1087Y-11.3504
M15
G01X12.1087Y-11.3189
M16
G05
G00X12.4488Y-11.1921
M15
G01X12.4488Y-11.1488
M16
G05
G00X12.4488Y-11.3504
M15
G01X12.4488Y-11.3189
M16
G05
G00X12.589Y-11.1921
M15
G01X12.589Y-11.1488
M16
G05
G00X12.589Y-11.3504
M15
G01X12.589Y-11.3189
M16
G05
G00X12.9291Y-11.1921
M15
G01X12.9291Y-11.1488
M16
G05
G00X12.9291Y-11.3504
M15
G01X12.9291Y-11.3189
M16
G05
G00X13.0661Y-11.1947
M15
G01X13.0661Y-11.1514
M16
G05
G00X13.0661Y-11.353
M15
G01X13.0661Y-11.3215
M16
G05
G00X13.4063Y-11.1947
M15
G01X13.4063Y-11.1514
M16
G05
G00X13.4063Y-11.353
M15
G01X13.4063Y-11.3215
M16
G05
T6
G00X8.378Y-11.0016
M15
G01X8.378Y-11.0724
M16
G05
G00X8.378Y-11.2559
M15
G01X8.378Y-11.2874
M16
G05
G00X8.9488Y-11.0016
M15
G01X8.9488Y-11.0724
M16
G05
G00X8.9488Y-11.2559
M15
G01X8.9488Y-11.2874
M16
G05
G00X9.1417Y-11.0054
M15
G01X9.1417Y-11.0763
M16
G05
G00X9.1417Y-11.2597
M15
G01X9.1417Y-11.2912
M16
G05
G00X9.7126Y-11.0054
M15
G01X9.7126Y-11.0763
M16
G05
G00X9.7126Y-11.2597
M15
G01X9.7126Y-11.2912
M16
G05
M30
