%TF.GenerationSoftware,KiCad,Pcbnew,9.0.2*%
%TF.CreationDate,2025-07-13T19:06:43+02:00*%
%TF.ProjectId,CM5IO,434d3549-4f2e-46b6-9963-61645f706362,rev?*%
%TF.SameCoordinates,Original*%
%TF.FileFunction,Soldermask,Top*%
%TF.FilePolarity,Negative*%
%FSLAX46Y46*%
G04 Gerber Fmt 4.6, Leading zero omitted, Abs format (unit mm)*
G04 Created by KiCad (PCBNEW 9.0.2) date 2025-07-13 19:06:43*
%MOMM*%
%LPD*%
G01*
G04 APERTURE LIST*
G04 Aperture macros list*
%AMRoundRect*
0 Rectangle with rounded corners*
0 $1 Rounding radius*
0 $2 $3 $4 $5 $6 $7 $8 $9 X,Y pos of 4 corners*
0 Add a 4 corners polygon primitive as box body*
4,1,4,$2,$3,$4,$5,$6,$7,$8,$9,$2,$3,0*
0 Add four circle primitives for the rounded corners*
1,1,$1+$1,$2,$3*
1,1,$1+$1,$4,$5*
1,1,$1+$1,$6,$7*
1,1,$1+$1,$8,$9*
0 Add four rect primitives between the rounded corners*
20,1,$1+$1,$2,$3,$4,$5,0*
20,1,$1+$1,$4,$5,$6,$7,0*
20,1,$1+$1,$6,$7,$8,$9,0*
20,1,$1+$1,$8,$9,$2,$3,0*%
%AMFreePoly0*
4,1,21,3.715000,2.450000,2.615000,2.450000,2.615000,1.550000,3.715000,1.550000,3.715000,0.450000,2.615000,0.450000,2.615000,-0.450000,3.715000,-0.450000,3.715000,-1.550000,2.615000,-1.550000,2.615000,-2.450000,3.715000,-2.450000,3.715000,-3.550000,2.615000,-3.550000,2.615000,-3.450000,-2.615000,-3.450000,-2.615000,3.450000,2.615000,3.450000,2.615000,3.550000,3.715000,3.550000,
3.715000,2.450000,3.715000,2.450000,$1*%
%AMFreePoly1*
4,1,14,0.240000,-2.550000,-0.240000,-2.550000,-0.890000,-2.550000,-0.890000,-1.450000,-0.240000,-1.450000,-0.240000,-0.550000,-0.890000,-0.550000,-0.890000,0.550000,-0.240000,0.550000,-0.240000,1.450000,-0.890000,1.450000,-0.890000,2.550000,0.240000,2.550000,0.240000,-2.550000,0.240000,-2.550000,$1*%
G04 Aperture macros list end*
%ADD10C,0.100000*%
%ADD11C,0.150000*%
%ADD12C,0.300000*%
%ADD13C,0.400000*%
%ADD14RoundRect,0.518813X-1.210562X1.214935X-1.210562X-1.214935X1.210562X-1.214935X1.210562X1.214935X0*%
%ADD15RoundRect,0.485250X-1.132250X1.299750X-1.132250X-1.299750X1.132250X-1.299750X1.132250X1.299750X0*%
%ADD16R,2.200000X1.800000*%
%ADD17R,1.300000X0.300000*%
%ADD18C,1.100000*%
%ADD19C,3.100000*%
%ADD20O,1.500000X2.300000*%
%ADD21O,1.500000X3.300000*%
%ADD22R,0.300000X2.600000*%
%ADD23C,1.700000*%
%ADD24R,1.700000X1.700000*%
%ADD25O,1.200000X1.750000*%
%ADD26RoundRect,0.250000X-0.350000X-0.625000X0.350000X-0.625000X0.350000X0.625000X-0.350000X0.625000X0*%
%ADD27RoundRect,0.250000X0.475000X-0.250000X0.475000X0.250000X-0.475000X0.250000X-0.475000X-0.250000X0*%
%ADD28RoundRect,0.250000X0.625000X-0.375000X0.625000X0.375000X-0.625000X0.375000X-0.625000X-0.375000X0*%
%ADD29RoundRect,0.250000X-0.625000X0.375000X-0.625000X-0.375000X0.625000X-0.375000X0.625000X0.375000X0*%
%ADD30RoundRect,0.250000X0.450000X-0.262500X0.450000X0.262500X-0.450000X0.262500X-0.450000X-0.262500X0*%
%ADD31RoundRect,0.250000X-0.450000X0.262500X-0.450000X-0.262500X0.450000X-0.262500X0.450000X0.262500X0*%
%ADD32RoundRect,0.250000X0.625000X-0.350000X0.625000X0.350000X-0.625000X0.350000X-0.625000X-0.350000X0*%
%ADD33O,1.750000X1.200000*%
%ADD34RoundRect,0.190000X-0.610000X-0.190000X0.610000X-0.190000X0.610000X0.190000X-0.610000X0.190000X0*%
%ADD35RoundRect,0.100000X0.225000X0.100000X-0.225000X0.100000X-0.225000X-0.100000X0.225000X-0.100000X0*%
%ADD36RoundRect,0.075000X0.075000X0.200000X-0.075000X0.200000X-0.075000X-0.200000X0.075000X-0.200000X0*%
%ADD37RoundRect,0.250000X-0.250000X-0.475000X0.250000X-0.475000X0.250000X0.475000X-0.250000X0.475000X0*%
%ADD38C,1.712000*%
%ADD39RoundRect,0.102000X-0.754000X-0.754000X0.754000X-0.754000X0.754000X0.754000X-0.754000X0.754000X0*%
%ADD40RoundRect,0.250000X-0.375000X-0.625000X0.375000X-0.625000X0.375000X0.625000X-0.375000X0.625000X0*%
%ADD41RoundRect,0.250000X1.045000X-0.785000X1.045000X0.785000X-1.045000X0.785000X-1.045000X-0.785000X0*%
%ADD42RoundRect,0.250000X0.785000X1.045000X-0.785000X1.045000X-0.785000X-1.045000X0.785000X-1.045000X0*%
%ADD43RoundRect,0.250000X0.312500X0.625000X-0.312500X0.625000X-0.312500X-0.625000X0.312500X-0.625000X0*%
%ADD44RoundRect,0.250000X-0.312500X-0.625000X0.312500X-0.625000X0.312500X0.625000X-0.312500X0.625000X0*%
%ADD45RoundRect,0.250000X0.350000X0.625000X-0.350000X0.625000X-0.350000X-0.625000X0.350000X-0.625000X0*%
%ADD46RoundRect,0.150000X-0.150000X0.587500X-0.150000X-0.587500X0.150000X-0.587500X0.150000X0.587500X0*%
%ADD47C,1.500000*%
%ADD48C,3.450000*%
%ADD49C,6.000000*%
%ADD50RoundRect,1.500000X1.500000X1.500000X-1.500000X1.500000X-1.500000X-1.500000X1.500000X-1.500000X0*%
%ADD51RoundRect,0.250000X-0.362500X-1.425000X0.362500X-1.425000X0.362500X1.425000X-0.362500X1.425000X0*%
%ADD52RoundRect,0.250000X-0.262500X-0.450000X0.262500X-0.450000X0.262500X0.450000X-0.262500X0.450000X0*%
%ADD53RoundRect,0.250000X0.262500X0.450000X-0.262500X0.450000X-0.262500X-0.450000X0.262500X-0.450000X0*%
%ADD54RoundRect,0.075000X-0.075000X0.650000X-0.075000X-0.650000X0.075000X-0.650000X0.075000X0.650000X0*%
%ADD55RoundRect,0.250000X0.450000X0.350000X-0.450000X0.350000X-0.450000X-0.350000X0.450000X-0.350000X0*%
%ADD56C,2.000000*%
%ADD57C,4.000000*%
%ADD58RoundRect,0.250000X0.250000X0.475000X-0.250000X0.475000X-0.250000X-0.475000X0.250000X-0.475000X0*%
%ADD59RoundRect,0.250000X-0.475000X0.250000X-0.475000X-0.250000X0.475000X-0.250000X0.475000X0.250000X0*%
%ADD60RoundRect,0.250000X0.375000X0.625000X-0.375000X0.625000X-0.375000X-0.625000X0.375000X-0.625000X0*%
%ADD61R,1.500000X0.900000*%
%ADD62R,0.900000X1.500000*%
%ADD63R,1.000000X1.000000*%
%ADD64C,0.600000*%
%ADD65RoundRect,0.250000X1.000000X-1.500000X1.000000X1.500000X-1.000000X1.500000X-1.000000X-1.500000X0*%
%ADD66RoundRect,0.062500X-0.350000X-0.062500X0.350000X-0.062500X0.350000X0.062500X-0.350000X0.062500X0*%
%ADD67RoundRect,0.062500X-0.062500X-0.350000X0.062500X-0.350000X0.062500X0.350000X-0.062500X0.350000X0*%
%ADD68C,2.100000*%
%ADD69C,1.750000*%
%ADD70FreePoly0,0.000000*%
%ADD71FreePoly1,0.000000*%
%ADD72RoundRect,0.275000X-0.290000X-0.275000X0.290000X-0.275000X0.290000X0.275000X-0.290000X0.275000X0*%
%ADD73R,0.700000X0.200000*%
%ADD74C,6.100000*%
%ADD75R,0.600000X1.160000*%
%ADD76R,0.300000X1.160000*%
%ADD77O,0.900000X2.000000*%
%ADD78O,0.900000X1.700000*%
%ADD79RoundRect,0.102000X1.375000X-0.600000X1.375000X0.600000X-1.375000X0.600000X-1.375000X-0.600000X0*%
%ADD80C,6.200000*%
%ADD81RoundRect,0.102000X0.775000X-0.150000X0.775000X0.150000X-0.775000X0.150000X-0.775000X-0.150000X0*%
%ADD82C,1.650000*%
%ADD83C,1.150000*%
%ADD84C,3.200000*%
%ADD85RoundRect,0.250500X-0.499500X-0.499500X0.499500X-0.499500X0.499500X0.499500X-0.499500X0.499500X0*%
%ADD86C,2.500000*%
G04 APERTURE END LIST*
D10*
D11*
X474004400Y-375989000D02*
X582004400Y-375989000D01*
X582004400Y-407989000D01*
X474004400Y-407989000D01*
X474004400Y-375989000D01*
D10*
D11*
X10000000Y-10000000D02*
X584004400Y-10000000D01*
X584004400Y-409989000D01*
X10000000Y-409989000D01*
X10000000Y-10000000D01*
D10*
D11*
X12000000Y-12000000D02*
X582004400Y-12000000D01*
X582004400Y-407989000D01*
X12000000Y-407989000D01*
X12000000Y-12000000D01*
D10*
D11*
X60000000Y-12000000D02*
X60000000Y-10000000D01*
D10*
D11*
X110000000Y-12000000D02*
X110000000Y-10000000D01*
D10*
D11*
X160000000Y-12000000D02*
X160000000Y-10000000D01*
D10*
D11*
X210000000Y-12000000D02*
X210000000Y-10000000D01*
D10*
D11*
X260000000Y-12000000D02*
X260000000Y-10000000D01*
D10*
D11*
X310000000Y-12000000D02*
X310000000Y-10000000D01*
D10*
D11*
X360000000Y-12000000D02*
X360000000Y-10000000D01*
D10*
D11*
X410000000Y-12000000D02*
X410000000Y-10000000D01*
D10*
D11*
X460000000Y-12000000D02*
X460000000Y-10000000D01*
D10*
D11*
X510000000Y-12000000D02*
X510000000Y-10000000D01*
D10*
D11*
X560000000Y-12000000D02*
X560000000Y-10000000D01*
D10*
D11*
X36089160Y-11593604D02*
X35346303Y-11593604D01*
X35717731Y-11593604D02*
X35717731Y-10293604D01*
X35717731Y-10293604D02*
X35593922Y-10479319D01*
X35593922Y-10479319D02*
X35470112Y-10603128D01*
X35470112Y-10603128D02*
X35346303Y-10665033D01*
D10*
D11*
X85346303Y-10417414D02*
X85408207Y-10355509D01*
X85408207Y-10355509D02*
X85532017Y-10293604D01*
X85532017Y-10293604D02*
X85841541Y-10293604D01*
X85841541Y-10293604D02*
X85965350Y-10355509D01*
X85965350Y-10355509D02*
X86027255Y-10417414D01*
X86027255Y-10417414D02*
X86089160Y-10541223D01*
X86089160Y-10541223D02*
X86089160Y-10665033D01*
X86089160Y-10665033D02*
X86027255Y-10850747D01*
X86027255Y-10850747D02*
X85284398Y-11593604D01*
X85284398Y-11593604D02*
X86089160Y-11593604D01*
D10*
D11*
X135284398Y-10293604D02*
X136089160Y-10293604D01*
X136089160Y-10293604D02*
X135655826Y-10788842D01*
X135655826Y-10788842D02*
X135841541Y-10788842D01*
X135841541Y-10788842D02*
X135965350Y-10850747D01*
X135965350Y-10850747D02*
X136027255Y-10912652D01*
X136027255Y-10912652D02*
X136089160Y-11036461D01*
X136089160Y-11036461D02*
X136089160Y-11345985D01*
X136089160Y-11345985D02*
X136027255Y-11469795D01*
X136027255Y-11469795D02*
X135965350Y-11531700D01*
X135965350Y-11531700D02*
X135841541Y-11593604D01*
X135841541Y-11593604D02*
X135470112Y-11593604D01*
X135470112Y-11593604D02*
X135346303Y-11531700D01*
X135346303Y-11531700D02*
X135284398Y-11469795D01*
D10*
D11*
X185965350Y-10726938D02*
X185965350Y-11593604D01*
X185655826Y-10231700D02*
X185346303Y-11160271D01*
X185346303Y-11160271D02*
X186151064Y-11160271D01*
D10*
D11*
X236027255Y-10293604D02*
X235408207Y-10293604D01*
X235408207Y-10293604D02*
X235346303Y-10912652D01*
X235346303Y-10912652D02*
X235408207Y-10850747D01*
X235408207Y-10850747D02*
X235532017Y-10788842D01*
X235532017Y-10788842D02*
X235841541Y-10788842D01*
X235841541Y-10788842D02*
X235965350Y-10850747D01*
X235965350Y-10850747D02*
X236027255Y-10912652D01*
X236027255Y-10912652D02*
X236089160Y-11036461D01*
X236089160Y-11036461D02*
X236089160Y-11345985D01*
X236089160Y-11345985D02*
X236027255Y-11469795D01*
X236027255Y-11469795D02*
X235965350Y-11531700D01*
X235965350Y-11531700D02*
X235841541Y-11593604D01*
X235841541Y-11593604D02*
X235532017Y-11593604D01*
X235532017Y-11593604D02*
X235408207Y-11531700D01*
X235408207Y-11531700D02*
X235346303Y-11469795D01*
D10*
D11*
X285965350Y-10293604D02*
X285717731Y-10293604D01*
X285717731Y-10293604D02*
X285593922Y-10355509D01*
X285593922Y-10355509D02*
X285532017Y-10417414D01*
X285532017Y-10417414D02*
X285408207Y-10603128D01*
X285408207Y-10603128D02*
X285346303Y-10850747D01*
X285346303Y-10850747D02*
X285346303Y-11345985D01*
X285346303Y-11345985D02*
X285408207Y-11469795D01*
X285408207Y-11469795D02*
X285470112Y-11531700D01*
X285470112Y-11531700D02*
X285593922Y-11593604D01*
X285593922Y-11593604D02*
X285841541Y-11593604D01*
X285841541Y-11593604D02*
X285965350Y-11531700D01*
X285965350Y-11531700D02*
X286027255Y-11469795D01*
X286027255Y-11469795D02*
X286089160Y-11345985D01*
X286089160Y-11345985D02*
X286089160Y-11036461D01*
X286089160Y-11036461D02*
X286027255Y-10912652D01*
X286027255Y-10912652D02*
X285965350Y-10850747D01*
X285965350Y-10850747D02*
X285841541Y-10788842D01*
X285841541Y-10788842D02*
X285593922Y-10788842D01*
X285593922Y-10788842D02*
X285470112Y-10850747D01*
X285470112Y-10850747D02*
X285408207Y-10912652D01*
X285408207Y-10912652D02*
X285346303Y-11036461D01*
D10*
D11*
X335284398Y-10293604D02*
X336151064Y-10293604D01*
X336151064Y-10293604D02*
X335593922Y-11593604D01*
D10*
D11*
X385593922Y-10850747D02*
X385470112Y-10788842D01*
X385470112Y-10788842D02*
X385408207Y-10726938D01*
X385408207Y-10726938D02*
X385346303Y-10603128D01*
X385346303Y-10603128D02*
X385346303Y-10541223D01*
X385346303Y-10541223D02*
X385408207Y-10417414D01*
X385408207Y-10417414D02*
X385470112Y-10355509D01*
X385470112Y-10355509D02*
X385593922Y-10293604D01*
X385593922Y-10293604D02*
X385841541Y-10293604D01*
X385841541Y-10293604D02*
X385965350Y-10355509D01*
X385965350Y-10355509D02*
X386027255Y-10417414D01*
X386027255Y-10417414D02*
X386089160Y-10541223D01*
X386089160Y-10541223D02*
X386089160Y-10603128D01*
X386089160Y-10603128D02*
X386027255Y-10726938D01*
X386027255Y-10726938D02*
X385965350Y-10788842D01*
X385965350Y-10788842D02*
X385841541Y-10850747D01*
X385841541Y-10850747D02*
X385593922Y-10850747D01*
X385593922Y-10850747D02*
X385470112Y-10912652D01*
X385470112Y-10912652D02*
X385408207Y-10974557D01*
X385408207Y-10974557D02*
X385346303Y-11098366D01*
X385346303Y-11098366D02*
X385346303Y-11345985D01*
X385346303Y-11345985D02*
X385408207Y-11469795D01*
X385408207Y-11469795D02*
X385470112Y-11531700D01*
X385470112Y-11531700D02*
X385593922Y-11593604D01*
X385593922Y-11593604D02*
X385841541Y-11593604D01*
X385841541Y-11593604D02*
X385965350Y-11531700D01*
X385965350Y-11531700D02*
X386027255Y-11469795D01*
X386027255Y-11469795D02*
X386089160Y-11345985D01*
X386089160Y-11345985D02*
X386089160Y-11098366D01*
X386089160Y-11098366D02*
X386027255Y-10974557D01*
X386027255Y-10974557D02*
X385965350Y-10912652D01*
X385965350Y-10912652D02*
X385841541Y-10850747D01*
D10*
D11*
X435470112Y-11593604D02*
X435717731Y-11593604D01*
X435717731Y-11593604D02*
X435841541Y-11531700D01*
X435841541Y-11531700D02*
X435903445Y-11469795D01*
X435903445Y-11469795D02*
X436027255Y-11284080D01*
X436027255Y-11284080D02*
X436089160Y-11036461D01*
X436089160Y-11036461D02*
X436089160Y-10541223D01*
X436089160Y-10541223D02*
X436027255Y-10417414D01*
X436027255Y-10417414D02*
X435965350Y-10355509D01*
X435965350Y-10355509D02*
X435841541Y-10293604D01*
X435841541Y-10293604D02*
X435593922Y-10293604D01*
X435593922Y-10293604D02*
X435470112Y-10355509D01*
X435470112Y-10355509D02*
X435408207Y-10417414D01*
X435408207Y-10417414D02*
X435346303Y-10541223D01*
X435346303Y-10541223D02*
X435346303Y-10850747D01*
X435346303Y-10850747D02*
X435408207Y-10974557D01*
X435408207Y-10974557D02*
X435470112Y-11036461D01*
X435470112Y-11036461D02*
X435593922Y-11098366D01*
X435593922Y-11098366D02*
X435841541Y-11098366D01*
X435841541Y-11098366D02*
X435965350Y-11036461D01*
X435965350Y-11036461D02*
X436027255Y-10974557D01*
X436027255Y-10974557D02*
X436089160Y-10850747D01*
D10*
D11*
X486089160Y-11593604D02*
X485346303Y-11593604D01*
X485717731Y-11593604D02*
X485717731Y-10293604D01*
X485717731Y-10293604D02*
X485593922Y-10479319D01*
X485593922Y-10479319D02*
X485470112Y-10603128D01*
X485470112Y-10603128D02*
X485346303Y-10665033D01*
X486893921Y-10293604D02*
X487017731Y-10293604D01*
X487017731Y-10293604D02*
X487141540Y-10355509D01*
X487141540Y-10355509D02*
X487203445Y-10417414D01*
X487203445Y-10417414D02*
X487265350Y-10541223D01*
X487265350Y-10541223D02*
X487327255Y-10788842D01*
X487327255Y-10788842D02*
X487327255Y-11098366D01*
X487327255Y-11098366D02*
X487265350Y-11345985D01*
X487265350Y-11345985D02*
X487203445Y-11469795D01*
X487203445Y-11469795D02*
X487141540Y-11531700D01*
X487141540Y-11531700D02*
X487017731Y-11593604D01*
X487017731Y-11593604D02*
X486893921Y-11593604D01*
X486893921Y-11593604D02*
X486770112Y-11531700D01*
X486770112Y-11531700D02*
X486708207Y-11469795D01*
X486708207Y-11469795D02*
X486646302Y-11345985D01*
X486646302Y-11345985D02*
X486584398Y-11098366D01*
X486584398Y-11098366D02*
X486584398Y-10788842D01*
X486584398Y-10788842D02*
X486646302Y-10541223D01*
X486646302Y-10541223D02*
X486708207Y-10417414D01*
X486708207Y-10417414D02*
X486770112Y-10355509D01*
X486770112Y-10355509D02*
X486893921Y-10293604D01*
D10*
D11*
X536089160Y-11593604D02*
X535346303Y-11593604D01*
X535717731Y-11593604D02*
X535717731Y-10293604D01*
X535717731Y-10293604D02*
X535593922Y-10479319D01*
X535593922Y-10479319D02*
X535470112Y-10603128D01*
X535470112Y-10603128D02*
X535346303Y-10665033D01*
X537327255Y-11593604D02*
X536584398Y-11593604D01*
X536955826Y-11593604D02*
X536955826Y-10293604D01*
X536955826Y-10293604D02*
X536832017Y-10479319D01*
X536832017Y-10479319D02*
X536708207Y-10603128D01*
X536708207Y-10603128D02*
X536584398Y-10665033D01*
D10*
D11*
X60000000Y-407989000D02*
X60000000Y-409989000D01*
D10*
D11*
X110000000Y-407989000D02*
X110000000Y-409989000D01*
D10*
D11*
X160000000Y-407989000D02*
X160000000Y-409989000D01*
D10*
D11*
X210000000Y-407989000D02*
X210000000Y-409989000D01*
D10*
D11*
X260000000Y-407989000D02*
X260000000Y-409989000D01*
D10*
D11*
X310000000Y-407989000D02*
X310000000Y-409989000D01*
D10*
D11*
X360000000Y-407989000D02*
X360000000Y-409989000D01*
D10*
D11*
X410000000Y-407989000D02*
X410000000Y-409989000D01*
D10*
D11*
X460000000Y-407989000D02*
X460000000Y-409989000D01*
D10*
D11*
X510000000Y-407989000D02*
X510000000Y-409989000D01*
D10*
D11*
X560000000Y-407989000D02*
X560000000Y-409989000D01*
D10*
D11*
X36089160Y-409582604D02*
X35346303Y-409582604D01*
X35717731Y-409582604D02*
X35717731Y-408282604D01*
X35717731Y-408282604D02*
X35593922Y-408468319D01*
X35593922Y-408468319D02*
X35470112Y-408592128D01*
X35470112Y-408592128D02*
X35346303Y-408654033D01*
D10*
D11*
X85346303Y-408406414D02*
X85408207Y-408344509D01*
X85408207Y-408344509D02*
X85532017Y-408282604D01*
X85532017Y-408282604D02*
X85841541Y-408282604D01*
X85841541Y-408282604D02*
X85965350Y-408344509D01*
X85965350Y-408344509D02*
X86027255Y-408406414D01*
X86027255Y-408406414D02*
X86089160Y-408530223D01*
X86089160Y-408530223D02*
X86089160Y-408654033D01*
X86089160Y-408654033D02*
X86027255Y-408839747D01*
X86027255Y-408839747D02*
X85284398Y-409582604D01*
X85284398Y-409582604D02*
X86089160Y-409582604D01*
D10*
D11*
X135284398Y-408282604D02*
X136089160Y-408282604D01*
X136089160Y-408282604D02*
X135655826Y-408777842D01*
X135655826Y-408777842D02*
X135841541Y-408777842D01*
X135841541Y-408777842D02*
X135965350Y-408839747D01*
X135965350Y-408839747D02*
X136027255Y-408901652D01*
X136027255Y-408901652D02*
X136089160Y-409025461D01*
X136089160Y-409025461D02*
X136089160Y-409334985D01*
X136089160Y-409334985D02*
X136027255Y-409458795D01*
X136027255Y-409458795D02*
X135965350Y-409520700D01*
X135965350Y-409520700D02*
X135841541Y-409582604D01*
X135841541Y-409582604D02*
X135470112Y-409582604D01*
X135470112Y-409582604D02*
X135346303Y-409520700D01*
X135346303Y-409520700D02*
X135284398Y-409458795D01*
D10*
D11*
X185965350Y-408715938D02*
X185965350Y-409582604D01*
X185655826Y-408220700D02*
X185346303Y-409149271D01*
X185346303Y-409149271D02*
X186151064Y-409149271D01*
D10*
D11*
X236027255Y-408282604D02*
X235408207Y-408282604D01*
X235408207Y-408282604D02*
X235346303Y-408901652D01*
X235346303Y-408901652D02*
X235408207Y-408839747D01*
X235408207Y-408839747D02*
X235532017Y-408777842D01*
X235532017Y-408777842D02*
X235841541Y-408777842D01*
X235841541Y-408777842D02*
X235965350Y-408839747D01*
X235965350Y-408839747D02*
X236027255Y-408901652D01*
X236027255Y-408901652D02*
X236089160Y-409025461D01*
X236089160Y-409025461D02*
X236089160Y-409334985D01*
X236089160Y-409334985D02*
X236027255Y-409458795D01*
X236027255Y-409458795D02*
X235965350Y-409520700D01*
X235965350Y-409520700D02*
X235841541Y-409582604D01*
X235841541Y-409582604D02*
X235532017Y-409582604D01*
X235532017Y-409582604D02*
X235408207Y-409520700D01*
X235408207Y-409520700D02*
X235346303Y-409458795D01*
D10*
D11*
X285965350Y-408282604D02*
X285717731Y-408282604D01*
X285717731Y-408282604D02*
X285593922Y-408344509D01*
X285593922Y-408344509D02*
X285532017Y-408406414D01*
X285532017Y-408406414D02*
X285408207Y-408592128D01*
X285408207Y-408592128D02*
X285346303Y-408839747D01*
X285346303Y-408839747D02*
X285346303Y-409334985D01*
X285346303Y-409334985D02*
X285408207Y-409458795D01*
X285408207Y-409458795D02*
X285470112Y-409520700D01*
X285470112Y-409520700D02*
X285593922Y-409582604D01*
X285593922Y-409582604D02*
X285841541Y-409582604D01*
X285841541Y-409582604D02*
X285965350Y-409520700D01*
X285965350Y-409520700D02*
X286027255Y-409458795D01*
X286027255Y-409458795D02*
X286089160Y-409334985D01*
X286089160Y-409334985D02*
X286089160Y-409025461D01*
X286089160Y-409025461D02*
X286027255Y-408901652D01*
X286027255Y-408901652D02*
X285965350Y-408839747D01*
X285965350Y-408839747D02*
X285841541Y-408777842D01*
X285841541Y-408777842D02*
X285593922Y-408777842D01*
X285593922Y-408777842D02*
X285470112Y-408839747D01*
X285470112Y-408839747D02*
X285408207Y-408901652D01*
X285408207Y-408901652D02*
X285346303Y-409025461D01*
D10*
D11*
X335284398Y-408282604D02*
X336151064Y-408282604D01*
X336151064Y-408282604D02*
X335593922Y-409582604D01*
D10*
D11*
X385593922Y-408839747D02*
X385470112Y-408777842D01*
X385470112Y-408777842D02*
X385408207Y-408715938D01*
X385408207Y-408715938D02*
X385346303Y-408592128D01*
X385346303Y-408592128D02*
X385346303Y-408530223D01*
X385346303Y-408530223D02*
X385408207Y-408406414D01*
X385408207Y-408406414D02*
X385470112Y-408344509D01*
X385470112Y-408344509D02*
X385593922Y-408282604D01*
X385593922Y-408282604D02*
X385841541Y-408282604D01*
X385841541Y-408282604D02*
X385965350Y-408344509D01*
X385965350Y-408344509D02*
X386027255Y-408406414D01*
X386027255Y-408406414D02*
X386089160Y-408530223D01*
X386089160Y-408530223D02*
X386089160Y-408592128D01*
X386089160Y-408592128D02*
X386027255Y-408715938D01*
X386027255Y-408715938D02*
X385965350Y-408777842D01*
X385965350Y-408777842D02*
X385841541Y-408839747D01*
X385841541Y-408839747D02*
X385593922Y-408839747D01*
X385593922Y-408839747D02*
X385470112Y-408901652D01*
X385470112Y-408901652D02*
X385408207Y-408963557D01*
X385408207Y-408963557D02*
X385346303Y-409087366D01*
X385346303Y-409087366D02*
X385346303Y-409334985D01*
X385346303Y-409334985D02*
X385408207Y-409458795D01*
X385408207Y-409458795D02*
X385470112Y-409520700D01*
X385470112Y-409520700D02*
X385593922Y-409582604D01*
X385593922Y-409582604D02*
X385841541Y-409582604D01*
X385841541Y-409582604D02*
X385965350Y-409520700D01*
X385965350Y-409520700D02*
X386027255Y-409458795D01*
X386027255Y-409458795D02*
X386089160Y-409334985D01*
X386089160Y-409334985D02*
X386089160Y-409087366D01*
X386089160Y-409087366D02*
X386027255Y-408963557D01*
X386027255Y-408963557D02*
X385965350Y-408901652D01*
X385965350Y-408901652D02*
X385841541Y-408839747D01*
D10*
D11*
X435470112Y-409582604D02*
X435717731Y-409582604D01*
X435717731Y-409582604D02*
X435841541Y-409520700D01*
X435841541Y-409520700D02*
X435903445Y-409458795D01*
X435903445Y-409458795D02*
X436027255Y-409273080D01*
X436027255Y-409273080D02*
X436089160Y-409025461D01*
X436089160Y-409025461D02*
X436089160Y-408530223D01*
X436089160Y-408530223D02*
X436027255Y-408406414D01*
X436027255Y-408406414D02*
X435965350Y-408344509D01*
X435965350Y-408344509D02*
X435841541Y-408282604D01*
X435841541Y-408282604D02*
X435593922Y-408282604D01*
X435593922Y-408282604D02*
X435470112Y-408344509D01*
X435470112Y-408344509D02*
X435408207Y-408406414D01*
X435408207Y-408406414D02*
X435346303Y-408530223D01*
X435346303Y-408530223D02*
X435346303Y-408839747D01*
X435346303Y-408839747D02*
X435408207Y-408963557D01*
X435408207Y-408963557D02*
X435470112Y-409025461D01*
X435470112Y-409025461D02*
X435593922Y-409087366D01*
X435593922Y-409087366D02*
X435841541Y-409087366D01*
X435841541Y-409087366D02*
X435965350Y-409025461D01*
X435965350Y-409025461D02*
X436027255Y-408963557D01*
X436027255Y-408963557D02*
X436089160Y-408839747D01*
D10*
D11*
X486089160Y-409582604D02*
X485346303Y-409582604D01*
X485717731Y-409582604D02*
X485717731Y-408282604D01*
X485717731Y-408282604D02*
X485593922Y-408468319D01*
X485593922Y-408468319D02*
X485470112Y-408592128D01*
X485470112Y-408592128D02*
X485346303Y-408654033D01*
X486893921Y-408282604D02*
X487017731Y-408282604D01*
X487017731Y-408282604D02*
X487141540Y-408344509D01*
X487141540Y-408344509D02*
X487203445Y-408406414D01*
X487203445Y-408406414D02*
X487265350Y-408530223D01*
X487265350Y-408530223D02*
X487327255Y-408777842D01*
X487327255Y-408777842D02*
X487327255Y-409087366D01*
X487327255Y-409087366D02*
X487265350Y-409334985D01*
X487265350Y-409334985D02*
X487203445Y-409458795D01*
X487203445Y-409458795D02*
X487141540Y-409520700D01*
X487141540Y-409520700D02*
X487017731Y-409582604D01*
X487017731Y-409582604D02*
X486893921Y-409582604D01*
X486893921Y-409582604D02*
X486770112Y-409520700D01*
X486770112Y-409520700D02*
X486708207Y-409458795D01*
X486708207Y-409458795D02*
X486646302Y-409334985D01*
X486646302Y-409334985D02*
X486584398Y-409087366D01*
X486584398Y-409087366D02*
X486584398Y-408777842D01*
X486584398Y-408777842D02*
X486646302Y-408530223D01*
X486646302Y-408530223D02*
X486708207Y-408406414D01*
X486708207Y-408406414D02*
X486770112Y-408344509D01*
X486770112Y-408344509D02*
X486893921Y-408282604D01*
D10*
D11*
X536089160Y-409582604D02*
X535346303Y-409582604D01*
X535717731Y-409582604D02*
X535717731Y-408282604D01*
X535717731Y-408282604D02*
X535593922Y-408468319D01*
X535593922Y-408468319D02*
X535470112Y-408592128D01*
X535470112Y-408592128D02*
X535346303Y-408654033D01*
X537327255Y-409582604D02*
X536584398Y-409582604D01*
X536955826Y-409582604D02*
X536955826Y-408282604D01*
X536955826Y-408282604D02*
X536832017Y-408468319D01*
X536832017Y-408468319D02*
X536708207Y-408592128D01*
X536708207Y-408592128D02*
X536584398Y-408654033D01*
D10*
D11*
X10000000Y-60000000D02*
X12000000Y-60000000D01*
D10*
D11*
X10000000Y-110000000D02*
X12000000Y-110000000D01*
D10*
D11*
X10000000Y-160000000D02*
X12000000Y-160000000D01*
D10*
D11*
X10000000Y-210000000D02*
X12000000Y-210000000D01*
D10*
D11*
X10000000Y-260000000D02*
X12000000Y-260000000D01*
D10*
D11*
X10000000Y-310000000D02*
X12000000Y-310000000D01*
D10*
D11*
X10000000Y-360000000D02*
X12000000Y-360000000D01*
D10*
D11*
X10690476Y-35222176D02*
X11309523Y-35222176D01*
X10566666Y-35593604D02*
X10999999Y-34293604D01*
X10999999Y-34293604D02*
X11433333Y-35593604D01*
D10*
D11*
X11092857Y-84912652D02*
X11278571Y-84974557D01*
X11278571Y-84974557D02*
X11340476Y-85036461D01*
X11340476Y-85036461D02*
X11402380Y-85160271D01*
X11402380Y-85160271D02*
X11402380Y-85345985D01*
X11402380Y-85345985D02*
X11340476Y-85469795D01*
X11340476Y-85469795D02*
X11278571Y-85531700D01*
X11278571Y-85531700D02*
X11154761Y-85593604D01*
X11154761Y-85593604D02*
X10659523Y-85593604D01*
X10659523Y-85593604D02*
X10659523Y-84293604D01*
X10659523Y-84293604D02*
X11092857Y-84293604D01*
X11092857Y-84293604D02*
X11216666Y-84355509D01*
X11216666Y-84355509D02*
X11278571Y-84417414D01*
X11278571Y-84417414D02*
X11340476Y-84541223D01*
X11340476Y-84541223D02*
X11340476Y-84665033D01*
X11340476Y-84665033D02*
X11278571Y-84788842D01*
X11278571Y-84788842D02*
X11216666Y-84850747D01*
X11216666Y-84850747D02*
X11092857Y-84912652D01*
X11092857Y-84912652D02*
X10659523Y-84912652D01*
D10*
D11*
X11402380Y-135469795D02*
X11340476Y-135531700D01*
X11340476Y-135531700D02*
X11154761Y-135593604D01*
X11154761Y-135593604D02*
X11030952Y-135593604D01*
X11030952Y-135593604D02*
X10845238Y-135531700D01*
X10845238Y-135531700D02*
X10721428Y-135407890D01*
X10721428Y-135407890D02*
X10659523Y-135284080D01*
X10659523Y-135284080D02*
X10597619Y-135036461D01*
X10597619Y-135036461D02*
X10597619Y-134850747D01*
X10597619Y-134850747D02*
X10659523Y-134603128D01*
X10659523Y-134603128D02*
X10721428Y-134479319D01*
X10721428Y-134479319D02*
X10845238Y-134355509D01*
X10845238Y-134355509D02*
X11030952Y-134293604D01*
X11030952Y-134293604D02*
X11154761Y-134293604D01*
X11154761Y-134293604D02*
X11340476Y-134355509D01*
X11340476Y-134355509D02*
X11402380Y-134417414D01*
D10*
D11*
X10659523Y-185593604D02*
X10659523Y-184293604D01*
X10659523Y-184293604D02*
X10969047Y-184293604D01*
X10969047Y-184293604D02*
X11154761Y-184355509D01*
X11154761Y-184355509D02*
X11278571Y-184479319D01*
X11278571Y-184479319D02*
X11340476Y-184603128D01*
X11340476Y-184603128D02*
X11402380Y-184850747D01*
X11402380Y-184850747D02*
X11402380Y-185036461D01*
X11402380Y-185036461D02*
X11340476Y-185284080D01*
X11340476Y-185284080D02*
X11278571Y-185407890D01*
X11278571Y-185407890D02*
X11154761Y-185531700D01*
X11154761Y-185531700D02*
X10969047Y-185593604D01*
X10969047Y-185593604D02*
X10659523Y-185593604D01*
D10*
D11*
X10721428Y-234912652D02*
X11154762Y-234912652D01*
X11340476Y-235593604D02*
X10721428Y-235593604D01*
X10721428Y-235593604D02*
X10721428Y-234293604D01*
X10721428Y-234293604D02*
X11340476Y-234293604D01*
D10*
D11*
X11185714Y-284912652D02*
X10752380Y-284912652D01*
X10752380Y-285593604D02*
X10752380Y-284293604D01*
X10752380Y-284293604D02*
X11371428Y-284293604D01*
D10*
D11*
X11340476Y-334355509D02*
X11216666Y-334293604D01*
X11216666Y-334293604D02*
X11030952Y-334293604D01*
X11030952Y-334293604D02*
X10845238Y-334355509D01*
X10845238Y-334355509D02*
X10721428Y-334479319D01*
X10721428Y-334479319D02*
X10659523Y-334603128D01*
X10659523Y-334603128D02*
X10597619Y-334850747D01*
X10597619Y-334850747D02*
X10597619Y-335036461D01*
X10597619Y-335036461D02*
X10659523Y-335284080D01*
X10659523Y-335284080D02*
X10721428Y-335407890D01*
X10721428Y-335407890D02*
X10845238Y-335531700D01*
X10845238Y-335531700D02*
X11030952Y-335593604D01*
X11030952Y-335593604D02*
X11154761Y-335593604D01*
X11154761Y-335593604D02*
X11340476Y-335531700D01*
X11340476Y-335531700D02*
X11402380Y-335469795D01*
X11402380Y-335469795D02*
X11402380Y-335036461D01*
X11402380Y-335036461D02*
X11154761Y-335036461D01*
D10*
D11*
X10628571Y-385593604D02*
X10628571Y-384293604D01*
X10628571Y-384912652D02*
X11371428Y-384912652D01*
X11371428Y-385593604D02*
X11371428Y-384293604D01*
D10*
D11*
X584004400Y-60000000D02*
X582004400Y-60000000D01*
D10*
D11*
X584004400Y-110000000D02*
X582004400Y-110000000D01*
D10*
D11*
X584004400Y-160000000D02*
X582004400Y-160000000D01*
D10*
D11*
X584004400Y-210000000D02*
X582004400Y-210000000D01*
D10*
D11*
X584004400Y-260000000D02*
X582004400Y-260000000D01*
D10*
D11*
X584004400Y-310000000D02*
X582004400Y-310000000D01*
D10*
D11*
X584004400Y-360000000D02*
X582004400Y-360000000D01*
D10*
D11*
X582694876Y-35222176D02*
X583313923Y-35222176D01*
X582571066Y-35593604D02*
X583004399Y-34293604D01*
X583004399Y-34293604D02*
X583437733Y-35593604D01*
D10*
D11*
X583097257Y-84912652D02*
X583282971Y-84974557D01*
X583282971Y-84974557D02*
X583344876Y-85036461D01*
X583344876Y-85036461D02*
X583406780Y-85160271D01*
X583406780Y-85160271D02*
X583406780Y-85345985D01*
X583406780Y-85345985D02*
X583344876Y-85469795D01*
X583344876Y-85469795D02*
X583282971Y-85531700D01*
X583282971Y-85531700D02*
X583159161Y-85593604D01*
X583159161Y-85593604D02*
X582663923Y-85593604D01*
X582663923Y-85593604D02*
X582663923Y-84293604D01*
X582663923Y-84293604D02*
X583097257Y-84293604D01*
X583097257Y-84293604D02*
X583221066Y-84355509D01*
X583221066Y-84355509D02*
X583282971Y-84417414D01*
X583282971Y-84417414D02*
X583344876Y-84541223D01*
X583344876Y-84541223D02*
X583344876Y-84665033D01*
X583344876Y-84665033D02*
X583282971Y-84788842D01*
X583282971Y-84788842D02*
X583221066Y-84850747D01*
X583221066Y-84850747D02*
X583097257Y-84912652D01*
X583097257Y-84912652D02*
X582663923Y-84912652D01*
D10*
D11*
X583406780Y-135469795D02*
X583344876Y-135531700D01*
X583344876Y-135531700D02*
X583159161Y-135593604D01*
X583159161Y-135593604D02*
X583035352Y-135593604D01*
X583035352Y-135593604D02*
X582849638Y-135531700D01*
X582849638Y-135531700D02*
X582725828Y-135407890D01*
X582725828Y-135407890D02*
X582663923Y-135284080D01*
X582663923Y-135284080D02*
X582602019Y-135036461D01*
X582602019Y-135036461D02*
X582602019Y-134850747D01*
X582602019Y-134850747D02*
X582663923Y-134603128D01*
X582663923Y-134603128D02*
X582725828Y-134479319D01*
X582725828Y-134479319D02*
X582849638Y-134355509D01*
X582849638Y-134355509D02*
X583035352Y-134293604D01*
X583035352Y-134293604D02*
X583159161Y-134293604D01*
X583159161Y-134293604D02*
X583344876Y-134355509D01*
X583344876Y-134355509D02*
X583406780Y-134417414D01*
D10*
D11*
X582663923Y-185593604D02*
X582663923Y-184293604D01*
X582663923Y-184293604D02*
X582973447Y-184293604D01*
X582973447Y-184293604D02*
X583159161Y-184355509D01*
X583159161Y-184355509D02*
X583282971Y-184479319D01*
X583282971Y-184479319D02*
X583344876Y-184603128D01*
X583344876Y-184603128D02*
X583406780Y-184850747D01*
X583406780Y-184850747D02*
X583406780Y-185036461D01*
X583406780Y-185036461D02*
X583344876Y-185284080D01*
X583344876Y-185284080D02*
X583282971Y-185407890D01*
X583282971Y-185407890D02*
X583159161Y-185531700D01*
X583159161Y-185531700D02*
X582973447Y-185593604D01*
X582973447Y-185593604D02*
X582663923Y-185593604D01*
D10*
D11*
X582725828Y-234912652D02*
X583159162Y-234912652D01*
X583344876Y-235593604D02*
X582725828Y-235593604D01*
X582725828Y-235593604D02*
X582725828Y-234293604D01*
X582725828Y-234293604D02*
X583344876Y-234293604D01*
D10*
D11*
X583190114Y-284912652D02*
X582756780Y-284912652D01*
X582756780Y-285593604D02*
X582756780Y-284293604D01*
X582756780Y-284293604D02*
X583375828Y-284293604D01*
D10*
D11*
X583344876Y-334355509D02*
X583221066Y-334293604D01*
X583221066Y-334293604D02*
X583035352Y-334293604D01*
X583035352Y-334293604D02*
X582849638Y-334355509D01*
X582849638Y-334355509D02*
X582725828Y-334479319D01*
X582725828Y-334479319D02*
X582663923Y-334603128D01*
X582663923Y-334603128D02*
X582602019Y-334850747D01*
X582602019Y-334850747D02*
X582602019Y-335036461D01*
X582602019Y-335036461D02*
X582663923Y-335284080D01*
X582663923Y-335284080D02*
X582725828Y-335407890D01*
X582725828Y-335407890D02*
X582849638Y-335531700D01*
X582849638Y-335531700D02*
X583035352Y-335593604D01*
X583035352Y-335593604D02*
X583159161Y-335593604D01*
X583159161Y-335593604D02*
X583344876Y-335531700D01*
X583344876Y-335531700D02*
X583406780Y-335469795D01*
X583406780Y-335469795D02*
X583406780Y-335036461D01*
X583406780Y-335036461D02*
X583159161Y-335036461D01*
D10*
D11*
X582632971Y-385593604D02*
X582632971Y-384293604D01*
X582632971Y-384912652D02*
X583375828Y-384912652D01*
X583375828Y-385593604D02*
X583375828Y-384293604D01*
D10*
D11*
X497460226Y-403775128D02*
X497460226Y-402275128D01*
X497460226Y-402275128D02*
X497817369Y-402275128D01*
X497817369Y-402275128D02*
X498031655Y-402346557D01*
X498031655Y-402346557D02*
X498174512Y-402489414D01*
X498174512Y-402489414D02*
X498245941Y-402632271D01*
X498245941Y-402632271D02*
X498317369Y-402917985D01*
X498317369Y-402917985D02*
X498317369Y-403132271D01*
X498317369Y-403132271D02*
X498245941Y-403417985D01*
X498245941Y-403417985D02*
X498174512Y-403560842D01*
X498174512Y-403560842D02*
X498031655Y-403703700D01*
X498031655Y-403703700D02*
X497817369Y-403775128D01*
X497817369Y-403775128D02*
X497460226Y-403775128D01*
X499603084Y-403775128D02*
X499603084Y-402989414D01*
X499603084Y-402989414D02*
X499531655Y-402846557D01*
X499531655Y-402846557D02*
X499388798Y-402775128D01*
X499388798Y-402775128D02*
X499103084Y-402775128D01*
X499103084Y-402775128D02*
X498960226Y-402846557D01*
X499603084Y-403703700D02*
X499460226Y-403775128D01*
X499460226Y-403775128D02*
X499103084Y-403775128D01*
X499103084Y-403775128D02*
X498960226Y-403703700D01*
X498960226Y-403703700D02*
X498888798Y-403560842D01*
X498888798Y-403560842D02*
X498888798Y-403417985D01*
X498888798Y-403417985D02*
X498960226Y-403275128D01*
X498960226Y-403275128D02*
X499103084Y-403203700D01*
X499103084Y-403203700D02*
X499460226Y-403203700D01*
X499460226Y-403203700D02*
X499603084Y-403132271D01*
X500103084Y-402775128D02*
X500674512Y-402775128D01*
X500317369Y-402275128D02*
X500317369Y-403560842D01*
X500317369Y-403560842D02*
X500388798Y-403703700D01*
X500388798Y-403703700D02*
X500531655Y-403775128D01*
X500531655Y-403775128D02*
X500674512Y-403775128D01*
X501745941Y-403703700D02*
X501603084Y-403775128D01*
X501603084Y-403775128D02*
X501317370Y-403775128D01*
X501317370Y-403775128D02*
X501174512Y-403703700D01*
X501174512Y-403703700D02*
X501103084Y-403560842D01*
X501103084Y-403560842D02*
X501103084Y-402989414D01*
X501103084Y-402989414D02*
X501174512Y-402846557D01*
X501174512Y-402846557D02*
X501317370Y-402775128D01*
X501317370Y-402775128D02*
X501603084Y-402775128D01*
X501603084Y-402775128D02*
X501745941Y-402846557D01*
X501745941Y-402846557D02*
X501817370Y-402989414D01*
X501817370Y-402989414D02*
X501817370Y-403132271D01*
X501817370Y-403132271D02*
X501103084Y-403275128D01*
X502460226Y-403632271D02*
X502531655Y-403703700D01*
X502531655Y-403703700D02*
X502460226Y-403775128D01*
X502460226Y-403775128D02*
X502388798Y-403703700D01*
X502388798Y-403703700D02*
X502460226Y-403632271D01*
X502460226Y-403632271D02*
X502460226Y-403775128D01*
X502460226Y-402846557D02*
X502531655Y-402917985D01*
X502531655Y-402917985D02*
X502460226Y-402989414D01*
X502460226Y-402989414D02*
X502388798Y-402917985D01*
X502388798Y-402917985D02*
X502460226Y-402846557D01*
X502460226Y-402846557D02*
X502460226Y-402989414D01*
D10*
D11*
X474004400Y-404489000D02*
X582004400Y-404489000D01*
D10*
D11*
X475460226Y-406575128D02*
X475460226Y-405075128D01*
X476317369Y-406575128D02*
X475674512Y-405717985D01*
X476317369Y-405075128D02*
X475460226Y-405932271D01*
X476960226Y-406575128D02*
X476960226Y-405575128D01*
X476960226Y-405075128D02*
X476888798Y-405146557D01*
X476888798Y-405146557D02*
X476960226Y-405217985D01*
X476960226Y-405217985D02*
X477031655Y-405146557D01*
X477031655Y-405146557D02*
X476960226Y-405075128D01*
X476960226Y-405075128D02*
X476960226Y-405217985D01*
X478531655Y-406432271D02*
X478460227Y-406503700D01*
X478460227Y-406503700D02*
X478245941Y-406575128D01*
X478245941Y-406575128D02*
X478103084Y-406575128D01*
X478103084Y-406575128D02*
X477888798Y-406503700D01*
X477888798Y-406503700D02*
X477745941Y-406360842D01*
X477745941Y-406360842D02*
X477674512Y-406217985D01*
X477674512Y-406217985D02*
X477603084Y-405932271D01*
X477603084Y-405932271D02*
X477603084Y-405717985D01*
X477603084Y-405717985D02*
X477674512Y-405432271D01*
X477674512Y-405432271D02*
X477745941Y-405289414D01*
X477745941Y-405289414D02*
X477888798Y-405146557D01*
X477888798Y-405146557D02*
X478103084Y-405075128D01*
X478103084Y-405075128D02*
X478245941Y-405075128D01*
X478245941Y-405075128D02*
X478460227Y-405146557D01*
X478460227Y-405146557D02*
X478531655Y-405217985D01*
X479817370Y-406575128D02*
X479817370Y-405789414D01*
X479817370Y-405789414D02*
X479745941Y-405646557D01*
X479745941Y-405646557D02*
X479603084Y-405575128D01*
X479603084Y-405575128D02*
X479317370Y-405575128D01*
X479317370Y-405575128D02*
X479174512Y-405646557D01*
X479817370Y-406503700D02*
X479674512Y-406575128D01*
X479674512Y-406575128D02*
X479317370Y-406575128D01*
X479317370Y-406575128D02*
X479174512Y-406503700D01*
X479174512Y-406503700D02*
X479103084Y-406360842D01*
X479103084Y-406360842D02*
X479103084Y-406217985D01*
X479103084Y-406217985D02*
X479174512Y-406075128D01*
X479174512Y-406075128D02*
X479317370Y-406003700D01*
X479317370Y-406003700D02*
X479674512Y-406003700D01*
X479674512Y-406003700D02*
X479817370Y-405932271D01*
X481174513Y-406575128D02*
X481174513Y-405075128D01*
X481174513Y-406503700D02*
X481031655Y-406575128D01*
X481031655Y-406575128D02*
X480745941Y-406575128D01*
X480745941Y-406575128D02*
X480603084Y-406503700D01*
X480603084Y-406503700D02*
X480531655Y-406432271D01*
X480531655Y-406432271D02*
X480460227Y-406289414D01*
X480460227Y-406289414D02*
X480460227Y-405860842D01*
X480460227Y-405860842D02*
X480531655Y-405717985D01*
X480531655Y-405717985D02*
X480603084Y-405646557D01*
X480603084Y-405646557D02*
X480745941Y-405575128D01*
X480745941Y-405575128D02*
X481031655Y-405575128D01*
X481031655Y-405575128D02*
X481174513Y-405646557D01*
X483031655Y-405789414D02*
X483531655Y-405789414D01*
X483745941Y-406575128D02*
X483031655Y-406575128D01*
X483031655Y-406575128D02*
X483031655Y-405075128D01*
X483031655Y-405075128D02*
X483745941Y-405075128D01*
X484388798Y-406432271D02*
X484460227Y-406503700D01*
X484460227Y-406503700D02*
X484388798Y-406575128D01*
X484388798Y-406575128D02*
X484317370Y-406503700D01*
X484317370Y-406503700D02*
X484388798Y-406432271D01*
X484388798Y-406432271D02*
X484388798Y-406575128D01*
X485103084Y-406575128D02*
X485103084Y-405075128D01*
X485103084Y-405075128D02*
X485460227Y-405075128D01*
X485460227Y-405075128D02*
X485674513Y-405146557D01*
X485674513Y-405146557D02*
X485817370Y-405289414D01*
X485817370Y-405289414D02*
X485888799Y-405432271D01*
X485888799Y-405432271D02*
X485960227Y-405717985D01*
X485960227Y-405717985D02*
X485960227Y-405932271D01*
X485960227Y-405932271D02*
X485888799Y-406217985D01*
X485888799Y-406217985D02*
X485817370Y-406360842D01*
X485817370Y-406360842D02*
X485674513Y-406503700D01*
X485674513Y-406503700D02*
X485460227Y-406575128D01*
X485460227Y-406575128D02*
X485103084Y-406575128D01*
X486603084Y-406432271D02*
X486674513Y-406503700D01*
X486674513Y-406503700D02*
X486603084Y-406575128D01*
X486603084Y-406575128D02*
X486531656Y-406503700D01*
X486531656Y-406503700D02*
X486603084Y-406432271D01*
X486603084Y-406432271D02*
X486603084Y-406575128D01*
X487245942Y-406146557D02*
X487960228Y-406146557D01*
X487103085Y-406575128D02*
X487603085Y-405075128D01*
X487603085Y-405075128D02*
X488103085Y-406575128D01*
X488603084Y-406432271D02*
X488674513Y-406503700D01*
X488674513Y-406503700D02*
X488603084Y-406575128D01*
X488603084Y-406575128D02*
X488531656Y-406503700D01*
X488531656Y-406503700D02*
X488603084Y-406432271D01*
X488603084Y-406432271D02*
X488603084Y-406575128D01*
X490531656Y-406575128D02*
X490817370Y-406575128D01*
X490817370Y-406575128D02*
X490960227Y-406503700D01*
X490960227Y-406503700D02*
X491031656Y-406432271D01*
X491031656Y-406432271D02*
X491174513Y-406217985D01*
X491174513Y-406217985D02*
X491245942Y-405932271D01*
X491245942Y-405932271D02*
X491245942Y-405360842D01*
X491245942Y-405360842D02*
X491174513Y-405217985D01*
X491174513Y-405217985D02*
X491103085Y-405146557D01*
X491103085Y-405146557D02*
X490960227Y-405075128D01*
X490960227Y-405075128D02*
X490674513Y-405075128D01*
X490674513Y-405075128D02*
X490531656Y-405146557D01*
X490531656Y-405146557D02*
X490460227Y-405217985D01*
X490460227Y-405217985D02*
X490388799Y-405360842D01*
X490388799Y-405360842D02*
X490388799Y-405717985D01*
X490388799Y-405717985D02*
X490460227Y-405860842D01*
X490460227Y-405860842D02*
X490531656Y-405932271D01*
X490531656Y-405932271D02*
X490674513Y-406003700D01*
X490674513Y-406003700D02*
X490960227Y-406003700D01*
X490960227Y-406003700D02*
X491103085Y-405932271D01*
X491103085Y-405932271D02*
X491174513Y-405860842D01*
X491174513Y-405860842D02*
X491245942Y-405717985D01*
X491888798Y-406432271D02*
X491960227Y-406503700D01*
X491960227Y-406503700D02*
X491888798Y-406575128D01*
X491888798Y-406575128D02*
X491817370Y-406503700D01*
X491817370Y-406503700D02*
X491888798Y-406432271D01*
X491888798Y-406432271D02*
X491888798Y-406575128D01*
X492888799Y-405075128D02*
X493031656Y-405075128D01*
X493031656Y-405075128D02*
X493174513Y-405146557D01*
X493174513Y-405146557D02*
X493245942Y-405217985D01*
X493245942Y-405217985D02*
X493317370Y-405360842D01*
X493317370Y-405360842D02*
X493388799Y-405646557D01*
X493388799Y-405646557D02*
X493388799Y-406003700D01*
X493388799Y-406003700D02*
X493317370Y-406289414D01*
X493317370Y-406289414D02*
X493245942Y-406432271D01*
X493245942Y-406432271D02*
X493174513Y-406503700D01*
X493174513Y-406503700D02*
X493031656Y-406575128D01*
X493031656Y-406575128D02*
X492888799Y-406575128D01*
X492888799Y-406575128D02*
X492745942Y-406503700D01*
X492745942Y-406503700D02*
X492674513Y-406432271D01*
X492674513Y-406432271D02*
X492603084Y-406289414D01*
X492603084Y-406289414D02*
X492531656Y-406003700D01*
X492531656Y-406003700D02*
X492531656Y-405646557D01*
X492531656Y-405646557D02*
X492603084Y-405360842D01*
X492603084Y-405360842D02*
X492674513Y-405217985D01*
X492674513Y-405217985D02*
X492745942Y-405146557D01*
X492745942Y-405146557D02*
X492888799Y-405075128D01*
X494031655Y-406432271D02*
X494103084Y-406503700D01*
X494103084Y-406503700D02*
X494031655Y-406575128D01*
X494031655Y-406575128D02*
X493960227Y-406503700D01*
X493960227Y-406503700D02*
X494031655Y-406432271D01*
X494031655Y-406432271D02*
X494031655Y-406575128D01*
X494674513Y-405217985D02*
X494745941Y-405146557D01*
X494745941Y-405146557D02*
X494888799Y-405075128D01*
X494888799Y-405075128D02*
X495245941Y-405075128D01*
X495245941Y-405075128D02*
X495388799Y-405146557D01*
X495388799Y-405146557D02*
X495460227Y-405217985D01*
X495460227Y-405217985D02*
X495531656Y-405360842D01*
X495531656Y-405360842D02*
X495531656Y-405503700D01*
X495531656Y-405503700D02*
X495460227Y-405717985D01*
X495460227Y-405717985D02*
X494603084Y-406575128D01*
X494603084Y-406575128D02*
X495531656Y-406575128D01*
D10*
D11*
X474004400Y-401489000D02*
X582004400Y-401489000D01*
D10*
D12*
X561416053Y-403767328D02*
X560916053Y-403053042D01*
X560558910Y-403767328D02*
X560558910Y-402267328D01*
X560558910Y-402267328D02*
X561130339Y-402267328D01*
X561130339Y-402267328D02*
X561273196Y-402338757D01*
X561273196Y-402338757D02*
X561344625Y-402410185D01*
X561344625Y-402410185D02*
X561416053Y-402553042D01*
X561416053Y-402553042D02*
X561416053Y-402767328D01*
X561416053Y-402767328D02*
X561344625Y-402910185D01*
X561344625Y-402910185D02*
X561273196Y-402981614D01*
X561273196Y-402981614D02*
X561130339Y-403053042D01*
X561130339Y-403053042D02*
X560558910Y-403053042D01*
X562630339Y-403695900D02*
X562487482Y-403767328D01*
X562487482Y-403767328D02*
X562201768Y-403767328D01*
X562201768Y-403767328D02*
X562058910Y-403695900D01*
X562058910Y-403695900D02*
X561987482Y-403553042D01*
X561987482Y-403553042D02*
X561987482Y-402981614D01*
X561987482Y-402981614D02*
X562058910Y-402838757D01*
X562058910Y-402838757D02*
X562201768Y-402767328D01*
X562201768Y-402767328D02*
X562487482Y-402767328D01*
X562487482Y-402767328D02*
X562630339Y-402838757D01*
X562630339Y-402838757D02*
X562701768Y-402981614D01*
X562701768Y-402981614D02*
X562701768Y-403124471D01*
X562701768Y-403124471D02*
X561987482Y-403267328D01*
X563201767Y-402767328D02*
X563558910Y-403767328D01*
X563558910Y-403767328D02*
X563916053Y-402767328D01*
X564487481Y-403624471D02*
X564558910Y-403695900D01*
X564558910Y-403695900D02*
X564487481Y-403767328D01*
X564487481Y-403767328D02*
X564416053Y-403695900D01*
X564416053Y-403695900D02*
X564487481Y-403624471D01*
X564487481Y-403624471D02*
X564487481Y-403767328D01*
X564487481Y-402838757D02*
X564558910Y-402910185D01*
X564558910Y-402910185D02*
X564487481Y-402981614D01*
X564487481Y-402981614D02*
X564416053Y-402910185D01*
X564416053Y-402910185D02*
X564487481Y-402838757D01*
X564487481Y-402838757D02*
X564487481Y-402981614D01*
D10*
D11*
X475388798Y-403703700D02*
X475603084Y-403775128D01*
X475603084Y-403775128D02*
X475960226Y-403775128D01*
X475960226Y-403775128D02*
X476103084Y-403703700D01*
X476103084Y-403703700D02*
X476174512Y-403632271D01*
X476174512Y-403632271D02*
X476245941Y-403489414D01*
X476245941Y-403489414D02*
X476245941Y-403346557D01*
X476245941Y-403346557D02*
X476174512Y-403203700D01*
X476174512Y-403203700D02*
X476103084Y-403132271D01*
X476103084Y-403132271D02*
X475960226Y-403060842D01*
X475960226Y-403060842D02*
X475674512Y-402989414D01*
X475674512Y-402989414D02*
X475531655Y-402917985D01*
X475531655Y-402917985D02*
X475460226Y-402846557D01*
X475460226Y-402846557D02*
X475388798Y-402703700D01*
X475388798Y-402703700D02*
X475388798Y-402560842D01*
X475388798Y-402560842D02*
X475460226Y-402417985D01*
X475460226Y-402417985D02*
X475531655Y-402346557D01*
X475531655Y-402346557D02*
X475674512Y-402275128D01*
X475674512Y-402275128D02*
X476031655Y-402275128D01*
X476031655Y-402275128D02*
X476245941Y-402346557D01*
X476888797Y-403775128D02*
X476888797Y-402775128D01*
X476888797Y-402275128D02*
X476817369Y-402346557D01*
X476817369Y-402346557D02*
X476888797Y-402417985D01*
X476888797Y-402417985D02*
X476960226Y-402346557D01*
X476960226Y-402346557D02*
X476888797Y-402275128D01*
X476888797Y-402275128D02*
X476888797Y-402417985D01*
X477460226Y-402775128D02*
X478245941Y-402775128D01*
X478245941Y-402775128D02*
X477460226Y-403775128D01*
X477460226Y-403775128D02*
X478245941Y-403775128D01*
X479388798Y-403703700D02*
X479245941Y-403775128D01*
X479245941Y-403775128D02*
X478960227Y-403775128D01*
X478960227Y-403775128D02*
X478817369Y-403703700D01*
X478817369Y-403703700D02*
X478745941Y-403560842D01*
X478745941Y-403560842D02*
X478745941Y-402989414D01*
X478745941Y-402989414D02*
X478817369Y-402846557D01*
X478817369Y-402846557D02*
X478960227Y-402775128D01*
X478960227Y-402775128D02*
X479245941Y-402775128D01*
X479245941Y-402775128D02*
X479388798Y-402846557D01*
X479388798Y-402846557D02*
X479460227Y-402989414D01*
X479460227Y-402989414D02*
X479460227Y-403132271D01*
X479460227Y-403132271D02*
X478745941Y-403275128D01*
X480103083Y-403632271D02*
X480174512Y-403703700D01*
X480174512Y-403703700D02*
X480103083Y-403775128D01*
X480103083Y-403775128D02*
X480031655Y-403703700D01*
X480031655Y-403703700D02*
X480103083Y-403632271D01*
X480103083Y-403632271D02*
X480103083Y-403775128D01*
X480103083Y-402846557D02*
X480174512Y-402917985D01*
X480174512Y-402917985D02*
X480103083Y-402989414D01*
X480103083Y-402989414D02*
X480031655Y-402917985D01*
X480031655Y-402917985D02*
X480103083Y-402846557D01*
X480103083Y-402846557D02*
X480103083Y-402989414D01*
X481888798Y-403346557D02*
X482603084Y-403346557D01*
X481745941Y-403775128D02*
X482245941Y-402275128D01*
X482245941Y-402275128D02*
X482745941Y-403775128D01*
X483174512Y-402417985D02*
X483245940Y-402346557D01*
X483245940Y-402346557D02*
X483388798Y-402275128D01*
X483388798Y-402275128D02*
X483745940Y-402275128D01*
X483745940Y-402275128D02*
X483888798Y-402346557D01*
X483888798Y-402346557D02*
X483960226Y-402417985D01*
X483960226Y-402417985D02*
X484031655Y-402560842D01*
X484031655Y-402560842D02*
X484031655Y-402703700D01*
X484031655Y-402703700D02*
X483960226Y-402917985D01*
X483960226Y-402917985D02*
X483103083Y-403775128D01*
X483103083Y-403775128D02*
X484031655Y-403775128D01*
D10*
D11*
X560460226Y-406575128D02*
X560460226Y-405075128D01*
X561817370Y-406575128D02*
X561817370Y-405075128D01*
X561817370Y-406503700D02*
X561674512Y-406575128D01*
X561674512Y-406575128D02*
X561388798Y-406575128D01*
X561388798Y-406575128D02*
X561245941Y-406503700D01*
X561245941Y-406503700D02*
X561174512Y-406432271D01*
X561174512Y-406432271D02*
X561103084Y-406289414D01*
X561103084Y-406289414D02*
X561103084Y-405860842D01*
X561103084Y-405860842D02*
X561174512Y-405717985D01*
X561174512Y-405717985D02*
X561245941Y-405646557D01*
X561245941Y-405646557D02*
X561388798Y-405575128D01*
X561388798Y-405575128D02*
X561674512Y-405575128D01*
X561674512Y-405575128D02*
X561817370Y-405646557D01*
X562531655Y-406432271D02*
X562603084Y-406503700D01*
X562603084Y-406503700D02*
X562531655Y-406575128D01*
X562531655Y-406575128D02*
X562460227Y-406503700D01*
X562460227Y-406503700D02*
X562531655Y-406432271D01*
X562531655Y-406432271D02*
X562531655Y-406575128D01*
X562531655Y-405646557D02*
X562603084Y-405717985D01*
X562603084Y-405717985D02*
X562531655Y-405789414D01*
X562531655Y-405789414D02*
X562460227Y-405717985D01*
X562460227Y-405717985D02*
X562531655Y-405646557D01*
X562531655Y-405646557D02*
X562531655Y-405789414D01*
X565174513Y-406575128D02*
X564317370Y-406575128D01*
X564745941Y-406575128D02*
X564745941Y-405075128D01*
X564745941Y-405075128D02*
X564603084Y-405289414D01*
X564603084Y-405289414D02*
X564460227Y-405432271D01*
X564460227Y-405432271D02*
X564317370Y-405503700D01*
X566603084Y-406575128D02*
X565745941Y-406575128D01*
X566174512Y-406575128D02*
X566174512Y-405075128D01*
X566174512Y-405075128D02*
X566031655Y-405289414D01*
X566031655Y-405289414D02*
X565888798Y-405432271D01*
X565888798Y-405432271D02*
X565745941Y-405503700D01*
X568317369Y-405003700D02*
X567031655Y-406932271D01*
X569603084Y-406575128D02*
X568745941Y-406575128D01*
X569174512Y-406575128D02*
X569174512Y-405075128D01*
X569174512Y-405075128D02*
X569031655Y-405289414D01*
X569031655Y-405289414D02*
X568888798Y-405432271D01*
X568888798Y-405432271D02*
X568745941Y-405503700D01*
X570103083Y-405075128D02*
X571031655Y-405075128D01*
X571031655Y-405075128D02*
X570531655Y-405646557D01*
X570531655Y-405646557D02*
X570745940Y-405646557D01*
X570745940Y-405646557D02*
X570888798Y-405717985D01*
X570888798Y-405717985D02*
X570960226Y-405789414D01*
X570960226Y-405789414D02*
X571031655Y-405932271D01*
X571031655Y-405932271D02*
X571031655Y-406289414D01*
X571031655Y-406289414D02*
X570960226Y-406432271D01*
X570960226Y-406432271D02*
X570888798Y-406503700D01*
X570888798Y-406503700D02*
X570745940Y-406575128D01*
X570745940Y-406575128D02*
X570317369Y-406575128D01*
X570317369Y-406575128D02*
X570174512Y-406503700D01*
X570174512Y-406503700D02*
X570103083Y-406432271D01*
D10*
D11*
X474004400Y-397489000D02*
X582004400Y-397489000D01*
D10*
D13*
X475696128Y-398193438D02*
X476838985Y-398193438D01*
X476017557Y-400193438D02*
X476267557Y-398193438D01*
X477255652Y-400193438D02*
X477422319Y-398860104D01*
X477505652Y-398193438D02*
X477398509Y-398288676D01*
X477398509Y-398288676D02*
X477481843Y-398383914D01*
X477481843Y-398383914D02*
X477588986Y-398288676D01*
X477588986Y-398288676D02*
X477505652Y-398193438D01*
X477505652Y-398193438D02*
X477481843Y-398383914D01*
X478088986Y-398860104D02*
X478850890Y-398860104D01*
X478458033Y-398193438D02*
X478243748Y-399907723D01*
X478243748Y-399907723D02*
X478315176Y-400098200D01*
X478315176Y-400098200D02*
X478493748Y-400193438D01*
X478493748Y-400193438D02*
X478684224Y-400193438D01*
X479636605Y-400193438D02*
X479458033Y-400098200D01*
X479458033Y-400098200D02*
X479386605Y-399907723D01*
X479386605Y-399907723D02*
X479600890Y-398193438D01*
X481172319Y-400098200D02*
X480969938Y-400193438D01*
X480969938Y-400193438D02*
X480588985Y-400193438D01*
X480588985Y-400193438D02*
X480410414Y-400098200D01*
X480410414Y-400098200D02*
X480338985Y-399907723D01*
X480338985Y-399907723D02*
X480434224Y-399145819D01*
X480434224Y-399145819D02*
X480553271Y-398955342D01*
X480553271Y-398955342D02*
X480755652Y-398860104D01*
X480755652Y-398860104D02*
X481136604Y-398860104D01*
X481136604Y-398860104D02*
X481315176Y-398955342D01*
X481315176Y-398955342D02*
X481386604Y-399145819D01*
X481386604Y-399145819D02*
X481362795Y-399336295D01*
X481362795Y-399336295D02*
X480386604Y-399526771D01*
X482136605Y-400002961D02*
X482219938Y-400098200D01*
X482219938Y-400098200D02*
X482112795Y-400193438D01*
X482112795Y-400193438D02*
X482029462Y-400098200D01*
X482029462Y-400098200D02*
X482136605Y-400002961D01*
X482136605Y-400002961D02*
X482112795Y-400193438D01*
X482267557Y-398955342D02*
X482350890Y-399050580D01*
X482350890Y-399050580D02*
X482243748Y-399145819D01*
X482243748Y-399145819D02*
X482160414Y-399050580D01*
X482160414Y-399050580D02*
X482267557Y-398955342D01*
X482267557Y-398955342D02*
X482243748Y-399145819D01*
D10*
D11*
X475960226Y-395589414D02*
X475460226Y-395589414D01*
X475460226Y-396375128D02*
X475460226Y-394875128D01*
X475460226Y-394875128D02*
X476174512Y-394875128D01*
X476745940Y-396375128D02*
X476745940Y-395375128D01*
X476745940Y-394875128D02*
X476674512Y-394946557D01*
X476674512Y-394946557D02*
X476745940Y-395017985D01*
X476745940Y-395017985D02*
X476817369Y-394946557D01*
X476817369Y-394946557D02*
X476745940Y-394875128D01*
X476745940Y-394875128D02*
X476745940Y-395017985D01*
X477674512Y-396375128D02*
X477531655Y-396303700D01*
X477531655Y-396303700D02*
X477460226Y-396160842D01*
X477460226Y-396160842D02*
X477460226Y-394875128D01*
X478817369Y-396303700D02*
X478674512Y-396375128D01*
X478674512Y-396375128D02*
X478388798Y-396375128D01*
X478388798Y-396375128D02*
X478245940Y-396303700D01*
X478245940Y-396303700D02*
X478174512Y-396160842D01*
X478174512Y-396160842D02*
X478174512Y-395589414D01*
X478174512Y-395589414D02*
X478245940Y-395446557D01*
X478245940Y-395446557D02*
X478388798Y-395375128D01*
X478388798Y-395375128D02*
X478674512Y-395375128D01*
X478674512Y-395375128D02*
X478817369Y-395446557D01*
X478817369Y-395446557D02*
X478888798Y-395589414D01*
X478888798Y-395589414D02*
X478888798Y-395732271D01*
X478888798Y-395732271D02*
X478174512Y-395875128D01*
X479531654Y-396232271D02*
X479603083Y-396303700D01*
X479603083Y-396303700D02*
X479531654Y-396375128D01*
X479531654Y-396375128D02*
X479460226Y-396303700D01*
X479460226Y-396303700D02*
X479531654Y-396232271D01*
X479531654Y-396232271D02*
X479531654Y-396375128D01*
X479531654Y-395446557D02*
X479603083Y-395517985D01*
X479603083Y-395517985D02*
X479531654Y-395589414D01*
X479531654Y-395589414D02*
X479460226Y-395517985D01*
X479460226Y-395517985D02*
X479531654Y-395446557D01*
X479531654Y-395446557D02*
X479531654Y-395589414D01*
X482245940Y-396232271D02*
X482174512Y-396303700D01*
X482174512Y-396303700D02*
X481960226Y-396375128D01*
X481960226Y-396375128D02*
X481817369Y-396375128D01*
X481817369Y-396375128D02*
X481603083Y-396303700D01*
X481603083Y-396303700D02*
X481460226Y-396160842D01*
X481460226Y-396160842D02*
X481388797Y-396017985D01*
X481388797Y-396017985D02*
X481317369Y-395732271D01*
X481317369Y-395732271D02*
X481317369Y-395517985D01*
X481317369Y-395517985D02*
X481388797Y-395232271D01*
X481388797Y-395232271D02*
X481460226Y-395089414D01*
X481460226Y-395089414D02*
X481603083Y-394946557D01*
X481603083Y-394946557D02*
X481817369Y-394875128D01*
X481817369Y-394875128D02*
X481960226Y-394875128D01*
X481960226Y-394875128D02*
X482174512Y-394946557D01*
X482174512Y-394946557D02*
X482245940Y-395017985D01*
X482888797Y-396375128D02*
X482888797Y-394875128D01*
X482888797Y-394875128D02*
X483388797Y-395946557D01*
X483388797Y-395946557D02*
X483888797Y-394875128D01*
X483888797Y-394875128D02*
X483888797Y-396375128D01*
X485317369Y-394875128D02*
X484603083Y-394875128D01*
X484603083Y-394875128D02*
X484531655Y-395589414D01*
X484531655Y-395589414D02*
X484603083Y-395517985D01*
X484603083Y-395517985D02*
X484745941Y-395446557D01*
X484745941Y-395446557D02*
X485103083Y-395446557D01*
X485103083Y-395446557D02*
X485245941Y-395517985D01*
X485245941Y-395517985D02*
X485317369Y-395589414D01*
X485317369Y-395589414D02*
X485388798Y-395732271D01*
X485388798Y-395732271D02*
X485388798Y-396089414D01*
X485388798Y-396089414D02*
X485317369Y-396232271D01*
X485317369Y-396232271D02*
X485245941Y-396303700D01*
X485245941Y-396303700D02*
X485103083Y-396375128D01*
X485103083Y-396375128D02*
X484745941Y-396375128D01*
X484745941Y-396375128D02*
X484603083Y-396303700D01*
X484603083Y-396303700D02*
X484531655Y-396232271D01*
X486031654Y-396375128D02*
X486031654Y-394875128D01*
X487031655Y-394875128D02*
X487317369Y-394875128D01*
X487317369Y-394875128D02*
X487460226Y-394946557D01*
X487460226Y-394946557D02*
X487603083Y-395089414D01*
X487603083Y-395089414D02*
X487674512Y-395375128D01*
X487674512Y-395375128D02*
X487674512Y-395875128D01*
X487674512Y-395875128D02*
X487603083Y-396160842D01*
X487603083Y-396160842D02*
X487460226Y-396303700D01*
X487460226Y-396303700D02*
X487317369Y-396375128D01*
X487317369Y-396375128D02*
X487031655Y-396375128D01*
X487031655Y-396375128D02*
X486888798Y-396303700D01*
X486888798Y-396303700D02*
X486745940Y-396160842D01*
X486745940Y-396160842D02*
X486674512Y-395875128D01*
X486674512Y-395875128D02*
X486674512Y-395375128D01*
X486674512Y-395375128D02*
X486745940Y-395089414D01*
X486745940Y-395089414D02*
X486888798Y-394946557D01*
X486888798Y-394946557D02*
X487031655Y-394875128D01*
X488317369Y-396232271D02*
X488388798Y-396303700D01*
X488388798Y-396303700D02*
X488317369Y-396375128D01*
X488317369Y-396375128D02*
X488245941Y-396303700D01*
X488245941Y-396303700D02*
X488317369Y-396232271D01*
X488317369Y-396232271D02*
X488317369Y-396375128D01*
X489031655Y-396375128D02*
X489031655Y-394875128D01*
X489174513Y-395803700D02*
X489603084Y-396375128D01*
X489603084Y-395375128D02*
X489031655Y-395946557D01*
X490245941Y-396375128D02*
X490245941Y-395375128D01*
X490245941Y-394875128D02*
X490174513Y-394946557D01*
X490174513Y-394946557D02*
X490245941Y-395017985D01*
X490245941Y-395017985D02*
X490317370Y-394946557D01*
X490317370Y-394946557D02*
X490245941Y-394875128D01*
X490245941Y-394875128D02*
X490245941Y-395017985D01*
X491603085Y-396303700D02*
X491460227Y-396375128D01*
X491460227Y-396375128D02*
X491174513Y-396375128D01*
X491174513Y-396375128D02*
X491031656Y-396303700D01*
X491031656Y-396303700D02*
X490960227Y-396232271D01*
X490960227Y-396232271D02*
X490888799Y-396089414D01*
X490888799Y-396089414D02*
X490888799Y-395660842D01*
X490888799Y-395660842D02*
X490960227Y-395517985D01*
X490960227Y-395517985D02*
X491031656Y-395446557D01*
X491031656Y-395446557D02*
X491174513Y-395375128D01*
X491174513Y-395375128D02*
X491460227Y-395375128D01*
X491460227Y-395375128D02*
X491603085Y-395446557D01*
X492888799Y-396375128D02*
X492888799Y-395589414D01*
X492888799Y-395589414D02*
X492817370Y-395446557D01*
X492817370Y-395446557D02*
X492674513Y-395375128D01*
X492674513Y-395375128D02*
X492388799Y-395375128D01*
X492388799Y-395375128D02*
X492245941Y-395446557D01*
X492888799Y-396303700D02*
X492745941Y-396375128D01*
X492745941Y-396375128D02*
X492388799Y-396375128D01*
X492388799Y-396375128D02*
X492245941Y-396303700D01*
X492245941Y-396303700D02*
X492174513Y-396160842D01*
X492174513Y-396160842D02*
X492174513Y-396017985D01*
X492174513Y-396017985D02*
X492245941Y-395875128D01*
X492245941Y-395875128D02*
X492388799Y-395803700D01*
X492388799Y-395803700D02*
X492745941Y-395803700D01*
X492745941Y-395803700D02*
X492888799Y-395732271D01*
X494245942Y-396375128D02*
X494245942Y-394875128D01*
X494245942Y-396303700D02*
X494103084Y-396375128D01*
X494103084Y-396375128D02*
X493817370Y-396375128D01*
X493817370Y-396375128D02*
X493674513Y-396303700D01*
X493674513Y-396303700D02*
X493603084Y-396232271D01*
X493603084Y-396232271D02*
X493531656Y-396089414D01*
X493531656Y-396089414D02*
X493531656Y-395660842D01*
X493531656Y-395660842D02*
X493603084Y-395517985D01*
X493603084Y-395517985D02*
X493674513Y-395446557D01*
X493674513Y-395446557D02*
X493817370Y-395375128D01*
X493817370Y-395375128D02*
X494103084Y-395375128D01*
X494103084Y-395375128D02*
X494245942Y-395446557D01*
X494603085Y-396517985D02*
X495745942Y-396517985D01*
X496103084Y-395375128D02*
X496103084Y-396875128D01*
X496103084Y-395446557D02*
X496245942Y-395375128D01*
X496245942Y-395375128D02*
X496531656Y-395375128D01*
X496531656Y-395375128D02*
X496674513Y-395446557D01*
X496674513Y-395446557D02*
X496745942Y-395517985D01*
X496745942Y-395517985D02*
X496817370Y-395660842D01*
X496817370Y-395660842D02*
X496817370Y-396089414D01*
X496817370Y-396089414D02*
X496745942Y-396232271D01*
X496745942Y-396232271D02*
X496674513Y-396303700D01*
X496674513Y-396303700D02*
X496531656Y-396375128D01*
X496531656Y-396375128D02*
X496245942Y-396375128D01*
X496245942Y-396375128D02*
X496103084Y-396303700D01*
X498103085Y-396303700D02*
X497960227Y-396375128D01*
X497960227Y-396375128D02*
X497674513Y-396375128D01*
X497674513Y-396375128D02*
X497531656Y-396303700D01*
X497531656Y-396303700D02*
X497460227Y-396232271D01*
X497460227Y-396232271D02*
X497388799Y-396089414D01*
X497388799Y-396089414D02*
X497388799Y-395660842D01*
X497388799Y-395660842D02*
X497460227Y-395517985D01*
X497460227Y-395517985D02*
X497531656Y-395446557D01*
X497531656Y-395446557D02*
X497674513Y-395375128D01*
X497674513Y-395375128D02*
X497960227Y-395375128D01*
X497960227Y-395375128D02*
X498103085Y-395446557D01*
X498745941Y-396375128D02*
X498745941Y-394875128D01*
X498745941Y-395446557D02*
X498888799Y-395375128D01*
X498888799Y-395375128D02*
X499174513Y-395375128D01*
X499174513Y-395375128D02*
X499317370Y-395446557D01*
X499317370Y-395446557D02*
X499388799Y-395517985D01*
X499388799Y-395517985D02*
X499460227Y-395660842D01*
X499460227Y-395660842D02*
X499460227Y-396089414D01*
X499460227Y-396089414D02*
X499388799Y-396232271D01*
X499388799Y-396232271D02*
X499317370Y-396303700D01*
X499317370Y-396303700D02*
X499174513Y-396375128D01*
X499174513Y-396375128D02*
X498888799Y-396375128D01*
X498888799Y-396375128D02*
X498745941Y-396303700D01*
D10*
D11*
X474004400Y-391489000D02*
X582004400Y-391489000D01*
D10*
D11*
X475388798Y-393603700D02*
X475603084Y-393675128D01*
X475603084Y-393675128D02*
X475960226Y-393675128D01*
X475960226Y-393675128D02*
X476103084Y-393603700D01*
X476103084Y-393603700D02*
X476174512Y-393532271D01*
X476174512Y-393532271D02*
X476245941Y-393389414D01*
X476245941Y-393389414D02*
X476245941Y-393246557D01*
X476245941Y-393246557D02*
X476174512Y-393103700D01*
X476174512Y-393103700D02*
X476103084Y-393032271D01*
X476103084Y-393032271D02*
X475960226Y-392960842D01*
X475960226Y-392960842D02*
X475674512Y-392889414D01*
X475674512Y-392889414D02*
X475531655Y-392817985D01*
X475531655Y-392817985D02*
X475460226Y-392746557D01*
X475460226Y-392746557D02*
X475388798Y-392603700D01*
X475388798Y-392603700D02*
X475388798Y-392460842D01*
X475388798Y-392460842D02*
X475460226Y-392317985D01*
X475460226Y-392317985D02*
X475531655Y-392246557D01*
X475531655Y-392246557D02*
X475674512Y-392175128D01*
X475674512Y-392175128D02*
X476031655Y-392175128D01*
X476031655Y-392175128D02*
X476245941Y-392246557D01*
X476888797Y-393675128D02*
X476888797Y-392175128D01*
X477531655Y-393675128D02*
X477531655Y-392889414D01*
X477531655Y-392889414D02*
X477460226Y-392746557D01*
X477460226Y-392746557D02*
X477317369Y-392675128D01*
X477317369Y-392675128D02*
X477103083Y-392675128D01*
X477103083Y-392675128D02*
X476960226Y-392746557D01*
X476960226Y-392746557D02*
X476888797Y-392817985D01*
X478817369Y-393603700D02*
X478674512Y-393675128D01*
X478674512Y-393675128D02*
X478388798Y-393675128D01*
X478388798Y-393675128D02*
X478245940Y-393603700D01*
X478245940Y-393603700D02*
X478174512Y-393460842D01*
X478174512Y-393460842D02*
X478174512Y-392889414D01*
X478174512Y-392889414D02*
X478245940Y-392746557D01*
X478245940Y-392746557D02*
X478388798Y-392675128D01*
X478388798Y-392675128D02*
X478674512Y-392675128D01*
X478674512Y-392675128D02*
X478817369Y-392746557D01*
X478817369Y-392746557D02*
X478888798Y-392889414D01*
X478888798Y-392889414D02*
X478888798Y-393032271D01*
X478888798Y-393032271D02*
X478174512Y-393175128D01*
X480103083Y-393603700D02*
X479960226Y-393675128D01*
X479960226Y-393675128D02*
X479674512Y-393675128D01*
X479674512Y-393675128D02*
X479531654Y-393603700D01*
X479531654Y-393603700D02*
X479460226Y-393460842D01*
X479460226Y-393460842D02*
X479460226Y-392889414D01*
X479460226Y-392889414D02*
X479531654Y-392746557D01*
X479531654Y-392746557D02*
X479674512Y-392675128D01*
X479674512Y-392675128D02*
X479960226Y-392675128D01*
X479960226Y-392675128D02*
X480103083Y-392746557D01*
X480103083Y-392746557D02*
X480174512Y-392889414D01*
X480174512Y-392889414D02*
X480174512Y-393032271D01*
X480174512Y-393032271D02*
X479460226Y-393175128D01*
X480603083Y-392675128D02*
X481174511Y-392675128D01*
X480817368Y-392175128D02*
X480817368Y-393460842D01*
X480817368Y-393460842D02*
X480888797Y-393603700D01*
X480888797Y-393603700D02*
X481031654Y-393675128D01*
X481031654Y-393675128D02*
X481174511Y-393675128D01*
X481674511Y-393532271D02*
X481745940Y-393603700D01*
X481745940Y-393603700D02*
X481674511Y-393675128D01*
X481674511Y-393675128D02*
X481603083Y-393603700D01*
X481603083Y-393603700D02*
X481674511Y-393532271D01*
X481674511Y-393532271D02*
X481674511Y-393675128D01*
X481674511Y-392746557D02*
X481745940Y-392817985D01*
X481745940Y-392817985D02*
X481674511Y-392889414D01*
X481674511Y-392889414D02*
X481603083Y-392817985D01*
X481603083Y-392817985D02*
X481674511Y-392746557D01*
X481674511Y-392746557D02*
X481674511Y-392889414D01*
D10*
D11*
X494004400Y-401489000D02*
X494004400Y-404489000D01*
D10*
D11*
X558004400Y-401489000D02*
X558004400Y-407989000D01*
D14*
%TO.C,HS1*%
X181770625Y-182766251D03*
D15*
X128117500Y-150985000D03*
%TD*%
D16*
%TO.C,DSI1*%
X203850000Y-257250000D03*
X203850000Y-242950000D03*
D17*
X207100000Y-244850000D03*
X207100000Y-245350000D03*
X207100000Y-245850000D03*
X207100000Y-246350000D03*
X207100000Y-246850000D03*
X207100000Y-247350000D03*
X207100000Y-247850000D03*
X207100000Y-248350000D03*
X207100000Y-248850000D03*
X207100000Y-249350000D03*
X207100000Y-249850000D03*
X207100000Y-250350000D03*
X207100000Y-250850000D03*
X207100000Y-251350000D03*
X207100000Y-251850000D03*
X207100000Y-252350000D03*
X207100000Y-252850000D03*
X207100000Y-253350000D03*
X207100000Y-253850000D03*
X207100000Y-254350000D03*
X207100000Y-254850000D03*
X207100000Y-255350000D03*
%TD*%
D16*
%TO.C,DSI2*%
X203750000Y-238000000D03*
X203750000Y-223700000D03*
D17*
X207000000Y-225600000D03*
X207000000Y-226100000D03*
X207000000Y-226600000D03*
X207000000Y-227100000D03*
X207000000Y-227600000D03*
X207000000Y-228100000D03*
X207000000Y-228600000D03*
X207000000Y-229100000D03*
X207000000Y-229600000D03*
X207000000Y-230100000D03*
X207000000Y-230600000D03*
X207000000Y-231100000D03*
X207000000Y-231600000D03*
X207000000Y-232100000D03*
X207000000Y-232600000D03*
X207000000Y-233100000D03*
X207000000Y-233600000D03*
X207000000Y-234100000D03*
X207000000Y-234600000D03*
X207000000Y-235100000D03*
X207000000Y-235600000D03*
X207000000Y-236100000D03*
%TD*%
D18*
%TO.C,J2*%
X254400000Y-274710000D03*
X256400000Y-274660000D03*
X258400000Y-274710000D03*
X260400000Y-274710000D03*
X262400000Y-274710000D03*
X261900000Y-276210000D03*
X259400000Y-276210000D03*
X257400000Y-276210000D03*
X254900000Y-276210000D03*
X254400000Y-277910000D03*
X256400000Y-277860000D03*
X258400000Y-277910000D03*
X260400000Y-277910000D03*
X262400000Y-277910000D03*
X261900000Y-279410000D03*
X259400000Y-279410000D03*
X257400000Y-279410000D03*
X254900000Y-279410000D03*
D19*
X264970000Y-281410000D03*
X264970000Y-275730000D03*
X251830000Y-281410000D03*
X251830000Y-275730000D03*
%TD*%
D20*
%TO.C,J3*%
X227300000Y-286300000D03*
X212800000Y-286300000D03*
D21*
X212800000Y-280340000D03*
X227300000Y-280340000D03*
D22*
X215550000Y-279610000D03*
X216050000Y-279610000D03*
X216550000Y-279610000D03*
X217050000Y-279610000D03*
X217550000Y-279610000D03*
X218050000Y-279610000D03*
X218550000Y-279610000D03*
X219050000Y-279610000D03*
X219550000Y-279610000D03*
X220050000Y-279610000D03*
X220550000Y-279610000D03*
X221050000Y-279610000D03*
X221550000Y-279610000D03*
X222050000Y-279610000D03*
X222550000Y-279610000D03*
X223050000Y-279610000D03*
X223550000Y-279610000D03*
X224050000Y-279610000D03*
X224550000Y-279610000D03*
%TD*%
D20*
%TO.C,J4*%
X246700000Y-286397500D03*
X232200000Y-286397500D03*
D21*
X232200000Y-280437500D03*
X246700000Y-280437500D03*
D22*
X234950000Y-279707500D03*
X235450000Y-279707500D03*
X235950000Y-279707500D03*
X236450000Y-279707500D03*
X236950000Y-279707500D03*
X237450000Y-279707500D03*
X237950000Y-279707500D03*
X238450000Y-279707500D03*
X238950000Y-279707500D03*
X239450000Y-279707500D03*
X239950000Y-279707500D03*
X240450000Y-279707500D03*
X240950000Y-279707500D03*
X241450000Y-279707500D03*
X241950000Y-279707500D03*
X242450000Y-279707500D03*
X242950000Y-279707500D03*
X243450000Y-279707500D03*
X243950000Y-279707500D03*
%TD*%
D23*
%TO.C,J11*%
X264865000Y-219665000D03*
X262325000Y-219665000D03*
X264865000Y-217125000D03*
D24*
X262325000Y-217125000D03*
%TD*%
D25*
%TO.C,SPEAKER1*%
X287900000Y-245600000D03*
D26*
X285900000Y-245600000D03*
%TD*%
D25*
%TO.C,SPI1*%
X307200000Y-206550000D03*
X305200000Y-206550000D03*
X303200000Y-206550000D03*
X301200000Y-206550000D03*
X299200000Y-206550000D03*
D26*
X297200000Y-206550000D03*
%TD*%
D25*
%TO.C,SPI2*%
X307200000Y-213150000D03*
X305200000Y-213150000D03*
X303200000Y-213150000D03*
X301200000Y-213150000D03*
X299200000Y-213150000D03*
D26*
X297200000Y-213150000D03*
%TD*%
D25*
%TO.C,SPI3*%
X307200000Y-219650000D03*
X305200000Y-219650000D03*
X303200000Y-219650000D03*
X301200000Y-219650000D03*
X299200000Y-219650000D03*
D26*
X297200000Y-219650000D03*
%TD*%
D25*
%TO.C,SPI4*%
X307100000Y-226450000D03*
X305100000Y-226450000D03*
X303100000Y-226450000D03*
X301100000Y-226450000D03*
X299100000Y-226450000D03*
D26*
X297100000Y-226450000D03*
%TD*%
D23*
%TO.C,SW2*%
X312500000Y-276265000D03*
D24*
X312500000Y-273725000D03*
%TD*%
D23*
%TO.C,SW3*%
X317090000Y-276265000D03*
D24*
X317090000Y-273725000D03*
%TD*%
D23*
%TO.C,SW4*%
X321680000Y-276265000D03*
D24*
X321680000Y-273725000D03*
%TD*%
D27*
%TO.C,C7*%
X277200000Y-267650000D03*
X277200000Y-265750000D03*
%TD*%
D28*
%TO.C,D1*%
X259200000Y-251300000D03*
X259200000Y-248500000D03*
%TD*%
D29*
%TO.C,D2*%
X259200000Y-243800000D03*
X259200000Y-246600000D03*
%TD*%
D30*
%TO.C,R13*%
X282175000Y-262447500D03*
X282175000Y-260622500D03*
%TD*%
%TO.C,R11*%
X277175000Y-256822500D03*
X277175000Y-258647500D03*
%TD*%
%TO.C,R12*%
X279675000Y-262447500D03*
X279675000Y-260622500D03*
%TD*%
%TO.C,R10*%
X277175000Y-262447500D03*
X277175000Y-260622500D03*
%TD*%
D31*
%TO.C,R8*%
X259200000Y-255787500D03*
X259200000Y-257612500D03*
%TD*%
D30*
%TO.C,R7*%
X274675000Y-262447500D03*
X274675000Y-260622500D03*
%TD*%
%TO.C,R5*%
X269775000Y-262447500D03*
X269775000Y-260622500D03*
%TD*%
%TO.C,R6*%
X272175000Y-262447500D03*
X272175000Y-260622500D03*
%TD*%
%TO.C,R9*%
X259200000Y-238812500D03*
X259200000Y-236987500D03*
%TD*%
D24*
%TO.C,J13*%
X285525000Y-264625000D03*
D23*
X288065000Y-264625000D03*
X285525000Y-267165000D03*
X288065000Y-267165000D03*
%TD*%
D32*
%TO.C,J12*%
X263050000Y-256100000D03*
D33*
X263050000Y-254100000D03*
X263050000Y-252100000D03*
X263050000Y-250100000D03*
%TD*%
D34*
%TO.C,DSW2*%
X260700000Y-261610000D03*
X260700000Y-262880000D03*
X260700000Y-264150000D03*
X260700000Y-265420000D03*
X260700000Y-266690000D03*
X260700000Y-267960000D03*
X260700000Y-269230000D03*
X260700000Y-270500000D03*
X265780000Y-270500000D03*
X265780000Y-269230000D03*
X265780000Y-267960000D03*
X265780000Y-266690000D03*
X265780000Y-265420000D03*
X265780000Y-264150000D03*
X265780000Y-262880000D03*
X265780000Y-261610000D03*
%TD*%
D24*
%TO.C,GPIO1*%
X253325000Y-222075000D03*
D23*
X255865000Y-222075000D03*
X253325000Y-224615000D03*
X255865000Y-224615000D03*
X253325000Y-227155000D03*
X255865000Y-227155000D03*
X253325000Y-229695000D03*
X255865000Y-229695000D03*
X253325000Y-232235000D03*
X255865000Y-232235000D03*
X253325000Y-234775000D03*
X255865000Y-234775000D03*
X253325000Y-237315000D03*
X255865000Y-237315000D03*
X253325000Y-239855000D03*
X255865000Y-239855000D03*
X253325000Y-242395000D03*
X255865000Y-242395000D03*
X253325000Y-244935000D03*
X255865000Y-244935000D03*
X253325000Y-247475000D03*
X255865000Y-247475000D03*
X253325000Y-250015000D03*
X255865000Y-250015000D03*
X253325000Y-252555000D03*
X255865000Y-252555000D03*
X253325000Y-255095000D03*
X255865000Y-255095000D03*
X253325000Y-257635000D03*
X255865000Y-257635000D03*
X253325000Y-260175000D03*
X255865000Y-260175000D03*
X253325000Y-262715000D03*
X255865000Y-262715000D03*
X253325000Y-265255000D03*
X255865000Y-265255000D03*
X253325000Y-267795000D03*
X255865000Y-267795000D03*
X253325000Y-270335000D03*
X255865000Y-270335000D03*
%TD*%
D35*
%TO.C,U3*%
X263450000Y-238250000D03*
X263450000Y-237600000D03*
X263450000Y-236950000D03*
X261550000Y-236950000D03*
X261550000Y-238250000D03*
%TD*%
D36*
%TO.C,U5*%
X273000000Y-266015000D03*
X272500000Y-266015000D03*
X272000000Y-266015000D03*
X271500000Y-266015000D03*
X271000000Y-266015000D03*
X271000000Y-266785000D03*
X271500000Y-266785000D03*
X272000000Y-266785000D03*
X272500000Y-266785000D03*
X273000000Y-266785000D03*
%TD*%
%TO.C,U4*%
X282900000Y-266030000D03*
X282400000Y-266030000D03*
X281900000Y-266030000D03*
X281400000Y-266030000D03*
X280900000Y-266030000D03*
X280900000Y-266800000D03*
X281400000Y-266800000D03*
X281900000Y-266800000D03*
X282400000Y-266800000D03*
X282900000Y-266800000D03*
%TD*%
D37*
%TO.C,C9*%
X222150000Y-218010000D03*
X224050000Y-218010000D03*
%TD*%
%TO.C,C11*%
X222100000Y-192000000D03*
X224000000Y-192000000D03*
%TD*%
%TO.C,C8*%
X230250000Y-218000000D03*
X232150000Y-218000000D03*
%TD*%
%TO.C,C10*%
X230500000Y-192000000D03*
X232400000Y-192000000D03*
%TD*%
%TO.C,C83*%
X288250000Y-213800000D03*
X290150000Y-213800000D03*
%TD*%
%TO.C,C82*%
X284450000Y-213800000D03*
X286350000Y-213800000D03*
%TD*%
D27*
%TO.C,C84*%
X259300000Y-232900000D03*
X259300000Y-231000000D03*
%TD*%
D38*
%TO.C,U50*%
X343350000Y-198460000D03*
X343350000Y-201000000D03*
X343350000Y-203540000D03*
X343350000Y-206080000D03*
X343350000Y-208620000D03*
X343350000Y-211160000D03*
X343350000Y-213700000D03*
X343350000Y-216240000D03*
D39*
X330650000Y-198460000D03*
D38*
X330650000Y-201000000D03*
X330650000Y-203540000D03*
X330650000Y-206080000D03*
X330650000Y-208620000D03*
X330650000Y-211160000D03*
X330650000Y-213700000D03*
X330650000Y-216240000D03*
X340810000Y-216240000D03*
X338270000Y-216240000D03*
%TD*%
%TO.C,U51*%
X343450000Y-221660000D03*
X343450000Y-224200000D03*
X343450000Y-226740000D03*
X343450000Y-229280000D03*
X343450000Y-231820000D03*
X343450000Y-234360000D03*
X343450000Y-236900000D03*
X343450000Y-239440000D03*
D39*
X330750000Y-221660000D03*
D38*
X330750000Y-224200000D03*
X330750000Y-226740000D03*
X330750000Y-229280000D03*
X330750000Y-231820000D03*
X330750000Y-234360000D03*
X330750000Y-236900000D03*
X330750000Y-239440000D03*
X340910000Y-239440000D03*
X338370000Y-239440000D03*
%TD*%
%TO.C,U49*%
X325192500Y-221652500D03*
X325192500Y-224192500D03*
X325192500Y-226732500D03*
X325192500Y-229272500D03*
X325192500Y-231812500D03*
X325192500Y-234352500D03*
X325192500Y-236892500D03*
X325192500Y-239432500D03*
D39*
X312492500Y-221652500D03*
D38*
X312492500Y-224192500D03*
X312492500Y-226732500D03*
X312492500Y-229272500D03*
X312492500Y-231812500D03*
X312492500Y-234352500D03*
X312492500Y-236892500D03*
X312492500Y-239432500D03*
X322652500Y-239432500D03*
X320112500Y-239432500D03*
%TD*%
D40*
%TO.C,D3*%
X244800000Y-191900000D03*
X247600000Y-191900000D03*
%TD*%
D41*
%TO.C,CT1*%
X208800000Y-205720000D03*
X208800000Y-199480000D03*
%TD*%
D42*
%TO.C,CT3*%
X269720000Y-211600000D03*
X263480000Y-211600000D03*
%TD*%
D24*
%TO.C,GPIO2*%
X278025000Y-220690000D03*
D23*
X280565000Y-220690000D03*
X278025000Y-223230000D03*
X280565000Y-223230000D03*
X278025000Y-225770000D03*
X280565000Y-225770000D03*
X278025000Y-228310000D03*
X280565000Y-228310000D03*
X278025000Y-230850000D03*
X280565000Y-230850000D03*
X278025000Y-233390000D03*
X280565000Y-233390000D03*
X278025000Y-235930000D03*
X280565000Y-235930000D03*
X278025000Y-238470000D03*
X280565000Y-238470000D03*
X278025000Y-241010000D03*
X280565000Y-241010000D03*
X278025000Y-243550000D03*
X280565000Y-243550000D03*
X278025000Y-246090000D03*
X280565000Y-246090000D03*
X278025000Y-248630000D03*
X280565000Y-248630000D03*
X278025000Y-251170000D03*
X280565000Y-251170000D03*
X278025000Y-253710000D03*
X280565000Y-253710000D03*
%TD*%
D43*
%TO.C,R47*%
X273962500Y-220700000D03*
X271037500Y-220700000D03*
%TD*%
D44*
%TO.C,R38*%
X284837500Y-225100000D03*
X287762500Y-225100000D03*
%TD*%
D32*
%TO.C,M7*%
X349550000Y-212400000D03*
D33*
X349550000Y-210400000D03*
X349550000Y-208400000D03*
X349550000Y-206400000D03*
X349550000Y-204400000D03*
X349550000Y-202400000D03*
%TD*%
D45*
%TO.C,M6*%
X342200000Y-193750000D03*
D25*
X340200000Y-193750000D03*
X338200000Y-193750000D03*
X336200000Y-193750000D03*
X334200000Y-193750000D03*
X332200000Y-193750000D03*
%TD*%
D46*
%TO.C,Q3*%
X272250000Y-224362500D03*
X270350000Y-224362500D03*
X271300000Y-226237500D03*
%TD*%
%TO.C,Q2*%
X272250000Y-228662500D03*
X270350000Y-228662500D03*
X271300000Y-230537500D03*
%TD*%
D45*
%TO.C,M4*%
X323900000Y-193650000D03*
D25*
X321900000Y-193650000D03*
X319900000Y-193650000D03*
X317900000Y-193650000D03*
X315900000Y-193650000D03*
X313900000Y-193650000D03*
%TD*%
D32*
%TO.C,M5*%
X349350000Y-234900000D03*
D33*
X349350000Y-232900000D03*
X349350000Y-230900000D03*
X349350000Y-228900000D03*
X349350000Y-226900000D03*
X349350000Y-224900000D03*
%TD*%
D45*
%TO.C,J32*%
X287500000Y-233600000D03*
D25*
X285500000Y-233600000D03*
%TD*%
D45*
%TO.C,J31*%
X287500000Y-240050000D03*
D25*
X285500000Y-240050000D03*
%TD*%
D26*
%TO.C,I2C_2*%
X300900000Y-239100000D03*
D25*
X302900000Y-239100000D03*
X304900000Y-239100000D03*
X306900000Y-239100000D03*
%TD*%
D47*
%TO.C,J7*%
X291500000Y-274377500D03*
X294000000Y-274377500D03*
X296000000Y-274377500D03*
X298500000Y-274377500D03*
X291500000Y-276997500D03*
X294000000Y-276997500D03*
X296000000Y-276997500D03*
X298500000Y-276997500D03*
D48*
X288430000Y-274027500D03*
X288430000Y-279707500D03*
X301570000Y-274027500D03*
X301570000Y-279707500D03*
%TD*%
D49*
%TO.C,J1*%
X342100000Y-275100000D03*
D50*
X349300000Y-275100000D03*
%TD*%
D26*
%TO.C,I2C_1*%
X301000000Y-232850000D03*
D25*
X303000000Y-232850000D03*
X305000000Y-232850000D03*
X307000000Y-232850000D03*
%TD*%
D26*
%TO.C,DC6*%
X293200000Y-265300000D03*
D25*
X295200000Y-265300000D03*
%TD*%
D26*
%TO.C,DC3*%
X293200000Y-245650000D03*
D25*
X295200000Y-245650000D03*
%TD*%
D26*
%TO.C,DC4*%
X293200000Y-252200000D03*
D25*
X295200000Y-252200000D03*
%TD*%
D51*
%TO.C,FB2*%
X347237500Y-219000000D03*
X353162500Y-219000000D03*
%TD*%
D34*
%TO.C,DSW1*%
X268560000Y-247455000D03*
X268560000Y-248725000D03*
X268560000Y-249995000D03*
X268560000Y-251265000D03*
X268560000Y-252535000D03*
X268560000Y-253805000D03*
X268560000Y-255075000D03*
X268560000Y-256345000D03*
X273640000Y-256345000D03*
X273640000Y-255075000D03*
X273640000Y-253805000D03*
X273640000Y-252535000D03*
X273640000Y-251265000D03*
X273640000Y-249995000D03*
X273640000Y-248725000D03*
X273640000Y-247455000D03*
%TD*%
%TO.C,DSW3*%
X268660000Y-235055000D03*
X268660000Y-236325000D03*
X268660000Y-237595000D03*
X268660000Y-238865000D03*
X268660000Y-240135000D03*
X268660000Y-241405000D03*
X268660000Y-242675000D03*
X268660000Y-243945000D03*
X273740000Y-243945000D03*
X273740000Y-242675000D03*
X273740000Y-241405000D03*
X273740000Y-240135000D03*
X273740000Y-238865000D03*
X273740000Y-237595000D03*
X273740000Y-236325000D03*
X273740000Y-235055000D03*
%TD*%
D26*
%TO.C,DC5*%
X293200000Y-258750000D03*
D25*
X295200000Y-258750000D03*
%TD*%
D26*
%TO.C,DC2*%
X293200000Y-239100000D03*
D25*
X295200000Y-239100000D03*
%TD*%
D26*
%TO.C,SERVO2*%
X300800000Y-252200000D03*
D25*
X302800000Y-252200000D03*
X304800000Y-252200000D03*
%TD*%
D26*
%TO.C,SERVO1*%
X300800000Y-245650000D03*
D25*
X302800000Y-245650000D03*
X304800000Y-245650000D03*
%TD*%
D52*
%TO.C,R70*%
X302187500Y-197000000D03*
X304012500Y-197000000D03*
%TD*%
D53*
%TO.C,R74*%
X268412500Y-229600000D03*
X266587500Y-229600000D03*
%TD*%
D52*
%TO.C,R73*%
X266487500Y-222800000D03*
X268312500Y-222800000D03*
%TD*%
D53*
%TO.C,R72*%
X268312500Y-226200000D03*
X266487500Y-226200000D03*
%TD*%
D52*
%TO.C,R69*%
X295175000Y-201200000D03*
X297000000Y-201200000D03*
%TD*%
%TO.C,R71*%
X302175000Y-192600000D03*
X304000000Y-192600000D03*
%TD*%
D54*
%TO.C,U20*%
X286800000Y-217000000D03*
X286300000Y-217000000D03*
X285800000Y-217000000D03*
X285300000Y-217000000D03*
X284800000Y-217000000D03*
X284800000Y-221400000D03*
X285300000Y-221400000D03*
X285800000Y-221400000D03*
X286300000Y-221400000D03*
X286800000Y-221400000D03*
%TD*%
%TO.C,U29*%
X275200000Y-213300000D03*
X274700000Y-213300000D03*
X274200000Y-213300000D03*
X273700000Y-213300000D03*
X273200000Y-213300000D03*
X273200000Y-217700000D03*
X273700000Y-217700000D03*
X274200000Y-217700000D03*
X274700000Y-217700000D03*
X275200000Y-217700000D03*
%TD*%
D55*
%TO.C,U7*%
X217700000Y-191250000D03*
X215500000Y-191250000D03*
X215500000Y-192950000D03*
X217700000Y-192950000D03*
%TD*%
D56*
%TO.C,TP1*%
X209900000Y-192000000D03*
%TD*%
D26*
%TO.C,SERVO3*%
X300800000Y-258750000D03*
D25*
X302800000Y-258750000D03*
X304800000Y-258750000D03*
%TD*%
D26*
%TO.C,SERVO4*%
X300800000Y-265300000D03*
D25*
X302800000Y-265300000D03*
X304800000Y-265300000D03*
%TD*%
D26*
%TO.C,DC1*%
X293200000Y-232550000D03*
D25*
X295200000Y-232550000D03*
%TD*%
D33*
%TO.C,BT1*%
X263200000Y-242300000D03*
D32*
X263200000Y-244300000D03*
%TD*%
D57*
%TO.C,TP5*%
X203600000Y-208800000D03*
%TD*%
D58*
%TO.C,C81*%
X303737500Y-201200000D03*
X305637500Y-201200000D03*
%TD*%
D59*
%TO.C,C80*%
X259100000Y-223450000D03*
X259100000Y-225350000D03*
%TD*%
D42*
%TO.C,C78*%
X269720000Y-205800000D03*
X263480000Y-205800000D03*
%TD*%
D37*
%TO.C,C79*%
X280650000Y-213800000D03*
X282550000Y-213800000D03*
%TD*%
D60*
%TO.C,D4*%
X301687500Y-201200000D03*
X298887500Y-201200000D03*
%TD*%
D61*
%TO.C,ESP1*%
X275045000Y-191040000D03*
X275045000Y-192310000D03*
X275045000Y-193580000D03*
X275045000Y-194850000D03*
X275045000Y-196120000D03*
X275045000Y-197390000D03*
X275045000Y-198660000D03*
X275045000Y-199930000D03*
X275045000Y-201200000D03*
X275045000Y-202470000D03*
X275045000Y-203740000D03*
X275045000Y-205010000D03*
X275045000Y-206280000D03*
X275045000Y-207550000D03*
D62*
X276810000Y-208800000D03*
X278080000Y-208800000D03*
X279350000Y-208800000D03*
X280620000Y-208800000D03*
X281890000Y-208800000D03*
X283160000Y-208800000D03*
X284430000Y-208800000D03*
X285700000Y-208800000D03*
X286970000Y-208800000D03*
X288240000Y-208800000D03*
X289510000Y-208800000D03*
X290780000Y-208800000D03*
D61*
X292545000Y-207550000D03*
X292545000Y-206280000D03*
X292545000Y-205010000D03*
X292545000Y-203740000D03*
X292545000Y-202470000D03*
X292545000Y-201200000D03*
X292545000Y-199930000D03*
X292545000Y-198660000D03*
X292545000Y-197390000D03*
X292545000Y-196120000D03*
X292545000Y-194850000D03*
X292545000Y-193580000D03*
X292545000Y-192310000D03*
X292545000Y-191040000D03*
D63*
X280935000Y-194890000D03*
D64*
X280935000Y-195640000D03*
D63*
X280935000Y-196390000D03*
D64*
X280935000Y-197140000D03*
D63*
X280935000Y-197890000D03*
D64*
X281685000Y-194890000D03*
X281685000Y-196390000D03*
X281685000Y-197890000D03*
D63*
X282435000Y-194890000D03*
D64*
X282435000Y-195640000D03*
D63*
X282435000Y-196390000D03*
D64*
X282435000Y-197140000D03*
D63*
X282435000Y-197890000D03*
D64*
X283185000Y-194890000D03*
X283185000Y-196390000D03*
X283185000Y-197890000D03*
D63*
X283935000Y-194890000D03*
D64*
X283935000Y-195640000D03*
D63*
X283935000Y-196390000D03*
D64*
X283935000Y-197140000D03*
D63*
X283935000Y-197890000D03*
%TD*%
D56*
%TO.C,TP2*%
X202800000Y-219800000D03*
%TD*%
D57*
%TO.C,TP6*%
X203600000Y-202200000D03*
%TD*%
D56*
%TO.C,TP3*%
X206500000Y-219900000D03*
%TD*%
D40*
%TO.C,D6*%
X297200000Y-192600000D03*
X300000000Y-192600000D03*
%TD*%
%TO.C,D5*%
X297200000Y-197000000D03*
X300000000Y-197000000D03*
%TD*%
D56*
%TO.C,TP7*%
X202900000Y-215100000D03*
%TD*%
%TO.C,TP8*%
X206600000Y-215100000D03*
%TD*%
D52*
%TO.C,R14*%
X209900000Y-209800000D03*
X208075000Y-209800000D03*
%TD*%
D53*
%TO.C,R15*%
X240885000Y-191980000D03*
X242710000Y-191980000D03*
%TD*%
D65*
%TO.C,C97*%
X337000000Y-204100000D03*
X337000000Y-210600000D03*
%TD*%
D38*
%TO.C,U48*%
X320120000Y-216332500D03*
X322660000Y-216332500D03*
X312500000Y-216332500D03*
X312500000Y-213792500D03*
X312500000Y-211252500D03*
X312500000Y-208712500D03*
X312500000Y-206172500D03*
X312500000Y-203632500D03*
X312500000Y-201092500D03*
D39*
X312500000Y-198552500D03*
D38*
X325200000Y-216332500D03*
X325200000Y-213792500D03*
X325200000Y-211252500D03*
X325200000Y-208712500D03*
X325200000Y-206172500D03*
X325200000Y-203632500D03*
X325200000Y-201092500D03*
X325200000Y-198552500D03*
%TD*%
D25*
%TO.C,I2C_0x70_1*%
X316800000Y-245900000D03*
X314800000Y-245900000D03*
X312800000Y-245900000D03*
D26*
X310800000Y-245900000D03*
%TD*%
D25*
%TO.C,I2C_0x70_3*%
X316800000Y-259000000D03*
X314800000Y-259000000D03*
X312800000Y-259000000D03*
D26*
X310800000Y-259000000D03*
%TD*%
D25*
%TO.C,I2C_0x70_5*%
X328600000Y-245950000D03*
X326600000Y-245950000D03*
X324600000Y-245950000D03*
D26*
X322600000Y-245950000D03*
%TD*%
D25*
%TO.C,I2C_0x70_2*%
X316800000Y-252450000D03*
X314800000Y-252450000D03*
X312800000Y-252450000D03*
D26*
X310800000Y-252450000D03*
%TD*%
D25*
%TO.C,I2C_0x70_4*%
X316800000Y-265550000D03*
X314800000Y-265550000D03*
X312800000Y-265550000D03*
D26*
X310800000Y-265550000D03*
%TD*%
D25*
%TO.C,I2C_0x71_3*%
X340400000Y-259150000D03*
X338400000Y-259150000D03*
X336400000Y-259150000D03*
D26*
X334400000Y-259150000D03*
%TD*%
D25*
%TO.C,I2C_0x70_7*%
X328600000Y-259100000D03*
X326600000Y-259100000D03*
X324600000Y-259100000D03*
D26*
X322600000Y-259100000D03*
%TD*%
D25*
%TO.C,I2C_0x71_4*%
X340400000Y-265700000D03*
X338400000Y-265700000D03*
X336400000Y-265700000D03*
D26*
X334400000Y-265700000D03*
%TD*%
D25*
%TO.C,I2C_0x70_8*%
X328600000Y-265650000D03*
X326600000Y-265650000D03*
X324600000Y-265650000D03*
D26*
X322600000Y-265650000D03*
%TD*%
D25*
%TO.C,I2C_0x71_2*%
X340400000Y-252600000D03*
X338400000Y-252600000D03*
X336400000Y-252600000D03*
D26*
X334400000Y-252600000D03*
%TD*%
D25*
%TO.C,I2C_0x71_5*%
X351800000Y-246100000D03*
X349800000Y-246100000D03*
X347800000Y-246100000D03*
D26*
X345800000Y-246100000D03*
%TD*%
D25*
%TO.C,I2C_0x71_1*%
X340400000Y-246050000D03*
X338400000Y-246050000D03*
X336400000Y-246050000D03*
D26*
X334400000Y-246050000D03*
%TD*%
D25*
%TO.C,I2C_0x71_7*%
X351800000Y-252650000D03*
X349800000Y-252650000D03*
X347800000Y-252650000D03*
D26*
X345800000Y-252650000D03*
%TD*%
D25*
%TO.C,I2C_0x71_8*%
X351800000Y-259200000D03*
X349800000Y-259200000D03*
X347800000Y-259200000D03*
D26*
X345800000Y-259200000D03*
%TD*%
D25*
%TO.C,I2C_0x70_6*%
X328600000Y-252550000D03*
X326600000Y-252550000D03*
X324600000Y-252550000D03*
D26*
X322600000Y-252550000D03*
%TD*%
D25*
%TO.C,JI2C_0x71_6*%
X351800000Y-265750000D03*
X349800000Y-265750000D03*
X347800000Y-265750000D03*
D26*
X345800000Y-265750000D03*
%TD*%
D27*
%TO.C,C96*%
X318597500Y-206492500D03*
X318597500Y-208392500D03*
%TD*%
%TO.C,C98*%
X318842500Y-229592500D03*
X318842500Y-231492500D03*
%TD*%
%TO.C,C99*%
X337100000Y-229600000D03*
X337100000Y-231500000D03*
%TD*%
D66*
%TO.C,U37*%
X261037500Y-226050000D03*
X261037500Y-226550000D03*
X261037500Y-227050000D03*
X261037500Y-227550000D03*
D67*
X261750000Y-228262500D03*
X262250000Y-228262500D03*
X262750000Y-228262500D03*
X263250000Y-228262500D03*
D66*
X263962500Y-227550000D03*
X263962500Y-227050000D03*
X263962500Y-226550000D03*
X263962500Y-226050000D03*
D67*
X263250000Y-225337500D03*
X262750000Y-225337500D03*
X262250000Y-225337500D03*
X261750000Y-225337500D03*
D24*
X262500000Y-226800000D03*
%TD*%
D68*
%TO.C,SW1*%
X205900000Y-209216750D03*
X205900000Y-216226750D03*
D69*
X203410000Y-210466750D03*
X203410000Y-214966750D03*
%TD*%
D70*
%TO.C,Q26*%
X331185000Y-274800000D03*
D71*
X326790000Y-275800000D03*
D72*
X326465000Y-271800000D03*
%TD*%
%TO.C,Q1*%
X262265000Y-193700000D03*
D71*
X262590000Y-197700000D03*
D70*
X266985000Y-196700000D03*
%TD*%
D73*
%TO.C,Module1*%
X211460000Y-234400000D03*
X214540000Y-234400000D03*
X211460000Y-234800000D03*
X214540000Y-234800000D03*
X211460000Y-235200000D03*
X214540000Y-235200000D03*
X211460000Y-235600000D03*
X214540000Y-235600000D03*
X211460000Y-236000000D03*
X214540000Y-236000000D03*
X211460000Y-236400000D03*
X214540000Y-236400000D03*
X211460000Y-236800000D03*
X214540000Y-236800000D03*
X211460000Y-237200000D03*
X214540000Y-237200000D03*
X211460000Y-237600000D03*
X214540000Y-237600000D03*
X211460000Y-238000000D03*
X214540000Y-238000000D03*
X211460000Y-238400000D03*
X214540000Y-238400000D03*
X211460000Y-238800000D03*
X214540000Y-238800000D03*
X211460000Y-239200000D03*
X214540000Y-239200000D03*
X211460000Y-239600000D03*
X214540000Y-239600000D03*
X211460000Y-240000000D03*
X214540000Y-240000000D03*
X211460000Y-240400000D03*
X214540000Y-240400000D03*
X211460000Y-240800000D03*
X214540000Y-240800000D03*
X211460000Y-241200000D03*
X214540000Y-241200000D03*
X211460000Y-241600000D03*
X214540000Y-241600000D03*
X211460000Y-242000000D03*
X214540000Y-242000000D03*
X211460000Y-242400000D03*
X214540000Y-242400000D03*
X211460000Y-242800000D03*
X214540000Y-242800000D03*
X211460000Y-243200000D03*
X214540000Y-243200000D03*
X211460000Y-243600000D03*
X214540000Y-243600000D03*
X211460000Y-244000000D03*
X214540000Y-244000000D03*
X211460000Y-244400000D03*
X214540000Y-244400000D03*
X211460000Y-244800000D03*
X214540000Y-244800000D03*
X211460000Y-245200000D03*
X214540000Y-245200000D03*
X211460000Y-245600000D03*
X214540000Y-245600000D03*
X211460000Y-246000000D03*
X214540000Y-246000000D03*
X211460000Y-246400000D03*
X214540000Y-246400000D03*
X211460000Y-246800000D03*
X214540000Y-246800000D03*
X211460000Y-247200000D03*
X214540000Y-247200000D03*
X211460000Y-247600000D03*
X214540000Y-247600000D03*
X211460000Y-248000000D03*
X214540000Y-248000000D03*
X211460000Y-248400000D03*
X214540000Y-248400000D03*
X211460000Y-248800000D03*
X214540000Y-248800000D03*
X211460000Y-249200000D03*
X214540000Y-249200000D03*
X211460000Y-249600000D03*
X214540000Y-249600000D03*
X211460000Y-250000000D03*
X214540000Y-250000000D03*
X211460000Y-250400000D03*
X214540000Y-250400000D03*
X211460000Y-250800000D03*
X214540000Y-250800000D03*
X211460000Y-251200000D03*
X214540000Y-251200000D03*
X211460000Y-251600000D03*
X214540000Y-251600000D03*
X211460000Y-252000000D03*
X214540000Y-252000000D03*
X211460000Y-252400000D03*
X214540000Y-252400000D03*
X211460000Y-252800000D03*
X214540000Y-252800000D03*
X211460000Y-253200000D03*
X214540000Y-253200000D03*
X211460000Y-253600000D03*
X214540000Y-253600000D03*
X211460000Y-254000000D03*
X214540000Y-254000000D03*
X245460000Y-234400000D03*
X248540000Y-234400000D03*
X245460000Y-234800000D03*
X248540000Y-234800000D03*
X245460000Y-235200000D03*
X248540000Y-235200000D03*
X245460000Y-235600000D03*
X248540000Y-235600000D03*
X245460000Y-236000000D03*
X248540000Y-236000000D03*
X245460000Y-236400000D03*
X248540000Y-236400000D03*
X245460000Y-236800000D03*
X248540000Y-236800000D03*
X245460000Y-237200000D03*
X248540000Y-237200000D03*
X245460000Y-237600000D03*
X248540000Y-237600000D03*
X245460000Y-238000000D03*
X248540000Y-238000000D03*
X245460000Y-238400000D03*
X248540000Y-238400000D03*
X245460000Y-238800000D03*
X248540000Y-238800000D03*
X245460000Y-239200000D03*
X248540000Y-239200000D03*
X245460000Y-239600000D03*
X248540000Y-239600000D03*
X245460000Y-240000000D03*
X248540000Y-240000000D03*
X245460000Y-240400000D03*
X248540000Y-240400000D03*
X245460000Y-240800000D03*
X248540000Y-240800000D03*
X245460000Y-241200000D03*
X248540000Y-241200000D03*
X245460000Y-241600000D03*
X248540000Y-241600000D03*
X245460000Y-242000000D03*
X248540000Y-242000000D03*
X245460000Y-242400000D03*
X248540000Y-242400000D03*
X245460000Y-242800000D03*
X248540000Y-242800000D03*
X245460000Y-243200000D03*
X248540000Y-243200000D03*
X245460000Y-243600000D03*
X248540000Y-243600000D03*
X245460000Y-244000000D03*
X248540000Y-244000000D03*
X245460000Y-244400000D03*
X248540000Y-244400000D03*
X245460000Y-244800000D03*
X248540000Y-244800000D03*
X245460000Y-245200000D03*
X248540000Y-245200000D03*
X245460000Y-245600000D03*
X248540000Y-245600000D03*
X245460000Y-246000000D03*
X248540000Y-246000000D03*
X245460000Y-246400000D03*
X248540000Y-246400000D03*
X245460000Y-246800000D03*
X248540000Y-246800000D03*
X245460000Y-247200000D03*
X248540000Y-247200000D03*
X245460000Y-247600000D03*
X248540000Y-247600000D03*
X245460000Y-248000000D03*
X248540000Y-248000000D03*
X245460000Y-248400000D03*
X248540000Y-248400000D03*
X245460000Y-248800000D03*
X248540000Y-248800000D03*
X245460000Y-249200000D03*
X248540000Y-249200000D03*
X245460000Y-249600000D03*
X248540000Y-249600000D03*
X245460000Y-250000000D03*
X248540000Y-250000000D03*
X245460000Y-250400000D03*
X248540000Y-250400000D03*
X245460000Y-250800000D03*
X248540000Y-250800000D03*
X245460000Y-251200000D03*
X248540000Y-251200000D03*
X245460000Y-251600000D03*
X248540000Y-251600000D03*
X245460000Y-252000000D03*
X248540000Y-252000000D03*
X245460000Y-252400000D03*
X248540000Y-252400000D03*
X245460000Y-252800000D03*
X248540000Y-252800000D03*
X245460000Y-253200000D03*
X248540000Y-253200000D03*
X245460000Y-253600000D03*
X248540000Y-253600000D03*
X245460000Y-254000000D03*
X248540000Y-254000000D03*
D74*
X213500000Y-222700000D03*
X213500000Y-270700000D03*
X246500000Y-222700000D03*
X246500000Y-270700000D03*
%TD*%
D64*
%TO.C,J10*%
X333310000Y-284275000D03*
X339090000Y-284275000D03*
D75*
X333000000Y-283215000D03*
X333800000Y-283215000D03*
D76*
X334950000Y-283215000D03*
X335950000Y-283215000D03*
X336450000Y-283215000D03*
X337450000Y-283215000D03*
D75*
X338600000Y-283215000D03*
X339400000Y-283215000D03*
X339400000Y-283215000D03*
X338600000Y-283215000D03*
D76*
X337950000Y-283215000D03*
X336950000Y-283215000D03*
X335450000Y-283215000D03*
X334450000Y-283215000D03*
D75*
X333800000Y-283215000D03*
X333000000Y-283215000D03*
D77*
X331880000Y-283795000D03*
D78*
X331880000Y-287965000D03*
D77*
X340520000Y-283795000D03*
D78*
X340520000Y-287965000D03*
%TD*%
D64*
%TO.C,J9*%
X321190000Y-284210000D03*
X326970000Y-284210000D03*
D75*
X320880000Y-283150000D03*
X321680000Y-283150000D03*
D76*
X322830000Y-283150000D03*
X323830000Y-283150000D03*
X324330000Y-283150000D03*
X325330000Y-283150000D03*
D75*
X326480000Y-283150000D03*
X327280000Y-283150000D03*
X327280000Y-283150000D03*
X326480000Y-283150000D03*
D76*
X325830000Y-283150000D03*
X324830000Y-283150000D03*
X323330000Y-283150000D03*
X322330000Y-283150000D03*
D75*
X321680000Y-283150000D03*
X320880000Y-283150000D03*
D77*
X319760000Y-283730000D03*
D78*
X319760000Y-287900000D03*
D77*
X328400000Y-283730000D03*
D78*
X328400000Y-287900000D03*
%TD*%
D64*
%TO.C,J8*%
X308990000Y-284210000D03*
X314770000Y-284210000D03*
D75*
X308680000Y-283150000D03*
X309480000Y-283150000D03*
D76*
X310630000Y-283150000D03*
X311630000Y-283150000D03*
X312130000Y-283150000D03*
X313130000Y-283150000D03*
D75*
X314280000Y-283150000D03*
X315080000Y-283150000D03*
X315080000Y-283150000D03*
X314280000Y-283150000D03*
D76*
X313630000Y-283150000D03*
X312630000Y-283150000D03*
X311130000Y-283150000D03*
X310130000Y-283150000D03*
D75*
X309480000Y-283150000D03*
X308680000Y-283150000D03*
D77*
X307560000Y-283730000D03*
D78*
X307560000Y-287900000D03*
D77*
X316200000Y-283730000D03*
D78*
X316200000Y-287900000D03*
%TD*%
D79*
%TO.C,J6*%
X213523000Y-195050000D03*
X213523000Y-215750000D03*
D80*
X258273000Y-205400000D03*
X246273000Y-205400000D03*
D81*
X212748000Y-196150000D03*
X220298000Y-196400000D03*
X212748000Y-196650000D03*
X220298000Y-196900000D03*
X212748000Y-197150000D03*
X220298000Y-197400000D03*
X212748000Y-197650000D03*
X220298000Y-197900000D03*
X212748000Y-198150000D03*
X220298000Y-200400000D03*
X212748000Y-200650000D03*
X220298000Y-200900000D03*
X212748000Y-201150000D03*
X220298000Y-201400000D03*
X212748000Y-201650000D03*
X220298000Y-201900000D03*
X212748000Y-202150000D03*
X220298000Y-202400000D03*
X212748000Y-202650000D03*
X220298000Y-202900000D03*
X212748000Y-203150000D03*
X220298000Y-203400000D03*
X212748000Y-203650000D03*
X220298000Y-203900000D03*
X212748000Y-204150000D03*
X220298000Y-204400000D03*
X212748000Y-204650000D03*
X220298000Y-204900000D03*
X212748000Y-205150000D03*
X220298000Y-205400000D03*
X212748000Y-205650000D03*
X220298000Y-205900000D03*
X212748000Y-206150000D03*
X220298000Y-206400000D03*
X212748000Y-206650000D03*
X220298000Y-206900000D03*
X212748000Y-207150000D03*
X220298000Y-207400000D03*
X212748000Y-207650000D03*
X220298000Y-207900000D03*
X212748000Y-208150000D03*
X220298000Y-208400000D03*
X212748000Y-208650000D03*
X220298000Y-208900000D03*
X212748000Y-209150000D03*
X220298000Y-209400000D03*
X212748000Y-209650000D03*
X220298000Y-209900000D03*
X212748000Y-210150000D03*
X220298000Y-210400000D03*
X212748000Y-210650000D03*
X220298000Y-210900000D03*
X212748000Y-211150000D03*
X220298000Y-211400000D03*
X212748000Y-211650000D03*
X220298000Y-211900000D03*
X212748000Y-212150000D03*
X220298000Y-212400000D03*
X212748000Y-212650000D03*
X220298000Y-212900000D03*
X212748000Y-213150000D03*
X220298000Y-213400000D03*
X212748000Y-213650000D03*
X220298000Y-213900000D03*
X212748000Y-214150000D03*
X220298000Y-214400000D03*
X212748000Y-214650000D03*
D82*
X218023000Y-195400000D03*
D83*
X218023000Y-215400000D03*
%TD*%
D84*
%TO.C,J5*%
X270995000Y-279840000D03*
X282425000Y-279840000D03*
D85*
X270995000Y-270950000D03*
D47*
X272265000Y-273490000D03*
X273535000Y-270950000D03*
X274805000Y-273490000D03*
X276075000Y-270950000D03*
X277345000Y-273490000D03*
X278615000Y-270950000D03*
X279885000Y-273490000D03*
X281155000Y-270950000D03*
X282425000Y-273490000D03*
X270995000Y-276010000D03*
X273535000Y-277280000D03*
X279885000Y-277280000D03*
X282425000Y-276010000D03*
X270080000Y-283900000D03*
X272620000Y-283900000D03*
X280800000Y-283900000D03*
X283340000Y-283900000D03*
D86*
X268835000Y-276790000D03*
X284585000Y-276790000D03*
%TD*%
M02*
