%TF.GenerationSoftware,KiCad,Pcbnew,9.0.2*%
%TF.CreationDate,2025-07-13T19:06:43+02:00*%
%TF.ProjectId,CM5IO,434d3549-4f2e-46b6-9963-61645f706362,rev?*%
%TF.SameCoordinates,Original*%
%TF.FileFunction,Copper,L1,Top*%
%TF.FilePolarity,Positive*%
%FSLAX46Y46*%
G04 Gerber Fmt 4.6, Leading zero omitted, Abs format (unit mm)*
G04 Created by KiCad (PCBNEW 9.0.2) date 2025-07-13 19:06:43*
%MOMM*%
%LPD*%
G01*
G04 APERTURE LIST*
G04 Aperture macros list*
%AMRoundRect*
0 Rectangle with rounded corners*
0 $1 Rounding radius*
0 $2 $3 $4 $5 $6 $7 $8 $9 X,Y pos of 4 corners*
0 Add a 4 corners polygon primitive as box body*
4,1,4,$2,$3,$4,$5,$6,$7,$8,$9,$2,$3,0*
0 Add four circle primitives for the rounded corners*
1,1,$1+$1,$2,$3*
1,1,$1+$1,$4,$5*
1,1,$1+$1,$6,$7*
1,1,$1+$1,$8,$9*
0 Add four rect primitives between the rounded corners*
20,1,$1+$1,$2,$3,$4,$5,0*
20,1,$1+$1,$4,$5,$6,$7,0*
20,1,$1+$1,$6,$7,$8,$9,0*
20,1,$1+$1,$8,$9,$2,$3,0*%
%AMFreePoly0*
4,1,21,3.715000,2.450000,2.615000,2.450000,2.615000,1.550000,3.715000,1.550000,3.715000,0.450000,2.615000,0.450000,2.615000,-0.450000,3.715000,-0.450000,3.715000,-1.550000,2.615000,-1.550000,2.615000,-2.450000,3.715000,-2.450000,3.715000,-3.550000,2.615000,-3.550000,2.615000,-3.450000,-2.615000,-3.450000,-2.615000,3.450000,2.615000,3.450000,2.615000,3.550000,3.715000,3.550000,
3.715000,2.450000,3.715000,2.450000,$1*%
%AMFreePoly1*
4,1,14,0.240000,-2.550000,-0.240000,-2.550000,-0.890000,-2.550000,-0.890000,-1.450000,-0.240000,-1.450000,-0.240000,-0.550000,-0.890000,-0.550000,-0.890000,0.550000,-0.240000,0.550000,-0.240000,1.450000,-0.890000,1.450000,-0.890000,2.550000,0.240000,2.550000,0.240000,-2.550000,0.240000,-2.550000,$1*%
G04 Aperture macros list end*
%ADD10C,0.100000*%
%ADD11C,0.150000*%
%ADD12C,0.300000*%
%ADD13C,0.400000*%
%TA.AperFunction,ComponentPad*%
%ADD14RoundRect,0.518813X-1.210562X1.214935X-1.210562X-1.214935X1.210562X-1.214935X1.210562X1.214935X0*%
%TD*%
%TA.AperFunction,ComponentPad*%
%ADD15RoundRect,0.485250X-1.132250X1.299750X-1.132250X-1.299750X1.132250X-1.299750X1.132250X1.299750X0*%
%TD*%
%TA.AperFunction,SMDPad,CuDef*%
%ADD16R,2.200000X1.800000*%
%TD*%
%TA.AperFunction,SMDPad,CuDef*%
%ADD17R,1.300000X0.300000*%
%TD*%
%TA.AperFunction,ComponentPad*%
%ADD18C,1.100000*%
%TD*%
%TA.AperFunction,ComponentPad*%
%ADD19C,3.100000*%
%TD*%
%TA.AperFunction,ComponentPad*%
%ADD20O,1.500000X2.300000*%
%TD*%
%TA.AperFunction,ComponentPad*%
%ADD21O,1.500000X3.300000*%
%TD*%
%TA.AperFunction,SMDPad,CuDef*%
%ADD22R,0.300000X2.600000*%
%TD*%
%TA.AperFunction,ComponentPad*%
%ADD23C,1.700000*%
%TD*%
%TA.AperFunction,ComponentPad*%
%ADD24R,1.700000X1.700000*%
%TD*%
%TA.AperFunction,ComponentPad*%
%ADD25O,1.200000X1.750000*%
%TD*%
%TA.AperFunction,ComponentPad*%
%ADD26RoundRect,0.250000X-0.350000X-0.625000X0.350000X-0.625000X0.350000X0.625000X-0.350000X0.625000X0*%
%TD*%
%TA.AperFunction,SMDPad,CuDef*%
%ADD27RoundRect,0.250000X0.475000X-0.250000X0.475000X0.250000X-0.475000X0.250000X-0.475000X-0.250000X0*%
%TD*%
%TA.AperFunction,SMDPad,CuDef*%
%ADD28RoundRect,0.250000X0.625000X-0.375000X0.625000X0.375000X-0.625000X0.375000X-0.625000X-0.375000X0*%
%TD*%
%TA.AperFunction,SMDPad,CuDef*%
%ADD29RoundRect,0.250000X-0.625000X0.375000X-0.625000X-0.375000X0.625000X-0.375000X0.625000X0.375000X0*%
%TD*%
%TA.AperFunction,SMDPad,CuDef*%
%ADD30RoundRect,0.250000X0.450000X-0.262500X0.450000X0.262500X-0.450000X0.262500X-0.450000X-0.262500X0*%
%TD*%
%TA.AperFunction,SMDPad,CuDef*%
%ADD31RoundRect,0.250000X-0.450000X0.262500X-0.450000X-0.262500X0.450000X-0.262500X0.450000X0.262500X0*%
%TD*%
%TA.AperFunction,ComponentPad*%
%ADD32RoundRect,0.250000X0.625000X-0.350000X0.625000X0.350000X-0.625000X0.350000X-0.625000X-0.350000X0*%
%TD*%
%TA.AperFunction,ComponentPad*%
%ADD33O,1.750000X1.200000*%
%TD*%
%TA.AperFunction,SMDPad,CuDef*%
%ADD34RoundRect,0.190000X-0.610000X-0.190000X0.610000X-0.190000X0.610000X0.190000X-0.610000X0.190000X0*%
%TD*%
%TA.AperFunction,SMDPad,CuDef*%
%ADD35RoundRect,0.100000X0.225000X0.100000X-0.225000X0.100000X-0.225000X-0.100000X0.225000X-0.100000X0*%
%TD*%
%TA.AperFunction,SMDPad,CuDef*%
%ADD36RoundRect,0.075000X0.075000X0.200000X-0.075000X0.200000X-0.075000X-0.200000X0.075000X-0.200000X0*%
%TD*%
%TA.AperFunction,SMDPad,CuDef*%
%ADD37RoundRect,0.250000X-0.250000X-0.475000X0.250000X-0.475000X0.250000X0.475000X-0.250000X0.475000X0*%
%TD*%
%TA.AperFunction,ComponentPad*%
%ADD38C,1.508000*%
%TD*%
%TA.AperFunction,ComponentPad*%
%ADD39R,1.508000X1.508000*%
%TD*%
%TA.AperFunction,SMDPad,CuDef*%
%ADD40RoundRect,0.250000X-0.375000X-0.625000X0.375000X-0.625000X0.375000X0.625000X-0.375000X0.625000X0*%
%TD*%
%TA.AperFunction,SMDPad,CuDef*%
%ADD41RoundRect,0.250000X1.045000X-0.785000X1.045000X0.785000X-1.045000X0.785000X-1.045000X-0.785000X0*%
%TD*%
%TA.AperFunction,SMDPad,CuDef*%
%ADD42RoundRect,0.250000X0.785000X1.045000X-0.785000X1.045000X-0.785000X-1.045000X0.785000X-1.045000X0*%
%TD*%
%TA.AperFunction,SMDPad,CuDef*%
%ADD43RoundRect,0.250000X0.312500X0.625000X-0.312500X0.625000X-0.312500X-0.625000X0.312500X-0.625000X0*%
%TD*%
%TA.AperFunction,SMDPad,CuDef*%
%ADD44RoundRect,0.250000X-0.312500X-0.625000X0.312500X-0.625000X0.312500X0.625000X-0.312500X0.625000X0*%
%TD*%
%TA.AperFunction,ComponentPad*%
%ADD45RoundRect,0.250000X0.350000X0.625000X-0.350000X0.625000X-0.350000X-0.625000X0.350000X-0.625000X0*%
%TD*%
%TA.AperFunction,SMDPad,CuDef*%
%ADD46RoundRect,0.150000X-0.150000X0.587500X-0.150000X-0.587500X0.150000X-0.587500X0.150000X0.587500X0*%
%TD*%
%TA.AperFunction,ComponentPad*%
%ADD47C,1.500000*%
%TD*%
%TA.AperFunction,ComponentPad*%
%ADD48C,3.450000*%
%TD*%
%TA.AperFunction,ComponentPad*%
%ADD49C,6.000000*%
%TD*%
%TA.AperFunction,ComponentPad*%
%ADD50RoundRect,1.500000X1.500000X1.500000X-1.500000X1.500000X-1.500000X-1.500000X1.500000X-1.500000X0*%
%TD*%
%TA.AperFunction,SMDPad,CuDef*%
%ADD51RoundRect,0.250000X-0.362500X-1.425000X0.362500X-1.425000X0.362500X1.425000X-0.362500X1.425000X0*%
%TD*%
%TA.AperFunction,SMDPad,CuDef*%
%ADD52RoundRect,0.250000X-0.262500X-0.450000X0.262500X-0.450000X0.262500X0.450000X-0.262500X0.450000X0*%
%TD*%
%TA.AperFunction,SMDPad,CuDef*%
%ADD53RoundRect,0.250000X0.262500X0.450000X-0.262500X0.450000X-0.262500X-0.450000X0.262500X-0.450000X0*%
%TD*%
%TA.AperFunction,SMDPad,CuDef*%
%ADD54RoundRect,0.075000X-0.075000X0.650000X-0.075000X-0.650000X0.075000X-0.650000X0.075000X0.650000X0*%
%TD*%
%TA.AperFunction,SMDPad,CuDef*%
%ADD55RoundRect,0.250000X0.450000X0.350000X-0.450000X0.350000X-0.450000X-0.350000X0.450000X-0.350000X0*%
%TD*%
%TA.AperFunction,SMDPad,CuDef*%
%ADD56C,2.000000*%
%TD*%
%TA.AperFunction,SMDPad,CuDef*%
%ADD57C,4.000000*%
%TD*%
%TA.AperFunction,SMDPad,CuDef*%
%ADD58RoundRect,0.250000X0.250000X0.475000X-0.250000X0.475000X-0.250000X-0.475000X0.250000X-0.475000X0*%
%TD*%
%TA.AperFunction,SMDPad,CuDef*%
%ADD59RoundRect,0.250000X-0.475000X0.250000X-0.475000X-0.250000X0.475000X-0.250000X0.475000X0.250000X0*%
%TD*%
%TA.AperFunction,SMDPad,CuDef*%
%ADD60RoundRect,0.250000X0.375000X0.625000X-0.375000X0.625000X-0.375000X-0.625000X0.375000X-0.625000X0*%
%TD*%
%TA.AperFunction,SMDPad,CuDef*%
%ADD61R,1.500000X0.900000*%
%TD*%
%TA.AperFunction,SMDPad,CuDef*%
%ADD62R,0.900000X1.500000*%
%TD*%
%TA.AperFunction,HeatsinkPad*%
%ADD63R,1.000000X1.000000*%
%TD*%
%TA.AperFunction,HeatsinkPad*%
%ADD64C,0.600000*%
%TD*%
%TA.AperFunction,SMDPad,CuDef*%
%ADD65RoundRect,0.250000X1.000000X-1.500000X1.000000X1.500000X-1.000000X1.500000X-1.000000X-1.500000X0*%
%TD*%
%TA.AperFunction,HeatsinkPad*%
%ADD66C,0.500000*%
%TD*%
%TA.AperFunction,HeatsinkPad*%
%ADD67R,1.600000X1.800000*%
%TD*%
%TA.AperFunction,SMDPad,CuDef*%
%ADD68RoundRect,0.062500X-0.350000X-0.062500X0.350000X-0.062500X0.350000X0.062500X-0.350000X0.062500X0*%
%TD*%
%TA.AperFunction,SMDPad,CuDef*%
%ADD69RoundRect,0.062500X-0.062500X-0.350000X0.062500X-0.350000X0.062500X0.350000X-0.062500X0.350000X0*%
%TD*%
%TA.AperFunction,HeatsinkPad*%
%ADD70R,1.700000X1.700000*%
%TD*%
%TA.AperFunction,HeatsinkPad*%
%ADD71R,4.400000X1.800000*%
%TD*%
%TA.AperFunction,ComponentPad*%
%ADD72C,2.100000*%
%TD*%
%TA.AperFunction,ComponentPad*%
%ADD73C,1.750000*%
%TD*%
%TA.AperFunction,SMDPad,CuDef*%
%ADD74FreePoly0,0.000000*%
%TD*%
%TA.AperFunction,SMDPad,CuDef*%
%ADD75FreePoly1,0.000000*%
%TD*%
%TA.AperFunction,SMDPad,CuDef*%
%ADD76RoundRect,0.275000X-0.290000X-0.275000X0.290000X-0.275000X0.290000X0.275000X-0.290000X0.275000X0*%
%TD*%
%TA.AperFunction,SMDPad,CuDef*%
%ADD77R,0.700000X0.200000*%
%TD*%
%TA.AperFunction,SMDPad,CuDef*%
%ADD78R,0.600000X1.160000*%
%TD*%
%TA.AperFunction,SMDPad,CuDef*%
%ADD79R,0.300000X1.160000*%
%TD*%
%TA.AperFunction,HeatsinkPad*%
%ADD80O,0.900000X2.000000*%
%TD*%
%TA.AperFunction,HeatsinkPad*%
%ADD81O,0.900000X1.700000*%
%TD*%
%TA.AperFunction,SMDPad,CuDef*%
%ADD82R,2.750000X1.200000*%
%TD*%
%TA.AperFunction,ComponentPad*%
%ADD83C,5.800000*%
%TD*%
%TA.AperFunction,SMDPad,CuDef*%
%ADD84R,1.550000X0.300000*%
%TD*%
%TA.AperFunction,ComponentPad*%
%ADD85RoundRect,0.250500X-0.499500X-0.499500X0.499500X-0.499500X0.499500X0.499500X-0.499500X0.499500X0*%
%TD*%
%TA.AperFunction,ComponentPad*%
%ADD86C,2.500000*%
%TD*%
G04 APERTURE END LIST*
D10*
D11*
X474004400Y-375989000D02*
X582004400Y-375989000D01*
X582004400Y-407989000D01*
X474004400Y-407989000D01*
X474004400Y-375989000D01*
D10*
D11*
X10000000Y-10000000D02*
X584004400Y-10000000D01*
X584004400Y-409989000D01*
X10000000Y-409989000D01*
X10000000Y-10000000D01*
D10*
D11*
X12000000Y-12000000D02*
X582004400Y-12000000D01*
X582004400Y-407989000D01*
X12000000Y-407989000D01*
X12000000Y-12000000D01*
D10*
D11*
X60000000Y-12000000D02*
X60000000Y-10000000D01*
D10*
D11*
X110000000Y-12000000D02*
X110000000Y-10000000D01*
D10*
D11*
X160000000Y-12000000D02*
X160000000Y-10000000D01*
D10*
D11*
X210000000Y-12000000D02*
X210000000Y-10000000D01*
D10*
D11*
X260000000Y-12000000D02*
X260000000Y-10000000D01*
D10*
D11*
X310000000Y-12000000D02*
X310000000Y-10000000D01*
D10*
D11*
X360000000Y-12000000D02*
X360000000Y-10000000D01*
D10*
D11*
X410000000Y-12000000D02*
X410000000Y-10000000D01*
D10*
D11*
X460000000Y-12000000D02*
X460000000Y-10000000D01*
D10*
D11*
X510000000Y-12000000D02*
X510000000Y-10000000D01*
D10*
D11*
X560000000Y-12000000D02*
X560000000Y-10000000D01*
D10*
D11*
X36089160Y-11593604D02*
X35346303Y-11593604D01*
X35717731Y-11593604D02*
X35717731Y-10293604D01*
X35717731Y-10293604D02*
X35593922Y-10479319D01*
X35593922Y-10479319D02*
X35470112Y-10603128D01*
X35470112Y-10603128D02*
X35346303Y-10665033D01*
D10*
D11*
X85346303Y-10417414D02*
X85408207Y-10355509D01*
X85408207Y-10355509D02*
X85532017Y-10293604D01*
X85532017Y-10293604D02*
X85841541Y-10293604D01*
X85841541Y-10293604D02*
X85965350Y-10355509D01*
X85965350Y-10355509D02*
X86027255Y-10417414D01*
X86027255Y-10417414D02*
X86089160Y-10541223D01*
X86089160Y-10541223D02*
X86089160Y-10665033D01*
X86089160Y-10665033D02*
X86027255Y-10850747D01*
X86027255Y-10850747D02*
X85284398Y-11593604D01*
X85284398Y-11593604D02*
X86089160Y-11593604D01*
D10*
D11*
X135284398Y-10293604D02*
X136089160Y-10293604D01*
X136089160Y-10293604D02*
X135655826Y-10788842D01*
X135655826Y-10788842D02*
X135841541Y-10788842D01*
X135841541Y-10788842D02*
X135965350Y-10850747D01*
X135965350Y-10850747D02*
X136027255Y-10912652D01*
X136027255Y-10912652D02*
X136089160Y-11036461D01*
X136089160Y-11036461D02*
X136089160Y-11345985D01*
X136089160Y-11345985D02*
X136027255Y-11469795D01*
X136027255Y-11469795D02*
X135965350Y-11531700D01*
X135965350Y-11531700D02*
X135841541Y-11593604D01*
X135841541Y-11593604D02*
X135470112Y-11593604D01*
X135470112Y-11593604D02*
X135346303Y-11531700D01*
X135346303Y-11531700D02*
X135284398Y-11469795D01*
D10*
D11*
X185965350Y-10726938D02*
X185965350Y-11593604D01*
X185655826Y-10231700D02*
X185346303Y-11160271D01*
X185346303Y-11160271D02*
X186151064Y-11160271D01*
D10*
D11*
X236027255Y-10293604D02*
X235408207Y-10293604D01*
X235408207Y-10293604D02*
X235346303Y-10912652D01*
X235346303Y-10912652D02*
X235408207Y-10850747D01*
X235408207Y-10850747D02*
X235532017Y-10788842D01*
X235532017Y-10788842D02*
X235841541Y-10788842D01*
X235841541Y-10788842D02*
X235965350Y-10850747D01*
X235965350Y-10850747D02*
X236027255Y-10912652D01*
X236027255Y-10912652D02*
X236089160Y-11036461D01*
X236089160Y-11036461D02*
X236089160Y-11345985D01*
X236089160Y-11345985D02*
X236027255Y-11469795D01*
X236027255Y-11469795D02*
X235965350Y-11531700D01*
X235965350Y-11531700D02*
X235841541Y-11593604D01*
X235841541Y-11593604D02*
X235532017Y-11593604D01*
X235532017Y-11593604D02*
X235408207Y-11531700D01*
X235408207Y-11531700D02*
X235346303Y-11469795D01*
D10*
D11*
X285965350Y-10293604D02*
X285717731Y-10293604D01*
X285717731Y-10293604D02*
X285593922Y-10355509D01*
X285593922Y-10355509D02*
X285532017Y-10417414D01*
X285532017Y-10417414D02*
X285408207Y-10603128D01*
X285408207Y-10603128D02*
X285346303Y-10850747D01*
X285346303Y-10850747D02*
X285346303Y-11345985D01*
X285346303Y-11345985D02*
X285408207Y-11469795D01*
X285408207Y-11469795D02*
X285470112Y-11531700D01*
X285470112Y-11531700D02*
X285593922Y-11593604D01*
X285593922Y-11593604D02*
X285841541Y-11593604D01*
X285841541Y-11593604D02*
X285965350Y-11531700D01*
X285965350Y-11531700D02*
X286027255Y-11469795D01*
X286027255Y-11469795D02*
X286089160Y-11345985D01*
X286089160Y-11345985D02*
X286089160Y-11036461D01*
X286089160Y-11036461D02*
X286027255Y-10912652D01*
X286027255Y-10912652D02*
X285965350Y-10850747D01*
X285965350Y-10850747D02*
X285841541Y-10788842D01*
X285841541Y-10788842D02*
X285593922Y-10788842D01*
X285593922Y-10788842D02*
X285470112Y-10850747D01*
X285470112Y-10850747D02*
X285408207Y-10912652D01*
X285408207Y-10912652D02*
X285346303Y-11036461D01*
D10*
D11*
X335284398Y-10293604D02*
X336151064Y-10293604D01*
X336151064Y-10293604D02*
X335593922Y-11593604D01*
D10*
D11*
X385593922Y-10850747D02*
X385470112Y-10788842D01*
X385470112Y-10788842D02*
X385408207Y-10726938D01*
X385408207Y-10726938D02*
X385346303Y-10603128D01*
X385346303Y-10603128D02*
X385346303Y-10541223D01*
X385346303Y-10541223D02*
X385408207Y-10417414D01*
X385408207Y-10417414D02*
X385470112Y-10355509D01*
X385470112Y-10355509D02*
X385593922Y-10293604D01*
X385593922Y-10293604D02*
X385841541Y-10293604D01*
X385841541Y-10293604D02*
X385965350Y-10355509D01*
X385965350Y-10355509D02*
X386027255Y-10417414D01*
X386027255Y-10417414D02*
X386089160Y-10541223D01*
X386089160Y-10541223D02*
X386089160Y-10603128D01*
X386089160Y-10603128D02*
X386027255Y-10726938D01*
X386027255Y-10726938D02*
X385965350Y-10788842D01*
X385965350Y-10788842D02*
X385841541Y-10850747D01*
X385841541Y-10850747D02*
X385593922Y-10850747D01*
X385593922Y-10850747D02*
X385470112Y-10912652D01*
X385470112Y-10912652D02*
X385408207Y-10974557D01*
X385408207Y-10974557D02*
X385346303Y-11098366D01*
X385346303Y-11098366D02*
X385346303Y-11345985D01*
X385346303Y-11345985D02*
X385408207Y-11469795D01*
X385408207Y-11469795D02*
X385470112Y-11531700D01*
X385470112Y-11531700D02*
X385593922Y-11593604D01*
X385593922Y-11593604D02*
X385841541Y-11593604D01*
X385841541Y-11593604D02*
X385965350Y-11531700D01*
X385965350Y-11531700D02*
X386027255Y-11469795D01*
X386027255Y-11469795D02*
X386089160Y-11345985D01*
X386089160Y-11345985D02*
X386089160Y-11098366D01*
X386089160Y-11098366D02*
X386027255Y-10974557D01*
X386027255Y-10974557D02*
X385965350Y-10912652D01*
X385965350Y-10912652D02*
X385841541Y-10850747D01*
D10*
D11*
X435470112Y-11593604D02*
X435717731Y-11593604D01*
X435717731Y-11593604D02*
X435841541Y-11531700D01*
X435841541Y-11531700D02*
X435903445Y-11469795D01*
X435903445Y-11469795D02*
X436027255Y-11284080D01*
X436027255Y-11284080D02*
X436089160Y-11036461D01*
X436089160Y-11036461D02*
X436089160Y-10541223D01*
X436089160Y-10541223D02*
X436027255Y-10417414D01*
X436027255Y-10417414D02*
X435965350Y-10355509D01*
X435965350Y-10355509D02*
X435841541Y-10293604D01*
X435841541Y-10293604D02*
X435593922Y-10293604D01*
X435593922Y-10293604D02*
X435470112Y-10355509D01*
X435470112Y-10355509D02*
X435408207Y-10417414D01*
X435408207Y-10417414D02*
X435346303Y-10541223D01*
X435346303Y-10541223D02*
X435346303Y-10850747D01*
X435346303Y-10850747D02*
X435408207Y-10974557D01*
X435408207Y-10974557D02*
X435470112Y-11036461D01*
X435470112Y-11036461D02*
X435593922Y-11098366D01*
X435593922Y-11098366D02*
X435841541Y-11098366D01*
X435841541Y-11098366D02*
X435965350Y-11036461D01*
X435965350Y-11036461D02*
X436027255Y-10974557D01*
X436027255Y-10974557D02*
X436089160Y-10850747D01*
D10*
D11*
X486089160Y-11593604D02*
X485346303Y-11593604D01*
X485717731Y-11593604D02*
X485717731Y-10293604D01*
X485717731Y-10293604D02*
X485593922Y-10479319D01*
X485593922Y-10479319D02*
X485470112Y-10603128D01*
X485470112Y-10603128D02*
X485346303Y-10665033D01*
X486893921Y-10293604D02*
X487017731Y-10293604D01*
X487017731Y-10293604D02*
X487141540Y-10355509D01*
X487141540Y-10355509D02*
X487203445Y-10417414D01*
X487203445Y-10417414D02*
X487265350Y-10541223D01*
X487265350Y-10541223D02*
X487327255Y-10788842D01*
X487327255Y-10788842D02*
X487327255Y-11098366D01*
X487327255Y-11098366D02*
X487265350Y-11345985D01*
X487265350Y-11345985D02*
X487203445Y-11469795D01*
X487203445Y-11469795D02*
X487141540Y-11531700D01*
X487141540Y-11531700D02*
X487017731Y-11593604D01*
X487017731Y-11593604D02*
X486893921Y-11593604D01*
X486893921Y-11593604D02*
X486770112Y-11531700D01*
X486770112Y-11531700D02*
X486708207Y-11469795D01*
X486708207Y-11469795D02*
X486646302Y-11345985D01*
X486646302Y-11345985D02*
X486584398Y-11098366D01*
X486584398Y-11098366D02*
X486584398Y-10788842D01*
X486584398Y-10788842D02*
X486646302Y-10541223D01*
X486646302Y-10541223D02*
X486708207Y-10417414D01*
X486708207Y-10417414D02*
X486770112Y-10355509D01*
X486770112Y-10355509D02*
X486893921Y-10293604D01*
D10*
D11*
X536089160Y-11593604D02*
X535346303Y-11593604D01*
X535717731Y-11593604D02*
X535717731Y-10293604D01*
X535717731Y-10293604D02*
X535593922Y-10479319D01*
X535593922Y-10479319D02*
X535470112Y-10603128D01*
X535470112Y-10603128D02*
X535346303Y-10665033D01*
X537327255Y-11593604D02*
X536584398Y-11593604D01*
X536955826Y-11593604D02*
X536955826Y-10293604D01*
X536955826Y-10293604D02*
X536832017Y-10479319D01*
X536832017Y-10479319D02*
X536708207Y-10603128D01*
X536708207Y-10603128D02*
X536584398Y-10665033D01*
D10*
D11*
X60000000Y-407989000D02*
X60000000Y-409989000D01*
D10*
D11*
X110000000Y-407989000D02*
X110000000Y-409989000D01*
D10*
D11*
X160000000Y-407989000D02*
X160000000Y-409989000D01*
D10*
D11*
X210000000Y-407989000D02*
X210000000Y-409989000D01*
D10*
D11*
X260000000Y-407989000D02*
X260000000Y-409989000D01*
D10*
D11*
X310000000Y-407989000D02*
X310000000Y-409989000D01*
D10*
D11*
X360000000Y-407989000D02*
X360000000Y-409989000D01*
D10*
D11*
X410000000Y-407989000D02*
X410000000Y-409989000D01*
D10*
D11*
X460000000Y-407989000D02*
X460000000Y-409989000D01*
D10*
D11*
X510000000Y-407989000D02*
X510000000Y-409989000D01*
D10*
D11*
X560000000Y-407989000D02*
X560000000Y-409989000D01*
D10*
D11*
X36089160Y-409582604D02*
X35346303Y-409582604D01*
X35717731Y-409582604D02*
X35717731Y-408282604D01*
X35717731Y-408282604D02*
X35593922Y-408468319D01*
X35593922Y-408468319D02*
X35470112Y-408592128D01*
X35470112Y-408592128D02*
X35346303Y-408654033D01*
D10*
D11*
X85346303Y-408406414D02*
X85408207Y-408344509D01*
X85408207Y-408344509D02*
X85532017Y-408282604D01*
X85532017Y-408282604D02*
X85841541Y-408282604D01*
X85841541Y-408282604D02*
X85965350Y-408344509D01*
X85965350Y-408344509D02*
X86027255Y-408406414D01*
X86027255Y-408406414D02*
X86089160Y-408530223D01*
X86089160Y-408530223D02*
X86089160Y-408654033D01*
X86089160Y-408654033D02*
X86027255Y-408839747D01*
X86027255Y-408839747D02*
X85284398Y-409582604D01*
X85284398Y-409582604D02*
X86089160Y-409582604D01*
D10*
D11*
X135284398Y-408282604D02*
X136089160Y-408282604D01*
X136089160Y-408282604D02*
X135655826Y-408777842D01*
X135655826Y-408777842D02*
X135841541Y-408777842D01*
X135841541Y-408777842D02*
X135965350Y-408839747D01*
X135965350Y-408839747D02*
X136027255Y-408901652D01*
X136027255Y-408901652D02*
X136089160Y-409025461D01*
X136089160Y-409025461D02*
X136089160Y-409334985D01*
X136089160Y-409334985D02*
X136027255Y-409458795D01*
X136027255Y-409458795D02*
X135965350Y-409520700D01*
X135965350Y-409520700D02*
X135841541Y-409582604D01*
X135841541Y-409582604D02*
X135470112Y-409582604D01*
X135470112Y-409582604D02*
X135346303Y-409520700D01*
X135346303Y-409520700D02*
X135284398Y-409458795D01*
D10*
D11*
X185965350Y-408715938D02*
X185965350Y-409582604D01*
X185655826Y-408220700D02*
X185346303Y-409149271D01*
X185346303Y-409149271D02*
X186151064Y-409149271D01*
D10*
D11*
X236027255Y-408282604D02*
X235408207Y-408282604D01*
X235408207Y-408282604D02*
X235346303Y-408901652D01*
X235346303Y-408901652D02*
X235408207Y-408839747D01*
X235408207Y-408839747D02*
X235532017Y-408777842D01*
X235532017Y-408777842D02*
X235841541Y-408777842D01*
X235841541Y-408777842D02*
X235965350Y-408839747D01*
X235965350Y-408839747D02*
X236027255Y-408901652D01*
X236027255Y-408901652D02*
X236089160Y-409025461D01*
X236089160Y-409025461D02*
X236089160Y-409334985D01*
X236089160Y-409334985D02*
X236027255Y-409458795D01*
X236027255Y-409458795D02*
X235965350Y-409520700D01*
X235965350Y-409520700D02*
X235841541Y-409582604D01*
X235841541Y-409582604D02*
X235532017Y-409582604D01*
X235532017Y-409582604D02*
X235408207Y-409520700D01*
X235408207Y-409520700D02*
X235346303Y-409458795D01*
D10*
D11*
X285965350Y-408282604D02*
X285717731Y-408282604D01*
X285717731Y-408282604D02*
X285593922Y-408344509D01*
X285593922Y-408344509D02*
X285532017Y-408406414D01*
X285532017Y-408406414D02*
X285408207Y-408592128D01*
X285408207Y-408592128D02*
X285346303Y-408839747D01*
X285346303Y-408839747D02*
X285346303Y-409334985D01*
X285346303Y-409334985D02*
X285408207Y-409458795D01*
X285408207Y-409458795D02*
X285470112Y-409520700D01*
X285470112Y-409520700D02*
X285593922Y-409582604D01*
X285593922Y-409582604D02*
X285841541Y-409582604D01*
X285841541Y-409582604D02*
X285965350Y-409520700D01*
X285965350Y-409520700D02*
X286027255Y-409458795D01*
X286027255Y-409458795D02*
X286089160Y-409334985D01*
X286089160Y-409334985D02*
X286089160Y-409025461D01*
X286089160Y-409025461D02*
X286027255Y-408901652D01*
X286027255Y-408901652D02*
X285965350Y-408839747D01*
X285965350Y-408839747D02*
X285841541Y-408777842D01*
X285841541Y-408777842D02*
X285593922Y-408777842D01*
X285593922Y-408777842D02*
X285470112Y-408839747D01*
X285470112Y-408839747D02*
X285408207Y-408901652D01*
X285408207Y-408901652D02*
X285346303Y-409025461D01*
D10*
D11*
X335284398Y-408282604D02*
X336151064Y-408282604D01*
X336151064Y-408282604D02*
X335593922Y-409582604D01*
D10*
D11*
X385593922Y-408839747D02*
X385470112Y-408777842D01*
X385470112Y-408777842D02*
X385408207Y-408715938D01*
X385408207Y-408715938D02*
X385346303Y-408592128D01*
X385346303Y-408592128D02*
X385346303Y-408530223D01*
X385346303Y-408530223D02*
X385408207Y-408406414D01*
X385408207Y-408406414D02*
X385470112Y-408344509D01*
X385470112Y-408344509D02*
X385593922Y-408282604D01*
X385593922Y-408282604D02*
X385841541Y-408282604D01*
X385841541Y-408282604D02*
X385965350Y-408344509D01*
X385965350Y-408344509D02*
X386027255Y-408406414D01*
X386027255Y-408406414D02*
X386089160Y-408530223D01*
X386089160Y-408530223D02*
X386089160Y-408592128D01*
X386089160Y-408592128D02*
X386027255Y-408715938D01*
X386027255Y-408715938D02*
X385965350Y-408777842D01*
X385965350Y-408777842D02*
X385841541Y-408839747D01*
X385841541Y-408839747D02*
X385593922Y-408839747D01*
X385593922Y-408839747D02*
X385470112Y-408901652D01*
X385470112Y-408901652D02*
X385408207Y-408963557D01*
X385408207Y-408963557D02*
X385346303Y-409087366D01*
X385346303Y-409087366D02*
X385346303Y-409334985D01*
X385346303Y-409334985D02*
X385408207Y-409458795D01*
X385408207Y-409458795D02*
X385470112Y-409520700D01*
X385470112Y-409520700D02*
X385593922Y-409582604D01*
X385593922Y-409582604D02*
X385841541Y-409582604D01*
X385841541Y-409582604D02*
X385965350Y-409520700D01*
X385965350Y-409520700D02*
X386027255Y-409458795D01*
X386027255Y-409458795D02*
X386089160Y-409334985D01*
X386089160Y-409334985D02*
X386089160Y-409087366D01*
X386089160Y-409087366D02*
X386027255Y-408963557D01*
X386027255Y-408963557D02*
X385965350Y-408901652D01*
X385965350Y-408901652D02*
X385841541Y-408839747D01*
D10*
D11*
X435470112Y-409582604D02*
X435717731Y-409582604D01*
X435717731Y-409582604D02*
X435841541Y-409520700D01*
X435841541Y-409520700D02*
X435903445Y-409458795D01*
X435903445Y-409458795D02*
X436027255Y-409273080D01*
X436027255Y-409273080D02*
X436089160Y-409025461D01*
X436089160Y-409025461D02*
X436089160Y-408530223D01*
X436089160Y-408530223D02*
X436027255Y-408406414D01*
X436027255Y-408406414D02*
X435965350Y-408344509D01*
X435965350Y-408344509D02*
X435841541Y-408282604D01*
X435841541Y-408282604D02*
X435593922Y-408282604D01*
X435593922Y-408282604D02*
X435470112Y-408344509D01*
X435470112Y-408344509D02*
X435408207Y-408406414D01*
X435408207Y-408406414D02*
X435346303Y-408530223D01*
X435346303Y-408530223D02*
X435346303Y-408839747D01*
X435346303Y-408839747D02*
X435408207Y-408963557D01*
X435408207Y-408963557D02*
X435470112Y-409025461D01*
X435470112Y-409025461D02*
X435593922Y-409087366D01*
X435593922Y-409087366D02*
X435841541Y-409087366D01*
X435841541Y-409087366D02*
X435965350Y-409025461D01*
X435965350Y-409025461D02*
X436027255Y-408963557D01*
X436027255Y-408963557D02*
X436089160Y-408839747D01*
D10*
D11*
X486089160Y-409582604D02*
X485346303Y-409582604D01*
X485717731Y-409582604D02*
X485717731Y-408282604D01*
X485717731Y-408282604D02*
X485593922Y-408468319D01*
X485593922Y-408468319D02*
X485470112Y-408592128D01*
X485470112Y-408592128D02*
X485346303Y-408654033D01*
X486893921Y-408282604D02*
X487017731Y-408282604D01*
X487017731Y-408282604D02*
X487141540Y-408344509D01*
X487141540Y-408344509D02*
X487203445Y-408406414D01*
X487203445Y-408406414D02*
X487265350Y-408530223D01*
X487265350Y-408530223D02*
X487327255Y-408777842D01*
X487327255Y-408777842D02*
X487327255Y-409087366D01*
X487327255Y-409087366D02*
X487265350Y-409334985D01*
X487265350Y-409334985D02*
X487203445Y-409458795D01*
X487203445Y-409458795D02*
X487141540Y-409520700D01*
X487141540Y-409520700D02*
X487017731Y-409582604D01*
X487017731Y-409582604D02*
X486893921Y-409582604D01*
X486893921Y-409582604D02*
X486770112Y-409520700D01*
X486770112Y-409520700D02*
X486708207Y-409458795D01*
X486708207Y-409458795D02*
X486646302Y-409334985D01*
X486646302Y-409334985D02*
X486584398Y-409087366D01*
X486584398Y-409087366D02*
X486584398Y-408777842D01*
X486584398Y-408777842D02*
X486646302Y-408530223D01*
X486646302Y-408530223D02*
X486708207Y-408406414D01*
X486708207Y-408406414D02*
X486770112Y-408344509D01*
X486770112Y-408344509D02*
X486893921Y-408282604D01*
D10*
D11*
X536089160Y-409582604D02*
X535346303Y-409582604D01*
X535717731Y-409582604D02*
X535717731Y-408282604D01*
X535717731Y-408282604D02*
X535593922Y-408468319D01*
X535593922Y-408468319D02*
X535470112Y-408592128D01*
X535470112Y-408592128D02*
X535346303Y-408654033D01*
X537327255Y-409582604D02*
X536584398Y-409582604D01*
X536955826Y-409582604D02*
X536955826Y-408282604D01*
X536955826Y-408282604D02*
X536832017Y-408468319D01*
X536832017Y-408468319D02*
X536708207Y-408592128D01*
X536708207Y-408592128D02*
X536584398Y-408654033D01*
D10*
D11*
X10000000Y-60000000D02*
X12000000Y-60000000D01*
D10*
D11*
X10000000Y-110000000D02*
X12000000Y-110000000D01*
D10*
D11*
X10000000Y-160000000D02*
X12000000Y-160000000D01*
D10*
D11*
X10000000Y-210000000D02*
X12000000Y-210000000D01*
D10*
D11*
X10000000Y-260000000D02*
X12000000Y-260000000D01*
D10*
D11*
X10000000Y-310000000D02*
X12000000Y-310000000D01*
D10*
D11*
X10000000Y-360000000D02*
X12000000Y-360000000D01*
D10*
D11*
X10690476Y-35222176D02*
X11309523Y-35222176D01*
X10566666Y-35593604D02*
X10999999Y-34293604D01*
X10999999Y-34293604D02*
X11433333Y-35593604D01*
D10*
D11*
X11092857Y-84912652D02*
X11278571Y-84974557D01*
X11278571Y-84974557D02*
X11340476Y-85036461D01*
X11340476Y-85036461D02*
X11402380Y-85160271D01*
X11402380Y-85160271D02*
X11402380Y-85345985D01*
X11402380Y-85345985D02*
X11340476Y-85469795D01*
X11340476Y-85469795D02*
X11278571Y-85531700D01*
X11278571Y-85531700D02*
X11154761Y-85593604D01*
X11154761Y-85593604D02*
X10659523Y-85593604D01*
X10659523Y-85593604D02*
X10659523Y-84293604D01*
X10659523Y-84293604D02*
X11092857Y-84293604D01*
X11092857Y-84293604D02*
X11216666Y-84355509D01*
X11216666Y-84355509D02*
X11278571Y-84417414D01*
X11278571Y-84417414D02*
X11340476Y-84541223D01*
X11340476Y-84541223D02*
X11340476Y-84665033D01*
X11340476Y-84665033D02*
X11278571Y-84788842D01*
X11278571Y-84788842D02*
X11216666Y-84850747D01*
X11216666Y-84850747D02*
X11092857Y-84912652D01*
X11092857Y-84912652D02*
X10659523Y-84912652D01*
D10*
D11*
X11402380Y-135469795D02*
X11340476Y-135531700D01*
X11340476Y-135531700D02*
X11154761Y-135593604D01*
X11154761Y-135593604D02*
X11030952Y-135593604D01*
X11030952Y-135593604D02*
X10845238Y-135531700D01*
X10845238Y-135531700D02*
X10721428Y-135407890D01*
X10721428Y-135407890D02*
X10659523Y-135284080D01*
X10659523Y-135284080D02*
X10597619Y-135036461D01*
X10597619Y-135036461D02*
X10597619Y-134850747D01*
X10597619Y-134850747D02*
X10659523Y-134603128D01*
X10659523Y-134603128D02*
X10721428Y-134479319D01*
X10721428Y-134479319D02*
X10845238Y-134355509D01*
X10845238Y-134355509D02*
X11030952Y-134293604D01*
X11030952Y-134293604D02*
X11154761Y-134293604D01*
X11154761Y-134293604D02*
X11340476Y-134355509D01*
X11340476Y-134355509D02*
X11402380Y-134417414D01*
D10*
D11*
X10659523Y-185593604D02*
X10659523Y-184293604D01*
X10659523Y-184293604D02*
X10969047Y-184293604D01*
X10969047Y-184293604D02*
X11154761Y-184355509D01*
X11154761Y-184355509D02*
X11278571Y-184479319D01*
X11278571Y-184479319D02*
X11340476Y-184603128D01*
X11340476Y-184603128D02*
X11402380Y-184850747D01*
X11402380Y-184850747D02*
X11402380Y-185036461D01*
X11402380Y-185036461D02*
X11340476Y-185284080D01*
X11340476Y-185284080D02*
X11278571Y-185407890D01*
X11278571Y-185407890D02*
X11154761Y-185531700D01*
X11154761Y-185531700D02*
X10969047Y-185593604D01*
X10969047Y-185593604D02*
X10659523Y-185593604D01*
D10*
D11*
X10721428Y-234912652D02*
X11154762Y-234912652D01*
X11340476Y-235593604D02*
X10721428Y-235593604D01*
X10721428Y-235593604D02*
X10721428Y-234293604D01*
X10721428Y-234293604D02*
X11340476Y-234293604D01*
D10*
D11*
X11185714Y-284912652D02*
X10752380Y-284912652D01*
X10752380Y-285593604D02*
X10752380Y-284293604D01*
X10752380Y-284293604D02*
X11371428Y-284293604D01*
D10*
D11*
X11340476Y-334355509D02*
X11216666Y-334293604D01*
X11216666Y-334293604D02*
X11030952Y-334293604D01*
X11030952Y-334293604D02*
X10845238Y-334355509D01*
X10845238Y-334355509D02*
X10721428Y-334479319D01*
X10721428Y-334479319D02*
X10659523Y-334603128D01*
X10659523Y-334603128D02*
X10597619Y-334850747D01*
X10597619Y-334850747D02*
X10597619Y-335036461D01*
X10597619Y-335036461D02*
X10659523Y-335284080D01*
X10659523Y-335284080D02*
X10721428Y-335407890D01*
X10721428Y-335407890D02*
X10845238Y-335531700D01*
X10845238Y-335531700D02*
X11030952Y-335593604D01*
X11030952Y-335593604D02*
X11154761Y-335593604D01*
X11154761Y-335593604D02*
X11340476Y-335531700D01*
X11340476Y-335531700D02*
X11402380Y-335469795D01*
X11402380Y-335469795D02*
X11402380Y-335036461D01*
X11402380Y-335036461D02*
X11154761Y-335036461D01*
D10*
D11*
X10628571Y-385593604D02*
X10628571Y-384293604D01*
X10628571Y-384912652D02*
X11371428Y-384912652D01*
X11371428Y-385593604D02*
X11371428Y-384293604D01*
D10*
D11*
X584004400Y-60000000D02*
X582004400Y-60000000D01*
D10*
D11*
X584004400Y-110000000D02*
X582004400Y-110000000D01*
D10*
D11*
X584004400Y-160000000D02*
X582004400Y-160000000D01*
D10*
D11*
X584004400Y-210000000D02*
X582004400Y-210000000D01*
D10*
D11*
X584004400Y-260000000D02*
X582004400Y-260000000D01*
D10*
D11*
X584004400Y-310000000D02*
X582004400Y-310000000D01*
D10*
D11*
X584004400Y-360000000D02*
X582004400Y-360000000D01*
D10*
D11*
X582694876Y-35222176D02*
X583313923Y-35222176D01*
X582571066Y-35593604D02*
X583004399Y-34293604D01*
X583004399Y-34293604D02*
X583437733Y-35593604D01*
D10*
D11*
X583097257Y-84912652D02*
X583282971Y-84974557D01*
X583282971Y-84974557D02*
X583344876Y-85036461D01*
X583344876Y-85036461D02*
X583406780Y-85160271D01*
X583406780Y-85160271D02*
X583406780Y-85345985D01*
X583406780Y-85345985D02*
X583344876Y-85469795D01*
X583344876Y-85469795D02*
X583282971Y-85531700D01*
X583282971Y-85531700D02*
X583159161Y-85593604D01*
X583159161Y-85593604D02*
X582663923Y-85593604D01*
X582663923Y-85593604D02*
X582663923Y-84293604D01*
X582663923Y-84293604D02*
X583097257Y-84293604D01*
X583097257Y-84293604D02*
X583221066Y-84355509D01*
X583221066Y-84355509D02*
X583282971Y-84417414D01*
X583282971Y-84417414D02*
X583344876Y-84541223D01*
X583344876Y-84541223D02*
X583344876Y-84665033D01*
X583344876Y-84665033D02*
X583282971Y-84788842D01*
X583282971Y-84788842D02*
X583221066Y-84850747D01*
X583221066Y-84850747D02*
X583097257Y-84912652D01*
X583097257Y-84912652D02*
X582663923Y-84912652D01*
D10*
D11*
X583406780Y-135469795D02*
X583344876Y-135531700D01*
X583344876Y-135531700D02*
X583159161Y-135593604D01*
X583159161Y-135593604D02*
X583035352Y-135593604D01*
X583035352Y-135593604D02*
X582849638Y-135531700D01*
X582849638Y-135531700D02*
X582725828Y-135407890D01*
X582725828Y-135407890D02*
X582663923Y-135284080D01*
X582663923Y-135284080D02*
X582602019Y-135036461D01*
X582602019Y-135036461D02*
X582602019Y-134850747D01*
X582602019Y-134850747D02*
X582663923Y-134603128D01*
X582663923Y-134603128D02*
X582725828Y-134479319D01*
X582725828Y-134479319D02*
X582849638Y-134355509D01*
X582849638Y-134355509D02*
X583035352Y-134293604D01*
X583035352Y-134293604D02*
X583159161Y-134293604D01*
X583159161Y-134293604D02*
X583344876Y-134355509D01*
X583344876Y-134355509D02*
X583406780Y-134417414D01*
D10*
D11*
X582663923Y-185593604D02*
X582663923Y-184293604D01*
X582663923Y-184293604D02*
X582973447Y-184293604D01*
X582973447Y-184293604D02*
X583159161Y-184355509D01*
X583159161Y-184355509D02*
X583282971Y-184479319D01*
X583282971Y-184479319D02*
X583344876Y-184603128D01*
X583344876Y-184603128D02*
X583406780Y-184850747D01*
X583406780Y-184850747D02*
X583406780Y-185036461D01*
X583406780Y-185036461D02*
X583344876Y-185284080D01*
X583344876Y-185284080D02*
X583282971Y-185407890D01*
X583282971Y-185407890D02*
X583159161Y-185531700D01*
X583159161Y-185531700D02*
X582973447Y-185593604D01*
X582973447Y-185593604D02*
X582663923Y-185593604D01*
D10*
D11*
X582725828Y-234912652D02*
X583159162Y-234912652D01*
X583344876Y-235593604D02*
X582725828Y-235593604D01*
X582725828Y-235593604D02*
X582725828Y-234293604D01*
X582725828Y-234293604D02*
X583344876Y-234293604D01*
D10*
D11*
X583190114Y-284912652D02*
X582756780Y-284912652D01*
X582756780Y-285593604D02*
X582756780Y-284293604D01*
X582756780Y-284293604D02*
X583375828Y-284293604D01*
D10*
D11*
X583344876Y-334355509D02*
X583221066Y-334293604D01*
X583221066Y-334293604D02*
X583035352Y-334293604D01*
X583035352Y-334293604D02*
X582849638Y-334355509D01*
X582849638Y-334355509D02*
X582725828Y-334479319D01*
X582725828Y-334479319D02*
X582663923Y-334603128D01*
X582663923Y-334603128D02*
X582602019Y-334850747D01*
X582602019Y-334850747D02*
X582602019Y-335036461D01*
X582602019Y-335036461D02*
X582663923Y-335284080D01*
X582663923Y-335284080D02*
X582725828Y-335407890D01*
X582725828Y-335407890D02*
X582849638Y-335531700D01*
X582849638Y-335531700D02*
X583035352Y-335593604D01*
X583035352Y-335593604D02*
X583159161Y-335593604D01*
X583159161Y-335593604D02*
X583344876Y-335531700D01*
X583344876Y-335531700D02*
X583406780Y-335469795D01*
X583406780Y-335469795D02*
X583406780Y-335036461D01*
X583406780Y-335036461D02*
X583159161Y-335036461D01*
D10*
D11*
X582632971Y-385593604D02*
X582632971Y-384293604D01*
X582632971Y-384912652D02*
X583375828Y-384912652D01*
X583375828Y-385593604D02*
X583375828Y-384293604D01*
D10*
D11*
X497460226Y-403775128D02*
X497460226Y-402275128D01*
X497460226Y-402275128D02*
X497817369Y-402275128D01*
X497817369Y-402275128D02*
X498031655Y-402346557D01*
X498031655Y-402346557D02*
X498174512Y-402489414D01*
X498174512Y-402489414D02*
X498245941Y-402632271D01*
X498245941Y-402632271D02*
X498317369Y-402917985D01*
X498317369Y-402917985D02*
X498317369Y-403132271D01*
X498317369Y-403132271D02*
X498245941Y-403417985D01*
X498245941Y-403417985D02*
X498174512Y-403560842D01*
X498174512Y-403560842D02*
X498031655Y-403703700D01*
X498031655Y-403703700D02*
X497817369Y-403775128D01*
X497817369Y-403775128D02*
X497460226Y-403775128D01*
X499603084Y-403775128D02*
X499603084Y-402989414D01*
X499603084Y-402989414D02*
X499531655Y-402846557D01*
X499531655Y-402846557D02*
X499388798Y-402775128D01*
X499388798Y-402775128D02*
X499103084Y-402775128D01*
X499103084Y-402775128D02*
X498960226Y-402846557D01*
X499603084Y-403703700D02*
X499460226Y-403775128D01*
X499460226Y-403775128D02*
X499103084Y-403775128D01*
X499103084Y-403775128D02*
X498960226Y-403703700D01*
X498960226Y-403703700D02*
X498888798Y-403560842D01*
X498888798Y-403560842D02*
X498888798Y-403417985D01*
X498888798Y-403417985D02*
X498960226Y-403275128D01*
X498960226Y-403275128D02*
X499103084Y-403203700D01*
X499103084Y-403203700D02*
X499460226Y-403203700D01*
X499460226Y-403203700D02*
X499603084Y-403132271D01*
X500103084Y-402775128D02*
X500674512Y-402775128D01*
X500317369Y-402275128D02*
X500317369Y-403560842D01*
X500317369Y-403560842D02*
X500388798Y-403703700D01*
X500388798Y-403703700D02*
X500531655Y-403775128D01*
X500531655Y-403775128D02*
X500674512Y-403775128D01*
X501745941Y-403703700D02*
X501603084Y-403775128D01*
X501603084Y-403775128D02*
X501317370Y-403775128D01*
X501317370Y-403775128D02*
X501174512Y-403703700D01*
X501174512Y-403703700D02*
X501103084Y-403560842D01*
X501103084Y-403560842D02*
X501103084Y-402989414D01*
X501103084Y-402989414D02*
X501174512Y-402846557D01*
X501174512Y-402846557D02*
X501317370Y-402775128D01*
X501317370Y-402775128D02*
X501603084Y-402775128D01*
X501603084Y-402775128D02*
X501745941Y-402846557D01*
X501745941Y-402846557D02*
X501817370Y-402989414D01*
X501817370Y-402989414D02*
X501817370Y-403132271D01*
X501817370Y-403132271D02*
X501103084Y-403275128D01*
X502460226Y-403632271D02*
X502531655Y-403703700D01*
X502531655Y-403703700D02*
X502460226Y-403775128D01*
X502460226Y-403775128D02*
X502388798Y-403703700D01*
X502388798Y-403703700D02*
X502460226Y-403632271D01*
X502460226Y-403632271D02*
X502460226Y-403775128D01*
X502460226Y-402846557D02*
X502531655Y-402917985D01*
X502531655Y-402917985D02*
X502460226Y-402989414D01*
X502460226Y-402989414D02*
X502388798Y-402917985D01*
X502388798Y-402917985D02*
X502460226Y-402846557D01*
X502460226Y-402846557D02*
X502460226Y-402989414D01*
D10*
D11*
X474004400Y-404489000D02*
X582004400Y-404489000D01*
D10*
D11*
X475460226Y-406575128D02*
X475460226Y-405075128D01*
X476317369Y-406575128D02*
X475674512Y-405717985D01*
X476317369Y-405075128D02*
X475460226Y-405932271D01*
X476960226Y-406575128D02*
X476960226Y-405575128D01*
X476960226Y-405075128D02*
X476888798Y-405146557D01*
X476888798Y-405146557D02*
X476960226Y-405217985D01*
X476960226Y-405217985D02*
X477031655Y-405146557D01*
X477031655Y-405146557D02*
X476960226Y-405075128D01*
X476960226Y-405075128D02*
X476960226Y-405217985D01*
X478531655Y-406432271D02*
X478460227Y-406503700D01*
X478460227Y-406503700D02*
X478245941Y-406575128D01*
X478245941Y-406575128D02*
X478103084Y-406575128D01*
X478103084Y-406575128D02*
X477888798Y-406503700D01*
X477888798Y-406503700D02*
X477745941Y-406360842D01*
X477745941Y-406360842D02*
X477674512Y-406217985D01*
X477674512Y-406217985D02*
X477603084Y-405932271D01*
X477603084Y-405932271D02*
X477603084Y-405717985D01*
X477603084Y-405717985D02*
X477674512Y-405432271D01*
X477674512Y-405432271D02*
X477745941Y-405289414D01*
X477745941Y-405289414D02*
X477888798Y-405146557D01*
X477888798Y-405146557D02*
X478103084Y-405075128D01*
X478103084Y-405075128D02*
X478245941Y-405075128D01*
X478245941Y-405075128D02*
X478460227Y-405146557D01*
X478460227Y-405146557D02*
X478531655Y-405217985D01*
X479817370Y-406575128D02*
X479817370Y-405789414D01*
X479817370Y-405789414D02*
X479745941Y-405646557D01*
X479745941Y-405646557D02*
X479603084Y-405575128D01*
X479603084Y-405575128D02*
X479317370Y-405575128D01*
X479317370Y-405575128D02*
X479174512Y-405646557D01*
X479817370Y-406503700D02*
X479674512Y-406575128D01*
X479674512Y-406575128D02*
X479317370Y-406575128D01*
X479317370Y-406575128D02*
X479174512Y-406503700D01*
X479174512Y-406503700D02*
X479103084Y-406360842D01*
X479103084Y-406360842D02*
X479103084Y-406217985D01*
X479103084Y-406217985D02*
X479174512Y-406075128D01*
X479174512Y-406075128D02*
X479317370Y-406003700D01*
X479317370Y-406003700D02*
X479674512Y-406003700D01*
X479674512Y-406003700D02*
X479817370Y-405932271D01*
X481174513Y-406575128D02*
X481174513Y-405075128D01*
X481174513Y-406503700D02*
X481031655Y-406575128D01*
X481031655Y-406575128D02*
X480745941Y-406575128D01*
X480745941Y-406575128D02*
X480603084Y-406503700D01*
X480603084Y-406503700D02*
X480531655Y-406432271D01*
X480531655Y-406432271D02*
X480460227Y-406289414D01*
X480460227Y-406289414D02*
X480460227Y-405860842D01*
X480460227Y-405860842D02*
X480531655Y-405717985D01*
X480531655Y-405717985D02*
X480603084Y-405646557D01*
X480603084Y-405646557D02*
X480745941Y-405575128D01*
X480745941Y-405575128D02*
X481031655Y-405575128D01*
X481031655Y-405575128D02*
X481174513Y-405646557D01*
X483031655Y-405789414D02*
X483531655Y-405789414D01*
X483745941Y-406575128D02*
X483031655Y-406575128D01*
X483031655Y-406575128D02*
X483031655Y-405075128D01*
X483031655Y-405075128D02*
X483745941Y-405075128D01*
X484388798Y-406432271D02*
X484460227Y-406503700D01*
X484460227Y-406503700D02*
X484388798Y-406575128D01*
X484388798Y-406575128D02*
X484317370Y-406503700D01*
X484317370Y-406503700D02*
X484388798Y-406432271D01*
X484388798Y-406432271D02*
X484388798Y-406575128D01*
X485103084Y-406575128D02*
X485103084Y-405075128D01*
X485103084Y-405075128D02*
X485460227Y-405075128D01*
X485460227Y-405075128D02*
X485674513Y-405146557D01*
X485674513Y-405146557D02*
X485817370Y-405289414D01*
X485817370Y-405289414D02*
X485888799Y-405432271D01*
X485888799Y-405432271D02*
X485960227Y-405717985D01*
X485960227Y-405717985D02*
X485960227Y-405932271D01*
X485960227Y-405932271D02*
X485888799Y-406217985D01*
X485888799Y-406217985D02*
X485817370Y-406360842D01*
X485817370Y-406360842D02*
X485674513Y-406503700D01*
X485674513Y-406503700D02*
X485460227Y-406575128D01*
X485460227Y-406575128D02*
X485103084Y-406575128D01*
X486603084Y-406432271D02*
X486674513Y-406503700D01*
X486674513Y-406503700D02*
X486603084Y-406575128D01*
X486603084Y-406575128D02*
X486531656Y-406503700D01*
X486531656Y-406503700D02*
X486603084Y-406432271D01*
X486603084Y-406432271D02*
X486603084Y-406575128D01*
X487245942Y-406146557D02*
X487960228Y-406146557D01*
X487103085Y-406575128D02*
X487603085Y-405075128D01*
X487603085Y-405075128D02*
X488103085Y-406575128D01*
X488603084Y-406432271D02*
X488674513Y-406503700D01*
X488674513Y-406503700D02*
X488603084Y-406575128D01*
X488603084Y-406575128D02*
X488531656Y-406503700D01*
X488531656Y-406503700D02*
X488603084Y-406432271D01*
X488603084Y-406432271D02*
X488603084Y-406575128D01*
X490531656Y-406575128D02*
X490817370Y-406575128D01*
X490817370Y-406575128D02*
X490960227Y-406503700D01*
X490960227Y-406503700D02*
X491031656Y-406432271D01*
X491031656Y-406432271D02*
X491174513Y-406217985D01*
X491174513Y-406217985D02*
X491245942Y-405932271D01*
X491245942Y-405932271D02*
X491245942Y-405360842D01*
X491245942Y-405360842D02*
X491174513Y-405217985D01*
X491174513Y-405217985D02*
X491103085Y-405146557D01*
X491103085Y-405146557D02*
X490960227Y-405075128D01*
X490960227Y-405075128D02*
X490674513Y-405075128D01*
X490674513Y-405075128D02*
X490531656Y-405146557D01*
X490531656Y-405146557D02*
X490460227Y-405217985D01*
X490460227Y-405217985D02*
X490388799Y-405360842D01*
X490388799Y-405360842D02*
X490388799Y-405717985D01*
X490388799Y-405717985D02*
X490460227Y-405860842D01*
X490460227Y-405860842D02*
X490531656Y-405932271D01*
X490531656Y-405932271D02*
X490674513Y-406003700D01*
X490674513Y-406003700D02*
X490960227Y-406003700D01*
X490960227Y-406003700D02*
X491103085Y-405932271D01*
X491103085Y-405932271D02*
X491174513Y-405860842D01*
X491174513Y-405860842D02*
X491245942Y-405717985D01*
X491888798Y-406432271D02*
X491960227Y-406503700D01*
X491960227Y-406503700D02*
X491888798Y-406575128D01*
X491888798Y-406575128D02*
X491817370Y-406503700D01*
X491817370Y-406503700D02*
X491888798Y-406432271D01*
X491888798Y-406432271D02*
X491888798Y-406575128D01*
X492888799Y-405075128D02*
X493031656Y-405075128D01*
X493031656Y-405075128D02*
X493174513Y-405146557D01*
X493174513Y-405146557D02*
X493245942Y-405217985D01*
X493245942Y-405217985D02*
X493317370Y-405360842D01*
X493317370Y-405360842D02*
X493388799Y-405646557D01*
X493388799Y-405646557D02*
X493388799Y-406003700D01*
X493388799Y-406003700D02*
X493317370Y-406289414D01*
X493317370Y-406289414D02*
X493245942Y-406432271D01*
X493245942Y-406432271D02*
X493174513Y-406503700D01*
X493174513Y-406503700D02*
X493031656Y-406575128D01*
X493031656Y-406575128D02*
X492888799Y-406575128D01*
X492888799Y-406575128D02*
X492745942Y-406503700D01*
X492745942Y-406503700D02*
X492674513Y-406432271D01*
X492674513Y-406432271D02*
X492603084Y-406289414D01*
X492603084Y-406289414D02*
X492531656Y-406003700D01*
X492531656Y-406003700D02*
X492531656Y-405646557D01*
X492531656Y-405646557D02*
X492603084Y-405360842D01*
X492603084Y-405360842D02*
X492674513Y-405217985D01*
X492674513Y-405217985D02*
X492745942Y-405146557D01*
X492745942Y-405146557D02*
X492888799Y-405075128D01*
X494031655Y-406432271D02*
X494103084Y-406503700D01*
X494103084Y-406503700D02*
X494031655Y-406575128D01*
X494031655Y-406575128D02*
X493960227Y-406503700D01*
X493960227Y-406503700D02*
X494031655Y-406432271D01*
X494031655Y-406432271D02*
X494031655Y-406575128D01*
X494674513Y-405217985D02*
X494745941Y-405146557D01*
X494745941Y-405146557D02*
X494888799Y-405075128D01*
X494888799Y-405075128D02*
X495245941Y-405075128D01*
X495245941Y-405075128D02*
X495388799Y-405146557D01*
X495388799Y-405146557D02*
X495460227Y-405217985D01*
X495460227Y-405217985D02*
X495531656Y-405360842D01*
X495531656Y-405360842D02*
X495531656Y-405503700D01*
X495531656Y-405503700D02*
X495460227Y-405717985D01*
X495460227Y-405717985D02*
X494603084Y-406575128D01*
X494603084Y-406575128D02*
X495531656Y-406575128D01*
D10*
D11*
X474004400Y-401489000D02*
X582004400Y-401489000D01*
D10*
D12*
X561416053Y-403767328D02*
X560916053Y-403053042D01*
X560558910Y-403767328D02*
X560558910Y-402267328D01*
X560558910Y-402267328D02*
X561130339Y-402267328D01*
X561130339Y-402267328D02*
X561273196Y-402338757D01*
X561273196Y-402338757D02*
X561344625Y-402410185D01*
X561344625Y-402410185D02*
X561416053Y-402553042D01*
X561416053Y-402553042D02*
X561416053Y-402767328D01*
X561416053Y-402767328D02*
X561344625Y-402910185D01*
X561344625Y-402910185D02*
X561273196Y-402981614D01*
X561273196Y-402981614D02*
X561130339Y-403053042D01*
X561130339Y-403053042D02*
X560558910Y-403053042D01*
X562630339Y-403695900D02*
X562487482Y-403767328D01*
X562487482Y-403767328D02*
X562201768Y-403767328D01*
X562201768Y-403767328D02*
X562058910Y-403695900D01*
X562058910Y-403695900D02*
X561987482Y-403553042D01*
X561987482Y-403553042D02*
X561987482Y-402981614D01*
X561987482Y-402981614D02*
X562058910Y-402838757D01*
X562058910Y-402838757D02*
X562201768Y-402767328D01*
X562201768Y-402767328D02*
X562487482Y-402767328D01*
X562487482Y-402767328D02*
X562630339Y-402838757D01*
X562630339Y-402838757D02*
X562701768Y-402981614D01*
X562701768Y-402981614D02*
X562701768Y-403124471D01*
X562701768Y-403124471D02*
X561987482Y-403267328D01*
X563201767Y-402767328D02*
X563558910Y-403767328D01*
X563558910Y-403767328D02*
X563916053Y-402767328D01*
X564487481Y-403624471D02*
X564558910Y-403695900D01*
X564558910Y-403695900D02*
X564487481Y-403767328D01*
X564487481Y-403767328D02*
X564416053Y-403695900D01*
X564416053Y-403695900D02*
X564487481Y-403624471D01*
X564487481Y-403624471D02*
X564487481Y-403767328D01*
X564487481Y-402838757D02*
X564558910Y-402910185D01*
X564558910Y-402910185D02*
X564487481Y-402981614D01*
X564487481Y-402981614D02*
X564416053Y-402910185D01*
X564416053Y-402910185D02*
X564487481Y-402838757D01*
X564487481Y-402838757D02*
X564487481Y-402981614D01*
D10*
D11*
X475388798Y-403703700D02*
X475603084Y-403775128D01*
X475603084Y-403775128D02*
X475960226Y-403775128D01*
X475960226Y-403775128D02*
X476103084Y-403703700D01*
X476103084Y-403703700D02*
X476174512Y-403632271D01*
X476174512Y-403632271D02*
X476245941Y-403489414D01*
X476245941Y-403489414D02*
X476245941Y-403346557D01*
X476245941Y-403346557D02*
X476174512Y-403203700D01*
X476174512Y-403203700D02*
X476103084Y-403132271D01*
X476103084Y-403132271D02*
X475960226Y-403060842D01*
X475960226Y-403060842D02*
X475674512Y-402989414D01*
X475674512Y-402989414D02*
X475531655Y-402917985D01*
X475531655Y-402917985D02*
X475460226Y-402846557D01*
X475460226Y-402846557D02*
X475388798Y-402703700D01*
X475388798Y-402703700D02*
X475388798Y-402560842D01*
X475388798Y-402560842D02*
X475460226Y-402417985D01*
X475460226Y-402417985D02*
X475531655Y-402346557D01*
X475531655Y-402346557D02*
X475674512Y-402275128D01*
X475674512Y-402275128D02*
X476031655Y-402275128D01*
X476031655Y-402275128D02*
X476245941Y-402346557D01*
X476888797Y-403775128D02*
X476888797Y-402775128D01*
X476888797Y-402275128D02*
X476817369Y-402346557D01*
X476817369Y-402346557D02*
X476888797Y-402417985D01*
X476888797Y-402417985D02*
X476960226Y-402346557D01*
X476960226Y-402346557D02*
X476888797Y-402275128D01*
X476888797Y-402275128D02*
X476888797Y-402417985D01*
X477460226Y-402775128D02*
X478245941Y-402775128D01*
X478245941Y-402775128D02*
X477460226Y-403775128D01*
X477460226Y-403775128D02*
X478245941Y-403775128D01*
X479388798Y-403703700D02*
X479245941Y-403775128D01*
X479245941Y-403775128D02*
X478960227Y-403775128D01*
X478960227Y-403775128D02*
X478817369Y-403703700D01*
X478817369Y-403703700D02*
X478745941Y-403560842D01*
X478745941Y-403560842D02*
X478745941Y-402989414D01*
X478745941Y-402989414D02*
X478817369Y-402846557D01*
X478817369Y-402846557D02*
X478960227Y-402775128D01*
X478960227Y-402775128D02*
X479245941Y-402775128D01*
X479245941Y-402775128D02*
X479388798Y-402846557D01*
X479388798Y-402846557D02*
X479460227Y-402989414D01*
X479460227Y-402989414D02*
X479460227Y-403132271D01*
X479460227Y-403132271D02*
X478745941Y-403275128D01*
X480103083Y-403632271D02*
X480174512Y-403703700D01*
X480174512Y-403703700D02*
X480103083Y-403775128D01*
X480103083Y-403775128D02*
X480031655Y-403703700D01*
X480031655Y-403703700D02*
X480103083Y-403632271D01*
X480103083Y-403632271D02*
X480103083Y-403775128D01*
X480103083Y-402846557D02*
X480174512Y-402917985D01*
X480174512Y-402917985D02*
X480103083Y-402989414D01*
X480103083Y-402989414D02*
X480031655Y-402917985D01*
X480031655Y-402917985D02*
X480103083Y-402846557D01*
X480103083Y-402846557D02*
X480103083Y-402989414D01*
X481888798Y-403346557D02*
X482603084Y-403346557D01*
X481745941Y-403775128D02*
X482245941Y-402275128D01*
X482245941Y-402275128D02*
X482745941Y-403775128D01*
X483174512Y-402417985D02*
X483245940Y-402346557D01*
X483245940Y-402346557D02*
X483388798Y-402275128D01*
X483388798Y-402275128D02*
X483745940Y-402275128D01*
X483745940Y-402275128D02*
X483888798Y-402346557D01*
X483888798Y-402346557D02*
X483960226Y-402417985D01*
X483960226Y-402417985D02*
X484031655Y-402560842D01*
X484031655Y-402560842D02*
X484031655Y-402703700D01*
X484031655Y-402703700D02*
X483960226Y-402917985D01*
X483960226Y-402917985D02*
X483103083Y-403775128D01*
X483103083Y-403775128D02*
X484031655Y-403775128D01*
D10*
D11*
X560460226Y-406575128D02*
X560460226Y-405075128D01*
X561817370Y-406575128D02*
X561817370Y-405075128D01*
X561817370Y-406503700D02*
X561674512Y-406575128D01*
X561674512Y-406575128D02*
X561388798Y-406575128D01*
X561388798Y-406575128D02*
X561245941Y-406503700D01*
X561245941Y-406503700D02*
X561174512Y-406432271D01*
X561174512Y-406432271D02*
X561103084Y-406289414D01*
X561103084Y-406289414D02*
X561103084Y-405860842D01*
X561103084Y-405860842D02*
X561174512Y-405717985D01*
X561174512Y-405717985D02*
X561245941Y-405646557D01*
X561245941Y-405646557D02*
X561388798Y-405575128D01*
X561388798Y-405575128D02*
X561674512Y-405575128D01*
X561674512Y-405575128D02*
X561817370Y-405646557D01*
X562531655Y-406432271D02*
X562603084Y-406503700D01*
X562603084Y-406503700D02*
X562531655Y-406575128D01*
X562531655Y-406575128D02*
X562460227Y-406503700D01*
X562460227Y-406503700D02*
X562531655Y-406432271D01*
X562531655Y-406432271D02*
X562531655Y-406575128D01*
X562531655Y-405646557D02*
X562603084Y-405717985D01*
X562603084Y-405717985D02*
X562531655Y-405789414D01*
X562531655Y-405789414D02*
X562460227Y-405717985D01*
X562460227Y-405717985D02*
X562531655Y-405646557D01*
X562531655Y-405646557D02*
X562531655Y-405789414D01*
X565174513Y-406575128D02*
X564317370Y-406575128D01*
X564745941Y-406575128D02*
X564745941Y-405075128D01*
X564745941Y-405075128D02*
X564603084Y-405289414D01*
X564603084Y-405289414D02*
X564460227Y-405432271D01*
X564460227Y-405432271D02*
X564317370Y-405503700D01*
X566888798Y-405003700D02*
X565603084Y-406932271D01*
X568174513Y-406575128D02*
X567317370Y-406575128D01*
X567745941Y-406575128D02*
X567745941Y-405075128D01*
X567745941Y-405075128D02*
X567603084Y-405289414D01*
X567603084Y-405289414D02*
X567460227Y-405432271D01*
X567460227Y-405432271D02*
X567317370Y-405503700D01*
X568674512Y-405075128D02*
X569603084Y-405075128D01*
X569603084Y-405075128D02*
X569103084Y-405646557D01*
X569103084Y-405646557D02*
X569317369Y-405646557D01*
X569317369Y-405646557D02*
X569460227Y-405717985D01*
X569460227Y-405717985D02*
X569531655Y-405789414D01*
X569531655Y-405789414D02*
X569603084Y-405932271D01*
X569603084Y-405932271D02*
X569603084Y-406289414D01*
X569603084Y-406289414D02*
X569531655Y-406432271D01*
X569531655Y-406432271D02*
X569460227Y-406503700D01*
X569460227Y-406503700D02*
X569317369Y-406575128D01*
X569317369Y-406575128D02*
X568888798Y-406575128D01*
X568888798Y-406575128D02*
X568745941Y-406503700D01*
X568745941Y-406503700D02*
X568674512Y-406432271D01*
D10*
D11*
X474004400Y-397489000D02*
X582004400Y-397489000D01*
D10*
D13*
X475696128Y-398193438D02*
X476838985Y-398193438D01*
X476017557Y-400193438D02*
X476267557Y-398193438D01*
X477255652Y-400193438D02*
X477422319Y-398860104D01*
X477505652Y-398193438D02*
X477398509Y-398288676D01*
X477398509Y-398288676D02*
X477481843Y-398383914D01*
X477481843Y-398383914D02*
X477588986Y-398288676D01*
X477588986Y-398288676D02*
X477505652Y-398193438D01*
X477505652Y-398193438D02*
X477481843Y-398383914D01*
X478088986Y-398860104D02*
X478850890Y-398860104D01*
X478458033Y-398193438D02*
X478243748Y-399907723D01*
X478243748Y-399907723D02*
X478315176Y-400098200D01*
X478315176Y-400098200D02*
X478493748Y-400193438D01*
X478493748Y-400193438D02*
X478684224Y-400193438D01*
X479636605Y-400193438D02*
X479458033Y-400098200D01*
X479458033Y-400098200D02*
X479386605Y-399907723D01*
X479386605Y-399907723D02*
X479600890Y-398193438D01*
X481172319Y-400098200D02*
X480969938Y-400193438D01*
X480969938Y-400193438D02*
X480588985Y-400193438D01*
X480588985Y-400193438D02*
X480410414Y-400098200D01*
X480410414Y-400098200D02*
X480338985Y-399907723D01*
X480338985Y-399907723D02*
X480434224Y-399145819D01*
X480434224Y-399145819D02*
X480553271Y-398955342D01*
X480553271Y-398955342D02*
X480755652Y-398860104D01*
X480755652Y-398860104D02*
X481136604Y-398860104D01*
X481136604Y-398860104D02*
X481315176Y-398955342D01*
X481315176Y-398955342D02*
X481386604Y-399145819D01*
X481386604Y-399145819D02*
X481362795Y-399336295D01*
X481362795Y-399336295D02*
X480386604Y-399526771D01*
X482136605Y-400002961D02*
X482219938Y-400098200D01*
X482219938Y-400098200D02*
X482112795Y-400193438D01*
X482112795Y-400193438D02*
X482029462Y-400098200D01*
X482029462Y-400098200D02*
X482136605Y-400002961D01*
X482136605Y-400002961D02*
X482112795Y-400193438D01*
X482267557Y-398955342D02*
X482350890Y-399050580D01*
X482350890Y-399050580D02*
X482243748Y-399145819D01*
X482243748Y-399145819D02*
X482160414Y-399050580D01*
X482160414Y-399050580D02*
X482267557Y-398955342D01*
X482267557Y-398955342D02*
X482243748Y-399145819D01*
D10*
D11*
X475960226Y-395589414D02*
X475460226Y-395589414D01*
X475460226Y-396375128D02*
X475460226Y-394875128D01*
X475460226Y-394875128D02*
X476174512Y-394875128D01*
X476745940Y-396375128D02*
X476745940Y-395375128D01*
X476745940Y-394875128D02*
X476674512Y-394946557D01*
X476674512Y-394946557D02*
X476745940Y-395017985D01*
X476745940Y-395017985D02*
X476817369Y-394946557D01*
X476817369Y-394946557D02*
X476745940Y-394875128D01*
X476745940Y-394875128D02*
X476745940Y-395017985D01*
X477674512Y-396375128D02*
X477531655Y-396303700D01*
X477531655Y-396303700D02*
X477460226Y-396160842D01*
X477460226Y-396160842D02*
X477460226Y-394875128D01*
X478817369Y-396303700D02*
X478674512Y-396375128D01*
X478674512Y-396375128D02*
X478388798Y-396375128D01*
X478388798Y-396375128D02*
X478245940Y-396303700D01*
X478245940Y-396303700D02*
X478174512Y-396160842D01*
X478174512Y-396160842D02*
X478174512Y-395589414D01*
X478174512Y-395589414D02*
X478245940Y-395446557D01*
X478245940Y-395446557D02*
X478388798Y-395375128D01*
X478388798Y-395375128D02*
X478674512Y-395375128D01*
X478674512Y-395375128D02*
X478817369Y-395446557D01*
X478817369Y-395446557D02*
X478888798Y-395589414D01*
X478888798Y-395589414D02*
X478888798Y-395732271D01*
X478888798Y-395732271D02*
X478174512Y-395875128D01*
X479531654Y-396232271D02*
X479603083Y-396303700D01*
X479603083Y-396303700D02*
X479531654Y-396375128D01*
X479531654Y-396375128D02*
X479460226Y-396303700D01*
X479460226Y-396303700D02*
X479531654Y-396232271D01*
X479531654Y-396232271D02*
X479531654Y-396375128D01*
X479531654Y-395446557D02*
X479603083Y-395517985D01*
X479603083Y-395517985D02*
X479531654Y-395589414D01*
X479531654Y-395589414D02*
X479460226Y-395517985D01*
X479460226Y-395517985D02*
X479531654Y-395446557D01*
X479531654Y-395446557D02*
X479531654Y-395589414D01*
X482245940Y-396232271D02*
X482174512Y-396303700D01*
X482174512Y-396303700D02*
X481960226Y-396375128D01*
X481960226Y-396375128D02*
X481817369Y-396375128D01*
X481817369Y-396375128D02*
X481603083Y-396303700D01*
X481603083Y-396303700D02*
X481460226Y-396160842D01*
X481460226Y-396160842D02*
X481388797Y-396017985D01*
X481388797Y-396017985D02*
X481317369Y-395732271D01*
X481317369Y-395732271D02*
X481317369Y-395517985D01*
X481317369Y-395517985D02*
X481388797Y-395232271D01*
X481388797Y-395232271D02*
X481460226Y-395089414D01*
X481460226Y-395089414D02*
X481603083Y-394946557D01*
X481603083Y-394946557D02*
X481817369Y-394875128D01*
X481817369Y-394875128D02*
X481960226Y-394875128D01*
X481960226Y-394875128D02*
X482174512Y-394946557D01*
X482174512Y-394946557D02*
X482245940Y-395017985D01*
X482888797Y-396375128D02*
X482888797Y-394875128D01*
X482888797Y-394875128D02*
X483388797Y-395946557D01*
X483388797Y-395946557D02*
X483888797Y-394875128D01*
X483888797Y-394875128D02*
X483888797Y-396375128D01*
X485317369Y-394875128D02*
X484603083Y-394875128D01*
X484603083Y-394875128D02*
X484531655Y-395589414D01*
X484531655Y-395589414D02*
X484603083Y-395517985D01*
X484603083Y-395517985D02*
X484745941Y-395446557D01*
X484745941Y-395446557D02*
X485103083Y-395446557D01*
X485103083Y-395446557D02*
X485245941Y-395517985D01*
X485245941Y-395517985D02*
X485317369Y-395589414D01*
X485317369Y-395589414D02*
X485388798Y-395732271D01*
X485388798Y-395732271D02*
X485388798Y-396089414D01*
X485388798Y-396089414D02*
X485317369Y-396232271D01*
X485317369Y-396232271D02*
X485245941Y-396303700D01*
X485245941Y-396303700D02*
X485103083Y-396375128D01*
X485103083Y-396375128D02*
X484745941Y-396375128D01*
X484745941Y-396375128D02*
X484603083Y-396303700D01*
X484603083Y-396303700D02*
X484531655Y-396232271D01*
X486031654Y-396375128D02*
X486031654Y-394875128D01*
X487031655Y-394875128D02*
X487317369Y-394875128D01*
X487317369Y-394875128D02*
X487460226Y-394946557D01*
X487460226Y-394946557D02*
X487603083Y-395089414D01*
X487603083Y-395089414D02*
X487674512Y-395375128D01*
X487674512Y-395375128D02*
X487674512Y-395875128D01*
X487674512Y-395875128D02*
X487603083Y-396160842D01*
X487603083Y-396160842D02*
X487460226Y-396303700D01*
X487460226Y-396303700D02*
X487317369Y-396375128D01*
X487317369Y-396375128D02*
X487031655Y-396375128D01*
X487031655Y-396375128D02*
X486888798Y-396303700D01*
X486888798Y-396303700D02*
X486745940Y-396160842D01*
X486745940Y-396160842D02*
X486674512Y-395875128D01*
X486674512Y-395875128D02*
X486674512Y-395375128D01*
X486674512Y-395375128D02*
X486745940Y-395089414D01*
X486745940Y-395089414D02*
X486888798Y-394946557D01*
X486888798Y-394946557D02*
X487031655Y-394875128D01*
X488317369Y-396232271D02*
X488388798Y-396303700D01*
X488388798Y-396303700D02*
X488317369Y-396375128D01*
X488317369Y-396375128D02*
X488245941Y-396303700D01*
X488245941Y-396303700D02*
X488317369Y-396232271D01*
X488317369Y-396232271D02*
X488317369Y-396375128D01*
X489031655Y-396375128D02*
X489031655Y-394875128D01*
X489174513Y-395803700D02*
X489603084Y-396375128D01*
X489603084Y-395375128D02*
X489031655Y-395946557D01*
X490245941Y-396375128D02*
X490245941Y-395375128D01*
X490245941Y-394875128D02*
X490174513Y-394946557D01*
X490174513Y-394946557D02*
X490245941Y-395017985D01*
X490245941Y-395017985D02*
X490317370Y-394946557D01*
X490317370Y-394946557D02*
X490245941Y-394875128D01*
X490245941Y-394875128D02*
X490245941Y-395017985D01*
X491603085Y-396303700D02*
X491460227Y-396375128D01*
X491460227Y-396375128D02*
X491174513Y-396375128D01*
X491174513Y-396375128D02*
X491031656Y-396303700D01*
X491031656Y-396303700D02*
X490960227Y-396232271D01*
X490960227Y-396232271D02*
X490888799Y-396089414D01*
X490888799Y-396089414D02*
X490888799Y-395660842D01*
X490888799Y-395660842D02*
X490960227Y-395517985D01*
X490960227Y-395517985D02*
X491031656Y-395446557D01*
X491031656Y-395446557D02*
X491174513Y-395375128D01*
X491174513Y-395375128D02*
X491460227Y-395375128D01*
X491460227Y-395375128D02*
X491603085Y-395446557D01*
X492888799Y-396375128D02*
X492888799Y-395589414D01*
X492888799Y-395589414D02*
X492817370Y-395446557D01*
X492817370Y-395446557D02*
X492674513Y-395375128D01*
X492674513Y-395375128D02*
X492388799Y-395375128D01*
X492388799Y-395375128D02*
X492245941Y-395446557D01*
X492888799Y-396303700D02*
X492745941Y-396375128D01*
X492745941Y-396375128D02*
X492388799Y-396375128D01*
X492388799Y-396375128D02*
X492245941Y-396303700D01*
X492245941Y-396303700D02*
X492174513Y-396160842D01*
X492174513Y-396160842D02*
X492174513Y-396017985D01*
X492174513Y-396017985D02*
X492245941Y-395875128D01*
X492245941Y-395875128D02*
X492388799Y-395803700D01*
X492388799Y-395803700D02*
X492745941Y-395803700D01*
X492745941Y-395803700D02*
X492888799Y-395732271D01*
X494245942Y-396375128D02*
X494245942Y-394875128D01*
X494245942Y-396303700D02*
X494103084Y-396375128D01*
X494103084Y-396375128D02*
X493817370Y-396375128D01*
X493817370Y-396375128D02*
X493674513Y-396303700D01*
X493674513Y-396303700D02*
X493603084Y-396232271D01*
X493603084Y-396232271D02*
X493531656Y-396089414D01*
X493531656Y-396089414D02*
X493531656Y-395660842D01*
X493531656Y-395660842D02*
X493603084Y-395517985D01*
X493603084Y-395517985D02*
X493674513Y-395446557D01*
X493674513Y-395446557D02*
X493817370Y-395375128D01*
X493817370Y-395375128D02*
X494103084Y-395375128D01*
X494103084Y-395375128D02*
X494245942Y-395446557D01*
X494603085Y-396517985D02*
X495745942Y-396517985D01*
X496103084Y-395375128D02*
X496103084Y-396875128D01*
X496103084Y-395446557D02*
X496245942Y-395375128D01*
X496245942Y-395375128D02*
X496531656Y-395375128D01*
X496531656Y-395375128D02*
X496674513Y-395446557D01*
X496674513Y-395446557D02*
X496745942Y-395517985D01*
X496745942Y-395517985D02*
X496817370Y-395660842D01*
X496817370Y-395660842D02*
X496817370Y-396089414D01*
X496817370Y-396089414D02*
X496745942Y-396232271D01*
X496745942Y-396232271D02*
X496674513Y-396303700D01*
X496674513Y-396303700D02*
X496531656Y-396375128D01*
X496531656Y-396375128D02*
X496245942Y-396375128D01*
X496245942Y-396375128D02*
X496103084Y-396303700D01*
X498103085Y-396303700D02*
X497960227Y-396375128D01*
X497960227Y-396375128D02*
X497674513Y-396375128D01*
X497674513Y-396375128D02*
X497531656Y-396303700D01*
X497531656Y-396303700D02*
X497460227Y-396232271D01*
X497460227Y-396232271D02*
X497388799Y-396089414D01*
X497388799Y-396089414D02*
X497388799Y-395660842D01*
X497388799Y-395660842D02*
X497460227Y-395517985D01*
X497460227Y-395517985D02*
X497531656Y-395446557D01*
X497531656Y-395446557D02*
X497674513Y-395375128D01*
X497674513Y-395375128D02*
X497960227Y-395375128D01*
X497960227Y-395375128D02*
X498103085Y-395446557D01*
X498745941Y-396375128D02*
X498745941Y-394875128D01*
X498745941Y-395446557D02*
X498888799Y-395375128D01*
X498888799Y-395375128D02*
X499174513Y-395375128D01*
X499174513Y-395375128D02*
X499317370Y-395446557D01*
X499317370Y-395446557D02*
X499388799Y-395517985D01*
X499388799Y-395517985D02*
X499460227Y-395660842D01*
X499460227Y-395660842D02*
X499460227Y-396089414D01*
X499460227Y-396089414D02*
X499388799Y-396232271D01*
X499388799Y-396232271D02*
X499317370Y-396303700D01*
X499317370Y-396303700D02*
X499174513Y-396375128D01*
X499174513Y-396375128D02*
X498888799Y-396375128D01*
X498888799Y-396375128D02*
X498745941Y-396303700D01*
D10*
D11*
X474004400Y-391489000D02*
X582004400Y-391489000D01*
D10*
D11*
X475388798Y-393603700D02*
X475603084Y-393675128D01*
X475603084Y-393675128D02*
X475960226Y-393675128D01*
X475960226Y-393675128D02*
X476103084Y-393603700D01*
X476103084Y-393603700D02*
X476174512Y-393532271D01*
X476174512Y-393532271D02*
X476245941Y-393389414D01*
X476245941Y-393389414D02*
X476245941Y-393246557D01*
X476245941Y-393246557D02*
X476174512Y-393103700D01*
X476174512Y-393103700D02*
X476103084Y-393032271D01*
X476103084Y-393032271D02*
X475960226Y-392960842D01*
X475960226Y-392960842D02*
X475674512Y-392889414D01*
X475674512Y-392889414D02*
X475531655Y-392817985D01*
X475531655Y-392817985D02*
X475460226Y-392746557D01*
X475460226Y-392746557D02*
X475388798Y-392603700D01*
X475388798Y-392603700D02*
X475388798Y-392460842D01*
X475388798Y-392460842D02*
X475460226Y-392317985D01*
X475460226Y-392317985D02*
X475531655Y-392246557D01*
X475531655Y-392246557D02*
X475674512Y-392175128D01*
X475674512Y-392175128D02*
X476031655Y-392175128D01*
X476031655Y-392175128D02*
X476245941Y-392246557D01*
X476888797Y-393675128D02*
X476888797Y-392175128D01*
X477531655Y-393675128D02*
X477531655Y-392889414D01*
X477531655Y-392889414D02*
X477460226Y-392746557D01*
X477460226Y-392746557D02*
X477317369Y-392675128D01*
X477317369Y-392675128D02*
X477103083Y-392675128D01*
X477103083Y-392675128D02*
X476960226Y-392746557D01*
X476960226Y-392746557D02*
X476888797Y-392817985D01*
X478817369Y-393603700D02*
X478674512Y-393675128D01*
X478674512Y-393675128D02*
X478388798Y-393675128D01*
X478388798Y-393675128D02*
X478245940Y-393603700D01*
X478245940Y-393603700D02*
X478174512Y-393460842D01*
X478174512Y-393460842D02*
X478174512Y-392889414D01*
X478174512Y-392889414D02*
X478245940Y-392746557D01*
X478245940Y-392746557D02*
X478388798Y-392675128D01*
X478388798Y-392675128D02*
X478674512Y-392675128D01*
X478674512Y-392675128D02*
X478817369Y-392746557D01*
X478817369Y-392746557D02*
X478888798Y-392889414D01*
X478888798Y-392889414D02*
X478888798Y-393032271D01*
X478888798Y-393032271D02*
X478174512Y-393175128D01*
X480103083Y-393603700D02*
X479960226Y-393675128D01*
X479960226Y-393675128D02*
X479674512Y-393675128D01*
X479674512Y-393675128D02*
X479531654Y-393603700D01*
X479531654Y-393603700D02*
X479460226Y-393460842D01*
X479460226Y-393460842D02*
X479460226Y-392889414D01*
X479460226Y-392889414D02*
X479531654Y-392746557D01*
X479531654Y-392746557D02*
X479674512Y-392675128D01*
X479674512Y-392675128D02*
X479960226Y-392675128D01*
X479960226Y-392675128D02*
X480103083Y-392746557D01*
X480103083Y-392746557D02*
X480174512Y-392889414D01*
X480174512Y-392889414D02*
X480174512Y-393032271D01*
X480174512Y-393032271D02*
X479460226Y-393175128D01*
X480603083Y-392675128D02*
X481174511Y-392675128D01*
X480817368Y-392175128D02*
X480817368Y-393460842D01*
X480817368Y-393460842D02*
X480888797Y-393603700D01*
X480888797Y-393603700D02*
X481031654Y-393675128D01*
X481031654Y-393675128D02*
X481174511Y-393675128D01*
X481674511Y-393532271D02*
X481745940Y-393603700D01*
X481745940Y-393603700D02*
X481674511Y-393675128D01*
X481674511Y-393675128D02*
X481603083Y-393603700D01*
X481603083Y-393603700D02*
X481674511Y-393532271D01*
X481674511Y-393532271D02*
X481674511Y-393675128D01*
X481674511Y-392746557D02*
X481745940Y-392817985D01*
X481745940Y-392817985D02*
X481674511Y-392889414D01*
X481674511Y-392889414D02*
X481603083Y-392817985D01*
X481603083Y-392817985D02*
X481674511Y-392746557D01*
X481674511Y-392746557D02*
X481674511Y-392889414D01*
D10*
D11*
X494004400Y-401489000D02*
X494004400Y-404489000D01*
D10*
D11*
X558004400Y-401489000D02*
X558004400Y-407989000D01*
D14*
%TO.P,HS1,2*%
%TO.N,N/C*%
X181770625Y-182766251D03*
D15*
%TO.P,HS1,1*%
X128117500Y-150985000D03*
%TD*%
D16*
%TO.P,DSI1,MP,Pin_22*%
%TO.N,GND*%
X203850000Y-257250000D03*
X203850000Y-242950000D03*
D17*
%TO.P,DSI1,22,Pin_22*%
%TO.N,/CM5_GPIO ( Ethernet\u002C GPIO\u002C SDCARD)/+3.3v*%
X207100000Y-244850000D03*
%TO.P,DSI1,21,Pin_21*%
%TO.N,/CM5_HighSpeed/SDA0*%
X207100000Y-245350000D03*
%TO.P,DSI1,20,Pin_20*%
%TO.N,/CM5_HighSpeed/SCL0*%
X207100000Y-245850000D03*
%TO.P,DSI1,19,Pin_19*%
%TO.N,GND*%
X207100000Y-246350000D03*
%TO.P,DSI1,18,Pin_18*%
%TO.N,/CM5_GPIO ( Ethernet\u002C GPIO\u002C SDCARD)/CAM_GPIO1*%
X207100000Y-246850000D03*
%TO.P,DSI1,17,Pin_17*%
%TO.N,/CM5_GPIO ( Ethernet\u002C GPIO\u002C SDCARD)/CAM_GPIO0*%
X207100000Y-247350000D03*
%TO.P,DSI1,16,Pin_16*%
%TO.N,GND*%
X207100000Y-247850000D03*
%TO.P,DSI1,15,Pin_15*%
%TO.N,/CM5_HighSpeed/DPHY0_D3_P*%
X207100000Y-248350000D03*
%TO.P,DSI1,14,Pin_14*%
%TO.N,/CM5_HighSpeed/DPHY0_D3_N*%
X207100000Y-248850000D03*
%TO.P,DSI1,13,Pin_13*%
%TO.N,GND*%
X207100000Y-249350000D03*
%TO.P,DSI1,12,Pin_12*%
%TO.N,/CM5_HighSpeed/DPHY0_D2_P*%
X207100000Y-249850000D03*
%TO.P,DSI1,11,Pin_11*%
%TO.N,/CM5_HighSpeed/DPHY0_D2_N*%
X207100000Y-250350000D03*
%TO.P,DSI1,10,Pin_10*%
%TO.N,GND*%
X207100000Y-250850000D03*
%TO.P,DSI1,9,Pin_9*%
%TO.N,/CM5_HighSpeed/DPHY0_C_P*%
X207100000Y-251350000D03*
%TO.P,DSI1,8,Pin_8*%
%TO.N,/CM5_HighSpeed/DPHY0_C_N*%
X207100000Y-251850000D03*
%TO.P,DSI1,7,Pin_7*%
%TO.N,GND*%
X207100000Y-252350000D03*
%TO.P,DSI1,6,Pin_6*%
%TO.N,/CM5_HighSpeed/DPHY0_D1_P*%
X207100000Y-252850000D03*
%TO.P,DSI1,5,Pin_5*%
%TO.N,/CM5_HighSpeed/DPHY0_D1_N*%
X207100000Y-253350000D03*
%TO.P,DSI1,4,Pin_4*%
%TO.N,GND*%
X207100000Y-253850000D03*
%TO.P,DSI1,3,Pin_3*%
%TO.N,/CM5_HighSpeed/DPHY0_D0_P*%
X207100000Y-254350000D03*
%TO.P,DSI1,2,Pin_2*%
%TO.N,/CM5_HighSpeed/DPHY0_D0_N*%
X207100000Y-254850000D03*
%TO.P,DSI1,1,Pin_1*%
%TO.N,GND*%
X207100000Y-255350000D03*
%TD*%
D16*
%TO.P,DSI2,MP,Pin_22*%
%TO.N,GND*%
X203750000Y-238000000D03*
X203750000Y-223700000D03*
D17*
%TO.P,DSI2,22,Pin_22*%
%TO.N,/CM5_GPIO ( Ethernet\u002C GPIO\u002C SDCARD)/+3.3v*%
X207000000Y-225600000D03*
%TO.P,DSI2,21,Pin_21*%
%TO.N,/CM5_HighSpeed/SDA1*%
X207000000Y-226100000D03*
%TO.P,DSI2,20,Pin_20*%
%TO.N,/CM5_HighSpeed/SCL1*%
X207000000Y-226600000D03*
%TO.P,DSI2,19,Pin_19*%
%TO.N,GND*%
X207000000Y-227100000D03*
%TO.P,DSI2,18,Pin_18*%
%TO.N,unconnected-(DSI2-Pin_18-Pad18)*%
X207000000Y-227600000D03*
%TO.P,DSI2,17,Pin_17*%
%TO.N,Net-(DSI2-Pin_17)*%
X207000000Y-228100000D03*
%TO.P,DSI2,16,Pin_16*%
%TO.N,GND*%
X207000000Y-228600000D03*
%TO.P,DSI2,15,Pin_15*%
%TO.N,/CM5_HighSpeed/DPHY1_D3_P*%
X207000000Y-229100000D03*
%TO.P,DSI2,14,Pin_14*%
%TO.N,/CM5_HighSpeed/DPHY1_D3_N*%
X207000000Y-229600000D03*
%TO.P,DSI2,13,Pin_13*%
%TO.N,GND*%
X207000000Y-230100000D03*
%TO.P,DSI2,12,Pin_12*%
%TO.N,/CM5_HighSpeed/DPHY1_D2_P*%
X207000000Y-230600000D03*
%TO.P,DSI2,11,Pin_11*%
%TO.N,/CM5_HighSpeed/DPHY1_D2_N*%
X207000000Y-231100000D03*
%TO.P,DSI2,10,Pin_10*%
%TO.N,GND*%
X207000000Y-231600000D03*
%TO.P,DSI2,9,Pin_9*%
%TO.N,/CM5_HighSpeed/DPHY1_C_P*%
X207000000Y-232100000D03*
%TO.P,DSI2,8,Pin_8*%
%TO.N,/CM5_HighSpeed/DPHY1_C_N*%
X207000000Y-232600000D03*
%TO.P,DSI2,7,Pin_7*%
%TO.N,GND*%
X207000000Y-233100000D03*
%TO.P,DSI2,6,Pin_6*%
%TO.N,/CM5_HighSpeed/DPHY1_D1_P*%
X207000000Y-233600000D03*
%TO.P,DSI2,5,Pin_5*%
%TO.N,/CM5_HighSpeed/DPHY1_D1_N*%
X207000000Y-234100000D03*
%TO.P,DSI2,4,Pin_4*%
%TO.N,GND*%
X207000000Y-234600000D03*
%TO.P,DSI2,3,Pin_3*%
%TO.N,/CM5_HighSpeed/DPHY1_D0_P*%
X207000000Y-235100000D03*
%TO.P,DSI2,2,Pin_2*%
%TO.N,/CM5_HighSpeed/DPHY1_D0_N*%
X207000000Y-235600000D03*
%TO.P,DSI2,1,Pin_1*%
%TO.N,GND*%
X207000000Y-236100000D03*
%TD*%
D18*
%TO.P,J2,B9,SSTX+*%
%TO.N,/CM5_HighSpeed/USB3-1-TX_N*%
X254400000Y-274710000D03*
%TO.P,J2,B8,SSTX-*%
%TO.N,/CM5_HighSpeed/USB3-1-TX_P*%
X256400000Y-274660000D03*
%TO.P,J2,B7,DRAIN*%
%TO.N,GND*%
X258400000Y-274710000D03*
%TO.P,J2,B6,SSRX+*%
%TO.N,/CM5_HighSpeed/USB3-1-RX_N*%
X260400000Y-274710000D03*
%TO.P,J2,B5,SSRX-*%
%TO.N,/CM5_HighSpeed/USB3-1-RX_P*%
X262400000Y-274710000D03*
%TO.P,J2,B4,GND*%
%TO.N,GND*%
X261900000Y-276210000D03*
%TO.P,J2,B3,D+*%
%TO.N,/CM5_HighSpeed/USB3-1-D_P*%
X259400000Y-276210000D03*
%TO.P,J2,B2,D-*%
%TO.N,/CM5_HighSpeed/USB3-1-D_N*%
X257400000Y-276210000D03*
%TO.P,J2,B1,VBUS*%
%TO.N,/CM5_HighSpeed/VBUS*%
X254900000Y-276210000D03*
%TO.P,J2,A9,SSTX+*%
%TO.N,/CM5_HighSpeed/USB3-0-TX_N*%
X254400000Y-277910000D03*
%TO.P,J2,A8,SSTX-*%
%TO.N,/CM5_HighSpeed/USB3-0-TX_P*%
X256400000Y-277860000D03*
%TO.P,J2,A7,DRAIN*%
%TO.N,GND*%
X258400000Y-277910000D03*
%TO.P,J2,A6,SSRX+*%
%TO.N,/CM5_HighSpeed/USB3-0-RX_N*%
X260400000Y-277910000D03*
%TO.P,J2,A5,SSRX-*%
%TO.N,/CM5_HighSpeed/USB3-0-RX_P*%
X262400000Y-277910000D03*
%TO.P,J2,A4,GND*%
%TO.N,GND*%
X261900000Y-279410000D03*
%TO.P,J2,A3,D+*%
%TO.N,/CM5_HighSpeed/USB3-0-D_P*%
X259400000Y-279410000D03*
%TO.P,J2,A2,D-*%
%TO.N,/CM5_HighSpeed/USB3-0-D_N*%
X257400000Y-279410000D03*
%TO.P,J2,A1,VBUS*%
%TO.N,/CM5_HighSpeed/VBUS*%
X254900000Y-279410000D03*
D19*
%TO.P,J2,10,SHIELD*%
%TO.N,GND*%
X264970000Y-281410000D03*
X264970000Y-275730000D03*
X251830000Y-281410000D03*
X251830000Y-275730000D03*
%TD*%
D20*
%TO.P,J3,SH4,SH*%
%TO.N,GND*%
X227300000Y-286300000D03*
%TO.P,J3,SH3,SH*%
X212800000Y-286300000D03*
D21*
%TO.P,J3,SH2,SH*%
X212800000Y-280340000D03*
%TO.P,J3,SH1,SH*%
X227300000Y-280340000D03*
D22*
%TO.P,J3,19,HPD/HEAC-*%
%TO.N,/CM5_HighSpeed/HDMI0_HOTPLUG*%
X215550000Y-279610000D03*
%TO.P,J3,18,+5V*%
%TO.N,/CM5_HighSpeed/HDMI_5v*%
X216050000Y-279610000D03*
%TO.P,J3,17,GND*%
%TO.N,GND*%
X216550000Y-279610000D03*
%TO.P,J3,16,SDA*%
%TO.N,/CM5_HighSpeed/HDMI0_SDA*%
X217050000Y-279610000D03*
%TO.P,J3,15,SCL*%
%TO.N,/CM5_HighSpeed/HDMI0_SCL*%
X217550000Y-279610000D03*
%TO.P,J3,14,UTILITY/HEAC+*%
%TO.N,unconnected-(J3-UTILITY{slash}HEAC+-Pad14)*%
X218050000Y-279610000D03*
%TO.P,J3,13,CEC*%
%TO.N,/CM5_HighSpeed/HDMI0_CEC*%
X218550000Y-279610000D03*
%TO.P,J3,12,CK-*%
%TO.N,/CM5_HighSpeed/HDMI0_CK_N*%
X219050000Y-279610000D03*
%TO.P,J3,11,CKS*%
%TO.N,GND*%
X219550000Y-279610000D03*
%TO.P,J3,10,CK+*%
%TO.N,/CM5_HighSpeed/HDMI0_CK_P*%
X220050000Y-279610000D03*
%TO.P,J3,9,D0-*%
%TO.N,/CM5_HighSpeed/HDMI0_D0_N*%
X220550000Y-279610000D03*
%TO.P,J3,8,D0S*%
%TO.N,GND*%
X221050000Y-279610000D03*
%TO.P,J3,7,D0+*%
%TO.N,/CM5_HighSpeed/HDMI0_D0_P*%
X221550000Y-279610000D03*
%TO.P,J3,6,D1-*%
%TO.N,/CM5_HighSpeed/HDMI0_D1_N*%
X222050000Y-279610000D03*
%TO.P,J3,5,D1S*%
%TO.N,GND*%
X222550000Y-279610000D03*
%TO.P,J3,4,D1+*%
%TO.N,/CM5_HighSpeed/HDMI0_D1_P*%
X223050000Y-279610000D03*
%TO.P,J3,3,D2-*%
%TO.N,/CM5_HighSpeed/HDMI0_D2_N*%
X223550000Y-279610000D03*
%TO.P,J3,2,D2S*%
%TO.N,GND*%
X224050000Y-279610000D03*
%TO.P,J3,1,D2+*%
%TO.N,/CM5_HighSpeed/HDMI0_D2_P*%
X224550000Y-279610000D03*
%TD*%
D20*
%TO.P,J4,SH4,SH*%
%TO.N,GND*%
X246700000Y-286397500D03*
%TO.P,J4,SH3,SH*%
X232200000Y-286397500D03*
D21*
%TO.P,J4,SH2,SH*%
X232200000Y-280437500D03*
%TO.P,J4,SH1,SH*%
X246700000Y-280437500D03*
D22*
%TO.P,J4,19,HPD/HEAC-*%
%TO.N,/CM5_HighSpeed/HDMI1_HOTPLUG*%
X234950000Y-279707500D03*
%TO.P,J4,18,+5V*%
%TO.N,/CM5_HighSpeed/HDMI_5v*%
X235450000Y-279707500D03*
%TO.P,J4,17,GND*%
%TO.N,GND*%
X235950000Y-279707500D03*
%TO.P,J4,16,SDA*%
%TO.N,/CM5_HighSpeed/HDMI1_SDA*%
X236450000Y-279707500D03*
%TO.P,J4,15,SCL*%
%TO.N,/CM5_HighSpeed/HDMI1_SCL*%
X236950000Y-279707500D03*
%TO.P,J4,14,UTILITY/HEAC+*%
%TO.N,unconnected-(J4-UTILITY{slash}HEAC+-Pad14)*%
X237450000Y-279707500D03*
%TO.P,J4,13,CEC*%
%TO.N,/CM5_HighSpeed/HDMI1_CEC*%
X237950000Y-279707500D03*
%TO.P,J4,12,CK-*%
%TO.N,/CM5_HighSpeed/HDMI1_CK_N*%
X238450000Y-279707500D03*
%TO.P,J4,11,CKS*%
%TO.N,GND*%
X238950000Y-279707500D03*
%TO.P,J4,10,CK+*%
%TO.N,/CM5_HighSpeed/HDMI1_CK_P*%
X239450000Y-279707500D03*
%TO.P,J4,9,D0-*%
%TO.N,/CM5_HighSpeed/HDMI1_D0_N*%
X239950000Y-279707500D03*
%TO.P,J4,8,D0S*%
%TO.N,GND*%
X240450000Y-279707500D03*
%TO.P,J4,7,D0+*%
%TO.N,/CM5_HighSpeed/HDMI1_D0_P*%
X240950000Y-279707500D03*
%TO.P,J4,6,D1-*%
%TO.N,/CM5_HighSpeed/HDMI1_D1_N*%
X241450000Y-279707500D03*
%TO.P,J4,5,D1S*%
%TO.N,GND*%
X241950000Y-279707500D03*
%TO.P,J4,4,D1+*%
%TO.N,/CM5_HighSpeed/HDMI1_D1_P*%
X242450000Y-279707500D03*
%TO.P,J4,3,D2-*%
%TO.N,/CM5_HighSpeed/HDMI1_D2_N*%
X242950000Y-279707500D03*
%TO.P,J4,2,D2S*%
%TO.N,GND*%
X243450000Y-279707500D03*
%TO.P,J4,1,D2+*%
%TO.N,/CM5_HighSpeed/HDMI1_D2_P*%
X243950000Y-279707500D03*
%TD*%
D23*
%TO.P,J11,4,Pin_4*%
%TO.N,/CM5_HighSpeed/SDA1*%
X264865000Y-219665000D03*
%TO.P,J11,3,Pin_3*%
%TO.N,/CM5_GPIO ( Ethernet\u002C GPIO\u002C SDCARD)/ID_SD*%
X262325000Y-219665000D03*
%TO.P,J11,2,Pin_2*%
%TO.N,/CM5_HighSpeed/SCL1*%
X264865000Y-217125000D03*
D24*
%TO.P,J11,1,Pin_1*%
%TO.N,/CM5_GPIO ( Ethernet\u002C GPIO\u002C SDCARD)/ID_SC*%
X262325000Y-217125000D03*
%TD*%
D25*
%TO.P,SPEAKER1,2,Pin_2*%
%TO.N,Net-(SPEAKER1-Pin_2)*%
X287900000Y-245600000D03*
D26*
%TO.P,SPEAKER1,1,Pin_1*%
%TO.N,Net-(SPEAKER1-Pin_1)*%
X285900000Y-245600000D03*
%TD*%
D25*
%TO.P,SPI1,6,Pin_6*%
%TO.N,GND*%
X307200000Y-206550000D03*
%TO.P,SPI1,5,Pin_5*%
%TO.N,/YD-ESP32-S3/SPI_devices/CS8*%
X305200000Y-206550000D03*
%TO.P,SPI1,4,Pin_4*%
%TO.N,/YD-ESP32-S3/SPI_2_MOSI*%
X303200000Y-206550000D03*
%TO.P,SPI1,3,Pin_3*%
%TO.N,/YD-ESP32-S3/SPI_2_MISO*%
X301200000Y-206550000D03*
%TO.P,SPI1,2,Pin_2*%
%TO.N,/YD-ESP32-S3/SPI_2_CLK*%
X299200000Y-206550000D03*
D26*
%TO.P,SPI1,1,Pin_1*%
%TO.N,ESP_3v3*%
X297200000Y-206550000D03*
%TD*%
D25*
%TO.P,SPI2,6,Pin_6*%
%TO.N,GND*%
X307200000Y-213150000D03*
%TO.P,SPI2,5,Pin_5*%
%TO.N,/YD-ESP32-S3/SPI_devices/CS7*%
X305200000Y-213150000D03*
%TO.P,SPI2,4,Pin_4*%
%TO.N,/YD-ESP32-S3/SPI_2_MOSI*%
X303200000Y-213150000D03*
%TO.P,SPI2,3,Pin_3*%
%TO.N,/YD-ESP32-S3/SPI_2_MISO*%
X301200000Y-213150000D03*
%TO.P,SPI2,2,Pin_2*%
%TO.N,/YD-ESP32-S3/SPI_2_CLK*%
X299200000Y-213150000D03*
D26*
%TO.P,SPI2,1,Pin_1*%
%TO.N,ESP_3v3*%
X297200000Y-213150000D03*
%TD*%
D25*
%TO.P,SPI3,6,Pin_6*%
%TO.N,GND*%
X307200000Y-219650000D03*
%TO.P,SPI3,5,Pin_5*%
%TO.N,/YD-ESP32-S3/SPI_devices/CS6*%
X305200000Y-219650000D03*
%TO.P,SPI3,4,Pin_4*%
%TO.N,/YD-ESP32-S3/SPI_2_MOSI*%
X303200000Y-219650000D03*
%TO.P,SPI3,3,Pin_3*%
%TO.N,/YD-ESP32-S3/SPI_2_MISO*%
X301200000Y-219650000D03*
%TO.P,SPI3,2,Pin_2*%
%TO.N,/YD-ESP32-S3/SPI_2_CLK*%
X299200000Y-219650000D03*
D26*
%TO.P,SPI3,1,Pin_1*%
%TO.N,ESP_3v3*%
X297200000Y-219650000D03*
%TD*%
D25*
%TO.P,SPI4,6,Pin_6*%
%TO.N,GND*%
X307100000Y-226450000D03*
%TO.P,SPI4,5,Pin_5*%
%TO.N,/YD-ESP32-S3/SPI_devices/CS5*%
X305100000Y-226450000D03*
%TO.P,SPI4,4,Pin_4*%
%TO.N,/YD-ESP32-S3/SPI_2_MOSI*%
X303100000Y-226450000D03*
%TO.P,SPI4,3,Pin_3*%
%TO.N,/YD-ESP32-S3/SPI_2_MISO*%
X301100000Y-226450000D03*
%TO.P,SPI4,2,Pin_2*%
%TO.N,/YD-ESP32-S3/SPI_2_CLK*%
X299100000Y-226450000D03*
D26*
%TO.P,SPI4,1,Pin_1*%
%TO.N,ESP_3v3*%
X297100000Y-226450000D03*
%TD*%
D23*
%TO.P,SW2,2,2*%
%TO.N,Net-(U64-HID0{slash}MS)*%
X312500000Y-276265000D03*
D24*
%TO.P,SW2,1,1*%
%TO.N,Net-(U64-~{SSPND})*%
X312500000Y-273725000D03*
%TD*%
D23*
%TO.P,SW3,2,2*%
%TO.N,Net-(U64-HID1{slash}MC)*%
X317090000Y-276265000D03*
D24*
%TO.P,SW3,1,1*%
%TO.N,Net-(U64-~{SSPND})*%
X317090000Y-273725000D03*
%TD*%
D23*
%TO.P,SW4,2,2*%
%TO.N,Net-(U64-HID2{slash}MD)*%
X321680000Y-276265000D03*
D24*
%TO.P,SW4,1,1*%
%TO.N,Net-(U64-~{SSPND})*%
X321680000Y-273725000D03*
%TD*%
D27*
%TO.P,C7,1*%
%TO.N,Net-(C7-Pad1)*%
X277200000Y-267650000D03*
%TO.P,C7,2*%
%TO.N,GND*%
X277200000Y-265750000D03*
%TD*%
D28*
%TO.P,D1,1,K*%
%TO.N,Net-(D1-K)*%
X259200000Y-251300000D03*
%TO.P,D1,2,A*%
%TO.N,/CM5_GPIO ( Ethernet\u002C GPIO\u002C SDCARD)/+3.3v*%
X259200000Y-248500000D03*
%TD*%
D29*
%TO.P,D2,1,K*%
%TO.N,Net-(D2-K)*%
X259200000Y-243800000D03*
%TO.P,D2,2,A*%
%TO.N,/CM5_GPIO ( Ethernet\u002C GPIO\u002C SDCARD)/+3.3v*%
X259200000Y-246600000D03*
%TD*%
D30*
%TO.P,R13,1*%
%TO.N,Net-(J5-LEDG_K)*%
X282175000Y-262447500D03*
%TO.P,R13,2*%
%TO.N,/CM5_GPIO ( Ethernet\u002C GPIO\u002C SDCARD)/ETH_LEDY*%
X282175000Y-260622500D03*
%TD*%
%TO.P,R11,2*%
%TO.N,/CM5_GPIO ( Ethernet\u002C GPIO\u002C SDCARD)/GPIO_VREF*%
X277175000Y-256822500D03*
%TO.P,R11,1*%
%TO.N,1.8V*%
X277175000Y-258647500D03*
%TD*%
%TO.P,R12,1*%
%TO.N,Net-(J5-LEDY_K)*%
X279675000Y-262447500D03*
%TO.P,R12,2*%
%TO.N,/CM5_GPIO ( Ethernet\u002C GPIO\u002C SDCARD)/ETH_LEDG*%
X279675000Y-260622500D03*
%TD*%
%TO.P,R10,1*%
%TO.N,/CM5_GPIO ( Ethernet\u002C GPIO\u002C SDCARD)/+3.3v*%
X277175000Y-262447500D03*
%TO.P,R10,2*%
%TO.N,/CM5_GPIO ( Ethernet\u002C GPIO\u002C SDCARD)/GPIO_VREF*%
X277175000Y-260622500D03*
%TD*%
D31*
%TO.P,R8,1*%
%TO.N,Net-(D1-K)*%
X259200000Y-255787500D03*
%TO.P,R8,2*%
%TO.N,Net-(Module1A-LED_nACT)*%
X259200000Y-257612500D03*
%TD*%
D30*
%TO.P,R7,1*%
%TO.N,Net-(DSW2-Pad11)*%
X274675000Y-262447500D03*
%TO.P,R7,2*%
%TO.N,GND*%
X274675000Y-260622500D03*
%TD*%
%TO.P,R5,1*%
%TO.N,Net-(DSW2-Pad9)*%
X269775000Y-262447500D03*
%TO.P,R5,2*%
%TO.N,GND*%
X269775000Y-260622500D03*
%TD*%
%TO.P,R6,1*%
%TO.N,Net-(DSW2-Pad10)*%
X272175000Y-262447500D03*
%TO.P,R6,2*%
%TO.N,GND*%
X272175000Y-260622500D03*
%TD*%
%TO.P,R9,1*%
%TO.N,Net-(D2-K)*%
X259200000Y-238812500D03*
%TO.P,R9,2*%
%TO.N,Net-(R9-Pad2)*%
X259200000Y-236987500D03*
%TD*%
D24*
%TO.P,J13,1,Pin_1*%
%TO.N,/CM5_GPIO ( Ethernet\u002C GPIO\u002C SDCARD)/TR1_TAP*%
X285525000Y-264625000D03*
D23*
%TO.P,J13,2,Pin_2*%
%TO.N,/CM5_GPIO ( Ethernet\u002C GPIO\u002C SDCARD)/TR2_TAP*%
X288065000Y-264625000D03*
%TO.P,J13,3,Pin_3*%
%TO.N,/CM5_GPIO ( Ethernet\u002C GPIO\u002C SDCARD)/TR0_TAP*%
X285525000Y-267165000D03*
%TO.P,J13,4,Pin_4*%
%TO.N,/CM5_GPIO ( Ethernet\u002C GPIO\u002C SDCARD)/TR3_TAP*%
X288065000Y-267165000D03*
%TD*%
D32*
%TO.P,J12,1,Pin_1*%
%TO.N,RPI_5V*%
X263050000Y-256100000D03*
D33*
%TO.P,J12,2,Pin_2*%
%TO.N,/CM5_GPIO ( Ethernet\u002C GPIO\u002C SDCARD)/PWM*%
X263050000Y-254100000D03*
%TO.P,J12,3,Pin_3*%
%TO.N,GND*%
X263050000Y-252100000D03*
%TO.P,J12,4,Pin_4*%
%TO.N,/CM5_GPIO ( Ethernet\u002C GPIO\u002C SDCARD)/TACHO*%
X263050000Y-250100000D03*
%TD*%
D34*
%TO.P,DSW2,1*%
%TO.N,unconnected-(DSW2-Pad1)*%
X260700000Y-261610000D03*
%TO.P,DSW2,2*%
%TO.N,WL_nDis*%
X260700000Y-262880000D03*
%TO.P,DSW2,3*%
%TO.N,EEPROM_nWP*%
X260700000Y-264150000D03*
%TO.P,DSW2,4*%
%TO.N,nRPIBOOT*%
X260700000Y-265420000D03*
%TO.P,DSW2,5*%
%TO.N,PMIC_ENABLE*%
X260700000Y-266690000D03*
%TO.P,DSW2,6*%
%TO.N,SPI_2_CH*%
X260700000Y-267960000D03*
%TO.P,DSW2,7*%
%TO.N,I2C_CH*%
X260700000Y-269230000D03*
%TO.P,DSW2,8*%
%TO.N,SPI_TMC_CH*%
X260700000Y-270500000D03*
%TO.P,DSW2,9*%
%TO.N,Net-(DSW2-Pad9)*%
X265780000Y-270500000D03*
%TO.P,DSW2,10*%
%TO.N,Net-(DSW2-Pad10)*%
X265780000Y-269230000D03*
%TO.P,DSW2,11*%
%TO.N,Net-(DSW2-Pad11)*%
X265780000Y-267960000D03*
%TO.P,DSW2,12*%
%TO.N,GND*%
X265780000Y-266690000D03*
%TO.P,DSW2,13*%
X265780000Y-265420000D03*
%TO.P,DSW2,14*%
X265780000Y-264150000D03*
%TO.P,DSW2,15*%
X265780000Y-262880000D03*
%TO.P,DSW2,16*%
X265780000Y-261610000D03*
%TD*%
D24*
%TO.P,GPIO1,1,Pin_1*%
%TO.N,3V3_M.2*%
X253325000Y-222075000D03*
D23*
%TO.P,GPIO1,2,Pin_2*%
%TO.N,RPI_5V*%
X255865000Y-222075000D03*
%TO.P,GPIO1,3,Pin_3*%
%TO.N,INA226_SDA*%
X253325000Y-224615000D03*
%TO.P,GPIO1,4,Pin_4*%
%TO.N,RPI_5V*%
X255865000Y-224615000D03*
%TO.P,GPIO1,5,Pin_5*%
%TO.N,INA226_SCL*%
X253325000Y-227155000D03*
%TO.P,GPIO1,6,Pin_6*%
%TO.N,GND*%
X255865000Y-227155000D03*
%TO.P,GPIO1,7,Pin_7*%
%TO.N,/CM5_GPIO ( Ethernet\u002C GPIO\u002C SDCARD)/GPIO4*%
X253325000Y-229695000D03*
%TO.P,GPIO1,8,Pin_8*%
%TO.N,/Uart_tx*%
X255865000Y-229695000D03*
%TO.P,GPIO1,9,Pin_9*%
%TO.N,GND*%
X253325000Y-232235000D03*
%TO.P,GPIO1,10,Pin_10*%
%TO.N,/Uart_rx*%
X255865000Y-232235000D03*
%TO.P,GPIO1,11,Pin_11*%
%TO.N,/CM5_GPIO ( Ethernet\u002C GPIO\u002C SDCARD)/GPIO17*%
X253325000Y-234775000D03*
%TO.P,GPIO1,12,Pin_12*%
%TO.N,/CM5_GPIO ( Ethernet\u002C GPIO\u002C SDCARD)/GPIO18*%
X255865000Y-234775000D03*
%TO.P,GPIO1,13,Pin_13*%
%TO.N,/CM5_GPIO ( Ethernet\u002C GPIO\u002C SDCARD)/GPIO27*%
X253325000Y-237315000D03*
%TO.P,GPIO1,14,Pin_14*%
%TO.N,GND*%
X255865000Y-237315000D03*
%TO.P,GPIO1,15,Pin_15*%
%TO.N,/CM5_GPIO ( Ethernet\u002C GPIO\u002C SDCARD)/GPIO22*%
X253325000Y-239855000D03*
%TO.P,GPIO1,16,Pin_16*%
%TO.N,/CM5_GPIO ( Ethernet\u002C GPIO\u002C SDCARD)/GPIO23*%
X255865000Y-239855000D03*
%TO.P,GPIO1,17,Pin_17*%
%TO.N,3V3_M.2*%
X253325000Y-242395000D03*
%TO.P,GPIO1,18,Pin_18*%
%TO.N,/CM5_GPIO ( Ethernet\u002C GPIO\u002C SDCARD)/GPIO24*%
X255865000Y-242395000D03*
%TO.P,GPIO1,19,Pin_19*%
%TO.N,SPI0_MOSI*%
X253325000Y-244935000D03*
%TO.P,GPIO1,20,Pin_20*%
%TO.N,GND*%
X255865000Y-244935000D03*
%TO.P,GPIO1,21,Pin_21*%
%TO.N,SPI0_MISO*%
X253325000Y-247475000D03*
%TO.P,GPIO1,22,Pin_22*%
%TO.N,/CM5_GPIO ( Ethernet\u002C GPIO\u002C SDCARD)/GPIO25*%
X255865000Y-247475000D03*
%TO.P,GPIO1,23,Pin_23*%
%TO.N,SPI0_CLK*%
X253325000Y-250015000D03*
%TO.P,GPIO1,24,Pin_24*%
%TO.N,SPI0_CE0*%
X255865000Y-250015000D03*
%TO.P,GPIO1,25,Pin_25*%
%TO.N,GND*%
X253325000Y-252555000D03*
%TO.P,GPIO1,26,Pin_26*%
%TO.N,/CM5_GPIO ( Ethernet\u002C GPIO\u002C SDCARD)/GPIO7*%
X255865000Y-252555000D03*
%TO.P,GPIO1,27,Pin_27*%
%TO.N,/CM5_GPIO ( Ethernet\u002C GPIO\u002C SDCARD)/ID_SD*%
X253325000Y-255095000D03*
%TO.P,GPIO1,28,Pin_28*%
%TO.N,/CM5_GPIO ( Ethernet\u002C GPIO\u002C SDCARD)/ID_SC*%
X255865000Y-255095000D03*
%TO.P,GPIO1,29,Pin_29*%
%TO.N,/CM5_GPIO ( Ethernet\u002C GPIO\u002C SDCARD)/GPIO5*%
X253325000Y-257635000D03*
%TO.P,GPIO1,30,Pin_30*%
%TO.N,GND*%
X255865000Y-257635000D03*
%TO.P,GPIO1,31,Pin_31*%
%TO.N,/CM5_GPIO ( Ethernet\u002C GPIO\u002C SDCARD)/GPIO6*%
X253325000Y-260175000D03*
%TO.P,GPIO1,32,Pin_32*%
%TO.N,/CM5_GPIO ( Ethernet\u002C GPIO\u002C SDCARD)/GPIO12*%
X255865000Y-260175000D03*
%TO.P,GPIO1,33,Pin_33*%
%TO.N,/CM5_GPIO ( Ethernet\u002C GPIO\u002C SDCARD)/GPIO13*%
X253325000Y-262715000D03*
%TO.P,GPIO1,34,Pin_34*%
%TO.N,GND*%
X255865000Y-262715000D03*
%TO.P,GPIO1,35,Pin_35*%
%TO.N,SPI1_MISO*%
X253325000Y-265255000D03*
%TO.P,GPIO1,36,Pin_36*%
%TO.N,/CM5_GPIO ( Ethernet\u002C GPIO\u002C SDCARD)/GPIO16*%
X255865000Y-265255000D03*
%TO.P,GPIO1,37,Pin_37*%
%TO.N,/CM5_GPIO ( Ethernet\u002C GPIO\u002C SDCARD)/GPIO26*%
X253325000Y-267795000D03*
%TO.P,GPIO1,38,Pin_38*%
%TO.N,SPI1_MOSI*%
X255865000Y-267795000D03*
%TO.P,GPIO1,39,Pin_39*%
%TO.N,GND*%
X253325000Y-270335000D03*
%TO.P,GPIO1,40,Pin_40*%
%TO.N,SPI1_CLK*%
X255865000Y-270335000D03*
%TD*%
D35*
%TO.P,U3,1,nc*%
%TO.N,unconnected-(U3-nc-Pad1)*%
X263450000Y-238250000D03*
%TO.P,U3,2*%
%TO.N,/CM5_GPIO ( Ethernet\u002C GPIO\u002C SDCARD)/nPWR_LED*%
X263450000Y-237600000D03*
%TO.P,U3,3,GND*%
%TO.N,GND*%
X263450000Y-236950000D03*
%TO.P,U3,4*%
%TO.N,Net-(R9-Pad2)*%
X261550000Y-236950000D03*
%TO.P,U3,5,VCC*%
%TO.N,/CM5_GPIO ( Ethernet\u002C GPIO\u002C SDCARD)/+3.3v*%
X261550000Y-238250000D03*
%TD*%
D36*
%TO.P,U5,1,D1+*%
%TO.N,/CM5_GPIO ( Ethernet\u002C GPIO\u002C SDCARD)/TRD1_P*%
X273000000Y-266015000D03*
%TO.P,U5,2,D1-*%
%TO.N,/CM5_GPIO ( Ethernet\u002C GPIO\u002C SDCARD)/TRD1_N*%
X272500000Y-266015000D03*
%TO.P,U5,3,GND*%
%TO.N,GND*%
X272000000Y-266015000D03*
%TO.P,U5,4,D2+*%
%TO.N,/CM5_GPIO ( Ethernet\u002C GPIO\u002C SDCARD)/TRD0_N*%
X271500000Y-266015000D03*
%TO.P,U5,5,D2-*%
%TO.N,/CM5_GPIO ( Ethernet\u002C GPIO\u002C SDCARD)/TRD0_P*%
X271000000Y-266015000D03*
%TO.P,U5,6*%
X271000000Y-266785000D03*
%TO.P,U5,7*%
%TO.N,/CM5_GPIO ( Ethernet\u002C GPIO\u002C SDCARD)/TRD0_N*%
X271500000Y-266785000D03*
%TO.P,U5,8,GND*%
%TO.N,GND*%
X272000000Y-266785000D03*
%TO.P,U5,9*%
%TO.N,/CM5_GPIO ( Ethernet\u002C GPIO\u002C SDCARD)/TRD1_N*%
X272500000Y-266785000D03*
%TO.P,U5,10*%
%TO.N,/CM5_GPIO ( Ethernet\u002C GPIO\u002C SDCARD)/TRD1_P*%
X273000000Y-266785000D03*
%TD*%
%TO.P,U4,1,D1+*%
%TO.N,/CM5_GPIO ( Ethernet\u002C GPIO\u002C SDCARD)/TRD3_P*%
X282900000Y-266030000D03*
%TO.P,U4,2,D1-*%
%TO.N,/CM5_GPIO ( Ethernet\u002C GPIO\u002C SDCARD)/TRD3_N*%
X282400000Y-266030000D03*
%TO.P,U4,3,GND*%
%TO.N,GND*%
X281900000Y-266030000D03*
%TO.P,U4,4,D2+*%
%TO.N,/CM5_GPIO ( Ethernet\u002C GPIO\u002C SDCARD)/TRD2_N*%
X281400000Y-266030000D03*
%TO.P,U4,5,D2-*%
%TO.N,/CM5_GPIO ( Ethernet\u002C GPIO\u002C SDCARD)/TRD2_P*%
X280900000Y-266030000D03*
%TO.P,U4,6*%
X280900000Y-266800000D03*
%TO.P,U4,7*%
%TO.N,/CM5_GPIO ( Ethernet\u002C GPIO\u002C SDCARD)/TRD2_N*%
X281400000Y-266800000D03*
%TO.P,U4,8,GND*%
%TO.N,GND*%
X281900000Y-266800000D03*
%TO.P,U4,9*%
%TO.N,/CM5_GPIO ( Ethernet\u002C GPIO\u002C SDCARD)/TRD3_N*%
X282400000Y-266800000D03*
%TO.P,U4,10*%
%TO.N,/CM5_GPIO ( Ethernet\u002C GPIO\u002C SDCARD)/TRD3_P*%
X282900000Y-266800000D03*
%TD*%
D37*
%TO.P,C9,1*%
%TO.N,/PCIe-M2/M2_3v3*%
X222150000Y-218010000D03*
%TO.P,C9,2*%
%TO.N,GND*%
X224050000Y-218010000D03*
%TD*%
%TO.P,C11,1*%
%TO.N,/PCIe-M2/M2_3v3*%
X222100000Y-192000000D03*
%TO.P,C11,2*%
%TO.N,GND*%
X224000000Y-192000000D03*
%TD*%
%TO.P,C8,1*%
%TO.N,/PCIe-M2/M2_3v3*%
X230250000Y-218000000D03*
%TO.P,C8,2*%
%TO.N,GND*%
X232150000Y-218000000D03*
%TD*%
%TO.P,C10,1*%
%TO.N,/PCIe-M2/M2_3v3*%
X230500000Y-192000000D03*
%TO.P,C10,2*%
%TO.N,GND*%
X232400000Y-192000000D03*
%TD*%
%TO.P,C83,1*%
%TO.N,ESP_3v3*%
X288250000Y-213800000D03*
%TO.P,C83,2*%
%TO.N,GND*%
X290150000Y-213800000D03*
%TD*%
%TO.P,C82,1*%
%TO.N,ESP_3v3*%
X284450000Y-213800000D03*
%TO.P,C82,2*%
%TO.N,GND*%
X286350000Y-213800000D03*
%TD*%
D27*
%TO.P,C84,1*%
%TO.N,Net-(U37-V3)*%
X259300000Y-232900000D03*
%TO.P,C84,2*%
%TO.N,GND*%
X259300000Y-231000000D03*
%TD*%
D38*
%TO.P,U50,9,DIR*%
%TO.N,/YD-ESP32-S3/M2_dir*%
X343350000Y-198460000D03*
%TO.P,U50,10,STEP*%
%TO.N,/YD-ESP32-S3/M2_step*%
X343350000Y-201000000D03*
%TO.P,U50,11,MISO*%
%TO.N,/YD-ESP32-S3/TMC_MISO*%
X343350000Y-203540000D03*
%TO.P,U50,12,CLK*%
%TO.N,unconnected-(U50-CLK-Pad12)*%
X343350000Y-206080000D03*
%TO.P,U50,13,Chip_select*%
%TO.N,/YD-ESP32-S3/4x tmc5161/M2_CS*%
X343350000Y-208620000D03*
%TO.P,U50,14,Spi_clk*%
%TO.N,/YD-ESP32-S3/TMC_SPI_CLK*%
X343350000Y-211160000D03*
%TO.P,U50,15,MOSI*%
%TO.N,/YD-ESP32-S3/TMC_MOSI*%
X343350000Y-213700000D03*
%TO.P,U50,16,Enable*%
%TO.N,/YD-ESP32-S3/4x tmc5161/M2_EN*%
X343350000Y-216240000D03*
D39*
%TO.P,U50,1,GND*%
%TO.N,/YD-ESP32-S3/4x tmc5161/TMC_GND*%
X330650000Y-198460000D03*
D38*
%TO.P,U50,2,VIO/VDD*%
%TO.N,ESP_3v3*%
X330650000Y-201000000D03*
%TO.P,U50,3,M1B*%
%TO.N,Net-(M6--)*%
X330650000Y-203540000D03*
%TO.P,U50,4,M2B*%
%TO.N,Net-(U50-M2B)*%
X330650000Y-206080000D03*
%TO.P,U50,5,M2A*%
%TO.N,Net-(U50-M2A)*%
X330650000Y-208620000D03*
%TO.P,U50,6,M1A*%
%TO.N,Net-(U50-M1A)*%
X330650000Y-211160000D03*
%TO.P,U50,7,GND*%
%TO.N,/YD-ESP32-S3/4x tmc5161/TMC_GND*%
X330650000Y-213700000D03*
%TO.P,U50,8,VMOT*%
%TO.N,Motor 2 power*%
X330650000Y-216240000D03*
%TO.P,U50,18,AIN*%
%TO.N,unconnected-(U50-AIN-Pad18)*%
X340810000Y-216240000D03*
%TO.P,U50,17,DIAG*%
%TO.N,Net-(D10-K)*%
X338270000Y-216240000D03*
%TD*%
%TO.P,U51,9,DIR*%
%TO.N,/YD-ESP32-S3/M4_dir*%
X343450000Y-221660000D03*
%TO.P,U51,10,STEP*%
%TO.N,/YD-ESP32-S3/M4_step*%
X343450000Y-224200000D03*
%TO.P,U51,11,MISO*%
%TO.N,/YD-ESP32-S3/TMC_MISO*%
X343450000Y-226740000D03*
%TO.P,U51,12,CLK*%
%TO.N,unconnected-(U51-CLK-Pad12)*%
X343450000Y-229280000D03*
%TO.P,U51,13,Chip_select*%
%TO.N,/YD-ESP32-S3/4x tmc5161/M4_CS*%
X343450000Y-231820000D03*
%TO.P,U51,14,Spi_clk*%
%TO.N,/YD-ESP32-S3/TMC_SPI_CLK*%
X343450000Y-234360000D03*
%TO.P,U51,15,MOSI*%
%TO.N,/YD-ESP32-S3/TMC_MOSI*%
X343450000Y-236900000D03*
%TO.P,U51,16,Enable*%
%TO.N,/YD-ESP32-S3/4x tmc5161/M4_EN*%
X343450000Y-239440000D03*
D39*
%TO.P,U51,1,GND*%
%TO.N,/YD-ESP32-S3/4x tmc5161/TMC_GND*%
X330750000Y-221660000D03*
D38*
%TO.P,U51,2,VIO/VDD*%
%TO.N,ESP_3v3*%
X330750000Y-224200000D03*
%TO.P,U51,3,M1B*%
%TO.N,Net-(M7--)*%
X330750000Y-226740000D03*
%TO.P,U51,4,M2B*%
%TO.N,Net-(U51-M2B)*%
X330750000Y-229280000D03*
%TO.P,U51,5,M2A*%
%TO.N,Net-(U51-M2A)*%
X330750000Y-231820000D03*
%TO.P,U51,6,M1A*%
%TO.N,Net-(U51-M1A)*%
X330750000Y-234360000D03*
%TO.P,U51,7,GND*%
%TO.N,/YD-ESP32-S3/4x tmc5161/TMC_GND*%
X330750000Y-236900000D03*
%TO.P,U51,8,VMOT*%
%TO.N,Motor 4 power*%
X330750000Y-239440000D03*
%TO.P,U51,18,AIN*%
%TO.N,unconnected-(U51-AIN-Pad18)*%
X340910000Y-239440000D03*
%TO.P,U51,17,DIAG*%
%TO.N,Net-(D11-K)*%
X338370000Y-239440000D03*
%TD*%
%TO.P,U49,9,DIR*%
%TO.N,/YD-ESP32-S3/M3_dir*%
X325192500Y-221652500D03*
%TO.P,U49,10,STEP*%
%TO.N,/YD-ESP32-S3/M3_step*%
X325192500Y-224192500D03*
%TO.P,U49,11,MISO*%
%TO.N,/YD-ESP32-S3/TMC_MISO*%
X325192500Y-226732500D03*
%TO.P,U49,12,CLK*%
%TO.N,unconnected-(U49-CLK-Pad12)*%
X325192500Y-229272500D03*
%TO.P,U49,13,Chip_select*%
%TO.N,/YD-ESP32-S3/4x tmc5161/M3_CS*%
X325192500Y-231812500D03*
%TO.P,U49,14,Spi_clk*%
%TO.N,/YD-ESP32-S3/TMC_SPI_CLK*%
X325192500Y-234352500D03*
%TO.P,U49,15,MOSI*%
%TO.N,/YD-ESP32-S3/TMC_MOSI*%
X325192500Y-236892500D03*
%TO.P,U49,16,Enable*%
%TO.N,/YD-ESP32-S3/4x tmc5161/M3_EN*%
X325192500Y-239432500D03*
D39*
%TO.P,U49,1,GND*%
%TO.N,/YD-ESP32-S3/4x tmc5161/TMC_GND*%
X312492500Y-221652500D03*
D38*
%TO.P,U49,2,VIO/VDD*%
%TO.N,ESP_3v3*%
X312492500Y-224192500D03*
%TO.P,U49,3,M1B*%
%TO.N,Net-(M5--)*%
X312492500Y-226732500D03*
%TO.P,U49,4,M2B*%
%TO.N,Net-(U49-M2B)*%
X312492500Y-229272500D03*
%TO.P,U49,5,M2A*%
%TO.N,Net-(U49-M2A)*%
X312492500Y-231812500D03*
%TO.P,U49,6,M1A*%
%TO.N,Net-(U49-M1A)*%
X312492500Y-234352500D03*
%TO.P,U49,7,GND*%
%TO.N,/YD-ESP32-S3/4x tmc5161/TMC_GND*%
X312492500Y-236892500D03*
%TO.P,U49,8,VMOT*%
%TO.N,Motor 3 power*%
X312492500Y-239432500D03*
%TO.P,U49,18,AIN*%
%TO.N,unconnected-(U49-AIN-Pad18)*%
X322652500Y-239432500D03*
%TO.P,U49,17,DIAG*%
%TO.N,Net-(D9-K)*%
X320112500Y-239432500D03*
%TD*%
D40*
%TO.P,D3,1,K*%
%TO.N,Net-(D3-K)*%
X244800000Y-191900000D03*
%TO.P,D3,2,A*%
%TO.N,/PCIe-M2/M2_3v3*%
X247600000Y-191900000D03*
%TD*%
D41*
%TO.P,CT1,1*%
%TO.N,/PCIe-M2/M2_3v3*%
X208800000Y-205720000D03*
%TO.P,CT1,2*%
%TO.N,GND*%
X208800000Y-199480000D03*
%TD*%
D42*
%TO.P,CT3,1*%
%TO.N,ESP_3v3*%
X269720000Y-211600000D03*
%TO.P,CT3,2*%
%TO.N,GND*%
X263480000Y-211600000D03*
%TD*%
D24*
%TO.P,GPIO2,1,Pin_1*%
%TO.N,Net-(GPIO2-Pin_1)*%
X278025000Y-220690000D03*
D23*
%TO.P,GPIO2,2,Pin_2*%
%TO.N,Net-(GPIO2-Pin_2)*%
X280565000Y-220690000D03*
%TO.P,GPIO2,3,Pin_3*%
%TO.N,Net-(GPIO2-Pin_3)*%
X278025000Y-223230000D03*
%TO.P,GPIO2,4,Pin_4*%
%TO.N,Net-(GPIO2-Pin_4)*%
X280565000Y-223230000D03*
%TO.P,GPIO2,5,Pin_5*%
%TO.N,Net-(GPIO2-Pin_5)*%
X278025000Y-225770000D03*
%TO.P,GPIO2,6,Pin_6*%
%TO.N,Net-(GPIO2-Pin_6)*%
X280565000Y-225770000D03*
%TO.P,GPIO2,7,Pin_7*%
%TO.N,Net-(GPIO2-Pin_7)*%
X278025000Y-228310000D03*
%TO.P,GPIO2,8,Pin_8*%
%TO.N,Net-(GPIO2-Pin_8)*%
X280565000Y-228310000D03*
%TO.P,GPIO2,9,Pin_9*%
%TO.N,Net-(GPIO2-Pin_9)*%
X278025000Y-230850000D03*
%TO.P,GPIO2,10,Pin_10*%
%TO.N,Net-(GPIO2-Pin_10)*%
X280565000Y-230850000D03*
%TO.P,GPIO2,11,Pin_11*%
%TO.N,Net-(GPIO2-Pin_11)*%
X278025000Y-233390000D03*
%TO.P,GPIO2,12,Pin_12*%
%TO.N,Net-(GPIO2-Pin_12)*%
X280565000Y-233390000D03*
%TO.P,GPIO2,13,Pin_13*%
%TO.N,unconnected-(GPIO2-Pin_13-Pad13)*%
X278025000Y-235930000D03*
%TO.P,GPIO2,14,Pin_14*%
%TO.N,unconnected-(GPIO2-Pin_14-Pad14)*%
X280565000Y-235930000D03*
%TO.P,GPIO2,15,Pin_15*%
%TO.N,GND*%
X278025000Y-238470000D03*
%TO.P,GPIO2,16,Pin_16*%
X280565000Y-238470000D03*
%TO.P,GPIO2,17,Pin_17*%
%TO.N,Motor 1 power*%
X278025000Y-241010000D03*
%TO.P,GPIO2,18,Pin_18*%
%TO.N,Motor 2 power*%
X280565000Y-241010000D03*
%TO.P,GPIO2,19,Pin_19*%
%TO.N,ESP_3v3*%
X278025000Y-243550000D03*
%TO.P,GPIO2,20,Pin_20*%
X280565000Y-243550000D03*
%TO.P,GPIO2,21,Pin_21*%
%TO.N,ESP_5v*%
X278025000Y-246090000D03*
%TO.P,GPIO2,22,Pin_22*%
X280565000Y-246090000D03*
%TO.P,GPIO2,23,Pin_23*%
%TO.N,ESP_GPIO48*%
X278025000Y-248630000D03*
%TO.P,GPIO2,24,Pin_24*%
%TO.N,ESP_GPIO47*%
X280565000Y-248630000D03*
%TO.P,GPIO2,25,Pin_25*%
%TO.N,ESP_GPIO46*%
X278025000Y-251170000D03*
%TO.P,GPIO2,26,Pin_26*%
%TO.N,ESP_GPIO45*%
X280565000Y-251170000D03*
%TO.P,GPIO2,27,Pin_27*%
%TO.N,TOUCH1*%
X278025000Y-253710000D03*
%TO.P,GPIO2,28,Pin_28*%
%TO.N,TOUCH2*%
X280565000Y-253710000D03*
%TD*%
D43*
%TO.P,R47,1*%
%TO.N,3V3_M.2*%
X273962500Y-220700000D03*
%TO.P,R47,2*%
%TO.N,/3v3*%
X271037500Y-220700000D03*
%TD*%
D44*
%TO.P,R38,1*%
%TO.N,ESP_3v3*%
X284837500Y-225100000D03*
%TO.P,R38,2*%
%TO.N,/3v3*%
X287762500Y-225100000D03*
%TD*%
D32*
%TO.P,M7,1*%
%TO.N,Net-(U51-M2B)*%
X349550000Y-212400000D03*
D33*
%TO.P,M7,2*%
%TO.N,unconnected-(M7-Pad2)*%
X349550000Y-210400000D03*
%TO.P,M7,3,-*%
%TO.N,Net-(M7--)*%
X349550000Y-208400000D03*
%TO.P,M7,4*%
%TO.N,Net-(U51-M2A)*%
X349550000Y-206400000D03*
%TO.P,M7,5*%
%TO.N,unconnected-(M7-Pad5)*%
X349550000Y-204400000D03*
%TO.P,M7,6*%
%TO.N,Net-(U51-M1A)*%
X349550000Y-202400000D03*
%TD*%
D45*
%TO.P,M6,1*%
%TO.N,Net-(U50-M2B)*%
X342200000Y-193750000D03*
D25*
%TO.P,M6,2*%
%TO.N,unconnected-(M6-Pad2)*%
X340200000Y-193750000D03*
%TO.P,M6,3,-*%
%TO.N,Net-(M6--)*%
X338200000Y-193750000D03*
%TO.P,M6,4*%
%TO.N,Net-(U50-M2A)*%
X336200000Y-193750000D03*
%TO.P,M6,5*%
%TO.N,unconnected-(M6-Pad5)*%
X334200000Y-193750000D03*
%TO.P,M6,6*%
%TO.N,Net-(U50-M1A)*%
X332200000Y-193750000D03*
%TD*%
D46*
%TO.P,Q3,1,B*%
%TO.N,Net-(Q3-B)*%
X272250000Y-224362500D03*
%TO.P,Q3,2,E*%
%TO.N,Net-(Q3-E)*%
X270350000Y-224362500D03*
%TO.P,Q3,3,C*%
%TO.N,/YD-ESP32-S3/esp32_chip_pu*%
X271300000Y-226237500D03*
%TD*%
%TO.P,Q2,1,B*%
%TO.N,Net-(Q2-B)*%
X272250000Y-228662500D03*
%TO.P,Q2,2,E*%
%TO.N,Net-(Q2-E)*%
X270350000Y-228662500D03*
%TO.P,Q2,3,C*%
%TO.N,/YD-ESP32-S3/esp32_gpio0*%
X271300000Y-230537500D03*
%TD*%
D45*
%TO.P,M4,1*%
%TO.N,Net-(U48-M2B)*%
X323900000Y-193650000D03*
D25*
%TO.P,M4,2*%
%TO.N,unconnected-(M4-Pad2)*%
X321900000Y-193650000D03*
%TO.P,M4,3,-*%
%TO.N,Net-(M4--)*%
X319900000Y-193650000D03*
%TO.P,M4,4*%
%TO.N,Net-(U48-M2A)*%
X317900000Y-193650000D03*
%TO.P,M4,5*%
%TO.N,unconnected-(M4-Pad5)*%
X315900000Y-193650000D03*
%TO.P,M4,6*%
%TO.N,Net-(U48-M1A)*%
X313900000Y-193650000D03*
%TD*%
D32*
%TO.P,M5,1*%
%TO.N,Net-(U49-M2B)*%
X349350000Y-234900000D03*
D33*
%TO.P,M5,2*%
%TO.N,unconnected-(M5-Pad2)*%
X349350000Y-232900000D03*
%TO.P,M5,3,-*%
%TO.N,Net-(M5--)*%
X349350000Y-230900000D03*
%TO.P,M5,4*%
%TO.N,Net-(U49-M2A)*%
X349350000Y-228900000D03*
%TO.P,M5,5*%
%TO.N,unconnected-(M5-Pad5)*%
X349350000Y-226900000D03*
%TO.P,M5,6*%
%TO.N,Net-(U49-M1A)*%
X349350000Y-224900000D03*
%TD*%
D45*
%TO.P,J32,1,Pin_1*%
%TO.N,Net-(J32-Pin_1)*%
X287500000Y-233600000D03*
D25*
%TO.P,J32,2,Pin_2*%
%TO.N,Net-(J32-Pin_2)*%
X285500000Y-233600000D03*
%TD*%
D45*
%TO.P,J31,1,Pin_1*%
%TO.N,Net-(J31-Pin_1)*%
X287500000Y-240050000D03*
D25*
%TO.P,J31,2,Pin_2*%
%TO.N,Net-(J31-Pin_2)*%
X285500000Y-240050000D03*
%TD*%
D26*
%TO.P,I2C_2,1,Pin_1*%
%TO.N,ESP_3v3*%
X300900000Y-239100000D03*
D25*
%TO.P,I2C_2,2,Pin_2*%
%TO.N,/YD-ESP32-S3/I2C_SCL_sensors*%
X302900000Y-239100000D03*
%TO.P,I2C_2,3,Pin_3*%
%TO.N,/YD-ESP32-S3/I2C_SDA_sensors*%
X304900000Y-239100000D03*
%TO.P,I2C_2,4,Pin_4*%
%TO.N,GND*%
X306900000Y-239100000D03*
%TD*%
D47*
%TO.P,J7,1,VBUS`*%
%TO.N,/USB2-HUB/VBUS*%
X291500000Y-274377500D03*
%TO.P,J7,2,D-`*%
%TO.N,/USB2-HUB/HD1_N*%
X294000000Y-274377500D03*
%TO.P,J7,3,D+`*%
%TO.N,/USB2-HUB/HD1_P*%
X296000000Y-274377500D03*
%TO.P,J7,4,GND`*%
%TO.N,GND*%
X298500000Y-274377500D03*
%TO.P,J7,5,VBUS*%
%TO.N,/USB2-HUB/VBUS*%
X291500000Y-276997500D03*
%TO.P,J7,6,D-*%
%TO.N,/USB2-HUB/HD2_N*%
X294000000Y-276997500D03*
%TO.P,J7,7,D+*%
%TO.N,/USB2-HUB/HD2_P*%
X296000000Y-276997500D03*
%TO.P,J7,8,GND*%
%TO.N,GND*%
X298500000Y-276997500D03*
D48*
%TO.P,J7,MT3,MT3*%
X288430000Y-274027500D03*
%TO.P,J7,MT1,MT1*%
X288430000Y-279707500D03*
%TO.P,J7,MT4,MT4*%
X301570000Y-274027500D03*
%TO.P,J7,MT2,MT2*%
X301570000Y-279707500D03*
%TD*%
D49*
%TO.P,J1,2,POS*%
%TO.N,/SW_P*%
X342100000Y-275100000D03*
D50*
%TO.P,J1,1,NEG*%
%TO.N,GND*%
X349300000Y-275100000D03*
%TD*%
D26*
%TO.P,I2C_1,1,Pin_1*%
%TO.N,ESP_3v3*%
X301000000Y-232850000D03*
D25*
%TO.P,I2C_1,2,Pin_2*%
%TO.N,/YD-ESP32-S3/I2C_SCL_sensors*%
X303000000Y-232850000D03*
%TO.P,I2C_1,3,Pin_3*%
%TO.N,/YD-ESP32-S3/I2C_SDA_sensors*%
X305000000Y-232850000D03*
%TO.P,I2C_1,4,Pin_4*%
%TO.N,GND*%
X307000000Y-232850000D03*
%TD*%
D26*
%TO.P,DC6,1,Pin_1*%
%TO.N,GND*%
X293200000Y-265300000D03*
D25*
%TO.P,DC6,2,Pin_2*%
%TO.N,Net-(DC6-Pin_2)*%
X295200000Y-265300000D03*
%TD*%
D26*
%TO.P,DC3,1,Pin_1*%
%TO.N,GND*%
X293200000Y-245650000D03*
D25*
%TO.P,DC3,2,Pin_2*%
%TO.N,Net-(DC3-Pin_2)*%
X295200000Y-245650000D03*
%TD*%
D26*
%TO.P,DC4,1,Pin_1*%
%TO.N,GND*%
X293200000Y-252200000D03*
D25*
%TO.P,DC4,2,Pin_2*%
%TO.N,Net-(DC4-Pin_2)*%
X295200000Y-252200000D03*
%TD*%
D51*
%TO.P,FB2,1*%
%TO.N,/YD-ESP32-S3/4x tmc5161/TMC_GND*%
X347237500Y-219000000D03*
%TO.P,FB2,2*%
%TO.N,GND*%
X353162500Y-219000000D03*
%TD*%
D34*
%TO.P,DSW1,1*%
%TO.N,/SW_N*%
X268560000Y-247455000D03*
%TO.P,DSW1,2*%
%TO.N,INPUT_VOLTAGE*%
X268560000Y-248725000D03*
%TO.P,DSW1,3*%
X268560000Y-249995000D03*
%TO.P,DSW1,4*%
X268560000Y-251265000D03*
%TO.P,DSW1,5*%
X268560000Y-252535000D03*
%TO.P,DSW1,6*%
X268560000Y-253805000D03*
%TO.P,DSW1,7*%
%TO.N,/5v*%
X268560000Y-255075000D03*
%TO.P,DSW1,8*%
%TO.N,unconnected-(DSW1-Pad8)*%
X268560000Y-256345000D03*
%TO.P,DSW1,9*%
%TO.N,unconnected-(DSW1-Pad9)*%
X273640000Y-256345000D03*
%TO.P,DSW1,10*%
%TO.N,TPA_ON*%
X273640000Y-255075000D03*
%TO.P,DSW1,11*%
%TO.N,/PSUs/12v_v2_enable*%
X273640000Y-253805000D03*
%TO.P,DSW1,12*%
%TO.N,/PSUs/12v_v1_enable*%
X273640000Y-252535000D03*
%TO.P,DSW1,13*%
%TO.N,/servo_enable*%
X273640000Y-251265000D03*
%TO.P,DSW1,14*%
%TO.N,/PSUs/5v_enable*%
X273640000Y-249995000D03*
%TO.P,DSW1,15*%
%TO.N,/PSUs/3v3_enable*%
X273640000Y-248725000D03*
%TO.P,DSW1,16*%
%TO.N,/SW_P*%
X273640000Y-247455000D03*
%TD*%
%TO.P,DSW3,1*%
%TO.N,ESP_5v*%
X268660000Y-235055000D03*
%TO.P,DSW3,2*%
X268660000Y-236325000D03*
%TO.P,DSW3,3*%
X268660000Y-237595000D03*
%TO.P,DSW3,4*%
X268660000Y-238865000D03*
%TO.P,DSW3,5*%
X268660000Y-240135000D03*
%TO.P,DSW3,6*%
X268660000Y-241405000D03*
%TO.P,DSW3,7*%
X268660000Y-242675000D03*
%TO.P,DSW3,8*%
X268660000Y-243945000D03*
%TO.P,DSW3,9*%
%TO.N,/YD-ESP32-S3/I2C_devices/Sw8*%
X273740000Y-243945000D03*
%TO.P,DSW3,10*%
%TO.N,/YD-ESP32-S3/I2C_devices/Sw7*%
X273740000Y-242675000D03*
%TO.P,DSW3,11*%
%TO.N,/YD-ESP32-S3/I2C_devices/Sw6*%
X273740000Y-241405000D03*
%TO.P,DSW3,12*%
%TO.N,/YD-ESP32-S3/I2C_devices/Sw5*%
X273740000Y-240135000D03*
%TO.P,DSW3,13*%
%TO.N,/YD-ESP32-S3/I2C_devices/Sw4*%
X273740000Y-238865000D03*
%TO.P,DSW3,14*%
%TO.N,/YD-ESP32-S3/I2C_devices/Sw3*%
X273740000Y-237595000D03*
%TO.P,DSW3,15*%
%TO.N,/YD-ESP32-S3/I2C_devices/Sw2*%
X273740000Y-236325000D03*
%TO.P,DSW3,16*%
%TO.N,/YD-ESP32-S3/I2C_devices/Sw1*%
X273740000Y-235055000D03*
%TD*%
D26*
%TO.P,DC5,1,Pin_1*%
%TO.N,GND*%
X293200000Y-258750000D03*
D25*
%TO.P,DC5,2,Pin_2*%
%TO.N,Net-(DC5-Pin_2)*%
X295200000Y-258750000D03*
%TD*%
D26*
%TO.P,DC2,1,Pin_1*%
%TO.N,GND*%
X293200000Y-239100000D03*
D25*
%TO.P,DC2,2,Pin_2*%
%TO.N,Net-(DC2-Pin_2)*%
X295200000Y-239100000D03*
%TD*%
D26*
%TO.P,SERVO2,1,Pin_1*%
%TO.N,SERVO2*%
X300800000Y-252200000D03*
D25*
%TO.P,SERVO2,2,Pin_2*%
%TO.N,/YD-ESP32-S3/I2C_devices/PCA9531PW/SM2_PWM*%
X302800000Y-252200000D03*
%TO.P,SERVO2,3,Pin_3*%
%TO.N,GND*%
X304800000Y-252200000D03*
%TD*%
D26*
%TO.P,SERVO1,1,Pin_1*%
%TO.N,SERVO1*%
X300800000Y-245650000D03*
D25*
%TO.P,SERVO1,2,Pin_2*%
%TO.N,/YD-ESP32-S3/I2C_devices/PCA9531PW/SM1_PWM*%
X302800000Y-245650000D03*
%TO.P,SERVO1,3,Pin_3*%
%TO.N,GND*%
X304800000Y-245650000D03*
%TD*%
D52*
%TO.P,R70,1*%
%TO.N,Net-(D5-A)*%
X302187500Y-197000000D03*
%TO.P,R70,2*%
%TO.N,ESP_3v3*%
X304012500Y-197000000D03*
%TD*%
D53*
%TO.P,R74,1*%
%TO.N,Net-(Q2-B)*%
X268412500Y-229600000D03*
%TO.P,R74,2*%
%TO.N,Net-(Q3-E)*%
X266587500Y-229600000D03*
%TD*%
D52*
%TO.P,R73,1*%
%TO.N,Net-(Q2-E)*%
X266487500Y-222800000D03*
%TO.P,R73,2*%
%TO.N,Net-(Q3-B)*%
X268312500Y-222800000D03*
%TD*%
D53*
%TO.P,R72,1*%
%TO.N,/YD-ESP32-S3/esp32_chip_pu*%
X268312500Y-226200000D03*
%TO.P,R72,2*%
%TO.N,ESP_3v3*%
X266487500Y-226200000D03*
%TD*%
D52*
%TO.P,R69,1*%
%TO.N,Net-(D4-A)*%
X295175000Y-201200000D03*
%TO.P,R69,2*%
%TO.N,ESP_3v3*%
X297000000Y-201200000D03*
%TD*%
%TO.P,R71,1*%
%TO.N,Net-(D6-A)*%
X302175000Y-192600000D03*
%TO.P,R71,2*%
%TO.N,ESP_3v3*%
X304000000Y-192600000D03*
%TD*%
D54*
%TO.P,U20,1,A1*%
%TO.N,INA226_SCL*%
X286800000Y-217000000D03*
%TO.P,U20,2,A0*%
%TO.N,INA226_SDA*%
X286300000Y-217000000D03*
%TO.P,U20,3,~{Alert}*%
%TO.N,/INA226/alert out*%
X285800000Y-217000000D03*
%TO.P,U20,4,SDA*%
%TO.N,INA226_SCL*%
X285300000Y-217000000D03*
%TO.P,U20,5,SCL*%
%TO.N,INA226_SDA*%
X284800000Y-217000000D03*
%TO.P,U20,6,VS*%
%TO.N,5V1*%
X284800000Y-221400000D03*
%TO.P,U20,7,GND*%
%TO.N,GND*%
X285300000Y-221400000D03*
%TO.P,U20,8,Vbus*%
%TO.N,ESP_3v3*%
X285800000Y-221400000D03*
%TO.P,U20,9,Vin-*%
%TO.N,/3v3*%
X286300000Y-221400000D03*
%TO.P,U20,10,Vin+*%
%TO.N,ESP_3v3*%
X286800000Y-221400000D03*
%TD*%
%TO.P,U29,1,A1*%
%TO.N,INA226_SCL*%
X275200000Y-213300000D03*
%TO.P,U29,2,A0*%
X274700000Y-213300000D03*
%TO.P,U29,3,~{Alert}*%
%TO.N,/INA226/alert out*%
X274200000Y-213300000D03*
%TO.P,U29,4,SDA*%
%TO.N,INA226_SCL*%
X273700000Y-213300000D03*
%TO.P,U29,5,SCL*%
%TO.N,INA226_SDA*%
X273200000Y-213300000D03*
%TO.P,U29,6,VS*%
%TO.N,5V1*%
X273200000Y-217700000D03*
%TO.P,U29,7,GND*%
%TO.N,GND*%
X273700000Y-217700000D03*
%TO.P,U29,8,Vbus*%
%TO.N,3V3_M.2*%
X274200000Y-217700000D03*
%TO.P,U29,9,Vin-*%
%TO.N,/3v3*%
X274700000Y-217700000D03*
%TO.P,U29,10,Vin+*%
%TO.N,3V3_M.2*%
X275200000Y-217700000D03*
%TD*%
D55*
%TO.P,U7,1,EN*%
%TO.N,/PCIe-M2/M2_3v3*%
X217700000Y-191250000D03*
%TO.P,U7,2,GND*%
%TO.N,GND*%
X215500000Y-191250000D03*
%TO.P,U7,3,Out*%
%TO.N,Net-(J6-SUSCLK)*%
X215500000Y-192950000D03*
%TO.P,U7,4,VDD*%
%TO.N,/PCIe-M2/M2_3v3*%
X217700000Y-192950000D03*
%TD*%
D56*
%TO.P,TP1,1,1*%
%TO.N,/PCIe-M2/M2_3v3*%
X209900000Y-192000000D03*
%TD*%
D26*
%TO.P,SERVO3,1,Pin_1*%
%TO.N,SERVO3*%
X300800000Y-258750000D03*
D25*
%TO.P,SERVO3,2,Pin_2*%
%TO.N,/YD-ESP32-S3/I2C_devices/PCA9531PW/SM3_PWM*%
X302800000Y-258750000D03*
%TO.P,SERVO3,3,Pin_3*%
%TO.N,GND*%
X304800000Y-258750000D03*
%TD*%
D26*
%TO.P,SERVO4,1,Pin_1*%
%TO.N,SERVO4*%
X300800000Y-265300000D03*
D25*
%TO.P,SERVO4,2,Pin_2*%
%TO.N,/YD-ESP32-S3/I2C_devices/PCA9531PW/SM4_PWM*%
X302800000Y-265300000D03*
%TO.P,SERVO4,3,Pin_3*%
%TO.N,GND*%
X304800000Y-265300000D03*
%TD*%
D26*
%TO.P,DC1,1,Pin_1*%
%TO.N,GND*%
X293200000Y-232550000D03*
D25*
%TO.P,DC1,2,Pin_2*%
%TO.N,Net-(DC1-Pin_2)*%
X295200000Y-232550000D03*
%TD*%
D33*
%TO.P,BT1,2,-*%
%TO.N,GND*%
X263200000Y-242300000D03*
D32*
%TO.P,BT1,1,+*%
%TO.N,/CM5_GPIO ( Ethernet\u002C GPIO\u002C SDCARD)/VBAT*%
X263200000Y-244300000D03*
%TD*%
D57*
%TO.P,TP5,1,1*%
%TO.N,TOUCH2*%
X203600000Y-208800000D03*
%TD*%
D58*
%TO.P,C81,2*%
%TO.N,GND*%
X303737500Y-201200000D03*
%TO.P,C81,1*%
%TO.N,ESP_3v3*%
X305637500Y-201200000D03*
%TD*%
D59*
%TO.P,C80,1*%
%TO.N,/YD-ESP32-S3/esp32_chip_pu*%
X259100000Y-223450000D03*
%TO.P,C80,2*%
%TO.N,GND*%
X259100000Y-225350000D03*
%TD*%
D42*
%TO.P,C78,1*%
%TO.N,ESP_3v3*%
X269720000Y-205800000D03*
%TO.P,C78,2*%
%TO.N,GND*%
X263480000Y-205800000D03*
%TD*%
D37*
%TO.P,C79,1*%
%TO.N,ESP_3v3*%
X280650000Y-213800000D03*
%TO.P,C79,2*%
%TO.N,GND*%
X282550000Y-213800000D03*
%TD*%
D60*
%TO.P,D4,1,K*%
%TO.N,GND*%
X301687500Y-201200000D03*
%TO.P,D4,2,A*%
%TO.N,Net-(D4-A)*%
X298887500Y-201200000D03*
%TD*%
D61*
%TO.P,ESP1,1,GND*%
%TO.N,GND*%
X275045000Y-191040000D03*
%TO.P,ESP1,2,3V3*%
%TO.N,ESP_3v3*%
X275045000Y-192310000D03*
%TO.P,ESP1,3,EN*%
%TO.N,/YD-ESP32-S3/esp32_chip_pu*%
X275045000Y-193580000D03*
%TO.P,ESP1,4,IO4*%
%TO.N,/YD-ESP32-S3/M4_step*%
X275045000Y-194850000D03*
%TO.P,ESP1,5,IO5*%
%TO.N,/YD-ESP32-S3/spi_mux/ESP_MCP_CS*%
X275045000Y-196120000D03*
%TO.P,ESP1,6,IO6*%
%TO.N,/YD-ESP32-S3/MCP_RST*%
X275045000Y-197390000D03*
%TO.P,ESP1,7,IO7*%
%TO.N,/YD-ESP32-S3/PWMA*%
X275045000Y-198660000D03*
%TO.P,ESP1,8,IO15*%
%TO.N,/YD-ESP32-S3/spi_mux/ESP_SPI_2_CLK*%
X275045000Y-199930000D03*
%TO.P,ESP1,9,IO16*%
%TO.N,/YD-ESP32-S3/spi_mux/ESP_SPI_2_MISO*%
X275045000Y-201200000D03*
%TO.P,ESP1,10,IO17*%
%TO.N,/Uart_tx*%
X275045000Y-202470000D03*
%TO.P,ESP1,11,IO18*%
%TO.N,/Uart_rx*%
X275045000Y-203740000D03*
%TO.P,ESP1,12,IO8*%
%TO.N,/YD-ESP32-S3/PWMB*%
X275045000Y-205010000D03*
%TO.P,ESP1,13,USB_D-/IO19*%
%TO.N,/USB2-HUB/ESP_usbD-*%
X275045000Y-206280000D03*
%TO.P,ESP1,14,USB_D+/IO20*%
%TO.N,/USB2-HUB/ESP_usbD+*%
X275045000Y-207550000D03*
D62*
%TO.P,ESP1,15,IO3*%
%TO.N,/YD-ESP32-S3/M3_step*%
X276810000Y-208800000D03*
%TO.P,ESP1,16,IO46*%
%TO.N,ESP_GPIO46*%
X278080000Y-208800000D03*
%TO.P,ESP1,17,IO9*%
%TO.N,TOUCH2*%
X279350000Y-208800000D03*
%TO.P,ESP1,18,IO10*%
%TO.N,TOUCH1*%
X280620000Y-208800000D03*
%TO.P,ESP1,19,IO11*%
%TO.N,/YD-ESP32-S3/spi_mux/ESP_TMC_MOSI*%
X281890000Y-208800000D03*
%TO.P,ESP1,20,IO12*%
%TO.N,/YD-ESP32-S3/spi_mux/ESP_TMC_SPI_CLK*%
X283160000Y-208800000D03*
%TO.P,ESP1,21,IO13*%
%TO.N,/YD-ESP32-S3/spi_mux/ESP_TMC_MISO*%
X284430000Y-208800000D03*
%TO.P,ESP1,22,IO14*%
%TO.N,/YD-ESP32-S3/spi_mux/ESP_SPI_2_MOSI*%
X285700000Y-208800000D03*
%TO.P,ESP1,23,IO21*%
%TO.N,/YD-ESP32-S3/GPIO48_RGB*%
X286970000Y-208800000D03*
%TO.P,ESP1,24,IO47*%
%TO.N,ESP_GPIO47*%
X288240000Y-208800000D03*
%TO.P,ESP1,25,IO48*%
%TO.N,ESP_GPIO48*%
X289510000Y-208800000D03*
%TO.P,ESP1,26,IO45*%
%TO.N,ESP_GPIO45*%
X290780000Y-208800000D03*
D61*
%TO.P,ESP1,27,IO0*%
%TO.N,/YD-ESP32-S3/esp32_gpio0*%
X292545000Y-207550000D03*
%TO.P,ESP1,28,NC*%
%TO.N,unconnected-(ESP1-NC-Pad28)*%
X292545000Y-206280000D03*
%TO.P,ESP1,29,NC*%
%TO.N,unconnected-(ESP1-NC-Pad29)*%
X292545000Y-205010000D03*
%TO.P,ESP1,30,NC*%
%TO.N,unconnected-(ESP1-NC-Pad30)*%
X292545000Y-203740000D03*
%TO.P,ESP1,31,IO38*%
%TO.N,I2C_CH*%
X292545000Y-202470000D03*
%TO.P,ESP1,32,MTCK/IO39*%
%TO.N,SPI_TMC_CH*%
X292545000Y-201200000D03*
%TO.P,ESP1,33,MTDO/IO40*%
%TO.N,SPI2_CH*%
X292545000Y-199930000D03*
%TO.P,ESP1,34,MTDI/IO41*%
%TO.N,/YD-ESP32-S3/I2C_MUX/ESP_I2C_SDA_sensors*%
X292545000Y-198660000D03*
%TO.P,ESP1,35,MTMS/IO42*%
%TO.N,/YD-ESP32-S3/I2C_MUX/ESP_I2C_SCL_sensors*%
X292545000Y-197390000D03*
%TO.P,ESP1,36,RXD0/IO44*%
%TO.N,/YD-ESP32-S3/esp_txd0*%
X292545000Y-196120000D03*
%TO.P,ESP1,37,TXD0/IO43*%
%TO.N,/YD-ESP32-S3/esp_rxd0*%
X292545000Y-194850000D03*
%TO.P,ESP1,38,IO2*%
%TO.N,/YD-ESP32-S3/M2_step*%
X292545000Y-193580000D03*
%TO.P,ESP1,39,IO1*%
%TO.N,/YD-ESP32-S3/M1_step*%
X292545000Y-192310000D03*
%TO.P,ESP1,40,GND*%
%TO.N,GND*%
X292545000Y-191040000D03*
D63*
%TO.P,ESP1,41,GND*%
X280935000Y-194890000D03*
D64*
X280935000Y-195640000D03*
D63*
X280935000Y-196390000D03*
D64*
X280935000Y-197140000D03*
D63*
X280935000Y-197890000D03*
D64*
X281685000Y-194890000D03*
X281685000Y-196390000D03*
X281685000Y-197890000D03*
D63*
X282435000Y-194890000D03*
D64*
X282435000Y-195640000D03*
D63*
X282435000Y-196390000D03*
D64*
X282435000Y-197140000D03*
D63*
X282435000Y-197890000D03*
D64*
X283185000Y-194890000D03*
X283185000Y-196390000D03*
X283185000Y-197890000D03*
D63*
X283935000Y-194890000D03*
D64*
X283935000Y-195640000D03*
D63*
X283935000Y-196390000D03*
D64*
X283935000Y-197140000D03*
D63*
X283935000Y-197890000D03*
%TD*%
D56*
%TO.P,TP2,1,1*%
%TO.N,/CM5_GPIO ( Ethernet\u002C GPIO\u002C SDCARD)/SYNC_OUT*%
X202800000Y-219800000D03*
%TD*%
D57*
%TO.P,TP6,1,1*%
%TO.N,TOUCH1*%
X203600000Y-202200000D03*
%TD*%
D56*
%TO.P,TP3,1,1*%
%TO.N,GND*%
X206500000Y-219900000D03*
%TD*%
D40*
%TO.P,D6,1,K*%
%TO.N,/YD-ESP32-S3/esp_rxd0*%
X297200000Y-192600000D03*
%TO.P,D6,2,A*%
%TO.N,Net-(D6-A)*%
X300000000Y-192600000D03*
%TD*%
%TO.P,D5,1,K*%
%TO.N,/YD-ESP32-S3/esp_txd0*%
X297200000Y-197000000D03*
%TO.P,D5,2,A*%
%TO.N,Net-(D5-A)*%
X300000000Y-197000000D03*
%TD*%
D56*
%TO.P,TP7,1,1*%
%TO.N,/CM5_GPIO ( Ethernet\u002C GPIO\u002C SDCARD)/+3.3v*%
X202900000Y-215100000D03*
%TD*%
%TO.P,TP8,1,1*%
%TO.N,1.8V*%
X206600000Y-215100000D03*
%TD*%
D52*
%TO.P,R14,2*%
%TO.N,GND*%
X209900000Y-209800000D03*
%TO.P,R14,1*%
%TO.N,/CM5_HighSpeed/PCIE_PWR_EN*%
X208075000Y-209800000D03*
%TD*%
D53*
%TO.P,R15,2*%
%TO.N,Net-(J6-DAS{slash}~{DSS}{slash}~{LED1})*%
X240885000Y-191980000D03*
%TO.P,R15,1*%
%TO.N,Net-(D3-K)*%
X242710000Y-191980000D03*
%TD*%
D65*
%TO.P,C97,2*%
%TO.N,/YD-ESP32-S3/4x tmc5161/TMC_GND*%
X337000000Y-204100000D03*
%TO.P,C97,1*%
%TO.N,Motor 3 power*%
X337000000Y-210600000D03*
%TD*%
D38*
%TO.P,U48,17,DIAG*%
%TO.N,Net-(D8-K)*%
X320120000Y-216332500D03*
%TO.P,U48,18,AIN*%
%TO.N,unconnected-(U48-AIN-Pad18)*%
X322660000Y-216332500D03*
%TO.P,U48,8,VMOT*%
%TO.N,Motor 1 power*%
X312500000Y-216332500D03*
%TO.P,U48,7,GND*%
%TO.N,/YD-ESP32-S3/4x tmc5161/TMC_GND*%
X312500000Y-213792500D03*
%TO.P,U48,6,M1A*%
%TO.N,Net-(U48-M1A)*%
X312500000Y-211252500D03*
%TO.P,U48,5,M2A*%
%TO.N,Net-(U48-M2A)*%
X312500000Y-208712500D03*
%TO.P,U48,4,M2B*%
%TO.N,Net-(U48-M2B)*%
X312500000Y-206172500D03*
%TO.P,U48,3,M1B*%
%TO.N,Net-(M4--)*%
X312500000Y-203632500D03*
%TO.P,U48,2,VIO/VDD*%
%TO.N,ESP_3v3*%
X312500000Y-201092500D03*
D39*
%TO.P,U48,1,GND*%
%TO.N,/YD-ESP32-S3/4x tmc5161/TMC_GND*%
X312500000Y-198552500D03*
D38*
%TO.P,U48,16,Enable*%
%TO.N,/YD-ESP32-S3/4x tmc5161/M1_EN*%
X325200000Y-216332500D03*
%TO.P,U48,15,MOSI*%
%TO.N,/YD-ESP32-S3/TMC_MOSI*%
X325200000Y-213792500D03*
%TO.P,U48,14,Spi_clk*%
%TO.N,/YD-ESP32-S3/TMC_SPI_CLK*%
X325200000Y-211252500D03*
%TO.P,U48,13,Chip_select*%
%TO.N,/YD-ESP32-S3/4x tmc5161/M1_CS*%
X325200000Y-208712500D03*
%TO.P,U48,12,CLK*%
%TO.N,unconnected-(U48-CLK-Pad12)*%
X325200000Y-206172500D03*
%TO.P,U48,11,MISO*%
%TO.N,/YD-ESP32-S3/TMC_MISO*%
X325200000Y-203632500D03*
%TO.P,U48,10,STEP*%
%TO.N,/YD-ESP32-S3/M1_step*%
X325200000Y-201092500D03*
%TO.P,U48,9,DIR*%
%TO.N,/YD-ESP32-S3/M1_dir*%
X325200000Y-198552500D03*
%TD*%
D25*
%TO.P,I2C_0x70_1,4,Pin_4*%
%TO.N,GND*%
X316800000Y-245900000D03*
%TO.P,I2C_0x70_1,3,Pin_3*%
%TO.N,/YD-ESP32-S3/I2C_devices/SCL2_1*%
X314800000Y-245900000D03*
%TO.P,I2C_0x70_1,2,Pin_2*%
%TO.N,/YD-ESP32-S3/I2C_devices/SDA2_1*%
X312800000Y-245900000D03*
D26*
%TO.P,I2C_0x70_1,1,Pin_1*%
%TO.N,/YD-ESP32-S3/I2C_devices/output_pin_5*%
X310800000Y-245900000D03*
%TD*%
D25*
%TO.P,I2C_0x70_3,4,Pin_4*%
%TO.N,GND*%
X316800000Y-259000000D03*
%TO.P,I2C_0x70_3,3,Pin_3*%
%TO.N,/YD-ESP32-S3/I2C_devices/SCL2_3*%
X314800000Y-259000000D03*
%TO.P,I2C_0x70_3,2,Pin_2*%
%TO.N,/YD-ESP32-S3/I2C_devices/SDA2_3*%
X312800000Y-259000000D03*
D26*
%TO.P,I2C_0x70_3,1,Pin_1*%
%TO.N,/YD-ESP32-S3/I2C_devices/output_pin_6*%
X310800000Y-259000000D03*
%TD*%
D25*
%TO.P,I2C_0x70_5,4,Pin_4*%
%TO.N,GND*%
X328600000Y-245950000D03*
%TO.P,I2C_0x70_5,3,Pin_3*%
%TO.N,/YD-ESP32-S3/I2C_devices/SCL2_5*%
X326600000Y-245950000D03*
%TO.P,I2C_0x70_5,2,Pin_2*%
%TO.N,/YD-ESP32-S3/I2C_devices/SDA2_5*%
X324600000Y-245950000D03*
D26*
%TO.P,I2C_0x70_5,1,Pin_1*%
%TO.N,/YD-ESP32-S3/I2C_devices/output_pin_7*%
X322600000Y-245950000D03*
%TD*%
D25*
%TO.P,I2C_0x70_2,4,Pin_4*%
%TO.N,GND*%
X316800000Y-252450000D03*
%TO.P,I2C_0x70_2,3,Pin_3*%
%TO.N,/YD-ESP32-S3/I2C_devices/SCL2_2*%
X314800000Y-252450000D03*
%TO.P,I2C_0x70_2,2,Pin_2*%
%TO.N,/YD-ESP32-S3/I2C_devices/SDA2_2*%
X312800000Y-252450000D03*
D26*
%TO.P,I2C_0x70_2,1,Pin_1*%
%TO.N,/YD-ESP32-S3/I2C_devices/output_pin_5*%
X310800000Y-252450000D03*
%TD*%
D25*
%TO.P,I2C_0x70_4,4,Pin_4*%
%TO.N,GND*%
X316800000Y-265550000D03*
%TO.P,I2C_0x70_4,3,Pin_3*%
%TO.N,/YD-ESP32-S3/I2C_devices/SCL2_4*%
X314800000Y-265550000D03*
%TO.P,I2C_0x70_4,2,Pin_2*%
%TO.N,/YD-ESP32-S3/I2C_devices/SDA2_4*%
X312800000Y-265550000D03*
D26*
%TO.P,I2C_0x70_4,1,Pin_1*%
%TO.N,/YD-ESP32-S3/I2C_devices/output_pin_6*%
X310800000Y-265550000D03*
%TD*%
D25*
%TO.P,I2C_0x71_3,4,Pin_4*%
%TO.N,GND*%
X340400000Y-259150000D03*
%TO.P,I2C_0x71_3,3,Pin_3*%
%TO.N,/YD-ESP32-S3/I2C_devices/SCL3*%
X338400000Y-259150000D03*
%TO.P,I2C_0x71_3,2,Pin_2*%
%TO.N,/YD-ESP32-S3/I2C_devices/SDA3*%
X336400000Y-259150000D03*
D26*
%TO.P,I2C_0x71_3,1,Pin_1*%
%TO.N,/YD-ESP32-S3/I2C_devices/output_pin_2*%
X334400000Y-259150000D03*
%TD*%
D25*
%TO.P,I2C_0x70_7,4,Pin_4*%
%TO.N,GND*%
X328600000Y-259100000D03*
%TO.P,I2C_0x70_7,3,Pin_3*%
%TO.N,/YD-ESP32-S3/I2C_devices/SCL2_7*%
X326600000Y-259100000D03*
%TO.P,I2C_0x70_7,2,Pin_2*%
%TO.N,/YD-ESP32-S3/I2C_devices/SDA2_7*%
X324600000Y-259100000D03*
D26*
%TO.P,I2C_0x70_7,1,Pin_1*%
%TO.N,/YD-ESP32-S3/I2C_devices/output_pin_8*%
X322600000Y-259100000D03*
%TD*%
D25*
%TO.P,I2C_0x71_4,4,Pin_4*%
%TO.N,GND*%
X340400000Y-265700000D03*
%TO.P,I2C_0x71_4,3,Pin_3*%
%TO.N,/YD-ESP32-S3/I2C_devices/SCL4*%
X338400000Y-265700000D03*
%TO.P,I2C_0x71_4,2,Pin_2*%
%TO.N,/YD-ESP32-S3/I2C_devices/SDA4*%
X336400000Y-265700000D03*
D26*
%TO.P,I2C_0x71_4,1,Pin_1*%
%TO.N,/YD-ESP32-S3/I2C_devices/output_pin_2*%
X334400000Y-265700000D03*
%TD*%
D25*
%TO.P,I2C_0x70_8,4,Pin_4*%
%TO.N,GND*%
X328600000Y-265650000D03*
%TO.P,I2C_0x70_8,3,Pin_3*%
%TO.N,/YD-ESP32-S3/I2C_devices/SCL2_8*%
X326600000Y-265650000D03*
%TO.P,I2C_0x70_8,2,Pin_2*%
%TO.N,/YD-ESP32-S3/I2C_devices/SDA2_8*%
X324600000Y-265650000D03*
D26*
%TO.P,I2C_0x70_8,1,Pin_1*%
%TO.N,/YD-ESP32-S3/I2C_devices/output_pin_8*%
X322600000Y-265650000D03*
%TD*%
D25*
%TO.P,I2C_0x71_2,4,Pin_4*%
%TO.N,GND*%
X340400000Y-252600000D03*
%TO.P,I2C_0x71_2,3,Pin_3*%
%TO.N,/YD-ESP32-S3/I2C_devices/SCL2*%
X338400000Y-252600000D03*
%TO.P,I2C_0x71_2,2,Pin_2*%
%TO.N,/YD-ESP32-S3/I2C_devices/SDA2*%
X336400000Y-252600000D03*
D26*
%TO.P,I2C_0x71_2,1,Pin_1*%
%TO.N,/YD-ESP32-S3/I2C_devices/output_pin_1*%
X334400000Y-252600000D03*
%TD*%
D25*
%TO.P,I2C_0x71_5,4,Pin_4*%
%TO.N,GND*%
X351800000Y-246100000D03*
%TO.P,I2C_0x71_5,3,Pin_3*%
%TO.N,/YD-ESP32-S3/I2C_devices/SCL5*%
X349800000Y-246100000D03*
%TO.P,I2C_0x71_5,2,Pin_2*%
%TO.N,/YD-ESP32-S3/I2C_devices/SDA5*%
X347800000Y-246100000D03*
D26*
%TO.P,I2C_0x71_5,1,Pin_1*%
%TO.N,/YD-ESP32-S3/I2C_devices/output_pin_3*%
X345800000Y-246100000D03*
%TD*%
D25*
%TO.P,I2C_0x71_1,4,Pin_4*%
%TO.N,GND*%
X340400000Y-246050000D03*
%TO.P,I2C_0x71_1,3,Pin_3*%
%TO.N,/YD-ESP32-S3/I2C_devices/SCL1*%
X338400000Y-246050000D03*
%TO.P,I2C_0x71_1,2,Pin_2*%
%TO.N,/YD-ESP32-S3/I2C_devices/SDA1*%
X336400000Y-246050000D03*
D26*
%TO.P,I2C_0x71_1,1,Pin_1*%
%TO.N,/YD-ESP32-S3/I2C_devices/output_pin_1*%
X334400000Y-246050000D03*
%TD*%
D25*
%TO.P,I2C_0x71_7,4,Pin_4*%
%TO.N,GND*%
X351800000Y-252650000D03*
%TO.P,I2C_0x71_7,3,Pin_3*%
%TO.N,/YD-ESP32-S3/I2C_devices/SCL7*%
X349800000Y-252650000D03*
%TO.P,I2C_0x71_7,2,Pin_2*%
%TO.N,/YD-ESP32-S3/I2C_devices/SDA7*%
X347800000Y-252650000D03*
D26*
%TO.P,I2C_0x71_7,1,Pin_1*%
%TO.N,/YD-ESP32-S3/I2C_devices/output_pin_4*%
X345800000Y-252650000D03*
%TD*%
D25*
%TO.P,I2C_0x71_8,4,Pin_4*%
%TO.N,GND*%
X351800000Y-259200000D03*
%TO.P,I2C_0x71_8,3,Pin_3*%
%TO.N,/YD-ESP32-S3/I2C_devices/SCL8*%
X349800000Y-259200000D03*
%TO.P,I2C_0x71_8,2,Pin_2*%
%TO.N,/YD-ESP32-S3/I2C_devices/SDA8*%
X347800000Y-259200000D03*
D26*
%TO.P,I2C_0x71_8,1,Pin_1*%
%TO.N,/YD-ESP32-S3/I2C_devices/output_pin_4*%
X345800000Y-259200000D03*
%TD*%
D25*
%TO.P,I2C_0x70_6,4,Pin_4*%
%TO.N,GND*%
X328600000Y-252550000D03*
%TO.P,I2C_0x70_6,3,Pin_3*%
%TO.N,/YD-ESP32-S3/I2C_devices/SCL2_6*%
X326600000Y-252550000D03*
%TO.P,I2C_0x70_6,2,Pin_2*%
%TO.N,/YD-ESP32-S3/I2C_devices/SDA2_6*%
X324600000Y-252550000D03*
D26*
%TO.P,I2C_0x70_6,1,Pin_1*%
%TO.N,/YD-ESP32-S3/I2C_devices/output_pin_7*%
X322600000Y-252550000D03*
%TD*%
D25*
%TO.P,JI2C_0x71_6,4,Pin_4*%
%TO.N,GND*%
X351800000Y-265750000D03*
%TO.P,JI2C_0x71_6,3,Pin_3*%
%TO.N,/YD-ESP32-S3/I2C_devices/SCL6*%
X349800000Y-265750000D03*
%TO.P,JI2C_0x71_6,2,Pin_2*%
%TO.N,/YD-ESP32-S3/I2C_devices/SDA6*%
X347800000Y-265750000D03*
D26*
%TO.P,JI2C_0x71_6,1,Pin_1*%
%TO.N,/YD-ESP32-S3/I2C_devices/output_pin_3*%
X345800000Y-265750000D03*
%TD*%
D27*
%TO.P,C96,2*%
%TO.N,/YD-ESP32-S3/4x tmc5161/TMC_GND*%
X318597500Y-206492500D03*
%TO.P,C96,1*%
%TO.N,Motor 1 power*%
X318597500Y-208392500D03*
%TD*%
%TO.P,C98,2*%
%TO.N,/YD-ESP32-S3/4x tmc5161/TMC_GND*%
X318842500Y-229592500D03*
%TO.P,C98,1*%
%TO.N,Motor 2 power*%
X318842500Y-231492500D03*
%TD*%
%TO.P,C99,2*%
%TO.N,/YD-ESP32-S3/4x tmc5161/TMC_GND*%
X337100000Y-229600000D03*
%TO.P,C99,1*%
%TO.N,Motor 4 power*%
X337100000Y-231500000D03*
%TD*%
D66*
%TO.P,U65,9,GND*%
%TO.N,GND*%
X286450000Y-259650000D03*
X286450000Y-258350000D03*
D67*
X287000000Y-259000000D03*
D66*
X287550000Y-259650000D03*
X287550000Y-258350000D03*
%TD*%
D68*
%TO.P,U37,1,VIO*%
%TO.N,ESP_3v3*%
X261037500Y-226050000D03*
%TO.P,U37,2,GND*%
%TO.N,GND*%
X261037500Y-226550000D03*
%TO.P,U37,3,VDD5*%
%TO.N,ESP_5v*%
X261037500Y-227050000D03*
%TO.P,U37,4,TXD*%
%TO.N,/YD-ESP32-S3/esp_txd0*%
X261037500Y-227550000D03*
D69*
%TO.P,U37,5,RXD*%
X261750000Y-228262500D03*
%TO.P,U37,6,V3*%
%TO.N,Net-(U37-V3)*%
X262250000Y-228262500D03*
%TO.P,U37,7,UD+*%
%TO.N,/USB2-HUB/CH343P_usbD+*%
X262750000Y-228262500D03*
%TO.P,U37,8,UD-*%
%TO.N,/USB2-HUB/CH343P_usbD-*%
X263250000Y-228262500D03*
D68*
%TO.P,U37,9,VBUS*%
%TO.N,ESP_5v*%
X263962500Y-227550000D03*
%TO.P,U37,10,ACT#*%
%TO.N,unconnected-(U37-ACT#-Pad10)*%
X263962500Y-227050000D03*
%TO.P,U37,11,DCD*%
%TO.N,unconnected-(U37-DCD-Pad11)*%
X263962500Y-226550000D03*
%TO.P,U37,12,DTR*%
%TO.N,Net-(Q2-E)*%
X263962500Y-226050000D03*
D69*
%TO.P,U37,13,RTS*%
%TO.N,Net-(Q3-E)*%
X263250000Y-225337500D03*
%TO.P,U37,14,DSR*%
%TO.N,unconnected-(U37-DSR-Pad14)*%
X262750000Y-225337500D03*
%TO.P,U37,15,CTS*%
%TO.N,unconnected-(U37-CTS-Pad15)*%
X262250000Y-225337500D03*
%TO.P,U37,16,RI*%
%TO.N,unconnected-(U37-RI-Pad16)*%
X261750000Y-225337500D03*
D66*
%TO.P,U37,17,GND*%
%TO.N,GND*%
X261900000Y-226200000D03*
X261900000Y-227400000D03*
D70*
X262500000Y-226800000D03*
D66*
X263100000Y-226200000D03*
X263100000Y-227400000D03*
%TD*%
%TO.P,U35,9,EP*%
%TO.N,GND*%
X231950000Y-247350000D03*
X230650000Y-247350000D03*
X229350000Y-247350000D03*
X228050000Y-247350000D03*
D71*
X230000000Y-246700000D03*
D66*
X231950000Y-246050000D03*
X230650000Y-246050000D03*
X229350000Y-246050000D03*
X228050000Y-246050000D03*
%TD*%
%TO.P,U34,9,EP*%
%TO.N,GND*%
X231950000Y-236350000D03*
X230650000Y-236350000D03*
X229350000Y-236350000D03*
X228050000Y-236350000D03*
D71*
X230000000Y-235700000D03*
D66*
X231950000Y-235050000D03*
X230650000Y-235050000D03*
X229350000Y-235050000D03*
X228050000Y-235050000D03*
%TD*%
%TO.P,U33,9,EP*%
%TO.N,GND*%
X224550000Y-236650000D03*
X223250000Y-236650000D03*
X221950000Y-236650000D03*
X220650000Y-236650000D03*
D71*
X222600000Y-236000000D03*
D66*
X224550000Y-235350000D03*
X223250000Y-235350000D03*
X221950000Y-235350000D03*
X220650000Y-235350000D03*
%TD*%
%TO.P,U32,9,EP*%
%TO.N,GND*%
X308950000Y-274650000D03*
X307650000Y-274650000D03*
X306350000Y-274650000D03*
X305050000Y-274650000D03*
D71*
X307000000Y-274000000D03*
D66*
X308950000Y-273350000D03*
X307650000Y-273350000D03*
X306350000Y-273350000D03*
X305050000Y-273350000D03*
%TD*%
%TO.P,U31,9,EP*%
%TO.N,GND*%
X224550000Y-247450000D03*
X223250000Y-247450000D03*
X221950000Y-247450000D03*
X220650000Y-247450000D03*
D71*
X222600000Y-246800000D03*
D66*
X224550000Y-246150000D03*
X223250000Y-246150000D03*
X221950000Y-246150000D03*
X220650000Y-246150000D03*
%TD*%
D72*
%TO.P,SW1,*%
%TO.N,*%
X205900000Y-209216750D03*
X205900000Y-216226750D03*
D73*
%TO.P,SW1,1,1*%
%TO.N,/CM5_GPIO ( Ethernet\u002C GPIO\u002C SDCARD)/PWR_BUT*%
X203410000Y-210466750D03*
%TO.P,SW1,2,2*%
%TO.N,GND*%
X203410000Y-214966750D03*
%TD*%
D74*
%TO.P,Q26,3,D*%
%TO.N,/SW_P*%
X331185000Y-274800000D03*
D75*
%TO.P,Q26,2,S*%
%TO.N,/Battery-circuit/BAT_OUT*%
X326790000Y-275800000D03*
D76*
%TO.P,Q26,1,G*%
%TO.N,/SW_N*%
X326465000Y-271800000D03*
%TD*%
%TO.P,Q1,1,G*%
%TO.N,/CM5_HighSpeed/PCIE_PWR_EN*%
X262265000Y-193700000D03*
D75*
%TO.P,Q1,2,S*%
%TO.N,/PCIe-M2/M2_3v3*%
X262590000Y-197700000D03*
D74*
%TO.P,Q1,3,D*%
%TO.N,3V3_M.2*%
X266985000Y-196700000D03*
%TD*%
D77*
%TO.P,Module1,200,HDMI0_SCL*%
%TO.N,/CM5_HighSpeed/HDMI0_SCL*%
X211460000Y-234400000D03*
%TO.P,Module1,199,HDMI0_SDA*%
%TO.N,/CM5_HighSpeed/HDMI0_SDA*%
X214540000Y-234400000D03*
%TO.P,Module1,198,GND*%
%TO.N,GND*%
X211460000Y-234800000D03*
%TO.P,Module1,197,GND*%
X214540000Y-234800000D03*
%TO.P,Module1,196,MIPI1_D3_P*%
%TO.N,/CM5_HighSpeed/DPHY1_D3_P*%
X211460000Y-235200000D03*
%TO.P,Module1,195,MIPI1_D2_P*%
%TO.N,/CM5_HighSpeed/DPHY1_D2_P*%
X214540000Y-235200000D03*
%TO.P,Module1,194,MIPI1_D3_N*%
%TO.N,/CM5_HighSpeed/DPHY1_D3_N*%
X211460000Y-235600000D03*
%TO.P,Module1,193,MIPI1_D2_N*%
%TO.N,/CM5_HighSpeed/DPHY1_D2_N*%
X214540000Y-235600000D03*
%TO.P,Module1,192,GND*%
%TO.N,GND*%
X211460000Y-236000000D03*
%TO.P,Module1,191,GND*%
X214540000Y-236000000D03*
%TO.P,Module1,190,HDMI0_CLK_N*%
%TO.N,/CM5_HighSpeed/HDMI0_CK_N*%
X211460000Y-236400000D03*
%TO.P,Module1,189,MIPI1_C_P*%
%TO.N,/CM5_HighSpeed/DPHY1_C_P*%
X214540000Y-236400000D03*
%TO.P,Module1,188,HDMI0_CLK_P*%
%TO.N,/CM5_HighSpeed/HDMI0_CK_P*%
X211460000Y-236800000D03*
%TO.P,Module1,187,MIPI1_C_N*%
%TO.N,/CM5_HighSpeed/DPHY1_C_N*%
X214540000Y-236800000D03*
%TO.P,Module1,186,GND*%
%TO.N,GND*%
X211460000Y-237200000D03*
%TO.P,Module1,185,GND*%
X214540000Y-237200000D03*
%TO.P,Module1,184,HDMI0_TX0_N*%
%TO.N,/CM5_HighSpeed/HDMI0_D0_N*%
X211460000Y-237600000D03*
%TO.P,Module1,183,MIPI1_D1_P*%
%TO.N,/CM5_HighSpeed/DPHY1_D1_P*%
X214540000Y-237600000D03*
%TO.P,Module1,182,HDMI0_TX0_P*%
%TO.N,/CM5_HighSpeed/HDMI0_D0_P*%
X211460000Y-238000000D03*
%TO.P,Module1,181,MIPI1_D1_N*%
%TO.N,/CM5_HighSpeed/DPHY1_D1_N*%
X214540000Y-238000000D03*
%TO.P,Module1,180,GND*%
%TO.N,GND*%
X211460000Y-238400000D03*
%TO.P,Module1,179,GND*%
X214540000Y-238400000D03*
%TO.P,Module1,178,HDMI0_TX1_N*%
%TO.N,/CM5_HighSpeed/HDMI0_D1_N*%
X211460000Y-238800000D03*
%TO.P,Module1,177,MIPI1_D0_P*%
%TO.N,/CM5_HighSpeed/DPHY1_D0_P*%
X214540000Y-238800000D03*
%TO.P,Module1,176,HDMI0_TX1_P*%
%TO.N,/CM5_HighSpeed/HDMI0_D1_P*%
X211460000Y-239200000D03*
%TO.P,Module1,175,MIPI1_D0_N*%
%TO.N,/CM5_HighSpeed/DPHY1_D0_N*%
X214540000Y-239200000D03*
%TO.P,Module1,174,GND*%
%TO.N,GND*%
X211460000Y-239600000D03*
%TO.P,Module1,173,GND*%
X214540000Y-239600000D03*
%TO.P,Module1,172,HDMI0_TX2_N*%
%TO.N,/CM5_HighSpeed/HDMI0_D2_N*%
X211460000Y-240000000D03*
%TO.P,Module1,171,USB3-1-TX_P*%
%TO.N,/CM5_HighSpeed/USB3-1-TX_P*%
X214540000Y-240000000D03*
%TO.P,Module1,170,HDMI0_TX2_P*%
%TO.N,/CM5_HighSpeed/HDMI0_D2_P*%
X211460000Y-240400000D03*
%TO.P,Module1,169,USB3-1-TX_N*%
%TO.N,/CM5_HighSpeed/USB3-1-TX_N*%
X214540000Y-240400000D03*
%TO.P,Module1,168,GND*%
%TO.N,GND*%
X211460000Y-240800000D03*
%TO.P,Module1,167,GND*%
X214540000Y-240800000D03*
%TO.P,Module1,166,HDMI1_CLK_N*%
%TO.N,/CM5_HighSpeed/HDMI1_CK_N*%
X211460000Y-241200000D03*
%TO.P,Module1,165,USB3-1-D_N*%
%TO.N,/CM5_HighSpeed/USB3-1-D_N*%
X214540000Y-241200000D03*
%TO.P,Module1,164,HDMI1_CLK_P*%
%TO.N,/CM5_HighSpeed/HDMI1_CK_P*%
X211460000Y-241600000D03*
%TO.P,Module1,163,USB3-1-D_P*%
%TO.N,/CM5_HighSpeed/USB3-1-D_P*%
X214540000Y-241600000D03*
%TO.P,Module1,162,GND*%
%TO.N,GND*%
X211460000Y-242000000D03*
%TO.P,Module1,161,GND*%
X214540000Y-242000000D03*
%TO.P,Module1,160,HDMI1_TX0_N*%
%TO.N,/CM5_HighSpeed/HDMI1_D0_N*%
X211460000Y-242400000D03*
%TO.P,Module1,159,USB3-1-RX_P*%
%TO.N,/CM5_HighSpeed/USB3-1-RX_P*%
X214540000Y-242400000D03*
%TO.P,Module1,158,HDMI1_TX0_P*%
%TO.N,/CM5_HighSpeed/HDMI1_D0_P*%
X211460000Y-242800000D03*
%TO.P,Module1,157,USB3-1-RX_N*%
%TO.N,/CM5_HighSpeed/USB3-1-RX_N*%
X214540000Y-242800000D03*
%TO.P,Module1,156,GND*%
%TO.N,GND*%
X211460000Y-243200000D03*
%TO.P,Module1,155,GND*%
X214540000Y-243200000D03*
%TO.P,Module1,154,HDMI1_TX1_N*%
%TO.N,/CM5_HighSpeed/HDMI1_D1_N*%
X211460000Y-243600000D03*
%TO.P,Module1,153,HDMI0_HOTPLUG*%
%TO.N,/CM5_HighSpeed/HDMI0_HOTPLUG*%
X214540000Y-243600000D03*
%TO.P,Module1,152,HDMI1_TX1_P*%
%TO.N,/CM5_HighSpeed/HDMI1_D1_P*%
X211460000Y-244000000D03*
%TO.P,Module1,151,HDMI0_CEC*%
%TO.N,/CM5_HighSpeed/HDMI0_CEC*%
X214540000Y-244000000D03*
%TO.P,Module1,150,GND*%
%TO.N,GND*%
X211460000Y-244400000D03*
%TO.P,Module1,149,HDMI1_CEC*%
%TO.N,/CM5_HighSpeed/HDMI1_CEC*%
X214540000Y-244400000D03*
%TO.P,Module1,148,HDMI1_TX2_N*%
%TO.N,/CM5_HighSpeed/HDMI1_D2_N*%
X211460000Y-244800000D03*
%TO.P,Module1,147,HDMI1_SCL*%
%TO.N,/CM5_HighSpeed/HDMI1_SCL*%
X214540000Y-244800000D03*
%TO.P,Module1,146,HDMI1_TX2_P*%
%TO.N,/CM5_HighSpeed/HDMI1_D2_P*%
X211460000Y-245200000D03*
%TO.P,Module1,145,HDMI1_SDA*%
%TO.N,/CM5_HighSpeed/HDMI1_SDA*%
X214540000Y-245200000D03*
%TO.P,Module1,144,GND*%
%TO.N,GND*%
X211460000Y-245600000D03*
%TO.P,Module1,143,HDMI1_HOTPLUG*%
%TO.N,/CM5_HighSpeed/HDMI1_HOTPLUG*%
X214540000Y-245600000D03*
%TO.P,Module1,142,USB3-0-TX_P*%
%TO.N,/CM5_HighSpeed/USB3-0-TX_P*%
X211460000Y-246000000D03*
%TO.P,Module1,141,MIPI0_D3_P*%
%TO.N,/CM5_HighSpeed/DPHY0_D3_P*%
X214540000Y-246000000D03*
%TO.P,Module1,140,USB3-0-TX_N*%
%TO.N,/CM5_HighSpeed/USB3-0-TX_N*%
X211460000Y-246400000D03*
%TO.P,Module1,139,MIPI0_D3_N*%
%TO.N,/CM5_HighSpeed/DPHY0_D3_N*%
X214540000Y-246400000D03*
%TO.P,Module1,138,GND*%
%TO.N,GND*%
X211460000Y-246800000D03*
%TO.P,Module1,137,GND*%
X214540000Y-246800000D03*
%TO.P,Module1,136,USB3-0-D_N*%
%TO.N,/CM5_HighSpeed/USB3-0-D_N*%
X211460000Y-247200000D03*
%TO.P,Module1,135,MIPI0_D2_P*%
%TO.N,/CM5_HighSpeed/DPHY0_D2_P*%
X214540000Y-247200000D03*
%TO.P,Module1,134,USB3-0-D_P*%
%TO.N,/CM5_HighSpeed/USB3-0-D_P*%
X211460000Y-247600000D03*
%TO.P,Module1,133,MIPI0_D2_N*%
%TO.N,/CM5_HighSpeed/DPHY0_D2_N*%
X214540000Y-247600000D03*
%TO.P,Module1,132,GND*%
%TO.N,GND*%
X211460000Y-248000000D03*
%TO.P,Module1,131,GND*%
X214540000Y-248000000D03*
%TO.P,Module1,130,USB3-0-RX_P*%
%TO.N,/CM5_HighSpeed/USB3-0-RX_P*%
X211460000Y-248400000D03*
%TO.P,Module1,129,MIPI0_C_P*%
%TO.N,/CM5_HighSpeed/DPHY0_C_P*%
X214540000Y-248400000D03*
%TO.P,Module1,128,USB3-0-RX_N*%
%TO.N,/CM5_HighSpeed/USB3-0-RX_N*%
X211460000Y-248800000D03*
%TO.P,Module1,127,MIPI0_C_N*%
%TO.N,/CM5_HighSpeed/DPHY0_C_N*%
X214540000Y-248800000D03*
%TO.P,Module1,126,GND*%
%TO.N,GND*%
X211460000Y-249200000D03*
%TO.P,Module1,125,GND*%
X214540000Y-249200000D03*
%TO.P,Module1,124,PCIe_TX_N*%
%TO.N,/CM5_HighSpeed/PCIE_TX_N*%
X211460000Y-249600000D03*
%TO.P,Module1,123,MIPI0_D1_P*%
%TO.N,/CM5_HighSpeed/DPHY0_D1_P*%
X214540000Y-249600000D03*
%TO.P,Module1,122,PCIe_TX_P*%
%TO.N,/CM5_HighSpeed/PCIE_TX_P*%
X211460000Y-250000000D03*
%TO.P,Module1,121,MIPI0_D1_N*%
%TO.N,/CM5_HighSpeed/DPHY0_D1_N*%
X214540000Y-250000000D03*
%TO.P,Module1,120,GND*%
%TO.N,GND*%
X211460000Y-250400000D03*
%TO.P,Module1,119,GND*%
X214540000Y-250400000D03*
%TO.P,Module1,118,PCIe_RX_N*%
%TO.N,/CM5_HighSpeed/PCIE_RX_N*%
X211460000Y-250800000D03*
%TO.P,Module1,117,MIPI0_D0_P*%
%TO.N,/CM5_HighSpeed/DPHY0_D0_P*%
X214540000Y-250800000D03*
%TO.P,Module1,116,PCIe_RX_P*%
%TO.N,/CM5_HighSpeed/PCIE_RX_P*%
X211460000Y-251200000D03*
%TO.P,Module1,115,MIPI0_D0_N*%
%TO.N,/CM5_HighSpeed/DPHY0_D0_N*%
X214540000Y-251200000D03*
%TO.P,Module1,114,GND*%
%TO.N,GND*%
X211460000Y-251600000D03*
%TO.P,Module1,113,GND*%
X214540000Y-251600000D03*
%TO.P,Module1,112,PCIe_CLK_N*%
%TO.N,/CM5_HighSpeed/PCIE_CLK_N*%
X211460000Y-252000000D03*
%TO.P,Module1,111,VBUS_EN*%
%TO.N,/CM5_HighSpeed/VBUS_EN*%
X214540000Y-252000000D03*
%TO.P,Module1,110,PCIe_CLK_P*%
%TO.N,/CM5_HighSpeed/PCIE_CLK_P*%
X211460000Y-252400000D03*
%TO.P,Module1,109,PCIe_nRST*%
%TO.N,/CM5_HighSpeed/PCIE_nRST*%
X214540000Y-252400000D03*
%TO.P,Module1,108,GND*%
%TO.N,GND*%
X211460000Y-252800000D03*
%TO.P,Module1,107,GND*%
X214540000Y-252800000D03*
%TO.P,Module1,106,PCIE_PWR_EN*%
%TO.N,/CM5_HighSpeed/PCIE_PWR_EN*%
X211460000Y-253200000D03*
%TO.P,Module1,105,USB2_P*%
%TO.N,/CM5_HighSpeed/USB2_P*%
X214540000Y-253200000D03*
%TO.P,Module1,104,PCIE_nWAKE*%
%TO.N,/CM5_HighSpeed/PCIE_nWAKE*%
X211460000Y-253600000D03*
%TO.P,Module1,103,USB2_N*%
%TO.N,/CM5_HighSpeed/USB2_N*%
X214540000Y-253600000D03*
%TO.P,Module1,102,PCIe_nCLKREQ*%
%TO.N,/CM5_HighSpeed/PCIE_nCLKREQ*%
X211460000Y-254000000D03*
%TO.P,Module1,101,USB_OTG_ID*%
%TO.N,/CM5_HighSpeed/USBOTG_ID*%
X214540000Y-254000000D03*
%TO.P,Module1,100,CAM_GPIO1*%
%TO.N,/CM5_GPIO ( Ethernet\u002C GPIO\u002C SDCARD)/CAM_GPIO1*%
X245460000Y-234400000D03*
%TO.P,Module1,99,PMIC_ENABLE*%
%TO.N,PMIC_ENABLE*%
X248540000Y-234400000D03*
%TO.P,Module1,98,GND*%
%TO.N,GND*%
X245460000Y-234800000D03*
%TO.P,Module1,97,CAM_GPIO0*%
%TO.N,/CM5_GPIO ( Ethernet\u002C GPIO\u002C SDCARD)/CAM_GPIO0*%
X248540000Y-234800000D03*
%TO.P,Module1,96,CC2*%
%TO.N,/CM5_GPIO ( Ethernet\u002C GPIO\u002C SDCARD)/CC2*%
X245460000Y-235200000D03*
%TO.P,Module1,95,LED_nPWR*%
%TO.N,/CM5_GPIO ( Ethernet\u002C GPIO\u002C SDCARD)/nPWR_LED*%
X248540000Y-235200000D03*
%TO.P,Module1,94,CC1*%
%TO.N,/CM5_GPIO ( Ethernet\u002C GPIO\u002C SDCARD)/CC1*%
X245460000Y-235600000D03*
%TO.P,Module1,93,nRPIBOOT*%
%TO.N,nRPIBOOT*%
X248540000Y-235600000D03*
%TO.P,Module1,92,PWR_BUT*%
%TO.N,/CM5_GPIO ( Ethernet\u002C GPIO\u002C SDCARD)/PWR_BUT*%
X245460000Y-236000000D03*
%TO.P,Module1,91,BT_nDisable*%
%TO.N,BT_nDis*%
X248540000Y-236000000D03*
%TO.P,Module1,90,+1.8v_(Output)*%
%TO.N,1.8V*%
X245460000Y-236400000D03*
%TO.P,Module1,89,WiFi_nDisable*%
%TO.N,WL_nDis*%
X248540000Y-236400000D03*
%TO.P,Module1,88,+1.8v_(Output)*%
%TO.N,1.8V*%
X245460000Y-236800000D03*
%TO.P,Module1,87,+5v_(Input)*%
%TO.N,RPI_5V*%
X248540000Y-236800000D03*
%TO.P,Module1,86,+3.3v_(Output)*%
%TO.N,/CM5_GPIO ( Ethernet\u002C GPIO\u002C SDCARD)/+3.3v*%
X245460000Y-237200000D03*
%TO.P,Module1,85,+5v_(Input)*%
%TO.N,RPI_5V*%
X248540000Y-237200000D03*
%TO.P,Module1,84,+3.3v_(Output)*%
%TO.N,/CM5_GPIO ( Ethernet\u002C GPIO\u002C SDCARD)/+3.3v*%
X245460000Y-237600000D03*
%TO.P,Module1,83,+5v_(Input)*%
%TO.N,RPI_5V*%
X248540000Y-237600000D03*
%TO.P,Module1,82,SDA0*%
%TO.N,/CM5_HighSpeed/SDA0*%
X245460000Y-238000000D03*
%TO.P,Module1,81,+5v_(Input)*%
%TO.N,RPI_5V*%
X248540000Y-238000000D03*
%TO.P,Module1,80,SCL0*%
%TO.N,/CM5_HighSpeed/SCL0*%
X245460000Y-238400000D03*
%TO.P,Module1,79,+5v_(Input)*%
%TO.N,RPI_5V*%
X248540000Y-238400000D03*
%TO.P,Module1,78,GPIO_VREF(1.8v/3.3v_Input)*%
%TO.N,/CM5_GPIO ( Ethernet\u002C GPIO\u002C SDCARD)/GPIO_VREF*%
X245460000Y-238800000D03*
%TO.P,Module1,77,+5v_(Input)*%
%TO.N,RPI_5V*%
X248540000Y-238800000D03*
%TO.P,Module1,76,VBAT*%
%TO.N,/CM5_GPIO ( Ethernet\u002C GPIO\u002C SDCARD)/VBAT*%
X245460000Y-239200000D03*
%TO.P,Module1,75,SD_PWR_ON*%
%TO.N,/CM5_GPIO ( Ethernet\u002C GPIO\u002C SDCARD)/SD_PWR_ON*%
X248540000Y-239200000D03*
%TO.P,Module1,74,GND*%
%TO.N,GND*%
X245460000Y-239600000D03*
%TO.P,Module1,73,SD_VDD_Override*%
%TO.N,unconnected-(Module1A-SD_VDD_Override-Pad73)*%
X248540000Y-239600000D03*
%TO.P,Module1,72,SD_DAT6*%
%TO.N,unconnected-(Module1A-SD_DAT6-Pad72)*%
X245460000Y-240000000D03*
%TO.P,Module1,71,GND*%
%TO.N,GND*%
X248540000Y-240000000D03*
%TO.P,Module1,70,SD_DAT7*%
%TO.N,unconnected-(Module1A-SD_DAT7-Pad70)*%
X245460000Y-240400000D03*
%TO.P,Module1,69,SD_DAT2*%
%TO.N,/CM5_GPIO ( Ethernet\u002C GPIO\u002C SDCARD)/SD_DAT2*%
X248540000Y-240400000D03*
%TO.P,Module1,68,SD_DAT4*%
%TO.N,unconnected-(Module1A-SD_DAT4-Pad68)*%
X245460000Y-240800000D03*
%TO.P,Module1,67,SD_DAT1*%
%TO.N,/CM5_GPIO ( Ethernet\u002C GPIO\u002C SDCARD)/SD_DAT1*%
X248540000Y-240800000D03*
%TO.P,Module1,66,GND*%
%TO.N,GND*%
X245460000Y-241200000D03*
%TO.P,Module1,65,GND*%
X248540000Y-241200000D03*
%TO.P,Module1,64,SD_DAT5*%
%TO.N,unconnected-(Module1A-SD_DAT5-Pad64)*%
X245460000Y-241600000D03*
%TO.P,Module1,63,SD_DAT0*%
%TO.N,/CM5_GPIO ( Ethernet\u002C GPIO\u002C SDCARD)/SD_DAT0*%
X248540000Y-241600000D03*
%TO.P,Module1,62,SD_CMD*%
%TO.N,/CM5_GPIO ( Ethernet\u002C GPIO\u002C SDCARD)/SD_CMD*%
X245460000Y-242000000D03*
%TO.P,Module1,61,SD_DAT3*%
%TO.N,/CM5_GPIO ( Ethernet\u002C GPIO\u002C SDCARD)/SD_DAT3*%
X248540000Y-242000000D03*
%TO.P,Module1,60,GND*%
%TO.N,GND*%
X245460000Y-242400000D03*
%TO.P,Module1,59,GND*%
X248540000Y-242400000D03*
%TO.P,Module1,58,GPIO2*%
%TO.N,INA226_SDA*%
X245460000Y-242800000D03*
%TO.P,Module1,57,SD_CLK*%
%TO.N,/CM5_GPIO ( Ethernet\u002C GPIO\u002C SDCARD)/SD_CLK*%
X248540000Y-242800000D03*
%TO.P,Module1,56,GPIO3*%
%TO.N,INA226_SCL*%
X245460000Y-243200000D03*
%TO.P,Module1,55,GPIO14*%
%TO.N,/Uart_tx*%
X248540000Y-243200000D03*
%TO.P,Module1,54,GPIO4*%
%TO.N,/CM5_GPIO ( Ethernet\u002C GPIO\u002C SDCARD)/GPIO4*%
X245460000Y-243600000D03*
%TO.P,Module1,53,GND*%
%TO.N,GND*%
X248540000Y-243600000D03*
%TO.P,Module1,52,GND*%
X245460000Y-244000000D03*
%TO.P,Module1,51,GPIO15*%
%TO.N,/Uart_rx*%
X248540000Y-244000000D03*
%TO.P,Module1,50,GPIO17*%
%TO.N,/CM5_GPIO ( Ethernet\u002C GPIO\u002C SDCARD)/GPIO17*%
X245460000Y-244400000D03*
%TO.P,Module1,49,GPIO18*%
%TO.N,/CM5_GPIO ( Ethernet\u002C GPIO\u002C SDCARD)/GPIO18*%
X248540000Y-244400000D03*
%TO.P,Module1,48,GPIO27*%
%TO.N,/CM5_GPIO ( Ethernet\u002C GPIO\u002C SDCARD)/GPIO27*%
X245460000Y-244800000D03*
%TO.P,Module1,47,GPIO23*%
%TO.N,/CM5_GPIO ( Ethernet\u002C GPIO\u002C SDCARD)/GPIO23*%
X248540000Y-244800000D03*
%TO.P,Module1,46,GPIO22*%
%TO.N,/CM5_GPIO ( Ethernet\u002C GPIO\u002C SDCARD)/GPIO22*%
X245460000Y-245200000D03*
%TO.P,Module1,45,GPIO24*%
%TO.N,/CM5_GPIO ( Ethernet\u002C GPIO\u002C SDCARD)/GPIO24*%
X248540000Y-245200000D03*
%TO.P,Module1,44,GPIO10*%
%TO.N,SPI0_MOSI*%
X245460000Y-245600000D03*
%TO.P,Module1,43,GND*%
%TO.N,GND*%
X248540000Y-245600000D03*
%TO.P,Module1,42,GND*%
X245460000Y-246000000D03*
%TO.P,Module1,41,GPIO25*%
%TO.N,/CM5_GPIO ( Ethernet\u002C GPIO\u002C SDCARD)/GPIO25*%
X248540000Y-246000000D03*
%TO.P,Module1,40,GPIO9*%
%TO.N,SPI0_MISO*%
X245460000Y-246400000D03*
%TO.P,Module1,39,GPIO8*%
%TO.N,SPI0_CE0*%
X248540000Y-246400000D03*
%TO.P,Module1,38,GPIO11*%
%TO.N,SPI0_CLK*%
X245460000Y-246800000D03*
%TO.P,Module1,37,GPIO7*%
%TO.N,/CM5_GPIO ( Ethernet\u002C GPIO\u002C SDCARD)/GPIO7*%
X248540000Y-246800000D03*
%TO.P,Module1,36,ID_SD*%
%TO.N,/CM5_GPIO ( Ethernet\u002C GPIO\u002C SDCARD)/ID_SD*%
X245460000Y-247200000D03*
%TO.P,Module1,35,ID_SC*%
%TO.N,/CM5_GPIO ( Ethernet\u002C GPIO\u002C SDCARD)/ID_SC*%
X248540000Y-247200000D03*
%TO.P,Module1,34,GPIO5*%
%TO.N,/CM5_GPIO ( Ethernet\u002C GPIO\u002C SDCARD)/GPIO5*%
X245460000Y-247600000D03*
%TO.P,Module1,33,GND*%
%TO.N,GND*%
X248540000Y-247600000D03*
%TO.P,Module1,32,GND*%
X245460000Y-248000000D03*
%TO.P,Module1,31,GPIO12*%
%TO.N,/CM5_GPIO ( Ethernet\u002C GPIO\u002C SDCARD)/GPIO12*%
X248540000Y-248000000D03*
%TO.P,Module1,30,GPIO6*%
%TO.N,/CM5_GPIO ( Ethernet\u002C GPIO\u002C SDCARD)/GPIO6*%
X245460000Y-248400000D03*
%TO.P,Module1,29,GPIO16*%
%TO.N,/CM5_GPIO ( Ethernet\u002C GPIO\u002C SDCARD)/GPIO16*%
X248540000Y-248400000D03*
%TO.P,Module1,28,GPIO13*%
%TO.N,/CM5_GPIO ( Ethernet\u002C GPIO\u002C SDCARD)/GPIO13*%
X245460000Y-248800000D03*
%TO.P,Module1,27,GPIO20*%
%TO.N,SPI1_MOSI*%
X248540000Y-248800000D03*
%TO.P,Module1,26,GPIO19*%
%TO.N,SPI1_MISO*%
X245460000Y-249200000D03*
%TO.P,Module1,25,GPIO21*%
%TO.N,SPI1_CLK*%
X248540000Y-249200000D03*
%TO.P,Module1,24,GPIO26*%
%TO.N,/CM5_GPIO ( Ethernet\u002C GPIO\u002C SDCARD)/GPIO26*%
X245460000Y-249600000D03*
%TO.P,Module1,23,GND*%
%TO.N,GND*%
X248540000Y-249600000D03*
%TO.P,Module1,22,GND*%
X245460000Y-250000000D03*
%TO.P,Module1,21,LED_nACT*%
%TO.N,Net-(Module1A-LED_nACT)*%
X248540000Y-250000000D03*
%TO.P,Module1,20,EEPROM_nWP*%
%TO.N,EEPROM_nWP*%
X245460000Y-250400000D03*
%TO.P,Module1,19,FAN_PWM*%
%TO.N,/CM5_GPIO ( Ethernet\u002C GPIO\u002C SDCARD)/PWM*%
X248540000Y-250400000D03*
%TO.P,Module1,18,Ethernet_SYNC_OUT(3.3v)*%
%TO.N,/CM5_GPIO ( Ethernet\u002C GPIO\u002C SDCARD)/SYNC_OUT*%
X245460000Y-250800000D03*
%TO.P,Module1,17,Ethernet_nLED2(3.3v)*%
%TO.N,/CM5_GPIO ( Ethernet\u002C GPIO\u002C SDCARD)/ETH_LEDG*%
X248540000Y-250800000D03*
%TO.P,Module1,16,FAN_TACHO*%
%TO.N,/CM5_GPIO ( Ethernet\u002C GPIO\u002C SDCARD)/TACHO*%
X245460000Y-251200000D03*
%TO.P,Module1,15,Ethernet_nLED3(3.3v)*%
%TO.N,/CM5_GPIO ( Ethernet\u002C GPIO\u002C SDCARD)/ETH_LEDY*%
X248540000Y-251200000D03*
%TO.P,Module1,14,GND*%
%TO.N,GND*%
X245460000Y-251600000D03*
%TO.P,Module1,13,GND*%
X248540000Y-251600000D03*
%TO.P,Module1,12,Ethernet_Pair0_P*%
%TO.N,/CM5_GPIO ( Ethernet\u002C GPIO\u002C SDCARD)/TRD0_P*%
X245460000Y-252000000D03*
%TO.P,Module1,11,Ethernet_Pair2_P*%
%TO.N,/CM5_GPIO ( Ethernet\u002C GPIO\u002C SDCARD)/TRD2_P*%
X248540000Y-252000000D03*
%TO.P,Module1,10,Ethernet_Pair0_N*%
%TO.N,/CM5_GPIO ( Ethernet\u002C GPIO\u002C SDCARD)/TRD0_N*%
X245460000Y-252400000D03*
%TO.P,Module1,9,Ethernet_Pair2_N*%
%TO.N,/CM5_GPIO ( Ethernet\u002C GPIO\u002C SDCARD)/TRD2_N*%
X248540000Y-252400000D03*
%TO.P,Module1,8,GND*%
%TO.N,GND*%
X245460000Y-252800000D03*
%TO.P,Module1,7,GND*%
X248540000Y-252800000D03*
%TO.P,Module1,6,Ethernet_Pair1_N*%
%TO.N,/CM5_GPIO ( Ethernet\u002C GPIO\u002C SDCARD)/TRD1_N*%
X245460000Y-253200000D03*
%TO.P,Module1,5,Ethernet_Pair3_N*%
%TO.N,/CM5_GPIO ( Ethernet\u002C GPIO\u002C SDCARD)/TRD3_N*%
X248540000Y-253200000D03*
%TO.P,Module1,4,Ethernet_Pair1_P*%
%TO.N,/CM5_GPIO ( Ethernet\u002C GPIO\u002C SDCARD)/TRD1_P*%
X245460000Y-253600000D03*
%TO.P,Module1,3,Ethernet_Pair3_P*%
%TO.N,/CM5_GPIO ( Ethernet\u002C GPIO\u002C SDCARD)/TRD3_P*%
X248540000Y-253600000D03*
%TO.P,Module1,2,GND*%
%TO.N,GND*%
X245460000Y-254000000D03*
%TO.P,Module1,1,GND*%
X248540000Y-254000000D03*
%TD*%
D78*
%TO.P,J10,A1,GND*%
%TO.N,GND*%
X333000000Y-283215000D03*
%TO.P,J10,A4,VBUS*%
%TO.N,Net-(J10-VBUS-PadA4)*%
X333800000Y-283215000D03*
D79*
%TO.P,J10,A5,CC1*%
%TO.N,Net-(J10-CC1)*%
X334950000Y-283215000D03*
%TO.P,J10,A6,D+*%
%TO.N,Net-(U13-HSD1_P)*%
X335950000Y-283215000D03*
%TO.P,J10,A7,D-*%
%TO.N,Net-(U13-HSD1_M)*%
X336450000Y-283215000D03*
%TO.P,J10,A8,SBU1*%
%TO.N,unconnected-(J10-SBU1-PadA8)*%
X337450000Y-283215000D03*
D78*
%TO.P,J10,A9,VBUS*%
%TO.N,Net-(J10-VBUS-PadA4)*%
X338600000Y-283215000D03*
%TO.P,J10,A12,GND*%
%TO.N,GND*%
X339400000Y-283215000D03*
%TO.P,J10,B1,GND*%
X339400000Y-283215000D03*
%TO.P,J10,B4,VBUS*%
%TO.N,Net-(J10-VBUS-PadA4)*%
X338600000Y-283215000D03*
D79*
%TO.P,J10,B5,CC2*%
%TO.N,Net-(J10-CC2)*%
X337950000Y-283215000D03*
%TO.P,J10,B6,D+*%
%TO.N,Net-(U13-HSD1_P)*%
X336950000Y-283215000D03*
%TO.P,J10,B7,D-*%
%TO.N,Net-(U13-HSD1_M)*%
X335450000Y-283215000D03*
%TO.P,J10,B8,SBU2*%
%TO.N,unconnected-(J10-SBU2-PadB8)*%
X334450000Y-283215000D03*
D78*
%TO.P,J10,B9,VBUS*%
%TO.N,Net-(J10-VBUS-PadA4)*%
X333800000Y-283215000D03*
%TO.P,J10,B12,GND*%
%TO.N,GND*%
X333000000Y-283215000D03*
D80*
%TO.P,J10,S1,SHIELD*%
X331880000Y-283795000D03*
D81*
X331880000Y-287965000D03*
D80*
X340520000Y-283795000D03*
D81*
X340520000Y-287965000D03*
%TD*%
D78*
%TO.P,J9,A1,GND*%
%TO.N,GND*%
X320880000Y-283150000D03*
%TO.P,J9,A4,VBUS*%
%TO.N,unconnected-(J9-VBUS-PadA4)_1*%
X321680000Y-283150000D03*
D79*
%TO.P,J9,A5,CC1*%
%TO.N,Net-(J9-CC1)*%
X322830000Y-283150000D03*
%TO.P,J9,A6,D+*%
%TO.N,/USB2-HUB/ESP_usbD+*%
X323830000Y-283150000D03*
%TO.P,J9,A7,D-*%
%TO.N,/USB2-HUB/ESP_usbD-*%
X324330000Y-283150000D03*
%TO.P,J9,A8,SBU1*%
%TO.N,unconnected-(J9-SBU1-PadA8)*%
X325330000Y-283150000D03*
D78*
%TO.P,J9,A9,VBUS*%
%TO.N,unconnected-(J9-VBUS-PadA4)*%
X326480000Y-283150000D03*
%TO.P,J9,A12,GND*%
%TO.N,GND*%
X327280000Y-283150000D03*
%TO.P,J9,B1,GND*%
X327280000Y-283150000D03*
%TO.P,J9,B4,VBUS*%
%TO.N,unconnected-(J9-VBUS-PadA4)_3*%
X326480000Y-283150000D03*
D79*
%TO.P,J9,B5,CC2*%
%TO.N,Net-(J9-CC2)*%
X325830000Y-283150000D03*
%TO.P,J9,B6,D+*%
%TO.N,/USB2-HUB/ESP_usbD+*%
X324830000Y-283150000D03*
%TO.P,J9,B7,D-*%
%TO.N,/USB2-HUB/ESP_usbD-*%
X323330000Y-283150000D03*
%TO.P,J9,B8,SBU2*%
%TO.N,unconnected-(J9-SBU2-PadB8)*%
X322330000Y-283150000D03*
D78*
%TO.P,J9,B9,VBUS*%
%TO.N,unconnected-(J9-VBUS-PadA4)_2*%
X321680000Y-283150000D03*
%TO.P,J9,B12,GND*%
%TO.N,GND*%
X320880000Y-283150000D03*
D80*
%TO.P,J9,S1,SHIELD*%
X319760000Y-283730000D03*
D81*
X319760000Y-287900000D03*
D80*
X328400000Y-283730000D03*
D81*
X328400000Y-287900000D03*
%TD*%
D78*
%TO.P,J8,A1,GND*%
%TO.N,GND*%
X308680000Y-283150000D03*
%TO.P,J8,A4,VBUS*%
%TO.N,/USB2-HUB/nEXTRST*%
X309480000Y-283150000D03*
D79*
%TO.P,J8,A5,CC1*%
%TO.N,Net-(J8-CC1)*%
X310630000Y-283150000D03*
%TO.P,J8,A6,D+*%
%TO.N,/USB2-HUB/USBD_N*%
X311630000Y-283150000D03*
%TO.P,J8,A7,D-*%
%TO.N,/USB2-HUB/USBD_P*%
X312130000Y-283150000D03*
%TO.P,J8,A8,SBU1*%
%TO.N,unconnected-(J8-SBU1-PadA8)*%
X313130000Y-283150000D03*
D78*
%TO.P,J8,A9,VBUS*%
%TO.N,/USB2-HUB/nEXTRST*%
X314280000Y-283150000D03*
%TO.P,J8,A12,GND*%
%TO.N,GND*%
X315080000Y-283150000D03*
%TO.P,J8,B1,GND*%
X315080000Y-283150000D03*
%TO.P,J8,B4,VBUS*%
%TO.N,/USB2-HUB/nEXTRST*%
X314280000Y-283150000D03*
D79*
%TO.P,J8,B5,CC2*%
%TO.N,Net-(J8-CC2)*%
X313630000Y-283150000D03*
%TO.P,J8,B6,D+*%
%TO.N,/USB2-HUB/USBD_N*%
X312630000Y-283150000D03*
%TO.P,J8,B7,D-*%
%TO.N,/USB2-HUB/USBD_P*%
X311130000Y-283150000D03*
%TO.P,J8,B8,SBU2*%
%TO.N,unconnected-(J8-SBU2-PadB8)*%
X310130000Y-283150000D03*
D78*
%TO.P,J8,B9,VBUS*%
%TO.N,/USB2-HUB/nEXTRST*%
X309480000Y-283150000D03*
%TO.P,J8,B12,GND*%
%TO.N,GND*%
X308680000Y-283150000D03*
D80*
%TO.P,J8,S1,SHIELD*%
X307560000Y-283730000D03*
D81*
X307560000Y-287900000D03*
D80*
X316200000Y-283730000D03*
D81*
X316200000Y-287900000D03*
%TD*%
D82*
%TO.P,J6,S2,S2*%
%TO.N,GND*%
X213523000Y-195050000D03*
%TO.P,J6,S1,S1*%
X213523000Y-215750000D03*
D83*
%TO.P,J6,M2,GND2242*%
X258273000Y-205400000D03*
%TO.P,J6,M1,GND2230*%
X246273000Y-205400000D03*
D84*
%TO.P,J6,75,GND*%
X212748000Y-196150000D03*
%TO.P,J6,74,3.3V*%
%TO.N,/PCIe-M2/M2_3v3*%
X220298000Y-196400000D03*
%TO.P,J6,73,GND*%
%TO.N,GND*%
X212748000Y-196650000D03*
%TO.P,J6,72,3.3V*%
%TO.N,/PCIe-M2/M2_3v3*%
X220298000Y-196900000D03*
%TO.P,J6,71,GND*%
%TO.N,GND*%
X212748000Y-197150000D03*
%TO.P,J6,70,3.3V*%
%TO.N,/PCIe-M2/M2_3v3*%
X220298000Y-197400000D03*
%TO.P,J6,69,PEDET*%
%TO.N,unconnected-(J6-PEDET-Pad69)*%
X212748000Y-197650000D03*
%TO.P,J6,68,SUSCLK*%
%TO.N,Net-(J6-SUSCLK)*%
X220298000Y-197900000D03*
%TO.P,J6,67,NC*%
%TO.N,unconnected-(J6-NC-Pad67)*%
X212748000Y-198150000D03*
%TO.P,J6,58,NC*%
%TO.N,unconnected-(J6-NC-Pad58)*%
X220298000Y-200400000D03*
%TO.P,J6,57,GND*%
%TO.N,GND*%
X212748000Y-200650000D03*
%TO.P,J6,56,NC*%
%TO.N,unconnected-(J6-NC-Pad56)*%
X220298000Y-200900000D03*
%TO.P,J6,55,REFCLKp*%
%TO.N,/CM5_HighSpeed/PCIE_CLK_P*%
X212748000Y-201150000D03*
%TO.P,J6,54,~{PEWAKE}*%
%TO.N,/CM5_HighSpeed/PCIE_nWAKE*%
X220298000Y-201400000D03*
%TO.P,J6,53,REFCLKn*%
%TO.N,/CM5_HighSpeed/PCIE_CLK_N*%
X212748000Y-201650000D03*
%TO.P,J6,52,~{CLKREQ}*%
%TO.N,/CM5_HighSpeed/PCIE_nCLKREQ*%
X220298000Y-201900000D03*
%TO.P,J6,51,GND*%
%TO.N,GND*%
X212748000Y-202150000D03*
%TO.P,J6,50,~{PERST}*%
%TO.N,/CM5_HighSpeed/PCIE_nRST*%
X220298000Y-202400000D03*
%TO.P,J6,49,PERp0*%
%TO.N,/CM5_HighSpeed/PCIE_TX_N*%
X212748000Y-202650000D03*
%TO.P,J6,48,NC*%
%TO.N,unconnected-(J6-NC-Pad48)*%
X220298000Y-202900000D03*
%TO.P,J6,47,PERn0*%
%TO.N,/CM5_HighSpeed/PCIE_TX_P*%
X212748000Y-203150000D03*
%TO.P,J6,46,NC*%
%TO.N,unconnected-(J6-NC-Pad46)*%
X220298000Y-203400000D03*
%TO.P,J6,45,GND*%
%TO.N,GND*%
X212748000Y-203650000D03*
%TO.P,J6,44,NC*%
%TO.N,unconnected-(J6-NC-Pad44)*%
X220298000Y-203900000D03*
%TO.P,J6,43,PETp0*%
%TO.N,/CM5_HighSpeed/PCIE_RX_N*%
X212748000Y-204150000D03*
%TO.P,J6,42,NC*%
%TO.N,unconnected-(J6-NC-Pad42)*%
X220298000Y-204400000D03*
%TO.P,J6,41,PETn0*%
%TO.N,/CM5_HighSpeed/PCIE_RX_P*%
X212748000Y-204650000D03*
%TO.P,J6,40,NC*%
%TO.N,unconnected-(J6-NC-Pad40)*%
X220298000Y-204900000D03*
%TO.P,J6,39,GND*%
%TO.N,GND*%
X212748000Y-205150000D03*
%TO.P,J6,38,DEVSLP*%
%TO.N,unconnected-(J6-DEVSLP-Pad38)*%
X220298000Y-205400000D03*
%TO.P,J6,37,PERp1*%
%TO.N,unconnected-(J6-PERp1-Pad37)*%
X212748000Y-205650000D03*
%TO.P,J6,36,NC*%
%TO.N,unconnected-(J6-NC-Pad36)*%
X220298000Y-205900000D03*
%TO.P,J6,35,PERn1*%
%TO.N,unconnected-(J6-PERn1-Pad35)*%
X212748000Y-206150000D03*
%TO.P,J6,34,NC*%
%TO.N,unconnected-(J6-NC-Pad34)*%
X220298000Y-206400000D03*
%TO.P,J6,33,GND*%
%TO.N,GND*%
X212748000Y-206650000D03*
%TO.P,J6,32,NC*%
%TO.N,unconnected-(J6-NC-Pad32)*%
X220298000Y-206900000D03*
%TO.P,J6,31,PETp1*%
%TO.N,unconnected-(J6-PETp1-Pad31)*%
X212748000Y-207150000D03*
%TO.P,J6,30,NC*%
%TO.N,unconnected-(J6-NC-Pad30)*%
X220298000Y-207400000D03*
%TO.P,J6,29,PETn1*%
%TO.N,unconnected-(J6-PETn1-Pad29)*%
X212748000Y-207650000D03*
%TO.P,J6,28,NC*%
%TO.N,unconnected-(J6-NC-Pad28)*%
X220298000Y-207900000D03*
%TO.P,J6,27,GND*%
%TO.N,GND*%
X212748000Y-208150000D03*
%TO.P,J6,26,NC*%
%TO.N,unconnected-(J6-NC-Pad26)*%
X220298000Y-208400000D03*
%TO.P,J6,25,PERp2*%
%TO.N,unconnected-(J6-PERp2-Pad25)*%
X212748000Y-208650000D03*
%TO.P,J6,24,NC*%
%TO.N,unconnected-(J6-NC-Pad24)*%
X220298000Y-208900000D03*
%TO.P,J6,23,PERn2*%
%TO.N,unconnected-(J6-PERn2-Pad23)*%
X212748000Y-209150000D03*
%TO.P,J6,22,NC*%
%TO.N,unconnected-(J6-NC-Pad22)*%
X220298000Y-209400000D03*
%TO.P,J6,21,GND*%
%TO.N,GND*%
X212748000Y-209650000D03*
%TO.P,J6,20,NC*%
%TO.N,unconnected-(J6-NC-Pad20)*%
X220298000Y-209900000D03*
%TO.P,J6,19,PETp2*%
%TO.N,unconnected-(J6-PETp2-Pad19)*%
X212748000Y-210150000D03*
%TO.P,J6,18,3.3V*%
%TO.N,/PCIe-M2/M2_3v3*%
X220298000Y-210400000D03*
%TO.P,J6,17,PETn2*%
%TO.N,unconnected-(J6-PETn2-Pad17)*%
X212748000Y-210650000D03*
%TO.P,J6,16,3.3V*%
%TO.N,/PCIe-M2/M2_3v3*%
X220298000Y-210900000D03*
%TO.P,J6,15,GND*%
%TO.N,GND*%
X212748000Y-211150000D03*
%TO.P,J6,14,3.3V*%
%TO.N,/PCIe-M2/M2_3v3*%
X220298000Y-211400000D03*
%TO.P,J6,13,PERp3*%
%TO.N,unconnected-(J6-PERp3-Pad13)*%
X212748000Y-211650000D03*
%TO.P,J6,12,3.3V*%
%TO.N,/PCIe-M2/M2_3v3*%
X220298000Y-211900000D03*
%TO.P,J6,11,PERn3*%
%TO.N,unconnected-(J6-PERn3-Pad11)*%
X212748000Y-212150000D03*
%TO.P,J6,10,DAS/~{DSS}/~{LED1}*%
%TO.N,Net-(J6-DAS{slash}~{DSS}{slash}~{LED1})*%
X220298000Y-212400000D03*
%TO.P,J6,9,GND*%
%TO.N,GND*%
X212748000Y-212650000D03*
%TO.P,J6,8,NC*%
%TO.N,unconnected-(J6-NC-Pad8)*%
X220298000Y-212900000D03*
%TO.P,J6,7,PETp3*%
%TO.N,unconnected-(J6-PETp3-Pad7)*%
X212748000Y-213150000D03*
%TO.P,J6,6,NC*%
%TO.N,unconnected-(J6-NC-Pad6)*%
X220298000Y-213400000D03*
%TO.P,J6,5,PETn3*%
%TO.N,unconnected-(J6-PETn3-Pad5)*%
X212748000Y-213650000D03*
%TO.P,J6,4,3.3V*%
%TO.N,/PCIe-M2/M2_3v3*%
X220298000Y-213900000D03*
%TO.P,J6,3,GND*%
%TO.N,GND*%
X212748000Y-214150000D03*
%TO.P,J6,2,3.3V*%
%TO.N,/PCIe-M2/M2_3v3*%
X220298000Y-214400000D03*
%TO.P,J6,1,GND*%
%TO.N,GND*%
X212748000Y-214650000D03*
%TD*%
D85*
%TO.P,J5,1,TRD0+*%
%TO.N,/CM5_GPIO ( Ethernet\u002C GPIO\u002C SDCARD)/TRD0_P*%
X270995000Y-270950000D03*
D47*
%TO.P,J5,2,TRD0-*%
%TO.N,/CM5_GPIO ( Ethernet\u002C GPIO\u002C SDCARD)/TRD0_N*%
X272265000Y-273490000D03*
%TO.P,J5,3,TRD1+*%
%TO.N,/CM5_GPIO ( Ethernet\u002C GPIO\u002C SDCARD)/TRD1_P*%
X273535000Y-270950000D03*
%TO.P,J5,4,CT*%
%TO.N,Net-(C7-Pad1)*%
X274805000Y-273490000D03*
%TO.P,J5,5,CT*%
X276075000Y-270950000D03*
%TO.P,J5,6,TRD1-*%
%TO.N,/CM5_GPIO ( Ethernet\u002C GPIO\u002C SDCARD)/TRD1_N*%
X277345000Y-273490000D03*
%TO.P,J5,7,TRD2+*%
%TO.N,/CM5_GPIO ( Ethernet\u002C GPIO\u002C SDCARD)/TRD2_P*%
X278615000Y-270950000D03*
%TO.P,J5,8,TRD2-*%
%TO.N,/CM5_GPIO ( Ethernet\u002C GPIO\u002C SDCARD)/TRD2_N*%
X279885000Y-273490000D03*
%TO.P,J5,9,TRD3+*%
%TO.N,/CM5_GPIO ( Ethernet\u002C GPIO\u002C SDCARD)/TRD3_P*%
X281155000Y-270950000D03*
%TO.P,J5,10,TRD3-*%
%TO.N,/CM5_GPIO ( Ethernet\u002C GPIO\u002C SDCARD)/TRD3_N*%
X282425000Y-273490000D03*
%TO.P,J5,11,VC1*%
%TO.N,/CM5_GPIO ( Ethernet\u002C GPIO\u002C SDCARD)/TR0_TAP*%
X270995000Y-276010000D03*
%TO.P,J5,12,VC2*%
%TO.N,/CM5_GPIO ( Ethernet\u002C GPIO\u002C SDCARD)/TR1_TAP*%
X273535000Y-277280000D03*
%TO.P,J5,13,VC3*%
%TO.N,/CM5_GPIO ( Ethernet\u002C GPIO\u002C SDCARD)/TR2_TAP*%
X279885000Y-277280000D03*
%TO.P,J5,14,VC4*%
%TO.N,/CM5_GPIO ( Ethernet\u002C GPIO\u002C SDCARD)/TR3_TAP*%
X282425000Y-276010000D03*
%TO.P,J5,15,LEDY_A*%
%TO.N,/CM5_GPIO ( Ethernet\u002C GPIO\u002C SDCARD)/+3.3v*%
X270080000Y-283900000D03*
%TO.P,J5,16,LEDY_K*%
%TO.N,Net-(J5-LEDY_K)*%
X272620000Y-283900000D03*
%TO.P,J5,17,LEDG_A*%
%TO.N,/CM5_GPIO ( Ethernet\u002C GPIO\u002C SDCARD)/+3.3v*%
X280800000Y-283900000D03*
%TO.P,J5,18,LEDG_K*%
%TO.N,Net-(J5-LEDG_K)*%
X283340000Y-283900000D03*
D86*
%TO.P,J5,19,SHIELD*%
%TO.N,GND*%
X268835000Y-276790000D03*
%TO.P,J5,20,SHIELD*%
X284585000Y-276790000D03*
%TD*%
M02*
