%TF.GenerationSoftware,KiCad,Pcbnew,9.0.2*%
%TF.CreationDate,2025-10-06T20:03:22+02:00*%
%TF.ProjectId,psu,7073752e-6b69-4636-9164-5f7063625858,rev?*%
%TF.SameCoordinates,Original*%
%TF.FileFunction,Legend,Top*%
%TF.FilePolarity,Positive*%
%FSLAX46Y46*%
G04 Gerber Fmt 4.6, Leading zero omitted, Abs format (unit mm)*
G04 Created by KiCad (PCBNEW 9.0.2) date 2025-10-06 20:03:22*
%MOMM*%
%LPD*%
G01*
G04 APERTURE LIST*
%ADD10C,0.150000*%
%ADD11C,0.480000*%
%ADD12C,0.200000*%
%ADD13C,0.400000*%
%ADD14C,0.120000*%
%ADD15C,0.127000*%
G04 APERTURE END LIST*
D10*
X65641541Y-118044875D02*
X66260588Y-118044875D01*
X66260588Y-118044875D02*
X65927255Y-118425827D01*
X65927255Y-118425827D02*
X66070112Y-118425827D01*
X66070112Y-118425827D02*
X66165350Y-118473446D01*
X66165350Y-118473446D02*
X66212969Y-118521065D01*
X66212969Y-118521065D02*
X66260588Y-118616303D01*
X66260588Y-118616303D02*
X66260588Y-118854398D01*
X66260588Y-118854398D02*
X66212969Y-118949636D01*
X66212969Y-118949636D02*
X66165350Y-118997256D01*
X66165350Y-118997256D02*
X66070112Y-119044875D01*
X66070112Y-119044875D02*
X65784398Y-119044875D01*
X65784398Y-119044875D02*
X65689160Y-118997256D01*
X65689160Y-118997256D02*
X65641541Y-118949636D01*
X66689160Y-118949636D02*
X66736779Y-118997256D01*
X66736779Y-118997256D02*
X66689160Y-119044875D01*
X66689160Y-119044875D02*
X66641541Y-118997256D01*
X66641541Y-118997256D02*
X66689160Y-118949636D01*
X66689160Y-118949636D02*
X66689160Y-119044875D01*
X67070112Y-118044875D02*
X67689159Y-118044875D01*
X67689159Y-118044875D02*
X67355826Y-118425827D01*
X67355826Y-118425827D02*
X67498683Y-118425827D01*
X67498683Y-118425827D02*
X67593921Y-118473446D01*
X67593921Y-118473446D02*
X67641540Y-118521065D01*
X67641540Y-118521065D02*
X67689159Y-118616303D01*
X67689159Y-118616303D02*
X67689159Y-118854398D01*
X67689159Y-118854398D02*
X67641540Y-118949636D01*
X67641540Y-118949636D02*
X67593921Y-118997256D01*
X67593921Y-118997256D02*
X67498683Y-119044875D01*
X67498683Y-119044875D02*
X67212969Y-119044875D01*
X67212969Y-119044875D02*
X67117731Y-118997256D01*
X67117731Y-118997256D02*
X67070112Y-118949636D01*
X70689159Y-118044875D02*
X70498683Y-118044875D01*
X70498683Y-118044875D02*
X70403445Y-118092494D01*
X70403445Y-118092494D02*
X70355826Y-118140113D01*
X70355826Y-118140113D02*
X70260588Y-118282970D01*
X70260588Y-118282970D02*
X70212969Y-118473446D01*
X70212969Y-118473446D02*
X70212969Y-118854398D01*
X70212969Y-118854398D02*
X70260588Y-118949636D01*
X70260588Y-118949636D02*
X70308207Y-118997256D01*
X70308207Y-118997256D02*
X70403445Y-119044875D01*
X70403445Y-119044875D02*
X70593921Y-119044875D01*
X70593921Y-119044875D02*
X70689159Y-118997256D01*
X70689159Y-118997256D02*
X70736778Y-118949636D01*
X70736778Y-118949636D02*
X70784397Y-118854398D01*
X70784397Y-118854398D02*
X70784397Y-118616303D01*
X70784397Y-118616303D02*
X70736778Y-118521065D01*
X70736778Y-118521065D02*
X70689159Y-118473446D01*
X70689159Y-118473446D02*
X70593921Y-118425827D01*
X70593921Y-118425827D02*
X70403445Y-118425827D01*
X70403445Y-118425827D02*
X70308207Y-118473446D01*
X70308207Y-118473446D02*
X70260588Y-118521065D01*
X70260588Y-118521065D02*
X70212969Y-118616303D01*
X65879636Y-120654819D02*
X65784398Y-120607200D01*
X65784398Y-120607200D02*
X65736779Y-120559580D01*
X65736779Y-120559580D02*
X65689160Y-120464342D01*
X65689160Y-120464342D02*
X65689160Y-120178628D01*
X65689160Y-120178628D02*
X65736779Y-120083390D01*
X65736779Y-120083390D02*
X65784398Y-120035771D01*
X65784398Y-120035771D02*
X65879636Y-119988152D01*
X65879636Y-119988152D02*
X66022493Y-119988152D01*
X66022493Y-119988152D02*
X66117731Y-120035771D01*
X66117731Y-120035771D02*
X66165350Y-120083390D01*
X66165350Y-120083390D02*
X66212969Y-120178628D01*
X66212969Y-120178628D02*
X66212969Y-120464342D01*
X66212969Y-120464342D02*
X66165350Y-120559580D01*
X66165350Y-120559580D02*
X66117731Y-120607200D01*
X66117731Y-120607200D02*
X66022493Y-120654819D01*
X66022493Y-120654819D02*
X65879636Y-120654819D01*
X67070112Y-119988152D02*
X67070112Y-120654819D01*
X66641541Y-119988152D02*
X66641541Y-120511961D01*
X66641541Y-120511961D02*
X66689160Y-120607200D01*
X66689160Y-120607200D02*
X66784398Y-120654819D01*
X66784398Y-120654819D02*
X66927255Y-120654819D01*
X66927255Y-120654819D02*
X67022493Y-120607200D01*
X67022493Y-120607200D02*
X67070112Y-120559580D01*
X67403446Y-119988152D02*
X67784398Y-119988152D01*
X67546303Y-119654819D02*
X67546303Y-120511961D01*
X67546303Y-120511961D02*
X67593922Y-120607200D01*
X67593922Y-120607200D02*
X67689160Y-120654819D01*
X67689160Y-120654819D02*
X67784398Y-120654819D01*
X69784399Y-120654819D02*
X69689161Y-120607200D01*
X69689161Y-120607200D02*
X69641542Y-120559580D01*
X69641542Y-120559580D02*
X69593923Y-120464342D01*
X69593923Y-120464342D02*
X69593923Y-120178628D01*
X69593923Y-120178628D02*
X69641542Y-120083390D01*
X69641542Y-120083390D02*
X69689161Y-120035771D01*
X69689161Y-120035771D02*
X69784399Y-119988152D01*
X69784399Y-119988152D02*
X69927256Y-119988152D01*
X69927256Y-119988152D02*
X70022494Y-120035771D01*
X70022494Y-120035771D02*
X70070113Y-120083390D01*
X70070113Y-120083390D02*
X70117732Y-120178628D01*
X70117732Y-120178628D02*
X70117732Y-120464342D01*
X70117732Y-120464342D02*
X70070113Y-120559580D01*
X70070113Y-120559580D02*
X70022494Y-120607200D01*
X70022494Y-120607200D02*
X69927256Y-120654819D01*
X69927256Y-120654819D02*
X69784399Y-120654819D01*
X70974875Y-119988152D02*
X70974875Y-120654819D01*
X70546304Y-119988152D02*
X70546304Y-120511961D01*
X70546304Y-120511961D02*
X70593923Y-120607200D01*
X70593923Y-120607200D02*
X70689161Y-120654819D01*
X70689161Y-120654819D02*
X70832018Y-120654819D01*
X70832018Y-120654819D02*
X70927256Y-120607200D01*
X70927256Y-120607200D02*
X70974875Y-120559580D01*
X71308209Y-119988152D02*
X71689161Y-119988152D01*
X71451066Y-119654819D02*
X71451066Y-120511961D01*
X71451066Y-120511961D02*
X71498685Y-120607200D01*
X71498685Y-120607200D02*
X71593923Y-120654819D01*
X71593923Y-120654819D02*
X71689161Y-120654819D01*
X66212969Y-121264763D02*
X65736779Y-121264763D01*
X65736779Y-121264763D02*
X65689160Y-121740953D01*
X65689160Y-121740953D02*
X65736779Y-121693334D01*
X65736779Y-121693334D02*
X65832017Y-121645715D01*
X65832017Y-121645715D02*
X66070112Y-121645715D01*
X66070112Y-121645715D02*
X66165350Y-121693334D01*
X66165350Y-121693334D02*
X66212969Y-121740953D01*
X66212969Y-121740953D02*
X66260588Y-121836191D01*
X66260588Y-121836191D02*
X66260588Y-122074286D01*
X66260588Y-122074286D02*
X66212969Y-122169524D01*
X66212969Y-122169524D02*
X66165350Y-122217144D01*
X66165350Y-122217144D02*
X66070112Y-122264763D01*
X66070112Y-122264763D02*
X65832017Y-122264763D01*
X65832017Y-122264763D02*
X65736779Y-122217144D01*
X65736779Y-122217144D02*
X65689160Y-122169524D01*
X70022492Y-122264763D02*
X69451064Y-122264763D01*
X69736778Y-122264763D02*
X69736778Y-121264763D01*
X69736778Y-121264763D02*
X69641540Y-121407620D01*
X69641540Y-121407620D02*
X69546302Y-121502858D01*
X69546302Y-121502858D02*
X69451064Y-121550477D01*
X70403445Y-121360001D02*
X70451064Y-121312382D01*
X70451064Y-121312382D02*
X70546302Y-121264763D01*
X70546302Y-121264763D02*
X70784397Y-121264763D01*
X70784397Y-121264763D02*
X70879635Y-121312382D01*
X70879635Y-121312382D02*
X70927254Y-121360001D01*
X70927254Y-121360001D02*
X70974873Y-121455239D01*
X70974873Y-121455239D02*
X70974873Y-121550477D01*
X70974873Y-121550477D02*
X70927254Y-121693334D01*
X70927254Y-121693334D02*
X70355826Y-122264763D01*
X70355826Y-122264763D02*
X70974873Y-122264763D01*
X71689159Y-122645715D02*
X71641540Y-122598096D01*
X71641540Y-122598096D02*
X71546302Y-122455239D01*
X71546302Y-122455239D02*
X71498683Y-122360001D01*
X71498683Y-122360001D02*
X71451064Y-122217144D01*
X71451064Y-122217144D02*
X71403445Y-121979048D01*
X71403445Y-121979048D02*
X71403445Y-121788572D01*
X71403445Y-121788572D02*
X71451064Y-121550477D01*
X71451064Y-121550477D02*
X71498683Y-121407620D01*
X71498683Y-121407620D02*
X71546302Y-121312382D01*
X71546302Y-121312382D02*
X71641540Y-121169524D01*
X71641540Y-121169524D02*
X71689159Y-121121905D01*
X71974874Y-121598096D02*
X72212969Y-122264763D01*
X72212969Y-122264763D02*
X72451064Y-121598096D01*
X73355826Y-122264763D02*
X72784398Y-122264763D01*
X73070112Y-122264763D02*
X73070112Y-121264763D01*
X73070112Y-121264763D02*
X72974874Y-121407620D01*
X72974874Y-121407620D02*
X72879636Y-121502858D01*
X72879636Y-121502858D02*
X72784398Y-121550477D01*
X73689160Y-122645715D02*
X73736779Y-122598096D01*
X73736779Y-122598096D02*
X73832017Y-122455239D01*
X73832017Y-122455239D02*
X73879636Y-122360001D01*
X73879636Y-122360001D02*
X73927255Y-122217144D01*
X73927255Y-122217144D02*
X73974874Y-121979048D01*
X73974874Y-121979048D02*
X73974874Y-121788572D01*
X73974874Y-121788572D02*
X73927255Y-121550477D01*
X73927255Y-121550477D02*
X73879636Y-121407620D01*
X73879636Y-121407620D02*
X73832017Y-121312382D01*
X73832017Y-121312382D02*
X73736779Y-121169524D01*
X73736779Y-121169524D02*
X73689160Y-121121905D01*
X99566667Y-123054819D02*
X100138095Y-123054819D01*
X99852381Y-124054819D02*
X99852381Y-123054819D01*
X100471429Y-124054819D02*
X100471429Y-123054819D01*
X100471429Y-123054819D02*
X100804762Y-123769104D01*
X100804762Y-123769104D02*
X101138095Y-123054819D01*
X101138095Y-123054819D02*
X101138095Y-124054819D01*
X102185714Y-123959580D02*
X102138095Y-124007200D01*
X102138095Y-124007200D02*
X101995238Y-124054819D01*
X101995238Y-124054819D02*
X101900000Y-124054819D01*
X101900000Y-124054819D02*
X101757143Y-124007200D01*
X101757143Y-124007200D02*
X101661905Y-123911961D01*
X101661905Y-123911961D02*
X101614286Y-123816723D01*
X101614286Y-123816723D02*
X101566667Y-123626247D01*
X101566667Y-123626247D02*
X101566667Y-123483390D01*
X101566667Y-123483390D02*
X101614286Y-123292914D01*
X101614286Y-123292914D02*
X101661905Y-123197676D01*
X101661905Y-123197676D02*
X101757143Y-123102438D01*
X101757143Y-123102438D02*
X101900000Y-123054819D01*
X101900000Y-123054819D02*
X101995238Y-123054819D01*
X101995238Y-123054819D02*
X102138095Y-123102438D01*
X102138095Y-123102438D02*
X102185714Y-123150057D01*
X102519048Y-123054819D02*
X103138095Y-123054819D01*
X103138095Y-123054819D02*
X102804762Y-123435771D01*
X102804762Y-123435771D02*
X102947619Y-123435771D01*
X102947619Y-123435771D02*
X103042857Y-123483390D01*
X103042857Y-123483390D02*
X103090476Y-123531009D01*
X103090476Y-123531009D02*
X103138095Y-123626247D01*
X103138095Y-123626247D02*
X103138095Y-123864342D01*
X103138095Y-123864342D02*
X103090476Y-123959580D01*
X103090476Y-123959580D02*
X103042857Y-124007200D01*
X103042857Y-124007200D02*
X102947619Y-124054819D01*
X102947619Y-124054819D02*
X102661905Y-124054819D01*
X102661905Y-124054819D02*
X102566667Y-124007200D01*
X102566667Y-124007200D02*
X102519048Y-123959580D01*
D11*
X142450000Y-96338135D02*
X142450000Y-99909563D01*
X142450000Y-99909563D02*
X142335715Y-100623849D01*
X142335715Y-100623849D02*
X142107143Y-101100040D01*
X142107143Y-101100040D02*
X141764286Y-101338135D01*
X141764286Y-101338135D02*
X141535715Y-101338135D01*
X143592857Y-98719087D02*
X144392857Y-98719087D01*
X144735714Y-101338135D02*
X143592857Y-101338135D01*
X143592857Y-101338135D02*
X143592857Y-96338135D01*
X143592857Y-96338135D02*
X144735714Y-96338135D01*
X145764286Y-101338135D02*
X145764286Y-96338135D01*
X145764286Y-96338135D02*
X146335715Y-96338135D01*
X146335715Y-96338135D02*
X146678572Y-96576230D01*
X146678572Y-96576230D02*
X146907143Y-97052420D01*
X146907143Y-97052420D02*
X147021429Y-97528611D01*
X147021429Y-97528611D02*
X147135715Y-98480992D01*
X147135715Y-98480992D02*
X147135715Y-99195278D01*
X147135715Y-99195278D02*
X147021429Y-100147659D01*
X147021429Y-100147659D02*
X146907143Y-100623849D01*
X146907143Y-100623849D02*
X146678572Y-101100040D01*
X146678572Y-101100040D02*
X146335715Y-101338135D01*
X146335715Y-101338135D02*
X145764286Y-101338135D01*
X149307143Y-101338135D02*
X148164286Y-101338135D01*
X148164286Y-101338135D02*
X148164286Y-96338135D01*
X150107143Y-101338135D02*
X150107143Y-96338135D01*
X151250000Y-101338135D02*
X151250000Y-96338135D01*
X152621429Y-101338135D02*
X151592857Y-98480992D01*
X152621429Y-96338135D02*
X151250000Y-99195278D01*
X154450000Y-98719087D02*
X154792857Y-98957182D01*
X154792857Y-98957182D02*
X154907143Y-99195278D01*
X154907143Y-99195278D02*
X155021429Y-99671468D01*
X155021429Y-99671468D02*
X155021429Y-100385754D01*
X155021429Y-100385754D02*
X154907143Y-100861944D01*
X154907143Y-100861944D02*
X154792857Y-101100040D01*
X154792857Y-101100040D02*
X154564286Y-101338135D01*
X154564286Y-101338135D02*
X153650000Y-101338135D01*
X153650000Y-101338135D02*
X153650000Y-96338135D01*
X153650000Y-96338135D02*
X154450000Y-96338135D01*
X154450000Y-96338135D02*
X154678572Y-96576230D01*
X154678572Y-96576230D02*
X154792857Y-96814325D01*
X154792857Y-96814325D02*
X154907143Y-97290516D01*
X154907143Y-97290516D02*
X154907143Y-97766706D01*
X154907143Y-97766706D02*
X154792857Y-98242897D01*
X154792857Y-98242897D02*
X154678572Y-98480992D01*
X154678572Y-98480992D02*
X154450000Y-98719087D01*
X154450000Y-98719087D02*
X153650000Y-98719087D01*
X156507143Y-96338135D02*
X156964286Y-96338135D01*
X156964286Y-96338135D02*
X157192857Y-96576230D01*
X157192857Y-96576230D02*
X157421429Y-97052420D01*
X157421429Y-97052420D02*
X157535714Y-98004801D01*
X157535714Y-98004801D02*
X157535714Y-99671468D01*
X157535714Y-99671468D02*
X157421429Y-100623849D01*
X157421429Y-100623849D02*
X157192857Y-101100040D01*
X157192857Y-101100040D02*
X156964286Y-101338135D01*
X156964286Y-101338135D02*
X156507143Y-101338135D01*
X156507143Y-101338135D02*
X156278572Y-101100040D01*
X156278572Y-101100040D02*
X156050000Y-100623849D01*
X156050000Y-100623849D02*
X155935714Y-99671468D01*
X155935714Y-99671468D02*
X155935714Y-98004801D01*
X155935714Y-98004801D02*
X156050000Y-97052420D01*
X156050000Y-97052420D02*
X156278572Y-96576230D01*
X156278572Y-96576230D02*
X156507143Y-96338135D01*
X158221429Y-96338135D02*
X159592858Y-96338135D01*
X158907143Y-101338135D02*
X158907143Y-96338135D01*
X160278571Y-101100040D02*
X160621429Y-101338135D01*
X160621429Y-101338135D02*
X161192857Y-101338135D01*
X161192857Y-101338135D02*
X161421429Y-101100040D01*
X161421429Y-101100040D02*
X161535714Y-100861944D01*
X161535714Y-100861944D02*
X161650000Y-100385754D01*
X161650000Y-100385754D02*
X161650000Y-99909563D01*
X161650000Y-99909563D02*
X161535714Y-99433373D01*
X161535714Y-99433373D02*
X161421429Y-99195278D01*
X161421429Y-99195278D02*
X161192857Y-98957182D01*
X161192857Y-98957182D02*
X160735714Y-98719087D01*
X160735714Y-98719087D02*
X160507143Y-98480992D01*
X160507143Y-98480992D02*
X160392857Y-98242897D01*
X160392857Y-98242897D02*
X160278571Y-97766706D01*
X160278571Y-97766706D02*
X160278571Y-97290516D01*
X160278571Y-97290516D02*
X160392857Y-96814325D01*
X160392857Y-96814325D02*
X160507143Y-96576230D01*
X160507143Y-96576230D02*
X160735714Y-96338135D01*
X160735714Y-96338135D02*
X161307143Y-96338135D01*
X161307143Y-96338135D02*
X161650000Y-96576230D01*
D10*
X63614285Y-107959580D02*
X63566666Y-108007200D01*
X63566666Y-108007200D02*
X63423809Y-108054819D01*
X63423809Y-108054819D02*
X63328571Y-108054819D01*
X63328571Y-108054819D02*
X63185714Y-108007200D01*
X63185714Y-108007200D02*
X63090476Y-107911961D01*
X63090476Y-107911961D02*
X63042857Y-107816723D01*
X63042857Y-107816723D02*
X62995238Y-107626247D01*
X62995238Y-107626247D02*
X62995238Y-107483390D01*
X62995238Y-107483390D02*
X63042857Y-107292914D01*
X63042857Y-107292914D02*
X63090476Y-107197676D01*
X63090476Y-107197676D02*
X63185714Y-107102438D01*
X63185714Y-107102438D02*
X63328571Y-107054819D01*
X63328571Y-107054819D02*
X63423809Y-107054819D01*
X63423809Y-107054819D02*
X63566666Y-107102438D01*
X63566666Y-107102438D02*
X63614285Y-107150057D01*
X64042857Y-108054819D02*
X64042857Y-107054819D01*
X64471428Y-108054819D02*
X64471428Y-107531009D01*
X64471428Y-107531009D02*
X64423809Y-107435771D01*
X64423809Y-107435771D02*
X64328571Y-107388152D01*
X64328571Y-107388152D02*
X64185714Y-107388152D01*
X64185714Y-107388152D02*
X64090476Y-107435771D01*
X64090476Y-107435771D02*
X64042857Y-107483390D01*
X65376190Y-108054819D02*
X65376190Y-107531009D01*
X65376190Y-107531009D02*
X65328571Y-107435771D01*
X65328571Y-107435771D02*
X65233333Y-107388152D01*
X65233333Y-107388152D02*
X65042857Y-107388152D01*
X65042857Y-107388152D02*
X64947619Y-107435771D01*
X65376190Y-108007200D02*
X65280952Y-108054819D01*
X65280952Y-108054819D02*
X65042857Y-108054819D01*
X65042857Y-108054819D02*
X64947619Y-108007200D01*
X64947619Y-108007200D02*
X64900000Y-107911961D01*
X64900000Y-107911961D02*
X64900000Y-107816723D01*
X64900000Y-107816723D02*
X64947619Y-107721485D01*
X64947619Y-107721485D02*
X65042857Y-107673866D01*
X65042857Y-107673866D02*
X65280952Y-107673866D01*
X65280952Y-107673866D02*
X65376190Y-107626247D01*
X65852381Y-108054819D02*
X65852381Y-107388152D01*
X65852381Y-107578628D02*
X65900000Y-107483390D01*
X65900000Y-107483390D02*
X65947619Y-107435771D01*
X65947619Y-107435771D02*
X66042857Y-107388152D01*
X66042857Y-107388152D02*
X66138095Y-107388152D01*
X66900000Y-107388152D02*
X66900000Y-108197676D01*
X66900000Y-108197676D02*
X66852381Y-108292914D01*
X66852381Y-108292914D02*
X66804762Y-108340533D01*
X66804762Y-108340533D02*
X66709524Y-108388152D01*
X66709524Y-108388152D02*
X66566667Y-108388152D01*
X66566667Y-108388152D02*
X66471429Y-108340533D01*
X66900000Y-108007200D02*
X66804762Y-108054819D01*
X66804762Y-108054819D02*
X66614286Y-108054819D01*
X66614286Y-108054819D02*
X66519048Y-108007200D01*
X66519048Y-108007200D02*
X66471429Y-107959580D01*
X66471429Y-107959580D02*
X66423810Y-107864342D01*
X66423810Y-107864342D02*
X66423810Y-107578628D01*
X66423810Y-107578628D02*
X66471429Y-107483390D01*
X66471429Y-107483390D02*
X66519048Y-107435771D01*
X66519048Y-107435771D02*
X66614286Y-107388152D01*
X66614286Y-107388152D02*
X66804762Y-107388152D01*
X66804762Y-107388152D02*
X66900000Y-107435771D01*
X67757143Y-108007200D02*
X67661905Y-108054819D01*
X67661905Y-108054819D02*
X67471429Y-108054819D01*
X67471429Y-108054819D02*
X67376191Y-108007200D01*
X67376191Y-108007200D02*
X67328572Y-107911961D01*
X67328572Y-107911961D02*
X67328572Y-107531009D01*
X67328572Y-107531009D02*
X67376191Y-107435771D01*
X67376191Y-107435771D02*
X67471429Y-107388152D01*
X67471429Y-107388152D02*
X67661905Y-107388152D01*
X67661905Y-107388152D02*
X67757143Y-107435771D01*
X67757143Y-107435771D02*
X67804762Y-107531009D01*
X67804762Y-107531009D02*
X67804762Y-107626247D01*
X67804762Y-107626247D02*
X67328572Y-107721485D01*
X148893922Y-110219819D02*
X149227255Y-111219819D01*
X149227255Y-111219819D02*
X149560588Y-110219819D01*
X150417731Y-111219819D02*
X149846303Y-111219819D01*
X150132017Y-111219819D02*
X150132017Y-110219819D01*
X150132017Y-110219819D02*
X150036779Y-110362676D01*
X150036779Y-110362676D02*
X149941541Y-110457914D01*
X149941541Y-110457914D02*
X149846303Y-110505533D01*
X150846303Y-111124580D02*
X150893922Y-111172200D01*
X150893922Y-111172200D02*
X150846303Y-111219819D01*
X150846303Y-111219819D02*
X150798684Y-111172200D01*
X150798684Y-111172200D02*
X150846303Y-111124580D01*
X150846303Y-111124580D02*
X150846303Y-111219819D01*
X151751064Y-110553152D02*
X151751064Y-111219819D01*
X151512969Y-110172200D02*
X151274874Y-110886485D01*
X151274874Y-110886485D02*
X151893921Y-110886485D01*
X152274874Y-111124580D02*
X152322493Y-111172200D01*
X152322493Y-111172200D02*
X152274874Y-111219819D01*
X152274874Y-111219819D02*
X152227255Y-111172200D01*
X152227255Y-111172200D02*
X152274874Y-111124580D01*
X152274874Y-111124580D02*
X152274874Y-111219819D01*
X152655826Y-110219819D02*
X153322492Y-110219819D01*
X153322492Y-110219819D02*
X152893921Y-111219819D01*
X162865350Y-98069819D02*
X162674874Y-98069819D01*
X162674874Y-98069819D02*
X162579636Y-98117438D01*
X162579636Y-98117438D02*
X162532017Y-98165057D01*
X162532017Y-98165057D02*
X162436779Y-98307914D01*
X162436779Y-98307914D02*
X162389160Y-98498390D01*
X162389160Y-98498390D02*
X162389160Y-98879342D01*
X162389160Y-98879342D02*
X162436779Y-98974580D01*
X162436779Y-98974580D02*
X162484398Y-99022200D01*
X162484398Y-99022200D02*
X162579636Y-99069819D01*
X162579636Y-99069819D02*
X162770112Y-99069819D01*
X162770112Y-99069819D02*
X162865350Y-99022200D01*
X162865350Y-99022200D02*
X162912969Y-98974580D01*
X162912969Y-98974580D02*
X162960588Y-98879342D01*
X162960588Y-98879342D02*
X162960588Y-98641247D01*
X162960588Y-98641247D02*
X162912969Y-98546009D01*
X162912969Y-98546009D02*
X162865350Y-98498390D01*
X162865350Y-98498390D02*
X162770112Y-98450771D01*
X162770112Y-98450771D02*
X162579636Y-98450771D01*
X162579636Y-98450771D02*
X162484398Y-98498390D01*
X162484398Y-98498390D02*
X162436779Y-98546009D01*
X162436779Y-98546009D02*
X162389160Y-98641247D01*
X163246303Y-98069819D02*
X163579636Y-99069819D01*
X163579636Y-99069819D02*
X163912969Y-98069819D01*
X158991541Y-111169819D02*
X159610588Y-111169819D01*
X159610588Y-111169819D02*
X159277255Y-111550771D01*
X159277255Y-111550771D02*
X159420112Y-111550771D01*
X159420112Y-111550771D02*
X159515350Y-111598390D01*
X159515350Y-111598390D02*
X159562969Y-111646009D01*
X159562969Y-111646009D02*
X159610588Y-111741247D01*
X159610588Y-111741247D02*
X159610588Y-111979342D01*
X159610588Y-111979342D02*
X159562969Y-112074580D01*
X159562969Y-112074580D02*
X159515350Y-112122200D01*
X159515350Y-112122200D02*
X159420112Y-112169819D01*
X159420112Y-112169819D02*
X159134398Y-112169819D01*
X159134398Y-112169819D02*
X159039160Y-112122200D01*
X159039160Y-112122200D02*
X158991541Y-112074580D01*
X160039160Y-112074580D02*
X160086779Y-112122200D01*
X160086779Y-112122200D02*
X160039160Y-112169819D01*
X160039160Y-112169819D02*
X159991541Y-112122200D01*
X159991541Y-112122200D02*
X160039160Y-112074580D01*
X160039160Y-112074580D02*
X160039160Y-112169819D01*
X160420112Y-111169819D02*
X161039159Y-111169819D01*
X161039159Y-111169819D02*
X160705826Y-111550771D01*
X160705826Y-111550771D02*
X160848683Y-111550771D01*
X160848683Y-111550771D02*
X160943921Y-111598390D01*
X160943921Y-111598390D02*
X160991540Y-111646009D01*
X160991540Y-111646009D02*
X161039159Y-111741247D01*
X161039159Y-111741247D02*
X161039159Y-111979342D01*
X161039159Y-111979342D02*
X160991540Y-112074580D01*
X160991540Y-112074580D02*
X160943921Y-112122200D01*
X160943921Y-112122200D02*
X160848683Y-112169819D01*
X160848683Y-112169819D02*
X160562969Y-112169819D01*
X160562969Y-112169819D02*
X160467731Y-112122200D01*
X160467731Y-112122200D02*
X160420112Y-112074580D01*
X161324874Y-111169819D02*
X161658207Y-112169819D01*
X161658207Y-112169819D02*
X161991540Y-111169819D01*
X71716779Y-84579819D02*
X71716779Y-83579819D01*
X72288207Y-84579819D02*
X71859636Y-84008390D01*
X72288207Y-83579819D02*
X71716779Y-84151247D01*
X73097731Y-84532200D02*
X73002493Y-84579819D01*
X73002493Y-84579819D02*
X72812017Y-84579819D01*
X72812017Y-84579819D02*
X72716779Y-84532200D01*
X72716779Y-84532200D02*
X72669160Y-84436961D01*
X72669160Y-84436961D02*
X72669160Y-84056009D01*
X72669160Y-84056009D02*
X72716779Y-83960771D01*
X72716779Y-83960771D02*
X72812017Y-83913152D01*
X72812017Y-83913152D02*
X73002493Y-83913152D01*
X73002493Y-83913152D02*
X73097731Y-83960771D01*
X73097731Y-83960771D02*
X73145350Y-84056009D01*
X73145350Y-84056009D02*
X73145350Y-84151247D01*
X73145350Y-84151247D02*
X72669160Y-84246485D01*
X73002493Y-83532200D02*
X72859636Y-83675057D01*
X73526303Y-84532200D02*
X73621541Y-84579819D01*
X73621541Y-84579819D02*
X73812017Y-84579819D01*
X73812017Y-84579819D02*
X73907255Y-84532200D01*
X73907255Y-84532200D02*
X73954874Y-84436961D01*
X73954874Y-84436961D02*
X73954874Y-84389342D01*
X73954874Y-84389342D02*
X73907255Y-84294104D01*
X73907255Y-84294104D02*
X73812017Y-84246485D01*
X73812017Y-84246485D02*
X73669160Y-84246485D01*
X73669160Y-84246485D02*
X73573922Y-84198866D01*
X73573922Y-84198866D02*
X73526303Y-84103628D01*
X73526303Y-84103628D02*
X73526303Y-84056009D01*
X73526303Y-84056009D02*
X73573922Y-83960771D01*
X73573922Y-83960771D02*
X73669160Y-83913152D01*
X73669160Y-83913152D02*
X73812017Y-83913152D01*
X73812017Y-83913152D02*
X73907255Y-83960771D01*
X74288208Y-83913152D02*
X74812017Y-83913152D01*
X74812017Y-83913152D02*
X74288208Y-84579819D01*
X74288208Y-84579819D02*
X74812017Y-84579819D01*
X75192970Y-84579819D02*
X75192970Y-83913152D01*
X75288208Y-83532200D02*
X75145351Y-83675057D01*
X75526303Y-83913152D02*
X75907255Y-83913152D01*
X75669160Y-83579819D02*
X75669160Y-84436961D01*
X75669160Y-84436961D02*
X75716779Y-84532200D01*
X75716779Y-84532200D02*
X75812017Y-84579819D01*
X75812017Y-84579819D02*
X75907255Y-84579819D01*
X76621541Y-84532200D02*
X76526303Y-84579819D01*
X76526303Y-84579819D02*
X76335827Y-84579819D01*
X76335827Y-84579819D02*
X76240589Y-84532200D01*
X76240589Y-84532200D02*
X76192970Y-84436961D01*
X76192970Y-84436961D02*
X76192970Y-84056009D01*
X76192970Y-84056009D02*
X76240589Y-83960771D01*
X76240589Y-83960771D02*
X76335827Y-83913152D01*
X76335827Y-83913152D02*
X76526303Y-83913152D01*
X76526303Y-83913152D02*
X76621541Y-83960771D01*
X76621541Y-83960771D02*
X76669160Y-84056009D01*
X76669160Y-84056009D02*
X76669160Y-84151247D01*
X76669160Y-84151247D02*
X76192970Y-84246485D01*
X76954875Y-83913152D02*
X77335827Y-83913152D01*
X77097732Y-83579819D02*
X77097732Y-84436961D01*
X77097732Y-84436961D02*
X77145351Y-84532200D01*
X77145351Y-84532200D02*
X77240589Y-84579819D01*
X77240589Y-84579819D02*
X77335827Y-84579819D01*
X77526304Y-83913152D02*
X77907256Y-83913152D01*
X77669161Y-83579819D02*
X77669161Y-84436961D01*
X77669161Y-84436961D02*
X77716780Y-84532200D01*
X77716780Y-84532200D02*
X77812018Y-84579819D01*
X77812018Y-84579819D02*
X77907256Y-84579819D01*
X78621542Y-84532200D02*
X78526304Y-84579819D01*
X78526304Y-84579819D02*
X78335828Y-84579819D01*
X78335828Y-84579819D02*
X78240590Y-84532200D01*
X78240590Y-84532200D02*
X78192971Y-84436961D01*
X78192971Y-84436961D02*
X78192971Y-84056009D01*
X78192971Y-84056009D02*
X78240590Y-83960771D01*
X78240590Y-83960771D02*
X78335828Y-83913152D01*
X78335828Y-83913152D02*
X78526304Y-83913152D01*
X78526304Y-83913152D02*
X78621542Y-83960771D01*
X78621542Y-83960771D02*
X78669161Y-84056009D01*
X78669161Y-84056009D02*
X78669161Y-84151247D01*
X78669161Y-84151247D02*
X78192971Y-84246485D01*
X79097733Y-84484580D02*
X79145352Y-84532200D01*
X79145352Y-84532200D02*
X79097733Y-84579819D01*
X79097733Y-84579819D02*
X79050114Y-84532200D01*
X79050114Y-84532200D02*
X79097733Y-84484580D01*
X79097733Y-84484580D02*
X79097733Y-84579819D01*
X79097733Y-83960771D02*
X79145352Y-84008390D01*
X79145352Y-84008390D02*
X79097733Y-84056009D01*
X79097733Y-84056009D02*
X79050114Y-84008390D01*
X79050114Y-84008390D02*
X79097733Y-83960771D01*
X79097733Y-83960771D02*
X79097733Y-84056009D01*
X80335828Y-84579819D02*
X80335828Y-83579819D01*
X80335828Y-83579819D02*
X80907256Y-84579819D01*
X80907256Y-84579819D02*
X80907256Y-83579819D01*
X81812018Y-84579819D02*
X81812018Y-84056009D01*
X81812018Y-84056009D02*
X81764399Y-83960771D01*
X81764399Y-83960771D02*
X81669161Y-83913152D01*
X81669161Y-83913152D02*
X81478685Y-83913152D01*
X81478685Y-83913152D02*
X81383447Y-83960771D01*
X81812018Y-84532200D02*
X81716780Y-84579819D01*
X81716780Y-84579819D02*
X81478685Y-84579819D01*
X81478685Y-84579819D02*
X81383447Y-84532200D01*
X81383447Y-84532200D02*
X81335828Y-84436961D01*
X81335828Y-84436961D02*
X81335828Y-84341723D01*
X81335828Y-84341723D02*
X81383447Y-84246485D01*
X81383447Y-84246485D02*
X81478685Y-84198866D01*
X81478685Y-84198866D02*
X81716780Y-84198866D01*
X81716780Y-84198866D02*
X81812018Y-84151247D01*
X82716780Y-83913152D02*
X82716780Y-84722676D01*
X82716780Y-84722676D02*
X82669161Y-84817914D01*
X82669161Y-84817914D02*
X82621542Y-84865533D01*
X82621542Y-84865533D02*
X82526304Y-84913152D01*
X82526304Y-84913152D02*
X82383447Y-84913152D01*
X82383447Y-84913152D02*
X82288209Y-84865533D01*
X82716780Y-84532200D02*
X82621542Y-84579819D01*
X82621542Y-84579819D02*
X82431066Y-84579819D01*
X82431066Y-84579819D02*
X82335828Y-84532200D01*
X82335828Y-84532200D02*
X82288209Y-84484580D01*
X82288209Y-84484580D02*
X82240590Y-84389342D01*
X82240590Y-84389342D02*
X82240590Y-84103628D01*
X82240590Y-84103628D02*
X82288209Y-84008390D01*
X82288209Y-84008390D02*
X82335828Y-83960771D01*
X82335828Y-83960771D02*
X82431066Y-83913152D01*
X82431066Y-83913152D02*
X82621542Y-83913152D01*
X82621542Y-83913152D02*
X82716780Y-83960771D01*
X83097733Y-83913152D02*
X83335828Y-84579819D01*
X83573923Y-83913152D02*
X83335828Y-84579819D01*
X83335828Y-84579819D02*
X83240590Y-84817914D01*
X83240590Y-84817914D02*
X83192971Y-84865533D01*
X83192971Y-84865533D02*
X83097733Y-84913152D01*
X85050114Y-84056009D02*
X85192971Y-84103628D01*
X85192971Y-84103628D02*
X85240590Y-84151247D01*
X85240590Y-84151247D02*
X85288209Y-84246485D01*
X85288209Y-84246485D02*
X85288209Y-84389342D01*
X85288209Y-84389342D02*
X85240590Y-84484580D01*
X85240590Y-84484580D02*
X85192971Y-84532200D01*
X85192971Y-84532200D02*
X85097733Y-84579819D01*
X85097733Y-84579819D02*
X84716781Y-84579819D01*
X84716781Y-84579819D02*
X84716781Y-83579819D01*
X84716781Y-83579819D02*
X85050114Y-83579819D01*
X85050114Y-83579819D02*
X85145352Y-83627438D01*
X85145352Y-83627438D02*
X85192971Y-83675057D01*
X85192971Y-83675057D02*
X85240590Y-83770295D01*
X85240590Y-83770295D02*
X85240590Y-83865533D01*
X85240590Y-83865533D02*
X85192971Y-83960771D01*
X85192971Y-83960771D02*
X85145352Y-84008390D01*
X85145352Y-84008390D02*
X85050114Y-84056009D01*
X85050114Y-84056009D02*
X84716781Y-84056009D01*
X86097733Y-84532200D02*
X86002495Y-84579819D01*
X86002495Y-84579819D02*
X85812019Y-84579819D01*
X85812019Y-84579819D02*
X85716781Y-84532200D01*
X85716781Y-84532200D02*
X85669162Y-84436961D01*
X85669162Y-84436961D02*
X85669162Y-84056009D01*
X85669162Y-84056009D02*
X85716781Y-83960771D01*
X85716781Y-83960771D02*
X85812019Y-83913152D01*
X85812019Y-83913152D02*
X86002495Y-83913152D01*
X86002495Y-83913152D02*
X86097733Y-83960771D01*
X86097733Y-83960771D02*
X86145352Y-84056009D01*
X86145352Y-84056009D02*
X86145352Y-84151247D01*
X86145352Y-84151247D02*
X85669162Y-84246485D01*
X86573924Y-83913152D02*
X86573924Y-84579819D01*
X86573924Y-84008390D02*
X86621543Y-83960771D01*
X86621543Y-83960771D02*
X86716781Y-83913152D01*
X86716781Y-83913152D02*
X86859638Y-83913152D01*
X86859638Y-83913152D02*
X86954876Y-83960771D01*
X86954876Y-83960771D02*
X87002495Y-84056009D01*
X87002495Y-84056009D02*
X87002495Y-84579819D01*
X87907257Y-84532200D02*
X87812019Y-84579819D01*
X87812019Y-84579819D02*
X87621543Y-84579819D01*
X87621543Y-84579819D02*
X87526305Y-84532200D01*
X87526305Y-84532200D02*
X87478686Y-84484580D01*
X87478686Y-84484580D02*
X87431067Y-84389342D01*
X87431067Y-84389342D02*
X87431067Y-84103628D01*
X87431067Y-84103628D02*
X87478686Y-84008390D01*
X87478686Y-84008390D02*
X87526305Y-83960771D01*
X87526305Y-83960771D02*
X87621543Y-83913152D01*
X87621543Y-83913152D02*
X87812019Y-83913152D01*
X87812019Y-83913152D02*
X87907257Y-83960771D01*
X88716781Y-84532200D02*
X88621543Y-84579819D01*
X88621543Y-84579819D02*
X88431067Y-84579819D01*
X88431067Y-84579819D02*
X88335829Y-84532200D01*
X88335829Y-84532200D02*
X88288210Y-84436961D01*
X88288210Y-84436961D02*
X88288210Y-84056009D01*
X88288210Y-84056009D02*
X88335829Y-83960771D01*
X88335829Y-83960771D02*
X88431067Y-83913152D01*
X88431067Y-83913152D02*
X88621543Y-83913152D01*
X88621543Y-83913152D02*
X88716781Y-83960771D01*
X88716781Y-83960771D02*
X88764400Y-84056009D01*
X88764400Y-84056009D02*
X88764400Y-84151247D01*
X88764400Y-84151247D02*
X88288210Y-84246485D01*
X89907258Y-83675057D02*
X89954877Y-83627438D01*
X89954877Y-83627438D02*
X90050115Y-83579819D01*
X90050115Y-83579819D02*
X90288210Y-83579819D01*
X90288210Y-83579819D02*
X90383448Y-83627438D01*
X90383448Y-83627438D02*
X90431067Y-83675057D01*
X90431067Y-83675057D02*
X90478686Y-83770295D01*
X90478686Y-83770295D02*
X90478686Y-83865533D01*
X90478686Y-83865533D02*
X90431067Y-84008390D01*
X90431067Y-84008390D02*
X89859639Y-84579819D01*
X89859639Y-84579819D02*
X90478686Y-84579819D01*
X91097734Y-83579819D02*
X91192972Y-83579819D01*
X91192972Y-83579819D02*
X91288210Y-83627438D01*
X91288210Y-83627438D02*
X91335829Y-83675057D01*
X91335829Y-83675057D02*
X91383448Y-83770295D01*
X91383448Y-83770295D02*
X91431067Y-83960771D01*
X91431067Y-83960771D02*
X91431067Y-84198866D01*
X91431067Y-84198866D02*
X91383448Y-84389342D01*
X91383448Y-84389342D02*
X91335829Y-84484580D01*
X91335829Y-84484580D02*
X91288210Y-84532200D01*
X91288210Y-84532200D02*
X91192972Y-84579819D01*
X91192972Y-84579819D02*
X91097734Y-84579819D01*
X91097734Y-84579819D02*
X91002496Y-84532200D01*
X91002496Y-84532200D02*
X90954877Y-84484580D01*
X90954877Y-84484580D02*
X90907258Y-84389342D01*
X90907258Y-84389342D02*
X90859639Y-84198866D01*
X90859639Y-84198866D02*
X90859639Y-83960771D01*
X90859639Y-83960771D02*
X90907258Y-83770295D01*
X90907258Y-83770295D02*
X90954877Y-83675057D01*
X90954877Y-83675057D02*
X91002496Y-83627438D01*
X91002496Y-83627438D02*
X91097734Y-83579819D01*
X91812020Y-83675057D02*
X91859639Y-83627438D01*
X91859639Y-83627438D02*
X91954877Y-83579819D01*
X91954877Y-83579819D02*
X92192972Y-83579819D01*
X92192972Y-83579819D02*
X92288210Y-83627438D01*
X92288210Y-83627438D02*
X92335829Y-83675057D01*
X92335829Y-83675057D02*
X92383448Y-83770295D01*
X92383448Y-83770295D02*
X92383448Y-83865533D01*
X92383448Y-83865533D02*
X92335829Y-84008390D01*
X92335829Y-84008390D02*
X91764401Y-84579819D01*
X91764401Y-84579819D02*
X92383448Y-84579819D01*
X93288210Y-83579819D02*
X92812020Y-83579819D01*
X92812020Y-83579819D02*
X92764401Y-84056009D01*
X92764401Y-84056009D02*
X92812020Y-84008390D01*
X92812020Y-84008390D02*
X92907258Y-83960771D01*
X92907258Y-83960771D02*
X93145353Y-83960771D01*
X93145353Y-83960771D02*
X93240591Y-84008390D01*
X93240591Y-84008390D02*
X93288210Y-84056009D01*
X93288210Y-84056009D02*
X93335829Y-84151247D01*
X93335829Y-84151247D02*
X93335829Y-84389342D01*
X93335829Y-84389342D02*
X93288210Y-84484580D01*
X93288210Y-84484580D02*
X93240591Y-84532200D01*
X93240591Y-84532200D02*
X93145353Y-84579819D01*
X93145353Y-84579819D02*
X92907258Y-84579819D01*
X92907258Y-84579819D02*
X92812020Y-84532200D01*
X92812020Y-84532200D02*
X92764401Y-84484580D01*
D12*
X165561905Y-145752219D02*
X165561905Y-144752219D01*
X165561905Y-144752219D02*
X165800000Y-144752219D01*
X165800000Y-144752219D02*
X165942857Y-144799838D01*
X165942857Y-144799838D02*
X166038095Y-144895076D01*
X166038095Y-144895076D02*
X166085714Y-144990314D01*
X166085714Y-144990314D02*
X166133333Y-145180790D01*
X166133333Y-145180790D02*
X166133333Y-145323647D01*
X166133333Y-145323647D02*
X166085714Y-145514123D01*
X166085714Y-145514123D02*
X166038095Y-145609361D01*
X166038095Y-145609361D02*
X165942857Y-145704600D01*
X165942857Y-145704600D02*
X165800000Y-145752219D01*
X165800000Y-145752219D02*
X165561905Y-145752219D01*
X167133333Y-145656980D02*
X167085714Y-145704600D01*
X167085714Y-145704600D02*
X166942857Y-145752219D01*
X166942857Y-145752219D02*
X166847619Y-145752219D01*
X166847619Y-145752219D02*
X166704762Y-145704600D01*
X166704762Y-145704600D02*
X166609524Y-145609361D01*
X166609524Y-145609361D02*
X166561905Y-145514123D01*
X166561905Y-145514123D02*
X166514286Y-145323647D01*
X166514286Y-145323647D02*
X166514286Y-145180790D01*
X166514286Y-145180790D02*
X166561905Y-144990314D01*
X166561905Y-144990314D02*
X166609524Y-144895076D01*
X166609524Y-144895076D02*
X166704762Y-144799838D01*
X166704762Y-144799838D02*
X166847619Y-144752219D01*
X166847619Y-144752219D02*
X166942857Y-144752219D01*
X166942857Y-144752219D02*
X167085714Y-144799838D01*
X167085714Y-144799838D02*
X167133333Y-144847457D01*
X168038095Y-144752219D02*
X167561905Y-144752219D01*
X167561905Y-144752219D02*
X167514286Y-145228409D01*
X167514286Y-145228409D02*
X167561905Y-145180790D01*
X167561905Y-145180790D02*
X167657143Y-145133171D01*
X167657143Y-145133171D02*
X167895238Y-145133171D01*
X167895238Y-145133171D02*
X167990476Y-145180790D01*
X167990476Y-145180790D02*
X168038095Y-145228409D01*
X168038095Y-145228409D02*
X168085714Y-145323647D01*
X168085714Y-145323647D02*
X168085714Y-145561742D01*
X168085714Y-145561742D02*
X168038095Y-145656980D01*
X168038095Y-145656980D02*
X167990476Y-145704600D01*
X167990476Y-145704600D02*
X167895238Y-145752219D01*
X167895238Y-145752219D02*
X167657143Y-145752219D01*
X167657143Y-145752219D02*
X167561905Y-145704600D01*
X167561905Y-145704600D02*
X167514286Y-145656980D01*
X158661905Y-145752219D02*
X158661905Y-144752219D01*
X158661905Y-144752219D02*
X158900000Y-144752219D01*
X158900000Y-144752219D02*
X159042857Y-144799838D01*
X159042857Y-144799838D02*
X159138095Y-144895076D01*
X159138095Y-144895076D02*
X159185714Y-144990314D01*
X159185714Y-144990314D02*
X159233333Y-145180790D01*
X159233333Y-145180790D02*
X159233333Y-145323647D01*
X159233333Y-145323647D02*
X159185714Y-145514123D01*
X159185714Y-145514123D02*
X159138095Y-145609361D01*
X159138095Y-145609361D02*
X159042857Y-145704600D01*
X159042857Y-145704600D02*
X158900000Y-145752219D01*
X158900000Y-145752219D02*
X158661905Y-145752219D01*
X160233333Y-145656980D02*
X160185714Y-145704600D01*
X160185714Y-145704600D02*
X160042857Y-145752219D01*
X160042857Y-145752219D02*
X159947619Y-145752219D01*
X159947619Y-145752219D02*
X159804762Y-145704600D01*
X159804762Y-145704600D02*
X159709524Y-145609361D01*
X159709524Y-145609361D02*
X159661905Y-145514123D01*
X159661905Y-145514123D02*
X159614286Y-145323647D01*
X159614286Y-145323647D02*
X159614286Y-145180790D01*
X159614286Y-145180790D02*
X159661905Y-144990314D01*
X159661905Y-144990314D02*
X159709524Y-144895076D01*
X159709524Y-144895076D02*
X159804762Y-144799838D01*
X159804762Y-144799838D02*
X159947619Y-144752219D01*
X159947619Y-144752219D02*
X160042857Y-144752219D01*
X160042857Y-144752219D02*
X160185714Y-144799838D01*
X160185714Y-144799838D02*
X160233333Y-144847457D01*
X161090476Y-145085552D02*
X161090476Y-145752219D01*
X160852381Y-144704600D02*
X160614286Y-145418885D01*
X160614286Y-145418885D02*
X161233333Y-145418885D01*
D10*
X154083333Y-83757200D02*
X154226190Y-83804819D01*
X154226190Y-83804819D02*
X154464285Y-83804819D01*
X154464285Y-83804819D02*
X154559523Y-83757200D01*
X154559523Y-83757200D02*
X154607142Y-83709580D01*
X154607142Y-83709580D02*
X154654761Y-83614342D01*
X154654761Y-83614342D02*
X154654761Y-83519104D01*
X154654761Y-83519104D02*
X154607142Y-83423866D01*
X154607142Y-83423866D02*
X154559523Y-83376247D01*
X154559523Y-83376247D02*
X154464285Y-83328628D01*
X154464285Y-83328628D02*
X154273809Y-83281009D01*
X154273809Y-83281009D02*
X154178571Y-83233390D01*
X154178571Y-83233390D02*
X154130952Y-83185771D01*
X154130952Y-83185771D02*
X154083333Y-83090533D01*
X154083333Y-83090533D02*
X154083333Y-82995295D01*
X154083333Y-82995295D02*
X154130952Y-82900057D01*
X154130952Y-82900057D02*
X154178571Y-82852438D01*
X154178571Y-82852438D02*
X154273809Y-82804819D01*
X154273809Y-82804819D02*
X154511904Y-82804819D01*
X154511904Y-82804819D02*
X154654761Y-82852438D01*
X155083333Y-83281009D02*
X155416666Y-83281009D01*
X155559523Y-83804819D02*
X155083333Y-83804819D01*
X155083333Y-83804819D02*
X155083333Y-82804819D01*
X155083333Y-82804819D02*
X155559523Y-82804819D01*
X156559523Y-83804819D02*
X156226190Y-83328628D01*
X155988095Y-83804819D02*
X155988095Y-82804819D01*
X155988095Y-82804819D02*
X156369047Y-82804819D01*
X156369047Y-82804819D02*
X156464285Y-82852438D01*
X156464285Y-82852438D02*
X156511904Y-82900057D01*
X156511904Y-82900057D02*
X156559523Y-82995295D01*
X156559523Y-82995295D02*
X156559523Y-83138152D01*
X156559523Y-83138152D02*
X156511904Y-83233390D01*
X156511904Y-83233390D02*
X156464285Y-83281009D01*
X156464285Y-83281009D02*
X156369047Y-83328628D01*
X156369047Y-83328628D02*
X155988095Y-83328628D01*
X156845238Y-82804819D02*
X157178571Y-83804819D01*
X157178571Y-83804819D02*
X157511904Y-82804819D01*
X158035714Y-82804819D02*
X158226190Y-82804819D01*
X158226190Y-82804819D02*
X158321428Y-82852438D01*
X158321428Y-82852438D02*
X158416666Y-82947676D01*
X158416666Y-82947676D02*
X158464285Y-83138152D01*
X158464285Y-83138152D02*
X158464285Y-83471485D01*
X158464285Y-83471485D02*
X158416666Y-83661961D01*
X158416666Y-83661961D02*
X158321428Y-83757200D01*
X158321428Y-83757200D02*
X158226190Y-83804819D01*
X158226190Y-83804819D02*
X158035714Y-83804819D01*
X158035714Y-83804819D02*
X157940476Y-83757200D01*
X157940476Y-83757200D02*
X157845238Y-83661961D01*
X157845238Y-83661961D02*
X157797619Y-83471485D01*
X157797619Y-83471485D02*
X157797619Y-83138152D01*
X157797619Y-83138152D02*
X157845238Y-82947676D01*
X157845238Y-82947676D02*
X157940476Y-82852438D01*
X157940476Y-82852438D02*
X158035714Y-82804819D01*
X158845238Y-82900057D02*
X158892857Y-82852438D01*
X158892857Y-82852438D02*
X158988095Y-82804819D01*
X158988095Y-82804819D02*
X159226190Y-82804819D01*
X159226190Y-82804819D02*
X159321428Y-82852438D01*
X159321428Y-82852438D02*
X159369047Y-82900057D01*
X159369047Y-82900057D02*
X159416666Y-82995295D01*
X159416666Y-82995295D02*
X159416666Y-83090533D01*
X159416666Y-83090533D02*
X159369047Y-83233390D01*
X159369047Y-83233390D02*
X158797619Y-83804819D01*
X158797619Y-83804819D02*
X159416666Y-83804819D01*
D13*
X113380952Y-151904438D02*
X113380952Y-149904438D01*
X113380952Y-149904438D02*
X114047619Y-151333009D01*
X114047619Y-151333009D02*
X114714285Y-149904438D01*
X114714285Y-149904438D02*
X114714285Y-151904438D01*
X115476190Y-149904438D02*
X116714285Y-149904438D01*
X116714285Y-149904438D02*
X116047618Y-150666342D01*
X116047618Y-150666342D02*
X116333333Y-150666342D01*
X116333333Y-150666342D02*
X116523809Y-150761580D01*
X116523809Y-150761580D02*
X116619047Y-150856819D01*
X116619047Y-150856819D02*
X116714285Y-151047295D01*
X116714285Y-151047295D02*
X116714285Y-151523485D01*
X116714285Y-151523485D02*
X116619047Y-151713961D01*
X116619047Y-151713961D02*
X116523809Y-151809200D01*
X116523809Y-151809200D02*
X116333333Y-151904438D01*
X116333333Y-151904438D02*
X115761904Y-151904438D01*
X115761904Y-151904438D02*
X115571428Y-151809200D01*
X115571428Y-151809200D02*
X115476190Y-151713961D01*
D10*
X70138095Y-89202438D02*
X70042857Y-89154819D01*
X70042857Y-89154819D02*
X69900000Y-89154819D01*
X69900000Y-89154819D02*
X69757143Y-89202438D01*
X69757143Y-89202438D02*
X69661905Y-89297676D01*
X69661905Y-89297676D02*
X69614286Y-89392914D01*
X69614286Y-89392914D02*
X69566667Y-89583390D01*
X69566667Y-89583390D02*
X69566667Y-89726247D01*
X69566667Y-89726247D02*
X69614286Y-89916723D01*
X69614286Y-89916723D02*
X69661905Y-90011961D01*
X69661905Y-90011961D02*
X69757143Y-90107200D01*
X69757143Y-90107200D02*
X69900000Y-90154819D01*
X69900000Y-90154819D02*
X69995238Y-90154819D01*
X69995238Y-90154819D02*
X70138095Y-90107200D01*
X70138095Y-90107200D02*
X70185714Y-90059580D01*
X70185714Y-90059580D02*
X70185714Y-89726247D01*
X70185714Y-89726247D02*
X69995238Y-89726247D01*
X70614286Y-90154819D02*
X70614286Y-89154819D01*
X70614286Y-89154819D02*
X71185714Y-90154819D01*
X71185714Y-90154819D02*
X71185714Y-89154819D01*
X71661905Y-90154819D02*
X71661905Y-89154819D01*
X71661905Y-89154819D02*
X71900000Y-89154819D01*
X71900000Y-89154819D02*
X72042857Y-89202438D01*
X72042857Y-89202438D02*
X72138095Y-89297676D01*
X72138095Y-89297676D02*
X72185714Y-89392914D01*
X72185714Y-89392914D02*
X72233333Y-89583390D01*
X72233333Y-89583390D02*
X72233333Y-89726247D01*
X72233333Y-89726247D02*
X72185714Y-89916723D01*
X72185714Y-89916723D02*
X72138095Y-90011961D01*
X72138095Y-90011961D02*
X72042857Y-90107200D01*
X72042857Y-90107200D02*
X71900000Y-90154819D01*
X71900000Y-90154819D02*
X71661905Y-90154819D01*
X80291667Y-123107319D02*
X80863095Y-123107319D01*
X80577381Y-124107319D02*
X80577381Y-123107319D01*
X81196429Y-124107319D02*
X81196429Y-123107319D01*
X81196429Y-123107319D02*
X81529762Y-123821604D01*
X81529762Y-123821604D02*
X81863095Y-123107319D01*
X81863095Y-123107319D02*
X81863095Y-124107319D01*
X82910714Y-124012080D02*
X82863095Y-124059700D01*
X82863095Y-124059700D02*
X82720238Y-124107319D01*
X82720238Y-124107319D02*
X82625000Y-124107319D01*
X82625000Y-124107319D02*
X82482143Y-124059700D01*
X82482143Y-124059700D02*
X82386905Y-123964461D01*
X82386905Y-123964461D02*
X82339286Y-123869223D01*
X82339286Y-123869223D02*
X82291667Y-123678747D01*
X82291667Y-123678747D02*
X82291667Y-123535890D01*
X82291667Y-123535890D02*
X82339286Y-123345414D01*
X82339286Y-123345414D02*
X82386905Y-123250176D01*
X82386905Y-123250176D02*
X82482143Y-123154938D01*
X82482143Y-123154938D02*
X82625000Y-123107319D01*
X82625000Y-123107319D02*
X82720238Y-123107319D01*
X82720238Y-123107319D02*
X82863095Y-123154938D01*
X82863095Y-123154938D02*
X82910714Y-123202557D01*
X83291667Y-123202557D02*
X83339286Y-123154938D01*
X83339286Y-123154938D02*
X83434524Y-123107319D01*
X83434524Y-123107319D02*
X83672619Y-123107319D01*
X83672619Y-123107319D02*
X83767857Y-123154938D01*
X83767857Y-123154938D02*
X83815476Y-123202557D01*
X83815476Y-123202557D02*
X83863095Y-123297795D01*
X83863095Y-123297795D02*
X83863095Y-123393033D01*
X83863095Y-123393033D02*
X83815476Y-123535890D01*
X83815476Y-123535890D02*
X83244048Y-124107319D01*
X83244048Y-124107319D02*
X83863095Y-124107319D01*
D12*
X172461905Y-145752219D02*
X172461905Y-144752219D01*
X172461905Y-144752219D02*
X172700000Y-144752219D01*
X172700000Y-144752219D02*
X172842857Y-144799838D01*
X172842857Y-144799838D02*
X172938095Y-144895076D01*
X172938095Y-144895076D02*
X172985714Y-144990314D01*
X172985714Y-144990314D02*
X173033333Y-145180790D01*
X173033333Y-145180790D02*
X173033333Y-145323647D01*
X173033333Y-145323647D02*
X172985714Y-145514123D01*
X172985714Y-145514123D02*
X172938095Y-145609361D01*
X172938095Y-145609361D02*
X172842857Y-145704600D01*
X172842857Y-145704600D02*
X172700000Y-145752219D01*
X172700000Y-145752219D02*
X172461905Y-145752219D01*
X174033333Y-145656980D02*
X173985714Y-145704600D01*
X173985714Y-145704600D02*
X173842857Y-145752219D01*
X173842857Y-145752219D02*
X173747619Y-145752219D01*
X173747619Y-145752219D02*
X173604762Y-145704600D01*
X173604762Y-145704600D02*
X173509524Y-145609361D01*
X173509524Y-145609361D02*
X173461905Y-145514123D01*
X173461905Y-145514123D02*
X173414286Y-145323647D01*
X173414286Y-145323647D02*
X173414286Y-145180790D01*
X173414286Y-145180790D02*
X173461905Y-144990314D01*
X173461905Y-144990314D02*
X173509524Y-144895076D01*
X173509524Y-144895076D02*
X173604762Y-144799838D01*
X173604762Y-144799838D02*
X173747619Y-144752219D01*
X173747619Y-144752219D02*
X173842857Y-144752219D01*
X173842857Y-144752219D02*
X173985714Y-144799838D01*
X173985714Y-144799838D02*
X174033333Y-144847457D01*
X174890476Y-144752219D02*
X174700000Y-144752219D01*
X174700000Y-144752219D02*
X174604762Y-144799838D01*
X174604762Y-144799838D02*
X174557143Y-144847457D01*
X174557143Y-144847457D02*
X174461905Y-144990314D01*
X174461905Y-144990314D02*
X174414286Y-145180790D01*
X174414286Y-145180790D02*
X174414286Y-145561742D01*
X174414286Y-145561742D02*
X174461905Y-145656980D01*
X174461905Y-145656980D02*
X174509524Y-145704600D01*
X174509524Y-145704600D02*
X174604762Y-145752219D01*
X174604762Y-145752219D02*
X174795238Y-145752219D01*
X174795238Y-145752219D02*
X174890476Y-145704600D01*
X174890476Y-145704600D02*
X174938095Y-145656980D01*
X174938095Y-145656980D02*
X174985714Y-145561742D01*
X174985714Y-145561742D02*
X174985714Y-145323647D01*
X174985714Y-145323647D02*
X174938095Y-145228409D01*
X174938095Y-145228409D02*
X174890476Y-145180790D01*
X174890476Y-145180790D02*
X174795238Y-145133171D01*
X174795238Y-145133171D02*
X174604762Y-145133171D01*
X174604762Y-145133171D02*
X174509524Y-145180790D01*
X174509524Y-145180790D02*
X174461905Y-145228409D01*
X174461905Y-145228409D02*
X174414286Y-145323647D01*
D10*
X60854819Y-107752380D02*
X59854819Y-107752380D01*
X60331009Y-107752380D02*
X60331009Y-107180952D01*
X60854819Y-107180952D02*
X59854819Y-107180952D01*
X60473866Y-106704761D02*
X60473866Y-105942857D01*
X60854819Y-105466666D02*
X59854819Y-105466666D01*
X59854819Y-105466666D02*
X60569104Y-105133333D01*
X60569104Y-105133333D02*
X59854819Y-104800000D01*
X59854819Y-104800000D02*
X60854819Y-104800000D01*
X60854819Y-103800000D02*
X60854819Y-104371428D01*
X60854819Y-104085714D02*
X59854819Y-104085714D01*
X59854819Y-104085714D02*
X59997676Y-104180952D01*
X59997676Y-104180952D02*
X60092914Y-104276190D01*
X60092914Y-104276190D02*
X60140533Y-104371428D01*
D13*
X132180952Y-151704438D02*
X132180952Y-149704438D01*
X132180952Y-149704438D02*
X132847619Y-151133009D01*
X132847619Y-151133009D02*
X133514285Y-149704438D01*
X133514285Y-149704438D02*
X133514285Y-151704438D01*
X135323809Y-150371104D02*
X135323809Y-151704438D01*
X134847618Y-149609200D02*
X134371428Y-151037771D01*
X134371428Y-151037771D02*
X135609523Y-151037771D01*
D10*
X172862557Y-91695238D02*
X172814938Y-91790476D01*
X172814938Y-91790476D02*
X172719700Y-91885714D01*
X172719700Y-91885714D02*
X172576842Y-92028571D01*
X172576842Y-92028571D02*
X172529223Y-92123809D01*
X172529223Y-92123809D02*
X172529223Y-92219047D01*
X172767319Y-92171428D02*
X172719700Y-92266666D01*
X172719700Y-92266666D02*
X172624461Y-92361904D01*
X172624461Y-92361904D02*
X172433985Y-92409523D01*
X172433985Y-92409523D02*
X172100652Y-92409523D01*
X172100652Y-92409523D02*
X171910176Y-92361904D01*
X171910176Y-92361904D02*
X171814938Y-92266666D01*
X171814938Y-92266666D02*
X171767319Y-92171428D01*
X171767319Y-92171428D02*
X171767319Y-91980952D01*
X171767319Y-91980952D02*
X171814938Y-91885714D01*
X171814938Y-91885714D02*
X171910176Y-91790476D01*
X171910176Y-91790476D02*
X172100652Y-91742857D01*
X172100652Y-91742857D02*
X172433985Y-91742857D01*
X172433985Y-91742857D02*
X172624461Y-91790476D01*
X172624461Y-91790476D02*
X172719700Y-91885714D01*
X172719700Y-91885714D02*
X172767319Y-91980952D01*
X172767319Y-91980952D02*
X172767319Y-92171428D01*
X172767319Y-90790476D02*
X172767319Y-91361904D01*
X172767319Y-91076190D02*
X171767319Y-91076190D01*
X171767319Y-91076190D02*
X171910176Y-91171428D01*
X171910176Y-91171428D02*
X172005414Y-91266666D01*
X172005414Y-91266666D02*
X172053033Y-91361904D01*
X163283333Y-83757200D02*
X163426190Y-83804819D01*
X163426190Y-83804819D02*
X163664285Y-83804819D01*
X163664285Y-83804819D02*
X163759523Y-83757200D01*
X163759523Y-83757200D02*
X163807142Y-83709580D01*
X163807142Y-83709580D02*
X163854761Y-83614342D01*
X163854761Y-83614342D02*
X163854761Y-83519104D01*
X163854761Y-83519104D02*
X163807142Y-83423866D01*
X163807142Y-83423866D02*
X163759523Y-83376247D01*
X163759523Y-83376247D02*
X163664285Y-83328628D01*
X163664285Y-83328628D02*
X163473809Y-83281009D01*
X163473809Y-83281009D02*
X163378571Y-83233390D01*
X163378571Y-83233390D02*
X163330952Y-83185771D01*
X163330952Y-83185771D02*
X163283333Y-83090533D01*
X163283333Y-83090533D02*
X163283333Y-82995295D01*
X163283333Y-82995295D02*
X163330952Y-82900057D01*
X163330952Y-82900057D02*
X163378571Y-82852438D01*
X163378571Y-82852438D02*
X163473809Y-82804819D01*
X163473809Y-82804819D02*
X163711904Y-82804819D01*
X163711904Y-82804819D02*
X163854761Y-82852438D01*
X164283333Y-83281009D02*
X164616666Y-83281009D01*
X164759523Y-83804819D02*
X164283333Y-83804819D01*
X164283333Y-83804819D02*
X164283333Y-82804819D01*
X164283333Y-82804819D02*
X164759523Y-82804819D01*
X165759523Y-83804819D02*
X165426190Y-83328628D01*
X165188095Y-83804819D02*
X165188095Y-82804819D01*
X165188095Y-82804819D02*
X165569047Y-82804819D01*
X165569047Y-82804819D02*
X165664285Y-82852438D01*
X165664285Y-82852438D02*
X165711904Y-82900057D01*
X165711904Y-82900057D02*
X165759523Y-82995295D01*
X165759523Y-82995295D02*
X165759523Y-83138152D01*
X165759523Y-83138152D02*
X165711904Y-83233390D01*
X165711904Y-83233390D02*
X165664285Y-83281009D01*
X165664285Y-83281009D02*
X165569047Y-83328628D01*
X165569047Y-83328628D02*
X165188095Y-83328628D01*
X166045238Y-82804819D02*
X166378571Y-83804819D01*
X166378571Y-83804819D02*
X166711904Y-82804819D01*
X167235714Y-82804819D02*
X167426190Y-82804819D01*
X167426190Y-82804819D02*
X167521428Y-82852438D01*
X167521428Y-82852438D02*
X167616666Y-82947676D01*
X167616666Y-82947676D02*
X167664285Y-83138152D01*
X167664285Y-83138152D02*
X167664285Y-83471485D01*
X167664285Y-83471485D02*
X167616666Y-83661961D01*
X167616666Y-83661961D02*
X167521428Y-83757200D01*
X167521428Y-83757200D02*
X167426190Y-83804819D01*
X167426190Y-83804819D02*
X167235714Y-83804819D01*
X167235714Y-83804819D02*
X167140476Y-83757200D01*
X167140476Y-83757200D02*
X167045238Y-83661961D01*
X167045238Y-83661961D02*
X166997619Y-83471485D01*
X166997619Y-83471485D02*
X166997619Y-83138152D01*
X166997619Y-83138152D02*
X167045238Y-82947676D01*
X167045238Y-82947676D02*
X167140476Y-82852438D01*
X167140476Y-82852438D02*
X167235714Y-82804819D01*
X168616666Y-83804819D02*
X168045238Y-83804819D01*
X168330952Y-83804819D02*
X168330952Y-82804819D01*
X168330952Y-82804819D02*
X168235714Y-82947676D01*
X168235714Y-82947676D02*
X168140476Y-83042914D01*
X168140476Y-83042914D02*
X168045238Y-83090533D01*
X156809524Y-121907200D02*
X156952381Y-121954819D01*
X156952381Y-121954819D02*
X157190476Y-121954819D01*
X157190476Y-121954819D02*
X157285714Y-121907200D01*
X157285714Y-121907200D02*
X157333333Y-121859580D01*
X157333333Y-121859580D02*
X157380952Y-121764342D01*
X157380952Y-121764342D02*
X157380952Y-121669104D01*
X157380952Y-121669104D02*
X157333333Y-121573866D01*
X157333333Y-121573866D02*
X157285714Y-121526247D01*
X157285714Y-121526247D02*
X157190476Y-121478628D01*
X157190476Y-121478628D02*
X157000000Y-121431009D01*
X157000000Y-121431009D02*
X156904762Y-121383390D01*
X156904762Y-121383390D02*
X156857143Y-121335771D01*
X156857143Y-121335771D02*
X156809524Y-121240533D01*
X156809524Y-121240533D02*
X156809524Y-121145295D01*
X156809524Y-121145295D02*
X156857143Y-121050057D01*
X156857143Y-121050057D02*
X156904762Y-121002438D01*
X156904762Y-121002438D02*
X157000000Y-120954819D01*
X157000000Y-120954819D02*
X157238095Y-120954819D01*
X157238095Y-120954819D02*
X157380952Y-121002438D01*
X157809524Y-121954819D02*
X157809524Y-120954819D01*
X157809524Y-120954819D02*
X158047619Y-120954819D01*
X158047619Y-120954819D02*
X158190476Y-121002438D01*
X158190476Y-121002438D02*
X158285714Y-121097676D01*
X158285714Y-121097676D02*
X158333333Y-121192914D01*
X158333333Y-121192914D02*
X158380952Y-121383390D01*
X158380952Y-121383390D02*
X158380952Y-121526247D01*
X158380952Y-121526247D02*
X158333333Y-121716723D01*
X158333333Y-121716723D02*
X158285714Y-121811961D01*
X158285714Y-121811961D02*
X158190476Y-121907200D01*
X158190476Y-121907200D02*
X158047619Y-121954819D01*
X158047619Y-121954819D02*
X157809524Y-121954819D01*
X158761905Y-121669104D02*
X159238095Y-121669104D01*
X158666667Y-121954819D02*
X159000000Y-120954819D01*
X159000000Y-120954819D02*
X159333333Y-121954819D01*
X160190476Y-121954819D02*
X159619048Y-121954819D01*
X159904762Y-121954819D02*
X159904762Y-120954819D01*
X159904762Y-120954819D02*
X159809524Y-121097676D01*
X159809524Y-121097676D02*
X159714286Y-121192914D01*
X159714286Y-121192914D02*
X159619048Y-121240533D01*
D12*
X151761905Y-145752219D02*
X151761905Y-144752219D01*
X151761905Y-144752219D02*
X152000000Y-144752219D01*
X152000000Y-144752219D02*
X152142857Y-144799838D01*
X152142857Y-144799838D02*
X152238095Y-144895076D01*
X152238095Y-144895076D02*
X152285714Y-144990314D01*
X152285714Y-144990314D02*
X152333333Y-145180790D01*
X152333333Y-145180790D02*
X152333333Y-145323647D01*
X152333333Y-145323647D02*
X152285714Y-145514123D01*
X152285714Y-145514123D02*
X152238095Y-145609361D01*
X152238095Y-145609361D02*
X152142857Y-145704600D01*
X152142857Y-145704600D02*
X152000000Y-145752219D01*
X152000000Y-145752219D02*
X151761905Y-145752219D01*
X153333333Y-145656980D02*
X153285714Y-145704600D01*
X153285714Y-145704600D02*
X153142857Y-145752219D01*
X153142857Y-145752219D02*
X153047619Y-145752219D01*
X153047619Y-145752219D02*
X152904762Y-145704600D01*
X152904762Y-145704600D02*
X152809524Y-145609361D01*
X152809524Y-145609361D02*
X152761905Y-145514123D01*
X152761905Y-145514123D02*
X152714286Y-145323647D01*
X152714286Y-145323647D02*
X152714286Y-145180790D01*
X152714286Y-145180790D02*
X152761905Y-144990314D01*
X152761905Y-144990314D02*
X152809524Y-144895076D01*
X152809524Y-144895076D02*
X152904762Y-144799838D01*
X152904762Y-144799838D02*
X153047619Y-144752219D01*
X153047619Y-144752219D02*
X153142857Y-144752219D01*
X153142857Y-144752219D02*
X153285714Y-144799838D01*
X153285714Y-144799838D02*
X153333333Y-144847457D01*
X153666667Y-144752219D02*
X154285714Y-144752219D01*
X154285714Y-144752219D02*
X153952381Y-145133171D01*
X153952381Y-145133171D02*
X154095238Y-145133171D01*
X154095238Y-145133171D02*
X154190476Y-145180790D01*
X154190476Y-145180790D02*
X154238095Y-145228409D01*
X154238095Y-145228409D02*
X154285714Y-145323647D01*
X154285714Y-145323647D02*
X154285714Y-145561742D01*
X154285714Y-145561742D02*
X154238095Y-145656980D01*
X154238095Y-145656980D02*
X154190476Y-145704600D01*
X154190476Y-145704600D02*
X154095238Y-145752219D01*
X154095238Y-145752219D02*
X153809524Y-145752219D01*
X153809524Y-145752219D02*
X153714286Y-145704600D01*
X153714286Y-145704600D02*
X153666667Y-145656980D01*
D10*
X135683333Y-83807200D02*
X135826190Y-83854819D01*
X135826190Y-83854819D02*
X136064285Y-83854819D01*
X136064285Y-83854819D02*
X136159523Y-83807200D01*
X136159523Y-83807200D02*
X136207142Y-83759580D01*
X136207142Y-83759580D02*
X136254761Y-83664342D01*
X136254761Y-83664342D02*
X136254761Y-83569104D01*
X136254761Y-83569104D02*
X136207142Y-83473866D01*
X136207142Y-83473866D02*
X136159523Y-83426247D01*
X136159523Y-83426247D02*
X136064285Y-83378628D01*
X136064285Y-83378628D02*
X135873809Y-83331009D01*
X135873809Y-83331009D02*
X135778571Y-83283390D01*
X135778571Y-83283390D02*
X135730952Y-83235771D01*
X135730952Y-83235771D02*
X135683333Y-83140533D01*
X135683333Y-83140533D02*
X135683333Y-83045295D01*
X135683333Y-83045295D02*
X135730952Y-82950057D01*
X135730952Y-82950057D02*
X135778571Y-82902438D01*
X135778571Y-82902438D02*
X135873809Y-82854819D01*
X135873809Y-82854819D02*
X136111904Y-82854819D01*
X136111904Y-82854819D02*
X136254761Y-82902438D01*
X136683333Y-83331009D02*
X137016666Y-83331009D01*
X137159523Y-83854819D02*
X136683333Y-83854819D01*
X136683333Y-83854819D02*
X136683333Y-82854819D01*
X136683333Y-82854819D02*
X137159523Y-82854819D01*
X138159523Y-83854819D02*
X137826190Y-83378628D01*
X137588095Y-83854819D02*
X137588095Y-82854819D01*
X137588095Y-82854819D02*
X137969047Y-82854819D01*
X137969047Y-82854819D02*
X138064285Y-82902438D01*
X138064285Y-82902438D02*
X138111904Y-82950057D01*
X138111904Y-82950057D02*
X138159523Y-83045295D01*
X138159523Y-83045295D02*
X138159523Y-83188152D01*
X138159523Y-83188152D02*
X138111904Y-83283390D01*
X138111904Y-83283390D02*
X138064285Y-83331009D01*
X138064285Y-83331009D02*
X137969047Y-83378628D01*
X137969047Y-83378628D02*
X137588095Y-83378628D01*
X138445238Y-82854819D02*
X138778571Y-83854819D01*
X138778571Y-83854819D02*
X139111904Y-82854819D01*
X139635714Y-82854819D02*
X139826190Y-82854819D01*
X139826190Y-82854819D02*
X139921428Y-82902438D01*
X139921428Y-82902438D02*
X140016666Y-82997676D01*
X140016666Y-82997676D02*
X140064285Y-83188152D01*
X140064285Y-83188152D02*
X140064285Y-83521485D01*
X140064285Y-83521485D02*
X140016666Y-83711961D01*
X140016666Y-83711961D02*
X139921428Y-83807200D01*
X139921428Y-83807200D02*
X139826190Y-83854819D01*
X139826190Y-83854819D02*
X139635714Y-83854819D01*
X139635714Y-83854819D02*
X139540476Y-83807200D01*
X139540476Y-83807200D02*
X139445238Y-83711961D01*
X139445238Y-83711961D02*
X139397619Y-83521485D01*
X139397619Y-83521485D02*
X139397619Y-83188152D01*
X139397619Y-83188152D02*
X139445238Y-82997676D01*
X139445238Y-82997676D02*
X139540476Y-82902438D01*
X139540476Y-82902438D02*
X139635714Y-82854819D01*
X140921428Y-83188152D02*
X140921428Y-83854819D01*
X140683333Y-82807200D02*
X140445238Y-83521485D01*
X140445238Y-83521485D02*
X141064285Y-83521485D01*
D12*
X144861905Y-145752219D02*
X144861905Y-144752219D01*
X144861905Y-144752219D02*
X145100000Y-144752219D01*
X145100000Y-144752219D02*
X145242857Y-144799838D01*
X145242857Y-144799838D02*
X145338095Y-144895076D01*
X145338095Y-144895076D02*
X145385714Y-144990314D01*
X145385714Y-144990314D02*
X145433333Y-145180790D01*
X145433333Y-145180790D02*
X145433333Y-145323647D01*
X145433333Y-145323647D02*
X145385714Y-145514123D01*
X145385714Y-145514123D02*
X145338095Y-145609361D01*
X145338095Y-145609361D02*
X145242857Y-145704600D01*
X145242857Y-145704600D02*
X145100000Y-145752219D01*
X145100000Y-145752219D02*
X144861905Y-145752219D01*
X146433333Y-145656980D02*
X146385714Y-145704600D01*
X146385714Y-145704600D02*
X146242857Y-145752219D01*
X146242857Y-145752219D02*
X146147619Y-145752219D01*
X146147619Y-145752219D02*
X146004762Y-145704600D01*
X146004762Y-145704600D02*
X145909524Y-145609361D01*
X145909524Y-145609361D02*
X145861905Y-145514123D01*
X145861905Y-145514123D02*
X145814286Y-145323647D01*
X145814286Y-145323647D02*
X145814286Y-145180790D01*
X145814286Y-145180790D02*
X145861905Y-144990314D01*
X145861905Y-144990314D02*
X145909524Y-144895076D01*
X145909524Y-144895076D02*
X146004762Y-144799838D01*
X146004762Y-144799838D02*
X146147619Y-144752219D01*
X146147619Y-144752219D02*
X146242857Y-144752219D01*
X146242857Y-144752219D02*
X146385714Y-144799838D01*
X146385714Y-144799838D02*
X146433333Y-144847457D01*
X146814286Y-144847457D02*
X146861905Y-144799838D01*
X146861905Y-144799838D02*
X146957143Y-144752219D01*
X146957143Y-144752219D02*
X147195238Y-144752219D01*
X147195238Y-144752219D02*
X147290476Y-144799838D01*
X147290476Y-144799838D02*
X147338095Y-144847457D01*
X147338095Y-144847457D02*
X147385714Y-144942695D01*
X147385714Y-144942695D02*
X147385714Y-145037933D01*
X147385714Y-145037933D02*
X147338095Y-145180790D01*
X147338095Y-145180790D02*
X146766667Y-145752219D01*
X146766667Y-145752219D02*
X147385714Y-145752219D01*
D13*
X76130952Y-151654438D02*
X76130952Y-149654438D01*
X76130952Y-149654438D02*
X76797619Y-151083009D01*
X76797619Y-151083009D02*
X77464285Y-149654438D01*
X77464285Y-149654438D02*
X77464285Y-151654438D01*
X79464285Y-151654438D02*
X78321428Y-151654438D01*
X78892856Y-151654438D02*
X78892856Y-149654438D01*
X78892856Y-149654438D02*
X78702380Y-149940152D01*
X78702380Y-149940152D02*
X78511904Y-150130628D01*
X78511904Y-150130628D02*
X78321428Y-150225866D01*
D10*
X69166667Y-123054819D02*
X69738095Y-123054819D01*
X69452381Y-124054819D02*
X69452381Y-123054819D01*
X70071429Y-124054819D02*
X70071429Y-123054819D01*
X70071429Y-123054819D02*
X70404762Y-123769104D01*
X70404762Y-123769104D02*
X70738095Y-123054819D01*
X70738095Y-123054819D02*
X70738095Y-124054819D01*
X71785714Y-123959580D02*
X71738095Y-124007200D01*
X71738095Y-124007200D02*
X71595238Y-124054819D01*
X71595238Y-124054819D02*
X71500000Y-124054819D01*
X71500000Y-124054819D02*
X71357143Y-124007200D01*
X71357143Y-124007200D02*
X71261905Y-123911961D01*
X71261905Y-123911961D02*
X71214286Y-123816723D01*
X71214286Y-123816723D02*
X71166667Y-123626247D01*
X71166667Y-123626247D02*
X71166667Y-123483390D01*
X71166667Y-123483390D02*
X71214286Y-123292914D01*
X71214286Y-123292914D02*
X71261905Y-123197676D01*
X71261905Y-123197676D02*
X71357143Y-123102438D01*
X71357143Y-123102438D02*
X71500000Y-123054819D01*
X71500000Y-123054819D02*
X71595238Y-123054819D01*
X71595238Y-123054819D02*
X71738095Y-123102438D01*
X71738095Y-123102438D02*
X71785714Y-123150057D01*
X72738095Y-124054819D02*
X72166667Y-124054819D01*
X72452381Y-124054819D02*
X72452381Y-123054819D01*
X72452381Y-123054819D02*
X72357143Y-123197676D01*
X72357143Y-123197676D02*
X72261905Y-123292914D01*
X72261905Y-123292914D02*
X72166667Y-123340533D01*
X60847619Y-123454819D02*
X60847619Y-122454819D01*
X60847619Y-122931009D02*
X61419047Y-122931009D01*
X61419047Y-123454819D02*
X61419047Y-122454819D01*
X61895238Y-123073866D02*
X62657143Y-123073866D01*
X63133333Y-123454819D02*
X63133333Y-122454819D01*
X63133333Y-122454819D02*
X63466666Y-123169104D01*
X63466666Y-123169104D02*
X63799999Y-122454819D01*
X63799999Y-122454819D02*
X63799999Y-123454819D01*
X64228571Y-122550057D02*
X64276190Y-122502438D01*
X64276190Y-122502438D02*
X64371428Y-122454819D01*
X64371428Y-122454819D02*
X64609523Y-122454819D01*
X64609523Y-122454819D02*
X64704761Y-122502438D01*
X64704761Y-122502438D02*
X64752380Y-122550057D01*
X64752380Y-122550057D02*
X64799999Y-122645295D01*
X64799999Y-122645295D02*
X64799999Y-122740533D01*
X64799999Y-122740533D02*
X64752380Y-122883390D01*
X64752380Y-122883390D02*
X64180952Y-123454819D01*
X64180952Y-123454819D02*
X64799999Y-123454819D01*
X144783333Y-83757200D02*
X144926190Y-83804819D01*
X144926190Y-83804819D02*
X145164285Y-83804819D01*
X145164285Y-83804819D02*
X145259523Y-83757200D01*
X145259523Y-83757200D02*
X145307142Y-83709580D01*
X145307142Y-83709580D02*
X145354761Y-83614342D01*
X145354761Y-83614342D02*
X145354761Y-83519104D01*
X145354761Y-83519104D02*
X145307142Y-83423866D01*
X145307142Y-83423866D02*
X145259523Y-83376247D01*
X145259523Y-83376247D02*
X145164285Y-83328628D01*
X145164285Y-83328628D02*
X144973809Y-83281009D01*
X144973809Y-83281009D02*
X144878571Y-83233390D01*
X144878571Y-83233390D02*
X144830952Y-83185771D01*
X144830952Y-83185771D02*
X144783333Y-83090533D01*
X144783333Y-83090533D02*
X144783333Y-82995295D01*
X144783333Y-82995295D02*
X144830952Y-82900057D01*
X144830952Y-82900057D02*
X144878571Y-82852438D01*
X144878571Y-82852438D02*
X144973809Y-82804819D01*
X144973809Y-82804819D02*
X145211904Y-82804819D01*
X145211904Y-82804819D02*
X145354761Y-82852438D01*
X145783333Y-83281009D02*
X146116666Y-83281009D01*
X146259523Y-83804819D02*
X145783333Y-83804819D01*
X145783333Y-83804819D02*
X145783333Y-82804819D01*
X145783333Y-82804819D02*
X146259523Y-82804819D01*
X147259523Y-83804819D02*
X146926190Y-83328628D01*
X146688095Y-83804819D02*
X146688095Y-82804819D01*
X146688095Y-82804819D02*
X147069047Y-82804819D01*
X147069047Y-82804819D02*
X147164285Y-82852438D01*
X147164285Y-82852438D02*
X147211904Y-82900057D01*
X147211904Y-82900057D02*
X147259523Y-82995295D01*
X147259523Y-82995295D02*
X147259523Y-83138152D01*
X147259523Y-83138152D02*
X147211904Y-83233390D01*
X147211904Y-83233390D02*
X147164285Y-83281009D01*
X147164285Y-83281009D02*
X147069047Y-83328628D01*
X147069047Y-83328628D02*
X146688095Y-83328628D01*
X147545238Y-82804819D02*
X147878571Y-83804819D01*
X147878571Y-83804819D02*
X148211904Y-82804819D01*
X148735714Y-82804819D02*
X148926190Y-82804819D01*
X148926190Y-82804819D02*
X149021428Y-82852438D01*
X149021428Y-82852438D02*
X149116666Y-82947676D01*
X149116666Y-82947676D02*
X149164285Y-83138152D01*
X149164285Y-83138152D02*
X149164285Y-83471485D01*
X149164285Y-83471485D02*
X149116666Y-83661961D01*
X149116666Y-83661961D02*
X149021428Y-83757200D01*
X149021428Y-83757200D02*
X148926190Y-83804819D01*
X148926190Y-83804819D02*
X148735714Y-83804819D01*
X148735714Y-83804819D02*
X148640476Y-83757200D01*
X148640476Y-83757200D02*
X148545238Y-83661961D01*
X148545238Y-83661961D02*
X148497619Y-83471485D01*
X148497619Y-83471485D02*
X148497619Y-83138152D01*
X148497619Y-83138152D02*
X148545238Y-82947676D01*
X148545238Y-82947676D02*
X148640476Y-82852438D01*
X148640476Y-82852438D02*
X148735714Y-82804819D01*
X149497619Y-82804819D02*
X150116666Y-82804819D01*
X150116666Y-82804819D02*
X149783333Y-83185771D01*
X149783333Y-83185771D02*
X149926190Y-83185771D01*
X149926190Y-83185771D02*
X150021428Y-83233390D01*
X150021428Y-83233390D02*
X150069047Y-83281009D01*
X150069047Y-83281009D02*
X150116666Y-83376247D01*
X150116666Y-83376247D02*
X150116666Y-83614342D01*
X150116666Y-83614342D02*
X150069047Y-83709580D01*
X150069047Y-83709580D02*
X150021428Y-83757200D01*
X150021428Y-83757200D02*
X149926190Y-83804819D01*
X149926190Y-83804819D02*
X149640476Y-83804819D01*
X149640476Y-83804819D02*
X149545238Y-83757200D01*
X149545238Y-83757200D02*
X149497619Y-83709580D01*
X160833333Y-121907200D02*
X160976190Y-121954819D01*
X160976190Y-121954819D02*
X161214285Y-121954819D01*
X161214285Y-121954819D02*
X161309523Y-121907200D01*
X161309523Y-121907200D02*
X161357142Y-121859580D01*
X161357142Y-121859580D02*
X161404761Y-121764342D01*
X161404761Y-121764342D02*
X161404761Y-121669104D01*
X161404761Y-121669104D02*
X161357142Y-121573866D01*
X161357142Y-121573866D02*
X161309523Y-121526247D01*
X161309523Y-121526247D02*
X161214285Y-121478628D01*
X161214285Y-121478628D02*
X161023809Y-121431009D01*
X161023809Y-121431009D02*
X160928571Y-121383390D01*
X160928571Y-121383390D02*
X160880952Y-121335771D01*
X160880952Y-121335771D02*
X160833333Y-121240533D01*
X160833333Y-121240533D02*
X160833333Y-121145295D01*
X160833333Y-121145295D02*
X160880952Y-121050057D01*
X160880952Y-121050057D02*
X160928571Y-121002438D01*
X160928571Y-121002438D02*
X161023809Y-120954819D01*
X161023809Y-120954819D02*
X161261904Y-120954819D01*
X161261904Y-120954819D02*
X161404761Y-121002438D01*
X162404761Y-121859580D02*
X162357142Y-121907200D01*
X162357142Y-121907200D02*
X162214285Y-121954819D01*
X162214285Y-121954819D02*
X162119047Y-121954819D01*
X162119047Y-121954819D02*
X161976190Y-121907200D01*
X161976190Y-121907200D02*
X161880952Y-121811961D01*
X161880952Y-121811961D02*
X161833333Y-121716723D01*
X161833333Y-121716723D02*
X161785714Y-121526247D01*
X161785714Y-121526247D02*
X161785714Y-121383390D01*
X161785714Y-121383390D02*
X161833333Y-121192914D01*
X161833333Y-121192914D02*
X161880952Y-121097676D01*
X161880952Y-121097676D02*
X161976190Y-121002438D01*
X161976190Y-121002438D02*
X162119047Y-120954819D01*
X162119047Y-120954819D02*
X162214285Y-120954819D01*
X162214285Y-120954819D02*
X162357142Y-121002438D01*
X162357142Y-121002438D02*
X162404761Y-121050057D01*
X163309523Y-121954819D02*
X162833333Y-121954819D01*
X162833333Y-121954819D02*
X162833333Y-120954819D01*
X164166666Y-121954819D02*
X163595238Y-121954819D01*
X163880952Y-121954819D02*
X163880952Y-120954819D01*
X163880952Y-120954819D02*
X163785714Y-121097676D01*
X163785714Y-121097676D02*
X163690476Y-121192914D01*
X163690476Y-121192914D02*
X163595238Y-121240533D01*
D12*
X137961905Y-145752219D02*
X137961905Y-144752219D01*
X137961905Y-144752219D02*
X138200000Y-144752219D01*
X138200000Y-144752219D02*
X138342857Y-144799838D01*
X138342857Y-144799838D02*
X138438095Y-144895076D01*
X138438095Y-144895076D02*
X138485714Y-144990314D01*
X138485714Y-144990314D02*
X138533333Y-145180790D01*
X138533333Y-145180790D02*
X138533333Y-145323647D01*
X138533333Y-145323647D02*
X138485714Y-145514123D01*
X138485714Y-145514123D02*
X138438095Y-145609361D01*
X138438095Y-145609361D02*
X138342857Y-145704600D01*
X138342857Y-145704600D02*
X138200000Y-145752219D01*
X138200000Y-145752219D02*
X137961905Y-145752219D01*
X139533333Y-145656980D02*
X139485714Y-145704600D01*
X139485714Y-145704600D02*
X139342857Y-145752219D01*
X139342857Y-145752219D02*
X139247619Y-145752219D01*
X139247619Y-145752219D02*
X139104762Y-145704600D01*
X139104762Y-145704600D02*
X139009524Y-145609361D01*
X139009524Y-145609361D02*
X138961905Y-145514123D01*
X138961905Y-145514123D02*
X138914286Y-145323647D01*
X138914286Y-145323647D02*
X138914286Y-145180790D01*
X138914286Y-145180790D02*
X138961905Y-144990314D01*
X138961905Y-144990314D02*
X139009524Y-144895076D01*
X139009524Y-144895076D02*
X139104762Y-144799838D01*
X139104762Y-144799838D02*
X139247619Y-144752219D01*
X139247619Y-144752219D02*
X139342857Y-144752219D01*
X139342857Y-144752219D02*
X139485714Y-144799838D01*
X139485714Y-144799838D02*
X139533333Y-144847457D01*
X140485714Y-145752219D02*
X139914286Y-145752219D01*
X140200000Y-145752219D02*
X140200000Y-144752219D01*
X140200000Y-144752219D02*
X140104762Y-144895076D01*
X140104762Y-144895076D02*
X140009524Y-144990314D01*
X140009524Y-144990314D02*
X139914286Y-145037933D01*
D10*
X117491667Y-123069819D02*
X118063095Y-123069819D01*
X117777381Y-124069819D02*
X117777381Y-123069819D01*
X118396429Y-124069819D02*
X118396429Y-123069819D01*
X118396429Y-123069819D02*
X118729762Y-123784104D01*
X118729762Y-123784104D02*
X119063095Y-123069819D01*
X119063095Y-123069819D02*
X119063095Y-124069819D01*
X120110714Y-123974580D02*
X120063095Y-124022200D01*
X120063095Y-124022200D02*
X119920238Y-124069819D01*
X119920238Y-124069819D02*
X119825000Y-124069819D01*
X119825000Y-124069819D02*
X119682143Y-124022200D01*
X119682143Y-124022200D02*
X119586905Y-123926961D01*
X119586905Y-123926961D02*
X119539286Y-123831723D01*
X119539286Y-123831723D02*
X119491667Y-123641247D01*
X119491667Y-123641247D02*
X119491667Y-123498390D01*
X119491667Y-123498390D02*
X119539286Y-123307914D01*
X119539286Y-123307914D02*
X119586905Y-123212676D01*
X119586905Y-123212676D02*
X119682143Y-123117438D01*
X119682143Y-123117438D02*
X119825000Y-123069819D01*
X119825000Y-123069819D02*
X119920238Y-123069819D01*
X119920238Y-123069819D02*
X120063095Y-123117438D01*
X120063095Y-123117438D02*
X120110714Y-123165057D01*
X120967857Y-123403152D02*
X120967857Y-124069819D01*
X120729762Y-123022200D02*
X120491667Y-123736485D01*
X120491667Y-123736485D02*
X121110714Y-123736485D01*
D13*
X94780952Y-151704438D02*
X94780952Y-149704438D01*
X94780952Y-149704438D02*
X95447619Y-151133009D01*
X95447619Y-151133009D02*
X96114285Y-149704438D01*
X96114285Y-149704438D02*
X96114285Y-151704438D01*
X96971428Y-149894914D02*
X97066666Y-149799676D01*
X97066666Y-149799676D02*
X97257142Y-149704438D01*
X97257142Y-149704438D02*
X97733333Y-149704438D01*
X97733333Y-149704438D02*
X97923809Y-149799676D01*
X97923809Y-149799676D02*
X98019047Y-149894914D01*
X98019047Y-149894914D02*
X98114285Y-150085390D01*
X98114285Y-150085390D02*
X98114285Y-150275866D01*
X98114285Y-150275866D02*
X98019047Y-150561580D01*
X98019047Y-150561580D02*
X96876190Y-151704438D01*
X96876190Y-151704438D02*
X98114285Y-151704438D01*
D14*
%TO.C,C24*%
X137338748Y-138565000D02*
X137861252Y-138565000D01*
X137338748Y-140035000D02*
X137861252Y-140035000D01*
%TO.C,C23*%
X144238748Y-138365000D02*
X144761252Y-138365000D01*
X144238748Y-139835000D02*
X144761252Y-139835000D01*
%TO.C,U24*%
X107889416Y-88590000D02*
X107650000Y-88590000D01*
X107889416Y-93710000D02*
X107650000Y-93710000D01*
X111310584Y-88590000D02*
X111550000Y-88590000D01*
X111310584Y-93710000D02*
X111550000Y-93710000D01*
X112540000Y-93945000D02*
X112060000Y-93945000D01*
X112300000Y-93615000D01*
X112540000Y-93945000D01*
G36*
X112540000Y-93945000D02*
G01*
X112060000Y-93945000D01*
X112300000Y-93615000D01*
X112540000Y-93945000D01*
G37*
%TO.C,U23*%
X118823166Y-94595000D02*
X118583750Y-94595000D01*
X118823166Y-99715000D02*
X118583750Y-99715000D01*
X122244334Y-94595000D02*
X122483750Y-94595000D01*
X122244334Y-99715000D02*
X122483750Y-99715000D01*
X117833750Y-94690000D02*
X117593750Y-94360000D01*
X118073750Y-94360000D01*
X117833750Y-94690000D01*
G36*
X117833750Y-94690000D02*
G01*
X117593750Y-94360000D01*
X118073750Y-94360000D01*
X117833750Y-94690000D01*
G37*
%TO.C,U21*%
X118781916Y-107445000D02*
X118542500Y-107445000D01*
X118781916Y-112565000D02*
X118542500Y-112565000D01*
X122203084Y-107445000D02*
X122442500Y-107445000D01*
X122203084Y-112565000D02*
X122442500Y-112565000D01*
X117792500Y-107540000D02*
X117552500Y-107210000D01*
X118032500Y-107210000D01*
X117792500Y-107540000D01*
G36*
X117792500Y-107540000D02*
G01*
X117552500Y-107210000D01*
X118032500Y-107210000D01*
X117792500Y-107540000D01*
G37*
%TO.C,Q5*%
X146410000Y-144545000D02*
X145520000Y-144545000D01*
X145520000Y-144545000D02*
X145520000Y-142695000D01*
X148640000Y-144560000D02*
X148640000Y-142710000D01*
X148640000Y-144560000D02*
X147750000Y-144560000D01*
X148980000Y-142560000D02*
X148650000Y-142320000D01*
X148980000Y-142080000D01*
X148980000Y-142560000D01*
G36*
X148980000Y-142560000D02*
G01*
X148650000Y-142320000D01*
X148980000Y-142080000D01*
X148980000Y-142560000D01*
G37*
%TO.C,Q4*%
X139510000Y-144645000D02*
X138620000Y-144645000D01*
X138620000Y-144645000D02*
X138620000Y-142795000D01*
X141740000Y-144660000D02*
X141740000Y-142810000D01*
X141740000Y-144660000D02*
X140850000Y-144660000D01*
X142080000Y-142660000D02*
X141750000Y-142420000D01*
X142080000Y-142180000D01*
X142080000Y-142660000D01*
G36*
X142080000Y-142660000D02*
G01*
X141750000Y-142420000D01*
X142080000Y-142180000D01*
X142080000Y-142660000D01*
G37*
D15*
%TO.C,U25*%
X85400000Y-92050000D02*
X89800000Y-92050000D01*
X85400000Y-101750000D02*
X89800000Y-101750000D01*
D12*
X83200000Y-92675000D02*
G75*
G02*
X83000000Y-92675000I-100000J0D01*
G01*
X83000000Y-92675000D02*
G75*
G02*
X83200000Y-92675000I100000J0D01*
G01*
D14*
%TO.C,R56*%
X100945000Y-87022936D02*
X100945000Y-87477064D01*
X102415000Y-87022936D02*
X102415000Y-87477064D01*
%TO.C,R11*%
X109277064Y-140315000D02*
X108822936Y-140315000D01*
X109277064Y-141785000D02*
X108822936Y-141785000D01*
%TO.C,D4*%
X132565000Y-141300000D02*
X132565000Y-145185000D01*
X132565000Y-145185000D02*
X134835000Y-145185000D01*
X134835000Y-145185000D02*
X134835000Y-141300000D01*
%TO.C,R24*%
X155840000Y-93777064D02*
X155840000Y-92322936D01*
X157660000Y-93777064D02*
X157660000Y-92322936D01*
%TO.C,R54*%
X107645000Y-95572936D02*
X107645000Y-96027064D01*
X109115000Y-95572936D02*
X109115000Y-96027064D01*
%TO.C,C34*%
X109965000Y-110488748D02*
X109965000Y-111011252D01*
X111435000Y-110488748D02*
X111435000Y-111011252D01*
%TO.C,R73*%
X170377064Y-134615000D02*
X169922936Y-134615000D01*
X170377064Y-136085000D02*
X169922936Y-136085000D01*
%TO.C,R64*%
X108057064Y-86015000D02*
X107602936Y-86015000D01*
X108057064Y-87485000D02*
X107602936Y-87485000D01*
%TO.C,L3*%
X133111250Y-94350000D02*
X133111250Y-95950000D01*
X133111250Y-94350000D02*
X140731250Y-94350000D01*
X133111250Y-101470000D02*
X133111250Y-99870000D01*
X133111250Y-101470000D02*
X140731250Y-101470000D01*
X140731250Y-94350000D02*
X140731250Y-95950000D01*
X140731250Y-101470000D02*
X140731250Y-99870000D01*
%TO.C,C62*%
X81545000Y-94111252D02*
X81545000Y-93588748D01*
X83015000Y-94111252D02*
X83015000Y-93588748D01*
%TO.C,C36*%
X146265000Y-108311252D02*
X146265000Y-107788748D01*
X147735000Y-108311252D02*
X147735000Y-107788748D01*
%TO.C,R65*%
X83715000Y-104222936D02*
X83715000Y-104677064D01*
X85185000Y-104222936D02*
X85185000Y-104677064D01*
%TO.C,D3*%
X113965000Y-141300000D02*
X113965000Y-145185000D01*
X113965000Y-145185000D02*
X116235000Y-145185000D01*
X116235000Y-145185000D02*
X116235000Y-141300000D01*
%TO.C,U6*%
X138731000Y-123227538D02*
X137231000Y-123227538D01*
X138731000Y-123227538D02*
X140231000Y-123227538D01*
X138731000Y-126447538D02*
X137231000Y-126447538D01*
X138731000Y-126447538D02*
X140231000Y-126447538D01*
X141183500Y-126577538D02*
X140703500Y-126577538D01*
X140943500Y-126247538D01*
X141183500Y-126577538D01*
G36*
X141183500Y-126577538D02*
G01*
X140703500Y-126577538D01*
X140943500Y-126247538D01*
X141183500Y-126577538D01*
G37*
%TO.C,C60*%
X129766250Y-95608748D02*
X129766250Y-96131252D01*
X131236250Y-95608748D02*
X131236250Y-96131252D01*
%TO.C,C81*%
X155345000Y-108361252D02*
X155345000Y-107838748D01*
X156815000Y-108361252D02*
X156815000Y-107838748D01*
%TO.C,U3*%
X145515000Y-116590000D02*
X145790000Y-116590000D01*
X145515000Y-118900000D02*
X145515000Y-116590000D01*
X145515000Y-118900000D02*
X145515000Y-121210000D01*
X145515000Y-121210000D02*
X145790000Y-121210000D01*
X155435000Y-116590000D02*
X155160000Y-116590000D01*
X155435000Y-118900000D02*
X155435000Y-116590000D01*
X155435000Y-118900000D02*
X155435000Y-121210000D01*
X155435000Y-121210000D02*
X155160000Y-121210000D01*
X145790000Y-121800000D02*
X145460000Y-122040000D01*
X145460000Y-121560000D01*
X145790000Y-121800000D01*
G36*
X145790000Y-121800000D02*
G01*
X145460000Y-122040000D01*
X145460000Y-121560000D01*
X145790000Y-121800000D01*
G37*
%TO.C,D10*%
X95356500Y-131651625D02*
X95356500Y-135536625D01*
X95356500Y-135536625D02*
X97626500Y-135536625D01*
X97626500Y-135536625D02*
X97626500Y-131651625D01*
%TO.C,C32*%
X118625000Y-104998748D02*
X118625000Y-105521252D01*
X120095000Y-104998748D02*
X120095000Y-105521252D01*
%TO.C,DC5*%
X163440000Y-146090000D02*
X163440000Y-147340000D01*
X163740000Y-146390000D02*
X163740000Y-151110000D01*
X163740000Y-147700000D02*
X164350000Y-147700000D01*
X163740000Y-149000000D02*
X164350000Y-149000000D01*
X163740000Y-151110000D02*
X169860000Y-151110000D01*
X164350000Y-147000000D02*
X164350000Y-150500000D01*
X164350000Y-150500000D02*
X169250000Y-150500000D01*
X164690000Y-146090000D02*
X163440000Y-146090000D01*
X165200000Y-146190000D02*
X165200000Y-146390000D01*
X165500000Y-146190000D02*
X165200000Y-146190000D01*
X165500000Y-146290000D02*
X165200000Y-146290000D01*
X165500000Y-146390000D02*
X165500000Y-146190000D01*
X166300000Y-146390000D02*
X166300000Y-147000000D01*
X166300000Y-147000000D02*
X164350000Y-147000000D01*
X166700000Y-150000000D02*
X166900000Y-150000000D01*
X166700000Y-150500000D02*
X166700000Y-150000000D01*
X166800000Y-150500000D02*
X166800000Y-150000000D01*
X166900000Y-150000000D02*
X166900000Y-150500000D01*
X167300000Y-147000000D02*
X167300000Y-146390000D01*
X169250000Y-147000000D02*
X167300000Y-147000000D01*
X169250000Y-150500000D02*
X169250000Y-147000000D01*
X169860000Y-146390000D02*
X163740000Y-146390000D01*
X169860000Y-147700000D02*
X169250000Y-147700000D01*
X169860000Y-149000000D02*
X169250000Y-149000000D01*
X169860000Y-151110000D02*
X169860000Y-146390000D01*
%TO.C,R33*%
X72440000Y-109064564D02*
X72440000Y-107610436D01*
X74260000Y-109064564D02*
X74260000Y-107610436D01*
%TO.C,C33*%
X99565000Y-110518748D02*
X99565000Y-111041252D01*
X101035000Y-110518748D02*
X101035000Y-111041252D01*
%TO.C,R52*%
X129815000Y-100232064D02*
X129815000Y-99777936D01*
X131285000Y-100232064D02*
X131285000Y-99777936D01*
%TO.C,R13*%
X114365000Y-138189564D02*
X114365000Y-137735436D01*
X115835000Y-138189564D02*
X115835000Y-137735436D01*
%TO.C,DC4*%
X156540000Y-146090000D02*
X156540000Y-147340000D01*
X156840000Y-146390000D02*
X156840000Y-151110000D01*
X156840000Y-147700000D02*
X157450000Y-147700000D01*
X156840000Y-149000000D02*
X157450000Y-149000000D01*
X156840000Y-151110000D02*
X162960000Y-151110000D01*
X157450000Y-147000000D02*
X157450000Y-150500000D01*
X157450000Y-150500000D02*
X162350000Y-150500000D01*
X157790000Y-146090000D02*
X156540000Y-146090000D01*
X158300000Y-146190000D02*
X158300000Y-146390000D01*
X158600000Y-146190000D02*
X158300000Y-146190000D01*
X158600000Y-146290000D02*
X158300000Y-146290000D01*
X158600000Y-146390000D02*
X158600000Y-146190000D01*
X159400000Y-146390000D02*
X159400000Y-147000000D01*
X159400000Y-147000000D02*
X157450000Y-147000000D01*
X159800000Y-150000000D02*
X160000000Y-150000000D01*
X159800000Y-150500000D02*
X159800000Y-150000000D01*
X159900000Y-150500000D02*
X159900000Y-150000000D01*
X160000000Y-150000000D02*
X160000000Y-150500000D01*
X160400000Y-147000000D02*
X160400000Y-146390000D01*
X162350000Y-147000000D02*
X160400000Y-147000000D01*
X162350000Y-150500000D02*
X162350000Y-147000000D01*
X162960000Y-146390000D02*
X156840000Y-146390000D01*
X162960000Y-147700000D02*
X162350000Y-147700000D01*
X162960000Y-149000000D02*
X162350000Y-149000000D01*
X162960000Y-151110000D02*
X162960000Y-146390000D01*
%TO.C,SERVO2*%
X152690000Y-84240000D02*
X152690000Y-88960000D01*
X152690000Y-86350000D02*
X153300000Y-86350000D01*
X152690000Y-87650000D02*
X153300000Y-87650000D01*
X152690000Y-88960000D02*
X160810000Y-88960000D01*
X153300000Y-84850000D02*
X153300000Y-88350000D01*
X153300000Y-88350000D02*
X155250000Y-88350000D01*
X155250000Y-88350000D02*
X155250000Y-88960000D01*
X155650000Y-85350000D02*
X155650000Y-84850000D01*
X155750000Y-84850000D02*
X155750000Y-85350000D01*
X155850000Y-84850000D02*
X155850000Y-85350000D01*
X155850000Y-85350000D02*
X155650000Y-85350000D01*
X157650000Y-85350000D02*
X157650000Y-84850000D01*
X157750000Y-84850000D02*
X157750000Y-85350000D01*
X157850000Y-84850000D02*
X157850000Y-85350000D01*
X157850000Y-85350000D02*
X157650000Y-85350000D01*
X158250000Y-88350000D02*
X160200000Y-88350000D01*
X158250000Y-88960000D02*
X158250000Y-88350000D01*
X159050000Y-88960000D02*
X159050000Y-89160000D01*
X159050000Y-89060000D02*
X159350000Y-89060000D01*
X159050000Y-89160000D02*
X159350000Y-89160000D01*
X159350000Y-89160000D02*
X159350000Y-88960000D01*
X159860000Y-89260000D02*
X161110000Y-89260000D01*
X160200000Y-84850000D02*
X153300000Y-84850000D01*
X160200000Y-88350000D02*
X160200000Y-84850000D01*
X160810000Y-84240000D02*
X152690000Y-84240000D01*
X160810000Y-86350000D02*
X160200000Y-86350000D01*
X160810000Y-87650000D02*
X160200000Y-87650000D01*
X160810000Y-88960000D02*
X160810000Y-84240000D01*
X161110000Y-89260000D02*
X161110000Y-88010000D01*
%TO.C,R3*%
X77015000Y-147580436D02*
X77015000Y-148034564D01*
X78485000Y-147580436D02*
X78485000Y-148034564D01*
%TO.C,C49*%
X118698750Y-92243748D02*
X118698750Y-92766252D01*
X120168750Y-92243748D02*
X120168750Y-92766252D01*
%TO.C,R39*%
X129707500Y-113082064D02*
X129707500Y-112627936D01*
X131177500Y-113082064D02*
X131177500Y-112627936D01*
D15*
%TO.C,J2*%
X60931500Y-87233500D02*
X63381500Y-84433500D01*
X60931500Y-99933500D02*
X60931500Y-87233500D01*
X63381500Y-84433500D02*
X66581500Y-84433500D01*
X64481500Y-101183500D02*
X65481500Y-101183500D01*
X64981500Y-83683500D02*
X64981500Y-82683500D01*
X64981500Y-101683500D02*
X64981500Y-100683500D01*
X66581500Y-84433500D02*
X69031500Y-87233500D01*
X69031500Y-87233500D02*
X69031500Y-99933500D01*
X69031500Y-99933500D02*
X60931500Y-99933500D01*
D14*
%TO.C,M3*%
X98457500Y-146145000D02*
X98457500Y-147395000D01*
X98757500Y-146445000D02*
X98757500Y-151165000D01*
X98757500Y-147755000D02*
X99367500Y-147755000D01*
X98757500Y-149055000D02*
X99367500Y-149055000D01*
X98757500Y-151165000D02*
X112877500Y-151165000D01*
X99367500Y-147055000D02*
X99367500Y-150555000D01*
X99367500Y-150555000D02*
X112267500Y-150555000D01*
X99707500Y-146145000D02*
X98457500Y-146145000D01*
X100217500Y-146245000D02*
X100217500Y-146445000D01*
X100517500Y-146245000D02*
X100217500Y-146245000D01*
X100517500Y-146345000D02*
X100217500Y-146345000D01*
X100517500Y-146445000D02*
X100517500Y-146245000D01*
X101317500Y-146445000D02*
X101317500Y-147055000D01*
X101317500Y-147055000D02*
X99367500Y-147055000D01*
X101717500Y-150055000D02*
X101917500Y-150055000D01*
X101717500Y-150555000D02*
X101717500Y-150055000D01*
X101817500Y-150555000D02*
X101817500Y-150055000D01*
X101917500Y-150055000D02*
X101917500Y-150555000D01*
X103717500Y-150055000D02*
X103917500Y-150055000D01*
X103717500Y-150555000D02*
X103717500Y-150055000D01*
X103817500Y-150555000D02*
X103817500Y-150055000D01*
X103917500Y-150055000D02*
X103917500Y-150555000D01*
X105717500Y-150055000D02*
X105917500Y-150055000D01*
X105717500Y-150555000D02*
X105717500Y-150055000D01*
X105817500Y-150555000D02*
X105817500Y-150055000D01*
X105917500Y-150055000D02*
X105917500Y-150555000D01*
X107717500Y-150055000D02*
X107917500Y-150055000D01*
X107717500Y-150555000D02*
X107717500Y-150055000D01*
X107817500Y-150555000D02*
X107817500Y-150055000D01*
X107917500Y-150055000D02*
X107917500Y-150555000D01*
X109717500Y-150055000D02*
X109917500Y-150055000D01*
X109717500Y-150555000D02*
X109717500Y-150055000D01*
X109817500Y-150555000D02*
X109817500Y-150055000D01*
X109917500Y-150055000D02*
X109917500Y-150555000D01*
X110317500Y-147055000D02*
X110317500Y-146445000D01*
X112267500Y-147055000D02*
X110317500Y-147055000D01*
X112267500Y-150555000D02*
X112267500Y-147055000D01*
X112877500Y-146445000D02*
X98757500Y-146445000D01*
X112877500Y-147755000D02*
X112267500Y-147755000D01*
X112877500Y-149055000D02*
X112267500Y-149055000D01*
X112877500Y-151165000D02*
X112877500Y-146445000D01*
%TO.C,C56*%
X160615000Y-93461252D02*
X160615000Y-92938748D01*
X162085000Y-93461252D02*
X162085000Y-92938748D01*
%TO.C,TP1*%
X164700000Y-111750000D02*
G75*
G02*
X162300000Y-111750000I-1200000J0D01*
G01*
X162300000Y-111750000D02*
G75*
G02*
X164700000Y-111750000I1200000J0D01*
G01*
%TO.C,C79*%
X74765000Y-104661252D02*
X74765000Y-104138748D01*
X76235000Y-104661252D02*
X76235000Y-104138748D01*
%TO.C,D1*%
X76665000Y-141300000D02*
X76665000Y-145185000D01*
X76665000Y-145185000D02*
X78935000Y-145185000D01*
X78935000Y-145185000D02*
X78935000Y-141300000D01*
%TO.C,R57*%
X95765000Y-125977064D02*
X95765000Y-125522936D01*
X97235000Y-125977064D02*
X97235000Y-125522936D01*
%TO.C,GND*%
X72150000Y-86950000D02*
G75*
G02*
X69750000Y-86950000I-1200000J0D01*
G01*
X69750000Y-86950000D02*
G75*
G02*
X72150000Y-86950000I1200000J0D01*
G01*
%TO.C,R70*%
X162172936Y-89665000D02*
X162627064Y-89665000D01*
X162172936Y-91135000D02*
X162627064Y-91135000D01*
D15*
%TO.C,TMC2*%
X79580000Y-124647500D02*
X94820000Y-124647500D01*
X79580000Y-144967500D02*
X79580000Y-124647500D01*
X94820000Y-124647500D02*
X94820000Y-144967500D01*
X94820000Y-144967500D02*
X79580000Y-144967500D01*
D12*
X79100000Y-125917500D02*
G75*
G02*
X78900000Y-125917500I-100000J0D01*
G01*
X78900000Y-125917500D02*
G75*
G02*
X79100000Y-125917500I100000J0D01*
G01*
D14*
%TO.C,R66*%
X94927064Y-99765000D02*
X94472936Y-99765000D01*
X94927064Y-101235000D02*
X94472936Y-101235000D01*
%TO.C,DC6*%
X170340000Y-146090000D02*
X170340000Y-147340000D01*
X170640000Y-146390000D02*
X170640000Y-151110000D01*
X170640000Y-147700000D02*
X171250000Y-147700000D01*
X170640000Y-149000000D02*
X171250000Y-149000000D01*
X170640000Y-151110000D02*
X176760000Y-151110000D01*
X171250000Y-147000000D02*
X171250000Y-150500000D01*
X171250000Y-150500000D02*
X176150000Y-150500000D01*
X171590000Y-146090000D02*
X170340000Y-146090000D01*
X172100000Y-146190000D02*
X172100000Y-146390000D01*
X172400000Y-146190000D02*
X172100000Y-146190000D01*
X172400000Y-146290000D02*
X172100000Y-146290000D01*
X172400000Y-146390000D02*
X172400000Y-146190000D01*
X173200000Y-146390000D02*
X173200000Y-147000000D01*
X173200000Y-147000000D02*
X171250000Y-147000000D01*
X173600000Y-150000000D02*
X173800000Y-150000000D01*
X173600000Y-150500000D02*
X173600000Y-150000000D01*
X173700000Y-150500000D02*
X173700000Y-150000000D01*
X173800000Y-150000000D02*
X173800000Y-150500000D01*
X174200000Y-147000000D02*
X174200000Y-146390000D01*
X176150000Y-147000000D02*
X174200000Y-147000000D01*
X176150000Y-150500000D02*
X176150000Y-147000000D01*
X176760000Y-146390000D02*
X170640000Y-146390000D01*
X176760000Y-147700000D02*
X176150000Y-147700000D01*
X176760000Y-149000000D02*
X176150000Y-149000000D01*
X176760000Y-151110000D02*
X176760000Y-146390000D01*
%TO.C,J3*%
X61771500Y-101523500D02*
X61771500Y-102773500D01*
X62071500Y-101823500D02*
X62071500Y-106543500D01*
X62071500Y-103133500D02*
X62681500Y-103133500D01*
X62071500Y-104433500D02*
X62681500Y-104433500D01*
X62071500Y-106543500D02*
X68191500Y-106543500D01*
X62681500Y-102433500D02*
X62681500Y-105933500D01*
X62681500Y-105933500D02*
X67581500Y-105933500D01*
X63021500Y-101523500D02*
X61771500Y-101523500D01*
X63531500Y-101623500D02*
X63531500Y-101823500D01*
X63831500Y-101623500D02*
X63531500Y-101623500D01*
X63831500Y-101723500D02*
X63531500Y-101723500D01*
X63831500Y-101823500D02*
X63831500Y-101623500D01*
X64631500Y-101823500D02*
X64631500Y-102433500D01*
X64631500Y-102433500D02*
X62681500Y-102433500D01*
X65031500Y-105433500D02*
X65231500Y-105433500D01*
X65031500Y-105933500D02*
X65031500Y-105433500D01*
X65131500Y-105933500D02*
X65131500Y-105433500D01*
X65231500Y-105433500D02*
X65231500Y-105933500D01*
X65631500Y-102433500D02*
X65631500Y-101823500D01*
X67581500Y-102433500D02*
X65631500Y-102433500D01*
X67581500Y-105933500D02*
X67581500Y-102433500D01*
X68191500Y-101823500D02*
X62071500Y-101823500D01*
X68191500Y-103133500D02*
X67581500Y-103133500D01*
X68191500Y-104433500D02*
X67581500Y-104433500D01*
X68191500Y-106543500D02*
X68191500Y-101823500D01*
%TO.C,R10*%
X132915000Y-147580436D02*
X132915000Y-148034564D01*
X134385000Y-147580436D02*
X134385000Y-148034564D01*
%TO.C,R55*%
X133872936Y-117965000D02*
X134327064Y-117965000D01*
X133872936Y-119435000D02*
X134327064Y-119435000D01*
D15*
%TO.C,TMC3*%
X98182500Y-124647500D02*
X113422500Y-124647500D01*
X98182500Y-144967500D02*
X98182500Y-124647500D01*
X113422500Y-124647500D02*
X113422500Y-144967500D01*
X113422500Y-144967500D02*
X98182500Y-144967500D01*
D12*
X97702500Y-125917500D02*
G75*
G02*
X97502500Y-125917500I-100000J0D01*
G01*
X97502500Y-125917500D02*
G75*
G02*
X97702500Y-125917500I100000J0D01*
G01*
D14*
%TO.C,C82*%
X158355000Y-108361252D02*
X158355000Y-107838748D01*
X159825000Y-108361252D02*
X159825000Y-107838748D01*
%TO.C,R48*%
X120948750Y-92732064D02*
X120948750Y-92277936D01*
X122418750Y-92732064D02*
X122418750Y-92277936D01*
%TO.C,L1*%
X132950000Y-107250000D02*
X132950000Y-108850000D01*
X132950000Y-107250000D02*
X140570000Y-107250000D01*
X132950000Y-114370000D02*
X132950000Y-112770000D01*
X132950000Y-114370000D02*
X140570000Y-114370000D01*
X140570000Y-107250000D02*
X140570000Y-108850000D01*
X140570000Y-114370000D02*
X140570000Y-112770000D01*
D10*
%TO.C,U1*%
X151767500Y-129825000D02*
X151767500Y-133975000D01*
X151767500Y-129825000D02*
X152247500Y-129825000D01*
X151767500Y-133975000D02*
X152247500Y-133975000D01*
X161927500Y-129825000D02*
X161447500Y-129825000D01*
X161927500Y-129825000D02*
X161927500Y-133975000D01*
X161927500Y-133975000D02*
X161447500Y-133975000D01*
D14*
X161777500Y-129502500D02*
X161447500Y-129262500D01*
X161777500Y-129022500D01*
X161777500Y-129502500D01*
G36*
X161777500Y-129502500D02*
G01*
X161447500Y-129262500D01*
X161777500Y-129022500D01*
X161777500Y-129502500D01*
G37*
%TO.C,C77*%
X94438748Y-101865000D02*
X94961252Y-101865000D01*
X94438748Y-103335000D02*
X94961252Y-103335000D01*
%TO.C,U7*%
X138731000Y-133727538D02*
X137231000Y-133727538D01*
X138731000Y-133727538D02*
X140231000Y-133727538D01*
X138731000Y-136947538D02*
X137231000Y-136947538D01*
X138731000Y-136947538D02*
X140231000Y-136947538D01*
X141183500Y-137077538D02*
X140703500Y-137077538D01*
X140943500Y-136747538D01*
X141183500Y-137077538D01*
G36*
X141183500Y-137077538D02*
G01*
X140703500Y-137077538D01*
X140943500Y-136747538D01*
X141183500Y-137077538D01*
G37*
%TO.C,H-M1*%
X59990000Y-109040000D02*
X59990000Y-115160000D01*
X59990000Y-115160000D02*
X64710000Y-115160000D01*
X60600000Y-109650000D02*
X60600000Y-114550000D01*
X60600000Y-112000000D02*
X61100000Y-112000000D01*
X60600000Y-112100000D02*
X61100000Y-112100000D01*
X60600000Y-114550000D02*
X64100000Y-114550000D01*
X61100000Y-112000000D02*
X61100000Y-112200000D01*
X61100000Y-112200000D02*
X60600000Y-112200000D01*
X62100000Y-109040000D02*
X62100000Y-109650000D01*
X62100000Y-115160000D02*
X62100000Y-114550000D01*
X63400000Y-109040000D02*
X63400000Y-109650000D01*
X63400000Y-115160000D02*
X63400000Y-114550000D01*
X64100000Y-109650000D02*
X60600000Y-109650000D01*
X64100000Y-111600000D02*
X64100000Y-109650000D01*
X64100000Y-112600000D02*
X64710000Y-112600000D01*
X64100000Y-114550000D02*
X64100000Y-112600000D01*
X64710000Y-109040000D02*
X59990000Y-109040000D01*
X64710000Y-110800000D02*
X64910000Y-110800000D01*
X64710000Y-111600000D02*
X64100000Y-111600000D01*
X64710000Y-115160000D02*
X64710000Y-109040000D01*
X64810000Y-110800000D02*
X64810000Y-110500000D01*
X64910000Y-110500000D02*
X64710000Y-110500000D01*
X64910000Y-110800000D02*
X64910000Y-110500000D01*
X65010000Y-108740000D02*
X63760000Y-108740000D01*
X65010000Y-109990000D02*
X65010000Y-108740000D01*
%TO.C,R72*%
X170289564Y-132165000D02*
X169835436Y-132165000D01*
X170289564Y-133635000D02*
X169835436Y-133635000D01*
%TO.C,R44*%
X114465000Y-127960436D02*
X114465000Y-128414564D01*
X115935000Y-127960436D02*
X115935000Y-128414564D01*
%TO.C,C54*%
X153615000Y-93461252D02*
X153615000Y-92938748D01*
X155085000Y-93461252D02*
X155085000Y-92938748D01*
%TO.C,M4*%
X116980000Y-146135000D02*
X116980000Y-147385000D01*
X117280000Y-146435000D02*
X117280000Y-151155000D01*
X117280000Y-147745000D02*
X117890000Y-147745000D01*
X117280000Y-149045000D02*
X117890000Y-149045000D01*
X117280000Y-151155000D02*
X131400000Y-151155000D01*
X117890000Y-147045000D02*
X117890000Y-150545000D01*
X117890000Y-150545000D02*
X130790000Y-150545000D01*
X118230000Y-146135000D02*
X116980000Y-146135000D01*
X118740000Y-146235000D02*
X118740000Y-146435000D01*
X119040000Y-146235000D02*
X118740000Y-146235000D01*
X119040000Y-146335000D02*
X118740000Y-146335000D01*
X119040000Y-146435000D02*
X119040000Y-146235000D01*
X119840000Y-146435000D02*
X119840000Y-147045000D01*
X119840000Y-147045000D02*
X117890000Y-147045000D01*
X120240000Y-150045000D02*
X120440000Y-150045000D01*
X120240000Y-150545000D02*
X120240000Y-150045000D01*
X120340000Y-150545000D02*
X120340000Y-150045000D01*
X120440000Y-150045000D02*
X120440000Y-150545000D01*
X122240000Y-150045000D02*
X122440000Y-150045000D01*
X122240000Y-150545000D02*
X122240000Y-150045000D01*
X122340000Y-150545000D02*
X122340000Y-150045000D01*
X122440000Y-150045000D02*
X122440000Y-150545000D01*
X124240000Y-150045000D02*
X124440000Y-150045000D01*
X124240000Y-150545000D02*
X124240000Y-150045000D01*
X124340000Y-150545000D02*
X124340000Y-150045000D01*
X124440000Y-150045000D02*
X124440000Y-150545000D01*
X126240000Y-150045000D02*
X126440000Y-150045000D01*
X126240000Y-150545000D02*
X126240000Y-150045000D01*
X126340000Y-150545000D02*
X126340000Y-150045000D01*
X126440000Y-150045000D02*
X126440000Y-150545000D01*
X128240000Y-150045000D02*
X128440000Y-150045000D01*
X128240000Y-150545000D02*
X128240000Y-150045000D01*
X128340000Y-150545000D02*
X128340000Y-150045000D01*
X128440000Y-150045000D02*
X128440000Y-150545000D01*
X128840000Y-147045000D02*
X128840000Y-146435000D01*
X130790000Y-147045000D02*
X128840000Y-147045000D01*
X130790000Y-150545000D02*
X130790000Y-147045000D01*
X131400000Y-146435000D02*
X117280000Y-146435000D01*
X131400000Y-147745000D02*
X130790000Y-147745000D01*
X131400000Y-149045000D02*
X130790000Y-149045000D01*
X131400000Y-151155000D02*
X131400000Y-146435000D01*
%TO.C,R63*%
X81633750Y-100672936D02*
X81633750Y-101127064D01*
X83103750Y-100672936D02*
X83103750Y-101127064D01*
%TO.C,R34*%
X146640000Y-93777064D02*
X146640000Y-92322936D01*
X148460000Y-93777064D02*
X148460000Y-92322936D01*
%TO.C,C59*%
X126622498Y-96370000D02*
X127145002Y-96370000D01*
X126622498Y-97840000D02*
X127145002Y-97840000D01*
%TO.C,R32*%
X167022936Y-113240000D02*
X168477064Y-113240000D01*
X167022936Y-115060000D02*
X168477064Y-115060000D01*
%TO.C,C3*%
X101540000Y-130547500D02*
X104290000Y-130547500D01*
X101540000Y-138003063D02*
X101540000Y-130547500D01*
X102604437Y-139067500D02*
X101540000Y-138003063D01*
X102604437Y-139067500D02*
X104290000Y-139067500D01*
X102790000Y-139807500D02*
X103790000Y-139807500D01*
X103290000Y-140307500D02*
X103290000Y-139307500D01*
X108995563Y-139067500D02*
X107310000Y-139067500D01*
X108995563Y-139067500D02*
X110060000Y-138003063D01*
X110060000Y-130547500D02*
X107310000Y-130547500D01*
X110060000Y-138003063D02*
X110060000Y-130547500D01*
%TO.C,R36*%
X167765000Y-108327064D02*
X167765000Y-107872936D01*
X169235000Y-108327064D02*
X169235000Y-107872936D01*
%TO.C,C83*%
X161365000Y-108361252D02*
X161365000Y-107838748D01*
X162835000Y-108361252D02*
X162835000Y-107838748D01*
%TO.C,R1*%
X173322936Y-86415000D02*
X173777064Y-86415000D01*
X173322936Y-87885000D02*
X173777064Y-87885000D01*
%TO.C,C4*%
X120140000Y-130547500D02*
X122890000Y-130547500D01*
X120140000Y-138003063D02*
X120140000Y-130547500D01*
X121204437Y-139067500D02*
X120140000Y-138003063D01*
X121204437Y-139067500D02*
X122890000Y-139067500D01*
X121390000Y-139807500D02*
X122390000Y-139807500D01*
X121890000Y-140307500D02*
X121890000Y-139307500D01*
X127595563Y-139067500D02*
X125910000Y-139067500D01*
X127595563Y-139067500D02*
X128660000Y-138003063D01*
X128660000Y-130547500D02*
X125910000Y-130547500D01*
X128660000Y-138003063D02*
X128660000Y-130547500D01*
%TO.C,R68*%
X135372936Y-89865000D02*
X135827064Y-89865000D01*
X135372936Y-91335000D02*
X135827064Y-91335000D01*
%TO.C,R14*%
X132965000Y-138177064D02*
X132965000Y-137722936D01*
X134435000Y-138177064D02*
X134435000Y-137722936D01*
%TO.C,U5*%
X138731000Y-126727538D02*
X137231000Y-126727538D01*
X138731000Y-126727538D02*
X140231000Y-126727538D01*
X138731000Y-129947538D02*
X137231000Y-129947538D01*
X138731000Y-129947538D02*
X140231000Y-129947538D01*
X141183500Y-130077538D02*
X140703500Y-130077538D01*
X140943500Y-129747538D01*
X141183500Y-130077538D01*
G36*
X141183500Y-130077538D02*
G01*
X140703500Y-130077538D01*
X140943500Y-129747538D01*
X141183500Y-130077538D01*
G37*
%TO.C,C39*%
X152285000Y-108311252D02*
X152285000Y-107788748D01*
X153755000Y-108311252D02*
X153755000Y-107788748D01*
%TO.C,R37*%
X127607500Y-113082064D02*
X127607500Y-112627936D01*
X129077500Y-113082064D02*
X129077500Y-112627936D01*
%TO.C,C63*%
X110045000Y-96061252D02*
X110045000Y-95538748D01*
X111515000Y-96061252D02*
X111515000Y-95538748D01*
%TO.C,R31*%
X165040000Y-93777064D02*
X165040000Y-92322936D01*
X166860000Y-93777064D02*
X166860000Y-92322936D01*
%TO.C,DC_U5*%
X165240000Y-142150000D02*
X165240000Y-141350000D01*
X165240000Y-142150000D02*
X165240000Y-142950000D01*
X168360000Y-142150000D02*
X168360000Y-141350000D01*
X168360000Y-142150000D02*
X168360000Y-142950000D01*
X165290000Y-143450000D02*
X164960000Y-143690000D01*
X164960000Y-143210000D01*
X165290000Y-143450000D01*
G36*
X165290000Y-143450000D02*
G01*
X164960000Y-143690000D01*
X164960000Y-143210000D01*
X165290000Y-143450000D01*
G37*
%TO.C,C55*%
X158415000Y-93461252D02*
X158415000Y-92938748D01*
X159885000Y-93461252D02*
X159885000Y-92938748D01*
%TO.C,C58*%
X118288748Y-100465000D02*
X118811252Y-100465000D01*
X118288748Y-101935000D02*
X118811252Y-101935000D01*
%TO.C,J5*%
X172890000Y-98890000D02*
X176540000Y-98890000D01*
X172890000Y-102040000D02*
X172890000Y-98890000D01*
X172890000Y-135510000D02*
X172890000Y-133360000D01*
X176540000Y-98440000D02*
X178260000Y-98440000D01*
X176540000Y-98890000D02*
X176540000Y-98440000D01*
X176540000Y-135510000D02*
X172890000Y-135510000D01*
X176540000Y-135960000D02*
X176540000Y-135510000D01*
X178260000Y-98440000D02*
X178260000Y-135960000D01*
X178260000Y-135960000D02*
X176540000Y-135960000D01*
X173240000Y-132750000D02*
X172760000Y-132750000D01*
X173000000Y-132420000D01*
X173240000Y-132750000D01*
G36*
X173240000Y-132750000D02*
G01*
X172760000Y-132750000D01*
X173000000Y-132420000D01*
X173240000Y-132750000D01*
G37*
%TO.C,R8*%
X95765000Y-138177064D02*
X95765000Y-137722936D01*
X97235000Y-138177064D02*
X97235000Y-137722936D01*
D10*
%TO.C,U2*%
X77825000Y-107275000D02*
X77825000Y-107500000D01*
X77825000Y-107275000D02*
X83575000Y-107275000D01*
X77825000Y-115925000D02*
X77825000Y-115700000D01*
X77825000Y-115925000D02*
X83575000Y-115925000D01*
X83575000Y-107275000D02*
X83575000Y-107500000D01*
X83575000Y-115925000D02*
X83575000Y-115700000D01*
D14*
X77325000Y-107525000D02*
X77085000Y-107195000D01*
X77565000Y-107195000D01*
X77325000Y-107525000D01*
G36*
X77325000Y-107525000D02*
G01*
X77085000Y-107195000D01*
X77565000Y-107195000D01*
X77325000Y-107525000D01*
G37*
%TO.C,LED1*%
X172840000Y-95710000D02*
X172840000Y-96960000D01*
X172840000Y-96960000D02*
X174090000Y-96960000D01*
X172940000Y-94900000D02*
X172940000Y-95200000D01*
X172940000Y-95200000D02*
X173140000Y-95200000D01*
X173040000Y-94900000D02*
X173040000Y-95200000D01*
X173140000Y-88540000D02*
X173140000Y-96660000D01*
X173140000Y-94100000D02*
X173750000Y-94100000D01*
X173140000Y-94900000D02*
X172940000Y-94900000D01*
X173140000Y-96660000D02*
X177860000Y-96660000D01*
X173750000Y-89150000D02*
X173750000Y-91100000D01*
X173750000Y-91100000D02*
X173140000Y-91100000D01*
X173750000Y-94100000D02*
X173750000Y-96050000D01*
X173750000Y-96050000D02*
X177250000Y-96050000D01*
X174450000Y-88540000D02*
X174450000Y-89150000D01*
X174450000Y-96660000D02*
X174450000Y-96050000D01*
X175750000Y-88540000D02*
X175750000Y-89150000D01*
X175750000Y-96660000D02*
X175750000Y-96050000D01*
X176750000Y-91500000D02*
X177250000Y-91500000D01*
X176750000Y-91700000D02*
X176750000Y-91500000D01*
X176750000Y-93500000D02*
X177250000Y-93500000D01*
X176750000Y-93700000D02*
X176750000Y-93500000D01*
X177250000Y-89150000D02*
X173750000Y-89150000D01*
X177250000Y-91600000D02*
X176750000Y-91600000D01*
X177250000Y-91700000D02*
X176750000Y-91700000D01*
X177250000Y-93600000D02*
X176750000Y-93600000D01*
X177250000Y-93700000D02*
X176750000Y-93700000D01*
X177250000Y-96050000D02*
X177250000Y-89150000D01*
X177860000Y-88540000D02*
X173140000Y-88540000D01*
X177860000Y-96660000D02*
X177860000Y-88540000D01*
%TO.C,C42*%
X129707500Y-108593748D02*
X129707500Y-109116252D01*
X131177500Y-108593748D02*
X131177500Y-109116252D01*
%TO.C,R9*%
X114315000Y-147580436D02*
X114315000Y-148034564D01*
X115785000Y-147580436D02*
X115785000Y-148034564D01*
%TO.C,Q1*%
X168352500Y-91600000D02*
X168352500Y-90950000D01*
X168352500Y-91600000D02*
X168352500Y-92250000D01*
X171472500Y-91600000D02*
X171472500Y-90950000D01*
X171472500Y-91600000D02*
X171472500Y-92250000D01*
X171752500Y-90677500D02*
X171422500Y-90437500D01*
X171752500Y-90197500D01*
X171752500Y-90677500D01*
G36*
X171752500Y-90677500D02*
G01*
X171422500Y-90437500D01*
X171752500Y-90197500D01*
X171752500Y-90677500D01*
G37*
%TO.C,R35*%
X120875000Y-105487064D02*
X120875000Y-105032936D01*
X122345000Y-105487064D02*
X122345000Y-105032936D01*
%TO.C,SERVO1*%
X161890000Y-84240000D02*
X161890000Y-88960000D01*
X161890000Y-86350000D02*
X162500000Y-86350000D01*
X161890000Y-87650000D02*
X162500000Y-87650000D01*
X161890000Y-88960000D02*
X170010000Y-88960000D01*
X162500000Y-84850000D02*
X162500000Y-88350000D01*
X162500000Y-88350000D02*
X164450000Y-88350000D01*
X164450000Y-88350000D02*
X164450000Y-88960000D01*
X164850000Y-85350000D02*
X164850000Y-84850000D01*
X164950000Y-84850000D02*
X164950000Y-85350000D01*
X165050000Y-84850000D02*
X165050000Y-85350000D01*
X165050000Y-85350000D02*
X164850000Y-85350000D01*
X166850000Y-85350000D02*
X166850000Y-84850000D01*
X166950000Y-84850000D02*
X166950000Y-85350000D01*
X167050000Y-84850000D02*
X167050000Y-85350000D01*
X167050000Y-85350000D02*
X166850000Y-85350000D01*
X167450000Y-88350000D02*
X169400000Y-88350000D01*
X167450000Y-88960000D02*
X167450000Y-88350000D01*
X168250000Y-88960000D02*
X168250000Y-89160000D01*
X168250000Y-89060000D02*
X168550000Y-89060000D01*
X168250000Y-89160000D02*
X168550000Y-89160000D01*
X168550000Y-89160000D02*
X168550000Y-88960000D01*
X169060000Y-89260000D02*
X170310000Y-89260000D01*
X169400000Y-84850000D02*
X162500000Y-84850000D01*
X169400000Y-88350000D02*
X169400000Y-84850000D01*
X170010000Y-84240000D02*
X161890000Y-84240000D01*
X170010000Y-86350000D02*
X169400000Y-86350000D01*
X170010000Y-87650000D02*
X169400000Y-87650000D01*
X170010000Y-88960000D02*
X170010000Y-84240000D01*
X170310000Y-89260000D02*
X170310000Y-88010000D01*
%TO.C,DC_U3*%
X151440000Y-142162500D02*
X151440000Y-141362500D01*
X151440000Y-142162500D02*
X151440000Y-142962500D01*
X154560000Y-142162500D02*
X154560000Y-141362500D01*
X154560000Y-142162500D02*
X154560000Y-142962500D01*
X151490000Y-143462500D02*
X151160000Y-143702500D01*
X151160000Y-143222500D01*
X151490000Y-143462500D01*
G36*
X151490000Y-143462500D02*
G01*
X151160000Y-143702500D01*
X151160000Y-143222500D01*
X151490000Y-143462500D01*
G37*
%TO.C,C47*%
X110065000Y-99888748D02*
X110065000Y-100411252D01*
X111535000Y-99888748D02*
X111535000Y-100411252D01*
%TO.C,R61*%
X95753250Y-129012061D02*
X95753250Y-129466189D01*
X97223250Y-129012061D02*
X97223250Y-129466189D01*
%TO.C,SDA1*%
X159800000Y-122800000D02*
G75*
G02*
X158400000Y-122800000I-700000J0D01*
G01*
X158400000Y-122800000D02*
G75*
G02*
X159800000Y-122800000I700000J0D01*
G01*
%TO.C,C52*%
X151415000Y-93461252D02*
X151415000Y-92938748D01*
X152885000Y-93461252D02*
X152885000Y-92938748D01*
%TO.C,DC3*%
X149640000Y-146090000D02*
X149640000Y-147340000D01*
X149940000Y-146390000D02*
X149940000Y-151110000D01*
X149940000Y-147700000D02*
X150550000Y-147700000D01*
X149940000Y-149000000D02*
X150550000Y-149000000D01*
X149940000Y-151110000D02*
X156060000Y-151110000D01*
X150550000Y-147000000D02*
X150550000Y-150500000D01*
X150550000Y-150500000D02*
X155450000Y-150500000D01*
X150890000Y-146090000D02*
X149640000Y-146090000D01*
X151400000Y-146190000D02*
X151400000Y-146390000D01*
X151700000Y-146190000D02*
X151400000Y-146190000D01*
X151700000Y-146290000D02*
X151400000Y-146290000D01*
X151700000Y-146390000D02*
X151700000Y-146190000D01*
X152500000Y-146390000D02*
X152500000Y-147000000D01*
X152500000Y-147000000D02*
X150550000Y-147000000D01*
X152900000Y-150000000D02*
X153100000Y-150000000D01*
X152900000Y-150500000D02*
X152900000Y-150000000D01*
X153000000Y-150500000D02*
X153000000Y-150000000D01*
X153100000Y-150000000D02*
X153100000Y-150500000D01*
X153500000Y-147000000D02*
X153500000Y-146390000D01*
X155450000Y-147000000D02*
X153500000Y-147000000D01*
X155450000Y-150500000D02*
X155450000Y-147000000D01*
X156060000Y-146390000D02*
X149940000Y-146390000D01*
X156060000Y-147700000D02*
X155450000Y-147700000D01*
X156060000Y-149000000D02*
X155450000Y-149000000D01*
X156060000Y-151110000D02*
X156060000Y-146390000D01*
%TO.C,R47*%
X98922936Y-104915000D02*
X99377064Y-104915000D01*
X98922936Y-106385000D02*
X99377064Y-106385000D01*
%TO.C,C40*%
X118238748Y-113465000D02*
X118761252Y-113465000D01*
X118238748Y-114935000D02*
X118761252Y-114935000D01*
%TO.C,R74*%
X170915000Y-94372936D02*
X170915000Y-94827064D01*
X172385000Y-94372936D02*
X172385000Y-94827064D01*
%TO.C,R43*%
X103627064Y-100615000D02*
X103172936Y-100615000D01*
X103627064Y-102085000D02*
X103172936Y-102085000D01*
%TO.C,D8*%
X168215000Y-94765000D02*
X168215000Y-98650000D01*
X170485000Y-94765000D02*
X168215000Y-94765000D01*
X170485000Y-98650000D02*
X170485000Y-94765000D01*
%TO.C,J4*%
X65895000Y-109030000D02*
X67275000Y-109030000D01*
X65895000Y-110410000D02*
X65895000Y-109030000D01*
X65895000Y-111680000D02*
X65895000Y-116870000D01*
X65895000Y-111680000D02*
X68545000Y-111680000D01*
X65895000Y-116870000D02*
X71195000Y-116870000D01*
X68545000Y-109030000D02*
X71195000Y-109030000D01*
X68545000Y-111680000D02*
X68545000Y-109030000D01*
X71195000Y-109030000D02*
X71195000Y-116870000D01*
%TO.C,R62*%
X98745000Y-87022936D02*
X98745000Y-87477064D01*
X100215000Y-87022936D02*
X100215000Y-87477064D01*
%TO.C,R6*%
X90677064Y-140365000D02*
X90222936Y-140365000D01*
X90677064Y-141835000D02*
X90222936Y-141835000D01*
%TO.C,D7*%
X114055000Y-130637500D02*
X114055000Y-134522500D01*
X114055000Y-134522500D02*
X116325000Y-134522500D01*
X116325000Y-134522500D02*
X116325000Y-130637500D01*
%TO.C,R58*%
X103407064Y-91615000D02*
X102952936Y-91615000D01*
X103407064Y-93085000D02*
X102952936Y-93085000D01*
%TO.C,R40*%
X114565000Y-121427064D02*
X114565000Y-120972936D01*
X116035000Y-121427064D02*
X116035000Y-120972936D01*
%TO.C,C84*%
X164375000Y-108361252D02*
X164375000Y-107838748D01*
X165845000Y-108361252D02*
X165845000Y-107838748D01*
%TO.C,DSW1*%
X144320000Y-126600000D02*
X144900000Y-126600000D01*
X144900000Y-125950000D02*
X144900000Y-126600000D01*
X144900000Y-125950000D02*
X150420000Y-125950000D01*
X144900000Y-137500000D02*
X144900000Y-136790000D01*
X144900000Y-137500000D02*
X150420000Y-137500000D01*
X150420000Y-125950000D02*
X150420000Y-126660000D01*
X150420000Y-137500000D02*
X150420000Y-136790000D01*
%TO.C,R75*%
X172222936Y-84115000D02*
X172677064Y-84115000D01*
X172222936Y-85585000D02*
X172677064Y-85585000D01*
%TO.C,R12*%
X127877064Y-140315000D02*
X127422936Y-140315000D01*
X127877064Y-141785000D02*
X127422936Y-141785000D01*
%TO.C,C48*%
X99411252Y-102815000D02*
X98888748Y-102815000D01*
X99411252Y-104285000D02*
X98888748Y-104285000D01*
%TO.C,C76*%
X81615000Y-104711252D02*
X81615000Y-104188748D01*
X83085000Y-104711252D02*
X83085000Y-104188748D01*
%TO.C,C37*%
X125407500Y-113116252D02*
X125407500Y-112593748D01*
X126877500Y-113116252D02*
X126877500Y-112593748D01*
%TO.C,D6*%
X168665000Y-101715000D02*
X168665000Y-105600000D01*
X170935000Y-101715000D02*
X168665000Y-101715000D01*
X170935000Y-105600000D02*
X170935000Y-101715000D01*
%TO.C,R71*%
X169777064Y-129815000D02*
X169322936Y-129815000D01*
X169777064Y-131285000D02*
X169322936Y-131285000D01*
%TO.C,SERVO4*%
X134290000Y-84240000D02*
X134290000Y-88960000D01*
X134290000Y-86350000D02*
X134900000Y-86350000D01*
X134290000Y-87650000D02*
X134900000Y-87650000D01*
X134290000Y-88960000D02*
X142410000Y-88960000D01*
X134900000Y-84850000D02*
X134900000Y-88350000D01*
X134900000Y-88350000D02*
X136850000Y-88350000D01*
X136850000Y-88350000D02*
X136850000Y-88960000D01*
X137250000Y-85350000D02*
X137250000Y-84850000D01*
X137350000Y-84850000D02*
X137350000Y-85350000D01*
X137450000Y-84850000D02*
X137450000Y-85350000D01*
X137450000Y-85350000D02*
X137250000Y-85350000D01*
X139250000Y-85350000D02*
X139250000Y-84850000D01*
X139350000Y-84850000D02*
X139350000Y-85350000D01*
X139450000Y-84850000D02*
X139450000Y-85350000D01*
X139450000Y-85350000D02*
X139250000Y-85350000D01*
X139850000Y-88350000D02*
X141800000Y-88350000D01*
X139850000Y-88960000D02*
X139850000Y-88350000D01*
X140650000Y-88960000D02*
X140650000Y-89160000D01*
X140650000Y-89060000D02*
X140950000Y-89060000D01*
X140650000Y-89160000D02*
X140950000Y-89160000D01*
X140950000Y-89160000D02*
X140950000Y-88960000D01*
X141460000Y-89260000D02*
X142710000Y-89260000D01*
X141800000Y-84850000D02*
X134900000Y-84850000D01*
X141800000Y-88350000D02*
X141800000Y-84850000D01*
X142410000Y-84240000D02*
X134290000Y-84240000D01*
X142410000Y-86350000D02*
X141800000Y-86350000D01*
X142410000Y-87650000D02*
X141800000Y-87650000D01*
X142410000Y-88960000D02*
X142410000Y-84240000D01*
X142710000Y-89260000D02*
X142710000Y-88010000D01*
%TO.C,R46*%
X107965000Y-100377064D02*
X107965000Y-99922936D01*
X109435000Y-100377064D02*
X109435000Y-99922936D01*
%TO.C,C80*%
X77165000Y-104661252D02*
X77165000Y-104138748D01*
X78635000Y-104661252D02*
X78635000Y-104138748D01*
%TO.C,DC2*%
X142740000Y-146090000D02*
X142740000Y-147340000D01*
X143040000Y-146390000D02*
X143040000Y-151110000D01*
X143040000Y-147700000D02*
X143650000Y-147700000D01*
X143040000Y-149000000D02*
X143650000Y-149000000D01*
X143040000Y-151110000D02*
X149160000Y-151110000D01*
X143650000Y-147000000D02*
X143650000Y-150500000D01*
X143650000Y-150500000D02*
X148550000Y-150500000D01*
X143990000Y-146090000D02*
X142740000Y-146090000D01*
X144500000Y-146190000D02*
X144500000Y-146390000D01*
X144800000Y-146190000D02*
X144500000Y-146190000D01*
X144800000Y-146290000D02*
X144500000Y-146290000D01*
X144800000Y-146390000D02*
X144800000Y-146190000D01*
X145600000Y-146390000D02*
X145600000Y-147000000D01*
X145600000Y-147000000D02*
X143650000Y-147000000D01*
X146000000Y-150000000D02*
X146200000Y-150000000D01*
X146000000Y-150500000D02*
X146000000Y-150000000D01*
X146100000Y-150500000D02*
X146100000Y-150000000D01*
X146200000Y-150000000D02*
X146200000Y-150500000D01*
X146600000Y-147000000D02*
X146600000Y-146390000D01*
X148550000Y-147000000D02*
X146600000Y-147000000D01*
X148550000Y-150500000D02*
X148550000Y-147000000D01*
X149160000Y-146390000D02*
X143040000Y-146390000D01*
X149160000Y-147700000D02*
X148550000Y-147700000D01*
X149160000Y-149000000D02*
X148550000Y-149000000D01*
X149160000Y-151110000D02*
X149160000Y-146390000D01*
%TO.C,C12*%
X164515000Y-133688748D02*
X164515000Y-134211252D01*
X165985000Y-133688748D02*
X165985000Y-134211252D01*
%TO.C,C2*%
X82940000Y-130597500D02*
X85690000Y-130597500D01*
X82940000Y-138053063D02*
X82940000Y-130597500D01*
X84004437Y-139117500D02*
X82940000Y-138053063D01*
X84004437Y-139117500D02*
X85690000Y-139117500D01*
X84190000Y-139857500D02*
X85190000Y-139857500D01*
X84690000Y-140357500D02*
X84690000Y-139357500D01*
X90395563Y-139117500D02*
X88710000Y-139117500D01*
X90395563Y-139117500D02*
X91460000Y-138053063D01*
X91460000Y-130597500D02*
X88710000Y-130597500D01*
X91460000Y-138053063D02*
X91460000Y-130597500D01*
%TO.C,R2*%
X176965000Y-85472936D02*
X176965000Y-85927064D01*
X178435000Y-85472936D02*
X178435000Y-85927064D01*
%TO.C,TP3*%
X165200000Y-100900000D02*
G75*
G02*
X162800000Y-100900000I-1200000J0D01*
G01*
X162800000Y-100900000D02*
G75*
G02*
X165200000Y-100900000I1200000J0D01*
G01*
%TO.C,C20*%
X166615000Y-136338748D02*
X166615000Y-136861252D01*
X168085000Y-136338748D02*
X168085000Y-136861252D01*
%TO.C,M1*%
X61090000Y-146115000D02*
X61090000Y-147365000D01*
X61390000Y-146415000D02*
X61390000Y-151135000D01*
X61390000Y-147725000D02*
X62000000Y-147725000D01*
X61390000Y-149025000D02*
X62000000Y-149025000D01*
X61390000Y-151135000D02*
X75510000Y-151135000D01*
X62000000Y-147025000D02*
X62000000Y-150525000D01*
X62000000Y-150525000D02*
X74900000Y-150525000D01*
X62340000Y-146115000D02*
X61090000Y-146115000D01*
X62850000Y-146215000D02*
X62850000Y-146415000D01*
X63150000Y-146215000D02*
X62850000Y-146215000D01*
X63150000Y-146315000D02*
X62850000Y-146315000D01*
X63150000Y-146415000D02*
X63150000Y-146215000D01*
X63950000Y-146415000D02*
X63950000Y-147025000D01*
X63950000Y-147025000D02*
X62000000Y-147025000D01*
X64350000Y-150025000D02*
X64550000Y-150025000D01*
X64350000Y-150525000D02*
X64350000Y-150025000D01*
X64450000Y-150525000D02*
X64450000Y-150025000D01*
X64550000Y-150025000D02*
X64550000Y-150525000D01*
X66350000Y-150025000D02*
X66550000Y-150025000D01*
X66350000Y-150525000D02*
X66350000Y-150025000D01*
X66450000Y-150525000D02*
X66450000Y-150025000D01*
X66550000Y-150025000D02*
X66550000Y-150525000D01*
X68350000Y-150025000D02*
X68550000Y-150025000D01*
X68350000Y-150525000D02*
X68350000Y-150025000D01*
X68450000Y-150525000D02*
X68450000Y-150025000D01*
X68550000Y-150025000D02*
X68550000Y-150525000D01*
X70350000Y-150025000D02*
X70550000Y-150025000D01*
X70350000Y-150525000D02*
X70350000Y-150025000D01*
X70450000Y-150525000D02*
X70450000Y-150025000D01*
X70550000Y-150025000D02*
X70550000Y-150525000D01*
X72350000Y-150025000D02*
X72550000Y-150025000D01*
X72350000Y-150525000D02*
X72350000Y-150025000D01*
X72450000Y-150525000D02*
X72450000Y-150025000D01*
X72550000Y-150025000D02*
X72550000Y-150525000D01*
X72950000Y-147025000D02*
X72950000Y-146415000D01*
X74900000Y-147025000D02*
X72950000Y-147025000D01*
X74900000Y-150525000D02*
X74900000Y-147025000D01*
X75510000Y-146415000D02*
X61390000Y-146415000D01*
X75510000Y-147725000D02*
X74900000Y-147725000D01*
X75510000Y-149025000D02*
X74900000Y-149025000D01*
X75510000Y-151135000D02*
X75510000Y-146415000D01*
D15*
%TO.C,TMC1*%
X60830000Y-124647500D02*
X76070000Y-124647500D01*
X60830000Y-144967500D02*
X60830000Y-124647500D01*
X76070000Y-124647500D02*
X76070000Y-144967500D01*
X76070000Y-144967500D02*
X60830000Y-144967500D01*
D12*
X60350000Y-125917500D02*
G75*
G02*
X60150000Y-125917500I-100000J0D01*
G01*
X60150000Y-125917500D02*
G75*
G02*
X60350000Y-125917500I100000J0D01*
G01*
D14*
%TO.C,R60*%
X98327064Y-97865000D02*
X97872936Y-97865000D01*
X98327064Y-99335000D02*
X97872936Y-99335000D01*
%TO.C,R41*%
X121822936Y-113465000D02*
X122277064Y-113465000D01*
X121822936Y-114935000D02*
X122277064Y-114935000D01*
%TO.C,C61*%
X92265000Y-94111252D02*
X92265000Y-93588748D01*
X93735000Y-94111252D02*
X93735000Y-93588748D01*
%TO.C,R15*%
X143527064Y-113865000D02*
X143072936Y-113865000D01*
X143527064Y-115335000D02*
X143072936Y-115335000D01*
%TO.C,H-M2*%
X59990000Y-115940000D02*
X59990000Y-122060000D01*
X59990000Y-122060000D02*
X64710000Y-122060000D01*
X60600000Y-116550000D02*
X60600000Y-121450000D01*
X60600000Y-118900000D02*
X61100000Y-118900000D01*
X60600000Y-119000000D02*
X61100000Y-119000000D01*
X60600000Y-121450000D02*
X64100000Y-121450000D01*
X61100000Y-118900000D02*
X61100000Y-119100000D01*
X61100000Y-119100000D02*
X60600000Y-119100000D01*
X62100000Y-115940000D02*
X62100000Y-116550000D01*
X62100000Y-122060000D02*
X62100000Y-121450000D01*
X63400000Y-115940000D02*
X63400000Y-116550000D01*
X63400000Y-122060000D02*
X63400000Y-121450000D01*
X64100000Y-116550000D02*
X60600000Y-116550000D01*
X64100000Y-118500000D02*
X64100000Y-116550000D01*
X64100000Y-119500000D02*
X64710000Y-119500000D01*
X64100000Y-121450000D02*
X64100000Y-119500000D01*
X64710000Y-115940000D02*
X59990000Y-115940000D01*
X64710000Y-117700000D02*
X64910000Y-117700000D01*
X64710000Y-118500000D02*
X64100000Y-118500000D01*
X64710000Y-122060000D02*
X64710000Y-115940000D01*
X64810000Y-117700000D02*
X64810000Y-117400000D01*
X64910000Y-117400000D02*
X64710000Y-117400000D01*
X64910000Y-117700000D02*
X64910000Y-117400000D01*
X65010000Y-115640000D02*
X63760000Y-115640000D01*
X65010000Y-116890000D02*
X65010000Y-115640000D01*
%TO.C,R4*%
X95715000Y-147580436D02*
X95715000Y-148034564D01*
X97185000Y-147580436D02*
X97185000Y-148034564D01*
%TO.C,J1*%
X136870000Y-102870000D02*
X138200000Y-102870000D01*
X136870000Y-104200000D02*
X136870000Y-102870000D01*
X139470000Y-102870000D02*
X167470000Y-102870000D01*
X139470000Y-105530000D02*
X139470000Y-102870000D01*
X139470000Y-105530000D02*
X167470000Y-105530000D01*
X167470000Y-105530000D02*
X167470000Y-102870000D01*
%TO.C,R27*%
X141127064Y-91240000D02*
X139672936Y-91240000D01*
X141127064Y-93060000D02*
X139672936Y-93060000D01*
D15*
%TO.C,U22*%
X107750000Y-102850000D02*
X103350000Y-102850000D01*
X107750000Y-112550000D02*
X103350000Y-112550000D01*
D12*
X110150000Y-111925000D02*
G75*
G02*
X109950000Y-111925000I-100000J0D01*
G01*
X109950000Y-111925000D02*
G75*
G02*
X110150000Y-111925000I100000J0D01*
G01*
D14*
%TO.C,C66*%
X103145000Y-86988748D02*
X103145000Y-87511252D01*
X104615000Y-86988748D02*
X104615000Y-87511252D01*
%TO.C,U9*%
X138731000Y-130227538D02*
X137231000Y-130227538D01*
X138731000Y-130227538D02*
X140231000Y-130227538D01*
X138731000Y-133447538D02*
X137231000Y-133447538D01*
X138731000Y-133447538D02*
X140231000Y-133447538D01*
X141183500Y-133577538D02*
X140703500Y-133577538D01*
X140943500Y-133247538D01*
X141183500Y-133577538D01*
G36*
X141183500Y-133577538D02*
G01*
X140703500Y-133577538D01*
X140943500Y-133247538D01*
X141183500Y-133577538D01*
G37*
%TO.C,C78*%
X79465000Y-104661252D02*
X79465000Y-104138748D01*
X80935000Y-104661252D02*
X80935000Y-104138748D01*
%TO.C,R51*%
X126656686Y-94170000D02*
X127110814Y-94170000D01*
X126656686Y-95640000D02*
X127110814Y-95640000D01*
%TO.C,SERVO3*%
X143490000Y-84240000D02*
X143490000Y-88960000D01*
X143490000Y-86350000D02*
X144100000Y-86350000D01*
X143490000Y-87650000D02*
X144100000Y-87650000D01*
X143490000Y-88960000D02*
X151610000Y-88960000D01*
X144100000Y-84850000D02*
X144100000Y-88350000D01*
X144100000Y-88350000D02*
X146050000Y-88350000D01*
X146050000Y-88350000D02*
X146050000Y-88960000D01*
X146450000Y-85350000D02*
X146450000Y-84850000D01*
X146550000Y-84850000D02*
X146550000Y-85350000D01*
X146650000Y-84850000D02*
X146650000Y-85350000D01*
X146650000Y-85350000D02*
X146450000Y-85350000D01*
X148450000Y-85350000D02*
X148450000Y-84850000D01*
X148550000Y-84850000D02*
X148550000Y-85350000D01*
X148650000Y-84850000D02*
X148650000Y-85350000D01*
X148650000Y-85350000D02*
X148450000Y-85350000D01*
X149050000Y-88350000D02*
X151000000Y-88350000D01*
X149050000Y-88960000D02*
X149050000Y-88350000D01*
X149850000Y-88960000D02*
X149850000Y-89160000D01*
X149850000Y-89060000D02*
X150150000Y-89060000D01*
X149850000Y-89160000D02*
X150150000Y-89160000D01*
X150150000Y-89160000D02*
X150150000Y-88960000D01*
X150660000Y-89260000D02*
X151910000Y-89260000D01*
X151000000Y-84850000D02*
X144100000Y-84850000D01*
X151000000Y-88350000D02*
X151000000Y-84850000D01*
X151610000Y-84240000D02*
X143490000Y-84240000D01*
X151610000Y-86350000D02*
X151000000Y-86350000D01*
X151610000Y-87650000D02*
X151000000Y-87650000D01*
X151610000Y-88960000D02*
X151610000Y-84240000D01*
X151910000Y-89260000D02*
X151910000Y-88010000D01*
%TO.C,C51*%
X149215000Y-93461252D02*
X149215000Y-92938748D01*
X150685000Y-93461252D02*
X150685000Y-92938748D01*
%TO.C,C57*%
X162815000Y-93461252D02*
X162815000Y-92938748D01*
X164285000Y-93461252D02*
X164285000Y-92938748D01*
%TO.C,C74*%
X103441252Y-89465000D02*
X102918748Y-89465000D01*
X103441252Y-90935000D02*
X102918748Y-90935000D01*
%TO.C,C73*%
X111841252Y-86065000D02*
X111318748Y-86065000D01*
X111841252Y-87535000D02*
X111318748Y-87535000D01*
%TO.C,C16*%
X138238748Y-120765000D02*
X138761252Y-120765000D01*
X138238748Y-122235000D02*
X138761252Y-122235000D01*
%TO.C,D9*%
X136600000Y-119835000D02*
X140485000Y-119835000D01*
X140485000Y-117565000D02*
X136600000Y-117565000D01*
X140485000Y-119835000D02*
X140485000Y-117565000D01*
%TO.C,R69*%
X152972936Y-89665000D02*
X153427064Y-89665000D01*
X152972936Y-91135000D02*
X153427064Y-91135000D01*
%TO.C,C75*%
X98695000Y-91511252D02*
X98695000Y-90988748D01*
X100165000Y-91511252D02*
X100165000Y-90988748D01*
%TO.C,C7*%
X166615000Y-132938748D02*
X166615000Y-133461252D01*
X168085000Y-132938748D02*
X168085000Y-133461252D01*
%TO.C,R67*%
X144422936Y-90065000D02*
X144877064Y-90065000D01*
X144422936Y-91535000D02*
X144877064Y-91535000D01*
%TO.C,R38*%
X126615436Y-107020000D02*
X127069564Y-107020000D01*
X126615436Y-108490000D02*
X127069564Y-108490000D01*
%TO.C,R42*%
X112096250Y-103914564D02*
X112096250Y-103460436D01*
X113566250Y-103914564D02*
X113566250Y-103460436D01*
%TO.C,SCL1*%
X162400000Y-122800000D02*
G75*
G02*
X161000000Y-122800000I-700000J0D01*
G01*
X161000000Y-122800000D02*
G75*
G02*
X162400000Y-122800000I700000J0D01*
G01*
%TO.C,C1*%
X64190000Y-130547500D02*
X66940000Y-130547500D01*
X64190000Y-138003063D02*
X64190000Y-130547500D01*
X65254437Y-139067500D02*
X64190000Y-138003063D01*
X65254437Y-139067500D02*
X66940000Y-139067500D01*
X65440000Y-139807500D02*
X66440000Y-139807500D01*
X65940000Y-140307500D02*
X65940000Y-139307500D01*
X71645563Y-139067500D02*
X69960000Y-139067500D01*
X71645563Y-139067500D02*
X72710000Y-138003063D01*
X72710000Y-130547500D02*
X69960000Y-130547500D01*
X72710000Y-138003063D02*
X72710000Y-130547500D01*
%TO.C,DC1*%
X135840000Y-146090000D02*
X135840000Y-147340000D01*
X136140000Y-146390000D02*
X136140000Y-151110000D01*
X136140000Y-147700000D02*
X136750000Y-147700000D01*
X136140000Y-149000000D02*
X136750000Y-149000000D01*
X136140000Y-151110000D02*
X142260000Y-151110000D01*
X136750000Y-147000000D02*
X136750000Y-150500000D01*
X136750000Y-150500000D02*
X141650000Y-150500000D01*
X137090000Y-146090000D02*
X135840000Y-146090000D01*
X137600000Y-146190000D02*
X137600000Y-146390000D01*
X137900000Y-146190000D02*
X137600000Y-146190000D01*
X137900000Y-146290000D02*
X137600000Y-146290000D01*
X137900000Y-146390000D02*
X137900000Y-146190000D01*
X138700000Y-146390000D02*
X138700000Y-147000000D01*
X138700000Y-147000000D02*
X136750000Y-147000000D01*
X139100000Y-150000000D02*
X139300000Y-150000000D01*
X139100000Y-150500000D02*
X139100000Y-150000000D01*
X139200000Y-150500000D02*
X139200000Y-150000000D01*
X139300000Y-150000000D02*
X139300000Y-150500000D01*
X139700000Y-147000000D02*
X139700000Y-146390000D01*
X141650000Y-147000000D02*
X139700000Y-147000000D01*
X141650000Y-150500000D02*
X141650000Y-147000000D01*
X142260000Y-146390000D02*
X136140000Y-146390000D01*
X142260000Y-147700000D02*
X141650000Y-147700000D01*
X142260000Y-149000000D02*
X141650000Y-149000000D01*
X142260000Y-151110000D02*
X142260000Y-146390000D01*
%TO.C,D2*%
X95365000Y-141300000D02*
X95365000Y-145185000D01*
X95365000Y-145185000D02*
X97635000Y-145185000D01*
X97635000Y-145185000D02*
X97635000Y-141300000D01*
%TO.C,R59*%
X79583750Y-100685436D02*
X79583750Y-101139564D01*
X81053750Y-100685436D02*
X81053750Y-101139564D01*
%TO.C,R50*%
X127648750Y-100232064D02*
X127648750Y-99777936D01*
X129118750Y-100232064D02*
X129118750Y-99777936D01*
%TO.C,R53*%
X122022936Y-100465000D02*
X122477064Y-100465000D01*
X122022936Y-101935000D02*
X122477064Y-101935000D01*
%TO.C,C50*%
X144388748Y-92465000D02*
X144911252Y-92465000D01*
X144388748Y-93935000D02*
X144911252Y-93935000D01*
%TO.C,C5*%
X70165000Y-106061252D02*
X70165000Y-105538748D01*
X71635000Y-106061252D02*
X71635000Y-105538748D01*
%TO.C,R30*%
X167035436Y-110790000D02*
X168489564Y-110790000D01*
X167035436Y-112610000D02*
X168489564Y-112610000D01*
%TO.C,DC_U6*%
X172140000Y-142150000D02*
X172140000Y-141350000D01*
X172140000Y-142150000D02*
X172140000Y-142950000D01*
X175260000Y-142150000D02*
X175260000Y-141350000D01*
X175260000Y-142150000D02*
X175260000Y-142950000D01*
X172190000Y-143450000D02*
X171860000Y-143690000D01*
X171860000Y-143210000D01*
X172190000Y-143450000D01*
G36*
X172190000Y-143450000D02*
G01*
X171860000Y-143690000D01*
X171860000Y-143210000D01*
X172190000Y-143450000D01*
G37*
D15*
%TO.C,TMC4*%
X116780000Y-124610000D02*
X132020000Y-124610000D01*
X116780000Y-144930000D02*
X116780000Y-124610000D01*
X132020000Y-124610000D02*
X132020000Y-144930000D01*
X132020000Y-144930000D02*
X116780000Y-144930000D01*
D12*
X116300000Y-125880000D02*
G75*
G02*
X116100000Y-125880000I-100000J0D01*
G01*
X116100000Y-125880000D02*
G75*
G02*
X116300000Y-125880000I100000J0D01*
G01*
D14*
%TO.C,C53*%
X125448750Y-100266252D02*
X125448750Y-99743748D01*
X126918750Y-100266252D02*
X126918750Y-99743748D01*
%TO.C,M2*%
X79840000Y-146105000D02*
X79840000Y-147355000D01*
X80140000Y-146405000D02*
X80140000Y-151125000D01*
X80140000Y-147715000D02*
X80750000Y-147715000D01*
X80140000Y-149015000D02*
X80750000Y-149015000D01*
X80140000Y-151125000D02*
X94260000Y-151125000D01*
X80750000Y-147015000D02*
X80750000Y-150515000D01*
X80750000Y-150515000D02*
X93650000Y-150515000D01*
X81090000Y-146105000D02*
X79840000Y-146105000D01*
X81600000Y-146205000D02*
X81600000Y-146405000D01*
X81900000Y-146205000D02*
X81600000Y-146205000D01*
X81900000Y-146305000D02*
X81600000Y-146305000D01*
X81900000Y-146405000D02*
X81900000Y-146205000D01*
X82700000Y-146405000D02*
X82700000Y-147015000D01*
X82700000Y-147015000D02*
X80750000Y-147015000D01*
X83100000Y-150015000D02*
X83300000Y-150015000D01*
X83100000Y-150515000D02*
X83100000Y-150015000D01*
X83200000Y-150515000D02*
X83200000Y-150015000D01*
X83300000Y-150015000D02*
X83300000Y-150515000D01*
X85100000Y-150015000D02*
X85300000Y-150015000D01*
X85100000Y-150515000D02*
X85100000Y-150015000D01*
X85200000Y-150515000D02*
X85200000Y-150015000D01*
X85300000Y-150015000D02*
X85300000Y-150515000D01*
X87100000Y-150015000D02*
X87300000Y-150015000D01*
X87100000Y-150515000D02*
X87100000Y-150015000D01*
X87200000Y-150515000D02*
X87200000Y-150015000D01*
X87300000Y-150015000D02*
X87300000Y-150515000D01*
X89100000Y-150015000D02*
X89300000Y-150015000D01*
X89100000Y-150515000D02*
X89100000Y-150015000D01*
X89200000Y-150515000D02*
X89200000Y-150015000D01*
X89300000Y-150015000D02*
X89300000Y-150515000D01*
X91100000Y-150015000D02*
X91300000Y-150015000D01*
X91100000Y-150515000D02*
X91100000Y-150015000D01*
X91200000Y-150515000D02*
X91200000Y-150015000D01*
X91300000Y-150015000D02*
X91300000Y-150515000D01*
X91700000Y-147015000D02*
X91700000Y-146405000D01*
X93650000Y-147015000D02*
X91700000Y-147015000D01*
X93650000Y-150515000D02*
X93650000Y-147015000D01*
X94260000Y-146405000D02*
X80140000Y-146405000D01*
X94260000Y-147715000D02*
X93650000Y-147715000D01*
X94260000Y-149015000D02*
X93650000Y-149015000D01*
X94260000Y-151125000D02*
X94260000Y-146405000D01*
%TO.C,R7*%
X77065000Y-138127064D02*
X77065000Y-137672936D01*
X78535000Y-138127064D02*
X78535000Y-137672936D01*
%TO.C,DC_U4*%
X158340000Y-142150000D02*
X158340000Y-141350000D01*
X158340000Y-142150000D02*
X158340000Y-142950000D01*
X161460000Y-142150000D02*
X161460000Y-141350000D01*
X161460000Y-142150000D02*
X161460000Y-142950000D01*
X158390000Y-143450000D02*
X158060000Y-143690000D01*
X158060000Y-143210000D01*
X158390000Y-143450000D01*
G36*
X158390000Y-143450000D02*
G01*
X158060000Y-143690000D01*
X158060000Y-143210000D01*
X158390000Y-143450000D01*
G37*
%TO.C,R5*%
X71927064Y-140315000D02*
X71472936Y-140315000D01*
X71927064Y-141785000D02*
X71472936Y-141785000D01*
%TO.C,R49*%
X165522936Y-97665000D02*
X165977064Y-97665000D01*
X165522936Y-99135000D02*
X165977064Y-99135000D01*
%TO.C,R45*%
X110046250Y-103927064D02*
X110046250Y-103472936D01*
X111516250Y-103927064D02*
X111516250Y-103472936D01*
%TO.C,C41*%
X126581248Y-109220000D02*
X127103752Y-109220000D01*
X126581248Y-110690000D02*
X127103752Y-110690000D01*
%TO.C,C38*%
X149275000Y-108311252D02*
X149275000Y-107788748D01*
X150745000Y-108311252D02*
X150745000Y-107788748D01*
%TO.C,C35*%
X143255000Y-108311252D02*
X143255000Y-107788748D01*
X144725000Y-108311252D02*
X144725000Y-107788748D01*
%TD*%
M02*
