%TF.GenerationSoftware,KiCad,Pcbnew,9.0.2*%
%TF.CreationDate,2025-10-06T20:03:22+02:00*%
%TF.ProjectId,psu,7073752e-6b69-4636-9164-5f7063625858,rev?*%
%TF.SameCoordinates,Original*%
%TF.FileFunction,Profile,NP*%
%FSLAX46Y46*%
G04 Gerber Fmt 4.6, Leading zero omitted, Abs format (unit mm)*
G04 Created by KiCad (PCBNEW 9.0.2) date 2025-10-06 20:03:22*
%MOMM*%
%LPD*%
G01*
G04 APERTURE LIST*
%TA.AperFunction,Profile*%
%ADD10C,0.200000*%
%TD*%
G04 APERTURE END LIST*
D10*
X184970000Y-142340000D02*
X182970000Y-142340000D01*
X52970000Y-142340000D02*
X54970000Y-142340000D01*
X54970000Y-92340000D02*
G75*
G02*
X58970000Y-96340001I0J-4000000D01*
G01*
X58970000Y-138340000D02*
G75*
G02*
X54970000Y-142340000I-4000000J0D01*
G01*
X188970001Y-88340000D02*
G75*
G02*
X184970000Y-92340001I-4000001J0D01*
G01*
X56469999Y-147340000D02*
G75*
G02*
X51469999Y-147340000I-2500000J0D01*
G01*
X51469999Y-147340000D02*
G75*
G02*
X56469999Y-147340000I2500000J0D01*
G01*
X184970000Y-142340000D02*
G75*
G02*
X188970000Y-146340000I0J-4000000D01*
G01*
X52969999Y-92340000D02*
X54970000Y-92340000D01*
X178970000Y-82340000D02*
X184970000Y-82340000D01*
X182970000Y-142340000D02*
G75*
G02*
X178970000Y-138340000I0J4000000D01*
G01*
X184970000Y-82340000D02*
G75*
G02*
X188970000Y-86340000I0J-4000000D01*
G01*
X48969999Y-86340000D02*
G75*
G02*
X52969999Y-82339999I4000001J0D01*
G01*
X178970000Y-96340000D02*
G75*
G02*
X182970000Y-92340000I4000000J0D01*
G01*
X188970001Y-86340000D02*
X188970001Y-88340000D01*
X48969999Y-148340000D02*
X48969999Y-146340000D01*
X58970000Y-138340000D02*
X58970000Y-96340001D01*
X184970000Y-92340000D02*
X182970000Y-92340000D01*
X178970000Y-152340000D02*
X184970000Y-152340000D01*
X186470001Y-147340000D02*
G75*
G02*
X181470001Y-147340000I-2500000J0D01*
G01*
X181470001Y-147340000D02*
G75*
G02*
X186470001Y-147340000I2500000J0D01*
G01*
X186470001Y-87340000D02*
G75*
G02*
X181470001Y-87340000I-2500000J0D01*
G01*
X181470001Y-87340000D02*
G75*
G02*
X186470001Y-87340000I2500000J0D01*
G01*
X178970000Y-152340000D02*
X58970000Y-152340000D01*
X178970000Y-138340000D02*
X178970000Y-96340000D01*
X58970000Y-82340000D02*
X52969999Y-82340000D01*
X58970000Y-82340000D02*
X178970000Y-82340000D01*
X56469999Y-87340000D02*
G75*
G02*
X51469999Y-87340000I-2500000J0D01*
G01*
X51469999Y-87340000D02*
G75*
G02*
X56469999Y-87340000I2500000J0D01*
G01*
X188970001Y-148340000D02*
X188970001Y-146340000D01*
X52969999Y-92340000D02*
G75*
G02*
X48970000Y-88340000I1J4000000D01*
G01*
X188970001Y-148340000D02*
G75*
G02*
X184970000Y-152340001I-4000001J0D01*
G01*
X52969999Y-152340000D02*
G75*
G02*
X48970000Y-148340000I1J4000000D01*
G01*
X48969999Y-146340000D02*
G75*
G02*
X52970000Y-142339999I4000001J0D01*
G01*
X58970000Y-152340000D02*
X52969999Y-152340000D01*
X48969999Y-86340000D02*
X48969999Y-88340000D01*
M02*
