%TF.GenerationSoftware,KiCad,Pcbnew,9.0.5*%
%TF.CreationDate,2025-10-24T02:39:33+02:00*%
%TF.ProjectId,psu,7073752e-6b69-4636-9164-5f7063625858,rev?*%
%TF.SameCoordinates,Original*%
%TF.FileFunction,Soldermask,Bot*%
%TF.FilePolarity,Negative*%
%FSLAX46Y46*%
G04 Gerber Fmt 4.6, Leading zero omitted, Abs format (unit mm)*
G04 Created by KiCad (PCBNEW 9.0.5) date 2025-10-24 02:39:33*
%MOMM*%
%LPD*%
G01*
G04 APERTURE LIST*
G04 Aperture macros list*
%AMRoundRect*
0 Rectangle with rounded corners*
0 $1 Rounding radius*
0 $2 $3 $4 $5 $6 $7 $8 $9 X,Y pos of 4 corners*
0 Add a 4 corners polygon primitive as box body*
4,1,4,$2,$3,$4,$5,$6,$7,$8,$9,$2,$3,0*
0 Add four circle primitives for the rounded corners*
1,1,$1+$1,$2,$3*
1,1,$1+$1,$4,$5*
1,1,$1+$1,$6,$7*
1,1,$1+$1,$8,$9*
0 Add four rect primitives between the rounded corners*
20,1,$1+$1,$2,$3,$4,$5,0*
20,1,$1+$1,$4,$5,$6,$7,0*
20,1,$1+$1,$6,$7,$8,$9,0*
20,1,$1+$1,$8,$9,$2,$3,0*%
G04 Aperture macros list end*
%ADD10C,2.600000*%
%ADD11C,3.800000*%
%ADD12RoundRect,0.250000X-0.350000X-0.625000X0.350000X-0.625000X0.350000X0.625000X-0.350000X0.625000X0*%
%ADD13O,1.200000X1.750000*%
%ADD14RoundRect,0.250000X0.350000X0.625000X-0.350000X0.625000X-0.350000X-0.625000X0.350000X-0.625000X0*%
%ADD15C,6.204000*%
%ADD16RoundRect,0.102000X3.000000X-3.000000X3.000000X3.000000X-3.000000X3.000000X-3.000000X-3.000000X0*%
%ADD17RoundRect,0.102000X-0.754000X-0.754000X0.754000X-0.754000X0.754000X0.754000X-0.754000X0.754000X0*%
%ADD18C,1.712000*%
%ADD19RoundRect,0.250000X-0.625000X0.350000X-0.625000X-0.350000X0.625000X-0.350000X0.625000X0.350000X0*%
%ADD20O,1.750000X1.200000*%
%ADD21C,1.020000*%
%ADD22RoundRect,0.250001X-0.499999X0.499999X-0.499999X-0.499999X0.499999X-0.499999X0.499999X0.499999X0*%
%ADD23C,1.500000*%
%ADD24R,1.700000X1.700000*%
%ADD25C,1.700000*%
%ADD26RoundRect,0.250000X0.475000X-0.250000X0.475000X0.250000X-0.475000X0.250000X-0.475000X-0.250000X0*%
%ADD27RoundRect,0.250000X-0.250000X-0.475000X0.250000X-0.475000X0.250000X0.475000X-0.250000X0.475000X0*%
%ADD28RoundRect,0.075000X0.075000X-0.650000X0.075000X0.650000X-0.075000X0.650000X-0.075000X-0.650000X0*%
%ADD29RoundRect,0.250000X-0.425000X-1.425000X0.425000X-1.425000X0.425000X1.425000X-0.425000X1.425000X0*%
%ADD30RoundRect,0.075000X-0.650000X-0.075000X0.650000X-0.075000X0.650000X0.075000X-0.650000X0.075000X0*%
%ADD31C,1.000000*%
%ADD32RoundRect,0.250000X0.262500X0.450000X-0.262500X0.450000X-0.262500X-0.450000X0.262500X-0.450000X0*%
%ADD33RoundRect,0.250000X-0.625000X0.312500X-0.625000X-0.312500X0.625000X-0.312500X0.625000X0.312500X0*%
%ADD34RoundRect,0.250000X-0.262500X-0.450000X0.262500X-0.450000X0.262500X0.450000X-0.262500X0.450000X0*%
%ADD35RoundRect,0.250000X-0.450000X0.262500X-0.450000X-0.262500X0.450000X-0.262500X0.450000X0.262500X0*%
%ADD36RoundRect,0.250000X-0.312500X-0.625000X0.312500X-0.625000X0.312500X0.625000X-0.312500X0.625000X0*%
%ADD37C,2.000000*%
%ADD38RoundRect,0.250000X0.625000X-0.312500X0.625000X0.312500X-0.625000X0.312500X-0.625000X-0.312500X0*%
%ADD39RoundRect,0.250000X0.250000X0.475000X-0.250000X0.475000X-0.250000X-0.475000X0.250000X-0.475000X0*%
%ADD40RoundRect,0.075000X0.650000X0.075000X-0.650000X0.075000X-0.650000X-0.075000X0.650000X-0.075000X0*%
%ADD41RoundRect,0.250000X0.450000X-0.262500X0.450000X0.262500X-0.450000X0.262500X-0.450000X-0.262500X0*%
%ADD42RoundRect,0.249997X-2.650003X2.950003X-2.650003X-2.950003X2.650003X-2.950003X2.650003X2.950003X0*%
%ADD43RoundRect,0.250000X-0.350000X0.850000X-0.350000X-0.850000X0.350000X-0.850000X0.350000X0.850000X0*%
%ADD44RoundRect,0.150000X0.512500X0.150000X-0.512500X0.150000X-0.512500X-0.150000X0.512500X-0.150000X0*%
%ADD45RoundRect,0.150000X-0.150000X0.587500X-0.150000X-0.587500X0.150000X-0.587500X0.150000X0.587500X0*%
%ADD46RoundRect,0.162500X0.162500X-0.447500X0.162500X0.447500X-0.162500X0.447500X-0.162500X-0.447500X0*%
%ADD47RoundRect,0.249997X2.650003X-2.950003X2.650003X2.950003X-2.650003X2.950003X-2.650003X-2.950003X0*%
%ADD48RoundRect,0.250000X0.350000X-0.850000X0.350000X0.850000X-0.350000X0.850000X-0.350000X-0.850000X0*%
%ADD49RoundRect,0.250000X-0.475000X0.250000X-0.475000X-0.250000X0.475000X-0.250000X0.475000X0.250000X0*%
%ADD50RoundRect,0.304349X1.095651X1.395651X-1.095651X1.395651X-1.095651X-1.395651X1.095651X-1.395651X0*%
%ADD51RoundRect,0.100000X-0.500000X0.400000X-0.500000X-0.400000X0.500000X-0.400000X0.500000X0.400000X0*%
%ADD52RoundRect,0.304349X-1.395651X1.095651X-1.395651X-1.095651X1.395651X-1.095651X1.395651X1.095651X0*%
%ADD53RoundRect,0.162500X0.447500X0.162500X-0.447500X0.162500X-0.447500X-0.162500X0.447500X-0.162500X0*%
%ADD54RoundRect,0.304349X-1.095651X-1.395651X1.095651X-1.395651X1.095651X1.395651X-1.095651X1.395651X0*%
G04 APERTURE END LIST*
D10*
%TO.C,REF\u002A\u002A*%
X127700000Y-87950000D03*
D11*
X127700000Y-87950000D03*
%TD*%
D12*
%TO.C,DC6*%
X165800000Y-148200000D03*
D13*
X167800000Y-148200000D03*
%TD*%
D12*
%TO.C,DC4*%
X158900000Y-148200000D03*
D13*
X160900000Y-148200000D03*
%TD*%
D14*
%TO.C,SERVO2*%
X158750000Y-87150000D03*
D13*
X156750000Y-87150000D03*
X154750000Y-87150000D03*
%TD*%
D15*
%TO.C,J2*%
X64981500Y-88583500D03*
D16*
X64981500Y-95783500D03*
%TD*%
D12*
%TO.C,M3*%
X100817500Y-148255000D03*
D13*
X102817500Y-148255000D03*
X104817500Y-148255000D03*
X106817500Y-148255000D03*
X108817500Y-148255000D03*
X110817500Y-148255000D03*
%TD*%
D17*
%TO.C,TMC2*%
X80850000Y-125917500D03*
D18*
X80850000Y-128457500D03*
X80850000Y-130997500D03*
X80850000Y-133537500D03*
X80850000Y-136077500D03*
X80850000Y-138617500D03*
X80850000Y-141157500D03*
X80850000Y-143697500D03*
X93550000Y-125917500D03*
X93550000Y-128457500D03*
X93550000Y-130997500D03*
X93550000Y-133537500D03*
X93550000Y-136077500D03*
X93550000Y-138617500D03*
X93550000Y-141157500D03*
X93550000Y-143697500D03*
X88470000Y-143697500D03*
X91010000Y-143697500D03*
%TD*%
D12*
%TO.C,DC5*%
X172700000Y-148200000D03*
D13*
X174700000Y-148200000D03*
%TD*%
D12*
%TO.C,J3*%
X64131500Y-103633500D03*
D13*
X66131500Y-103633500D03*
%TD*%
D17*
%TO.C,TMC3*%
X99452500Y-125917500D03*
D18*
X99452500Y-128457500D03*
X99452500Y-130997500D03*
X99452500Y-133537500D03*
X99452500Y-136077500D03*
X99452500Y-138617500D03*
X99452500Y-141157500D03*
X99452500Y-143697500D03*
X112152500Y-125917500D03*
X112152500Y-128457500D03*
X112152500Y-130997500D03*
X112152500Y-133537500D03*
X112152500Y-136077500D03*
X112152500Y-138617500D03*
X112152500Y-141157500D03*
X112152500Y-143697500D03*
X107072500Y-143697500D03*
X109612500Y-143697500D03*
%TD*%
D19*
%TO.C,H-M1*%
X62900000Y-111100000D03*
D20*
X62900000Y-113100000D03*
%TD*%
D12*
%TO.C,M4*%
X119340000Y-148245000D03*
D13*
X121340000Y-148245000D03*
X123340000Y-148245000D03*
X125340000Y-148245000D03*
X127340000Y-148245000D03*
X129340000Y-148245000D03*
%TD*%
D21*
%TO.C,J6*%
X172460000Y-92300000D03*
X172460000Y-107300000D03*
D22*
X176400000Y-95300000D03*
D23*
X176400000Y-98300000D03*
X176400000Y-101300000D03*
X176400000Y-104300000D03*
X173400000Y-95300000D03*
X173400000Y-98300000D03*
X173400000Y-101300000D03*
X173400000Y-104300000D03*
%TD*%
D10*
%TO.C,REF\u002A\u002A*%
X75700000Y-87950000D03*
D11*
X75700000Y-87950000D03*
%TD*%
D10*
%TO.C,REF\u002A\u002A*%
X75700000Y-118950000D03*
D11*
X75700000Y-118950000D03*
%TD*%
D14*
%TO.C,LED1*%
X177000000Y-87250000D03*
D13*
X175000000Y-87250000D03*
X173000000Y-87250000D03*
%TD*%
D14*
%TO.C,SERVO1*%
X167950000Y-87150000D03*
D13*
X165950000Y-87150000D03*
X163950000Y-87150000D03*
%TD*%
D12*
%TO.C,DC3*%
X152000000Y-148200000D03*
D13*
X154000000Y-148200000D03*
%TD*%
D24*
%TO.C,J4*%
X67275000Y-110410000D03*
D25*
X69815000Y-110410000D03*
X67275000Y-112950000D03*
X69815000Y-112950000D03*
X67275000Y-115490000D03*
X69815000Y-115490000D03*
%TD*%
D14*
%TO.C,SERVO4*%
X140350000Y-87150000D03*
D13*
X138350000Y-87150000D03*
X136350000Y-87150000D03*
%TD*%
D12*
%TO.C,DC2*%
X145100000Y-148200000D03*
D13*
X147100000Y-148200000D03*
%TD*%
D12*
%TO.C,M1*%
X63450000Y-148225000D03*
D13*
X65450000Y-148225000D03*
X67450000Y-148225000D03*
X69450000Y-148225000D03*
X71450000Y-148225000D03*
X73450000Y-148225000D03*
%TD*%
D17*
%TO.C,TMC1*%
X62100000Y-125917500D03*
D18*
X62100000Y-128457500D03*
X62100000Y-130997500D03*
X62100000Y-133537500D03*
X62100000Y-136077500D03*
X62100000Y-138617500D03*
X62100000Y-141157500D03*
X62100000Y-143697500D03*
X74800000Y-125917500D03*
X74800000Y-128457500D03*
X74800000Y-130997500D03*
X74800000Y-133537500D03*
X74800000Y-136077500D03*
X74800000Y-138617500D03*
X74800000Y-141157500D03*
X74800000Y-143697500D03*
X69720000Y-143697500D03*
X72260000Y-143697500D03*
%TD*%
D19*
%TO.C,H-M2*%
X62900000Y-118000000D03*
D20*
X62900000Y-120000000D03*
%TD*%
D24*
%TO.C,J1*%
X138200000Y-104200000D03*
D25*
X140740000Y-104200000D03*
X143280000Y-104200000D03*
X145820000Y-104200000D03*
X148360000Y-104200000D03*
X150900000Y-104200000D03*
X153440000Y-104200000D03*
X155980000Y-104200000D03*
X158520000Y-104200000D03*
X161060000Y-104200000D03*
X163600000Y-104200000D03*
X166140000Y-104200000D03*
%TD*%
D14*
%TO.C,SERVO3*%
X149550000Y-87150000D03*
D13*
X147550000Y-87150000D03*
X145550000Y-87150000D03*
%TD*%
D12*
%TO.C,DC1*%
X138200000Y-148200000D03*
D13*
X140200000Y-148200000D03*
%TD*%
D17*
%TO.C,TMC4*%
X118050000Y-125880000D03*
D18*
X118050000Y-128420000D03*
X118050000Y-130960000D03*
X118050000Y-133500000D03*
X118050000Y-136040000D03*
X118050000Y-138580000D03*
X118050000Y-141120000D03*
X118050000Y-143660000D03*
X130750000Y-125880000D03*
X130750000Y-128420000D03*
X130750000Y-130960000D03*
X130750000Y-133500000D03*
X130750000Y-136040000D03*
X130750000Y-138580000D03*
X130750000Y-141120000D03*
X130750000Y-143660000D03*
X125670000Y-143660000D03*
X128210000Y-143660000D03*
%TD*%
D12*
%TO.C,M2*%
X82200000Y-148215000D03*
D13*
X84200000Y-148215000D03*
X86200000Y-148215000D03*
X88200000Y-148215000D03*
X90200000Y-148215000D03*
X92200000Y-148215000D03*
%TD*%
D10*
%TO.C,REF\u002A\u002A*%
X127700000Y-118950000D03*
D11*
X127700000Y-118950000D03*
%TD*%
D26*
%TO.C,C15*%
X61500000Y-107750000D03*
X61500000Y-105850000D03*
%TD*%
D27*
%TO.C,C43*%
X112291500Y-110698500D03*
X114191500Y-110698500D03*
%TD*%
D28*
%TO.C,U13*%
X139300000Y-95400000D03*
X138800000Y-95400000D03*
X138300000Y-95400000D03*
X137800000Y-95400000D03*
X137300000Y-95400000D03*
X137300000Y-91000000D03*
X137800000Y-91000000D03*
X138300000Y-91000000D03*
X138800000Y-91000000D03*
X139300000Y-91000000D03*
%TD*%
D29*
%TO.C,F1*%
X64400000Y-100900000D03*
X70200000Y-100900000D03*
%TD*%
D30*
%TO.C,U12*%
X163150000Y-121750000D03*
X163150000Y-121250000D03*
X163150000Y-120750000D03*
X163150000Y-120250000D03*
X163150000Y-119750000D03*
X167550000Y-119750000D03*
X167550000Y-120250000D03*
X167550000Y-120750000D03*
X167550000Y-121250000D03*
X167550000Y-121750000D03*
%TD*%
D31*
%TO.C,FFC_NC1*%
X173698326Y-110660373D03*
%TD*%
D27*
%TO.C,C14*%
X79700000Y-120200000D03*
X81600000Y-120200000D03*
%TD*%
D32*
%TO.C,R84*%
X123412500Y-115700000D03*
X121587500Y-115700000D03*
%TD*%
%TO.C,R82*%
X143512500Y-138400000D03*
X141687500Y-138400000D03*
%TD*%
D33*
%TO.C,R21*%
X68450000Y-128800000D03*
X68450000Y-131725000D03*
%TD*%
D27*
%TO.C,C67*%
X82850000Y-92700000D03*
X84750000Y-92700000D03*
%TD*%
D34*
%TO.C,R77*%
X150234600Y-146011775D03*
X152059600Y-146011775D03*
%TD*%
D35*
%TO.C,R17*%
X82700000Y-100100000D03*
X82700000Y-101925000D03*
%TD*%
D36*
%TO.C,R25*%
X168337500Y-98100000D03*
X171262500Y-98100000D03*
%TD*%
D27*
%TO.C,C18*%
X170000000Y-85490000D03*
X171900000Y-85490000D03*
%TD*%
D37*
%TO.C,GND*%
X125050000Y-104100000D03*
%TD*%
D33*
%TO.C,R20*%
X124490000Y-125785000D03*
X124490000Y-128710000D03*
%TD*%
D38*
%TO.C,R22*%
X169100000Y-95662500D03*
X169100000Y-92737500D03*
%TD*%
D39*
%TO.C,C70*%
X81300000Y-94700000D03*
X79400000Y-94700000D03*
%TD*%
D30*
%TO.C,U16*%
X158950000Y-114750000D03*
X158950000Y-114250000D03*
X158950000Y-113750000D03*
X158950000Y-113250000D03*
X158950000Y-112750000D03*
X163350000Y-112750000D03*
X163350000Y-113250000D03*
X163350000Y-113750000D03*
X163350000Y-114250000D03*
X163350000Y-114750000D03*
%TD*%
D40*
%TO.C,U14*%
X121880000Y-88290000D03*
X121880000Y-88790000D03*
X121880000Y-89290000D03*
X121880000Y-89790000D03*
X121880000Y-90290000D03*
X117480000Y-90290000D03*
X117480000Y-89790000D03*
X117480000Y-89290000D03*
X117480000Y-88790000D03*
X117480000Y-88290000D03*
%TD*%
D41*
%TO.C,R76*%
X138250000Y-144962500D03*
X138250000Y-143137500D03*
%TD*%
D37*
%TO.C,12V_2*%
X108750000Y-123200000D03*
%TD*%
D30*
%TO.C,U8*%
X163150000Y-132400000D03*
X163150000Y-131900000D03*
X163150000Y-131400000D03*
X163150000Y-130900000D03*
X163150000Y-130400000D03*
X167550000Y-130400000D03*
X167550000Y-130900000D03*
X167550000Y-131400000D03*
X167550000Y-131900000D03*
X167550000Y-132400000D03*
%TD*%
%TO.C,U11*%
X163150000Y-128850000D03*
X163150000Y-128350000D03*
X163150000Y-127850000D03*
X163150000Y-127350000D03*
X163150000Y-126850000D03*
X167550000Y-126850000D03*
X167550000Y-127350000D03*
X167550000Y-127850000D03*
X167550000Y-128350000D03*
X167550000Y-128850000D03*
%TD*%
D39*
%TO.C,C21*%
X119300000Y-115700000D03*
X117400000Y-115700000D03*
%TD*%
D34*
%TO.C,R80*%
X145337500Y-139850000D03*
X147162500Y-139850000D03*
%TD*%
D42*
%TO.C,Q3*%
X74755000Y-112750000D03*
D43*
X77035000Y-106450000D03*
X72475000Y-106450000D03*
%TD*%
D39*
%TO.C,C69*%
X81300000Y-92700000D03*
X79400000Y-92700000D03*
%TD*%
D36*
%TO.C,R29*%
X168296000Y-101100000D03*
X171221000Y-101100000D03*
%TD*%
D39*
%TO.C,C71*%
X93870000Y-111610000D03*
X91970000Y-111610000D03*
%TD*%
D32*
%TO.C,R86*%
X122862500Y-101100000D03*
X121037500Y-101100000D03*
%TD*%
%TO.C,R1*%
X176912500Y-84350000D03*
X175087500Y-84350000D03*
%TD*%
D31*
%TO.C,FFC_NC3*%
X173700000Y-114950000D03*
%TD*%
D44*
%TO.C,U4*%
X88675000Y-102650000D03*
X88675000Y-103600000D03*
X88675000Y-104550000D03*
X86400000Y-104550000D03*
X86400000Y-103600000D03*
X86400000Y-102650000D03*
%TD*%
D27*
%TO.C,C13*%
X67700000Y-107700000D03*
X69600000Y-107700000D03*
%TD*%
D32*
%TO.C,R78*%
X141812500Y-143100000D03*
X139987500Y-143100000D03*
%TD*%
D45*
%TO.C,Q1*%
X173900000Y-91112500D03*
X174850000Y-92987500D03*
X175800000Y-91112500D03*
%TD*%
D28*
%TO.C,U20*%
X148500000Y-95400000D03*
X148000000Y-95400000D03*
X147500000Y-95400000D03*
X147000000Y-95400000D03*
X146500000Y-95400000D03*
X146500000Y-91000000D03*
X147000000Y-91000000D03*
X147500000Y-91000000D03*
X148000000Y-91000000D03*
X148500000Y-91000000D03*
%TD*%
D37*
%TO.C,12V_1*%
X72731000Y-122401000D03*
%TD*%
D39*
%TO.C,C64*%
X93870000Y-107610000D03*
X91970000Y-107610000D03*
%TD*%
D34*
%TO.C,R74*%
X177737500Y-91800000D03*
X179562500Y-91800000D03*
%TD*%
D46*
%TO.C,Q7*%
X146242500Y-143590000D03*
X147192500Y-146210000D03*
X145292500Y-146210000D03*
%TD*%
D39*
%TO.C,C17*%
X114960000Y-84290000D03*
X113060000Y-84290000D03*
%TD*%
%TO.C,C46*%
X110700000Y-111800000D03*
X108800000Y-111800000D03*
%TD*%
D47*
%TO.C,Q2*%
X74730000Y-97350000D03*
D48*
X72450000Y-103650000D03*
X77010000Y-103650000D03*
%TD*%
D34*
%TO.C,R75*%
X177737500Y-89750000D03*
X179562500Y-89750000D03*
%TD*%
D30*
%TO.C,U15*%
X163150000Y-125300000D03*
X163150000Y-124800000D03*
X163150000Y-124300000D03*
X163150000Y-123800000D03*
X163150000Y-123300000D03*
X167550000Y-123300000D03*
X167550000Y-123800000D03*
X167550000Y-124300000D03*
X167550000Y-124800000D03*
X167550000Y-125300000D03*
%TD*%
D27*
%TO.C,C68*%
X82850000Y-94700000D03*
X84750000Y-94700000D03*
%TD*%
D31*
%TO.C,FFC_NC5*%
X175866440Y-110634966D03*
%TD*%
D41*
%TO.C,R2*%
X170700000Y-89225000D03*
X170700000Y-87400000D03*
%TD*%
D30*
%TO.C,U18*%
X158950000Y-118250000D03*
X158950000Y-117750000D03*
X158950000Y-117250000D03*
X158950000Y-116750000D03*
X158950000Y-116250000D03*
X163350000Y-116250000D03*
X163350000Y-116750000D03*
X163350000Y-117250000D03*
X163350000Y-117750000D03*
X163350000Y-118250000D03*
%TD*%
D32*
%TO.C,R83*%
X143362500Y-145800000D03*
X141537500Y-145800000D03*
%TD*%
D37*
%TO.C,5V*%
X142850000Y-109300000D03*
%TD*%
D28*
%TO.C,U17*%
X166950000Y-95300000D03*
X166450000Y-95300000D03*
X165950000Y-95300000D03*
X165450000Y-95300000D03*
X164950000Y-95300000D03*
X164950000Y-90900000D03*
X165450000Y-90900000D03*
X165950000Y-90900000D03*
X166450000Y-90900000D03*
X166950000Y-90900000D03*
%TD*%
D49*
%TO.C,C19*%
X166010000Y-134150000D03*
X166010000Y-136050000D03*
%TD*%
D50*
%TO.C,L4*%
X90700000Y-87900000D03*
X84500000Y-87900000D03*
%TD*%
D32*
%TO.C,R18*%
X88700000Y-106450000D03*
X86875000Y-106450000D03*
%TD*%
D40*
%TO.C,U19*%
X121880000Y-84660000D03*
X121880000Y-85160000D03*
X121880000Y-85660000D03*
X121880000Y-86160000D03*
X121880000Y-86660000D03*
X117480000Y-86660000D03*
X117480000Y-86160000D03*
X117480000Y-85660000D03*
X117480000Y-85160000D03*
X117480000Y-84660000D03*
%TD*%
D51*
%TO.C,D5*%
X69850000Y-94100000D03*
X69850000Y-97200000D03*
%TD*%
D32*
%TO.C,R81*%
X147162500Y-141750000D03*
X145337500Y-141750000D03*
%TD*%
%TO.C,R16*%
X65762500Y-107700000D03*
X63937500Y-107700000D03*
%TD*%
D31*
%TO.C,FFC_NC2*%
X173700000Y-112800000D03*
%TD*%
D39*
%TO.C,C45*%
X110700000Y-109800000D03*
X108800000Y-109800000D03*
%TD*%
%TO.C,C72*%
X93870000Y-113620000D03*
X91970000Y-113620000D03*
%TD*%
D33*
%TO.C,R19*%
X105850000Y-125850000D03*
X105850000Y-128775000D03*
%TD*%
D39*
%TO.C,C65*%
X93870000Y-109590000D03*
X91970000Y-109590000D03*
%TD*%
D36*
%TO.C,R28*%
X84937500Y-117600000D03*
X87862500Y-117600000D03*
%TD*%
D34*
%TO.C,R79*%
X150237500Y-144000000D03*
X152062500Y-144000000D03*
%TD*%
D52*
%TO.C,L5*%
X100650000Y-97200000D03*
X100650000Y-103400000D03*
%TD*%
D49*
%TO.C,C6*%
X84400000Y-110550000D03*
X84400000Y-112450000D03*
%TD*%
D36*
%TO.C,R26*%
X168196000Y-104100000D03*
X171121000Y-104100000D03*
%TD*%
D39*
%TO.C,C24*%
X111400000Y-86950000D03*
X109500000Y-86950000D03*
%TD*%
D27*
%TO.C,C44*%
X112291500Y-112698500D03*
X114191500Y-112698500D03*
%TD*%
D28*
%TO.C,U10*%
X157700000Y-95350000D03*
X157200000Y-95350000D03*
X156700000Y-95350000D03*
X156200000Y-95350000D03*
X155700000Y-95350000D03*
X155700000Y-90950000D03*
X156200000Y-90950000D03*
X156700000Y-90950000D03*
X157200000Y-90950000D03*
X157700000Y-90950000D03*
%TD*%
D33*
%TO.C,R23*%
X87210000Y-128800000D03*
X87210000Y-131725000D03*
%TD*%
D32*
%TO.C,R85*%
X114862500Y-86950000D03*
X113037500Y-86950000D03*
%TD*%
D53*
%TO.C,Q6*%
X135940000Y-138857500D03*
X138560000Y-137907500D03*
X138560000Y-139807500D03*
%TD*%
D39*
%TO.C,C25*%
X119300000Y-101100000D03*
X117400000Y-101100000D03*
%TD*%
D54*
%TO.C,L2*%
X102600000Y-116350000D03*
X108800000Y-116350000D03*
%TD*%
M02*
