M48
; DRILL file {KiCad 9.0.5} date 2025-10-24T02:39:38+0200
; FORMAT={-:-/ absolute / metric / decimal}
; #@! TF.CreationDate,2025-10-24T02:39:38+02:00
; #@! TF.GenerationSoftware,Kicad,Pcbnew,9.0.5
; #@! TF.FileFunction,Plated,1,6,PTH
FMAT,2
METRIC
; #@! TA.AperFunction,Plated,PTH,ViaDrill
T1C0.300
; #@! TA.AperFunction,Plated,PTH,ComponentDrill
T2C0.300
; #@! TA.AperFunction,Plated,PTH,ComponentDrill
T3C0.750
; #@! TA.AperFunction,Plated,PTH,ComponentDrill
T4C1.000
; #@! TA.AperFunction,Plated,PTH,ComponentDrill
T5C1.020
; #@! TA.AperFunction,Plated,PTH,ComponentDrill
T6C2.200
; #@! TA.AperFunction,Plated,PTH,ComponentDrill
T7C4.550
%
G90
G05
T1
X50.6Y-147.339
X50.631Y-87.34
X50.855Y-146.062
X50.855Y-148.617
X50.885Y-86.062
X50.885Y-88.618
X51.578Y-144.978
X51.578Y-149.7
X51.609Y-84.979
X51.609Y-89.701
X52.661Y-144.255
X52.661Y-150.424
X52.692Y-84.255
X52.692Y-90.425
X53.939Y-144.0
X53.939Y-150.678
X53.97Y-84.001
X53.97Y-90.679
X55.217Y-144.255
X55.217Y-150.424
X55.248Y-84.255
X55.248Y-90.425
X56.3Y-144.978
X56.3Y-149.7
X56.331Y-84.979
X56.331Y-89.701
X57.024Y-146.061
X57.024Y-148.617
X57.055Y-86.062
X57.055Y-88.618
X57.278Y-147.339
X57.309Y-87.34
X66.15Y-141.9
X66.3Y-142.5
X66.6Y-141.45
X66.75Y-142.05
X66.9Y-142.65
X67.05Y-141.0
X67.2Y-141.6
X67.35Y-142.2
X67.5Y-140.55
X67.65Y-141.15
X67.8Y-141.75
X68.1Y-140.7
X68.25Y-141.3
X69.4Y-117.6
X69.4Y-118.4
X69.4Y-119.2
X69.4Y-120.0
X69.4Y-120.8
X69.815Y-126.05
X70.2Y-117.6
X70.2Y-118.4
X70.2Y-119.2
X70.2Y-120.0
X70.2Y-120.8
X75.49Y-91.39
X78.2Y-97.0
X79.65Y-108.6
X79.65Y-109.6
X79.65Y-110.6
X79.65Y-111.6
X79.65Y-112.6
X79.65Y-113.6
X79.65Y-114.6
X80.0Y-96.4
X80.3Y-95.875
X80.3Y-96.925
X80.45Y-88.6
X80.6Y-96.4
X80.65Y-108.6
X80.65Y-109.6
X80.65Y-110.6
X80.65Y-111.6
X80.65Y-112.6
X80.65Y-113.6
X80.65Y-114.6
X80.75Y-88.075
X80.75Y-89.125
X80.9Y-95.875
X80.9Y-96.925
X81.05Y-88.6
X81.05Y-89.65
X81.2Y-96.4
X81.35Y-88.075
X81.35Y-89.125
X81.35Y-90.175
X81.5Y-95.875
X81.5Y-96.925
X81.65Y-88.6
X81.65Y-89.65
X81.65Y-90.7
X81.65Y-108.6
X81.65Y-109.6
X81.65Y-110.6
X81.65Y-111.6
X81.65Y-112.6
X81.65Y-113.6
X81.65Y-114.6
X81.8Y-96.4
X81.95Y-88.075
X81.95Y-89.125
X81.95Y-90.175
X82.1Y-95.875
X82.1Y-96.925
X82.25Y-88.6
X82.25Y-89.65
X82.25Y-90.7
X82.4Y-96.4
X82.4Y-98.98
X82.55Y-88.075
X82.55Y-89.125
X82.55Y-90.175
X82.55Y-106.8
X82.85Y-88.6
X82.85Y-89.65
X83.15Y-89.125
X83.31Y-119.42
X83.41Y-116.1
X84.95Y-141.8
X85.1Y-142.4
X85.4Y-141.35
X85.55Y-141.95
X85.7Y-142.55
X85.796Y-109.326
X85.85Y-140.9
X85.895Y-110.608
X85.9Y-113.45
X85.931Y-112.019
X86.0Y-141.5
X86.15Y-142.1
X86.261Y-108.675
X86.3Y-140.45
X86.35Y-109.95
X86.35Y-111.266
X86.35Y-112.7
X86.45Y-141.05
X86.6Y-93.9
X86.6Y-94.9
X86.6Y-95.9
X86.6Y-96.9
X86.6Y-97.9
X86.6Y-98.9
X86.6Y-99.9
X86.6Y-141.65
X86.9Y-140.6
X87.05Y-141.2
X87.6Y-93.9
X87.6Y-94.9
X87.6Y-95.9
X87.6Y-96.9
X87.6Y-97.9
X87.6Y-98.9
X87.6Y-99.9
X88.3Y-121.9
X88.4Y-114.5
X88.4Y-115.115
X88.41Y-115.735
X88.457Y-117.915
X88.6Y-93.9
X88.6Y-94.9
X88.6Y-95.9
X88.6Y-96.9
X88.6Y-97.9
X88.6Y-98.9
X88.6Y-99.9
X88.757Y-117.39
X88.757Y-118.44
X89.0Y-114.5
X89.0Y-115.115
X89.01Y-115.735
X89.057Y-116.865
X89.057Y-117.915
X89.358Y-117.39
X89.358Y-118.44
X89.657Y-116.865
X89.657Y-117.915
X89.66Y-138.38
X89.957Y-117.39
X89.957Y-118.44
X90.24Y-126.14
X90.257Y-116.865
X90.257Y-117.915
X90.557Y-117.39
X90.557Y-118.44
X90.858Y-116.865
X90.858Y-117.915
X91.157Y-117.39
X91.157Y-118.44
X91.457Y-116.865
X91.457Y-117.915
X91.661Y-98.539
X91.757Y-117.39
X91.757Y-118.44
X92.057Y-116.865
X92.057Y-117.915
X92.225Y-88.82
X92.358Y-117.39
X92.358Y-118.44
X92.525Y-88.295
X92.525Y-89.345
X92.657Y-117.915
X92.825Y-88.82
X92.825Y-89.87
X92.935Y-96.425
X92.95Y-98.55
X93.125Y-88.295
X93.125Y-89.345
X93.125Y-90.395
X93.15Y-104.363
X93.235Y-95.9
X93.235Y-96.95
X93.425Y-88.82
X93.425Y-89.87
X93.425Y-90.92
X93.535Y-96.425
X93.695Y-103.805
X93.725Y-88.295
X93.725Y-89.345
X93.725Y-90.395
X93.835Y-95.9
X93.835Y-96.95
X94.025Y-88.82
X94.025Y-89.87
X94.025Y-90.92
X94.135Y-96.425
X94.3Y-115.3
X94.3Y-116.1
X94.3Y-116.9
X94.3Y-117.7
X94.3Y-118.5
X94.3Y-119.3
X94.325Y-88.295
X94.325Y-89.345
X94.325Y-90.395
X94.35Y-123.015
X94.435Y-95.9
X94.435Y-96.95
X94.625Y-88.82
X94.625Y-89.87
X94.65Y-122.49
X94.65Y-123.54
X94.735Y-96.425
X94.75Y-101.63
X94.925Y-89.345
X94.95Y-121.965
X94.95Y-123.015
X95.035Y-95.9
X95.035Y-96.95
X95.1Y-115.3
X95.1Y-116.1
X95.1Y-116.9
X95.1Y-117.7
X95.1Y-118.5
X95.1Y-119.3
X95.25Y-122.49
X95.25Y-123.54
X95.335Y-96.425
X95.55Y-121.965
X95.55Y-123.015
X95.85Y-122.49
X95.85Y-123.54
X96.15Y-121.965
X96.15Y-123.015
X96.45Y-122.49
X96.45Y-123.54
X96.62Y-126.412
X96.75Y-121.965
X96.75Y-123.015
X96.905Y-106.195
X97.05Y-122.49
X97.05Y-123.54
X97.2Y-88.7
X97.35Y-121.965
X97.35Y-123.015
X97.65Y-122.49
X97.65Y-123.54
X97.865Y-108.225
X97.95Y-121.965
X97.95Y-123.015
X98.165Y-107.7
X98.165Y-108.75
X98.25Y-122.49
X98.25Y-123.54
X98.275Y-116.45
X98.465Y-108.225
X98.55Y-123.015
X98.575Y-115.925
X98.575Y-116.975
X98.765Y-107.7
X98.765Y-108.75
X98.875Y-115.4
X98.875Y-116.45
X99.065Y-108.225
X99.175Y-114.875
X99.175Y-115.925
X99.175Y-116.975
X99.365Y-107.7
X99.365Y-108.75
X99.475Y-114.35
X99.475Y-115.4
X99.475Y-116.45
X99.665Y-108.225
X99.75Y-93.95
X99.75Y-94.6
X99.775Y-114.875
X99.775Y-115.925
X99.775Y-116.975
X99.965Y-107.7
X99.965Y-108.75
X100.075Y-114.35
X100.075Y-115.4
X100.075Y-116.45
X100.265Y-108.225
X100.375Y-114.875
X100.375Y-115.925
X100.375Y-116.975
X100.4Y-93.95
X100.4Y-94.6
X100.675Y-115.4
X100.675Y-116.45
X100.975Y-115.925
X101.35Y-105.5
X101.35Y-106.7
X102.256Y-114.177
X103.197Y-114.181
X103.3Y-101.8
X103.4Y-96.2
X103.55Y-96.8
X103.55Y-142.05
X103.7Y-97.4
X103.7Y-142.65
X103.85Y-95.75
X104.0Y-96.35
X104.0Y-141.6
X104.15Y-96.95
X104.15Y-142.2
X104.3Y-95.3
X104.3Y-97.55
X104.3Y-142.8
X104.45Y-95.9
X104.45Y-141.15
X104.55Y-104.7
X104.55Y-105.7
X104.55Y-106.7
X104.55Y-107.7
X104.55Y-108.7
X104.55Y-109.7
X104.55Y-110.7
X104.6Y-96.5
X104.6Y-141.75
X104.75Y-94.85
X104.75Y-97.1
X104.75Y-142.35
X104.9Y-95.45
X104.9Y-140.7
X105.05Y-96.05
X105.05Y-141.3
X105.2Y-94.4
X105.2Y-96.65
X105.2Y-141.9
X105.35Y-95.0
X105.5Y-95.6
X105.5Y-140.85
X105.55Y-104.7
X105.55Y-105.7
X105.55Y-106.7
X105.55Y-107.7
X105.55Y-108.7
X105.55Y-109.7
X105.55Y-110.7
X105.65Y-93.95
X105.65Y-96.2
X105.65Y-141.45
X105.8Y-94.55
X105.8Y-123.9
X105.85Y-134.8
X105.95Y-95.15
X106.1Y-95.75
X106.1Y-101.604
X106.25Y-94.1
X106.4Y-94.7
X106.55Y-95.3
X106.55Y-104.7
X106.55Y-105.7
X106.55Y-106.7
X106.55Y-107.7
X106.55Y-108.7
X106.55Y-109.7
X106.55Y-110.7
X106.85Y-94.25
X107.0Y-94.85
X108.55Y-138.41
X110.2Y-116.45
X110.5Y-115.925
X110.5Y-116.975
X110.8Y-108.2
X110.8Y-115.4
X110.8Y-116.45
X111.1Y-107.675
X111.1Y-108.725
X111.1Y-114.875
X111.1Y-115.925
X111.1Y-116.975
X111.4Y-108.2
X111.4Y-114.35
X111.4Y-115.4
X111.4Y-116.45
X111.7Y-107.675
X111.7Y-108.725
X111.7Y-114.875
X111.7Y-115.925
X111.7Y-116.975
X112.0Y-108.2
X112.0Y-114.35
X112.0Y-115.4
X112.0Y-116.45
X112.03Y-105.47
X112.3Y-107.675
X112.3Y-108.725
X112.3Y-114.875
X112.3Y-115.925
X112.3Y-116.975
X112.55Y-99.5
X112.6Y-108.2
X112.6Y-115.4
X112.6Y-116.45
X112.7Y-97.85
X112.7Y-100.1
X112.85Y-96.2
X112.85Y-98.45
X112.85Y-100.7
X112.9Y-107.675
X112.9Y-108.725
X112.9Y-115.925
X112.99Y-101.29
X113.0Y-96.8
X113.0Y-99.05
X113.0Y-106.1
X113.15Y-97.4
X113.15Y-99.65
X113.2Y-108.2
X113.3Y-95.75
X113.3Y-98.0
X113.3Y-100.25
X113.45Y-96.35
X113.45Y-98.6
X113.45Y-100.85
X113.58Y-101.46
X113.6Y-96.95
X113.6Y-99.2
X113.75Y-95.3
X113.75Y-97.55
X113.75Y-99.8
X113.9Y-95.9
X113.9Y-98.15
X113.9Y-100.4
X114.05Y-96.5
X114.05Y-98.75
X114.05Y-101.0
X114.06Y-105.55
X114.13Y-88.85
X114.19Y-101.59
X114.2Y-97.1
X114.2Y-99.35
X114.205Y-106.16
X114.33Y-104.5
X114.34Y-102.18
X114.35Y-95.45
X114.35Y-97.7
X114.35Y-99.95
X114.48Y-102.79
X114.5Y-96.05
X114.5Y-98.3
X114.5Y-100.55
X114.505Y-105.11
X114.62Y-103.41
X114.65Y-96.65
X114.65Y-98.9
X114.65Y-101.15
X114.655Y-105.71
X114.72Y-90.68
X114.77Y-104.04
X114.8Y-97.25
X114.8Y-99.5
X114.8Y-101.76
X114.805Y-106.31
X114.93Y-104.66
X114.95Y-95.6
X114.95Y-97.85
X114.95Y-100.1
X114.95Y-102.37
X114.955Y-106.91
X115.09Y-102.98
X115.1Y-96.2
X115.1Y-98.45
X115.105Y-105.26
X115.105Y-107.51
X115.11Y-100.72
X115.2Y-124.15
X115.23Y-103.59
X115.25Y-96.8
X115.255Y-105.86
X115.26Y-101.33
X115.38Y-104.21
X115.405Y-106.46
X115.41Y-101.94
X115.45Y-88.0
X115.53Y-104.81
X115.55Y-102.55
X115.555Y-107.06
X115.69Y-103.16
X115.705Y-105.41
X115.705Y-107.66
X115.83Y-103.76
X115.855Y-106.01
X115.93Y-92.05
X115.98Y-104.36
X116.005Y-106.61
X116.13Y-104.96
X116.155Y-107.21
X116.3Y-103.3
X116.305Y-105.56
X116.32Y-91.32
X116.36Y-87.97
X116.43Y-103.91
X116.455Y-106.16
X116.58Y-104.51
X116.605Y-106.76
X116.745Y-105.12
X116.85Y-118.519
X116.905Y-105.735
X117.025Y-104.08
X117.055Y-106.335
X117.185Y-104.68
X117.22Y-91.78
X117.345Y-105.29
X120.5Y-115.7
X120.75Y-102.7
X121.47Y-118.763
X122.14Y-118.183
X122.2Y-142.1
X122.35Y-142.7
X122.65Y-141.65
X122.8Y-142.25
X122.95Y-142.85
X123.0Y-102.8
X123.1Y-141.2
X123.25Y-141.8
X123.4Y-142.4
X123.55Y-140.75
X123.7Y-141.35
X123.85Y-141.95
X124.1Y-101.2
X124.102Y-87.008
X124.15Y-140.9
X124.3Y-141.5
X124.45Y-115.7
X124.49Y-134.85
X127.03Y-138.0
X127.269Y-102.041
X129.0Y-97.105
X129.4Y-110.8
X130.03Y-117.25
X130.7Y-86.2
X130.91Y-117.25
X131.4Y-120.7
X132.9Y-100.625
X132.9Y-101.675
X132.9Y-102.725
X133.2Y-100.1
X133.2Y-101.15
X133.2Y-102.2
X133.2Y-103.25
X133.245Y-135.755
X133.4Y-90.6
X133.5Y-100.625
X133.5Y-101.675
X133.5Y-102.725
X133.8Y-100.1
X133.8Y-101.15
X133.8Y-102.2
X133.8Y-103.25
X133.88Y-125.04
X134.1Y-100.625
X134.1Y-101.675
X134.1Y-102.725
X134.85Y-135.05
X135.0Y-125.3
X135.1Y-128.838
X135.2Y-132.338
X135.95Y-141.631
X135.95Y-142.331
X135.95Y-143.031
X136.7Y-141.631
X136.7Y-142.331
X136.7Y-143.031
X137.0Y-97.75
X137.25Y-92.3
X137.731Y-124.338
X137.731Y-127.838
X137.731Y-131.338
X137.731Y-134.838
X137.736Y-132.312
X137.736Y-128.787
X137.942Y-93.954
X138.746Y-93.927
X139.25Y-127.75
X139.731Y-125.338
X139.731Y-129.338
X139.731Y-135.838
X139.99Y-93.78
X140.3Y-138.54
X141.8Y-117.0
X141.85Y-93.75
X142.131Y-128.338
X142.131Y-131.838
X142.131Y-135.338
X142.181Y-125.038
X142.519Y-140.65
X142.519Y-141.4
X142.65Y-117.0
X142.9Y-89.7
X142.909Y-130.259
X142.925Y-131.275
X143.19Y-143.14
X143.219Y-140.65
X143.219Y-141.4
X143.35Y-115.95
X143.47Y-116.979
X143.5Y-97.2
X143.919Y-140.65
X143.919Y-141.4
X144.25Y-117.0
X144.619Y-125.2
X144.82Y-126.1
X145.3Y-95.85
X145.45Y-124.45
X145.5Y-107.1
X145.6Y-120.158
X146.55Y-120.0
X147.185Y-129.015
X147.2Y-124.075
X147.201Y-126.001
X147.55Y-114.55
X148.3Y-124.15
X148.5Y-107.1
X148.5Y-136.84
X148.65Y-142.85
X148.9Y-127.595
X148.95Y-144.05
X149.419Y-140.65
X149.419Y-141.4
X149.5Y-117.15
X150.119Y-140.65
X150.119Y-141.4
X150.15Y-114.137
X150.8Y-114.637
X150.819Y-140.65
X150.819Y-141.4
X151.45Y-90.282
X151.45Y-114.137
X151.5Y-107.1
X151.7Y-133.25
X151.75Y-134.25
X152.0Y-98.0
X152.0Y-98.8
X152.1Y-114.637
X152.72Y-130.622
X152.75Y-114.137
X152.8Y-98.0
X152.8Y-98.8
X153.25Y-127.6
X153.4Y-114.637
X153.6Y-98.0
X153.6Y-98.8
X153.65Y-131.6
X154.0Y-130.622
X154.05Y-114.137
X154.4Y-98.0
X154.4Y-98.8
X154.5Y-107.1
X154.7Y-114.637
X155.895Y-130.4
X155.97Y-120.9
X156.319Y-140.6
X156.319Y-141.35
X156.53Y-127.5
X157.019Y-140.6
X157.019Y-141.35
X157.15Y-137.35
X157.165Y-128.0
X157.24Y-120.8
X157.55Y-125.6
X157.555Y-138.113
X157.6Y-107.1
X157.719Y-140.6
X157.719Y-141.35
X157.8Y-127.5
X158.02Y-120.8
X158.4Y-138.2
X158.435Y-128.0
X158.45Y-95.4
X158.8Y-120.8
X159.07Y-127.5
X159.6Y-120.8
X159.705Y-128.0
X160.2Y-112.4
X160.3Y-90.4
X160.301Y-117.035
X160.325Y-113.75
X160.34Y-127.5
X160.6Y-107.1
X160.975Y-128.0
X161.5Y-120.3
X161.6Y-125.4
X161.95Y-116.75
X161.975Y-113.25
X163.119Y-126.0
X163.119Y-129.55
X163.219Y-140.65
X163.219Y-141.4
X163.919Y-140.65
X163.919Y-141.4
X164.4Y-120.75
X164.475Y-131.4
X164.5Y-124.3
X164.5Y-127.85
X164.619Y-140.65
X164.619Y-141.4
X165.0Y-112.95
X165.105Y-125.65
X165.15Y-117.17
X166.2Y-117.17
X166.2Y-120.25
X166.2Y-123.8
X166.2Y-127.35
X166.2Y-130.9
X166.219Y-126.45
X166.5Y-115.85
X167.25Y-92.6
X167.65Y-115.9
X168.54Y-115.74
X168.6Y-134.2
X169.0Y-113.5
X169.91Y-111.91
X170.0Y-136.8
X170.119Y-140.6
X170.119Y-141.35
X170.279Y-124.964
X170.279Y-125.744
X170.285Y-122.464
X170.321Y-121.685
X170.725Y-120.36
X170.8Y-129.2
X170.819Y-140.6
X170.819Y-141.35
X170.9Y-83.65
X170.9Y-119.6
X171.027Y-123.541
X171.092Y-121.328
X171.519Y-140.6
X171.519Y-141.35
X171.612Y-122.87
X171.667Y-124.03
X171.696Y-125.64
X171.97Y-126.37
X173.5Y-85.2
X175.69Y-139.21
X176.0Y-112.8
X176.0Y-115.1
X176.0Y-115.854
X176.015Y-113.569
X176.022Y-114.345
X176.1Y-118.854
X176.4Y-89.85
X180.631Y-87.339
X180.65Y-147.339
X180.885Y-86.061
X180.885Y-88.616
X180.9Y-91.8
X180.905Y-146.062
X180.905Y-148.617
X181.609Y-84.978
X181.609Y-89.7
X181.628Y-144.978
X181.628Y-149.7
X182.692Y-84.254
X182.692Y-90.423
X182.711Y-144.255
X182.711Y-150.424
X183.97Y-84.0
X183.97Y-90.677
X183.989Y-144.0
X183.989Y-150.678
X185.248Y-84.254
X185.248Y-90.423
X185.267Y-144.255
X185.267Y-150.424
X186.331Y-84.978
X186.331Y-89.7
X186.35Y-144.978
X186.35Y-149.7
X187.055Y-86.061
X187.055Y-88.616
X187.074Y-146.061
X187.074Y-148.617
X187.309Y-87.339
X187.328Y-147.339
T2
X108.95Y-89.2
X108.95Y-90.5
X108.95Y-91.8
X108.95Y-93.1
X110.25Y-89.2
X110.25Y-90.5
X110.25Y-91.8
X110.25Y-93.1
X119.843Y-108.055
X119.843Y-109.355
X119.843Y-110.655
X119.843Y-111.955
X119.884Y-95.205
X119.884Y-96.505
X119.884Y-97.805
X119.884Y-99.105
X121.142Y-108.055
X121.142Y-109.355
X121.142Y-110.655
X121.142Y-111.955
X121.184Y-95.205
X121.184Y-96.505
X121.184Y-97.805
X121.184Y-99.105
T3
X62.9Y-111.1
X62.9Y-113.1
X62.9Y-118.0
X62.9Y-120.0
X63.45Y-148.225
X64.132Y-103.633
X65.45Y-148.225
X66.132Y-103.633
X67.45Y-148.225
X69.45Y-148.225
X71.45Y-148.225
X73.45Y-148.225
X82.2Y-148.215
X84.2Y-148.215
X86.2Y-148.215
X88.2Y-148.215
X90.2Y-148.215
X92.2Y-148.215
X100.817Y-148.255
X102.817Y-148.255
X104.817Y-148.255
X106.817Y-148.255
X108.817Y-148.255
X110.817Y-148.255
X119.34Y-148.245
X121.34Y-148.245
X123.34Y-148.245
X125.34Y-148.245
X127.34Y-148.245
X129.34Y-148.245
X136.35Y-87.15
X138.2Y-148.2
X138.35Y-87.15
X140.2Y-148.2
X140.35Y-87.15
X145.1Y-148.2
X145.55Y-87.15
X147.1Y-148.2
X147.55Y-87.15
X149.55Y-87.15
X152.0Y-148.2
X154.0Y-148.2
X154.75Y-87.15
X156.75Y-87.15
X158.75Y-87.15
X158.9Y-148.2
X160.9Y-148.2
X163.95Y-87.15
X165.8Y-148.2
X165.95Y-87.15
X167.8Y-148.2
X167.95Y-87.15
X172.7Y-148.2
X173.0Y-87.25
X174.7Y-148.2
X175.0Y-87.25
X177.0Y-87.25
T4
X62.1Y-125.917
X62.1Y-128.457
X62.1Y-130.998
X62.1Y-133.537
X62.1Y-136.077
X62.1Y-138.618
X62.1Y-141.157
X62.1Y-143.697
X67.275Y-110.41
X67.275Y-112.95
X67.275Y-115.49
X69.72Y-143.697
X69.815Y-110.41
X69.815Y-112.95
X69.815Y-115.49
X72.26Y-143.697
X74.8Y-125.917
X74.8Y-128.457
X74.8Y-130.998
X74.8Y-133.537
X74.8Y-136.077
X74.8Y-138.618
X74.8Y-141.157
X74.8Y-143.697
X80.85Y-125.917
X80.85Y-128.457
X80.85Y-130.998
X80.85Y-133.537
X80.85Y-136.077
X80.85Y-138.618
X80.85Y-141.157
X80.85Y-143.697
X88.47Y-143.697
X91.01Y-143.697
X93.55Y-125.917
X93.55Y-128.457
X93.55Y-130.998
X93.55Y-133.537
X93.55Y-136.077
X93.55Y-138.618
X93.55Y-141.157
X93.55Y-143.697
X99.453Y-125.917
X99.453Y-128.457
X99.453Y-130.998
X99.453Y-133.537
X99.453Y-136.077
X99.453Y-138.618
X99.453Y-141.157
X99.453Y-143.697
X107.072Y-143.697
X109.612Y-143.697
X112.152Y-125.917
X112.152Y-128.457
X112.152Y-130.998
X112.152Y-133.537
X112.152Y-136.077
X112.152Y-138.618
X112.152Y-141.157
X112.152Y-143.697
X118.05Y-125.88
X118.05Y-128.42
X118.05Y-130.96
X118.05Y-133.5
X118.05Y-136.04
X118.05Y-138.58
X118.05Y-141.12
X118.05Y-143.66
X125.67Y-143.66
X128.21Y-143.66
X130.75Y-125.88
X130.75Y-128.42
X130.75Y-130.96
X130.75Y-133.5
X130.75Y-136.04
X130.75Y-138.58
X130.75Y-141.12
X130.75Y-143.66
X138.2Y-104.2
X140.74Y-104.2
X143.28Y-104.2
X145.82Y-104.2
X148.36Y-104.2
X150.9Y-104.2
X153.44Y-104.2
X155.98Y-104.2
X158.52Y-104.2
X161.06Y-104.2
X163.6Y-104.2
X166.14Y-104.2
T5
X173.4Y-95.3
X173.4Y-98.3
X173.4Y-101.3
X173.4Y-104.3
X176.4Y-95.3
X176.4Y-98.3
X176.4Y-101.3
X176.4Y-104.3
T6
X75.7Y-87.95
X75.7Y-118.95
X127.7Y-87.95
X127.7Y-118.95
T7
X64.981Y-88.584
X64.981Y-95.783
M30
