%TF.GenerationSoftware,KiCad,Pcbnew,9.0.5*%
%TF.CreationDate,2025-10-24T02:39:33+02:00*%
%TF.ProjectId,psu,7073752e-6b69-4636-9164-5f7063625858,rev?*%
%TF.SameCoordinates,Original*%
%TF.FileFunction,Paste,Top*%
%TF.FilePolarity,Positive*%
%FSLAX46Y46*%
G04 Gerber Fmt 4.6, Leading zero omitted, Abs format (unit mm)*
G04 Created by KiCad (PCBNEW 9.0.5) date 2025-10-24 02:39:33*
%MOMM*%
%LPD*%
G01*
G04 APERTURE LIST*
G04 Aperture macros list*
%AMRoundRect*
0 Rectangle with rounded corners*
0 $1 Rounding radius*
0 $2 $3 $4 $5 $6 $7 $8 $9 X,Y pos of 4 corners*
0 Add a 4 corners polygon primitive as box body*
4,1,4,$2,$3,$4,$5,$6,$7,$8,$9,$2,$3,0*
0 Add four circle primitives for the rounded corners*
1,1,$1+$1,$2,$3*
1,1,$1+$1,$4,$5*
1,1,$1+$1,$6,$7*
1,1,$1+$1,$8,$9*
0 Add four rect primitives between the rounded corners*
20,1,$1+$1,$2,$3,$4,$5,0*
20,1,$1+$1,$4,$5,$6,$7,0*
20,1,$1+$1,$6,$7,$8,$9,0*
20,1,$1+$1,$8,$9,$2,$3,0*%
%AMFreePoly0*
4,1,7,1.050000,-0.975000,-0.250000,-0.975000,-0.250000,-0.625000,-1.050000,-0.625000,-1.050000,0.975000,1.050000,0.975000,1.050000,-0.975000,1.050000,-0.975000,$1*%
%AMFreePoly1*
4,1,7,1.050000,-0.625000,0.250000,-0.625000,0.250000,-0.975000,-1.050000,-0.975000,-1.050000,0.975000,1.050000,0.975000,1.050000,-0.625000,1.050000,-0.625000,$1*%
G04 Aperture macros list end*
%ADD10C,0.010000*%
%ADD11RoundRect,0.075000X0.475000X-0.075000X0.475000X0.075000X-0.475000X0.075000X-0.475000X-0.075000X0*%
%ADD12FreePoly0,90.000000*%
%ADD13FreePoly1,90.000000*%
%ADD14RoundRect,0.051250X-0.688750X-0.153750X0.688750X-0.153750X0.688750X0.153750X-0.688750X0.153750X0*%
%ADD15RoundRect,0.250000X-0.450000X0.262500X-0.450000X-0.262500X0.450000X-0.262500X0.450000X0.262500X0*%
%ADD16RoundRect,0.250000X0.262500X0.450000X-0.262500X0.450000X-0.262500X-0.450000X0.262500X-0.450000X0*%
%ADD17RoundRect,0.250000X0.625000X-0.375000X0.625000X0.375000X-0.625000X0.375000X-0.625000X-0.375000X0*%
%ADD18RoundRect,0.250000X0.625000X-0.312500X0.625000X0.312500X-0.625000X0.312500X-0.625000X-0.312500X0*%
%ADD19RoundRect,0.250000X-0.475000X0.250000X-0.475000X-0.250000X0.475000X-0.250000X0.475000X0.250000X0*%
%ADD20RoundRect,0.304349X-1.095651X-1.395651X1.095651X-1.395651X1.095651X1.395651X-1.095651X1.395651X0*%
%ADD21RoundRect,0.250000X0.475000X-0.250000X0.475000X0.250000X-0.475000X0.250000X-0.475000X-0.250000X0*%
%ADD22RoundRect,0.075000X0.650000X0.075000X-0.650000X0.075000X-0.650000X-0.075000X0.650000X-0.075000X0*%
%ADD23RoundRect,0.100000X0.100000X-0.637500X0.100000X0.637500X-0.100000X0.637500X-0.100000X-0.637500X0*%
%ADD24RoundRect,0.250000X0.450000X-0.262500X0.450000X0.262500X-0.450000X0.262500X-0.450000X-0.262500X0*%
%ADD25RoundRect,0.250000X-0.315000X-0.460000X0.315000X-0.460000X0.315000X0.460000X-0.315000X0.460000X0*%
%ADD26RoundRect,0.150000X-0.737500X-0.150000X0.737500X-0.150000X0.737500X0.150000X-0.737500X0.150000X0*%
%ADD27RoundRect,0.250000X-0.262500X-0.450000X0.262500X-0.450000X0.262500X0.450000X-0.262500X0.450000X0*%
%ADD28R,0.400000X1.200000*%
%ADD29RoundRect,0.250000X-0.250000X-0.475000X0.250000X-0.475000X0.250000X0.475000X-0.250000X0.475000X0*%
%ADD30RoundRect,0.250000X-0.312500X-0.625000X0.312500X-0.625000X0.312500X0.625000X-0.312500X0.625000X0*%
%ADD31RoundRect,0.250000X1.000000X-1.500000X1.000000X1.500000X-1.000000X1.500000X-1.000000X-1.500000X0*%
%ADD32RoundRect,0.162500X-0.162500X0.447500X-0.162500X-0.447500X0.162500X-0.447500X0.162500X0.447500X0*%
%ADD33RoundRect,0.068750X0.206250X-0.551250X0.206250X0.551250X-0.206250X0.551250X-0.206250X-0.551250X0*%
%ADD34R,1.750000X0.450000*%
%ADD35RoundRect,0.250000X0.315000X0.460000X-0.315000X0.460000X-0.315000X-0.460000X0.315000X-0.460000X0*%
%ADD36RoundRect,0.150000X0.737500X0.150000X-0.737500X0.150000X-0.737500X-0.150000X0.737500X-0.150000X0*%
%ADD37RoundRect,0.250000X-0.625000X0.375000X-0.625000X-0.375000X0.625000X-0.375000X0.625000X0.375000X0*%
%ADD38RoundRect,0.190000X-0.610000X-0.190000X0.610000X-0.190000X0.610000X0.190000X-0.610000X0.190000X0*%
%ADD39RoundRect,0.250000X0.250000X0.475000X-0.250000X0.475000X-0.250000X-0.475000X0.250000X-0.475000X0*%
%ADD40RoundRect,0.250000X0.312500X0.625000X-0.312500X0.625000X-0.312500X-0.625000X0.312500X-0.625000X0*%
%ADD41RoundRect,0.051250X0.688750X0.153750X-0.688750X0.153750X-0.688750X-0.153750X0.688750X-0.153750X0*%
%ADD42RoundRect,0.250000X0.375000X0.625000X-0.375000X0.625000X-0.375000X-0.625000X0.375000X-0.625000X0*%
G04 APERTURE END LIST*
D10*
%TO.C,U25*%
X88365000Y-94820000D02*
X86835000Y-94820000D01*
X86835000Y-93310000D01*
X88365000Y-93310000D01*
X88365000Y-94820000D01*
G36*
X88365000Y-94820000D02*
G01*
X86835000Y-94820000D01*
X86835000Y-93310000D01*
X88365000Y-93310000D01*
X88365000Y-94820000D01*
G37*
X88365000Y-96710000D02*
X86835000Y-96710000D01*
X86835000Y-95200000D01*
X88365000Y-95200000D01*
X88365000Y-96710000D01*
G36*
X88365000Y-96710000D02*
G01*
X86835000Y-96710000D01*
X86835000Y-95200000D01*
X88365000Y-95200000D01*
X88365000Y-96710000D01*
G37*
X88365000Y-98600000D02*
X86835000Y-98600000D01*
X86835000Y-97090000D01*
X88365000Y-97090000D01*
X88365000Y-98600000D01*
G36*
X88365000Y-98600000D02*
G01*
X86835000Y-98600000D01*
X86835000Y-97090000D01*
X88365000Y-97090000D01*
X88365000Y-98600000D01*
G37*
X88365000Y-100490000D02*
X86835000Y-100490000D01*
X86835000Y-98980000D01*
X88365000Y-98980000D01*
X88365000Y-100490000D01*
G36*
X88365000Y-100490000D02*
G01*
X86835000Y-100490000D01*
X86835000Y-98980000D01*
X88365000Y-98980000D01*
X88365000Y-100490000D01*
G37*
%TO.C,U22*%
X106315000Y-105620000D02*
X104785000Y-105620000D01*
X104785000Y-104110000D01*
X106315000Y-104110000D01*
X106315000Y-105620000D01*
G36*
X106315000Y-105620000D02*
G01*
X104785000Y-105620000D01*
X104785000Y-104110000D01*
X106315000Y-104110000D01*
X106315000Y-105620000D01*
G37*
X106315000Y-107510000D02*
X104785000Y-107510000D01*
X104785000Y-106000000D01*
X106315000Y-106000000D01*
X106315000Y-107510000D01*
G36*
X106315000Y-107510000D02*
G01*
X104785000Y-107510000D01*
X104785000Y-106000000D01*
X106315000Y-106000000D01*
X106315000Y-107510000D01*
G37*
X106315000Y-109400000D02*
X104785000Y-109400000D01*
X104785000Y-107890000D01*
X106315000Y-107890000D01*
X106315000Y-109400000D01*
G36*
X106315000Y-109400000D02*
G01*
X104785000Y-109400000D01*
X104785000Y-107890000D01*
X106315000Y-107890000D01*
X106315000Y-109400000D01*
G37*
X106315000Y-111290000D02*
X104785000Y-111290000D01*
X104785000Y-109780000D01*
X106315000Y-109780000D01*
X106315000Y-111290000D01*
G36*
X106315000Y-111290000D02*
G01*
X104785000Y-111290000D01*
X104785000Y-109780000D01*
X106315000Y-109780000D01*
X106315000Y-111290000D01*
G37*
%TD*%
D11*
%TO.C,J5*%
X173100000Y-132450000D03*
X173100000Y-131950000D03*
X173100000Y-131450000D03*
X173100000Y-130950000D03*
X173100000Y-130450000D03*
X173100000Y-129950000D03*
X173100000Y-129450000D03*
X173100000Y-128950000D03*
X173100000Y-128450000D03*
X173100000Y-127950000D03*
X173100000Y-127450000D03*
X173100000Y-126950000D03*
X173100000Y-126450000D03*
X173100000Y-125950000D03*
X173100000Y-125450000D03*
X173100000Y-124950000D03*
X173100000Y-124450000D03*
X173100000Y-123950000D03*
X173100000Y-123450000D03*
X173100000Y-122950000D03*
X173100000Y-122450000D03*
X173100000Y-121950000D03*
X173100000Y-121450000D03*
X173100000Y-120950000D03*
X173100000Y-120450000D03*
X173100000Y-119950000D03*
X173100000Y-119450000D03*
X173100000Y-118950000D03*
X173100000Y-118450000D03*
X173100000Y-117950000D03*
X173100000Y-117450000D03*
X173100000Y-116950000D03*
X173100000Y-116450000D03*
X173100000Y-115950000D03*
X173100000Y-115450000D03*
X173100000Y-114950000D03*
X173100000Y-114450000D03*
X173100000Y-113950000D03*
X173100000Y-113450000D03*
X173100000Y-112950000D03*
D12*
X174225000Y-134700000D03*
D13*
X174225000Y-110700000D03*
%TD*%
D14*
%TO.C,U25*%
X84735000Y-92675000D03*
X84735000Y-93325000D03*
X84735000Y-93975000D03*
X84735000Y-94625000D03*
X84735000Y-95275000D03*
X84735000Y-95925000D03*
X84735000Y-96575000D03*
X84735000Y-97225000D03*
X84735000Y-97875000D03*
X84735000Y-98525000D03*
X84735000Y-99175000D03*
X84735000Y-99825000D03*
X84735000Y-100475000D03*
X84735000Y-101125000D03*
X90465000Y-101125000D03*
X90465000Y-100475000D03*
X90465000Y-99825000D03*
X90465000Y-99175000D03*
X90465000Y-98525000D03*
X90465000Y-97875000D03*
X90465000Y-97225000D03*
X90465000Y-96575000D03*
X90465000Y-95925000D03*
X90465000Y-95275000D03*
X90465000Y-94625000D03*
X90465000Y-93975000D03*
X90465000Y-93325000D03*
X90465000Y-92675000D03*
%TD*%
D15*
%TO.C,R56*%
X101680000Y-86337500D03*
X101680000Y-88162500D03*
%TD*%
D16*
%TO.C,R11*%
X109962500Y-141050000D03*
X108137500Y-141050000D03*
%TD*%
D17*
%TO.C,D4*%
X133700000Y-144300000D03*
X133700000Y-141500000D03*
%TD*%
D18*
%TO.C,R24*%
X156750000Y-94512500D03*
X156750000Y-91587500D03*
%TD*%
D15*
%TO.C,R54*%
X108380000Y-94887500D03*
X108380000Y-96712500D03*
%TD*%
D19*
%TO.C,C34*%
X110700000Y-109800000D03*
X110700000Y-111700000D03*
%TD*%
D16*
%TO.C,R73*%
X171062500Y-135350000D03*
X169237500Y-135350000D03*
%TD*%
%TO.C,R64*%
X108742500Y-86750000D03*
X106917500Y-86750000D03*
%TD*%
D20*
%TO.C,L3*%
X133821250Y-97910000D03*
X140021250Y-97910000D03*
%TD*%
D21*
%TO.C,C62*%
X82280000Y-94800000D03*
X82280000Y-92900000D03*
%TD*%
%TO.C,C36*%
X147000000Y-109000000D03*
X147000000Y-107100000D03*
%TD*%
D15*
%TO.C,R65*%
X84450000Y-103537500D03*
X84450000Y-105362500D03*
%TD*%
D17*
%TO.C,D3*%
X115100000Y-144300000D03*
X115100000Y-141500000D03*
%TD*%
D22*
%TO.C,U6*%
X140931000Y-125837538D03*
X140931000Y-125337538D03*
X140931000Y-124837538D03*
X140931000Y-124337538D03*
X140931000Y-123837538D03*
X136531000Y-123837538D03*
X136531000Y-124337538D03*
X136531000Y-124837538D03*
X136531000Y-125337538D03*
X136531000Y-125837538D03*
%TD*%
D19*
%TO.C,C60*%
X130501250Y-94920000D03*
X130501250Y-96820000D03*
%TD*%
D21*
%TO.C,C81*%
X156080000Y-109050000D03*
X156080000Y-107150000D03*
%TD*%
D23*
%TO.C,U3*%
X146250000Y-121762500D03*
X146900000Y-121762500D03*
X147550000Y-121762500D03*
X148200000Y-121762500D03*
X148850000Y-121762500D03*
X149500000Y-121762500D03*
X150150000Y-121762500D03*
X150800000Y-121762500D03*
X151450000Y-121762500D03*
X152100000Y-121762500D03*
X152750000Y-121762500D03*
X153400000Y-121762500D03*
X154050000Y-121762500D03*
X154700000Y-121762500D03*
X154700000Y-116037500D03*
X154050000Y-116037500D03*
X153400000Y-116037500D03*
X152750000Y-116037500D03*
X152100000Y-116037500D03*
X151450000Y-116037500D03*
X150800000Y-116037500D03*
X150150000Y-116037500D03*
X149500000Y-116037500D03*
X148850000Y-116037500D03*
X148200000Y-116037500D03*
X147550000Y-116037500D03*
X146900000Y-116037500D03*
X146250000Y-116037500D03*
%TD*%
D17*
%TO.C,D10*%
X96491500Y-134651625D03*
X96491500Y-131851625D03*
%TD*%
D19*
%TO.C,C32*%
X119360000Y-104310000D03*
X119360000Y-106210000D03*
%TD*%
D18*
%TO.C,R33*%
X73350000Y-109800000D03*
X73350000Y-106875000D03*
%TD*%
D19*
%TO.C,C33*%
X100300000Y-109830000D03*
X100300000Y-111730000D03*
%TD*%
D24*
%TO.C,R52*%
X130550000Y-100917500D03*
X130550000Y-99092500D03*
%TD*%
%TO.C,R13*%
X115100000Y-138875000D03*
X115100000Y-137050000D03*
%TD*%
D16*
%TO.C,R88*%
X127562500Y-125200000D03*
X125737500Y-125200000D03*
%TD*%
%TO.C,R87*%
X127562500Y-123200000D03*
X125737500Y-123200000D03*
%TD*%
D25*
%TO.C,U23*%
X119853750Y-96305000D03*
X119853750Y-98005000D03*
X121213750Y-96305000D03*
X121213750Y-98005000D03*
D26*
X117971250Y-95250000D03*
X117971250Y-96520000D03*
X117971250Y-97790000D03*
X117971250Y-99060000D03*
X123096250Y-99060000D03*
X123096250Y-97790000D03*
X123096250Y-96520000D03*
X123096250Y-95250000D03*
%TD*%
D15*
%TO.C,R3*%
X77750000Y-146895000D03*
X77750000Y-148720000D03*
%TD*%
D19*
%TO.C,C49*%
X119433750Y-91555000D03*
X119433750Y-93455000D03*
%TD*%
D24*
%TO.C,R39*%
X130442500Y-113767500D03*
X130442500Y-111942500D03*
%TD*%
D21*
%TO.C,C56*%
X161350000Y-94150000D03*
X161350000Y-92250000D03*
%TD*%
%TO.C,C79*%
X75500000Y-105350000D03*
X75500000Y-103450000D03*
%TD*%
D17*
%TO.C,D1*%
X77800000Y-144300000D03*
X77800000Y-141500000D03*
%TD*%
D24*
%TO.C,R57*%
X96500000Y-126662500D03*
X96500000Y-124837500D03*
%TD*%
D27*
%TO.C,R70*%
X161487500Y-90400000D03*
X163312500Y-90400000D03*
%TD*%
D16*
%TO.C,R66*%
X95612500Y-100500000D03*
X93787500Y-100500000D03*
%TD*%
D15*
%TO.C,R10*%
X133650000Y-146895000D03*
X133650000Y-148720000D03*
%TD*%
D27*
%TO.C,R55*%
X133187500Y-118700000D03*
X135012500Y-118700000D03*
%TD*%
D21*
%TO.C,C82*%
X159090000Y-109050000D03*
X159090000Y-107150000D03*
%TD*%
D24*
%TO.C,R48*%
X121683750Y-93417500D03*
X121683750Y-91592500D03*
%TD*%
D20*
%TO.C,L1*%
X133660000Y-110810000D03*
X139860000Y-110810000D03*
%TD*%
D28*
%TO.C,U1*%
X160975000Y-129300000D03*
X160340000Y-129300000D03*
X159705000Y-129300000D03*
X159070000Y-129300000D03*
X158435000Y-129300000D03*
X157800000Y-129300000D03*
X157165000Y-129300000D03*
X156530000Y-129300000D03*
X155895000Y-129300000D03*
X155260000Y-129300000D03*
X154625000Y-129300000D03*
X153990000Y-129300000D03*
X153355000Y-129300000D03*
X152720000Y-129300000D03*
X152720000Y-134500000D03*
X153355000Y-134500000D03*
X153990000Y-134500000D03*
X154625000Y-134500000D03*
X155260000Y-134500000D03*
X155895000Y-134500000D03*
X156530000Y-134500000D03*
X157165000Y-134500000D03*
X157800000Y-134500000D03*
X158435000Y-134500000D03*
X159070000Y-134500000D03*
X159705000Y-134500000D03*
X160340000Y-134500000D03*
X160975000Y-134500000D03*
%TD*%
D29*
%TO.C,C77*%
X93750000Y-102600000D03*
X95650000Y-102600000D03*
%TD*%
D22*
%TO.C,U7*%
X140931000Y-136337538D03*
X140931000Y-135837538D03*
X140931000Y-135337538D03*
X140931000Y-134837538D03*
X140931000Y-134337538D03*
X136531000Y-134337538D03*
X136531000Y-134837538D03*
X136531000Y-135337538D03*
X136531000Y-135837538D03*
X136531000Y-136337538D03*
%TD*%
D16*
%TO.C,R72*%
X170975000Y-132900000D03*
X169150000Y-132900000D03*
%TD*%
D15*
%TO.C,R44*%
X115200000Y-127275000D03*
X115200000Y-129100000D03*
%TD*%
%TO.C,R89*%
X104500000Y-99687500D03*
X104500000Y-101512500D03*
%TD*%
D21*
%TO.C,C54*%
X154350000Y-94150000D03*
X154350000Y-92250000D03*
%TD*%
D15*
%TO.C,R63*%
X82368750Y-99987500D03*
X82368750Y-101812500D03*
%TD*%
D18*
%TO.C,R34*%
X147550000Y-94512500D03*
X147550000Y-91587500D03*
%TD*%
D29*
%TO.C,C59*%
X125933750Y-97105000D03*
X127833750Y-97105000D03*
%TD*%
D30*
%TO.C,R32*%
X165837500Y-107200000D03*
X168762500Y-107200000D03*
%TD*%
D31*
%TO.C,C3*%
X105800000Y-138057500D03*
X105800000Y-131557500D03*
%TD*%
D15*
%TO.C,R36*%
X166200000Y-99787500D03*
X166200000Y-101612500D03*
%TD*%
D21*
%TO.C,C83*%
X162100000Y-109050000D03*
X162100000Y-107150000D03*
%TD*%
D32*
%TO.C,Q4*%
X139542500Y-144760000D03*
X140492500Y-142140000D03*
X138592500Y-142140000D03*
%TD*%
D31*
%TO.C,C4*%
X124400000Y-138057500D03*
X124400000Y-131557500D03*
%TD*%
D27*
%TO.C,R68*%
X134687500Y-90600000D03*
X136512500Y-90600000D03*
%TD*%
D24*
%TO.C,R14*%
X133700000Y-138862500D03*
X133700000Y-137037500D03*
%TD*%
D22*
%TO.C,U5*%
X140931000Y-129337538D03*
X140931000Y-128837538D03*
X140931000Y-128337538D03*
X140931000Y-127837538D03*
X140931000Y-127337538D03*
X136531000Y-127337538D03*
X136531000Y-127837538D03*
X136531000Y-128337538D03*
X136531000Y-128837538D03*
X136531000Y-129337538D03*
%TD*%
D21*
%TO.C,C39*%
X153020000Y-109000000D03*
X153020000Y-107100000D03*
%TD*%
D24*
%TO.C,R37*%
X128342500Y-113767500D03*
X128342500Y-111942500D03*
%TD*%
D21*
%TO.C,C63*%
X110780000Y-96750000D03*
X110780000Y-94850000D03*
%TD*%
D18*
%TO.C,R31*%
X165950000Y-94512500D03*
X165950000Y-91587500D03*
%TD*%
D33*
%TO.C,DC_U4*%
X165850000Y-143335000D03*
X166800000Y-143335000D03*
X167750000Y-143335000D03*
X167750000Y-140965000D03*
X166800000Y-140965000D03*
X165850000Y-140965000D03*
%TD*%
D21*
%TO.C,C55*%
X159150000Y-94150000D03*
X159150000Y-92250000D03*
%TD*%
D29*
%TO.C,C58*%
X117600000Y-101200000D03*
X119500000Y-101200000D03*
%TD*%
D24*
%TO.C,R8*%
X96500000Y-138862500D03*
X96500000Y-137037500D03*
%TD*%
D34*
%TO.C,U2*%
X77100000Y-108025000D03*
X77100000Y-108675000D03*
X77100000Y-109325000D03*
X77100000Y-109975000D03*
X77100000Y-110625000D03*
X77100000Y-111275000D03*
X77100000Y-111925000D03*
X77100000Y-112575000D03*
X77100000Y-113225000D03*
X77100000Y-113875000D03*
X77100000Y-114525000D03*
X77100000Y-115175000D03*
X84300000Y-115175000D03*
X84300000Y-114525000D03*
X84300000Y-113875000D03*
X84300000Y-113225000D03*
X84300000Y-112575000D03*
X84300000Y-111925000D03*
X84300000Y-111275000D03*
X84300000Y-110625000D03*
X84300000Y-109975000D03*
X84300000Y-109325000D03*
X84300000Y-108675000D03*
X84300000Y-108025000D03*
%TD*%
D19*
%TO.C,C42*%
X130442500Y-107905000D03*
X130442500Y-109805000D03*
%TD*%
D15*
%TO.C,R9*%
X115050000Y-146895000D03*
X115050000Y-148720000D03*
%TD*%
D24*
%TO.C,R35*%
X121610000Y-106172500D03*
X121610000Y-104347500D03*
%TD*%
D19*
%TO.C,C23*%
X123850000Y-125200000D03*
X123850000Y-127100000D03*
%TD*%
D33*
%TO.C,DC_U1*%
X152050000Y-143347500D03*
X153000000Y-143347500D03*
X153950000Y-143347500D03*
X153950000Y-140977500D03*
X153000000Y-140977500D03*
X152050000Y-140977500D03*
%TD*%
D19*
%TO.C,C47*%
X110800000Y-99200000D03*
X110800000Y-101100000D03*
%TD*%
D15*
%TO.C,R61*%
X96488250Y-128326625D03*
X96488250Y-130151625D03*
%TD*%
D25*
%TO.C,U21*%
X119812500Y-109155000D03*
X119812500Y-110855000D03*
X121172500Y-109155000D03*
X121172500Y-110855000D03*
D26*
X117930000Y-108100000D03*
X117930000Y-109370000D03*
X117930000Y-110640000D03*
X117930000Y-111910000D03*
X123055000Y-111910000D03*
X123055000Y-110640000D03*
X123055000Y-109370000D03*
X123055000Y-108100000D03*
%TD*%
D21*
%TO.C,C52*%
X152150000Y-94150000D03*
X152150000Y-92250000D03*
%TD*%
D35*
%TO.C,U24*%
X110280000Y-92000000D03*
X110280000Y-90300000D03*
X108920000Y-92000000D03*
X108920000Y-90300000D03*
D36*
X112162500Y-93055000D03*
X112162500Y-91785000D03*
X112162500Y-90515000D03*
X112162500Y-89245000D03*
X107037500Y-89245000D03*
X107037500Y-90515000D03*
X107037500Y-91785000D03*
X107037500Y-93055000D03*
%TD*%
D27*
%TO.C,R47*%
X98237500Y-105650000D03*
X100062500Y-105650000D03*
%TD*%
D29*
%TO.C,C40*%
X117550000Y-114200000D03*
X119450000Y-114200000D03*
%TD*%
D27*
%TO.C,R43*%
X100437500Y-101300000D03*
X102262500Y-101300000D03*
%TD*%
D37*
%TO.C,D8*%
X168400000Y-94000000D03*
X168400000Y-96800000D03*
%TD*%
D15*
%TO.C,R62*%
X99480000Y-86337500D03*
X99480000Y-88162500D03*
%TD*%
D16*
%TO.C,R6*%
X91362500Y-141100000D03*
X89537500Y-141100000D03*
%TD*%
D17*
%TO.C,D7*%
X115190000Y-133637500D03*
X115190000Y-130837500D03*
%TD*%
D16*
%TO.C,R58*%
X104092500Y-92350000D03*
X102267500Y-92350000D03*
%TD*%
D24*
%TO.C,R40*%
X115300000Y-122112500D03*
X115300000Y-120287500D03*
%TD*%
D38*
%TO.C,DSW1*%
X145120000Y-127280000D03*
X145120000Y-128550000D03*
X145120000Y-129820000D03*
X145120000Y-131090000D03*
X145120000Y-132360000D03*
X145120000Y-133630000D03*
X145120000Y-134900000D03*
X145120000Y-136170000D03*
X150200000Y-136170000D03*
X150200000Y-134900000D03*
X150200000Y-133630000D03*
X150200000Y-132360000D03*
X150200000Y-131090000D03*
X150200000Y-129820000D03*
X150200000Y-128550000D03*
X150200000Y-127280000D03*
%TD*%
D16*
%TO.C,R12*%
X128562500Y-141050000D03*
X126737500Y-141050000D03*
%TD*%
D39*
%TO.C,C48*%
X100100000Y-103550000D03*
X98200000Y-103550000D03*
%TD*%
D21*
%TO.C,C76*%
X82350000Y-105400000D03*
X82350000Y-103500000D03*
%TD*%
%TO.C,C37*%
X126142500Y-113805000D03*
X126142500Y-111905000D03*
%TD*%
D37*
%TO.C,D6*%
X168400000Y-98700000D03*
X168400000Y-101500000D03*
%TD*%
D16*
%TO.C,R71*%
X170462500Y-130550000D03*
X168637500Y-130550000D03*
%TD*%
D24*
%TO.C,R46*%
X108700000Y-101062500D03*
X108700000Y-99237500D03*
%TD*%
D21*
%TO.C,C80*%
X77900000Y-105350000D03*
X77900000Y-103450000D03*
%TD*%
D19*
%TO.C,C12*%
X165250000Y-133000000D03*
X165250000Y-134900000D03*
%TD*%
D31*
%TO.C,C2*%
X87200000Y-138107500D03*
X87200000Y-131607500D03*
%TD*%
D19*
%TO.C,C20*%
X167350000Y-135650000D03*
X167350000Y-137550000D03*
%TD*%
D16*
%TO.C,R60*%
X99012500Y-98600000D03*
X97187500Y-98600000D03*
%TD*%
D27*
%TO.C,R41*%
X121137500Y-114200000D03*
X122962500Y-114200000D03*
%TD*%
D21*
%TO.C,C61*%
X93000000Y-94800000D03*
X93000000Y-92900000D03*
%TD*%
D16*
%TO.C,R15*%
X144212500Y-114600000D03*
X142387500Y-114600000D03*
%TD*%
D15*
%TO.C,R4*%
X96450000Y-146895000D03*
X96450000Y-148720000D03*
%TD*%
D21*
%TO.C,C22*%
X123850000Y-123000000D03*
X123850000Y-121100000D03*
%TD*%
D40*
%TO.C,R27*%
X141862500Y-92150000D03*
X138937500Y-92150000D03*
%TD*%
D41*
%TO.C,U22*%
X108415000Y-111925000D03*
X108415000Y-111275000D03*
X108415000Y-110625000D03*
X108415000Y-109975000D03*
X108415000Y-109325000D03*
X108415000Y-108675000D03*
X108415000Y-108025000D03*
X108415000Y-107375000D03*
X108415000Y-106725000D03*
X108415000Y-106075000D03*
X108415000Y-105425000D03*
X108415000Y-104775000D03*
X108415000Y-104125000D03*
X108415000Y-103475000D03*
X102685000Y-103475000D03*
X102685000Y-104125000D03*
X102685000Y-104775000D03*
X102685000Y-105425000D03*
X102685000Y-106075000D03*
X102685000Y-106725000D03*
X102685000Y-107375000D03*
X102685000Y-108025000D03*
X102685000Y-108675000D03*
X102685000Y-109325000D03*
X102685000Y-109975000D03*
X102685000Y-110625000D03*
X102685000Y-111275000D03*
X102685000Y-111925000D03*
%TD*%
D19*
%TO.C,C66*%
X103880000Y-86300000D03*
X103880000Y-88200000D03*
%TD*%
D22*
%TO.C,U9*%
X140931000Y-132837538D03*
X140931000Y-132337538D03*
X140931000Y-131837538D03*
X140931000Y-131337538D03*
X140931000Y-130837538D03*
X136531000Y-130837538D03*
X136531000Y-131337538D03*
X136531000Y-131837538D03*
X136531000Y-132337538D03*
X136531000Y-132837538D03*
%TD*%
D21*
%TO.C,C78*%
X80200000Y-105350000D03*
X80200000Y-103450000D03*
%TD*%
D27*
%TO.C,R51*%
X125971250Y-94905000D03*
X127796250Y-94905000D03*
%TD*%
D21*
%TO.C,C51*%
X149950000Y-94150000D03*
X149950000Y-92250000D03*
%TD*%
%TO.C,C57*%
X163550000Y-94150000D03*
X163550000Y-92250000D03*
%TD*%
D39*
%TO.C,C74*%
X104130000Y-90200000D03*
X102230000Y-90200000D03*
%TD*%
%TO.C,C73*%
X112530000Y-86800000D03*
X110630000Y-86800000D03*
%TD*%
D19*
%TO.C,C84*%
X157000000Y-112600000D03*
X157000000Y-114500000D03*
%TD*%
D29*
%TO.C,C16*%
X137550000Y-121500000D03*
X139450000Y-121500000D03*
%TD*%
D42*
%TO.C,D9*%
X139600000Y-118700000D03*
X136800000Y-118700000D03*
%TD*%
D27*
%TO.C,R69*%
X152287500Y-90400000D03*
X154112500Y-90400000D03*
%TD*%
D21*
%TO.C,C75*%
X99430000Y-92200000D03*
X99430000Y-90300000D03*
%TD*%
D19*
%TO.C,C7*%
X167350000Y-132250000D03*
X167350000Y-134150000D03*
%TD*%
D27*
%TO.C,R67*%
X143737500Y-90800000D03*
X145562500Y-90800000D03*
%TD*%
%TO.C,R38*%
X125930000Y-107755000D03*
X127755000Y-107755000D03*
%TD*%
D32*
%TO.C,Q5*%
X146550000Y-144110000D03*
X147500000Y-141490000D03*
X145600000Y-141490000D03*
%TD*%
D24*
%TO.C,R42*%
X112831250Y-104600000D03*
X112831250Y-102775000D03*
%TD*%
D31*
%TO.C,C1*%
X68450000Y-138057500D03*
X68450000Y-131557500D03*
%TD*%
D17*
%TO.C,D2*%
X96500000Y-144300000D03*
X96500000Y-141500000D03*
%TD*%
D15*
%TO.C,R59*%
X80318750Y-100000000D03*
X80318750Y-101825000D03*
%TD*%
D24*
%TO.C,R50*%
X128383750Y-100917500D03*
X128383750Y-99092500D03*
%TD*%
D27*
%TO.C,R53*%
X121337500Y-101200000D03*
X123162500Y-101200000D03*
%TD*%
D29*
%TO.C,C50*%
X143700000Y-93200000D03*
X145600000Y-93200000D03*
%TD*%
D21*
%TO.C,C5*%
X70900000Y-106750000D03*
X70900000Y-104850000D03*
%TD*%
D30*
%TO.C,R30*%
X165837500Y-109600000D03*
X168762500Y-109600000D03*
%TD*%
D33*
%TO.C,DC_U3*%
X172750000Y-143335000D03*
X173700000Y-143335000D03*
X174650000Y-143335000D03*
X174650000Y-140965000D03*
X173700000Y-140965000D03*
X172750000Y-140965000D03*
%TD*%
D21*
%TO.C,C53*%
X126183750Y-100955000D03*
X126183750Y-99055000D03*
%TD*%
D24*
%TO.C,R7*%
X77800000Y-138812500D03*
X77800000Y-136987500D03*
%TD*%
D33*
%TO.C,DC_U2*%
X158950000Y-143335000D03*
X159900000Y-143335000D03*
X160850000Y-143335000D03*
X160850000Y-140965000D03*
X159900000Y-140965000D03*
X158950000Y-140965000D03*
%TD*%
D16*
%TO.C,R5*%
X72612500Y-141050000D03*
X70787500Y-141050000D03*
%TD*%
D27*
%TO.C,R49*%
X164587500Y-97000000D03*
X166412500Y-97000000D03*
%TD*%
D24*
%TO.C,R45*%
X110781250Y-104612500D03*
X110781250Y-102787500D03*
%TD*%
D29*
%TO.C,C41*%
X125892500Y-109955000D03*
X127792500Y-109955000D03*
%TD*%
D21*
%TO.C,C38*%
X150010000Y-109000000D03*
X150010000Y-107100000D03*
%TD*%
%TO.C,C35*%
X143990000Y-109000000D03*
X143990000Y-107100000D03*
%TD*%
M02*
